<svg width="280" height="156" fill="none" xmlns="http://www.w3.org/2000/svg"><linearGradient id="a" x1="168.872" y1="0" x2="278.269" y2="0" gradientUnits="userSpaceOnUse"><stop offset="0" style="stop-color:#e8eaed;stop-opacity:.5"/><stop offset="1" style="stop-color:#e8eaed;stop-opacity:0"/></linearGradient><linearGradient id="b" x1="84.15" y1="0" x2="-33.238" y2="0" gradientUnits="userSpaceOnUse"><stop offset="0" style="stop-color:#e8eaed;stop-opacity:.5"/><stop offset="1" style="stop-color:#e8eaed;stop-opacity:0"/></linearGradient><linearGradient id="c" x1="86.943" y1="0" x2="-22.535" y2="0" gradientUnits="userSpaceOnUse"><stop offset="0" style="stop-color:#e8eaed;stop-opacity:.5"/><stop offset="1" style="stop-color:#e8eaed;stop-opacity:0"/></linearGradient><linearGradient id="d" x1="38.813" y1="27.152" x2="54.71" y2="30.18" gradientUnits="userSpaceOnUse"><stop offset=".401" style="stop-color:#000;stop-opacity:0"/><stop offset=".506" style="stop-color:#cddffc;stop-opacity:.1751"/><stop offset=".625" style="stop-color:#9cbff9;stop-opacity:.3747"/><stop offset=".738" style="stop-color:#75a6f7;stop-opacity:.5635"/><stop offset=".842" style="stop-color:#5994f5;stop-opacity:.7363"/><stop offset=".932" style="stop-color:#4889f4;stop-opacity:.8873"/><stop offset="1" style="stop-color:#4285f4"/></linearGradient><linearGradient id="e" x1="72.568" y1="34.118" x2="51.78" y2="29.508" gradientUnits="userSpaceOnUse"><stop offset="0" style="stop-color:#202124"/><stop offset="1" style="stop-color:#202124;stop-opacity:0"/></linearGradient><linearGradient id="f" x1="72.568" y1="34.118" x2="51.78" y2="29.508" gradientUnits="userSpaceOnUse"><stop offset="0" style="stop-color:#202124"/><stop offset="1" style="stop-color:#202124;stop-opacity:0"/></linearGradient><linearGradient id="g" x1="77.277" y1="38.054" x2="71.026" y2="36.452" gradientUnits="userSpaceOnUse"><stop offset="0" style="stop-color:#202124"/><stop offset="1" style="stop-color:#202124;stop-opacity:0"/></linearGradient><linearGradient id="h" x1="76.101" y1="34.864" x2="72.125" y2="33.934" gradientUnits="userSpaceOnUse"><stop offset="0" style="stop-color:#202124"/><stop offset="1" style="stop-color:#202124;stop-opacity:0"/></linearGradient><linearGradient id="i" x1="76.134" y1="40.927" x2="70.316" y2="39.251" gradientUnits="userSpaceOnUse"><stop offset="0" style="stop-color:#202124"/><stop offset="1" style="stop-color:#202124;stop-opacity:0"/></linearGradient><radialGradient id="j" cx="0" cy="0" r="1" gradientUnits="userSpaceOnUse" gradientTransform="matrix(65.5529 0 0 65.5527 166.151 -.39)"><stop offset="0" style="stop-color:#000;stop-opacity:.374"/><stop offset="1" style="stop-color:#000;stop-opacity:0"/></radialGradient><linearGradient id="k" x1="126.524" y1="35.655" x2="125.891" y2="74.035" gradientUnits="userSpaceOnUse"><stop offset="0" style="stop-color:#d6d6d6;stop-opacity:.5"/><stop offset=".295" style="stop-color:#dcdcdc;stop-opacity:.3522"/><stop offset=".671" style="stop-color:#ebebeb;stop-opacity:.1643"/><stop offset="1" style="stop-color:#fff;stop-opacity:0"/></linearGradient><g transform="translate(10,30)"><path d="M235.953 22.479H192.08c-13.282 0-24.053 10.77-24.053 24.053 0 2.87.526 5.609 1.448 8.154l-5.843 9.848 12.621.084c4.232 3.707 9.757 5.967 15.821 5.967h43.873c13.283 0 24.053-10.77 24.053-24.053.007-13.283-10.764-24.053-24.047-24.053Z" fill="url(#a)"/><path d="M88.631 58.96c.186-.18.204-.463.04-.634-.164-.17-.448-.163-.634.016s-.204.462-.04.632c.165.17.448.164.634-.015Z" fill="#fff"/><path d="M216.803 65.1061c-4.862 0-8.803-3.9407-8.803-8.8032v-.4999c0-4.8626 3.941-8.8032 8.803-8.8032 4.863 0 8.803 3.9406 8.803 8.8032v.4999c0 4.8625-3.94 8.8032-8.803 8.8032Z" fill="#34A853"/><path d="M207.321 41 190 31l-10 17.32 17.321 10 10-17.32Z" fill="#FBBC04"/><path d="m201.6 28 2.01 3.33m-2.61-.69 3.33-2.01M247 46.32l3.83-.69m-1.58 2.19-.69-3.82M183 60.2l3.87-.4m-1.74 2.07-.41-3.87" stroke="#4285F4" stroke-width=".96" stroke-miterlimit="10" stroke-linecap="round"/><path d="m234.219 56.251-5.031-17.288c-.714-2.46.669-5.044 3.084-5.771 2.421-.727 4.966.675 5.68 3.135l5.032 17.289c.714 2.46-.669 5.044-3.084 5.771-2.422.727-4.96-.675-5.681-3.136Z" fill="#4285F4"/><path d="M222.73 43.86 208 35.868c5.025-2.954 10.043-5.914 15.068-8.868-.11 5.615-.227 11.237-.338 16.86Z" fill="#EA4335"/><path d="M19.035 69.044h49.71c3.7 0 7.14 1.07 10.062 2.902l10.517-2.902-4.505 8.868a18.93 18.93 0 0 1 2.96 10.166c0 10.511-8.524 19.035-19.035 19.035h-49.71C8.525 107.113 0 98.589 0 88.078c0-10.51 8.524-19.034 19.035-19.034Z" fill="url(#b)"/><path d="m41.6 64 2.01 3.33M41 66.64l3.33-2.01M74 84.32l3.83-.69m-1.58 2.19L75.56 82M12 75.2l3.87-.4m-1.74 2.07L13.72 73" stroke="#34A853" stroke-width=".96" stroke-miterlimit="10" stroke-linecap="round"/><path d="M38.175 45.291h38.96c2.896 0 5.596-.84 7.885-2.272l8.24 2.272-3.532-6.955a14.808 14.808 0 0 0 2.321-7.968c0-8.24-6.675-14.916-14.915-14.916h-38.96c-8.239 0-14.915 6.676-14.915 14.915 0 8.248 6.676 14.924 14.916 14.924Z" fill="url(#c)"/><path d="m34.279 34.479 3.789.878m-2.314 1.391.879-3.788M75.15 21.21l2.01 3.33m-2.61-.69 3.33-2.01" stroke="#FBBC04" stroke-width=".96" stroke-miterlimit="10" stroke-linecap="round"/><path d="M61 98c5.523 0 10-4.477 10-10s-4.477-10-10-10-10 4.477-10 10 4.477 10 10 10Z" fill="#EA4335"/><path d="m20 98.86 4.81-9.93L29.63 79l6.19 9.13 6.2 9.13-11.01.8-11.01.8Z" fill="#FBBC04"/><path d="m42 40.22 13.651-.733 14.627 2.486 2.555-11.602-8.966-2.25 2.362-6.53a1.423 1.423 0 0 0-2.517-1.283c-.93 1.373-2.892 4.054-4.928 5.49-1.258.884-2.313 2.152-2.718 3.291l-12.172-3.883L42 40.22Z" fill="url(#d)"/><path d="M64.43 20.227a.635.635 0 0 0-.906.136l-.977 1.38a.635.635 0 1 0 1.038.735l.976-1.38a.638.638 0 0 0-.13-.87Z" stroke="#fff" stroke-width=".3" stroke-miterlimit="10" fill="#4285F4"/><path d="M56.065 29.088s-.532 1.679-.13 2.924l-5.508-.883.593-3.703 5.045 1.663Z" fill="url(#e)"/><path d="M73.242 38.005c-.374 1.052-1.715 1.556-2.9 1.092L65.79 37.1a1.389 1.389 0 0 1 .897-2.62l4.974 1.063c1.223.298 1.947 1.426 1.58 2.46Z" fill="#4285F4"/><path d="M73.676 35.286c-.374 1.052-1.715 1.556-2.9 1.092l-4.552-1.995a1.388 1.388 0 0 1 .897-2.62l4.974 1.062c1.225.298 1.947 1.427 1.58 2.461Z" fill="#4285F4"/><path d="M74.112 32.567c-.373 1.052-1.715 1.556-2.9 1.092l-4.552-1.995a1.388 1.388 0 0 1 .897-2.62l4.974 1.062c1.223.3 1.947 1.429 1.58 2.461Zm-9.062 7.248 4.553 1.996c1.184.466 2.526-.04 2.899-1.092.009-.025.014-.049.02-.072l-2.452-1.596 2.135.021a2.31 2.31 0 0 0-1.283-.814l-4.975-1.063a1.389 1.389 0 0 0-.897 2.62Z" fill="#4285F4"/><path d="M72.502 40.721c-.373 1.052-1.715 1.556-2.9 1.092l-4.552-1.995a1.388 1.388 0 0 1 .897-2.62l4.974 1.062c1.223.3 1.947 1.428 1.58 2.461Z" fill="#4285F4"/><path d="M56.065 29.089s-.532 1.678-.13 2.924l-5.508-.883.593-3.703 5.045 1.662Z" fill="url(#f)"/><path d="M73.242 38.004c-.374 1.052-1.715 1.556-2.9 1.092L65.79 37.1a1.388 1.388 0 0 1 .897-2.62l4.974 1.063c1.223.298 1.947 1.426 1.58 2.46Z" fill="#4285F4"/><path d="m70.461 36.12 2.84 1.667c.118-.57-.077-1.15-.489-1.587l-.214-.06-2.137-.02Z" fill="url(#g)"/><path d="M73.676 35.287c-.374 1.051-1.715 1.556-2.9 1.092l-4.552-1.996a1.388 1.388 0 0 1 .897-2.62l4.974 1.062c1.225.299 1.947 1.427 1.58 2.462Z" fill="#4285F4"/><path d="M73.742 35.027c.098-.538-.08-1.078-.455-1.499l-2.135-.02 2.59 1.519Z" fill="url(#h)"/><path d="M74.112 32.567c-.373 1.052-1.715 1.556-2.9 1.092l-4.552-1.995a1.388 1.388 0 0 1 .897-2.62l4.974 1.062c1.223.3 1.947 1.428 1.58 2.461Zm-9.062 7.248 4.553 1.996c1.184.465 2.526-.04 2.899-1.092.009-.025.014-.05.02-.072l-2.452-1.596 2.135.021a2.31 2.31 0 0 0-1.283-.815l-4.975-1.062a1.389 1.389 0 0 0-.897 2.62Z" fill="#4285F4"/><path d="M72.523 40.65c.167-.552.035-1.122-.316-1.576l-2.135-.02 2.45 1.595Z" fill="url(#i)"/><path d="M154.251 43.4189h.676c.168 0 .298.1364.285.3117l-1.052 13.6268c-.013.1688-.162.3116-.331.3116h-.675l1.097-14.2501Zm1.046-13.458h.675c.169 0 .298.1364.285.3117l-.513 6.6413c-.013.1688-.162.3116-.331.3116h-.675l.559-7.2646Z" fill="#4285F4"/><path d="M150.362.007h-39.62c-4.279 0-8.031 3.48-8.362 7.758l-7.661 98.432c-.331 4.278 2.882 7.758 7.161 7.758h39.621c4.278 0 8.03-3.48 8.361-7.758l7.661-98.432c.331-4.279-2.882-7.758-7.161-7.758Z" fill="#4285F4"/><path d="M155.407 37.219a.338.338 0 0 0 .331-.312l.513-6.641a.287.287 0 0 0-.286-.312h-.162l1.72-22.196C157.854 3.48 154.641 0 150.362 0h-39.62c-4.279 0-8.031 3.48-8.362 7.758l-7.661 98.432c-.331 4.279 2.882 7.758 7.161 7.758h39.621c4.278 0 8.03-3.479 8.361-7.758l3.798-48.534h.163a.338.338 0 0 0 .331-.312l1.051-13.627a.286.286 0 0 0-.285-.311h-.163l.481-6.2h.169v.013Z" fill="url(#j)"/><path d="M141.488 112.773h-39.115c-3.81 0-6.66-3.09-6.369-6.901l7.59-97.575c.292-3.811 3.622-6.901 7.44-6.901h39.114c3.811 0 6.661 3.09 6.369 6.9l-7.589 97.576c-.299 3.811-3.623 6.901-7.44 6.901Z" stroke="#fff" stroke-width=".459" stroke-miterlimit="10" stroke-linecap="round" fill="#4285F4"/><path d="M141.903 111.079h-39.504c-2.778 0-4.856-2.252-4.642-5.031l7.33-94.2c.201-2.629 2.499-4.758 5.129-4.758h40.049c2.629 0 4.596 2.129 4.388 4.758l-7.329 94.2c-.214 2.779-2.642 5.031-5.421 5.031Z" fill="#505255"/><path d="M137.32 72.614h-24.098c-3.376 0-5.967-2.733-5.791-6.109l1.227-23.397c.175-3.376 3.057-6.11 6.433-6.11h24.099c3.376 0 5.966 2.734 5.791 6.11l-1.227 23.397c-.176 3.376-3.058 6.11-6.434 6.11Z" fill="url(#k)"/><path d="M127.01 64.0125c-.006.2207.013.4479.078.6752l.033.1103c.35 1.214 1.623 1.9152 2.837 1.5581 1.214-.3571 1.915-1.623 1.558-2.837l-.033-.1104c-.065-.2272-.175-.4285-.292-.6102l-4.181 1.214Zm9.635-6.4931c-.013 0-.02 0-.033.0065-1.065.1298-2.071-.6492-2.395-1.7399l-1.487-5.1092c-1.013-3.4862-4.2-5.7065-7.492-5.4598a1.6242 1.6242 0 0 0 0-.8829c-.253-.857-1.149-1.3504-2.006-1.1037-.857.2532-1.35 1.1491-1.103 2.0061.084.2986.259.5518.474.7465-2.909 1.5581-4.402 5.1417-3.389 8.628l1.551 5.3364c.26 1.0323-.207 2.0905-1.123 2.5189-.643.2987-.967 1.0583-.753 1.7789l.032.1103 2.883-.8374 13.516-3.9407 2.883-.8375-.026-.0974c-.201-.7076-.851-1.214-1.532-1.1231Z" fill="#34A853"/></g></svg>
