<svg xmlns="http://www.w3.org/2000/svg" width="360" height="200" viewBox="0 0 360 200"><path fill="#DADCE0" d="M0,0h360v200H0V0z"/><path fill="#FFF" d="M88.9,168.08l-10.28-3.92c-0.55-0.21-0.96-0.67-1.1-1.24l-2.6-10.69c-0.35-1.44-2.2-1.85-3.12-0.7l-6.9,8.57	c-0.37,0.46-0.94,0.7-1.52,0.66l-10.97-0.83c-1.47-0.11-2.44,1.52-1.63,2.75l6.02,9.21c0.32,0.49,0.38,1.11,0.16,1.65l-4.18,10.18	c-0.56,1.37,0.69,2.79,2.12,2.4l10.62-2.88c0.57-0.15,1.17-0.02,1.62,0.36l8.39,7.12c1.13,0.96,2.86,0.2,2.94-1.27L79,178.48	c0.03-0.59,0.34-1.12,0.84-1.43l9.36-5.78C90.46,170.49,90.29,168.61,88.9,168.08L88.9,168.08z"/><path fill="none" d="M186.6,164.65l-0.15,0.15L186.6,164.65z M177.94,42.87l-6.48-6.47L177.94,42.87z M226.04,90.98l17.11,17.11	L226.04,90.98z"/><path fill="#BABFC5" d="M223.54,127.71l-36.94,36.94C186.6,164.65,223.54,127.71,223.54,127.71z M226.04,90.98l-48.1-48.11	l9.95-7.67l-9.95,7.67L226.04,90.98L226.04,90.98z M245.24,119.05l-5.3-7.75L245.24,119.05z"/><linearGradient id="a" gradientUnits="userSpaceOnUse" x1="-3044.509" y1="2331.873" x2="-3043.509" y2="2331.873" gradientTransform="matrix(-18.62 18.62 -16.273 -16.273 -18510.2266 94761.1328)"><stop offset="0" style="stop-color:#BABFC5"/><stop offset="1" style="stop-color:#9BA1A9"/></linearGradient><path fill="url(#a)" d="M186.6,164.65l58.64-45.6L186.6,164.65z"/><linearGradient id="b" gradientUnits="userSpaceOnUse" x1="-3044.509" y1="2334.568" x2="-3043.509" y2="2334.568" gradientTransform="matrix(-18.62 18.62 -16.273 -16.273 -18510.2266 94761.1328)"><stop offset="0" style="stop-color:#BABFC5"/><stop offset="1" style="stop-color:#9BA1A9"/></linearGradient><path fill="url(#b)" d="M226.04,90.98L187.89,35.2L226.04,90.98L226.04,90.98z"/><path fill="#BABFC5" d="M226.04,90.98L187.89,35.2l-9.95,7.67L226.04,90.98L226.04,90.98z"/><linearGradient id="c" gradientUnits="userSpaceOnUse" x1="-3044.509" y1="2334.603" x2="-3043.509" y2="2334.603" gradientTransform="matrix(-18.62 18.62 -16.273 -16.273 -18510.2266 94761.1328)"><stop offset="0" style="stop-color:#BABFC5"/><stop offset="1" style="stop-color:#9BA1A9"/></linearGradient><path fill="url(#c)" d="M226.04,90.98L187.89,35.2l-9.95,7.67L226.04,90.98L226.04,90.98z"/><path fill="#BABFC5" d="M223.54,127.71l-36.94,36.94l58.64-45.6l-5.3-7.75C239.94,111.3,223.54,127.71,223.54,127.71z"/><linearGradient id="d" gradientUnits="userSpaceOnUse" x1="-3044.509" y1="2331.873" x2="-3043.509" y2="2331.873" gradientTransform="matrix(-18.62 18.62 -16.273 -16.273 -18510.2266 94761.1328)"><stop offset="0" style="stop-color:#BABFC5"/><stop offset="1" style="stop-color:#9BA1A9"/></linearGradient><path fill="url(#d)" d="M223.54,127.71l-36.94,36.94l58.64-45.6l-5.3-7.75C239.94,111.3,223.54,127.71,223.54,127.71z"/><path fill="#FFF" d="M177.94,42.87l-6.47-6.47l-56.7,56.7l71.69,71.69l0.14-0.14l36.94-36.94l16.4-16.4l3.21-3.21l-17.11-17.11	C226.04,90.99,177.94,42.87,177.94,42.87z M151.78,67.87l27.47,27.47L155,119.59l-27.47-27.47L151.78,67.87z M186.86,150.02	c-0.31,0.31-0.81,0.32-1.12,0.02c-0.01-0.01-0.01-0.01-0.02-0.02l-25.29-25.29c-0.31-0.32-0.31-0.82,0-1.14	c0.31-0.31,0.82-0.31,1.14,0l25.29,25.29C187.17,149.2,187.17,149.71,186.86,150.02L186.86,150.02z M191.67,145.2	c-0.31,0.31-0.81,0.32-1.12,0.02c-0.01-0.01-0.01-0.01-0.02-0.02l-25.29-25.29c-0.31-0.32-0.31-0.82,0-1.14	c0.31-0.31,0.82-0.31,1.14,0l25.29,25.29C191.99,144.38,191.99,144.89,191.67,145.2L191.67,145.2z M196.31,140.21	c-0.31,0.31-0.81,0.32-1.12,0.02c-0.01-0.01-0.01-0.01-0.02-0.02l-25.29-25.29c-0.31-0.32-0.31-0.82,0-1.14	c0.31-0.31,0.82-0.31,1.14,0l25.29,25.29C196.63,139.38,196.63,139.89,196.31,140.21z M201.13,135.39	c-0.31,0.31-0.81,0.32-1.12,0.02c-0.01-0.01-0.01-0.01-0.02-0.02L174.7,110.1c-0.31-0.32-0.31-0.82,0-1.14	c0.31-0.31,0.82-0.31,1.14,0l25.29,25.29C201.44,134.56,201.44,135.07,201.13,135.39L201.13,135.39z M205.95,130.57	c-0.31,0.31-0.81,0.32-1.12,0.02c-0.01-0.01-0.01-0.01-0.02-0.02l-25.29-25.29c-0.31-0.32-0.31-0.82,0-1.14	c0.31-0.31,0.82-0.31,1.14,0l25.29,25.29C206.26,129.75,206.26,130.26,205.95,130.57z M210.76,125.75	c-0.31,0.31-0.81,0.32-1.12,0.02c-0.01-0.01-0.01-0.01-0.02-0.02l-25.29-25.29c-0.31-0.32-0.31-0.82,0-1.14	c0.31-0.31,0.82-0.31,1.14,0l25.29,25.29C211.08,124.93,211.08,125.44,210.76,125.75z M159.57,60l10.15-10.15l60.37,60.37	l-10.15,10.15L159.57,60z"/><path fill="#DADCE0" d="M127.53,92.12l24.25-24.25l27.47,27.47L155,119.59C155,119.59,127.53,92.12,127.53,92.12z M159.56,60	l10.15-10.15l60.38,60.36l-10.15,10.15L159.56,60z"/><path fill="#959CA5" d="M185.47,99.33c-0.32-0.31-0.82-0.31-1.14,0c-0.31,0.31-0.31,0.82,0,1.14l25.29,25.29	c0.31,0.31,0.81,0.32,1.12,0.02c0.01-0.01,0.01-0.01,0.02-0.02c0.31-0.31,0.31-0.82,0-1.14L185.47,99.33z M180.66,104.14	c-0.32-0.31-0.82-0.31-1.14,0c-0.31,0.31-0.31,0.82,0,1.14l25.29,25.29c0.31,0.31,0.81,0.32,1.12,0.02	c0.01-0.01,0.01-0.01,0.02-0.02c0.31-0.31,0.31-0.82,0-1.14C205.95,129.43,180.66,104.14,180.66,104.14z M175.84,108.96	c-0.32-0.31-0.82-0.31-1.14,0c-0.31,0.31-0.31,0.82,0,1.14l25.29,25.29c0.31,0.31,0.81,0.32,1.12,0.02	c0.01-0.01,0.01-0.01,0.02-0.02c0.31-0.31,0.31-0.82,0-1.14L175.84,108.96z M171.02,113.78c-0.32-0.31-0.82-0.31-1.14,0	c-0.31,0.31-0.31,0.82,0,1.14l25.29,25.29c0.31,0.31,0.81,0.32,1.12,0.02c0.01-0.01,0.01-0.01,0.02-0.02c0.31-0.31,0.31-0.82,0-1.14	C196.31,139.07,171.02,113.78,171.02,113.78z M166.38,118.77c-0.32-0.31-0.82-0.31-1.14,0c-0.31,0.31-0.31,0.82,0,1.14l25.29,25.29	c0.31,0.31,0.81,0.32,1.12,0.02c0.01-0.01,0.01-0.01,0.02-0.02c0.31-0.31,0.31-0.82,0-1.14L166.38,118.77L166.38,118.77z M161.57,123.59c-0.32-0.31-0.82-0.31-1.14,0c-0.31,0.31-0.31,0.82,0,1.14l25.29,25.29c0.31,0.31,0.81,0.32,1.12,0.02	c0.01-0.01,0.01-0.01,0.02-0.02c0.31-0.31,0.31-0.82,0-1.14L161.57,123.59L161.57,123.59z"/><path fill="#FFF" d="M303.35,78.45L286,61.1l28.66-38.69l-2.15-2.15l-8.12,4.51l3.03,3.03c0.27,0.27,0.27,0.72,0,0.99	c-0.27,0.28-0.72,0.28-0.99,0l-4.34-4.34l9.4-5.22l-3.55-3.55l-28.66,38.69L303.35,78.45L303.35,78.45z"/><linearGradient id="e" gradientUnits="userSpaceOnUse" x1="-3072.012" y1="2367.615" x2="-3071.012" y2="2367.615" gradientTransform="matrix(35.2217 -35.2217 35.2217 35.2217 25081.1562 -191511.2812)"><stop offset="0" style="stop-color:#DCDFE2"/><stop offset="1" style="stop-color:#FFFFFF"/></linearGradient><path fill="url(#e)" d="M303.35,78.45L286,61.1l28.66-38.69l-2.15-2.15l-8.12,4.51l3.03,3.03c0.27,0.27,0.27,0.72,0,0.99	c-0.27,0.28-0.72,0.28-0.99,0l-4.34-4.34l9.4-5.22l-3.55-3.55l-28.66,38.69L303.35,78.45L303.35,78.45z"/><path fill="#FFF" d="M323.55,31.3l15.63,15.63L323.55,31.3z"/><linearGradient id="f" gradientUnits="userSpaceOnUse" x1="-3070.553" y1="2367.645" x2="-3070.553" y2="2368.089" gradientTransform="matrix(35.2217 -35.2217 35.2217 35.2217 25081.1562 -191511.2812)"><stop offset="0" style="stop-color:#DCDFE2"/><stop offset="1" style="stop-color:#FFFFFF"/></linearGradient><path fill="url(#f)" d="M323.55,31.3l15.63,15.63L323.55,31.3z"/><path fill="#979DA5" d="M306.42,28.79c0.27,0.28,0.72,0.28,0.99,0c0.27-0.27,0.27-0.72,0-0.99l-3.03-3.03l8.12-4.51l13.81-7.67	l22.58,22.58l-7.49,13.98l1.04,1.04l8.19-15.28l-24.07-24.07l-15.08,8.38l-9.4,5.22L306.42,28.79z"/><path fill="#FFF" d="M314.66,22.41L286,61.1l17.35,17.35l4.58,4.58l38.69-28.66l-4.19-4.19l-1.04-1.04L314.66,22.41L314.66,22.41	z M312.35,70.56l-0.24,0.04c-0.2,0-0.39-0.08-0.53-0.22l-11.7-11.7c-0.2-0.2-0.27-0.5-0.18-0.77s0.33-0.47,0.61-0.5l5.18-0.69	l3.94-3.94l-1.18-1.18c-0.21-0.21-0.28-0.52-0.17-0.8c0.1-0.28,0.36-0.47,0.65-0.49l5.29-0.35l3.3-3.3l-1.06-1.06	c-0.21-0.21-0.28-0.53-0.17-0.81c0.11-0.28,0.38-0.46,0.69-0.47l8.44-0.11c0.2,0.02,0.4,0.08,0.54,0.22s0.22,0.34,0.22,0.54	l-0.11,8.44c0,0.3-0.19,0.57-0.47,0.69c-0.09,0.04-0.19,0.06-0.28,0.06c-0.2,0-0.39-0.08-0.53-0.22l-1.06-1.06l-3.25,3.25	l-0.36,5.38c-0.02,0.29-0.21,0.55-0.49,0.65l-0.26,0.05c-0.2,0-0.39-0.08-0.53-0.22l-1.23-1.23l-3.83,3.83l-0.72,5.37	C312.82,70.23,312.62,70.47,312.35,70.56z M302.01,58.69l9.56,9.55l0.5-3.77l-6.28-6.29L302.01,58.69z"/><path fill="#BABFC5" d="M312.86,69.95l0.72-5.37l-0.16,0.16c-0.15,0.15-0.34,0.22-0.53,0.22s-0.38-0.07-0.53-0.22l-0.28-0.28	l-0.5,3.77l-9.55-9.55l3.77-0.51l-0.36-0.36c-0.29-0.29-0.29-0.77,0-1.06l0.06-0.06l-5.18,0.69c-0.28,0.04-0.52,0.23-0.61,0.5	s-0.02,0.57,0.18,0.77l11.7,11.7c0.14,0.14,0.33,0.22,0.53,0.22l0.24-0.04C312.62,70.47,312.82,70.23,312.86,69.95L312.86,69.95z"/><path fill="#FFF" d="M307.02,57.3l3.46-3.47l5.86,5.85l-3.46,3.47L307.02,57.3z"/><path fill="#BABFC5" d="M305.43,57.83l0.36,0.36l6.29,6.29l0.28,0.28c0.15,0.15,0.34,0.22,0.53,0.22s0.38-0.07,0.53-0.22l0.16-0.16	l3.83-3.83l-1.06-1.06l-3.46,3.46l-5.86-5.86l3.46-3.46l-1.06-1.06l-3.94,3.94l-0.06,0.06C305.13,57.06,305.13,57.53,305.43,57.83z"/><path fill="#FFF" d="M310.47,51.69l8.06,8.06l0.24-3.62l-4.68-4.68C314.09,51.45,310.47,51.69,310.47,51.69z"/><path fill="#BABFC5" d="M310.49,53.83l5.86,5.86l1.06,1.06l1.23,1.23c0.14,0.14,0.33,0.22,0.53,0.22l0.26-0.05	c0.28-0.1,0.47-0.36,0.49-0.65l0.36-5.38l-0.23,0.23c-0.15,0.15-0.34,0.22-0.53,0.22s-0.38-0.07-0.53-0.22l-0.22-0.22l-0.24,3.62	l-8.05-8.05l3.62-0.24l-0.26-0.26c-0.29-0.29-0.29-0.77,0-1.06l0.18-0.18l-5.29,0.35c-0.42,0.04-0.73,0.4-0.69,0.82	c0.01,0.18,0.09,0.34,0.21,0.47l1.18,1.18L310.49,53.83L310.49,53.83z"/><path fill="#FFF" d="M324.46,45.71l-5.88,0.08l5.81,5.81C324.39,51.6,324.46,45.71,324.46,45.71z"/><path fill="#BABFC5" d="M318.89,46.13l5.16,5.16c0.29,0.29,0.29,0.77,0,1.06l-0.52,0.52l1.06,1.06c0.14,0.14,0.34,0.22,0.53,0.22	c0.1,0,0.19-0.02,0.28-0.06c0.28-0.11,0.46-0.38,0.47-0.69l0.11-8.44c0-0.2-0.08-0.4-0.22-0.54s-0.35-0.2-0.54-0.22l-8.44,0.11	c-0.3,0-0.57,0.19-0.69,0.47c-0.11,0.28-0.05,0.6,0.17,0.81l1.06,1.06l0.52-0.52C318.12,45.83,318.59,45.83,318.89,46.13	L318.89,46.13z M318.58,45.79l5.89-0.08l-0.08,5.89L318.58,45.79L318.58,45.79z"/><path fill="#FFF" d="M315.42,50.66l2.93-2.93l4.09,4.1l-2.93,2.93L315.42,50.66z"/><path fill="#BABFC5" d="M313.83,51.19l0.26,0.26l4.68,4.68l0.22,0.22c0.15,0.15,0.34,0.22,0.53,0.22s0.38-0.07,0.53-0.22l0.23-0.23	l3.25-3.25l0.52-0.52c0.29-0.29,0.29-0.77,0-1.06l-5.16-5.16c-0.29-0.29-0.77-0.29-1.06,0l-0.52,0.52l-3.3,3.3l-0.18,0.18	C313.54,50.42,313.54,50.89,313.83,51.19L313.83,51.19z M322.45,51.82l-2.93,2.93l-4.09-4.09l2.93-2.93L322.45,51.82z"/><path fill="#FFF" d="M111.95,119.74l-4.83-4.83L88,134.03l4.02,4.02l15.87-15.87C109.02,121.04,110.42,120.21,111.95,119.74z"/><path fill="#BABFC5" d="M121.78,122.18c-3.84-3.83-10.05-3.83-13.89,0l-15.87,15.87l-3.69,3.69l52.04,52.04l19.57-19.57	c3.83-3.83,3.83-10.05,0-13.88L121.78,122.18L121.78,122.18z M122.07,132.46l-16.51,16.51c-0.14,0.14-0.32,0.21-0.5,0.21	c-0.39,0-0.7-0.32-0.7-0.71c0-0.18,0.07-0.36,0.2-0.49l16.51-16.51c0.27-0.28,0.72-0.28,0.99,0	C122.34,131.74,122.34,132.19,122.07,132.46L122.07,132.46z"/><path fill="#979DA5" d="M121.07,131.47l-16.51,16.51c-0.27,0.28-0.27,0.73,0.01,1c0.13,0.13,0.31,0.2,0.49,0.2	c0.18,0,0.36-0.07,0.5-0.21l16.51-16.51c0.27-0.27,0.27-0.72,0-0.99C121.79,131.2,121.35,131.2,121.07,131.47L121.07,131.47z"/><path fill="#FFF" d="M254.25,139.07c1.17-1.18,1.07-3.12-0.23-4.16c-0.9-0.72-2.16-0.79-3.13-0.16	c-1.74,1.13-4.25,2.77-4.35,2.84c-12.64,8.39-14.95,9.23-15.16,16.13c-0.07,2.13-0.24,2.88-1.66,4.45l-19.15,18.33	c-0.97,0.93-0.98,2.48-0.03,3.43s2.49,0.94,3.42-0.02l18.51-19.12C233.75,159.65,248.57,144.78,254.25,139.07L254.25,139.07z M265.6,150.3l-10.38,10.38c-0.49,0.49-1.32,0.43-1.72-0.19c-0.29-0.44-0.19-1.03,0.18-1.41l10.65-11.13c0.28-0.3,0.28-0.76,0-1.06	c-0.29-0.31-0.78-0.32-1.09-0.03l-11.16,10.68c-0.49,0.49-1.32,0.43-1.72-0.19c-0.29-0.44-0.2-1.03,0.18-1.41l10.42-10.42	c0.28-0.28,0.21-0.76-0.15-0.94l-0.09-0.05c-0.19-0.1-0.42-0.08-0.6,0.04c-12.42,8.5-14.67,9.42-15,16.09	c-0.1,2.06-0.28,2.78-1.68,4.34l-21.78,21.18c-0.95,0.93-0.96,2.46-0.02,3.4c0.95,0.95,2.48,0.93,3.41-0.03l21-21.82	c1.56-1.41,2.3-1.58,4.43-1.65c6.86-0.21,7.69-2.5,16.03-15.07c0.1-0.15,0.13-0.34,0.07-0.51C266.44,150.12,265.91,150,265.6,150.3	L265.6,150.3z"/><path fill="#7F8791" d="M283.5,121.89c-1.78,1.8-4.16,2.79-6.68,2.79s-4.89-0.99-6.68-2.79c-3.69-3.71-3.69-9.76,0-13.47	c0.15-0.15,0.31-0.29,0.47-0.43l-1.42-1.43c-0.16,0.15-0.33,0.28-0.48,0.44c-4.46,4.5-4.46,11.81,0,16.31	c2.16,2.18,5.04,3.38,8.1,3.38s5.94-1.2,8.1-3.38l0.43-0.47l-1.42-1.43L283.5,121.89L283.5,121.89z"/><path fill="#FFF" d="M254.52,86.36c-0.55,0-1.07-0.22-1.45-0.61c-0.81-0.81-0.81-2.13,0-2.95l3.94-3.97	c0.26-0.29,0.23-0.72-0.05-0.98c-0.26-0.24-0.66-0.24-0.93,0l-3.94,3.97c-1.34,1.35-1.34,3.54,0,4.89c0.65,0.66,1.52,1.02,2.44,1.02	s1.79-0.36,2.44-1.02l15.46-15.58c0.39-0.39,0.9-0.61,1.45-0.61c0.53,0,1.03,0.2,1.41,0.57c0.77,0.81,0.76,2.11-0.03,2.91	l-12.8,12.89c-1.34,1.35-1.34,3.54,0,4.89l0.1,0.1c0.65,0.66,1.52,1.02,2.44,1.02s1.79-0.36,2.44-1.02l3.69-3.71	c0.78-0.79,2.13-0.79,2.91,0l2.24,2.26l0.97-0.98L275,87.22c-1.3-1.31-3.57-1.31-4.87,0l-3.69,3.71c-0.78,0.78-2.13,0.78-2.91,0	l-0.1-0.1c-0.81-0.81-0.81-2.13,0-2.94L276.23,75c1.31-1.33,1.34-3.45,0.07-4.82l-0.02-0.02l-0.06-0.06	c-0.64-0.61-1.48-0.94-2.36-0.94c-0.92,0-1.79,0.36-2.44,1.02l-15.46,15.58C255.58,86.14,255.07,86.36,254.52,86.36L254.52,86.36z"/><path fill="#959CA5" d="M264.74,102.06l4.46,4.5l1.41,1.42l13.32,13.42l1.42,1.43l7.27,7.32l22.65-22.81l-27.89-28.09l-10.14,10.22	l-0.98,0.98C276.26,90.45,264.74,102.06,264.74,102.06z"/><path fill="#FFF" d="M38.56,80.64l-1.03,1.03l-1.38,1.37l-3.01,3.01L38,90.9l3.6-3.59c3.31-3.3,3.31-8.66,0-11.97	c-0.57-0.57-1.22-1.05-1.93-1.44C40.74,76.1,40.39,78.81,38.56,80.64z M22.63,96.55c-1.82,1.82-4.52,2.17-6.72,1.11	c0.38,0.69,0.85,1.34,1.43,1.92c3.3,3.3,8.66,3.3,11.96,0l3.85-3.84l-4.86-4.86C28.29,90.88,22.63,96.55,22.63,96.55z"/><path fill="#BABFC5" d="M24.82,77.72l0.11,0.11h3.21c2.35,0,4.26,1.91,4.26,4.26v3.21l0.74,0.74l3.01-3.01v-6.07	c0-1.59-1.3-2.89-2.89-2.89h-4.8l-3.75,3.75C24.71,77.82,24.82,77.72,24.82,77.72z M14.31,96.55c0.48,0.48,1.03,0.83,1.6,1.11	c2.19,1.06,4.9,0.71,6.72-1.11l5.67-5.66l-2.08-2.08v4.16l-1.38,1.37v-6.07c0-0.37-0.08-0.72-0.2-1.04L23,85.58	c-0.32-0.13-0.67-0.2-1.04-0.2h-4.8l-2.84,2.84c-0.29,0.29-0.54,0.6-0.76,0.93h3.69c2.35,0,4.26,1.91,4.26,4.26v3.99	c-0.44,0.26-0.9,0.46-1.38,0.6v-4.59c0-1.59-1.3-2.89-2.89-2.89H12.9c0.07-0.2,0.15-0.4,0.23-0.59	C12.15,92.1,12.52,94.75,14.31,96.55z M37.53,76.97v4.7l1.03-1.03c1.83-1.82,2.18-4.54,1.11-6.74c-0.28-0.57-0.63-1.11-1.1-1.59	c-2.3-2.3-6.02-2.3-8.32,0l-0.4,0.4h3.43C35.62,72.71,37.53,74.62,37.53,76.97z M21.42,84.01l-1.44-1.45l3.36-3.35l-4.81,4.8	C18.53,84.01,21.42,84.01,21.42,84.01z M28.14,79.21h-1.83l4.72,4.72V82.1C31.03,80.5,29.73,79.21,28.14,79.21z"/><path fill="#FFF" d="M17.25,90.52c1.59,0,2.89,1.3,2.89,2.89V98c0.48-0.14,0.94-0.33,1.38-0.6v-3.99c0-2.35-1.91-4.26-4.26-4.26	h-3.69c-0.16,0.25-0.29,0.51-0.41,0.78l-0.23,0.59C12.93,90.52,17.25,90.52,17.25,90.52z M21.96,85.38c0.37,0,0.72,0.08,1.04,0.2	L21.42,84h-2.89l-1.38,1.37C17.15,85.37,21.96,85.38,21.96,85.38z M24.85,88.27v6.07l1.38-1.37v-4.16l-1.58-1.58	C24.77,87.55,24.85,87.9,24.85,88.27z M24.72,77.83h-0.01l-1.37,1.38C23.34,79.21,24.72,77.83,24.72,77.83z M26.31,79.21h1.83	c1.59,0,2.89,1.3,2.89,2.89v1.83l1.38,1.37v-3.2c0-2.35-1.91-4.26-4.26-4.26h-3.21C24.94,77.84,26.31,79.21,26.31,79.21z M33.27,74.08c1.59,0,2.89,1.3,2.89,2.89v6.07l1.38-1.37v-4.7c0-2.35-1.91-4.26-4.26-4.26h-3.43l-1.38,1.37H33.27z"/><path fill="#959CA5" d="M32.4,85.3l-1.37-1.37l-4.72-4.72l-1.38-1.38l-0.11-0.11l-0.1,0.11l-1.38,1.38l-3.36,3.35l1.44,1.45	L23,85.58l1.65,1.65l1.57,1.58l2.08,2.08l4.86,4.85l0.11,0.11l4.84-4.84L38,90.9l-4.85-4.85C33.15,86.05,32.4,85.3,32.4,85.3z"/><path fill="#7F8791" d="M71.24,101.11L77,95.29l16.81,9.5c0.13,0.07,0.27,0.11,0.4,0.11c0.29,0,0.56-0.15,0.72-0.42	c0.22-0.39,0.08-0.89-0.31-1.12l-17.35-9.81c-0.12-0.07-0.26-0.11-0.4-0.11c-0.21,0-0.42,0.08-0.58,0.24l-6.2,6.26	C70.09,99.94,71.24,101.11,71.24,101.11z"/><path fill="#BABFC5" d="M54.72,91.82l-14.88,16.69l22.45,22.45l-1.23,1.1l-22.31-22.32l-2.56,2.87l22.01,22.01l-1.22,1.09	L35.1,113.83l-2.35,2.64l21.59,21.6l-1.22,1.1L31.65,117.7L10.8,141.08l18.97,18.97l49.19-44L54.72,91.82L54.72,91.82z"/><path fill="#FFF" d="M57.22,87.1l-4.11,3.11l1.61,1.61l24.24,24.23l1.6,1.6l3.11-4.11l-12.43-12.43l-1.16-1.16L57.22,87.1z M61.06,132.06l1.23-1.1l-22.45-22.45l-1.09,1.23C38.75,109.74,61.06,132.06,61.06,132.06z M56.98,135.71l1.22-1.09l-22.01-22.01	l-1.09,1.22L56.98,135.71z M53.12,139.17l1.22-1.1l-21.59-21.6l-1.1,1.23L53.12,139.17z"/><path fill="#BABFC5" d="M135.83,46.95c0.37,0.37,0.65,0.79,0.88,1.23c1.31-0.78,2.56-1.71,3.69-2.84c1.69-1.69,2.97-3.63,3.87-5.7	l-1.4-0.76l0.79-1.44l1.2,0.66c2.13-6.43,0.66-13.8-4.46-18.92c-4.3-4.3-10.19-6.02-15.78-5.2l1.23,2.18l-1.43,0.8l-1.5-2.66	c-3.18,0.78-6.2,2.39-8.69,4.87c-1.08,1.09-2.02,2.3-2.8,3.62c0.36,0.21,0.7,0.46,1.01,0.77L135.83,46.95L135.83,46.95z M137.28,26.66l4.44,2.54l-0.81,1.42l-4.44-2.54C136.47,28.08,137.28,26.66,137.28,26.66z M133.57,38.51l-1.64-0.06l0.16-4.6	l1.64,0.06L133.57,38.51z M132.43,19.9l0.32,1.61l-4.76,0.95l-0.32-1.61L132.43,19.9z M118.09,19.86l2.38,4.6l-1.46,0.75l-2.38-4.6	L118.09,19.86z"/><path fill="#FFF" d="M118.86,57.98c-3.56-0.35-7.03-1.89-9.76-4.62l-3.04-3.04c-2.81-2.81-4.35-6.4-4.64-10.08l-0.18-0.18	L80.07,64.25l14.77,14.77C94.84,79.02,118.86,57.98,118.86,57.98z M105.49,33.57c-0.22,1.65-0.3,2.72,0.69,3.71	c0.99,0.99,2.06,0.91,3.71,0.69c1.63-0.22,3.47-0.46,5.08,1.15c1.62,1.62,1.37,3.46,1.16,5.08c-0.22,1.65-0.3,2.72,0.69,3.71	s2.06,0.91,3.71,0.69c1.62-0.22,3.47-0.46,5.09,1.16s1.37,3.46,1.16,5.09c-0.1,0.77-0.17,1.4-0.12,1.97	c1.78-0.74,3.44-1.82,4.91-3.23l-25.73-25.73c-0.37,0.38-0.71,0.77-1.03,1.18C105.89,30.51,105.68,32.12,105.49,33.57L105.49,33.57z M109.1,53.36c2.73,2.73,6.2,4.27,9.76,4.62c2.08,0.21,4.2,0.01,6.22-0.6c-0.16-0.93-0.05-1.87,0.07-2.75	c0.22-1.65,0.3-2.72-0.69-3.71c-1-1-2.06-0.91-3.71-0.69c-1.63,0.21-3.47,0.46-5.09-1.16c-1.62-1.62-1.37-3.46-1.16-5.08	c0.22-1.65,0.3-2.72-0.69-3.71c-0.99-0.99-2.06-0.91-3.71-0.69c-1.63,0.22-3.47,0.46-5.08-1.15c-1.62-1.62-1.37-3.46-1.16-5.08	c0.16-1.18,0.24-2.06-0.09-2.83c-1.8,2.91-2.63,6.32-2.36,9.73c0.29,3.67,1.83,7.27,4.64,10.08L109.1,53.36L109.1,53.36z"/><path fill="#CDD0D5" d="M103.87,33.35c-0.22,1.63-0.46,3.47,1.16,5.08s3.46,1.37,5.08,1.15c1.65-0.22,2.71-0.3,3.71,0.69	c0.99,0.99,0.91,2.06,0.69,3.71c-0.21,1.63-0.46,3.47,1.16,5.08c1.62,1.62,3.46,1.37,5.09,1.16c1.65-0.22,2.72-0.3,3.71,0.69	c1,1,0.91,2.06,0.69,3.71c-0.12,0.88-0.23,1.82-0.07,2.75c0.14,0.8,0.48,1.59,1.22,2.34l1.16-1.16c-0.53-0.53-0.75-1.09-0.81-1.75	c-0.05-0.56,0.02-1.2,0.12-1.97c0.21-1.63,0.46-3.47-1.16-5.09s-3.46-1.37-5.09-1.16c-1.66,0.22-2.72,0.3-3.71-0.69	s-0.91-2.06-0.69-3.71c0.21-1.63,0.46-3.47-1.16-5.08c-1.62-1.61-3.45-1.37-5.08-1.15c-1.65,0.22-2.72,0.3-3.71-0.69	c-0.99-0.99-0.91-2.06-0.69-3.71c0.19-1.44,0.4-3.05-0.68-4.53c-0.14-0.19-0.29-0.37-0.47-0.56l-1.16,1.16	c0.28,0.28,0.47,0.57,0.6,0.88C104.1,31.29,104.02,32.17,103.87,33.35z"/><path fill="#BABFC5" d="M131.56,53.58l0.7,0.7c0.99,0.99,2.59,0.99,3.57,0c1.65-1.65,1.93-4.14,0.88-6.1	c-0.23-0.45-0.53-0.87-0.88-1.23l-23.38-23.38c-0.31-0.31-0.65-0.55-1.01-0.77c-1.99-1.19-4.6-0.95-6.32,0.77	c-0.99,0.99-0.99,2.59,0,3.57l0.71,0.71L131.56,53.58z"/><path fill="#FFF" d="M127.67,20.85l4.76-0.95l0.32,1.61l-4.76,0.95L127.67,20.85z M131.94,38.46l0.16-4.6l1.64,0.06l-0.16,4.6	L131.94,38.46z M116.64,20.61l1.46-0.75l2.38,4.6l-1.46,0.75L116.64,20.61z M136.46,28.08l0.81-1.42l4.45,2.54l-0.81,1.42	L136.46,28.08z M142.88,38.88l1.4,0.76l2.09,1.14l0.78-1.43l-2.29-1.25l-1.2-0.66C143.66,37.44,142.88,38.88,142.88,38.88z M125.85,16.16l-1.23-2.18l-0.69-1.23l-1.43,0.8l0.43,0.76l1.49,2.65C124.42,16.96,125.85,16.16,125.85,16.16z M31.85,7.94	L12.77,27.02c0,0,11.04,17.25,13.54,19.69c6.99,6.99,18.31,7,25.28,0.03s6.96-18.29-0.03-25.28C50.53,20.05,31.85,7.94,31.85,7.94z M70.44,48.83c0,0.19-0.07,0.38-0.22,0.52l-15.8,15.81c-0.29,0.29-0.76,0.29-1.05,0c-0.29-0.29-0.29-0.76,0-1.05L69.18,48.3	c0.29-0.29,0.76-0.29,1.05,0C70.37,48.46,70.44,48.64,70.44,48.83z"/><path fill="#FFF" d="M62.23,56.43c0,0.19-0.07,0.38-0.22,0.52c-0.29,0.29-0.76,0.29-1.05,0l-9.8-9.79	c-0.29-0.29-0.29-0.76,0-1.05s0.76-0.29,1.05,0l9.8,9.79C62.16,56.06,62.23,56.24,62.23,56.43z"/><path fill="#EA4335" d="M51.56,21.47c-0.13-0.13-0.43-0.33-0.43-0.33l-6.11-4.19L21.76,40.21l4.18,6.12	c0.12,0.13,0.24,0.26,0.37,0.39c6.99,6.99,18.31,7,25.28,0.03S58.55,28.46,51.56,21.47z"/><path fill="#959CA5" d="M51.56,21.47c-0.13-0.13-0.43-0.33-0.43-0.33l-6.11-4.19L21.76,40.21l4.18,6.12	c0.12,0.13,0.24,0.26,0.37,0.39c6.99,6.99,18.31,7,25.28,0.03S58.55,28.46,51.56,21.47z"/><ellipse transform="matrix(0.7071 -0.7071 0.7071 0.7071 -14.9887 33.8179)" fill="#E1E2E6" cx="33.33" cy="35" rx="1.92" ry="1.92"/><ellipse transform="matrix(0.7071 -0.7071 0.7071 0.7071 -5.7614 31.2969)" fill="#959CA5" cx="34.9" cy="22.6" rx="1.33" ry="1.33"/><path fill="none" stroke="#FFF" stroke-width="1.48" stroke-linecap="round" stroke-linejoin="round" stroke-miterlimit="10" d="M32.44,12.45l12.82,8.38"/><path fill="#BABFC5" d="M215.16,50.31c-9.51-9.51-9.53-24.97-0.05-34.5l0.02-0.02c0,0,0.01,0,0.01-0.01c0,0,0-0.01,0.01-0.01 l0.02-0.02c9.53-9.47,24.99-9.46,34.5,0.05c4.17,4.17,6.51,9.48,7.03,14.93h0.01l3.64,30.24l-30.24-3.64v-0.01 C224.64,56.82,219.33,54.47,215.16,50.31L215.16,50.31z"/><path fill="#959CA5" d="M232.39,46.44c-3.55,0.01-6.95-1.4-9.45-3.91c-2.51-2.5-3.92-5.9-3.91-9.45c-0.01-3.55,1.4-6.95,3.91-9.45 c2.52-2.52,5.88-3.91,9.45-3.91c0.38,0,0.69,0.31,0.69,0.69c0,0.38-0.31,0.69-0.69,0.69c-3.2,0-6.21,1.25-8.47,3.51 c-2.25,2.24-3.52,5.29-3.51,8.47c0,3.2,1.25,6.21,3.51,8.47s5.27,3.51,8.47,3.51s6.21-1.25,8.47-3.51c4.67-4.67,4.67-12.27,0-16.94 c-1.13-1.13-2.48-2.03-3.96-2.63c-0.35-0.14-0.52-0.55-0.38-0.9s0.54-0.52,0.9-0.38c1.66,0.67,3.14,1.66,4.42,2.93 c5.21,5.21,5.21,13.69,0,18.89C239.34,45.04,235.94,46.45,232.39,46.44L232.39,46.44z"/><g><linearGradient id="g" gradientUnits="userSpaceOnUse" x1="50.707" y1="3963.748" x2="60.075" y2="3973.117" gradientTransform="matrix(1 0 0 -1 265.265 4159.9678)"><stop offset="0" style="stop-color:#82888E"/><stop offset="1" style="stop-color:#BABFC5"/></linearGradient><path fill="url(#g)" d="M355.25,161.15l-32.22,32.22c-0.76,0.76-1.99,0.76-2.76,0l-2.83-2.83l34.98-34.98l2.83,2.83 C356.01,159.15,356.01,160.38,355.25,161.15z"/><linearGradient id="h" gradientUnits="userSpaceOnUse" x1="-279.582" y1="4682.095" x2="-247.324" y2="4682.095" gradientTransform="matrix(0.7071 -0.7071 -0.7071 -0.7071 3795.7083 3292.0337)"><stop offset="0" style="stop-color:#82888E"/><stop offset="1" style="stop-color:#BABFC5"/></linearGradient><path fill="url(#h)" d="M339.94,145.08c0.7-0.7,0.71-1.84,0.02-2.55c-0.09-0.09-0.18-0.19-0.27-0.28 c-9.89-9.89-25.23-9.2-35.12,0.69c-9.89,9.89-10.58,25.23-0.69,35.12c0.09,0.09,0.19,0.18,0.28,0.27c0.71,0.69,1.85,0.68,2.55-0.02 L339.94,145.08z"/><path fill="#7F8791" d="M340.94,151.45l-27.91,27.91c-2.16,2.16-2.16,5.66,0,7.82c0,0,0,0,0,0c2.16,2.16,5.66,2.16,7.82,0 c0,0,0,0,0,0l27.91-27.91c2.16-2.16,2.16-5.66,0-7.82c0,0,0,0,0,0C346.6,149.29,343.1,149.29,340.94,151.45 C340.94,151.45,340.94,151.45,340.94,151.45z"/><path fill="#FFF" d="M345.06,148.14l-35.35,35.16l-2.45-2.45l35.35-35.16L345.06,148.14z"/><path fill="#959CA5" d="M306.09,177.64c-0.22,0-0.43-0.09-0.59-0.24c-0.32-0.33-0.32-0.85,0-1.18c1.59-1.58,3.17-1.62,4.56-1.64 c1.29-0.03,2.31-0.05,3.42-1.16s1.13-2.13,1.16-3.42c0.03-1.4,0.06-2.98,1.64-4.56c1.58-1.58,3.17-1.62,4.56-1.64 c1.29-0.03,2.31-0.05,3.42-1.16c1.11-1.11,1.13-2.13,1.16-3.42c0.03-1.4,0.06-2.98,1.64-4.56c1.59-1.59,3.17-1.62,4.56-1.64 c1.29-0.03,2.31-0.05,3.42-1.16c1.11-1.11,1.13-2.13,1.16-3.42c0.03-1.4,0.06-2.98,1.64-4.56c0.33-0.33,0.85-0.33,1.18,0 c0.33,0.32,0.33,0.85,0,1.18c-1.11,1.11-1.13,2.13-1.16,3.42c-0.03,1.4-0.06,2.98-1.64,4.56c-1.58,1.59-3.17,1.62-4.56,1.64 c-1.29,0.03-2.31,0.05-3.42,1.16s-1.13,2.13-1.16,3.42c-0.03,1.4-0.06,2.98-1.64,4.56c-1.58,1.58-3.17,1.62-4.56,1.64 c-1.29,0.03-2.31,0.05-3.42,1.16c-1.11,1.11-1.13,2.13-1.16,3.42c-0.03,1.4-0.06,2.98-1.64,4.56c-1.58,1.58-3.17,1.62-4.56,1.64 c-1.29,0.03-2.31,0.05-3.42,1.16C306.51,177.56,306.3,177.64,306.09,177.64z"/><circle fill="#FFF" cx="302.69" cy="157.44" r="1"/><circle fill="#FFF" cx="303.49" cy="152.02" r="1.4"/></g></svg>
