<svg width="74" height="74" viewBox="0 0 74 74" fill="none" xmlns="http://www.w3.org/2000/svg">
<path d="M9.50879 35.2158C12.8225 35.2158 15.5088 32.5295 15.5088 29.2158C15.5088 25.9021 12.8225 23.2158 9.50879 23.2158C6.19508 23.2158 3.50879 25.9021 3.50879 29.2158C3.50879 32.5295 6.19508 35.2158 9.50879 35.2158Z" fill="#F2F3F4"/>
<path opacity="0.16" d="M16.4287 64.379C20.2947 64.379 23.4287 61.245 23.4287 57.379C23.4287 53.513 20.2947 50.379 16.4287 50.379C12.5627 50.379 9.42871 53.513 9.42871 57.379C9.42871 61.245 12.5627 64.379 16.4287 64.379Z" fill="#B2B2B2"/>
<g opacity="0.9">
<path opacity="0.9" d="M37.4161 60.2107C39.6238 60.2107 41.4136 58.4212 41.4136 56.2137C41.4136 54.0062 39.6238 52.2167 37.4161 52.2167C35.2084 52.2167 33.4187 54.0062 33.4187 56.2137C33.4187 58.4212 35.2084 60.2107 37.4161 60.2107Z" fill="#E1E2E6"/>
<path style="mix-blend-mode:multiply" opacity="0.15" d="M38.2373 59.3649C37.5968 59.3605 36.9669 59.2022 36.4004 58.9034C35.8339 58.6047 35.3475 58.1742 34.9821 57.6482C34.6168 57.1223 34.3832 56.5163 34.3009 55.8812C34.2187 55.2461 34.2903 54.6006 34.5097 53.9989C34.6164 53.6619 34.7727 53.3427 34.9734 53.0516C34.5196 53.4007 34.1461 53.8432 33.8781 54.3492C33.6102 54.8551 33.4541 55.4127 33.4204 55.9842C33.3867 56.5557 33.4761 57.1278 33.6827 57.6617C33.8893 58.1957 34.2082 58.679 34.6178 59.079C35.0274 59.479 35.5181 59.7864 36.0569 59.9803C36.5956 60.1742 37.1696 60.2502 37.7403 60.203C38.3109 60.1558 38.8647 59.9867 39.3642 59.7069C39.8638 59.4272 40.2974 59.0434 40.6357 58.5815C39.9429 59.0968 39.1007 59.3719 38.2373 59.3649V59.3649Z" fill="url(#paint0_linear_790_645)"/>
</g>
<g opacity="0.8">
<g opacity="0.77">
<path opacity="0.77" d="M46.3672 47.3414C50.2332 47.3414 53.3672 44.2074 53.3672 40.3414C53.3672 36.4754 50.2332 33.3414 46.3672 33.3414C42.5012 33.3414 39.3672 36.4754 39.3672 40.3414C39.3672 44.2074 42.5012 47.3414 46.3672 47.3414Z" fill="#E1E2E6"/>
</g>
</g>
<path opacity="0.7" d="M69.2696 23.3803C68.5699 23.3805 67.879 23.5394 67.2472 23.8456C66.6255 22.4096 65.607 21.1887 64.3158 20.3314C63.0246 19.4741 61.5164 19.0174 59.9748 19.0171C59.5951 19.0199 59.2161 19.0507 58.8408 19.1093C56.9489 19.3854 55.2183 20.3464 53.9661 21.8162C52.714 23.286 52.0242 25.166 52.0233 27.1115C52.0233 27.366 52.0384 27.6184 52.06 27.8665H74C73.9149 26.6484 73.3796 25.5083 72.5019 24.6759C71.6242 23.8435 70.4692 23.3806 69.2696 23.3803V23.3803Z" fill="#E1E2E6"/>
<path fill-rule="evenodd" clip-rule="evenodd" d="M24.2878 41.4562C24.4588 41.0516 24.9191 40.8651 25.3159 41.0395L50.9578 52.3119C51.3545 52.4863 51.5375 52.9557 51.3665 53.3602C51.1954 53.7648 50.7351 53.9513 50.3384 53.7769L24.6964 42.5045C24.2997 42.3301 24.1167 41.8607 24.2878 41.4562Z" fill="#686C71"/>
<path fill-rule="evenodd" clip-rule="evenodd" d="M31.045 11.3853C31.2753 11.0125 31.7583 10.9006 32.1239 11.1354L51.0648 23.2966C51.2878 23.4398 51.4251 23.6879 51.4301 23.9566C51.4351 24.2252 51.3071 24.4784 51.0895 24.6301L25.6395 42.3749C25.2828 42.6236 24.796 42.5304 24.5521 42.1667C24.3083 41.8031 24.3997 41.3067 24.7563 41.058L49.2226 23.9991L31.2902 12.4853C30.9246 12.2506 30.8148 11.7581 31.045 11.3853Z" fill="#686C71"/>
<path d="M31.8726 18.8503C35.7386 18.8503 38.8726 15.7163 38.8726 11.8503C38.8726 7.98435 35.7386 4.85034 31.8726 4.85034C28.0066 4.85034 24.8726 7.98435 24.8726 11.8503C24.8726 15.7163 28.0066 18.8503 31.8726 18.8503Z" fill="#FBBC05"/>
<path d="M50.6337 60.2435C55.0519 60.2435 58.6337 56.6618 58.6337 52.2435C58.6337 47.8253 55.0519 44.2435 50.6337 44.2435C46.2154 44.2435 42.6337 47.8253 42.6337 52.2435C42.6337 56.6618 46.2154 60.2435 50.6337 60.2435Z" fill="#EA4335"/>
<path d="M51 35C57.6274 35 63 29.6274 63 23C63 16.3726 57.6274 11 51 11C44.3726 11 39 16.3726 39 23C39 29.6274 44.3726 35 51 35Z" fill="#34A853"/>
<path fill-rule="evenodd" clip-rule="evenodd" d="M46.0181 21.894C46.1086 21.4857 46.5125 21.2281 46.9202 21.3187L55.4075 23.2052C55.8152 23.2958 56.0724 23.7003 55.9819 24.1087C55.8914 24.5171 55.4875 24.7747 55.0798 24.684L46.5925 22.7976C46.1848 22.7069 45.9276 22.3024 46.0181 21.894Z" fill="white"/>
<path fill-rule="evenodd" clip-rule="evenodd" d="M52.1062 18.0182C52.5139 18.1091 52.7708 18.5137 52.6802 18.9221L50.7958 27.4069C50.7051 27.8152 50.3011 28.0726 49.8934 27.9818C49.4858 27.8909 49.2288 27.4863 49.3195 27.0779L51.2038 18.5931C51.2945 18.1848 51.6985 17.9274 52.1062 18.0182Z" fill="white"/>
<path d="M0 18.6361C0.0368473 18.0983 0.198552 17.5771 0.471819 17.1154C0.745087 16.6536 1.12211 16.2645 1.5719 15.9799C2.02169 15.6954 2.5314 15.5236 3.05912 15.4786C3.58684 15.4337 4.11751 15.5169 4.60749 15.7214C5.0496 14.2356 5.92818 12.9233 7.12501 11.9612C8.32184 10.999 9.77948 10.4331 11.3018 10.3396C12.8241 10.2461 14.338 10.6296 15.6397 11.4383C16.9415 12.2471 17.9687 13.4423 18.583 14.8632C19.2371 14.5474 19.957 14.3989 20.6802 14.4306C21.4034 14.4622 22.1081 14.6731 22.7331 15.0448C23.3582 15.4166 23.8846 15.938 24.2668 16.5638C24.6489 17.1897 24.8753 17.901 24.9261 18.6361H0Z" fill="#F2F3F4"/>
<g opacity="0.43">
<path opacity="0.16" d="M6.24969 44.353C7.35368 44.353 8.24864 43.4576 8.24864 42.353C8.24864 41.2485 7.35368 40.353 6.24969 40.353C5.1457 40.353 4.25073 41.2485 4.25073 42.353C4.25073 43.4576 5.1457 44.353 6.24969 44.353Z" fill="#F2F3F4"/>
<g style="mix-blend-mode:multiply" opacity="0.1">
<path d="M7.64172 43.2347C7.37235 43.4909 7.03703 43.6669 6.67331 43.7432C6.30959 43.8195 5.93183 43.793 5.58232 43.6666C5.23281 43.5403 4.92534 43.3191 4.69435 43.0278C4.46336 42.7366 4.31796 42.3867 4.27444 42.0175C4.22861 42.2995 4.24372 42.5881 4.31874 42.8638C4.39377 43.1395 4.52697 43.3959 4.70937 43.6158C4.89178 43.8356 5.11915 44.0138 5.37618 44.1384C5.63322 44.2629 5.91394 44.3309 6.19944 44.3378C6.48495 44.3447 6.76862 44.2902 7.03133 44.1782C7.29405 44.0662 7.52972 43.8991 7.72247 43.6882C7.91523 43.4774 8.06059 43.2277 8.14877 42.9559C8.23695 42.6841 8.2659 42.3966 8.23368 42.1127C8.16247 42.5408 7.95483 42.9344 7.64172 43.2347Z" fill="#F2F3F4"/>
</g>
</g>
<path d="M49.3283 3.27539L50.9691 5.21997L44.8459 7.09212L39.5873 7.91955L46.5147 3.33684L49.3283 3.27539Z" fill="#E0E1E5"/>
<g opacity="0.15">
<path d="M49.0331 4.85449L50.9693 5.22102L44.514 7.24461L49.0331 4.85449Z" fill="url(#paint1_linear_790_645)" style="mix-blend-mode:multiply"/>
</g>
<path d="M39.5873 7.92097L50.2102 0L49.3283 3.27681L39.5873 7.92097Z" fill="#F0F1F1"/>
<path d="M49.0329 4.85449L47.8665 8.92582L39.5873 7.9206L49.0329 4.85449Z" fill="#F0F1F1"/>
<path d="M21.6232 70.7013L22.7077 74L29.109 68.0368L33.7143 62.3765L23.6499 67.4047L21.6232 70.7013Z" fill="#E0E1E5"/>
<path style="mix-blend-mode:multiply" opacity="0.15" d="M23.6325 71.4494L22.7075 73.9998L29.5142 67.749L23.6325 71.4494Z" fill="url(#paint2_linear_790_645)"/>
<path d="M33.7141 62.3765L17.257 69.47L21.623 70.7013L33.7141 62.3765Z" fill="#F0F1F1"/>
<path d="M23.6323 71.4497L29.1087 72.8961L33.714 62.3765L23.6323 71.4497Z" fill="#F0F1F1"/>
<path d="M21.9999 56C30.2842 56 37 49.2843 37 41C37 32.7158 30.2842 26 21.9999 26C13.7157 26 7 32.7158 7 41C7 49.2843 13.7157 56 21.9999 56Z" fill="white"/>
<path fill-rule="evenodd" clip-rule="evenodd" d="M31.92 52.2516C29.2759 54.5845 25.8033 56 22 56C19.5593 56 17.2548 55.4171 15.218 54.3829C15.0988 53.8504 15.0363 53.2993 15.0363 52.7359C15.0363 48.3842 18.7697 44.7689 23.4859 44.7689C28.026 44.7689 31.6552 48.1192 31.92 52.2516ZM32.8282 51.3803C32.1396 47.0715 28.2195 43.7689 23.4859 43.7689C18.2666 43.7689 14.0363 47.784 14.0363 52.7359C14.0363 53.0792 14.0566 53.4179 14.0962 53.7511C9.83628 51.105 7 46.3838 7 41C7 32.7158 13.7157 26 22 26C30.2842 26 37 32.7158 37 41C37 45.0282 35.4121 48.6856 32.8282 51.3803Z" fill="#4285F4"/>
<path fill-rule="evenodd" clip-rule="evenodd" d="M21.6265 34.6464C19.812 34.6464 18.3426 36.1436 18.3426 37.9883C18.3426 39.8331 19.812 41.3302 21.6265 41.3302C23.441 41.3302 24.9104 39.8331 24.9104 37.9883C24.9104 36.1436 23.441 34.6464 21.6265 34.6464ZM17.1874 37.9883C17.1874 35.4912 19.1757 33.4685 21.6265 33.4685C24.0772 33.4685 26.0656 35.4912 26.0656 37.9883C26.0656 40.4855 24.0772 42.5081 21.6265 42.5081C19.1757 42.5081 17.1874 40.4855 17.1874 37.9883Z" fill="white"/>
<defs>
<linearGradient id="paint0_linear_790_645" x1="1520.4" y1="2248.97" x2="1780.98" y2="2248.97" gradientUnits="userSpaceOnUse">
<stop stop-color="white"/>
<stop offset="1" stop-color="#808285"/>
</linearGradient>
<linearGradient id="paint1_linear_790_645" x1="45.8639" y1="10.1106" x2="50.2925" y2="5.94144" gradientUnits="userSpaceOnUse">
<stop stop-color="white"/>
<stop offset="0.13" stop-color="#F8F8F9"/>
<stop offset="0.31" stop-color="#E5E6E7"/>
<stop offset="0.52" stop-color="#C6C8CA"/>
<stop offset="0.75" stop-color="#9B9EA1"/>
<stop offset="0.99" stop-color="#686C71"/>
</linearGradient>
<linearGradient id="paint2_linear_790_645" x1="2195.69" y1="935.685" x2="1945.44" y2="1004.46" gradientUnits="userSpaceOnUse">
<stop stop-color="white"/>
<stop offset="0.13" stop-color="#F8F8F9"/>
<stop offset="0.31" stop-color="#E5E6E7"/>
<stop offset="0.52" stop-color="#C6C8CA"/>
<stop offset="0.75" stop-color="#9B9EA1"/>
<stop offset="0.99" stop-color="#686C71"/>
</linearGradient>
</defs>
</svg>
