<?xml version="1.0" encoding="utf-8"?>
<!-- Generator: Adobe Illustrator 24.2.3, SVG Export Plug-In . SVG Version: 6.00 Build 0)  -->
<svg version="1.1" id="Layer_1" xmlns="http://www.w3.org/2000/svg" xmlns:xlink="http://www.w3.org/1999/xlink" x="0px" y="0px"
	 width="36px" height="36px" viewBox="0 0 36 36" style="enable-background:new 0 0 36 36;" xml:space="preserve">
<path id="Vector" d="M26.5906 34.5L27.2592 28.7973H24L30.0941 18H31.2678L30.6057 24.4847H34.5L27.7644 34.5L26.5906 34.5Z" fill="#0842A0"/>
<path id="Vector_2" fill-rule="evenodd" clip-rule="evenodd" d="M13.7373 27.9566V33H18L28.0363 15.5318V12.9359C28.0363 11.8104 27.6567 10.8677 26.8975 10.1077C26.3018 9.5114 25.5937 9.14903 24.7732 9.02062V3H21.3055V9.61292H14.6058V3H11.1381V9.02062C10.3175 9.14903 9.60942 9.5114 9.01375 10.1077C8.25458 10.8677 7.875 11.8104 7.875 12.9359V22.1749L13.7373 27.9566ZM28.0363 21.6449L27.3615 22.8404L28.0363 22.1749V21.6449Z" fill="#0842A0"/>
</svg>