<svg width="32" height="32" fill="none" xmlns="http://www.w3.org/2000/svg"><g opacity=".24"><circle cx="16" cy="16" r="16" fill="#8AB4F8"/><circle cx="16" cy="16" r="16" stroke="#fff" fill="none"/></g><path fill-rule="evenodd" clip-rule="evenodd" d="M19 16.75c.4125 0 .75-.3375.75-.75V9.25c0-.4125-.3375-.75-.75-.75H9.25c-.4125 0-.75.3375-.75.75v10.5l3-3H19zM18.25 10v5.25H10V10h8.25zm3 1.5h1.5c.4125 0 .75.3375.75.75V23.5l-3-3h-8.25c-.4125 0-.75-.3375-.75-.75v-1.5h9.75V11.5z" fill="#8AB4F8"/></svg>