<svg xmlns="http://www.w3.org/2000/svg" width="260" height="260"><linearGradient id="a" gradientUnits="userSpaceOnUse" x1="-2095.0349" y1="256.2718" x2="-2095.0349" y2="147.4774" gradientTransform="rotate(180 -999.97825 131)"><stop offset="0" style="stop-color:#5F6368"/><stop offset="1" style="stop-color:#202124;stop-opacity:0"/></linearGradient><path fill="url(#a)" d="M189.58 111.42L160.2 65.8c-9.22-12.72-24.58-18.37-38.74-13.63-.59.2-1.19.41-1.8.64-20.32 7.66-33.87-33.63-56.43-37.24-27.41-4.39-35.71 19.99-35.71 19.99L.58 111.43l189-.01z"/><path fill="#202124" d="M45.41 26.88c8.37-.64 17.28 2.63 22.71 8.34 2.96 3.12 4.18 5.73 3.7 8-.73 3.54-5.46 6.21-12.32 9.12-3 1.27-5.03 3.57-5.59 6.31-.47 2.33.19 4.63 1.83 6.31 1.42 1.47 4.19 2.1 7.21 2.1 2.38 0 4.9-.39 7.05-1.08l44.11-12.25c-.67-.03-1.33-.11-1.98-.23L69.78 65.28c-4.69 1.49-11.23 1.52-13.5-.83-1.46-1.51-2.05-3.56-1.63-5.64.51-2.49 2.38-4.6 5.15-5.77 7.08-3.01 11.96-5.8 12.76-9.66.52-2.53-.75-5.36-3.9-8.67-5.58-5.86-14.72-9.23-23.31-8.57-5.1.39-12.14 2.35-17.74 9.19-.06.15-.09.24-.09.24l-.73 2.05c.01-.01.03-.02.04-.04 5.62-8.1 13.21-10.29 18.58-10.7z"/><path fill="#669DF6" d="M143.32 76.61H47.15c-1.83 0-3.3 1.48-3.3 3.3v44.44c0 1.82 1.48 3.3 3.3 3.3h41.07l5.9 7.29c.57.71 1.66.71 2.23 0l5.9-7.29h41.07c1.82 0 3.3-1.48 3.3-3.3V79.91c.01-1.82-1.47-3.3-3.3-3.3z"/><path fill="#202124" d="M57.7 97.26h2.22l2.25 6.54.4 1.4h.12l.43-1.4 2.34-6.54h2.22l-3.96 10.87h-2.16L57.7 97.26zM68.95 107.44l4.33-7.73-.05-.09h-4.78l.03-1.88h7.04v1.97l-4.9 8.65-1.67-.92zM80.28 108.37c-.39 0-.79-.06-1.18-.17s-.75-.28-1.09-.52-.62-.52-.87-.87-.43-.77-.56-1.25l1.81-.7c.11.51.33.91.65 1.21.32.3.72.46 1.22.46.24 0 .47-.04.68-.13.21-.09.39-.21.55-.36s.28-.33.36-.54c.09-.21.13-.44.13-.69 0-.24-.04-.47-.13-.68s-.21-.39-.36-.55c-.15-.16-.33-.28-.54-.36s-.44-.13-.69-.13c-.32 0-.59.07-.84.21-.24.14-.45.31-.62.51l-1.93-.88.61-5.19h5.85v1.75h-4.19l-.39 2.43.12.03c.2-.17.45-.32.74-.44s.65-.18 1.06-.18c.43 0 .85.08 1.24.25.39.17.75.4 1.05.71.3.3.55.67.73 1.1.18.43.27.91.27 1.43 0 .52-.09.99-.27 1.43s-.44.81-.77 1.12c-.33.31-.72.56-1.17.74-.44.17-.94.26-1.47.26zM84.88 97.26h2.22l2.25 6.54.39 1.4h.12l.43-1.4 2.34-6.54h2.22l-3.96 10.87h-2.16l-3.85-10.87zM100.21 103.13h2.6v1.76h-2.6v2.58h-1.76v-2.58h-2.58v-1.76h2.58v-2.58h1.76v2.58zM108.03 108.37c-.56 0-1.07-.08-1.53-.24-.46-.16-.86-.38-1.19-.66-.33-.28-.59-.61-.78-.99-.18-.38-.27-.79-.27-1.24 0-.3.04-.59.13-.85s.2-.5.35-.71c.15-.21.32-.4.51-.56.19-.16.39-.3.61-.41v-.12c-.33-.22-.63-.52-.87-.88-.25-.36-.37-.79-.37-1.28 0-.42.09-.8.26-1.16.17-.36.41-.67.71-.93s.66-.47 1.08-.61c.41-.15.87-.22 1.37-.22.5 0 .95.07 1.37.22s.77.35 1.08.61.54.57.71.93c.17.36.26.75.26 1.16 0 .49-.12.91-.37 1.28s-.54.66-.87.88v.12c.21.11.42.25.61.41.19.16.36.35.51.56.15.21.26.45.35.71s.13.55.13.85c0 .45-.09.86-.27 1.24s-.44.71-.77.99-.73.5-1.19.66c-.49.16-1 .24-1.56.24zm0-1.84c.52 0 .94-.13 1.28-.4.33-.27.5-.63.5-1.09 0-.21-.05-.41-.14-.58s-.21-.33-.37-.46-.34-.23-.56-.3c-.22-.07-.45-.11-.71-.11s-.49.04-.71.11c-.22.07-.4.17-.56.3-.16.13-.28.29-.37.46s-.14.37-.14.58c0 .46.17.82.5 1.09.34.27.76.4 1.28.4zm0-4.69c.43 0 .78-.12 1.06-.36s.43-.55.43-.93c0-.39-.14-.71-.43-.93-.28-.23-.64-.34-1.06-.34-.43 0-.78.11-1.06.34-.28.23-.43.54-.43.93 0 .38.14.7.43.93.28.24.64.36 1.06.36zM121 107.88c-.35.15-.73.27-1.12.36-.39.09-.8.13-1.23.13-.81 0-1.56-.15-2.25-.44s-1.29-.7-1.8-1.21-.9-1.11-1.19-1.81-.43-1.43-.43-2.22.14-1.53.43-2.22.68-1.3 1.19-1.81c.51-.51 1.11-.91 1.8-1.21.69-.29 1.44-.44 2.25-.44s1.56.15 2.25.44c.69.29 1.29.7 1.8 1.21s.9 1.11 1.19 1.81c.29.69.43 1.43.43 2.22 0 .84-.16 1.62-.47 2.34-.31.72-.75 1.34-1.32 1.85l.84 1.25-1.52 1.02-.85-1.27zm-2.31-3.46l1.52-1.03 1.18 1.79c.27-.31.49-.68.64-1.1s.24-.88.24-1.39c0-.56-.09-1.07-.28-1.53-.19-.46-.44-.85-.77-1.18-.33-.32-.71-.58-1.15-.76-.44-.18-.91-.27-1.42-.27s-.98.09-1.42.27c-.44.18-.82.43-1.15.76-.33.32-.59.72-.77 1.18s-.28.97-.28 1.53.09 1.07.28 1.53c.19.46.44.85.77 1.18.33.32.71.58 1.15.76s.91.27 1.42.27c.22 0 .43-.02.64-.06.2-.04.4-.1.59-.17l-1.19-1.78zM129.15 108.37c-.43 0-.83-.06-1.22-.17s-.75-.28-1.07-.51c-.32-.23-.61-.51-.86-.86-.25-.34-.44-.74-.57-1.2l1.87-.74c.13.51.36.89.67 1.15s.71.39 1.18.39c.21 0 .41-.03.61-.1.19-.07.36-.16.5-.28.14-.12.26-.27.34-.43.09-.17.13-.36.13-.57 0-.44-.16-.79-.49-1.05-.33-.25-.78-.38-1.36-.38h-.89v-1.81h.82c.2 0 .4-.03.59-.08.19-.05.36-.13.51-.24.15-.11.26-.24.35-.41.09-.17.13-.36.13-.58 0-.34-.12-.62-.36-.84-.24-.22-.57-.33-.99-.33-.45 0-.79.12-1.02.36-.24.24-.4.5-.49.8l-1.82-.74c.09-.25.23-.51.41-.78.18-.27.41-.51.69-.73.28-.22.61-.39.98-.53s.81-.21 1.29-.21c.5 0 .95.07 1.36.21.41.14.76.34 1.06.58s.52.54.68.88.24.71.24 1.1c0 .3-.04.58-.11.82-.08.24-.18.46-.3.65s-.26.36-.42.49c-.16.14-.32.25-.48.33v.12c.49.19.89.5 1.21.93.32.43.48.96.48 1.61 0 .46-.09.87-.26 1.25s-.42.71-.74.99-.7.5-1.15.66c-.46.17-.95.25-1.5.25z"/><linearGradient id="b" gradientUnits="userSpaceOnUse" x1="215.9625" y1="248.8696" x2="215.9625" y2="186.6522" gradientTransform="matrix(1 0 0 -1 0 262)"><stop offset="0" style="stop-color:#3C4043"/><stop offset=".3864" style="stop-color:#35383B;stop-opacity:0.6136"/><stop offset=".9935" style="stop-color:#202124;stop-opacity:6.500000e-03"/><stop offset="1" style="stop-color:#202124;stop-opacity:0"/></linearGradient><path fill="url(#b)" d="M252.45 47.29h-72.97c2.76-9.35 11.91-8.12 18.38-5.88 5.01 1.73 10.23 1.12 15.05-1.6l.74-.42c2.12-1.2 4.2-2.55 6.28-3.94 10.04-6.74 16.63-.72 19.88 3.96 1.59 2.29 3.74 3.31 5.88 2.8 2.59-.61 5.84-.22 6.76 5.08z"/><path fill="#3C4043" d="M139.77 37.24c-6.19 0-11.2-5.01-11.2-11.2 0-6.19 5.01-11.2 11.2-11.2 6.19 0 11.2 5.01 11.2 11.2 0 6.19-5.01 11.2-11.2 11.2z"/><radialGradient id="c" cx="89.6957" cy="71.0311" r="84.7099" gradientTransform="matrix(1 0 0 -1 0 262)" gradientUnits="userSpaceOnUse"><stop offset="0" style="stop-color:#3C4043"/><stop offset=".8587" style="stop-color:#3C4043;stop-opacity:0.1413"/><stop offset="1" style="stop-color:#3C4043;stop-opacity:0"/></radialGradient><path fill="url(#c)" d="M15.52 211.05c3.2 0 5.8.6 7.39 1.57.24-.01.48-.01.72-.01h8.26l-.01.01c.28.01.56.02.83.04l1.59-3.32c-1.11-.03-2.01-.28-2.55-.66-.98.41-2.22.67-3.45.67s-2.22-.26-2.81-.67c-.98.41-2.22.67-3.45.67-2.37 0-4.17-.7-3.6-1.88l16.41-.04H4.29v6.31c2.65-1.6 6.91-2.69 11.23-2.69z"/><radialGradient id="d" cx="131.857" cy="-710.3686" r="120.8984" gradientTransform="matrix(1 0 0 -.3491 0 -38.1963)" gradientUnits="userSpaceOnUse"><stop offset="0" style="stop-color:#3C4043"/><stop offset="1" style="stop-color:#3C4043;stop-opacity:0"/></radialGradient><path fill="url(#d)" d="M153.81 207.43l-10.59 22.11c.24.06.45.15.62.26h-.74l-4.86 10.15H19.63l8.18-17.08c-.48.03-.95.05-1.43.05-.2 0-.4 0-.59-.01-2.54 2.19-7.46 3.76-12.36 3.76-6.16 0-9.96-2.48-8.5-5.55l.34-.71c-.35-.11-.68-.23-.99-.36v61.91h255.13v-74.52l-105.6-.01zm98.51 11.19c-2.17 4.54-7.91 8.25-13.1 8.6l-21.62 45.12h-79.59l31.06-64.83h79.59l-1.2 2.51c4.86.35 7.03 4.06 4.86 8.6z"/><radialGradient id="e" cx="176.3913" cy="57.8571" r="366.783" gradientTransform="matrix(1 0 0 -1 0 262)" gradientUnits="userSpaceOnUse"><stop offset="0" style="stop-color:#5F6368"/><stop offset="1" style="stop-color:#DADCE0"/></radialGradient><path fill="url(#e)" d="M248.67 77.12v130.37h-79.59V77.12h79.59z"/><path fill="none" stroke="#202124" stroke-width=".75" stroke-linejoin="round" stroke-miterlimit="10" d="M196.52 207.18v-20.19c0-7.52 6.1-13.62 13.62-13.62h.31c7.52 0 13.62 6.1 13.62 13.62v20.19"/><path fill="none" stroke="#202124" stroke-width=".75" stroke-linecap="round" stroke-linejoin="round" stroke-miterlimit="10" d="M203.02 115.27v-7.83c0-7.52-6.1-13.62-13.62-13.62h-.31c-7.52 0-13.62 6.1-13.62 13.62v7.83h27.55zM243.17 115.27v-7.83c0-7.52-6.1-13.62-13.62-13.62h-.31c-7.52 0-13.62 6.1-13.62 13.62v7.83h27.55zM203.06 162.96v-7.83c0-7.52-6.1-13.62-13.62-13.62h-.31c-7.52 0-13.62 6.1-13.62 13.62v7.83h27.55zM243.21 162.96v-7.83c0-7.52-6.1-13.62-13.62-13.62h-.31c-7.52 0-13.62 6.1-13.62 13.62v7.83h27.55z"/><path fill="#202124" d="M169.08 133.61h79.59v.75h-79.59zM169.08 83.3h79.59v.75h-79.59z"/><radialGradient id="f" cx="2.9107" cy="286.5776" r="241.3345" gradientTransform="matrix(1 0 0 -1 0 262)" gradientUnits="userSpaceOnUse"><stop offset=".1225" style="stop-color:#DADCE0"/><stop offset="1" style="stop-color:#5F6368"/></radialGradient><path fill="url(#f)" d="M35.24 141.93h118.6v65.49H35.24z"/><path fill="none" stroke="#202124" stroke-width=".75" stroke-linecap="round" stroke-linejoin="round" stroke-miterlimit="10" d="M98.47 194.49v-7.03c0-6.75-5.47-12.23-12.23-12.23h-.28c-6.75 0-12.23 5.47-12.23 12.23v7.03h24.74zM63.06 194.49v-7.03c0-6.75-5.47-12.23-12.23-12.23h-.28c-6.75 0-12.23 5.47-12.23 12.23v7.03h24.74zM110.28 207.42v-18.13c0-6.75 5.47-12.23 12.23-12.23h.28c6.75 0 12.23 5.47 12.23 12.23v18.13"/><path fill="#5BB974" d="M11.49 181.28v-1.43c0-6.16 4.99-11.15 11.15-11.15 4.9 0 9.06 3.16 10.56 7.56.2-.01.4-.02.6-.02 5.72 0 10.37 4.64 10.37 10.37 0 5.54-4.34 10.06-9.81 10.35v.02H26.1c-.24 0-.48-.01-.72-.02-2.05 1.94-4.93 3.16-8.14 3.16-6.2 0-11.23-4.54-11.23-10.13.01-3.71 2.21-6.94 5.48-8.71z"/><path fill="none" stroke="#5F6368" stroke-linecap="round" stroke-miterlimit="10" d="M22.71 181.78l4.56 24.08M24.6 191.8l11.44-3.73M23.8 188.07l-5.65-.88"/><path fill="#5BB974" d="M18.44 207.48c0-2.37 2.13-3.97 4.5-3.97 1.23 0 2.34.52 3.13 1.36.78-.83 1.89-1.36 3.13-1.36 1.23 0 2.34.52 3.13 1.36.78-.83 1.89-1.36 3.13-1.36.1 0 .19.01.28.01v-.01c0-4.64 3.76-8.4 8.4-8.4 4.31 0 7.85 3.24 8.34 7.42.18-.02.36-.03.55-.03 2.75 0 4.98 2.23 4.98 4.98H18.44z"/><ellipse fill="#5BB974" cx="248.69" cy="185.29" rx="9.74" ry="17.36"/><path fill="none" stroke="#5F6368" stroke-linecap="round" stroke-miterlimit="10" d="M248.69 198.74v8.88"/><path fill="#202124" d="M72.71 162.6c.88-.88 2.32-.88 3.2 0 1.14 1.14 3.12 1.14 4.26 0 .88-.88 2.32-.88 3.2 0 1.14 1.14 3.12 1.14 4.26 0 .86-.86 2.35-.85 3.2 0 1.18 1.18 3.09 1.17 4.26 0 .86-.85 2.35-.86 3.2 0 1.18 1.18 3.09 1.18 4.26 0 .85-.86 2.35-.85 3.2 0 1.18 1.18 3.09 1.17 4.26 0 .86-.85 2.35-.86 3.2 0 1.18 1.18 3.09 1.18 4.26 0 .85-.86 2.35-.85 3.2 0 1.14 1.14 3.12 1.14 4.26 0 .86-.86 2.35-.85 3.2 0 1.14 1.14 3.12 1.14 4.26 0 .88-.88 2.32-.88 3.2 0 .57.57 1.33.88 2.13.88s1.56-.31 2.13-.88c.85-.86 2.35-.85 3.2 0 1.18 1.18 3.09 1.17 4.26 0 .85-.85 2.35-.86 3.2 0 .88.88 2.17 1.1 3.25.66v-.84c-.87.49-1.99.38-2.72-.35-1.14-1.14-3.12-1.14-4.26 0-.88.88-2.32.88-3.2 0-1.14-1.14-3.13-1.14-4.26 0-.86.85-2.35.86-3.2 0-1.14-1.14-3.12-1.14-4.27 0-.85.86-2.35.85-3.2 0-1.14-1.14-3.12-1.14-4.26 0-.86.85-2.35.86-3.2 0-1.18-1.18-3.09-1.18-4.27 0-.85.86-2.35.85-3.2 0-1.14-1.14-3.12-1.14-4.26 0-.88.88-2.32.88-3.2 0-1.14-1.14-3.13-1.14-4.26 0-.89.88-2.32.88-3.2 0-1.14-1.14-3.12-1.14-4.26 0-.88.88-2.32.88-3.2 0-1.14-1.14-3.12-1.14-4.26 0-.86.85-2.35.86-3.2 0-1.14-1.14-3.12-1.14-4.27 0-.85.86-2.35.85-3.2 0-1.14-1.14-3.12-1.14-4.26 0-.89.88-2.32.88-3.2 0-.01-.01-.02 0-.02-.01l29.17-19.54c.17-.12.22-.35.1-.52-.02-.03-.05-.05-.07-.07h-.49l-5.78 3.87c-.05-.02-.1-.03-.15-.03H35.24v.75H90.8l-22.89 15.33c-.1.07-.17.19-.17.31v45.25h.75V169h85.35v-.75H68.5v-5.62c1.17 1.14 3.05 1.13 4.21-.03zM33.35 204.08l4.01 3.39h1.16l-4.41-3.73c-.27.09-.52.21-.76.34zM30.47 207.48h1.03c-1.42-1.41-1.98-2.96-2.2-3.96-.03 0-.06-.01-.1-.01-.23 0-.45.04-.67.07.2.98.7 2.46 1.94 3.9zM41.12 195.68c-.25.1-.5.21-.73.32 1.16 1.21 3.99 4.82 3.96 11.14l-7.19-8.3c-.15.22-.28.44-.41.68l6.89 7.96h1.43c.13-6.53-2.58-10.32-3.95-11.8zM23.25 203.54l-2.02 3.94h.84l1.96-3.82c-.25-.07-.51-.11-.78-.12z"/></svg>