<svg xmlns="http://www.w3.org/2000/svg" height="132" width="132" viewBox="0 0 132 132"><path fill="#8aB4f8" d="m 66.3,132.3 c 25.198465,0.28724 49.63616,-15.35206 59.93059,-38.353581 C 137.04668,71.185547 133.08216,42.44409 116.50807,23.461348 100.371,4.1057216 72.611952,-4.3337073 48.432235,2.764632 24.096991,9.3099362 4.8058057,30.98109 1.1228523,55.91061 -3.1377776,80.811271 8.5296824,107.47451 29.718601,121.23452 40.470435,128.42073 53.36762,132.32203 66.3,132.3 Z"/><path fill="#ffffff" d="m 54.386643,38.899278 c 0.0082,-0.351772 -0.04048,1.515746 -0.184079,1.966868 -0.451408,3.027239 -2.548349,5.637085 -5.273478,6.963729 -4.149548,2.10562 -8.924421,2.24303 -13.478812,2.313 -0.983445,0.147899 -2.829469,0.08597 -3.361932,0.542161 3.938182,4.410764 7.876364,8.821529 11.814546,13.232293 0,-3.176895 0,-6.353791 0,-9.530686 4.785984,-0.75632 9.753743,-2.724191 12.639528,-6.811348 1.792825,-2.505908 2.617929,-5.615852 2.60957,-8.676017 -1.588448,0 -3.176895,0 -4.765343,0 z"/><path fill="#ffffff" d="m 23.888448,58.913718 c 0,5.638989 0,11.277979 0,16.916968 1.588448,0 3.176895,0 4.765343,0 0.0062,-5.957652 -0.01143,-11.928409 0.0071,-17.877626 0.09134,-0.742411 0.856214,-1.782497 1.422464,-1.799097 0,13.6275 0,27.254999 0,40.882499 1.66787,0 3.33574,0 5.00361,0 0,-6.512635 0,-13.025271 0,-19.537906 1.270758,0 2.541516,0 3.812274,0 0,6.512635 0,13.025271 0,19.537906 1.66787,0 3.33574,0 5.00361,0 0,-9.212996 0,-18.425993 0,-27.638989 -5.241877,-5.956679 -10.483755,-11.913357 -15.725632,-17.870036 -2.787954,1.274071 -4.564368,4.332489 -4.288808,7.386281 z"/><path fill="#ffffff" d="m 42.711553,32.704332 c -4.050542,0.63538 -8.101083,1.270758 -12.151625,1.906138 0,0.555955 0,1.111914 0,1.66787 4.050542,0 8.101083,0 12.151625,0 0,-1.191336 0,-2.382672 0,-3.574008 z"/><path fill="#ffffff" d="m 31.036462,42.235018 c -0.04257,2.626273 1.869652,5.116324 4.417949,5.752962 2.525953,0.720195 5.425767,-0.48314 6.699668,-2.780159 0.825557,-1.393956 0.996687,-3.115545 0.532816,-4.66147 -0.303204,-0.553263 -0.238644,-0.797857 0.335646,-0.694004 0.849405,0 1.698811,0 2.548217,0 -0.714801,-0.714802 -1.429603,-1.429603 -2.144404,-2.144405 -4.288809,0 -8.577617,0 -12.866426,0 0,0.714802 0,1.429603 0,2.144405 0.317689,0 0.635379,0 0.953068,0 -0.293233,0.759304 -0.45517,1.568996 -0.476534,2.382671 z"/><path fill="#ffffff" d="m 103.23141,53.195307 c -0.85341,-2.120671 -3.239078,-3.122574 -5.412811,-2.859206 -10.503501,0.02405 -21.011327,-0.04809 -31.512125,0.03607 -2.111541,0.20757 -3.554992,2.060369 -4.004745,4.014342 -1.907744,5.450332 -3.941541,10.878887 -5.770682,16.3428 0.02464,7.842104 -0.04924,15.689854 0.03685,23.528438 0.224738,1.653806 1.978998,2.55499 3.524858,2.302181 1.588001,0.0052 3.615258,0.284408 4.559672,-1.34245 0.794266,-1.318554 0.33261,-2.923115 0.456239,-4.375962 11.913359,0 23.826717,0 35.740076,0 0.14399,1.732305 -0.54406,3.949598 1.10082,5.165052 1.39153,0.966003 3.18294,0.40756 4.76082,0.547495 1.84594,-0.0617 3.01196,-1.977562 2.71597,-3.696341 0,-7.422971 0,-14.845942 0,-22.268913 -2.06498,-5.797834 -4.12996,-11.595668 -6.19494,-17.393502 z M 69.159206,82.263899 c -2.985697,0.256616 -5.4238,-3.108646 -4.243704,-5.865321 0.891683,-2.710091 4.566069,-3.873313 6.805639,-2.050841 2.057706,1.376244 2.652774,4.542815 0.863527,6.383721 -0.846769,0.979215 -2.131021,1.553769 -3.425462,1.532441 z m 26.68592,0 c -3.039786,0.176198 -5.580629,-3.394808 -4.087611,-6.147986 1.358908,-3.063434 6.137024,-3.247419 7.863788,-0.439175 1.749267,2.317243 0.191571,5.949891 -2.60429,6.47893 -0.383296,0.0891 -0.778764,0.125617 -1.171887,0.108231 z M 64.155596,65.108664 c 1.032491,-3.01805 2.064982,-6.036101 3.097473,-9.054151 10.245487,0 20.490975,0 30.736462,0 1.03249,3.01805 2.064979,6.036101 3.097469,9.054151 -12.310468,0 -24.620936,0 -36.931404,0 z"/></svg>
