<svg width="232" height="132" fill="none" xmlns="http://www.w3.org/2000/svg"><g clip-path="url(#clip0)"><path d="M219.42 0H12.58C5.63 0 0 5.63 0 12.58v106.84C0 126.37 5.63 132 12.58 132h206.84c6.95 0 12.58-5.63 12.58-12.58V12.58C232 5.63 226.37 0 219.42 0z" fill="#FFFAEB"/><path d="M110.26 19.77c-27.5801 0-49.9401 22.36-49.9401 49.94s22.36 49.94 49.9401 49.94c27.58 0 49.94-22.37 49.94-49.95 0-27.58-22.36-49.93-49.94-49.93zm14.77 61.87l-.05.05c-.06.08-.12.14-.18.21l-.01.01c-.01.01-.01.01-.01.03-3.49 4.13-8.7 6.76-14.52 6.76-10.5001 0-19.0001-8.52-19.0001-19 0-4.42 1.5101-8.47 4.04-11.69l.03-.03c.12-.15.23-.31.35-.46.06-.08.15-.15.21-.24l.18-.21c3.49-3.92 8.5601-6.38 14.2001-6.38 10.5 0 19 8.52 19 19 0 4.53-1.59 8.69-4.24 11.95zM0 12.58v42.88c3.67 1.25 7.61 1.94 11.71 1.94 20.07 0 36.34-16.27 36.34-36.34 0-7.85-2.5-15.11-6.73-21.06H12.58C5.63 0 0 5.63 0 12.58zM232 12.58C232 5.63 226.37 0 219.42 0h-16.85c-14.67 12.14-24.02 30.49-24.02 51.02l41 .01c0-5.86 2-11.23 5.35-15.49l.04-.04c.16-.2.3-.4.46-.61.08-.1.2-.2.28-.32l.24-.28c1.75-1.96 3.79-3.65 6.07-4.99l.01-16.72zM219.42 132c2.44 0 4.71-.71 6.63-1.9-2.62-18.37-18.41-32.4899-37.5-32.4899-19.75 0-35.96 15.1099-37.72 34.3899h68.59z" fill="#FEF7E0"/></g><defs><clipPath id="clip0"><path fill="#fff" d="M0 0h232v132H0z"/></clipPath></defs></svg>