<?xml version="1.0" encoding="utf-8"?>
<!-- Generator: Adobe Illustrator 23.0.4, SVG Export Plug-In . SVG Version: 6.00 Build 0)  -->
<svg version="1.0" id="Capa_1" xmlns="http://www.w3.org/2000/svg" xmlns:xlink="http://www.w3.org/1999/xlink" x="0px" y="0px"
	 width="288px" height="288px" viewBox="0 0 288 288" enable-background="new 0 0 288 288" xml:space="preserve">
<g enable-background="new    ">
	<path fill="#34A853" d="M281.4,137.2c0,2.2-1.1,4.2-3,5.4l-163.8,102c-3.6,2.1-8.1,2.1-11.7,0L7.9,185.4c-1.3-0.7-2.1-2.1-2.1-3.6
		l0,0c0-1.5,0.8-2.8,2.1-3.6l171.7-96.8c3.7-2.1,8.2-2.1,11.9,0l86.7,50.3C280.2,132.8,281.4,134.9,281.4,137.2L281.4,137.2z"/>
	<g>
		
			<linearGradient id="SVGID_1_" gradientUnits="userSpaceOnUse" x1="270.9917" y1="792.7233" x2="-2.5489" y2="750.0995" gradientTransform="matrix(1 0 0 1 0 -553.89)">
			<stop  offset="0" style="stop-color:#202124"/>
			<stop  offset="1" style="stop-color:#202124;stop-opacity:0"/>
		</linearGradient>
		<path fill="url(#SVGID_1_)" d="M22.4,170l-14.5,8.2c-1.3,0.7-2.1,2.1-2.1,3.6c0,1.5,0.8,2.9,2.1,3.6L99,242.1l10.1-1.5L22.4,170z"
			/>
	</g>
	<polygon fill="#DADCE0" points="12.8,173.9 12.8,180.6 109.2,240.6 199.6,186.2 199.6,178.6 190.2,173 	"/>
	<path fill="#DADCE0" d="M103.6,120.8c-20-7-45.2,6.2-59,25.1s-33.8,26.8-33.8,26.8l91,55.9l7.3,4.5c0,0,23.7-12.8,36.2-27.5
		c15.1-17.8,33.9-29.6,54.3-27"/>
	
		<linearGradient id="SVGID_2_" gradientUnits="userSpaceOnUse" x1="176.6779" y1="654.4173" x2="70.4413" y2="750.3359" gradientTransform="matrix(1 0 0 1 0 -553.89)">
		<stop  offset="0" style="stop-color:#202124"/>
		<stop  offset="1" style="stop-color:#202124;stop-opacity:0"/>
	</linearGradient>
	<path fill="url(#SVGID_2_)" d="M44.7,145.9c-13.8,18.9-33.8,26.8-33.8,26.8l91,55.9l7.3,4.5c0,0,23.7-12.8,36.2-27.5"/>
	
		<linearGradient id="SVGID_3_" gradientUnits="userSpaceOnUse" x1="227.0653" y1="706.9066" x2="131.7477" y2="753.7458" gradientTransform="matrix(1 0 0 1 0 -553.89)">
		<stop  offset="0" style="stop-color:#202124"/>
		<stop  offset="1" style="stop-color:#202124;stop-opacity:0"/>
	</linearGradient>
	<polygon fill="url(#SVGID_3_)" points="199.6,178.6 131.5,219.6 167,162.9 	"/>
</g>
<path fill="#E8EAED" d="M101.3,119.4c-20-7-42.4,4.7-56.2,23.6s-32.3,26.2-32.3,26.2l80.2,48.8l17.3,10.5c0,0,27.2-6.5,39.5-26
	c12.5-19.8,29.1-29.6,49.7-24.1"/>
<path fill="#F1F3F4" d="M199.2,178.4c-20-7-41.9,2.5-56.2,23c-13.4,19.2-33.1,21.8-33.1,21.8l-97.1-58.6c0,0,16.5-4.7,30.2-23.6
	c6.4-8.8,14.3-16.2,23-20.9c12.5-6.8,27.8-6,39.9,1.5l48.4,29.6L199.2,178.4z"/>
<path fill="#70757A" d="M65.2,272.6"/>
<path fill="#70757A" d="M199.6,178.6"/>
<polygon fill="#E8EAED" points="109.2,240.6 109.2,233.1 199.6,178.6 199.6,186.2 "/>
<polygon fill="#E8EAED" points="199.6,186.1 199.6,178.6 270.5,134.6 270.5,142.2 "/>
<linearGradient id="SVGID_4_" gradientUnits="userSpaceOnUse" x1="278.8919" y1="690.9127" x2="237.238" y2="713.0771" gradientTransform="matrix(1 0 0 1 0 -553.89)">
	<stop  offset="0" style="stop-color:#FFFFFF"/>
	<stop  offset="1" style="stop-color:#FFFFFF;stop-opacity:0"/>
</linearGradient>
<polygon fill="url(#SVGID_4_)" points="199.6,186.1 199.6,178.6 270.5,134.6 270.5,142.2 "/>
<polygon fill="#DADCE0" points="270.5,134.6 258.3,129.5 187,171.1 199.6,178.6 "/>
<linearGradient id="SVGID_5_" gradientUnits="userSpaceOnUse" x1="271.4645" y1="662.223" x2="214.7892" y2="721.2403" gradientTransform="matrix(1 0 0 1 0 -553.89)">
	<stop  offset="0" style="stop-color:#202124"/>
	<stop  offset="1" style="stop-color:#202124;stop-opacity:0"/>
</linearGradient>
<polygon fill="url(#SVGID_5_)" points="270.5,134.6 258.3,129.5 187,171.1 199.6,178.6 "/>
<path fill="#E8EAED" d="M199.6,178.6c0,0,6.1-17,29.1-22.6c15.3-3.7,25-12.5,25-12.5l-37.5-10.7l-19.6,38.8L199.6,178.6z"/>
<linearGradient id="SVGID_6_" gradientUnits="userSpaceOnUse" x1="56.7733" y1="673.3434" x2="60.2005" y2="742.2688" gradientTransform="matrix(1 0 0 1 0 -553.89)">
	<stop  offset="0" style="stop-color:#202124"/>
	<stop  offset="1" style="stop-color:#202124;stop-opacity:0"/>
</linearGradient>
<polygon fill="url(#SVGID_6_)" points="12.8,173.9 109.2,233.1 104.3,237.6 12.8,175.4 "/>
<linearGradient id="SVGID_7_" gradientUnits="userSpaceOnUse" x1="-39.1388" y1="673.1153" x2="45.827" y2="744.4545" gradientTransform="matrix(1 0 0 1 0 -553.89)">
	<stop  offset="0" style="stop-color:#202124"/>
	<stop  offset="1" style="stop-color:#202124;stop-opacity:0"/>
</linearGradient>
<polygon fill="url(#SVGID_7_)" points="15.1,170.7 61,202.6 66,201.6 "/>
<linearGradient id="SVGID_8_" gradientUnits="userSpaceOnUse" x1="6.1123" y1="702.416" x2="46.6282" y2="743.8686" gradientTransform="matrix(1 0 0 1 0 -553.89)">
	<stop  offset="0" style="stop-color:#202124"/>
	<stop  offset="1" style="stop-color:#202124;stop-opacity:0"/>
</linearGradient>
<polygon fill="url(#SVGID_8_)" points="17.2,167.2 49.2,190.4 52.2,188.3 "/>
<g>
	<line fill="none" x1="108.6" y1="236" x2="270.5" y2="137.1"/>
	<polygon fill="#DADCE0" points="108.8,236.3 108.4,235.7 270.5,136.7 270.5,137.5 	"/>
</g>
<g>
	<line fill="none" x1="108.9" y1="239.2" x2="270.5" y2="140.5"/>
	<polygon fill="#DADCE0" points="109,239.5 108.7,238.9 270.5,140.1 270.5,141 	"/>
</g>
<path fill="#F1F3F4" d="M199.6,178.6c0,0,4.7-20.2,30.7-25.5c24.6-5,40.2-23.6,40.2-23.6l-2.3-1.2l-95.4-54.9
	c0,0-13.6,16.4-39.7,20.5c-22.7,3.6-27.8,27.2-27.8,27.2l26.7,35.2c0,0,45.3,12.7,45.9,13C178.3,169.5,199.6,178.6,199.6,178.6z"/>
<linearGradient id="SVGID_9_" gradientUnits="userSpaceOnUse" x1="341.6971" y1="696.1276" x2="184.253" y2="679.6953" gradientTransform="matrix(1 0 0 1 0 -553.89)">
	<stop  offset="0" style="stop-color:#FFFFFF"/>
	<stop  offset="1" style="stop-color:#FFFFFF;stop-opacity:0"/>
</linearGradient>
<path fill="url(#SVGID_9_)" d="M199.6,178.6c0,0,4.7-20.2,30.7-25.5c24.6-5,40.2-23.6,40.2-23.6l-2.3-1.2l-95.4-54.9
	c0,0-13.6,16.4-39.7,20.5c-22.7,3.6-27.8,27.2-27.8,27.2l26.7,35.2c0,0,45.3,12.7,45.9,13C178.3,169.5,199.6,178.6,199.6,178.6z"/>
<path fill="#34A853" d="M210.5,179.3c-2.1-1.4-6.3-3.3-10.9-0.7c-5.9,3.2-8,9.9-8.6,12.8c-0.2,0.8-0.3,1.3-0.3,1.3l21.3-12.2
	C212,180.5,211.5,179.9,210.5,179.3z"/>
<linearGradient id="SVGID_10_" gradientUnits="userSpaceOnUse" x1="12.825" y1="723.204" x2="199.241" y2="723.204" gradientTransform="matrix(1 0 0 1 0 -553.89)">
	<stop  offset="0" style="stop-color:#F1F3F4"/>
	<stop  offset="1" style="stop-color:#F1F3F4;stop-opacity:0"/>
</linearGradient>
<path fill="url(#SVGID_10_)" d="M199.2,178.4c-20-7-41.9,2.5-56.2,23c-13.4,19.2-33.1,21.8-33.1,21.8l-97.1-58.6
	c0,0,16.5-4.7,30.2-23.6c6.4-8.8,14.3-16.2,23-20.9c12.5-6.8,27.8-6,39.9,1.5l48.4,29.6L199.2,178.4z"/>
<linearGradient id="SVGID_11_" gradientUnits="userSpaceOnUse" x1="136.9093" y1="700.7244" x2="86.7526" y2="729.0988" gradientTransform="matrix(1 0 0 1 0 -553.89)">
	<stop  offset="0" style="stop-color:#FFFFFF"/>
	<stop  offset="1" style="stop-color:#FFFFFF;stop-opacity:0"/>
</linearGradient>
<path fill="url(#SVGID_11_)" d="M199.2,178.4c-20-7-41.9,2.5-56.2,23c-13.4,19.2-33.1,21.8-33.1,21.8l-97.1-58.6
	c0,0,16.5-4.7,30.2-23.6c6.4-8.8,14.3-16.2,23-20.9c12.5-6.8,27.8-6,39.9,1.5l48.4,29.6L199.2,178.4z"/>
<rect x="60.8" y="130.9" transform="matrix(0.5342 -0.8454 0.8454 0.5342 -101.3919 124.4408)" fill="#DADCE0" width="2.9" height="46.7"/>
<path fill="#DADCE0" d="M31.8,176.2l-2.6-1.7c0.2-0.1,16-9.1,26.2-24.6l2.4,1.6C47.2,167.6,32.5,175.8,31.8,176.2z"/>
<polygon fill="#DADCE0" points="89.6,157.2 91.1,154.7 151.2,191.6 149.1,193.8 "/>
<rect x="80" y="190.6" transform="matrix(0.334 -0.9426 0.9426 0.334 -111.6875 225.9626)" fill="#DADCE0" width="48.2" height="2.9"/>
<path fill="#DADCE0" d="M183.9,169.1c-22.9-4.3-41,19-41.2,19.2l-2.3-1.8c0.7-1,16.3-21,37.7-20.9"/>
<path fill="#DADCE0" d="M126.4,134l-2.5-1.5c0.4-0.9,9.4-21.9,28-24.8c26.5-4,39-23.6,39.2-23.8l2.6,1.5c-0.5,0.8-13.4,21-41.3,25.2
	C135.3,113.2,126.5,133.8,126.4,134z"/>
<polygon fill="#DADCE0" points="168.7,137.2 113.7,104.7 115.7,102.5 170.2,134.7 "/>
<polygon fill="#DADCE0" points="220.8,156.1 216.2,98.4 219.3,100.2 223.6,154.9 "/>
<path fill="#DADCE0" d="M172.7,162.3l-2.6-1.6c0.2-0.7,4.9-16.3,23.5-22.4c17.3-5.7,24.8-14.4,24.9-14.5l2.2,1.9
	c-0.3,0.4-8,9.4-26.2,15.4C177.5,146.7,172.8,162.2,172.7,162.3z"/>
<polygon fill="#DADCE0" points="259.6,139.5 218.1,114.1 219.6,111.6 262,137.6 "/>
<g>
	<path fill="#4285F4" d="M69,186.2l-2.8-2.2l38.6-49.6c0.7-0.9,1.8-1.5,2.9-1.5c1.2-0.1,2.3,0.4,3.1,1.2l31.9,34l37.3-48l2.8,2.2
		l-39.9,51.3l-34.8-37.1c-0.1-0.1-0.2-0.1-0.3-0.1c-0.1,0-0.2,0-0.3,0.1L69,186.2z"/>
</g>
<circle fill="#EA4335" cx="69" cy="183.9" r="8.1"/>
<circle fill="#FBBC04" cx="107.9" cy="136" r="8.1"/>
<circle fill="#34A853" cx="142.8" cy="170.2" r="8.1"/>
<circle fill="#4285F4" cx="181.4" cy="122.2" r="8.1"/>
<path fill="#4285F4" d="M200.3,53.3L200.3,53.3c-2.8-5.1-7.4-9-13.1-10.7l0,0h0c0,0,0,0,0,0l0,0c-2.1-0.6-4.4-1-6.7-0.9
	c-6.8,0.1-12.9,3.2-16.9,8.1l0,0c-3.2,3.9-5.1,8.9-5,14.3c0.1,4.2,0.9,7.5,2.3,10.5v0c2.4,5,6.3,9.1,10.3,14.1l0,0
	c1.3,1.6,2.6,3.4,3.9,5.3c4.6,6.9,3.3,11.1,6.1,11c2.9,0,1.6-4.2,6-11.2c7.3-11.6,15.8-17,15.7-30.4C202.9,59.8,202,56.3,200.3,53.3
	z M180.7,55.3c4.7-0.1,8.5,3.7,8.6,8.4c0,2-0.7,3.9-1.8,5.3l0,0c0,0-0.1,0.1-0.1,0.1l0,0c0,0,0,0,0,0l0,0c-1.5,1.9-3.8,3.1-6.4,3.1
	c-4.7,0.1-8.5-3.7-8.6-8.3c0-2,0.6-3.8,1.7-5.2l0,0c0.1-0.1,0.1-0.1,0.2-0.2l0,0c0,0,0.1-0.1,0.1-0.1l0.1-0.1
	C176,56.5,178.2,55.3,180.7,55.3z"/>
<linearGradient id="SVGID_12_" gradientUnits="userSpaceOnUse" x1="227.9436" y1="726.9892" x2="193.9072" y2="739.3234" gradientTransform="matrix(1 0 0 1 0 -553.89)">
	<stop  offset="0" style="stop-color:#202124"/>
	<stop  offset="1" style="stop-color:#202124;stop-opacity:0"/>
</linearGradient>
<path fill="url(#SVGID_12_)" d="M199.6,178.6c-5.9,3.2-8,9.9-8.6,12.8l19.6-12C208.4,178,204.2,176.1,199.6,178.6z"/>
</svg>
