<svg width="152px" height="97px" viewBox="0 0 152 97" xmlns="http://www.w3.org/2000/svg"><title>Artboard</title><g fill="none" fill-rule="evenodd"><path d="M84.9507459,21.6357622 L121.629578,21.6357622 C138.227078,21.635755 151.686333,35.0825079 151.701751,51.68 C151.736661,65.6369717 142.163956,77.7836059 128.585427,81.0118919 L128.585427,96.8231784 L113.542357,81.7940757 L84.9507459,81.7940757 C76.9654244,81.7977924 69.3065015,78.6253689 63.6626466,72.9762737 C58.0187918,67.3271785 54.8534778,59.6653146 54.8646054,51.68 C54.8877249,35.0802498 68.3509796,21.6357461 84.9507459,21.6357622 Z" fill="#E2E2E6" fill-rule="nonzero"/><linearGradient x1="50.8229362%" y1="40.2982067%" x2="122.263448%" y2="134.132581%" id="a"><stop style="stop-color:#E2E2E6" offset="0"/><stop style="stop-color:#BABBC2" offset="1"/></linearGradient><path d="M78.4139243,75.4248649 L97.3260108,75.4248649 C106.642378,75.4248649 116.671092,75.4248649 122.048605,74.6007784 C131.868847,72.2697137 139.864782,65.1677143 143.338394,55.6911628 C146.812005,46.2146113 145.299983,35.6274886 139.312519,27.5021405 C148.778626,34.4251498 153.353905,46.2214786 151.031445,57.7167568 C148.708985,69.2120349 139.912937,78.3068741 128.501622,81.0118919 L128.501622,96.8231784 L113.402681,81.7940757 L84.7971027,81.7940757 C75.2339352,81.8002138 66.2396245,77.2511881 60.5773405,69.5445189 C65.7380494,73.3674136 71.9915088,75.4290474 78.4139243,75.4248649 Z" fill="url(#a)" fill-rule="nonzero"/><path d="M66.7510054,0 L30.072173,0 C13.4637704,-1.01697135e-15 2.0339427e-15,13.4637704 0,30.072173 C0.00260806546,44.0012909 9.56612918,56.1073796 23.1163243,59.334227 L23.1163243,75.1874162 L38.145427,60.1443459 L66.7510054,60.1443459 C83.3594079,60.1443459 96.8231784,46.6805755 96.8231784,30.072173 C96.8231784,13.4637704 83.3594079,1.01697135e-15 66.7510054,0 Z" fill="#F9BC15" fill-rule="nonzero"/><linearGradient x1="49.1504797%" y1="40.2900886%" x2="-22.3643348%" y2="134.125705%" id="b"><stop style="stop-color:#F9BC15" offset="0"/><stop style="stop-color:#D19D0D" offset="1"/></linearGradient><path d="M73.287827,53.7611676 L54.3757405,53.7611676 C45.059373,53.7611676 35.0306595,53.7611676 29.6391784,52.9370811 C19.8261818,50.6004215 11.8383792,43.4994189 8.36831728,34.0276952 C4.89825534,24.5559714 6.4082213,13.9753651 12.3892324,5.85241081 C2.95231693,12.7940642 -1.59439036,24.5841773 0.738277489,36.064621 C3.07094533,47.5450646 11.858336,56.6258729 23.256,59.334227 L23.256,75.1874162 L38.2990703,60.1443459 L66.9046486,60.1443459 C76.4604051,60.1493028 85.4481025,55.6061851 91.1104432,47.9087568 C85.9496603,51.71796 79.702158,53.7694518 73.287827,53.7611676 Z" fill="url(#b)" fill-rule="nonzero"/></g></svg>