<svg xmlns="http://www.w3.org/2000/svg" width="250" height="150"><path fill="#5F6368" d="M123.027 125.805l-82.084 4.404c-2.032.113-3.755-1.439-3.867-3.472l-4.461-83.171c-.099-1.792 1.285-3.331 3.077-3.429l82.916-4.445c1.792-.099 3.331 1.285 3.429 3.077l4.461 83.156c.114 2.03-1.439 3.767-3.471 3.88z"/><path fill="#202124" d="M36.16 43.565l81.25-4.361 3.105 57.822-81.25 4.361-3.105-57.822z"/><path fill="#8AB4F8" d="M107.601 77.494l-7.495-8.44-1.312-24.642-39.377 2.103c-2.371.127-4.191 2.16-4.065 4.531l2.639 49.354 43.681-2.328-1.044-19.603 6.719-.353c.282-.029.438-.382.254-.622z"/><radialGradient id="a" cx="-65.3682" cy="-91.409" r="243.6708" gradientTransform="translate(0 22)" gradientUnits="userSpaceOnUse"><stop offset="0" style="stop-color:#202124"/><stop offset="1" style="stop-color:#202124;stop-opacity:0"/></radialGradient><path fill="url(#a)" d="M107.601 77.494l-7.495-8.44-1.312-24.642-39.377 2.103c-2.371.127-4.191 2.16-4.065 4.531l2.639 49.354 43.681-2.328-1.044-19.603 6.719-.353c.282-.029.438-.382.254-.622z"/><path fill="#202124" d="M63.77387 46.28453l.35248-.01938 2.94983 53.6504-.35247.01939zM93.742 79.95l-.367.027.211 3.741-15.82.833-.198-3.98-.353.028.975 18.714.352-.028-.748-14.381 8.453-.438.777 14.396.311-.029-.763-14.381 7.029-.382.776 14.382.353-.027z"/><path fill="#5F6368" d="M110.495 78.284l-2.089.085-32.476 1.595-10.118-10.966c-.31-.438-.056-1.03.466-1.058l33.703-1.666 10.5 11.982"/><path opacity=".48" fill="#3C4043" d="M100.629 78.75L89.593 66.782l4.925-.24 11.037 11.953zM90.75 79.23L79.713 67.276l4.94-.24L95.69 78.99zM80.884 79.725L69.848 67.769l4.926-.253L85.81 79.47z"/><path fill="#5F6368" d="M110.438 79.287c.085.691-.409 1.298-1.087 1.327-.678.028-1.298-.508-1.369-1.2.085.691-.409 1.298-1.087 1.327-.678.028-1.298-.508-1.369-1.2.085.691-.409 1.298-1.087 1.327-.678.028-1.298-.508-1.369-1.2.085.691-.409 1.298-1.087 1.327-.678.028-1.298-.508-1.369-1.2.085.691-.409 1.298-1.087 1.327-.678.028-1.298-.508-1.369-1.2.085.691-.409 1.298-1.087 1.327-.678.028-1.298-.508-1.369-1.2.085.691-.409 1.298-1.087 1.327-.678.028-1.298-.508-1.369-1.2.085.691-.409 1.298-1.087 1.327-.678.028-1.298-.508-1.369-1.2.085.691-.409 1.298-1.087 1.327-.678.028-1.298-.508-1.369-1.2.085.691-.409 1.298-1.087 1.327-.678.028-1.298-.508-1.369-1.2.085.691-.409 1.298-1.087 1.327-.678.028-1.298-.508-1.369-1.2.085.691-.409 1.298-1.087 1.327-.678.028-1.298-.508-1.369-1.2.085.691-.409 1.298-1.087 1.327-.678.028-1.298-.508-1.369-1.2.085.691-.409 1.298-1.087 1.327-.678.028-1.298-.508-1.369-1.2l-.127-1.101 34.549-1.708-.038 1.031z"/><path fill="#3C4043" d="M75.564 99.468s-1.99-4.954-7.465-4.658c-1.538.085-2.992.565-4.29 1.214-1.51-2.103-4.29-4.191-9.371-3.924-9.909.522-11.136 9.075-11.136 9.075l32.262-1.707z"/><path fill="#5F6368" d="M93.954 57.849l-21.82 7.452c-.254.085-.479-.056-.494-.325l-.508-9.582c-.014-.268.184-.55.451-.635l21.82-7.438c.254-.085.479.056.494.325l.508 9.582c.014.253-.184.535-.451.621z"/><path opacity=".48" fill="#3C4043" d="M80.843 79.738l.127 1.129c.085.691.691 1.214 1.369 1.171.678-.028 1.171-.621 1.087-1.327.085.691.691 1.242 1.369 1.2.663-.028 1.144-.592 1.101-1.27l-.127-1.171-4.926.268zM90.722 79.244l.127 1.129c.085.691.691 1.214 1.369 1.171.678-.028 1.171-.621 1.087-1.327.085.691.691 1.242 1.369 1.2.663-.028 1.144-.592 1.101-1.27l-.127-1.171-4.926.268zM100.629 78.75l.127 1.129c.085.691.691 1.214 1.369 1.171.678-.028 1.171-.621 1.087-1.327.085.691.691 1.242 1.369 1.2.663-.028 1.144-.592 1.101-1.27l-.127-1.171-4.926.268z"/><linearGradient id="b" gradientUnits="userSpaceOnUse" x1="55.9937" y1="101.1641" x2="55.9937" y2="87.8442" gradientTransform="rotate(-3.032 -647.93247 -430.48025)"><stop offset=".1061" style="stop-color:#202124;stop-opacity:0.1"/><stop offset="1" style="stop-color:#202124;stop-opacity:0"/></linearGradient><path fill="url(#b)" d="M93.954 57.849l-21.82 7.452c-.254.085-.479-.056-.494-.325l-.508-9.582c-.014-.268.184-.55.451-.635l21.82-7.438c.254-.085.479.056.494.325l.508 9.582c.014.253-.184.535-.451.621z"/><path fill="#202124" d="M70.879 99.695l2.258-3.345c-.113-.085-.227-.169-.338-.254l-2.442 3.627.522-.028zm-1.709.084l-2.314-4.826c-.141.028-.282.056-.409.085l2.287 4.77c-.001-.001.436-.029.436-.029zM47.789 94.204c1.722 1.877 3.867 4.234 5.829 6.407l.536-.028c-1.835-2.047-4.135-4.572-6.013-6.619-.127.086-.24.156-.352.24zm10.373-1.82l-1.99 8.101.438-.028 1.948-7.974c-.127-.043-.255-.071-.396-.099zm5.377 3.274l-4.502 4.672.607-.028 4.149-4.305-.254-.339z"/><linearGradient id="c" gradientUnits="userSpaceOnUse" x1="273.0985" y1="-33.3627" x2="88.4724" y2="117.1645" gradientTransform="translate(0 -4)"><stop offset="0" style="stop-color:#202124"/><stop offset="1" style="stop-color:#202124;stop-opacity:0"/></linearGradient><path fill="url(#c)" d="M126.499 121.937l-3.698-68.916c-31.939 22.497-52.346 36.892-86.374 60.856l64.936 13.083 21.649-1.157c2.047-.111 3.6-1.848 3.487-3.866z"/><path fill="#5F6368" d="M189.008 129.883l-78.809-23.372c-1.948-.579-3.049-2.625-2.484-4.572l23.682-79.826c.508-1.722 2.328-2.709 4.05-2.188l79.614 23.612c1.722.508 2.709 2.328 2.188 4.05l-23.668 79.839c-.594 1.921-2.64 3.036-4.573 2.457z"/><path fill="#202124" d="M134.727 23.299l78.005 23.131-16.457 55.508-78.019-23.118 16.471-55.521z"/><path fill="#8AB4F8" d="M75.296 61.151l-.085-.282c.043-.014 2.865-.875 4.164-2.978-.72-.691-1.144-1.609-1.144-2.328-.014-.917.479-1.27.932-1.285.494-.028 1.058.338 1.114.96.099 1.003-.127 1.863-.522 2.596.227.184.466.338.748.466.79.352 2.061.508 3.528-.805.832-.748 1.384-1.439 1.722-2.061-.819-.649-1.058-1.679-.861-2.385.113-.409.381-.663.72-.691.325-.028.635.197.805.592.24.55.227 1.384-.268 2.385.776.466 2.427.805 5.546-1.101l.155.254c-3.231 1.976-4.996 1.623-5.857 1.101-.367.649-.946 1.369-1.779 2.117-1.242 1.101-2.611 1.411-3.853.847-.282-.127-.536-.282-.776-.479-1.353 2.174-4.247 3.062-4.289 3.077zm3.924-6.591h-.028c-.409.028-.649.395-.649.988 0 .621.367 1.439.988 2.061.352-.663.536-1.454.451-2.357-.043-.424-.424-.692-.762-.692zm6.449-1.905h-.028c-.282.028-.409.31-.451.479-.169.565.028 1.454.706 2.018.451-.96.424-1.693.254-2.089-.114-.254-.297-.408-.481-.408z"/><path fill="#FDD663" d="M185.888 98.876l12.8-43.398-47.237-13.93-12.8 43.398"/><path fill="#FDD663" d="M195.641 73.571l-.338 1.185-2.202-.649-.155.508 2.202.649-3.288 11.135-2.455-.72-.141.508 2.455.72-.367 1.228 6.436 1.891 4.29-14.551-6.437-1.904z"/><path fill="#202124" d="M177.42 72.23l-5.081 17.204-4.149-1.228 3.881-13.154c.325-1.087.184-2.23-.395-3.218-.565-1.003-1.496-1.722-2.625-2.061-1.157-.338-2.357-.227-3.387.338-.973.536-1.693 1.397-2.004 2.455l-3.895 13.211-4.164-1.256 5.081-17.233-11.404-3.373-5.066 17.163-4.008-1.214-.099.338 4.008 1.214 1.114.325 14.452 4.347-1.369 4.629.31.085 5.363-18.178c.282-.96.946-1.764 1.849-2.258.96-.522 2.074-.635 3.147-.31 1.044.31 1.906.988 2.442 1.906.522.917.649 1.976.352 2.964l-5.363 18.178.31.085 1.384-4.713 10.599 3.12 4.967 1.468 3.599 1.058.085-.31-3.599-1.058 5.081-17.204-11.416-3.32zm-27.93-7.918l10.812 3.19-4.982 16.893-4.488-1.327-6.308-1.906 4.966-16.85zm29.215 26.999l-6.041-1.779 4.982-16.893 10.797 3.19-4.982 16.893-4.756-1.411zM150.6554 44.21374l.09184-.31174 47.22717 13.9141-.09185.31174zM146.484 58.414l47.237 13.985.085-.31-47.237-13.987z"/><path fill="#202124" d="M150.689 44.144l47.237 13.93-4.135 14.043-47.237-13.93 4.135-14.043z"/><linearGradient id="d" gradientUnits="userSpaceOnUse" x1="177.1923" y1="47.2416" x2="170.1884" y2="68.2531" gradientTransform="translate(0 -4)"><stop offset=".1061" style="stop-color:#202124;stop-opacity:0.1"/><stop offset="1" style="stop-color:#202124;stop-opacity:0"/></linearGradient><path fill="url(#d)" d="M193.778 72.117l-47.237-13.93 4.135-14.029 47.252 13.93-4.15 14.029z"/><path fill="none" stroke="#FBBC04" stroke-width=".2331" stroke-miterlimit="10" d="M149.716 53.812s12.377.917 13.295-2.964c.592-2.541-9.597 4.093-2.202 6.365 5.786 1.779 11.318-3.783 11.135.085-.211 4.361 8.369.903 7.989.014-.522-1.2-7.452 2.512-3.543 5.109 3.909 2.611 13.013-5.589 13.987-.72.974 4.869 3.12 3.853 3.12 3.853"/><ellipse transform="rotate(-73.68 135.7126 58.991)" fill="#3C4043" cx="135.712" cy="58.99" rx="14.663" ry="8.228"/><path fill="#5F6368" d="M136.026 57.933c-.169-.043-.352.043-.395.211l-2.667 9.103-2.272-7.311c-.056-.169-.227-.268-.409-.211-.169.056-.268.24-.211.409l2.568 8.228-3.909 13.323c-.056.169.043.353.211.395.028.014.056.014.085.014.141 0 .268-.085.31-.227l3.909-13.337c.028-.043.043-.099.043-.141l2.949-10.077c.056-.153-.042-.322-.212-.379z"/></svg>