<svg width="91" height="63" viewBox="0 0 91 63" fill="none" xmlns="http://www.w3.org/2000/svg">
<path d="M56.0277 45.7894C57.1726 44.4537 58.6228 43.7668 60.0348 43.805H60.0729H60.1111C61.5231 43.7668 63.0114 44.4537 64.1182 45.7894C66.5224 48.6516 66.5224 53.6509 64.1182 56.5131C63.0114 57.8488 61.5231 58.4976 60.1111 58.4594H60.0729H60.0348C58.6228 58.4976 57.1344 57.8488 56.0277 56.5131C53.6235 53.6509 53.5853 48.6516 56.0277 45.7894Z" fill="#8C9196"/>
<path d="M69.7345 34.3785C66.1091 24.9141 59.8886 17.7014 50.7678 13.1601C47.753 11.6717 44.5855 10.9848 41.2272 11.023C34.8159 11.0612 28.3664 11.023 21.9551 11.023C10.7354 11.023 3.2555 17.2816 1.57635 28.4251C0.316988 36.8209 0.545954 45.2548 2.95019 53.4979C3.33182 54.7954 3.82793 55.2534 5.23994 55.2534C15.3148 55.177 25.3516 55.2152 35.4265 55.2152C45.3869 55.2152 55.3473 55.2152 65.2695 55.2152C68.3989 55.2152 70.307 53.8795 70.9176 50.8647C72.0243 45.2929 71.7953 39.7594 69.7345 34.3785Z" fill="#4285F4"/>
<path d="M66.4085 49.9497H53.3569C52.899 49.9497 52.5173 49.568 52.5173 49.1101V46.5532C52.5173 46.0953 52.899 45.7136 53.3569 45.7136H66.4085C66.8664 45.7136 67.248 46.0953 67.248 46.5532V49.1101C67.2862 49.568 66.9046 49.9497 66.4085 49.9497ZM53.3569 46.1334C53.128 46.1334 52.9371 46.3242 52.9371 46.5532V49.1101C52.9371 49.3391 53.128 49.5299 53.3569 49.5299H66.4085C66.6375 49.5299 66.8283 49.3391 66.8283 49.1101V46.5532C66.8283 46.3242 66.6375 46.1334 66.4085 46.1334H53.3569Z" fill="#3A77CE"/>
<path d="M20.6897 34.7605C20.6516 34.7605 20.6134 34.7605 20.5753 34.7223L15.9958 32.3562C15.8813 32.3181 15.8431 32.1654 15.8813 32.0509C15.9194 31.9364 16.0721 31.8983 16.1866 31.9364L20.7661 34.3025C20.8806 34.3407 20.9187 34.4933 20.8805 34.6078C20.8424 34.7223 20.766 34.7605 20.6897 34.7605Z" fill="#3A77CE"/>
<path d="M29.2003 52.1241C29.2003 52.1241 29.1621 52.1241 29.2003 52.1241L20.6519 50.7121C20.5374 50.6739 20.4611 50.5595 20.4611 50.445C20.4992 50.3305 20.6137 50.2542 20.7282 50.2542L29.2384 51.6662C29.3529 51.7043 29.2384 51.7806 29.2003 51.9333C29.2003 52.0478 29.3148 52.1241 29.2003 52.1241Z" fill="#3A77CE"/>
<path d="M0.884033 41.7444C0.884033 41.897 0.884024 42.0497 0.922186 42.2023C0.884024 42.0497 0.884033 41.897 0.884033 41.7444Z" fill="#3A77CE"/>
<path d="M1.60853 27.967C1.57037 28.1197 1.57039 28.2723 1.53223 28.425C1.57039 28.2723 1.60853 28.1197 1.60853 27.967Z" fill="#3A77CE"/>
<path d="M3.82179 28.4253C4.43238 28.4253 4.96666 28.9214 4.96666 29.5702V40.6373C4.96666 41.2479 4.47055 41.7822 3.82179 41.7822H0.845093C0.845093 41.9349 0.84513 42.0875 0.883293 42.2402H3.82179C4.69952 42.2402 5.38644 41.5151 5.38644 40.6755V29.6084C5.38644 28.7306 4.66136 28.0437 3.82179 28.0437H1.60834C1.57018 28.1964 1.5702 28.349 1.53204 28.5016H3.82179V28.4253Z" fill="#3A77CE"/>
<path d="M41.9082 43.8435C40.4962 42.2025 38.6262 41.2484 36.7181 41.2484C36.6799 41.2484 36.6418 41.2484 36.6036 41.2484H36.5655C36.5655 41.2484 36.5273 41.2484 36.4509 41.2484C36.4509 41.2484 36.451 41.2484 36.4128 41.2484C34.5047 41.2103 32.5584 42.1643 31.1464 43.8435C28.6276 46.8202 28.1315 51.5141 29.6199 55.2159C29.7725 55.2159 29.9252 55.2159 30.0778 55.2159C28.5895 51.6668 29.0474 47.011 31.4898 44.1106C32.8255 42.5078 34.6191 41.63 36.4509 41.6682H36.4891H36.5273C36.5654 41.6682 36.5654 41.6682 36.6036 41.6682C36.6418 41.6682 36.6799 41.6682 36.7181 41.6682C38.4735 41.6682 40.229 42.5459 41.5647 44.1106C44.0071 47.011 44.4651 51.6668 42.9386 55.2159C43.0912 55.2159 43.2439 55.2159 43.3965 55.2159C44.923 51.5523 44.4269 46.8202 41.9082 43.8435Z" fill="white"/>
<path d="M8.09623 44.1488C9.39375 42.5841 11.1874 41.7064 12.9429 41.7064C12.9811 41.7064 13.0192 41.7064 13.0573 41.7064H13.0955H13.1337C13.1719 41.7064 13.1718 41.7064 13.21 41.7064C15.0036 41.6682 16.8354 42.5459 18.1711 44.1488C20.6135 47.0491 21.0715 51.6668 19.5832 55.2159C19.7358 55.2159 19.8885 55.2159 20.0411 55.2159C21.5294 51.5141 21.0333 46.8202 18.5146 43.8435C17.1026 42.1643 15.1563 41.2103 13.2482 41.2484H13.21C13.21 41.2484 13.1719 41.2484 13.0955 41.2484C13.0955 41.2484 13.0955 41.2484 13.0573 41.2484C13.0192 41.2484 12.9811 41.2484 12.9429 41.2484C11.0348 41.2484 9.16481 42.2025 7.7528 43.8435C5.23408 46.8202 4.73796 51.5523 6.2263 55.2541C6.37895 55.2541 6.53158 55.2541 6.68423 55.2541C5.1959 51.705 5.65383 47.0491 8.09623 44.1488Z" fill="white"/>
<path d="M32.4823 45.7894C33.6271 44.4537 35.0773 43.7668 36.4893 43.805H36.5275H36.5657C37.9777 43.7668 39.466 44.4537 40.5727 45.7894C42.977 48.6516 42.977 53.6509 40.5727 56.5131C39.466 57.8488 37.9777 58.4976 36.5657 58.4594H36.5275H36.4893C35.0773 58.4976 33.589 57.8488 32.4823 56.5131C30.078 53.6509 30.078 48.6516 32.4823 45.7894Z" fill="#BEC3C8"/>
<path d="M9.08815 45.7897C10.233 44.454 11.6832 43.7671 13.0952 43.8052H13.1334H13.1715C14.5835 43.7671 16.0719 44.454 17.1786 45.7897C19.5828 48.6519 19.5828 53.6511 17.1786 56.5133C16.0719 57.849 14.5835 58.4978 13.1715 58.4596H13.1334H13.0952C11.6832 58.4978 10.1949 57.849 9.08815 56.5133C6.64575 53.6511 6.64575 48.6519 9.08815 45.7897Z" fill="#BEC3C8"/>
<path d="M43.7396 34.3788C41.6025 34.3788 39.6563 34.3788 37.7481 34.3788C36.298 34.3788 35.2676 33.73 34.886 32.2798C34.5043 30.7152 35.6874 29.3413 37.5573 29.1887C38.4351 29.1124 39.351 29.1505 40.2287 29.1505C41.0683 29.1505 41.8697 29.1505 42.9001 29.1505C42.7474 28.5017 42.7093 28.082 42.5184 27.7003C39.2365 20.4494 34.0845 15.1449 26.1086 13.4657C21.1856 12.3972 16.4916 13.3131 13.057 17.5109C9.77501 21.518 10.7291 27.1279 15.3467 29.494C21.8344 32.8523 28.4365 36.0579 35.0386 39.1873C38.6259 40.9046 42.0986 38.9964 43.7396 34.3788Z" fill="#E6EBF0"/>
<path d="M33.4366 13.8475C33.3984 13.962 33.3603 14.0765 33.2839 14.191C33.7037 14.4963 34.1235 14.8398 34.5433 15.1451C40.1914 19.5719 44.6182 24.9528 47.0606 31.7839C47.7476 33.692 48.7398 34.4553 50.8005 34.4553C55.7617 34.4935 60.7609 34.4935 65.722 34.4553C67.7828 34.4553 68.8132 33.4249 68.6606 31.8984C65.226 24.2659 59.9214 18.2744 52.5942 14.1147C52.0599 13.962 51.5256 13.8475 51.0295 13.8475C45.1525 13.8094 39.3136 13.8475 33.4366 13.8475Z" fill="#E6EBF0"/>
<path d="M20.6903 12.4736V33.1196" stroke="#4285F4" stroke-miterlimit="10" stroke-linecap="round" stroke-linejoin="round"/>
<path d="M45.4574 39.9889C45.4574 41.5918 46.6023 43.0801 47.8998 43.1183C49.2737 43.1564 50.4567 41.7062 50.4567 39.9508C50.4567 38.1953 49.3118 36.7451 47.938 36.7451C46.6023 36.7451 45.4574 38.2335 45.4574 39.9889Z" fill="white"/>
<path d="M68.6604 39.9508C68.6222 41.5918 69.767 43.1183 71.0264 43.0802C72.2858 43.0802 73.4307 41.5537 73.4307 39.9508C73.4307 38.2717 72.2858 36.7834 71.0646 36.8215C69.8434 36.8597 68.6985 38.348 68.6604 39.9508Z" fill="white"/>
<path d="M89.2825 52.0592L87.0074 47.9424H55.4813L55.1562 53.3593H68.1567V58.2344C68.1567 58.5594 68.3734 58.7761 68.6984 58.7761H75.5237C75.8487 58.7761 76.0653 58.5594 76.0653 58.2344V53.3593H89.8242C89.6075 52.9259 89.4992 52.4926 89.2825 52.0592Z" fill="#F1F3F4"/>
<path d="M89.1737 56.8255V55.5254C89.1737 55.092 89.4987 54.767 89.9321 54.767C89.9321 54.3337 89.8237 53.9003 89.7154 53.467H84.6235V48.0501H87.007C86.5736 47.2918 85.8152 46.8584 85.0569 46.8584H56.6725C56.0225 46.8584 55.4808 47.4001 55.4808 48.0501H63.3894V53.467H55.1558L55.0475 56.1754H55.5892C56.0225 56.1754 56.3475 56.5004 56.3475 56.9338C56.3475 57.3671 56.0225 57.6921 55.5892 57.6921H54.9391V58.4505C54.8308 59.6422 55.8058 60.7256 57.1059 60.7256H87.982C89.1737 60.7256 90.0404 59.7506 90.0404 58.6672V57.6921C89.4987 57.5838 89.1737 57.2588 89.1737 56.8255ZM67.6146 53.3586H64.2561V47.9418H67.6146V53.3586ZM68.1563 58.2338V53.467V53.3586V47.9418H71.7314V58.7755H68.698C68.3729 58.7755 68.1563 58.5588 68.1563 58.2338ZM75.9566 53.3586V53.6837V58.3422C75.9566 58.6672 75.7399 58.8839 75.4149 58.8839H72.4898V48.0501H76.0649V53.3586H75.9566ZM79.7484 53.3586H76.8233V47.9418H79.7484V53.3586ZM83.8652 53.3586H80.5067V47.9418H83.8652V53.3586Z" fill="#34A853"/>
<path d="M56.3451 56.825C56.3451 56.3917 56.0201 56.0667 55.5868 56.0667H55.0451L54.9368 57.6917H55.5868C55.9118 57.5834 56.3451 57.2584 56.3451 56.825Z" fill="#E6EBEF"/>
<path d="M89.9305 54.6584C89.4971 54.6584 89.1721 54.9835 89.1721 55.4168V56.7169C89.1721 57.1502 89.4971 57.4752 89.9305 57.4752V54.6584C89.9305 54.7668 89.9305 54.7668 89.9305 54.6584Z" fill="white"/>
<path d="M61.6564 63.0001C63.1523 63.0001 64.3649 61.7875 64.3649 60.2917C64.3649 58.7959 63.1523 57.5833 61.6564 57.5833C60.1606 57.5833 58.948 58.7959 58.948 60.2917C58.948 61.7875 60.1606 63.0001 61.6564 63.0001Z" fill="#BEC3C8"/>
<path d="M82.8876 63.0001C84.3835 63.0001 85.5961 61.7875 85.5961 60.2917C85.5961 58.7959 84.3835 57.5833 82.8876 57.5833C81.3918 57.5833 80.1792 58.7959 80.1792 60.2917C80.1792 61.7875 81.3918 63.0001 82.8876 63.0001Z" fill="#BEC3C8"/>
<path d="M78.0546 25.618C83.3199 25.618 87.5882 21.3497 87.5882 16.0844C87.5882 10.8191 83.3199 6.55078 78.0546 6.55078C72.7893 6.55078 68.521 10.8191 68.521 16.0844C68.521 21.3497 72.7893 25.618 78.0546 25.618Z" fill="white"/>
<path fill-rule="evenodd" clip-rule="evenodd" d="M78.0538 7.24732C73.1734 7.24732 69.217 11.2037 69.217 16.084C69.217 20.9644 73.1734 24.9208 78.0538 24.9208C82.9341 24.9208 86.8905 20.9644 86.8905 16.084C86.8905 11.2037 82.9341 7.24732 78.0538 7.24732ZM67.8232 16.084C67.8232 10.4339 72.4036 5.85352 78.0538 5.85352C83.7039 5.85352 88.2843 10.4339 88.2843 16.084C88.2843 21.7342 83.7039 26.3146 78.0538 26.3146C72.4036 26.3146 67.8232 21.7342 67.8232 16.084Z" fill="#FBBC04"/>
<path d="M78.0542 7.27539C73.2038 7.27539 69.2454 11.2059 69.2454 16.0842C69.2454 18.3701 70.1095 20.4608 71.5591 22.0218C70.2489 20.5723 69.4684 18.6488 69.4684 16.5581C69.4684 12.0422 73.1201 8.39043 77.6361 8.39043C82.152 8.39043 85.8037 12.0422 85.8037 16.5581C85.8037 21.0741 82.152 24.7258 77.6361 24.7258C76.1029 24.7258 74.6533 24.3077 73.3989 23.555C74.7369 24.3913 76.3259 24.8652 78.0263 24.8652C82.8767 24.8652 86.8351 20.9347 86.8351 16.0564C86.8351 11.178 82.9046 7.27539 78.0542 7.27539Z" fill="url(#paint0_linear)"/>
<path d="M80.5903 0H75.8235C75.1266 0 74.5691 0.557522 74.5691 1.25442C74.5691 1.95133 75.1266 2.50885 75.8235 2.50885H76.4368V4.76681H79.977V2.50885H80.5903C81.2872 2.50885 81.8447 1.95133 81.8447 1.25442C81.8169 0.557522 81.2593 0 80.5903 0Z" fill="#FBBC04"/>
<path d="M78.054 8.36279V9.14332" stroke="#34A853" stroke-width="1.5892" stroke-miterlimit="10" stroke-linecap="round" stroke-linejoin="round"/>
<path d="M78.054 23.0261V23.8067" stroke="#34A853" stroke-width="1.5892" stroke-miterlimit="10" stroke-linecap="round" stroke-linejoin="round"/>
<path d="M85.6372 16.1401H84.8567" stroke="#34A853" stroke-width="1.5892" stroke-miterlimit="10" stroke-linecap="round" stroke-linejoin="round"/>
<path d="M71.2249 16.1401H70.4443" stroke="#34A853" stroke-width="1.5892" stroke-miterlimit="10" stroke-linecap="round" stroke-linejoin="round"/>
<path d="M78.6666 15.555L74.3737 12.5444C74.067 12.3213 73.6768 12.7116 73.9276 13.0182L77.3285 17.1439C77.5237 17.3669 77.8024 17.5342 78.1369 17.5342C78.7223 17.5342 79.1962 17.0603 79.1962 16.4749C79.1962 16.0846 78.9732 15.7501 78.6666 15.555Z" fill="#34A853"/>
<defs>
<linearGradient id="paint0_linear" x1="83.7724" y1="8.47766" x2="74.4399" y2="20.8766" gradientUnits="userSpaceOnUse">
<stop stop-opacity="0.15"/>
<stop offset="0.5972" stop-color="#161719" stop-opacity="0.0604243"/>
<stop offset="1" stop-color="#202124" stop-opacity="0"/>
</linearGradient>
</defs>
</svg>
