<svg width="128" height="92" viewBox="0 0 128 92" fill="none" xmlns="http://www.w3.org/2000/svg">
<path opacity="0.5" d="M78.9453 63.0459H67.1165C65.3679 67.4894 61.0889 70.6369 56.0283 70.6369H49.3424C48.8281 71.9741 48.5196 73.4141 48.5196 74.9364C48.5196 81.0874 53.1687 86.1275 59.1551 86.7652L65.9027 86.8269H72.2182L78.9041 91.867V86.8269H78.9453C85.5077 86.8269 90.8357 81.4988 90.8357 74.9364C90.8357 68.374 85.5282 63.0459 78.9453 63.0459Z" fill="#E8EAED"/>
<path opacity="0.5" d="M62.9817 65.0004C63.2286 64.7536 63.4754 64.5067 63.6812 64.2187C63.8252 64.0335 63.9487 63.8484 64.0721 63.6633C65.0801 62.2644 65.8206 60.6598 66.1498 58.8906L64.5864 58.87C56.2342 57.9854 49.3015 52.3899 46.4626 44.7783H35.7653C29.1617 44.7783 23.813 50.127 23.813 56.7305C23.813 62.6964 28.1948 67.5925 33.9138 68.4976V73.2086L39.9413 68.6828L41.2991 68.7033H47.738H54.4238C55.1027 68.7033 55.7816 68.6416 56.4399 68.5182C56.6662 68.4771 56.8719 68.4153 57.0982 68.3536C57.5096 68.2508 57.921 68.1479 58.3325 68.0245C58.5999 67.9422 58.8468 67.8188 59.0937 67.7159C59.4228 67.5719 59.7519 67.4279 60.0811 67.2427C60.3485 67.0987 60.5954 66.9547 60.8423 66.7902C61.1097 66.605 61.3771 66.4199 61.6446 66.2347C61.8914 66.029 62.1589 65.8439 62.3852 65.6176C62.5703 65.4119 62.776 65.2061 62.9817 65.0004Z" fill="#E8EAED"/>
<path d="M104.887 12.0073H75.2631C76.6826 14.9697 77.4849 18.2817 77.4849 21.7995C77.4849 34.4512 67.2196 44.6959 54.5885 44.6959H48.5198C52.2021 52.4515 60.0606 57.8208 69.1945 57.8208H94.3331L107.335 71.1513V57.6973C118.834 56.4836 127.804 46.7531 127.804 34.9243C127.804 22.2727 117.538 12.0073 104.887 12.0073Z" fill="#34A853"/>
<path d="M72.4859 12.5216C69.1327 5.46543 61.9531 0.569336 53.6215 0.569336H21.0769C9.53614 0.569336 0.196533 9.92951 0.196533 21.4497C0.196533 32.2294 8.36348 41.0958 18.8551 42.2067V54.4881L30.7045 42.3301H48.0877H53.6215C65.1623 42.3301 74.5019 32.9699 74.5019 21.4497C74.5019 18.2405 73.7613 15.237 72.4859 12.5216Z" fill="#4285F4"/>
<path d="M39.9206 24.021H11.1612C10.7292 24.021 10.3795 24.3707 10.3795 24.8027C10.3795 25.2347 10.7292 25.5845 11.1612 25.5845H39.9206C40.3526 25.5845 40.7024 25.2347 40.7024 24.8027C40.7024 24.3707 40.3526 24.021 39.9206 24.021Z" fill="white"/>
<path d="M63.5374 16.7798H11.1616C10.7296 16.7798 10.3799 17.1295 10.3799 17.5615C10.3799 17.9935 10.7296 18.3432 11.1616 18.3432H63.5374C63.9694 18.3432 64.3191 17.9935 64.3191 17.5615C64.3191 17.1295 63.9694 16.7798 63.5374 16.7798Z" fill="white"/>
<path d="M89.0667 40.7048V39.4293C89.0667 38.8121 89.1284 38.2361 89.2518 37.7013C89.3753 37.1664 89.581 36.6521 89.8484 36.1584C90.1158 35.6647 90.4861 35.1709 90.9387 34.6772C91.3913 34.1835 91.9467 33.6486 92.6256 33.0726C93.325 32.4555 93.8599 31.8794 94.2508 31.3651C94.6416 30.8509 94.8268 30.2131 94.8268 29.452C94.8268 28.6702 94.5388 27.9914 93.9422 27.3948C93.3662 26.7982 92.5638 26.5102 91.5558 26.5102C91.021 26.5102 90.5273 26.5925 90.0747 26.7776C89.6427 26.9628 89.2518 27.2096 88.9021 27.5182C88.5729 27.8268 88.2849 28.1765 88.0586 28.5674C87.8323 28.9582 87.6678 29.3491 87.5649 29.7811L83.1009 27.9091C83.3066 27.1891 83.6357 26.4485 84.0883 25.7285C84.5409 25.0085 85.1168 24.3502 85.7957 23.7741C86.4746 23.1981 87.2975 22.725 88.2233 22.3547C89.149 21.9844 90.1981 21.8198 91.3707 21.8198C92.6256 21.8198 93.7571 22.005 94.7856 22.3753C95.8142 22.7456 96.7194 23.2599 97.4394 23.9387C98.18 24.597 98.756 25.3787 99.1674 26.2839C99.5788 27.1891 99.7846 28.1559 99.7846 29.2051C99.7846 29.9663 99.7023 30.6246 99.5172 31.2211C99.332 31.8177 99.0851 32.3732 98.7766 32.8875C98.468 33.4018 98.0977 33.8955 97.6863 34.3481C97.2749 34.8006 96.8223 35.2532 96.3697 35.6852C95.9377 36.0967 95.5673 36.467 95.2588 36.8167C94.9502 37.1664 94.7239 37.475 94.5593 37.8041C94.3948 38.1333 94.2714 38.4624 94.1891 38.8327C94.1068 39.203 94.0656 39.6144 94.0656 40.067V40.6842H89.0667V40.7048ZM91.5558 50.2706C90.6301 50.2706 89.8278 49.9415 89.1901 49.2832C88.5318 48.6249 88.2233 47.8226 88.2233 46.8969C88.2233 45.9711 88.5523 45.1688 89.1901 44.5311C89.8278 43.8934 90.6301 43.5642 91.5558 43.5642C92.4816 43.5642 93.2839 43.8934 93.9422 44.5311C94.6005 45.1688 94.9297 45.9711 94.9297 46.8969C94.9297 47.8226 94.6005 48.6249 93.9422 49.2832C93.2839 49.9415 92.5021 50.2706 91.5558 50.2706Z" fill="white"/>
</svg>
