<svg xmlns="http://www.w3.org/2000/svg" width="152" height="114" viewBox="0 0 152 114"><path fill="#DADCE0" d="M0,114h152V0H0V114z M53.17,107.81c-0.87,0.89-2.29,0.9-3.17,0.02c-0.88-0.88-0.87-2.31,0.02-3.18	l20.33-19.56c1.32-1.46,1.47-2.15,1.54-4.12c0.2-6.39,2.33-7.16,14.04-14.94c0.14-0.09,0.32-0.12,0.47-0.07	c0.39,0.13,0.51,0.62,0.22,0.91l-9.67,9.67c-0.46,0.46-0.4,1.23,0.18,1.6c0.41,0.27,0.96,0.18,1.31-0.17l10.37-9.92	c0.28-0.26,0.71-0.27,0.99,0c0.29,0.27,0.3,0.73,0.02,1.01l-9.95,10.39c-0.46,0.46-0.4,1.23,0.18,1.6c0.41,0.27,0.96,0.18,1.31-0.17	l9.71-9.71c0.26-0.26,0.71-0.19,0.88,0.14l0.04,0.08c0.09,0.18,0.07,0.39-0.04,0.56c-7.92,11.57-8.77,13.67-14.99,13.97	c-1.92,0.09-2.59,0.26-4.04,1.56L53.17,107.81z M114.38,100.66l-1.65,1.65v0.01l-6.42,6.42c-1.1,1.1-2.55,1.65-3.99,1.65	s-2.89-0.55-3.99-1.65c-0.37-0.37-0.69-0.8-0.98-1.28l-0.82,0.82c-1.1,1.1-2.55,1.65-3.99,1.65s-2.89-0.55-3.99-1.65	c-0.53-0.53-0.98-1.18-1.32-1.93l-1.06,1.06c-1.1,1.1-2.55,1.65-3.99,1.65s-2.89-0.55-3.99-1.65c-2.21-2.21-3.21-6.68,0.87-10.76	L80.67,95v-0.01l0.65-0.65l0.65-0.65l0.01-0.01l1.65-1.65c4.25-4.25,8.39-2.9,10.59-0.7c0.24,0.24,0.45,0.51,0.64,0.78	c3.94-3.28,7.67-1.97,9.73,0.09l0.21,0.25c3.89-3.12,7.55-1.83,9.58,0.2C116.58,94.88,116.58,98.46,114.38,100.66z M119.16,4.29	l9.23,6.39l-1.13,1.14l0.06,0.04l1.18-1.18l4.34,2.97l0.3,0.23c4.79,4.79,4.95,12.45,0.48,17.42l0.03,0.02l6.75,6.75l5.19-5.19	c0.22-0.23,0.59-0.23,0.82,0c0.23,0.23,0.23,0.59,0,0.82L135.2,44.91c-0.23,0.22-0.59,0.22-0.82,0c-0.23-0.22-0.23-0.58-0.01-0.81	c0,0,0.01-0.01,0.01-0.01l5.19-5.19l-6.75-6.75l-0.01-0.02c-4.96,4.62-12.73,4.51-17.58-0.33l-0.26-0.27l-2.95-4.33l-0.06,0.06	l-6.33-9.42C105.63,17.84,119.16,4.29,119.16,4.29z M63.56,4.5l6.36,6.36l0.7-0.7l12.01,12.01c5.65-3.26,12.98-2.5,17.81,2.33	c0.2,0.2,0.4,0.43,0.59,0.65l5.96,5.96l0.02-0.02l19.49,19.49l-0.02,0.02l19.1,19.1l-20.86,20.86L79.65,45.49l-0.11-0.1l-0.09-0.1	l-0.18-0.18l0.01-0.01c-4.45-4.69-5.23-11.59-2.33-17.06l-12.1-12.1l0.58-0.58L59.07,9C59.07,9,63.56,4.5,63.56,4.5z M30.54,3.32	l14.67,14.67l-9.29,9.29l0.21,0.18c1.14,1.14,1.69,2.74,1.48,4.33c-0.05,0.37-0.38,0.62-0.75,0.58c-0.37-0.05-0.62-0.38-0.58-0.75	c0.15-1.19-0.25-2.37-1.1-3.22l-0.22-0.17l-5.41,5.41c1.17,1.33,3.08,1.74,4.68,0.91c1.01-0.53,2.26-0.33,3.09,0.51l26.23,26.23	L76.11,59l-16.2,16.2l2.7-12.96L36.38,36c-0.41-0.41-1.04-0.52-1.53-0.27c-2.12,1.1-4.67,0.59-6.24-1.14l-8.75,8.75l-8.68-8.68	l-5.99-5.99L30.54,3.32z M126.43,12.67l-11.46,11.55l11.52-11.52C126.49,12.7,126.43,12.67,126.43,12.67z"/><path fill="#FFF" d="M91.94,71.99c0.11-0.17,0.13-0.38,0.04-0.56l-0.04-0.08c-0.14-0.27-0.47-0.38-0.74-0.24	c-0.05,0.03-0.1,0.06-0.14,0.1l-9.71,9.71c-0.35,0.35-0.9,0.43-1.31,0.17c-0.57-0.37-0.63-1.15-0.18-1.6l9.95-10.39	c0.27-0.29,0.26-0.74-0.02-1.01c-0.28-0.26-0.71-0.26-0.99,0l-10.37,9.92c-0.35,0.35-0.9,0.43-1.31,0.17	c-0.57-0.37-0.63-1.15-0.18-1.6l9.67-9.67c0.21-0.22,0.21-0.56,0-0.78c-0.06-0.06-0.14-0.11-0.22-0.13	c-0.16-0.05-0.33-0.03-0.47,0.07c-11.71,7.77-13.84,8.55-14.04,14.94c-0.06,1.98-0.22,2.67-1.54,4.12l-20.33,19.56	c-0.89,0.87-0.91,2.3-0.02,3.18c0.88,0.88,2.3,0.87,3.17-0.02L72.9,87.52c1.45-1.31,2.13-1.47,4.04-1.56	C83.16,85.66,84.02,83.56,91.94,71.99z"/><path fill="#BABFC5" d="M80.68,95h-0.01l0.66-0.65L80.68,95z M92.56,93.01c0.23,0.23,0.42,0.48,0.6,0.74L94,92.91	c0.29-0.29,0.57-0.55,0.86-0.78c-0.19-0.28-0.4-0.54-0.64-0.78c-2.21-2.21-6.34-3.56-10.59,0.7l-1.65,1.65	c2.02-2.02,4.01-2.77,5.78-2.77C89.72,90.93,91.41,91.85,92.56,93.01z"/><path fill="#FFF" d="M87.76,92.26c-1.63,0-3.26,0.8-4.84,2.38l-2.95,2.95c-1.59,1.59-2.42,3.36-2.4,5.13	c0.01,1.42,0.57,2.79,1.53,3.75c0.82,0.81,1.9,1.26,3.05,1.26s2.24-0.45,3.05-1.26l1.54-1.54c-0.45-2.2,0.12-4.88,2.65-7.41	l1.65-1.65v-0.01l0.65-0.65l0.52-0.52c-0.17-0.27-0.36-0.52-0.59-0.75C90.55,92.88,89.14,92.26,87.76,92.26L87.76,92.26z M86.21,98.67c-0.31,0.31-0.82,0.31-1.13,0s-0.31-0.82,0-1.13s0.82-0.31,1.13,0S86.52,98.36,86.21,98.67z M88.04,95.36	c-0.38,0.38-0.99,0.38-1.36,0c-0.38-0.37-0.38-0.97-0.01-1.35c0,0,0.01-0.01,0.01-0.01c0.38-0.38,0.99-0.38,1.36,0	S88.41,94.99,88.04,95.36z"/><path fill="#CDD0D5" d="M86.74,104.93l-1.54,1.54c-0.81,0.81-1.9,1.26-3.05,1.26s-2.23-0.45-3.05-1.26	c-0.96-0.96-1.52-2.33-1.53-3.75c-0.02-1.77,0.81-3.54,2.4-5.13l2.95-2.95c1.58-1.58,3.21-2.38,4.84-2.38	c1.38,0,2.79,0.62,3.86,1.69c0.23,0.23,0.42,0.48,0.59,0.75l0.13-0.13l0.01-0.01l0.82-0.82c-0.18-0.26-0.38-0.51-0.6-0.74	c-1.16-1.16-2.85-2.08-4.81-2.08c-1.77,0-3.76,0.75-5.78,2.77l-0.01,0.01l-0.65,0.65L80.67,95l-1.65,1.65	c-4.08,4.08-3.07,8.56-0.87,10.76c1.1,1.1,2.55,1.65,3.99,1.65s2.89-0.55,3.99-1.65l1.06-1.06C87,105.91,86.84,105.44,86.74,104.93	L86.74,104.93z"/><path fill="#BABFC5" d="M93.17,93.74l-0.82,0.82c2.02-2.02,4.01-2.77,5.78-2.77c1.96,0,3.65,0.92,4.81,2.08l0.16,0.19l0.7-0.7	c0.34-0.34,0.67-0.63,1.01-0.9l-0.21-0.25c-2.06-2.06-5.79-3.37-9.73-0.09c-0.29,0.24-0.57,0.5-0.86,0.78	C94.01,92.9,93.17,93.74,93.17,93.74z M91.04,95.87l0.65-0.65l-0.64,0.64L91.04,95.87z"/><path fill="#FFF" d="M98.13,93.13c-1.63,0-3.26,0.8-4.84,2.38l-2.95,2.95c-3.85,3.85-2.25,7.49-0.87,8.88	c0.82,0.81,1.9,1.26,3.05,1.26s2.24-0.45,3.05-1.26l1.18-1.18c-0.78-2.32-0.4-5.35,2.44-8.19l1.65-1.65l0.01-0.01l1.31-1.31	L102,94.81C100.91,93.75,99.51,93.13,98.13,93.13L98.13,93.13z M93.21,96.87c0.31-0.31,0.82-0.31,1.13,0s0.31,0.82,0,1.13	s-0.82,0.31-1.13,0c-0.31-0.3-0.32-0.8-0.02-1.11C93.2,96.88,93.2,96.88,93.21,96.87z M97,99.29c-0.31,0.31-0.82,0.31-1.13,0	s-0.31-0.82,0-1.13s0.82-0.31,1.13,0S97.31,98.98,97,99.29z M98.1,96.23c-0.31,0.31-0.82,0.31-1.13,0s-0.31-0.82,0-1.13	s0.82-0.31,1.13,0S98.41,95.92,98.1,96.23z"/><path fill="#CDD0D5" d="M96.74,106.17l-1.18,1.18c-0.81,0.81-1.9,1.26-3.05,1.26s-2.23-0.45-3.05-1.26	c-1.38-1.38-2.99-5.02,0.87-8.88l2.95-2.95c1.58-1.58,3.21-2.38,4.84-2.38c1.38,0,2.79,0.62,3.86,1.69l0.16,0.19l0.94-0.94	l-0.16-0.19c-1.16-1.16-2.85-2.08-4.81-2.08c-1.77,0-3.76,0.75-5.78,2.77l-0.01,0.01l-0.13,0.13l-0.52,0.52l-0.65,0.65l-1.65,1.65	c-2.53,2.53-3.1,5.21-2.65,7.41c0.1,0.5,0.26,0.98,0.46,1.42c0.34,0.75,0.79,1.41,1.32,1.93c1.1,1.1,2.55,1.65,3.99,1.65	s2.89-0.55,3.99-1.65l0.82-0.82C97.1,107.06,96.89,106.63,96.74,106.17z"/><ellipse transform="matrix(0.7071 -0.7071 0.7071 0.7071 -41.3677 89.4921)" fill="#BABFC5" cx="87.34" cy="94.68" rx=".96" ry=".96"/><ellipse transform="matrix(0.7071 -0.7071 0.7071 0.7071 -41.3994 94.8131)" fill="#BABFC5" cx="93.75" cy="97.38" rx=".8" ry=".8"/><ellipse transform="matrix(0.7071 -0.7071 0.7071 0.7071 -41.6143 97.1166)" fill="#BABFC5" cx="96.42" cy="98.79" rx=".8" ry=".8"/><ellipse transform="matrix(0.7071 -0.7071 0.7071 0.7071 -44.289 89.2767)" fill="#BABFC5" cx="85.62" cy="98.1" rx=".8" ry=".8"/><ellipse transform="matrix(0.7071 -0.7071 0.7071 0.7071 -39.0859 96.9789)" fill="#BABFC5" cx="97.52" cy="95.67" rx=".8" ry=".8"/><path fill="#BABFC5" d="M104.8,92.47c-0.34,0.27-0.67,0.56-1.01,0.9l-0.7,0.7l-0.94,0.94l-1.31,1.31l-0.01,0.01l1.3-1.3	c2.02-2.02,4.01-2.78,5.79-2.78c1.96,0,3.65,0.92,4.81,2.08c2.2,2.21,2.2,5.77,0,7.98l1.65-1.65c2.21-2.2,2.21-5.77,0.01-7.98	c0,0-0.01-0.01-0.01-0.01C112.35,90.64,108.68,89.35,104.8,92.47z"/><path fill="#FFF" d="M102.3,109.06c1.15,0,2.24-0.45,3.05-1.26l6.42-6.42c1.68-1.69,1.68-4.41,0-6.1	c-1.07-1.07-2.48-1.69-3.86-1.69c-1.63,0-3.26,0.8-4.84,2.38l-2.95,2.95c-3.85,3.85-2.25,7.49-0.87,8.88	C100.07,108.61,101.15,109.06,102.3,109.06z M108.38,96.59c0.38-0.38,1.01-0.38,1.39,0s0.38,1.01,0,1.39s-1.01,0.38-1.39,0	C108,97.59,108,96.98,108.38,96.59z M105.56,98.02c0.31-0.31,0.82-0.31,1.13,0s0.31,0.82,0,1.13s-0.82,0.31-1.13,0	S105.25,98.33,105.56,98.02z"/><path fill="#CDD0D5" d="M112.72,94.33c-1.16-1.16-2.85-2.08-4.81-2.08c-1.77,0-3.77,0.76-5.79,2.78l-1.3,1.3l-1.65,1.65	c-2.84,2.84-3.21,5.87-2.44,8.19c0.15,0.46,0.36,0.9,0.59,1.3c0.28,0.48,0.61,0.91,0.98,1.28c1.1,1.1,2.55,1.65,3.99,1.65	s2.89-0.55,3.99-1.65l6.42-6.42v-0.01c2.21-2.19,2.23-5.76,0.04-7.97C112.73,94.34,112.73,94.34,112.72,94.33L112.72,94.33z M100.12,98.92l2.95-2.95c1.58-1.58,3.21-2.38,4.84-2.38c1.38,0,2.79,0.62,3.86,1.69c1.68,1.69,1.68,4.41,0,6.1l-6.42,6.42	c-0.81,0.81-1.9,1.26-3.05,1.26s-2.24-0.45-3.05-1.26C97.87,106.41,96.27,102.78,100.12,98.92z"/><ellipse transform="matrix(0.7071 -0.7071 0.7071 0.7071 -36.8909 105.6215)" fill="#BABFC5" cx="109.05" cy="97.34" rx=".98" ry=".98"/><ellipse transform="matrix(0.7071 -0.7071 0.7071 0.7071 -38.6385 103.8871)" fill="#BABFC5" cx="106.08" cy="98.58" rx=".8" ry=".8"/><path fill="#FFF" d="M112.02,27.19l-0.01-0.01l2.96-2.96l11.47-11.55l-7.17-4.69c-0.26-0.19-0.32-0.55-0.13-0.81	c0.17-0.24,0.5-0.31,0.76-0.16l7.37,4.82l1.13-1.14l-9.23-6.39l-13.53,13.53l6.33,9.42C111.97,27.25,112.02,27.19,112.02,27.19z M120.66,14.03c0.18-0.18,0.42-0.28,0.66-0.28c0.24,0,0.48,0.09,0.67,0.28c0.37,0.36,0.37,0.96,0,1.32	c-0.18,0.18-0.41,0.28-0.66,0.28c-0.25,0-0.49-0.1-0.67-0.28c-0.36-0.36-0.37-0.94-0.01-1.31	C120.65,14.04,120.66,14.03,120.66,14.03z M140.59,39.09c-0.23,0.22-0.59,0.22-0.82,0l-0.19-0.19l-5.19,5.19	c-0.23,0.23-0.23,0.59,0,0.82c0.23,0.22,0.59,0.22,0.82,0l11.21-11.21c0.23-0.23,0.23-0.59,0-0.82c-0.22-0.23-0.58-0.23-0.81-0.01	c0,0-0.01,0.01-0.01,0.01l-5.19,5.19l0.19,0.19C140.82,38.5,140.82,38.87,140.59,39.09z M132.81,32.13l0.01,0.02l6.75,6.75	l0.19,0.19c0.23,0.22,0.59,0.22,0.82,0c0.23-0.23,0.23-0.59,0-0.82l-0.19-0.19l-6.75-6.75l-0.03-0.02l-0.46,0.51L132.81,32.13z"/><path fill="#959CA5" d="M129.16,13.76c-0.11,0.17-0.3,0.26-0.49,0.26c-0.11,0-0.22-0.03-0.32-0.09l-1.87-1.22l-11.52,11.52	L112,27.19l0.01,0.01l2.95,4.33l0.26,0.27c4.85,4.85,12.62,4.95,17.58,0.33l0.34-0.31c0.16-0.16,0.31-0.34,0.46-0.51	c4.46-4.97,4.31-12.63-0.48-17.42l-0.3-0.23l-4.34-2.97l-1.18,1.18l1.67,1.09C129.26,13.13,129.33,13.49,129.16,13.76z M121.18,24.45c-0.54,0.52-1.4,0.5-1.92-0.04c-0.5-0.52-0.5-1.35,0-1.88c0.53-0.53,1.4-0.53,1.93,0	C121.71,23.06,121.71,23.92,121.18,24.45z"/><ellipse transform="matrix(0.7071 -0.7071 0.7071 0.7071 18.5904 91.8786)" fill="#FFF" cx="120.2" cy="23.5" rx="1.36" ry="1.36"/><path fill="#959CA5" d="M121.33,15.64c0.52,0,0.94-0.42,0.94-0.94c0-0.25-0.1-0.49-0.28-0.66c-0.18-0.18-0.43-0.28-0.67-0.28	s-0.48,0.09-0.66,0.28c-0.37,0.37-0.37,0.96,0,1.33C120.85,15.54,121.09,15.64,121.33,15.64z"/><path fill="#FFF" d="M119.1,7.17c-0.18,0.27-0.1,0.63,0.17,0.8l7.17,4.69l0.05,0.03l1.87,1.22c0.1,0.06,0.21,0.09,0.32,0.09	c0.19,0,0.38-0.09,0.49-0.26c0.18-0.26,0.11-0.62-0.16-0.79c0,0-0.01-0.01-0.01-0.01l-1.67-1.09l-0.06-0.04l-7.37-4.82	C119.63,6.83,119.28,6.91,119.1,7.17L119.1,7.17z M59.07,8.99l4.49-4.49l6.36,6.36l-4.49,4.49L59.07,8.99z"/><path fill="#BABFC5" d="M79.54,45.4l0.11,0.1l-0.2-0.2C79.45,45.3,79.54,45.4,79.54,45.4z M126.48,50.61l-10.82,10.82L104.4,50.16	l-8.23-8.23l3.11-3.11l7.71-7.71l-5.96-5.96c-0.2-0.22-0.39-0.45-0.59-0.65c-4.83-4.83-12.16-5.59-17.81-2.33L70.62,10.16l-0.7,0.7	l-4.49,4.49l-0.58,0.58l12.1,12.1c-2.91,5.47-2.12,12.37,2.33,17.06l-0.01,0.01l0.18,0.18l0.2,0.2l45.07,45.07l20.86-20.86	C145.58,69.69,126.48,50.61,126.48,50.61z"/><path fill="#FFF" d="M99.28,38.82l-3.11,3.11l8.23,8.23l11.26,11.26l10.82-10.82l0.02-0.02l-19.49-19.49l-0.02,0.02L99.28,38.82z M110.99,35.07l-7.75,7.74c-0.13,0.13-0.3,0.2-0.47,0.2s-0.34-0.06-0.47-0.2c-0.26-0.26-0.26-0.68,0-0.94c0,0,0,0,0,0l7.75-7.74	C110.05,34.13,110.99,35.07,110.99,35.07z"/><path fill="#959CA5" d="M102.3,41.87c-0.26,0.26-0.26,0.68,0,0.94c0.13,0.13,0.3,0.2,0.47,0.2s0.34-0.06,0.47-0.2l7.75-7.74	l-0.94-0.94C110.05,34.13,102.3,41.87,102.3,41.87z"/><linearGradient id="a" gradientUnits="userSpaceOnUse" x1="-3110.057" y1="-1529.292" x2="-3109.057" y2="-1529.292" gradientTransform="matrix(-8.1671 -8.1671 -8.1671 8.1671 -37865.8711 -12862.6738)"><stop offset="0" style="stop-color:#ADB1B8"/><stop offset="1" style="stop-color:#DADCE0"/></linearGradient><path fill="url(#a)" d="M11.18,34.66l8.68,8.69L11.18,34.66z"/><path fill="#FFF" d="M29.21,29.07l-0.02,0.03l1.2-1.2C29.93,28.2,29.52,28.59,29.21,29.07z M30.48,8.3L10.16,28.62l9.76,9.76	l7.36-7.36c0.02-0.94,0.29-1.88,0.81-2.68c0.86-1.32,2.26-2.19,3.83-2.36l0.41-0.02l7.91-7.91C40.24,18.05,30.48,8.3,30.48,8.3z M28.63,31.55c0.06,0.58,0.25,1.15,0.58,1.66c0.1,0.16,0.23,0.3,0.35,0.44l5.41-5.41c-0.59-0.52-1.32-0.84-2.1-0.93	C32.87,27.31,28.63,31.55,28.63,31.55z M19.86,43.35l8.75-8.75c-0.19-0.2-0.37-0.42-0.52-0.66c-0.26-0.39-0.45-0.82-0.59-1.26	l-7.59,7.59L8.27,28.62L30.48,6.41l11.64,11.65l-8.14,8.14c0.71,0.22,1.37,0.59,1.93,1.1l9.29-9.29L30.54,3.32L5.19,28.67l5.99,5.99	C11.18,34.66,19.86,43.35,19.86,43.35z"/><path fill="#BABFC5" d="M32.06,27.31c-0.6,0.06-1.17,0.27-1.67,0.6l-1.2,1.2c-0.47,0.73-0.65,1.6-0.56,2.45l4.23-4.24	C32.59,27.29,32.33,27.28,32.06,27.31z M27.28,31.01l-7.36,7.36l-9.76-9.76L30.48,8.3l9.76,9.76l-7.91,7.91	c0.57-0.01,1.13,0.06,1.66,0.23l8.14-8.14L30.48,6.41L8.27,28.62l11.64,11.65l7.59-7.59C27.34,32.14,27.26,31.57,27.28,31.01z"/><path fill="#959CA5" d="M32.33,25.96l-0.41,0.02c-1.57,0.16-2.98,1.03-3.83,2.36c-0.53,0.8-0.79,1.74-0.81,2.68	c-0.01,0.56,0.06,1.12,0.23,1.66c0.14,0.44,0.33,0.87,0.59,1.26c0.16,0.24,0.34,0.45,0.52,0.66c1.57,1.74,4.12,2.25,6.24,1.14	c0.51-0.25,1.13-0.14,1.53,0.27l26.23,26.23l0.17-0.81l0.77-0.14L37.32,35.06c-0.83-0.83-2.08-1.04-3.09-0.51	c-1.59,0.83-3.51,0.43-4.68-0.91c-0.12-0.14-0.25-0.28-0.35-0.44c-0.33-0.5-0.52-1.07-0.58-1.66c-0.09-0.85,0.09-1.72,0.56-2.45	l0.02-0.03c0.31-0.48,0.72-0.87,1.18-1.16c0.5-0.32,1.07-0.53,1.67-0.6c0.27-0.03,0.54-0.02,0.8,0.01c0.78,0.08,1.5,0.41,2.1,0.93	l0.22,0.17c0.85,0.85,1.25,2.02,1.1,3.22c-0.05,0.37,0.21,0.7,0.58,0.75c0.37,0.05,0.7-0.21,0.75-0.58c0.21-1.6-0.33-3.2-1.48-4.33	l-0.21-0.18c-0.56-0.51-1.22-0.88-1.93-1.1C33.45,26.03,32.9,25.95,32.33,25.96z M62.61,62.24l-2.69,12.95l16.2-16.2l-12.57,2.3	l-0.77,0.14C62.78,61.43,62.61,62.24,62.61,62.24z"/><path fill="#34A853" d="M31.31,63.72l6.84-6.84l20.14,20.14l-6.84,6.84L31.31,63.72z"/><ellipse transform="matrix(0.7071 -0.7071 0.7071 0.7071 -40.8114 62.356)" fill="#34A853" cx="54.86" cy="80.44" rx="4.84" ry="4.62"/><linearGradient id="b" gradientUnits="userSpaceOnUse" x1="1581.982" y1="-4571.443" x2="1591.36" y2="-4571.443" gradientTransform="matrix(-0.7299 0.7299 0.6969 0.6969 4390.3774 2099.7302)"><stop offset="0" style="stop-color:#FFFFFF"/><stop offset=".995" style="stop-color:#E1E2E3"/><stop offset="1" style="stop-color:#E1E2E3"/></linearGradient><path fill="url(#b)" d="M58.13,83.7c1.89-1.89,1.96-4.88,0.15-6.69L58.27,77L38.15,56.88l-6.84,6.84l20.13,20.14 C53.25,85.66,56.24,85.59,58.13,83.7L58.13,83.7z"/><path fill="#FFF" d="M6.47,88.56l24.84-24.84l20.1,20.1l-24.84,24.84L6.47,88.56z"/><path fill="#979DA5" d="M11.62,76.93l19.85-19.85l3.24,3.24L14.86,80.16L11.62,76.93z"/><ellipse transform="matrix(0.7071 -0.7071 0.7071 0.7071 -32.4845 42.2367)" fill="#979DA5" cx="34.74" cy="60.33" rx="4.84" ry="4.62"/><linearGradient id="c" gradientUnits="userSpaceOnUse" x1="1597.946" y1="-4598.935" x2="1597.946" y2="-4584.852" gradientTransform="matrix(-0.7299 0.7299 0.6969 0.6969 4390.3774 2099.7302)"><stop offset="0" style="stop-color:#BABFC5"/><stop offset=".995" style="stop-color:#AAAFB5"/><stop offset="1" style="stop-color:#AAAFB5"/></linearGradient><path fill="url(#c)" d="M31.3,63.72c0.01,0.01,0.01,0.01,0.02,0.03c1.8,1.8,4.8,1.74,6.69-0.15s1.96-4.88,0.15-6.69 c-1.8-1.8-4.8-1.74-6.69,0.15l-0.02,0.02L11.61,76.93l3.24,3.24L31.3,63.72z"/><linearGradient id="d" gradientUnits="userSpaceOnUse" x1="269.487" y1="-96.647" x2="270.179" y2="-96.647" gradientTransform="matrix(13.5678 -13.5678 13.5678 13.5678 -2308.7722 5046.5459)"><stop offset="0" style="stop-color:#FFFFFF"/><stop offset=".995" style="stop-color:#B3B5B8"/><stop offset="1" style="stop-color:#B3B5B8"/></linearGradient><path fill="url(#d)" d="M31.3,63.72L15.49,79.7l20.1,20.09l15.82-15.97L31.3,63.72"/><path opacity=".35" fill="#AAADB2" d="M46.99,83.38L31.93,68.32c-0.21-0.21-0.56-0.21-0.77,0 L11.19,88.29c-0.21,0.21-0.21,0.56,0,0.77l15.06,15.06c0.11,0.1,0.25,0.16,0.39,0.16s0.28-0.06,0.39-0.16L47,84.15 C47.2,83.94,47.2,83.6,46.99,83.38z M31.55,69.49l11.09,11.09l-3.15,3.15l-11.1-11.09C28.39,72.64,31.55,69.49,31.55,69.49z M38.69,90.9l-2.41-2.41l3.21-3.21l2.41,2.41L38.69,90.9z M34.71,94.88l-2.41-2.41l3.21-3.21l2.41,2.41L34.71,94.88z M30.73,98.87 l-2.41-2.41l3.21-3.21l2.41,2.41L30.73,98.87z M19.65,81.38l11.09,11.09l-3.21,3.21L16.45,84.59L19.65,81.38z M23.64,77.4 l11.09,11.09l-3.21,3.21L20.44,80.61C20.44,80.61,23.64,77.4,23.64,77.4z M35.51,87.72L24.42,76.63l3.21-3.21l11.09,11.09 C38.72,84.51,35.51,87.72,35.51,87.72z M15.67,85.37l11.09,11.09l-3.31,3.31L12.36,88.68L15.67,85.37z M26.64,102.96l-2.41-2.41 l3.31-3.31l2.41,2.41L26.64,102.96z M42.68,86.92l-2.41-2.41l3.15-3.15l2.41,2.41L42.68,86.92z"/></svg>
