<svg width="232" height="132" fill="none" xmlns="http://www.w3.org/2000/svg"><g clip-path="url(#clip0)"><path d="M219.42 0H12.58C5.632 0 0 5.632 0 12.58v106.84C0 126.368 5.632 132 12.58 132h206.84c6.948 0 12.58-5.632 12.58-12.58V12.58C232 5.632 226.368 0 219.42 0z" fill="#FEF7E0"/><path d="M110.262 19.766c-27.58 0-49.938 22.358-49.938 49.938 0 27.58 22.358 49.938 49.938 49.938 27.58 0 49.938-22.358 49.938-49.938 0-27.58-22.358-49.938-49.938-49.938zm14.771 61.875l-.046.046c-.061.076-.122.137-.183.213l-.015.015c-.015.015-.015.015-.015.03-3.489 4.129-8.7 6.765-14.52 6.765-10.498 0-18.999-8.517-18.999-18.999 0-4.418 1.509-8.471 4.038-11.686l.031-.03c.122-.152.228-.305.35-.457.061-.076.152-.152.213-.244l.183-.213c3.489-3.916 8.563-6.384 14.2-6.384 10.498 0 18.999 8.517 18.999 18.999 0 4.525-1.584 8.685-4.236 11.945zM0 12.58v42.88c3.675 1.25 7.61 1.939 11.707 1.939 20.071 0 36.343-16.271 36.343-36.343 0-7.851-2.498-15.114-6.73-21.056H12.58C5.632 0 0 5.632 0 12.58zM232 12.58C232 5.632 226.368 0 219.42 0h-16.853c-14.67 12.143-24.018 30.489-24.018 51.02l41.004.01c0-5.857 2-11.23 5.352-15.491l.041-.04c.161-.202.303-.404.464-.606.081-.101.202-.202.283-.323l.242-.283c1.746-1.96 3.793-3.645 6.066-4.985V12.58H232zM219.42 132c2.437 0 4.705-.705 6.632-1.905-2.624-18.366-18.41-32.487-37.501-32.487-19.746 0-35.957 15.106-37.724 34.392h68.593z" fill="#FFF2D2"/></g><defs><clipPath id="clip0"><path fill="#fff" d="M0 0h232v132H0z"/></clipPath></defs></svg>