<?xml version="1.0" encoding="utf-8"?>
<!-- Generator: Adobe Illustrator 24.2.3, SVG Export Plug-In . SVG Version: 6.00 Build 0)  -->
<svg version="1.1" id="Layer_1" xmlns="http://www.w3.org/2000/svg" xmlns:xlink="http://www.w3.org/1999/xlink" x="0px" y="0px"
	 width="194px" height="145.7px" viewBox="0 0 194 145.7" enable-background="new 0 0 194 145.7" xml:space="preserve">
<linearGradient id="SVGID_1_" gradientUnits="userSpaceOnUse" x1="42.6947" y1="-0.019" x2="42.6947" y2="77.4604">
	<stop  offset="0.113" style="stop-color:#2D3032"/>
	<stop  offset="1" style="stop-color:#222326;stop-opacity:0"/>
</linearGradient>
<path fill="url(#SVGID_1_)" d="M51.5,0.8l-0.06,4.82l-3.19,3.7v15.93l-4.18,1.8V12.14c0,0-4.57-0.78-5.89-0.89
	c-0.71-0.06-1.42,0.17-1.97,0.62c-0.59,0.48-0.96,1.19-1,1.95l-2.17,32.76L21.5,78.75h42.4l-0.62-67.9l-2.56-1.72L60.65,0.8H51.5z"
	/>
<radialGradient id="SVGID_2_" cx="50.1165" cy="82.5143" r="72.3572" gradientTransform="matrix(1.1491 0 0 1.1327 42.2235 -36.7516)" gradientUnits="userSpaceOnUse">
	<stop  offset="0" style="stop-color:#FFFFFF"/>
	<stop  offset="0.9306" style="stop-color:#C8D7DC;stop-opacity:0"/>
</radialGradient>
<rect x="0.01" y="78.75" fill="url(#SVGID_2_)" width="193.92" height="66.82"/>
<polygon fill="#202124" points="94.76,118.04 61.41,108.11 91.27,108.11 124.62,118.04 "/>
<path d="M122.45,117.92c-3.44-1.48-5.39-3.15-4.94-4.55c0.81-2.52,9.08-3.23,18.48-1.59c9.4,1.64,16.36,5.01,15.56,7.53
	c-0.81,2.52-9.08,3.23-18.48,1.59c-2.11-0.37-4.08-0.83-5.88-1.34C125.06,119.19,122.45,117.92,122.45,117.92z"/>
<path fill="#8C9196" d="M134.07,88.61c-0.07,0-0.13-0.02-0.19-0.06c-0.16-0.11-0.2-0.32-0.1-0.48l1.44-2.17
	c0.11-0.16,0.32-0.2,0.49-0.1c0.16,0.11,0.2,0.32,0.1,0.49l-1.44,2.17C134.29,88.55,134.18,88.61,134.07,88.61"/>
<path fill="#8C9196" d="M111.16,108.05c-0.15,0-0.29-0.09-0.33-0.24c-0.06-0.18,0.04-0.38,0.23-0.44l1.55-0.49
	c0.18-0.06,0.38,0.04,0.44,0.23c0.06,0.18-0.04,0.38-0.23,0.44l-1.55,0.49C111.23,108.05,111.2,108.05,111.16,108.05"/>
<path fill="#8C9196" d="M141.33,100.44c-0.18,0-0.33-0.14-0.35-0.32c-0.02-0.19,0.13-0.36,0.32-0.38l2.08-0.18
	c0.19-0.02,0.36,0.13,0.38,0.32c0.02,0.19-0.13,0.36-0.32,0.38l-2.08,0.18C141.36,100.44,141.34,100.44,141.33,100.44"/>
<path fill="#8C9196" d="M119.85,88.61c-0.1,0-0.2-0.04-0.27-0.12l-1.22-1.44c-0.12-0.15-0.11-0.37,0.04-0.49
	c0.15-0.13,0.37-0.11,0.49,0.04l1.22,1.44c0.12,0.15,0.11,0.37-0.04,0.49C120.01,88.58,119.92,88.61,119.85,88.61"/>
<path fill="#FFFFFF" d="M126.94,86.59c8.68,0,15.71,7.03,15.71,15.71c0,8.68-7.03,15.71-15.71,15.71c-8.68,0-15.71-7.03-15.71-15.71
	C111.23,93.62,118.27,86.59,126.94,86.59"/>
<path fill="#DADCE0" d="M137.32,98.36c2.09,0.61,3.94,1.83,5.33,3.55c-0.01-0.36-0.03-0.72-0.06-1.07c-1.37-1.45-3.07-2.5-4.96-3.07
	c0.52-1.09,0.86-2.26,1.01-3.49c0.1-0.81,0.12-1.62,0.05-2.41c-0.24-0.28-0.5-0.54-0.76-0.8c0.17,1.02,0.19,2.07,0.06,3.13
	c-0.15,1.2-0.49,2.34-1.01,3.4c-0.42-0.1-0.84-0.18-1.27-0.23c-1.85-0.23-3.69-0.02-5.39,0.61c0.15-0.97,0.18-1.96,0.08-2.96
	c-0.16-1.58-0.64-3.08-1.39-4.43c1.32-1.17,2.93-2.03,4.74-2.45c-0.32-0.15-0.64-0.29-0.96-0.42c-1.54,0.48-2.94,1.27-4.12,2.29
	c-0.65-1.02-1.46-1.93-2.42-2.72c-0.27-0.22-0.55-0.43-0.84-0.62c-0.34,0.03-0.68,0.08-1.02,0.13c0.5,0.29,0.98,0.62,1.44,1
	c0.94,0.77,1.73,1.67,2.35,2.66c-1.83,1.79-3.05,4.17-3.38,6.78c-1.54-1.12-3.35-1.84-5.3-2.09c-0.94-0.12-1.87-0.12-2.79-0.01
	c-0.34-1.59-0.32-3.24,0.05-4.81c-0.28,0.24-0.55,0.49-0.82,0.75c-0.21,1.37-0.18,2.78,0.11,4.16c-1.32,0.23-2.59,0.7-3.77,1.39
	c-0.13,0.33-0.24,0.66-0.35,1c1.3-0.9,2.75-1.49,4.27-1.75c0.39,1.41,1.05,2.77,2,4c0.45,0.58,0.95,1.1,1.48,1.57
	c-1.08,0.66-2.05,1.51-2.87,2.52c-0.6,0.73-1.1,1.52-1.49,2.36c-1.52-0.55-2.9-1.44-4.03-2.58c0.03,0.35,0.07,0.69,0.13,1.03
	c0.1,0.09,0.2,0.18,0.31,0.26c1.01,0.83,2.13,1.46,3.33,1.9c-0.59,1.45-0.87,3.01-0.82,4.61c0.23,0.32,0.47,0.62,0.73,0.92
	c-0.01-0.05-0.01-0.11-0.02-0.16c-0.18-1.79,0.08-3.55,0.74-5.16c1.06,0.32,2.16,0.48,3.28,0.48c0.39,0,0.78-0.02,1.17-0.06
	c0.98-0.1,1.92-0.32,2.82-0.65c-0.44,2.76,0.12,5.67,1.75,8.13c0,0-0.01,0.01-0.01,0.01c-1.08,0.84-2.29,1.46-3.57,1.84
	c0.33,0.13,0.66,0.25,1,0.36c1.05-0.4,2.05-0.96,2.96-1.66c0.04,0.06,0.09,0.12,0.13,0.17c0.67,0.86,1.44,1.61,2.3,2.23
	c0.36-0.01,0.71-0.04,1.07-0.07c-1.08-0.67-2.04-1.53-2.85-2.56c-0.05-0.06-0.09-0.13-0.14-0.19c2.13-1.85,3.49-4.39,3.84-7.21
	c0-0.01,0-0.01,0-0.02c1.96,1.43,4.29,2.18,6.71,2.18c0.1,0,0.2,0,0.3,0c0,0.01,0,0.01,0,0.02c0.19,1.84-0.1,3.62-0.77,5.22
	c0.33-0.22,0.65-0.45,0.96-0.7c0.46-1.46,0.62-3.01,0.47-4.58c0.07-0.01,0.14-0.01,0.22-0.02c1.38-0.14,2.67-0.52,3.84-1.09
	c0.15-0.32,0.29-0.64,0.41-0.97c-1.29,0.75-2.75,1.24-4.33,1.4c-0.08,0.01-0.16,0.01-0.23,0.02c-0.42-2.65-1.73-5.05-3.76-6.82
	c0.35-0.22,0.7-0.45,1.03-0.71C135.55,100.92,136.57,99.72,137.32,98.36 M128.51,91.05c0.66,1.23,1.08,2.6,1.23,4.03
	c0.11,1.09,0.05,2.16-0.15,3.19c-0.82,0.37-1.61,0.84-2.34,1.41c-0.04-0.06-0.09-0.11-0.13-0.17c-0.51-0.66-1.09-1.26-1.72-1.78
	C125.63,95.15,126.77,92.81,128.51,91.05 M125.8,103.55c-0.3-0.04-0.61-0.1-0.91-0.16c0.16-0.28,0.33-0.54,0.51-0.81
	C125.51,102.9,125.65,103.23,125.8,103.55 M125.51,100.42c0.07,0,0.13,0,0.2,0c0.22,0,0.44,0.01,0.65,0.02
	c-0.25,0.23-0.48,0.48-0.7,0.73C125.6,100.92,125.55,100.67,125.51,100.42 M126.15,104.25c-0.68,0.61-1.44,1.13-2.27,1.55
	c0.17-0.62,0.41-1.23,0.69-1.82C125.09,104.11,125.62,104.2,126.15,104.25 M125.87,101.94c0.37-0.46,0.79-0.9,1.25-1.3
	c0.32,0.49,0.6,1.01,0.84,1.54c-0.35,0.52-0.74,1.01-1.17,1.46c-0.07,0-0.15-0.01-0.22-0.01
	C126.29,103.08,126.06,102.52,125.87,101.94 M127.87,103.41c0.13-0.16,0.26-0.33,0.39-0.5c0.08,0.22,0.15,0.44,0.21,0.67
	c-0.26,0.03-0.53,0.05-0.79,0.06C127.74,103.57,127.81,103.49,127.87,103.41 M128.38,101.51c-0.14-0.29-0.3-0.58-0.47-0.86
	c0.28,0.06,0.55,0.13,0.82,0.2C128.61,101.07,128.5,101.29,128.38,101.51 M127.95,99.97c0.46-0.33,0.94-0.63,1.44-0.88
	c-0.11,0.39-0.24,0.77-0.4,1.14C128.65,100.13,128.3,100.04,127.95,99.97 M126.51,99.78c-0.36-0.02-0.72-0.03-1.08-0.02
	c0-0.01,0-0.01,0-0.02c-0.04-0.4-0.06-0.79-0.05-1.19C125.77,98.93,126.16,99.34,126.51,99.78 M124.85,100.45
	c0.07,0.46,0.17,0.91,0.29,1.35c-0.34,0.45-0.65,0.92-0.92,1.41c-1.19-0.35-2.34-0.9-3.36-1.66c1.16-0.58,2.43-0.95,3.75-1.08
	C124.69,100.46,124.77,100.46,124.85,100.45 M118.73,99.47c-0.88-1.13-1.5-2.38-1.86-3.68c0.39-0.04,0.78-0.07,1.18-0.07
	c0.45,0,0.91,0.03,1.37,0.09c1.97,0.25,3.79,1.01,5.31,2.21c-0.03,0.59-0.02,1.18,0.04,1.78c-0.07,0.01-0.14,0.01-0.22,0.02
	c-1.51,0.15-2.95,0.59-4.25,1.29C119.73,100.63,119.2,100.08,118.73,99.47 M120.07,106.91c-0.37,0.04-0.73,0.06-1.09,0.06
	c-1.04,0-2.06-0.15-3.02-0.44c0.37-0.76,0.82-1.48,1.37-2.15c0.82-1.01,1.81-1.85,2.9-2.49c1.12,0.87,2.37,1.51,3.69,1.91
	c-0.36,0.75-0.63,1.54-0.81,2.34C122.16,106.54,121.14,106.81,120.07,106.91 M128.79,107.88c-0.33,2.64-1.59,5.01-3.57,6.75
	c-1.59-2.43-2.07-5.31-1.54-8c1.02-0.46,1.97-1.06,2.82-1.8c0.63,0.98,1.41,1.87,2.33,2.64
	C128.82,107.6,128.81,107.74,128.79,107.88 M126.99,104.37c0.02-0.02,0.05-0.04,0.07-0.07c0.07,0,0.14,0,0.21,0
	c0.45,0,0.9-0.03,1.35-0.08c0.17,0.78,0.25,1.59,0.24,2.41C128.14,105.96,127.51,105.2,126.99,104.37 M128.71,102.25
	c0.24-0.39,0.46-0.78,0.65-1.19c0.98,0.35,1.9,0.85,2.73,1.46c-0.95,0.47-1.95,0.8-2.96,0.97
	C129.01,103.07,128.87,102.65,128.71,102.25 M136.36,109.47c-2.48,0.05-4.88-0.75-6.85-2.29c0.06-1.03-0.02-2.05-0.23-3.05
	c1.16-0.21,2.3-0.59,3.38-1.17C134.57,104.57,135.93,106.84,136.36,109.47 M132.73,102.17c-0.95-0.74-2-1.32-3.1-1.72
	c0.22-0.56,0.4-1.13,0.54-1.71c1.29-0.53,2.67-0.81,4.09-0.81c0.45,0,0.91,0.03,1.37,0.09c0.35,0.04,0.7,0.1,1.04,0.18
	c-0.69,1.22-1.63,2.3-2.77,3.19C133.52,101.67,133.13,101.93,132.73,102.17"/>
<path fill="#8C9196" d="M119.4,117.98c-0.06,0-0.11-0.01-0.17-0.04c-0.17-0.09-0.23-0.3-0.14-0.47l0.86-1.59
	c0.09-0.17,0.3-0.23,0.47-0.14c0.17,0.09,0.23,0.3,0.14,0.47l-0.86,1.6C119.64,117.91,119.52,117.98,119.4,117.98"/>
<path fill="#8C9196" d="M137.72,116.7c-0.07,0-0.15-0.02-0.21-0.07l-1.69-1.26c-0.16-0.11-0.19-0.34-0.07-0.49
	c0.12-0.16,0.34-0.19,0.49-0.07l1.69,1.26c0.16,0.12,0.19,0.33,0.07,0.49C137.93,116.65,137.83,116.7,137.72,116.7"/>
<linearGradient id="SVGID_3_" gradientUnits="userSpaceOnUse" x1="128.1352" y1="18.2969" x2="128.1352" y2="74.6347">
	<stop  offset="0.113" style="stop-color:#2D3032"/>
	<stop  offset="1" style="stop-color:#222326;stop-opacity:0"/>
</linearGradient>
<path fill="url(#SVGID_3_)" d="M104.82,17.84c-1.31,0-2.38,1.06-2.38,2.38v12.26l-5.31,2.23c-0.59,0.25-0.97,0.82-0.97,1.46v27.22
	h-0.05L76.38,78.78h103.51l-18.51-13.5l-2.96-38.98c-0.01-0.19-0.18-0.34-0.37-0.34h-7.06c-0.32,0-0.58,0.24-0.6,0.56l-1.45,18.26
	l-8.26,2.28V19.02c0-0.65-0.53-1.18-1.18-1.18H104.82z"/>
<path fill-rule="evenodd" clip-rule="evenodd" fill="#D5D7DB" d="M91.2,108.13c1.86-3.18,3-7.38,3-11.99
	c0-9.93-5.27-17.98-11.77-17.98c-6.5,0-11.77,8.05-11.77,17.98c0,4.61,1.13,8.81,3,11.99H91.2z"/>
<path fill="#D5D7DB" d="M85.4,61.59c2.39,0,4.32,1.94,4.32,4.33s-1.94,4.32-4.32,4.32c-2.39,0-4.33-1.94-4.33-4.32
	S83.01,61.59,85.4,61.59"/>
<path fill="#8C9196" d="M86.53,100.06c-0.21,0-0.37-0.17-0.37-0.37v-2.52c0-0.21,0.17-0.37,0.37-0.37s0.37,0.17,0.37,0.37v2.52
	C86.9,99.89,86.73,100.06,86.53,100.06"/>
<path fill="#8C9196" d="M81.27,90.31c-0.21,0-0.37-0.17-0.37-0.37v-2.52c0-0.21,0.17-0.37,0.37-0.37c0.21,0,0.37,0.17,0.37,0.37
	v2.52C81.65,90.14,81.48,90.31,81.27,90.31"/>
<path fill="#8C9196" d="M76.47,97.36c-0.21,0-0.37-0.17-0.37-0.37v-2.53c0-0.21,0.17-0.37,0.37-0.37c0.21,0,0.37,0.17,0.37,0.37
	v2.53C76.85,97.19,76.68,97.36,76.47,97.36"/>
<path fill="#8C9196" d="M86.83,65.54c-0.11,0-0.23-0.05-0.3-0.15l-0.61-0.81c-0.12-0.17-0.09-0.4,0.07-0.52
	c0.16-0.12,0.4-0.09,0.52,0.08l0.61,0.81c0.12,0.16,0.09,0.4-0.07,0.52C86.99,65.51,86.91,65.54,86.83,65.54"/>
<path fill-rule="evenodd" clip-rule="evenodd" fill="#DADCE0" d="M63.92,28.35L63.92,28.35c-1.61,0.93-3.66,0.38-4.59-1.23
	l-0.85-1.47c-0.93-1.61-0.38-3.66,1.23-4.59c1.61-0.93,3.66-0.38,4.59,1.23l0.85,1.47C66.07,25.37,65.52,27.42,63.92,28.35"/>
<path fill-rule="evenodd" clip-rule="evenodd" fill="#8C9196" d="M61.25,28.63c0.93,0.44,2.07,0.4,2.99-0.23
	c0.84-0.57,1.3-1.49,1.32-2.44C63.71,26.12,62.14,27.15,61.25,28.63"/>
<path fill-rule="evenodd" clip-rule="evenodd" fill="#D5D7DB" d="M73.86,108.13H61.43V32.1c0-3.42,2.78-6.2,6.2-6.2h0.03
	c3.42,0,6.2,2.78,6.2,6.2V108.13z"/>
<path fill-rule="evenodd" clip-rule="evenodd" fill="#8C9196" d="M73.86,35.56l-2.86,3.97c-1.18,1.64-0.81,3.92,0.83,5.1
	c0.61,0.44,1.32,0.67,2.02,0.69C73.86,45.32,73.86,35.56,73.86,35.56"/>
<path fill="#F1F3F4" d="M70.19,108.13V26.44c-0.24-0.11-0.49-0.2-0.75-0.28v81.97H70.19z"/>
<path fill="#F1F3F4" d="M65.85,108.13V26.16c-0.26,0.08-0.51,0.17-0.75,0.28v81.69H65.85z"/>
<path fill-rule="evenodd" clip-rule="evenodd" fill="#8C9196" d="M65.74,47.93l-4.31-4.76v11.49c1.36,0.43,2.9,0.14,4.02-0.88
	C67.15,52.24,67.27,49.62,65.74,47.93"/>
<path fill-rule="evenodd" clip-rule="evenodd" fill="#DADCE0" d="M71.94,43.69L71.94,43.69c-1.64-1.18-2.01-3.46-0.83-5.1l4.2-5.84
	c1.18-1.64,3.46-2.01,5.1-0.83c1.64,1.18,2.01,3.46,0.83,5.1l-4.2,5.84C75.86,44.5,73.58,44.87,71.94,43.69"/>
<path fill-rule="evenodd" clip-rule="evenodd" fill="#D5D7DB" d="M65.45,52.54L65.45,52.54c1.69-1.54,1.82-4.16,0.29-5.85
	L55.17,35.03c-1.54-1.69-4.16-1.82-5.85-0.29c-1.69,1.54-1.82,4.16-0.29,5.85L59.6,52.25C61.14,53.95,63.75,54.08,65.45,52.54"/>
<path fill="#F1F3F4" d="M49.32,34.75c-0.19,0.17-0.36,0.35-0.51,0.55l16.35,17.48c0.1-0.07,0.2-0.15,0.29-0.24
	c0.09-0.09,0.18-0.17,0.27-0.26L49.32,34.75C49.32,34.75,49.32,34.75,49.32,34.75"/>
<g>
	<path fill="#D5D7DB" d="M84.99,70.22L84.99,70.22c0.14,0.01,0.27,0.02,0.41,0.02c0.73,0,1.48-0.19,2.16-0.58
		c1.01-0.58,1.69-1.5,1.99-2.54l0.01-0.04c-1.64,0.49-3.26,1.57-4.6,3.13L84.99,70.22z"/>
	<path fill="#D5D7DB" d="M91.11,83.33c-0.01,0.01-0.03,0.02-0.04,0.02C91.08,83.35,91.1,83.34,91.11,83.33z"/>
	<path fill="#D5D7DB" d="M81.96,78.18c0.07,2.38,1.05,4.43,2.86,5.48c1.75,1.01,3.93,0.87,5.97-0.16c-2.13-3.29-5.09-5.34-8.36-5.34
		c-0.15,0-0.3,0.01-0.45,0.01"/>
	<path fill="#D5D7DB" d="M81.99,77.42c0.15-0.01,0.29-0.01,0.44-0.01c1.74,0,3.41,0.52,4.99,1.53c1.49,0.96,2.82,2.33,3.96,4.07
		c0.03,0.04,0.05,0.08,0.07,0.11c1.51-0.92,2.92-2.34,3.96-4.15c2.58-4.47,2.02-9.62-1.25-11.5c-1.14-0.66-2.45-0.82-3.79-0.58
		l-0.01,0.03l-0.01,0.04h0c-0.29,1.36-1.13,2.6-2.42,3.34c-0.77,0.45-1.65,0.68-2.53,0.68c-0.32,0-0.64-0.03-0.96-0.09l-0.03-0.01
		c-0.3,0.4-0.58,0.81-0.84,1.26c-1,1.73-1.53,3.57-1.61,5.28"/>
</g>
<path fill="#8C9196" d="M92.34,75.6c-0.06,0-0.13-0.02-0.18-0.05c-0.18-0.1-0.24-0.33-0.14-0.51l0.66-1.16
	c0.1-0.18,0.33-0.24,0.51-0.14c0.18,0.1,0.24,0.33,0.14,0.51l-0.66,1.16C92.59,75.53,92.47,75.6,92.34,75.6"/>
<path fill="#8C9196" d="M87.3,76.66c-0.06,0-0.13-0.01-0.18-0.05c-0.18-0.1-0.24-0.33-0.14-0.51l0.66-1.16
	c0.1-0.18,0.33-0.24,0.51-0.14c0.18,0.1,0.24,0.33,0.14,0.51l-0.66,1.16C87.56,76.59,87.43,76.66,87.3,76.66"/>
<path fill="#F1F3F4" d="M63.48,26.55c-1.79-2.02-3.04-4.4-3.59-5.59c-0.22,0.14-0.46,0.25-0.64,0.43c0.59,1.26,1.8,3.53,3.58,5.54"
	/>
<path fill="#F1F3F4" d="M71.94,43.69L71.94,43.69c0.14,0.1,0.29,0.19,0.44,0.27l8.38-11.76c-0.11-0.1-0.23-0.2-0.35-0.29
	c-0.08-0.06-0.16-0.11-0.24-0.16l-8.41,11.79C71.82,43.6,71.88,43.65,71.94,43.69"/>
</svg>
