<?xml version="1.0" encoding="utf-8"?>
<!-- Generator: Adobe Illustrator 24.1.2, SVG Export Plug-In . SVG Version: 6.00 Build 0)  -->
<svg version="1.1" id="BOX" xmlns="http://www.w3.org/2000/svg" xmlns:xlink="http://www.w3.org/1999/xlink" x="0px" y="0px"
	 width="320px" height="320px" viewBox="0 0 320 320" enable-background="new 0 0 320 320" xml:space="preserve">
<linearGradient id="SVGID_1_" gradientUnits="userSpaceOnUse" x1="375.6311" y1="186.429" x2="375.6311" y2="31" gradientTransform="matrix(-1 0 0 1 420.7621 0)">
	<stop  offset="0" style="stop-color:#FFFFFF;stop-opacity:0"/>
	<stop  offset="0.2242" style="stop-color:#F7F9FA;stop-opacity:0.439"/>
	<stop  offset="0.5107" style="stop-color:#E6EBF0"/>
</linearGradient>
<path fill-rule="evenodd" clip-rule="evenodd" fill="url(#SVGID_1_)" d="M25.86,122.29l4.34-65.32c0.1-1.52,0.83-2.93,2-3.89
	c1.1-0.9,2.5-1.34,3.92-1.23c2.65,0.21,11.76,1.76,11.76,1.76v29.73l8.33-3.59V47.98l6.36-7.37L62.69,31h18.23l0.13,16.63l5.11,3.43
	l1.23,135.37H2.86L25.86,122.29z"/>
<linearGradient id="SVGID_2_" gradientUnits="userSpaceOnUse" x1="215.5991" y1="187.6031" x2="215.5991" y2="66.2214">
	<stop  offset="0" style="stop-color:#FFFFFF;stop-opacity:0"/>
	<stop  offset="0.2242" style="stop-color:#F7F9FA;stop-opacity:0.439"/>
	<stop  offset="0.5107" style="stop-color:#E6EBF0"/>
</linearGradient>
<path fill-rule="evenodd" clip-rule="evenodd" fill="url(#SVGID_2_)" d="M281.81,160.71l-5.9-77.64c-0.03-0.39-0.35-0.68-0.74-0.68
	h-14.05c-0.63,0-1.16,0.48-1.2,1.11l-2.89,36.37l-16.45,4.54V68.57c0-1.3-1.05-2.35-2.35-2.35h-69.06c-2.62,0-4.74,2.12-4.74,4.74
	v24.42l-10.58,4.44c-1.18,0.49-1.94,1.64-1.94,2.91v54.22h-0.09l-39.31,30.65h206.18L281.81,160.71z"/>
<radialGradient id="SVGID_3_" cx="160" cy="195.3713" r="173.0666" gradientTransform="matrix(1 0 0 0.5815 0 81.754)" gradientUnits="userSpaceOnUse">
	<stop  offset="0" style="stop-color:#E6EBF0;stop-opacity:0.8"/>
	<stop  offset="1" style="stop-color:#FFFFFF;stop-opacity:0"/>
</radialGradient>
<rect y="195.6" fill="url(#SVGID_3_)" width="320" height="124.4"/>
<path fill-rule="evenodd" clip-rule="evenodd" fill="#BEC3C8" d="M141.9,254.3c3.72-6.35,5.98-14.73,5.98-23.93
	c0-19.82-10.51-35.88-23.49-35.88c-12.97,0-23.49,16.07-23.49,35.88c0,9.19,2.26,17.58,5.98,23.93H141.9z"/>
<ellipse transform="matrix(0.5 -0.866 0.866 0.5 -94.6955 214.6076)" fill-rule="evenodd" clip-rule="evenodd" fill="#BEC3C8" cx="138.51" cy="189.31" rx="18.64" ry="13.63"/>
<circle fill-rule="evenodd" clip-rule="evenodd" fill="#BEC3C8" cx="130.32" cy="170.06" r="8.63"/>
<line fill-rule="evenodd" clip-rule="evenodd" fill="none" stroke="#8C9196" stroke-width="1.4927" stroke-linecap="round" stroke-linejoin="round" stroke-miterlimit="10" x1="132.58" y1="232.41" x2="132.58" y2="237.45"/>
<line fill-rule="evenodd" clip-rule="evenodd" fill="none" stroke="#8C9196" stroke-width="1.4927" stroke-linecap="round" stroke-linejoin="round" stroke-miterlimit="10" x1="122.09" y1="212.96" x2="122.09" y2="218"/>
<line fill-rule="evenodd" clip-rule="evenodd" fill="none" stroke="#8C9196" stroke-width="1.4927" stroke-linecap="round" stroke-linejoin="round" stroke-miterlimit="10" x1="112.51" y1="227.02" x2="112.51" y2="232.05"/>
<line fill-rule="evenodd" clip-rule="evenodd" fill="none" stroke="#8C9196" stroke-width="1.4927" stroke-linecap="round" stroke-linejoin="round" stroke-miterlimit="10" x1="145.48" y1="186.32" x2="144.17" y2="188.64"/>
<line fill-rule="evenodd" clip-rule="evenodd" fill="none" stroke="#8C9196" stroke-width="1.4927" stroke-linecap="round" stroke-linejoin="round" stroke-miterlimit="10" x1="135.44" y1="188.44" x2="134.13" y2="190.75"/>
<line fill-rule="evenodd" clip-rule="evenodd" fill="none" stroke="#8C9196" stroke-width="1.4927" stroke-linecap="round" stroke-linejoin="round" stroke-miterlimit="10" x1="131.97" y1="166.94" x2="133.19" y2="168.56"/>
<g>
	<defs>
		
			<ellipse id="SVGID_4_" transform="matrix(0.5 -0.866 0.866 0.5 -94.6955 214.6076)" cx="138.51" cy="189.31" rx="18.64" ry="13.63"/>
	</defs>
	<clipPath id="SVGID_5_">
		<use xlink:href="#SVGID_4_"  overflow="visible"/>
	</clipPath>
	<g clip-path="url(#SVGID_5_)">
		<path fill="#E6EBF0" d="M124.4,194.49c12.97,0,23.49,16.07,23.49,35.88c0,9.19-2.26,17.58-5.98,23.93h-35
			c-3.72-6.35-5.98-14.73-5.98-23.93C100.91,210.56,111.43,194.49,124.4,194.49 M124.4,193c-13.77,0-24.98,16.77-24.98,37.38
			c0,9.11,2.2,17.87,6.19,24.68c0.27,0.46,0.76,0.74,1.29,0.74h35c0.53,0,1.02-0.28,1.29-0.74c3.99-6.81,6.19-15.58,6.19-24.68
			C149.37,209.77,138.17,193,124.4,193L124.4,193z"/>
	</g>
	<g clip-path="url(#SVGID_5_)">
		<path fill="#E6EBF0" d="M130.32,161.43c2.98,0,5.89,1.55,7.48,4.32c2.38,4.13,0.97,9.41-3.16,11.79
			c-1.36,0.78-2.84,1.16-4.31,1.16c-2.98,0-5.89-1.55-7.48-4.32c-2.38-4.13-0.97-9.41,3.16-11.79
			C127.37,161.8,128.85,161.43,130.32,161.43 M130.32,159.94c-1.77,0-3.52,0.47-5.05,1.36c-4.84,2.79-6.5,9-3.71,13.83
			c1.8,3.12,5.17,5.06,8.78,5.06c1.77,0,3.52-0.47,5.05-1.36c2.34-1.35,4.02-3.54,4.72-6.15c0.7-2.61,0.34-5.34-1.01-7.68
			C137.29,161.88,133.93,159.94,130.32,159.94L130.32,159.94z"/>
	</g>
</g>
<linearGradient id="SVGID_6_" gradientUnits="userSpaceOnUse" x1="150.1072" y1="274.2903" x2="143.0354" y2="233.274">
	<stop  offset="0" style="stop-color:#FFFFFF;stop-opacity:0"/>
	<stop  offset="0.1919" style="stop-color:#F0F1F2;stop-opacity:0.1919"/>
	<stop  offset="0.7192" style="stop-color:#CCD0D4;stop-opacity:0.7192"/>
	<stop  offset="1" style="stop-color:#BEC3C8"/>
</linearGradient>
<polygon fill="url(#SVGID_6_)" points="82.5,254.3 157.24,277.13 214.76,277.13 142.2,254.3 "/>
<linearGradient id="SVGID_7_" gradientUnits="userSpaceOnUse" x1="116.0139" y1="358.189" x2="57.9769" y2="336.3609" gradientTransform="matrix(0.7763 0.1355 -0.3911 1.2199 300.8708 -160.7307)">
	<stop  offset="0" style="stop-color:#FFFFFF;stop-opacity:0"/>
	<stop  offset="0.1919" style="stop-color:#F0F1F2;stop-opacity:0.1919"/>
	<stop  offset="0.7192" style="stop-color:#CCD0D4;stop-opacity:0.7192"/>
	<stop  offset="1" style="stop-color:#BEC3C8"/>
</linearGradient>
<path fill="url(#SVGID_7_)" d="M262.33,276.62c-1.61,5.03-18.13,6.45-36.88,3.18s-32.66-10-31.05-15.03
	c1.61-5.03,18.13-6.45,36.88-3.18C250.04,264.87,263.94,271.6,262.33,276.62z"/>
<path fill-rule="evenodd" clip-rule="evenodd" fill="#BEC3C8" d="M89.09,95.12L89.09,95.12c-3.21,1.85-7.31,0.75-9.16-2.45
	l-1.69-2.93c-1.85-3.21-0.75-7.31,2.45-9.16l0,0c3.21-1.85,7.31-0.75,9.16,2.45l1.69,2.93C93.4,89.17,92.3,93.27,89.09,95.12z"/>
<g>
	<defs>
		<path id="SVGID_8_" d="M89.09,95.12L89.09,95.12c-3.21,1.85-7.31,0.75-9.16-2.45l-1.69-2.93c-1.85-3.21-0.75-7.31,2.45-9.16l0,0
			c3.21-1.85,7.31-0.75,9.16,2.45l1.69,2.93C93.4,89.17,92.3,93.27,89.09,95.12z"/>
	</defs>
	<clipPath id="SVGID_9_">
		<use xlink:href="#SVGID_8_"  overflow="visible"/>
	</clipPath>
	
		<path clip-path="url(#SVGID_9_)" fill-rule="evenodd" clip-rule="evenodd" fill="none" stroke="#E6EBF0" stroke-width="1.4927" stroke-linecap="round" stroke-linejoin="round" stroke-miterlimit="10" d="
		M79.15,79.35c0,0,3.9,10.03,11.33,16.15"/>
	<g clip-path="url(#SVGID_9_)">
		<path fill-rule="evenodd" clip-rule="evenodd" fill="#8C9196" d="M104.94,254.06H80.14V102.32c0-6.83,5.54-12.37,12.37-12.37h0.07
			c6.83,0,12.37,5.54,12.37,12.37V254.06z"/>
	</g>
</g>
<path fill-rule="evenodd" clip-rule="evenodd" fill="#BEC3C8" d="M107.3,254.3H82.5V102.57c0-6.83,5.54-12.37,12.37-12.37h0.07
	c6.83,0,12.37,5.54,12.37,12.37V254.3z"/>
<g>
	<defs>
		<path id="SVGID_10_" d="M107.3,254.3H82.5V102.57c0-6.83,5.54-12.37,12.37-12.37h0.07c6.83,0,12.37,5.54,12.37,12.37V254.3z"/>
	</defs>
	<clipPath id="SVGID_11_">
		<use xlink:href="#SVGID_10_"  overflow="visible"/>
	</clipPath>
	
		<line clip-path="url(#SVGID_11_)" fill-rule="evenodd" clip-rule="evenodd" fill="none" stroke="#E6EBF0" stroke-width="1.4927" stroke-linecap="round" stroke-linejoin="round" stroke-miterlimit="10" x1="90.57" y1="254.99" x2="90.57" y2="87.85"/>
	
		<line clip-path="url(#SVGID_11_)" fill-rule="evenodd" clip-rule="evenodd" fill="none" stroke="#E6EBF0" stroke-width="1.4927" stroke-linecap="round" stroke-linejoin="round" stroke-miterlimit="10" x1="99.23" y1="254.99" x2="99.23" y2="87.85"/>
	<g clip-path="url(#SVGID_11_)">
		<path fill-rule="evenodd" clip-rule="evenodd" fill="#8C9196" d="M90.52,145.84L90.52,145.84c3.38-3.07,3.64-8.29,0.57-11.68
			L70,110.9c-3.07-3.38-8.29-3.64-11.68-0.57l0,0c-3.38,3.07-3.64,8.29-0.57,11.68l21.08,23.26
			C81.91,148.65,87.13,148.9,90.52,145.84z"/>
	</g>
	<g clip-path="url(#SVGID_11_)">
		<path fill-rule="evenodd" clip-rule="evenodd" fill="#8C9196" d="M103.27,127.59L103.27,127.59c-3.27-2.35-4.01-6.91-1.66-10.18
			l8.39-11.66c2.35-3.27,6.91-4.01,10.18-1.66l0,0c3.27,2.35,4.01,6.91,1.66,10.18l-8.39,11.66
			C111.1,129.2,106.54,129.94,103.27,127.59z"/>
	</g>
</g>
<path fill-rule="evenodd" clip-rule="evenodd" fill="#BEC3C8" d="M103.47,125.71L103.47,125.71c-3.27-2.35-4.01-6.91-1.66-10.18
	l8.39-11.66c2.35-3.27,6.91-4.01,10.18-1.66l0,0c3.27,2.35,4.01,6.91,1.66,10.18l-8.39,11.66
	C111.29,127.32,106.74,128.06,103.47,125.71z"/>
<g>
	<defs>
		<path id="SVGID_12_" d="M103.47,125.71L103.47,125.71c-3.27-2.35-4.01-6.91-1.66-10.18l8.39-11.66c2.35-3.27,6.91-4.01,10.18-1.66
			l0,0c3.27,2.35,4.01,6.91,1.66,10.18l-8.39,11.66C111.29,127.32,106.74,128.06,103.47,125.71z"/>
	</defs>
	<clipPath id="SVGID_13_">
		<use xlink:href="#SVGID_12_"  overflow="visible"/>
	</clipPath>
	
		<line clip-path="url(#SVGID_13_)" fill-rule="evenodd" clip-rule="evenodd" fill="none" stroke="#E6EBF0" stroke-width="1.4927" stroke-linecap="round" stroke-linejoin="round" stroke-miterlimit="10" x1="103.05" y1="126.8" x2="121.24" y2="101.29"/>
</g>
<path fill-rule="evenodd" clip-rule="evenodd" fill="#BEC3C8" d="M90.52,143.37L90.52,143.37c3.38-3.07,3.64-8.29,0.57-11.68
	L70,108.43c-3.07-3.38-8.29-3.64-11.68-0.57l0,0c-3.38,3.07-3.64,8.29-0.57,11.68l21.08,23.26
	C81.91,146.18,87.13,146.43,90.52,143.37z"/>
<g>
	<defs>
		<path id="SVGID_14_" d="M90.52,143.37L90.52,143.37c3.38-3.07,3.64-8.29,0.57-11.68L70,108.43c-3.07-3.38-8.29-3.64-11.68-0.57
			l0,0c-3.38,3.07-3.64,8.29-0.57,11.68l21.08,23.26C81.91,146.18,87.13,146.43,90.52,143.37z"/>
	</defs>
	<clipPath id="SVGID_15_">
		<use xlink:href="#SVGID_14_"  overflow="visible"/>
	</clipPath>
	
		<line clip-path="url(#SVGID_15_)" fill-rule="evenodd" clip-rule="evenodd" fill="none" stroke="#E6EBF0" stroke-width="1.4927" stroke-linecap="round" stroke-linejoin="round" stroke-miterlimit="10" x1="55.23" y1="105.64" x2="91.92" y2="144.87"/>
</g>
<g>
	<circle fill-rule="evenodd" clip-rule="evenodd" fill="#8C9196" cx="217.35" cy="245.58" r="31.35"/>
	<g>
		<defs>
			<circle id="SVGID_16_" cx="217.35" cy="245.58" r="31.35"/>
		</defs>
		<clipPath id="SVGID_17_">
			<use xlink:href="#SVGID_16_"  overflow="visible"/>
		</clipPath>
		<g clip-path="url(#SVGID_17_)">
			
				<circle fill-rule="evenodd" clip-rule="evenodd" fill="none" stroke="#E6EBF0" stroke-width="1.4927" stroke-linecap="round" stroke-linejoin="round" stroke-miterlimit="10" cx="222.87" cy="242.38" r="31.35"/>
			
				<circle fill-rule="evenodd" clip-rule="evenodd" fill="none" stroke="#E6EBF0" stroke-width="1.4927" stroke-linecap="round" stroke-linejoin="round" stroke-miterlimit="10" cx="212.75" cy="246.53" r="25.25"/>
			
				<circle fill-rule="evenodd" clip-rule="evenodd" fill="none" stroke="#E6EBF0" stroke-width="1.4927" stroke-linecap="round" stroke-linejoin="round" stroke-miterlimit="10" cx="231.47" cy="252.04" r="25.25"/>
			
				<circle fill-rule="evenodd" clip-rule="evenodd" fill="none" stroke="#E6EBF0" stroke-width="1.4927" stroke-linecap="round" stroke-linejoin="round" stroke-miterlimit="10" cx="233.95" cy="237.08" r="25.25"/>
		</g>
	</g>
	
		<line fill="none" stroke="#8C9196" stroke-width="1.3965" stroke-linecap="round" stroke-linejoin="round" stroke-miterlimit="10" x1="230.86" y1="219.45" x2="233.74" y2="215.12"/>
	
		<line fill="none" stroke="#8C9196" stroke-width="1.3965" stroke-linecap="round" stroke-linejoin="round" stroke-miterlimit="10" x1="204.07" y1="273.12" x2="202.35" y2="276.3"/>
	
		<line fill="none" stroke="#8C9196" stroke-width="1.3965" stroke-linecap="round" stroke-linejoin="round" stroke-miterlimit="10" x1="236.81" y1="267.26" x2="240.17" y2="269.78"/>
	
		<line fill="none" stroke="#8C9196" stroke-width="1.3965" stroke-linecap="round" stroke-linejoin="round" stroke-miterlimit="10" x1="188.25" y1="257.27" x2="185.15" y2="258.25"/>
	
		<line fill="none" stroke="#8C9196" stroke-width="1.3965" stroke-linecap="round" stroke-linejoin="round" stroke-miterlimit="10" x1="245.37" y1="243.05" x2="249.51" y2="242.69"/>
	
		<line fill="none" stroke="#8C9196" stroke-width="1.3965" stroke-linecap="round" stroke-linejoin="round" stroke-miterlimit="10" x1="202.48" y1="219.45" x2="200.05" y2="216.56"/>
</g>
</svg>
