<?xml version="1.0" encoding="utf-8"?>
<!-- Generator: Adobe Illustrator 24.2.3, SVG Export Plug-In . SVG Version: 6.00 Build 0)  -->
<svg version="1.1" id="Layer_1" xmlns="http://www.w3.org/2000/svg" xmlns:xlink="http://www.w3.org/1999/xlink" x="0px" y="0px"
	 width="194px" height="145.7px" viewBox="0 0 194 145.7" enable-background="new 0 0 194 145.7" xml:space="preserve">
<linearGradient id="SVGID_1_" gradientUnits="userSpaceOnUse" x1="127.9318" y1="17.8439" x2="127.9318" y2="78.8974">
	<stop  offset="0" style="stop-color:#F2F4F5"/>
	<stop  offset="0.9989" style="stop-color:#FDFEFE"/>
</linearGradient>
<path fill="url(#SVGID_1_)" d="M104.65,18.22c-1.31,0-2.37,1.06-2.37,2.37v12.24l-5.3,2.23C96.38,35.31,96,35.88,96,36.52v27.19
	h-0.05L76.24,79.08h103.38L161.13,65.6l-2.96-38.93c-0.01-0.19-0.18-0.34-0.37-0.34h-7.05c-0.32,0-0.58,0.24-0.6,0.55l-1.45,18.24
	l-8.25,2.27V19.39c0-0.65-0.53-1.18-1.18-1.18H104.65z"/>
<linearGradient id="SVGID_2_" gradientUnits="userSpaceOnUse" x1="42.71" y1="1.1944" x2="42.71" y2="77.9764">
	<stop  offset="0" style="stop-color:#F2F4F5"/>
	<stop  offset="0.9989" style="stop-color:#FDFEFE"/>
</linearGradient>
<path fill="url(#SVGID_2_)" d="M51.51,1.19l-0.06,4.81L48.26,9.7v15.91l-4.18,1.8V12.52c0,0-4.56-0.78-5.89-0.88
	c-0.71-0.06-1.41,0.17-1.96,0.62c-0.59,0.48-0.95,1.19-1,1.95l-2.17,32.72L21.54,79.05h42.34l-0.62-67.81L60.7,9.52l-0.07-8.33
	H51.51z"/>
<radialGradient id="SVGID_3_" cx="123.5868" cy="83.1816" r="72.2643" gradientTransform="matrix(1.1491 0 0 1.1327 -42.3487 -37.185)" gradientUnits="userSpaceOnUse">
	<stop  offset="6.136764e-03" style="stop-color:#000000;stop-opacity:0.15"/>
	<stop  offset="0.4263" style="stop-color:#0E0E0E;stop-opacity:0.0804"/>
	<stop  offset="0.9111" style="stop-color:#191919;stop-opacity:0"/>
</radialGradient>
<rect x="-0.01" y="79.05" fill="url(#SVGID_3_)" width="193.67" height="66.73"/>
<linearGradient id="SVGID_4_" gradientUnits="userSpaceOnUse" x1="406.9559" y1="990.7751" x2="416.8729" y2="990.7751" gradientTransform="matrix(0 1 -1 0 1083.6536 -298.5906)">
	<stop  offset="0" style="stop-color:#000000;stop-opacity:0.15"/>
	<stop  offset="0.5972" style="stop-color:#161719;stop-opacity:0.0604"/>
	<stop  offset="1" style="stop-color:#202124;stop-opacity:0"/>
</linearGradient>
<polygon fill="url(#SVGID_4_)" points="94.62,118.28 61.32,108.37 91.14,108.37 124.44,118.28 "/>
<linearGradient id="SVGID_5_" gradientUnits="userSpaceOnUse" x1="118.3575" y1="110.8097" x2="150.2849" y2="122.4303">
	<stop  offset="0" style="stop-color:#000000;stop-opacity:0.15"/>
	<stop  offset="0.5972" style="stop-color:#161719;stop-opacity:0.0604"/>
	<stop  offset="1" style="stop-color:#202124;stop-opacity:0"/>
</linearGradient>
<path fill="url(#SVGID_5_)" d="M122.27,118.17c-3.43-1.48-5.38-3.14-4.94-4.54c0.81-2.52,9.07-3.23,18.46-1.59
	c9.39,1.64,16.34,5.01,15.54,7.52c-0.81,2.52-9.07,3.23-18.46,1.59c-2.11-0.37-4.08-0.83-5.88-1.34
	C124.88,119.43,122.27,118.17,122.27,118.17z"/>
<path fill="#8C9196" d="M133.88,88.89c-0.07,0-0.13-0.02-0.19-0.06c-0.16-0.11-0.2-0.32-0.1-0.48l1.44-2.16
	c0.11-0.16,0.32-0.2,0.48-0.1c0.16,0.11,0.2,0.32,0.1,0.48l-1.44,2.16C134.1,88.83,133.99,88.89,133.88,88.89"/>
<path fill="#8C9196" d="M111,108.31c-0.15,0-0.29-0.09-0.33-0.24c-0.06-0.18,0.04-0.38,0.23-0.44l1.55-0.49
	c0.18-0.06,0.38,0.04,0.44,0.23c0.06,0.18-0.04,0.38-0.23,0.44l-1.55,0.49C111.07,108.3,111.03,108.31,111,108.31"/>
<path fill="#8C9196" d="M141.13,100.7c-0.18,0-0.33-0.14-0.35-0.32c-0.02-0.19,0.13-0.36,0.32-0.38l2.07-0.18
	c0.19-0.02,0.36,0.13,0.38,0.32c0.02,0.19-0.13,0.36-0.32,0.38l-2.07,0.18C141.16,100.7,141.14,100.7,141.13,100.7"/>
<path fill="#8C9196" d="M119.67,88.89c-0.1,0-0.2-0.04-0.27-0.12l-1.22-1.44c-0.12-0.15-0.11-0.37,0.04-0.49
	c0.15-0.12,0.37-0.11,0.49,0.04l1.22,1.44c0.12,0.15,0.11,0.37-0.04,0.49C119.83,88.86,119.75,88.89,119.67,88.89"/>
<path fill="#FFFFFF" d="M126.76,86.87c8.67,0,15.69,7.03,15.69,15.69c0,8.67-7.02,15.69-15.69,15.69c-8.67,0-15.69-7.02-15.69-15.69
	C111.07,93.9,118.1,86.87,126.76,86.87"/>
<path fill="#DADCE0" d="M137.12,98.63c2.09,0.61,3.93,1.83,5.33,3.54c-0.01-0.36-0.03-0.72-0.06-1.07c-1.37-1.44-3.07-2.5-4.96-3.07
	c0.51-1.09,0.86-2.26,1.01-3.49c0.1-0.81,0.12-1.62,0.05-2.41c-0.24-0.28-0.5-0.54-0.76-0.8c0.17,1.02,0.19,2.07,0.06,3.13
	c-0.15,1.2-0.49,2.34-1.01,3.39c-0.42-0.1-0.84-0.18-1.27-0.23c-1.85-0.23-3.68-0.02-5.38,0.61c0.15-0.96,0.18-1.95,0.08-2.95
	c-0.16-1.58-0.63-3.08-1.39-4.43c1.32-1.17,2.93-2.03,4.73-2.44c-0.32-0.15-0.64-0.29-0.96-0.42c-1.54,0.48-2.93,1.27-4.11,2.29
	c-0.65-1.02-1.46-1.93-2.42-2.72c-0.27-0.22-0.55-0.43-0.83-0.62c-0.34,0.03-0.68,0.08-1.02,0.13c0.5,0.29,0.98,0.62,1.44,1
	c0.94,0.76,1.72,1.66,2.34,2.66c-1.82,1.78-3.05,4.16-3.37,6.78c-1.54-1.12-3.35-1.84-5.29-2.08c-0.94-0.12-1.87-0.12-2.79-0.01
	c-0.34-1.59-0.32-3.23,0.05-4.8c-0.28,0.24-0.55,0.49-0.82,0.75c-0.21,1.37-0.18,2.78,0.11,4.15c-1.32,0.23-2.59,0.7-3.76,1.39
	c-0.13,0.33-0.24,0.66-0.35,1c1.3-0.89,2.75-1.49,4.27-1.75c0.39,1.41,1.05,2.77,2,3.99c0.45,0.58,0.95,1.1,1.48,1.57
	c-1.08,0.66-2.04,1.51-2.86,2.51c-0.6,0.73-1.1,1.52-1.49,2.36c-1.52-0.55-2.9-1.44-4.02-2.58c0.03,0.35,0.07,0.69,0.13,1.03
	c0.1,0.09,0.2,0.18,0.31,0.26c1.01,0.82,2.13,1.46,3.32,1.89c-0.59,1.45-0.87,3.01-0.82,4.6c0.23,0.32,0.47,0.62,0.73,0.92
	c-0.01-0.05-0.01-0.11-0.02-0.16c-0.18-1.78,0.08-3.54,0.74-5.15c1.05,0.32,2.16,0.48,3.28,0.48c0.39,0,0.78-0.02,1.17-0.06
	c0.98-0.1,1.92-0.32,2.82-0.65c-0.44,2.75,0.12,5.66,1.75,8.12c0,0-0.01,0.01-0.01,0.01c-1.08,0.84-2.29,1.46-3.56,1.83
	c0.33,0.13,0.66,0.25,0.99,0.36c1.05-0.4,2.05-0.96,2.96-1.66c0.04,0.06,0.09,0.12,0.13,0.17c0.67,0.86,1.44,1.61,2.3,2.23
	c0.36-0.01,0.71-0.04,1.06-0.07c-1.08-0.67-2.04-1.53-2.84-2.56c-0.05-0.06-0.09-0.12-0.14-0.19c2.13-1.85,3.48-4.38,3.84-7.2
	c0-0.01,0-0.01,0-0.02c1.96,1.42,4.29,2.18,6.7,2.18c0.1,0,0.2,0,0.3,0c0,0.01,0,0.01,0,0.02c0.19,1.84-0.1,3.62-0.77,5.21
	c0.33-0.22,0.65-0.45,0.96-0.7c0.46-1.46,0.62-3,0.46-4.57c0.07-0.01,0.14-0.01,0.22-0.02c1.37-0.14,2.66-0.52,3.84-1.09
	c0.15-0.32,0.29-0.64,0.41-0.96c-1.29,0.75-2.75,1.24-4.32,1.4c-0.08,0.01-0.16,0.01-0.23,0.02c-0.42-2.65-1.73-5.04-3.75-6.81
	c0.35-0.22,0.69-0.45,1.03-0.71C135.36,101.19,136.38,99.99,137.12,98.63 M128.33,91.32c0.66,1.23,1.08,2.59,1.23,4.03
	c0.11,1.09,0.05,2.16-0.15,3.18c-0.82,0.37-1.6,0.84-2.33,1.4c-0.04-0.06-0.09-0.11-0.13-0.17c-0.51-0.66-1.09-1.25-1.71-1.78
	C125.45,95.43,126.58,93.08,128.33,91.32 M125.62,103.81c-0.3-0.04-0.61-0.1-0.91-0.16c0.16-0.28,0.33-0.54,0.51-0.8
	C125.33,103.17,125.47,103.49,125.62,103.81 M125.33,100.68c0.07,0,0.13,0,0.2,0c0.22,0,0.43,0.01,0.65,0.02
	c-0.25,0.23-0.48,0.48-0.7,0.73C125.42,101.19,125.37,100.94,125.33,100.68 M125.97,104.51c-0.68,0.61-1.44,1.13-2.27,1.55
	c0.17-0.62,0.41-1.23,0.69-1.81C124.91,104.37,125.44,104.46,125.97,104.51 M125.69,102.2c0.37-0.46,0.79-0.9,1.25-1.3
	c0.32,0.49,0.6,1.01,0.84,1.54c-0.35,0.52-0.74,1.01-1.17,1.46c-0.07,0-0.15-0.01-0.22-0.01
	C126.11,103.35,125.88,102.78,125.69,102.2 M127.69,103.68c0.13-0.16,0.26-0.33,0.39-0.5c0.08,0.22,0.15,0.44,0.21,0.67
	c-0.26,0.03-0.53,0.05-0.79,0.06C127.56,103.83,127.62,103.75,127.69,103.68 M128.19,101.77c-0.14-0.29-0.3-0.58-0.47-0.86
	c0.28,0.06,0.55,0.13,0.81,0.2C128.43,101.34,128.31,101.56,128.19,101.77 M127.76,100.24c0.46-0.33,0.94-0.63,1.44-0.88
	c-0.11,0.39-0.24,0.77-0.39,1.14C128.47,100.4,128.12,100.31,127.76,100.24 M126.33,100.05c-0.36-0.02-0.72-0.03-1.08-0.02
	c0-0.01,0-0.01,0-0.02c-0.04-0.4-0.06-0.79-0.05-1.18C125.59,99.2,125.97,99.61,126.33,100.05 M124.67,100.72
	c0.07,0.46,0.17,0.91,0.29,1.35c-0.34,0.45-0.65,0.92-0.91,1.41c-1.19-0.35-2.33-0.9-3.36-1.66c1.16-0.58,2.42-0.95,3.75-1.08
	C124.52,100.73,124.59,100.72,124.67,100.72 M118.56,99.74c-0.88-1.13-1.49-2.38-1.86-3.68c0.39-0.04,0.78-0.07,1.18-0.07
	c0.45,0,0.91,0.03,1.37,0.09c1.96,0.25,3.79,1.01,5.3,2.2c-0.03,0.59-0.02,1.18,0.04,1.78c-0.07,0.01-0.14,0.01-0.22,0.02
	c-1.51,0.15-2.95,0.59-4.25,1.29C119.56,100.89,119.03,100.35,118.56,99.74 M119.9,107.17c-0.37,0.04-0.73,0.06-1.09,0.06
	c-1.04,0-2.05-0.15-3.02-0.43c0.37-0.76,0.82-1.48,1.37-2.15c0.82-1.01,1.8-1.84,2.89-2.48c1.12,0.87,2.37,1.51,3.69,1.91
	c-0.36,0.75-0.63,1.54-0.81,2.34C121.99,106.8,120.97,107.06,119.9,107.17 M128.61,108.13c-0.33,2.64-1.59,5.01-3.57,6.74
	c-1.58-2.43-2.07-5.3-1.54-7.99c1.02-0.46,1.97-1.06,2.82-1.8c0.63,0.98,1.41,1.87,2.33,2.64
	C128.64,107.86,128.62,108,128.61,108.13 M126.81,104.63c0.02-0.02,0.05-0.04,0.07-0.07c0.07,0,0.14,0,0.21,0
	c0.45,0,0.9-0.03,1.35-0.08c0.17,0.78,0.25,1.59,0.24,2.4C127.96,106.22,127.33,105.46,126.81,104.63 M128.52,102.51
	c0.24-0.39,0.46-0.78,0.65-1.19c0.98,0.35,1.9,0.85,2.73,1.46c-0.95,0.47-1.94,0.8-2.96,0.97
	C128.83,103.33,128.69,102.92,128.52,102.51 M136.17,109.72c-2.48,0.05-4.87-0.75-6.84-2.29c0.06-1.03-0.02-2.05-0.23-3.04
	c1.16-0.21,2.3-0.59,3.37-1.16C134.38,104.83,135.74,107.1,136.17,109.72 M132.54,102.43c-0.95-0.74-2-1.32-3.1-1.72
	c0.22-0.55,0.4-1.13,0.54-1.71c1.29-0.53,2.67-0.81,4.08-0.81c0.45,0,0.91,0.03,1.37,0.09c0.35,0.04,0.7,0.1,1.04,0.18
	c-0.69,1.22-1.62,2.3-2.76,3.18C133.33,101.94,132.94,102.2,132.54,102.43"/>
<path fill="#8C9196" d="M119.23,118.22c-0.06,0-0.11-0.01-0.17-0.04c-0.17-0.09-0.23-0.3-0.14-0.47l0.86-1.59
	c0.09-0.17,0.3-0.23,0.47-0.14c0.17,0.09,0.23,0.3,0.14,0.47l-0.86,1.59C119.47,118.16,119.35,118.22,119.23,118.22"/>
<path fill="#8C9196" d="M137.53,116.94c-0.07,0-0.15-0.02-0.21-0.07l-1.68-1.26c-0.16-0.11-0.19-0.33-0.07-0.49
	c0.12-0.16,0.33-0.18,0.49-0.07l1.68,1.26c0.16,0.12,0.19,0.33,0.07,0.49C137.74,116.89,137.63,116.94,137.53,116.94"/>
<path fill-rule="evenodd" clip-rule="evenodd" fill="#D5D7DB" d="M91.06,108.39c1.86-3.18,2.99-7.37,2.99-11.97
	c0-9.92-5.26-17.96-11.75-17.96c-6.49,0-11.75,8.04-11.75,17.96c0,4.6,1.13,8.8,2.99,11.97H91.06z"/>
<path fill="#D5D7DB" d="M85.27,61.91c2.39,0,4.32,1.93,4.32,4.32c0,2.39-1.93,4.32-4.32,4.32c-2.39,0-4.32-1.93-4.32-4.32
	C80.95,63.84,82.88,61.91,85.27,61.91"/>
<path fill="#8C9196" d="M86.4,100.33c-0.21,0-0.37-0.17-0.37-0.37v-2.52c0-0.21,0.17-0.37,0.37-0.37s0.37,0.17,0.37,0.37v2.52
	C86.77,100.16,86.6,100.33,86.4,100.33"/>
<path fill="#8C9196" d="M81.15,90.59c-0.21,0-0.37-0.17-0.37-0.37V87.7c0-0.21,0.17-0.37,0.37-0.37c0.21,0,0.37,0.17,0.37,0.37v2.52
	C81.52,90.42,81.36,90.59,81.15,90.59"/>
<path fill="#8C9196" d="M76.35,97.63c-0.21,0-0.37-0.17-0.37-0.37v-2.52c0-0.21,0.17-0.37,0.37-0.37s0.37,0.17,0.37,0.37v2.52
	C76.73,97.46,76.56,97.63,76.35,97.63"/>
<path fill="#8C9196" d="M86.7,65.85c-0.11,0-0.23-0.05-0.3-0.15l-0.61-0.81c-0.12-0.17-0.09-0.4,0.07-0.52
	c0.16-0.12,0.4-0.09,0.52,0.07L87,65.25c0.12,0.16,0.09,0.4-0.07,0.52C86.86,65.82,86.78,65.85,86.7,65.85"/>
<path fill-rule="evenodd" clip-rule="evenodd" fill="#DADCE0" d="M63.81,28.71L63.81,28.71c-1.61,0.93-3.66,0.38-4.58-1.23
	l-0.85-1.47c-0.93-1.61-0.38-3.66,1.23-4.58c1.61-0.93,3.66-0.38,4.58,1.23l0.85,1.47C65.97,25.73,65.42,27.78,63.81,28.71"/>
<path fill-rule="evenodd" clip-rule="evenodd" fill="#8C9196" d="M61.15,28.99c0.93,0.44,2.07,0.39,2.98-0.23
	c0.84-0.57,1.3-1.49,1.32-2.43C63.61,26.48,62.05,27.51,61.15,28.99"/>
<path fill-rule="evenodd" clip-rule="evenodd" fill="#D5D7DB" d="M73.75,108.39H61.34V32.45c0-3.42,2.77-6.19,6.19-6.19h0.03
	c3.42,0,6.19,2.77,6.19,6.19V108.39z"/>
<path fill-rule="evenodd" clip-rule="evenodd" fill="#8C9196" d="M73.75,35.91l-2.85,3.96c-1.18,1.64-0.81,3.92,0.83,5.1
	c0.61,0.44,1.32,0.67,2.02,0.69C73.75,45.66,73.75,35.91,73.75,35.91"/>
<path fill="#F1F3F4" d="M70.09,108.39V26.8c-0.24-0.11-0.49-0.2-0.75-0.28v81.86H70.09z"/>
<path fill="#F1F3F4" d="M65.75,108.39V26.52c-0.26,0.08-0.51,0.17-0.75,0.28v81.59H65.75z"/>
<path fill-rule="evenodd" clip-rule="evenodd" fill="#8C9196" d="M65.63,48.26l-4.31-4.75v11.48c1.35,0.42,2.89,0.14,4.02-0.88
	C67.04,52.57,67.17,49.95,65.63,48.26"/>
<path fill-rule="evenodd" clip-rule="evenodd" fill="#D5D7DB" d="M65.35,52.87L65.35,52.87c1.69-1.54,1.82-4.15,0.29-5.84
	L55.08,35.38c-1.54-1.69-4.15-1.82-5.84-0.29c-1.69,1.54-1.82,4.15-0.29,5.84L59.5,52.58C61.04,54.28,63.65,54.4,65.35,52.87"/>
<path fill="#F1F3F4" d="M49.24,35.1c-0.19,0.17-0.36,0.35-0.5,0.55l16.32,17.46c0.1-0.07,0.2-0.15,0.29-0.24
	c0.09-0.09,0.18-0.17,0.27-0.26L49.24,35.1C49.24,35.1,49.24,35.1,49.24,35.1"/>
<g>
	<path fill="#D5D7DB" d="M84.86,70.53L84.86,70.53c0.14,0.01,0.27,0.02,0.41,0.02c0.73,0,1.48-0.19,2.16-0.58
		c1-0.58,1.69-1.5,1.99-2.53l0.01-0.04c-1.63,0.49-3.25,1.57-4.6,3.13L84.86,70.53z"/>
	<path fill="#D5D7DB" d="M90.97,83.62c-0.01,0.01-0.03,0.02-0.04,0.02C90.95,83.64,90.96,83.63,90.97,83.62z"/>
	<path fill="#D5D7DB" d="M81.84,78.47c0.07,2.38,1.05,4.43,2.86,5.47c1.75,1.01,3.92,0.87,5.96-0.16c-2.13-3.29-5.09-5.33-8.35-5.33
		c-0.15,0-0.3,0.01-0.45,0.01"/>
	<path fill="#D5D7DB" d="M81.86,77.72c0.15-0.01,0.29-0.01,0.44-0.01c1.73,0,3.41,0.52,4.98,1.53c1.49,0.96,2.82,2.33,3.95,4.07
		c0.03,0.04,0.05,0.08,0.07,0.11c1.51-0.92,2.91-2.33,3.96-4.14c2.58-4.46,2.02-9.6-1.24-11.49c-1.14-0.66-2.45-0.82-3.79-0.58
		l-0.01,0.03l-0.01,0.04h0c-0.29,1.36-1.12,2.59-2.42,3.34c-0.77,0.44-1.64,0.68-2.53,0.68c-0.32,0-0.64-0.03-0.95-0.09l-0.03-0.01
		c-0.3,0.4-0.58,0.81-0.84,1.26c-1,1.73-1.53,3.56-1.61,5.27"/>
</g>
<path fill-rule="evenodd" clip-rule="evenodd" fill="#DADCE0" d="M72.17,44.3L72.17,44.3c-1.64-1.18-2.01-3.46-0.83-5.1l4.2-5.83
	c1.18-1.64,3.46-2.01,5.1-0.83c1.64,1.18,2.01,3.46,0.83,5.1l-4.2,5.83C76.09,45.11,73.81,45.48,72.17,44.3"/>
<path fill="#F1F3F4" d="M71.83,44.03L71.83,44.03c0.14,0.1,0.26,0.24,0.42,0.32l8.4-11.79c-0.11-0.1-0.22-0.15-0.35-0.24
	c-0.08-0.06-0.23-0.11-0.31-0.16l-8.32,11.71C71.73,43.92,71.77,43.99,71.83,44.03"/>
<path fill="#F1F3F4" d="M63.37,26.91c-1.79-2.02-3.04-4.4-3.59-5.58c-0.22,0.14-0.46,0.25-0.64,0.43c0.59,1.26,1.8,3.53,3.58,5.54"
	/>
<path fill="#8C9196" d="M92.2,75.9c-0.06,0-0.13-0.02-0.18-0.05c-0.18-0.1-0.24-0.33-0.14-0.51l0.66-1.16
	c0.1-0.18,0.33-0.24,0.51-0.14c0.18,0.1,0.24,0.33,0.14,0.51l-0.66,1.16C92.45,75.83,92.33,75.9,92.2,75.9"/>
<path fill="#8C9196" d="M87.17,76.96c-0.06,0-0.13-0.01-0.18-0.05c-0.18-0.1-0.24-0.33-0.14-0.51l0.66-1.16
	c0.1-0.18,0.33-0.24,0.51-0.14c0.18,0.1,0.24,0.33,0.14,0.51l-0.66,1.16C87.43,76.89,87.3,76.96,87.17,76.96"/>
</svg>
