<svg version="1.1" xmlns="http://www.w3.org/2000/svg" xmlns:xlink="http://www.w3.org/1999/xlink" x="0" y="0" width="304" height="89" viewBox="0 0 304 89" fill="none">
<g>
  <linearGradient id="grad1" x1="35.9558" y1="127.708" x2="159.183" y2="50.2089" gradientUnits="userSpaceOnUse">
    <stop offset="0" style="stop-color:#F1F3F4"/>
    <stop offset="1" style="stop-color:#F1F3F4;stop-opacity:0"/>
  </linearGradient>
  <path d="M187.734 38.4627L168.837 26.2519C166.898 24.992 164.379 25.1858 162.634 26.7364L123.223 61.7216C122.674 62.2061 122.384 62.8522 122.319 63.5306L145.901 78.4873C146.741 79.0042 147.807 78.9396 148.55 78.2612L189.317 41.0793C189.22 40.0456 188.671 39.0765 187.734 38.4627Z" fill="url(#grad1)"/>
  <path d="M150.585 46.7971C150.553 46.7971 150.488 46.7971 150.456 46.7648L147.161 44.6974C147.031 44.6327 146.999 44.4712 147.096 44.342C147.161 44.2128 147.322 44.1805 147.451 44.2774L150.746 46.3448C150.876 46.4095 150.908 46.571 150.811 46.7002C150.746 46.7325 150.682 46.7971 150.585 46.7971Z" fill="#4285F4"/>
  <linearGradient id="grad2" x1="114.221" y1="86.1469" x2="123.657" y2="64.7342" gradientUnits="userSpaceOnUse">
    <stop offset="0" style="stop-color:#8AB4F8;stop-opacity:0"/>
    <stop offset="1" style="stop-color:#8AB4F8"/>
  </linearGradient>
  <path d="M151.78 36.9768L154.235 71.5097L147.161 78.2935C143.575 81.5885 138.342 84.0436 132.785 82.0731L107.814 103.329L79.9038 70.7344L109.753 59.428L118.022 43.6637C120.381 39.0765 124.612 35.0062 129.943 33.9079L144.253 30.9036C145.901 30.5483 147.613 31.3559 148.42 32.8418C149.422 34.6832 148.744 36.9767 146.902 38.0105L134.336 44.9882C133.722 45.3435 133.496 46.1188 133.851 46.7649C134.174 47.3786 134.95 47.6048 135.563 47.2817L144.77 42.7269" fill="url(#grad2)"/>
  <path d="M178.722 51.8689L184.536 52.4504C185.312 52.5473 186.151 52.4504 186.959 52.1273C189.123 51.1905 190.125 48.8 189.253 46.7972C188.38 44.7943 185.925 43.9221 183.761 44.8912L178.722 51.8689Z" fill="#8AB4F8"/>
  <path d="M178.754 53.5487C178.172 51.449 175.879 50.2214 173.618 50.8352L171.227 56.9083C170.452 56.6822 169.612 56.6499 168.772 56.876L166.381 62.9492C165.606 62.7231 164.766 62.6908 163.926 62.9169L160.05 69.5392L163.603 70.5406C164.346 70.7667 165.186 70.799 166.026 70.5406C168.287 69.9268 169.644 67.6979 169.095 65.5981C168.998 65.2104 168.804 64.8228 168.578 64.4998C169.289 64.6936 170.096 64.6936 170.904 64.4998C173.165 63.886 174.522 61.657 173.973 59.5573C173.876 59.1696 173.682 58.782 173.456 58.4589C174.167 58.6528 174.974 58.6528 175.782 58.4589C177.979 57.8775 179.335 55.6808 178.754 53.5487Z" fill="#8AB4F8"/>
  <linearGradient id="grad3" x1="182.921" y1="47.1658" x2="182.722" y2="51.7394" gradientUnits="userSpaceOnUse">
    <stop offset="0" style="stop-color:#4285F4"/>
    <stop offset="1" style="stop-color:#4285F4;stop-opacity:0"/>
  </linearGradient>
  <path d="M187.896 45.1173C187.896 45.1173 184.633 47.7986 184.536 52.418L177.946 51.6427L186.055 44.019L187.896 45.1173Z" fill="url(#grad3)"/>
  <path d="M145.222 32.0342C145.125 31.5497 144.867 31.1297 144.479 30.8713L143.769 31.0005C144.286 31.162 144.673 31.582 144.802 32.1312C144.964 32.9388 144.447 33.7141 143.639 33.8756L138.891 34.9416C138.503 35.0062 138.115 34.9416 137.76 34.7155C137.437 34.4893 137.211 34.1663 137.114 33.7786C136.985 33.1649 137.243 32.5834 137.728 32.2604L136.985 32.4219C136.694 32.8418 136.597 33.3587 136.694 33.8756C136.791 34.3924 137.082 34.8124 137.502 35.1031C137.825 35.3292 138.18 35.4261 138.568 35.4261C138.697 35.4261 138.826 35.4261 138.955 35.3938L143.704 34.3278C144.77 34.1017 145.448 33.1003 145.222 32.0342Z" fill="#FFFFFF"/>
  <path d="M188.8 38.3335L169.515 25.8965C167.544 24.6366 164.96 24.8305 163.183 26.381L122.965 62.0446C121.576 63.2722 121.77 65.4689 123.288 66.4703L144.996 80.5225C146.45 81.4593 148.388 81.2978 149.68 80.1348L189.22 43.8898C190.965 42.3069 190.739 39.5611 188.8 38.3335Z" fill="#70757A"/>
  <path d="M146.062 79.2303C146.45 79.4888 146.87 79.5857 147.322 79.5857C147.904 79.5857 148.453 79.3918 148.905 78.9719L190.416 41.1117C190.416 41.0148 190.416 40.9178 190.383 40.8209L148.744 78.8104C148.033 79.4565 146.999 79.5533 146.192 79.0365L122.125 63.789H122.093C122.093 63.8536 122.06 63.9505 122.06 64.0151L146.062 79.2303Z" fill="#FFFFFF"/>
  <path d="M171.679 59.7511C171.485 59.7511 171.292 59.6865 171.13 59.5249C171.001 59.3634 170.904 59.1696 170.904 58.9758C170.904 58.7819 171.001 58.5881 171.162 58.4266L175.459 54.5178C175.75 54.2594 176.17 54.2594 176.46 54.5178C176.622 54.647 176.686 54.8409 176.686 55.067C176.686 55.2608 176.589 55.4546 176.46 55.6161L172.196 59.5572C172.035 59.6865 171.873 59.7511 171.679 59.7511ZM171.292 59.3634C171.485 59.5572 171.809 59.5895 172.035 59.3957L176.299 55.4546C176.396 55.3577 176.46 55.2285 176.46 55.067C176.46 54.9378 176.396 54.7763 176.299 54.6793C176.105 54.4855 175.814 54.4855 175.62 54.6793L171.324 58.5881C171.227 58.685 171.162 58.8142 171.162 58.9758C171.13 59.1373 171.195 59.2665 171.292 59.3634Z" fill="#FFFFFF"/>
  <path d="M177.979 53.9363C177.785 53.9363 177.591 53.8717 177.429 53.7102C177.3 53.5487 177.203 53.3548 177.236 53.161C177.236 52.9672 177.332 52.7734 177.494 52.6118L181.823 48.7354C182.113 48.4769 182.533 48.4769 182.824 48.7354C182.986 48.8646 183.05 49.0584 183.05 49.2845C183.05 49.4783 182.953 49.6722 182.824 49.8337L178.528 53.7425C178.334 53.8717 178.172 53.9363 177.979 53.9363ZM177.591 53.5487C177.785 53.7748 178.108 53.7748 178.334 53.581L182.63 49.6722C182.727 49.5753 182.792 49.446 182.792 49.3168C182.792 49.1876 182.727 49.0261 182.63 48.9292C182.437 48.7354 182.146 48.7354 181.952 48.9292L177.623 52.8057C177.526 52.9026 177.462 53.0318 177.462 53.1933C177.429 53.3225 177.494 53.4518 177.591 53.5487Z" fill="#FFFFFF"/>
  <path d="M126.809 64.209L145.998 76.4199C146.644 76.8398 147.484 76.7752 148.065 76.2584L184.666 42.8884C185.958 41.7255 185.796 39.658 184.31 38.7212L168.094 28.4485C166.478 27.4471 164.411 27.6086 162.99 28.8685L126.583 61.4632C125.743 62.2708 125.84 63.5952 126.809 64.209Z" fill="#FFFFFF"/>
  <path d="M150.638 43.0935L150.509 43.5134L150.832 43.7719L150.315 43.8365L150.024 44.1918L149.863 43.8042L149.346 43.7396L149.766 43.4811L149.734 43.0935L150.154 43.2873L150.638 43.0935Z" fill="#FBBC04"/>
  <path d="M151.93 43.9011L151.769 44.2887L152.092 44.5795L151.575 44.6441L151.317 44.9995L151.123 44.6118L150.606 44.5472L151.026 44.2887L150.993 43.9011L151.446 44.0949L151.93 43.9011Z" fill="#FBBC04"/>
  <path d="M153.19 44.7087L153.028 45.0964L153.384 45.3871L152.867 45.4517L152.576 45.7747L152.382 45.4194L151.898 45.3548L152.318 45.0964L152.285 44.7087L152.705 44.9025L153.19 44.7087Z" fill="#FBBC04"/>
  <path d="M154.45 45.5162L154.321 45.9038L154.644 46.1945L154.127 46.2268L153.836 46.5822L153.674 46.2268L153.158 46.1622L153.578 45.9038L153.545 45.4839L153.965 45.6777L154.45 45.5162Z" fill="#FBBC04"/>
  <path d="M155.258 46.4853L154.805 46.2915L154.838 46.7114L154.45 46.9699L154.935 47.0345L155.742 46.3238L155.258 46.4853Z" fill="#FBBC04"/>
  <path d="M155.387 47.0344L155.936 47.0021L155.581 46.7113L155.742 46.3237L154.934 47.0344L155.128 47.3897L155.387 47.0344Z" fill="#E6EBF0"/>
  <path d="M144.451 52.2892L141.899 50.7063C141.64 50.5448 141.64 50.2541 141.866 50.0602C142.093 49.8664 142.48 49.8018 142.739 49.9633L145.291 51.5462C145.549 51.7077 145.549 51.9985 145.323 52.1923C145.065 52.4184 144.677 52.4507 144.451 52.2892Z" fill="#E6EBF0"/>
  <path d="M148.466 54.7289L145.914 53.146C145.655 52.9845 145.655 52.6938 145.882 52.4999C146.108 52.3061 146.495 52.2415 146.754 52.403L149.306 53.9859C149.564 54.1474 149.564 54.4382 149.338 54.632C149.08 54.8581 148.692 54.8904 148.466 54.7289Z" fill="#E6EBF0"/>
  <path d="M163.938 48.4939L152.44 41.2287C152.182 41.0672 152.182 40.7765 152.408 40.5827C152.634 40.3888 153.022 40.3243 153.28 40.4858L164.777 47.7509C165.036 47.9124 165.036 48.2031 164.81 48.397C164.551 48.6231 164.164 48.6554 163.938 48.4939Z" fill="#E6EBF0"/>
  <path d="M142.343 67.5141L130.729 60.4361C130.468 60.2788 130.464 59.9881 130.687 59.7906C130.91 59.5932 131.296 59.5223 131.557 59.6796L143.171 66.7576C143.432 66.9149 143.436 67.2056 143.213 67.4031C142.959 67.6333 142.572 67.6719 142.343 67.5141Z" fill="#E6EBF0"/>
  <path d="M177.663 40.4214L166.165 33.1562C165.907 32.9947 165.907 32.704 166.133 32.5102C166.359 32.3163 166.747 32.2517 167.005 32.4133L178.502 39.6784C178.761 39.8399 178.761 40.1306 178.535 40.3244C178.276 40.5506 177.889 40.5829 177.663 40.4214Z" fill="#E6EBF0"/>
  <path d="M154.497 44.7088C154.432 44.7088 154.4 44.7088 154.335 44.6765L150.976 42.5444C150.846 42.4475 150.782 42.2537 150.879 42.1245C150.976 41.9952 151.169 41.9307 151.299 42.0276L154.658 44.1273C154.787 44.2242 154.852 44.418 154.755 44.5472C154.691 44.6442 154.594 44.7088 154.497 44.7088Z" fill="#E6EBF0"/>
  <path d="M132.842 63.8822C132.777 63.8833 132.745 63.8838 132.68 63.8525L129.286 61.7752C129.156 61.6804 129.088 61.4876 129.183 61.3568C129.277 61.2261 129.47 61.1583 129.601 61.2532L132.994 63.2982C133.125 63.393 133.193 63.5858 133.098 63.7165C133.035 63.8145 132.939 63.8806 132.842 63.8822Z" fill="#E6EBF0"/>
  <path d="M150.183 48.5025C150.118 48.5025 150.086 48.5025 150.021 48.4702L146.662 46.3381C146.532 46.2412 146.468 46.0474 146.565 45.9182C146.662 45.7889 146.855 45.7244 146.985 45.8213L150.344 47.921C150.473 48.0179 150.538 48.2117 150.441 48.3409C150.377 48.4379 150.28 48.5025 150.183 48.5025Z" fill="#E6EBF0"/>
  <path d="M172.376 39.1499C172.311 39.1499 172.279 39.1499 172.214 39.1176L168.855 36.9855C168.725 36.8886 168.661 36.6948 168.758 36.5656C168.855 36.4364 169.049 36.3718 169.178 36.4687L172.537 38.5684C172.667 38.6653 172.731 38.8591 172.634 38.9884C172.57 39.0853 172.473 39.1499 172.376 39.1499Z" fill="#E6EBF0"/>
  <path d="M166.596 56.2093L148.355 44.4916L148.42 44.3947L166.66 56.1124L166.596 56.2093Z" fill="#E6EBF0"/>
  <path d="M158.072 63.5845L139.587 52.257L139.65 52.1587L158.135 63.4862L158.072 63.5845Z" fill="#E6EBF0"/>
  <path d="M156.495 54.6433C156.431 54.6433 156.398 54.6434 156.334 54.6111L145.254 47.6657C145.124 47.5688 145.092 47.4073 145.157 47.2781C145.254 47.1489 145.415 47.1165 145.544 47.1811L156.625 54.1265C156.754 54.2234 156.786 54.3849 156.721 54.5142C156.657 54.6111 156.56 54.6433 156.495 54.6433Z" fill="#E6EBF0"/>
  <path d="M154.966 55.8744C154.901 55.8744 154.869 55.8744 154.804 55.8421L143.724 48.8967C143.595 48.7998 143.562 48.6383 143.627 48.5091C143.724 48.3798 143.885 48.3476 144.015 48.4122L155.095 55.3575C155.224 55.4544 155.256 55.6159 155.192 55.7451C155.159 55.8421 155.063 55.8744 154.966 55.8744Z" fill="#E6EBF0"/>
  <linearGradient id="grad4" x1="123.159" y1="59.2062" x2="135.369" y2="77.1571" gradientUnits="userSpaceOnUse">
    <stop offset="0" style="stop-color:#4285F4"/>
    <stop offset="1" style="stop-color:#4285F4;stop-opacity:0"/>
  </linearGradient>
  <path d="M123.159 66.3411L134.53 82.5253C134.53 82.5253 138.858 83.8821 144.641 80.2318L123.159 66.3411Z" fill="url(#grad4)"/>
  <path d="M180.369 34.877C180.337 34.877 180.337 34.877 180.304 34.8447L176.17 32.1634C176.105 32.1311 176.105 32.0665 176.137 32.0019C176.17 31.9373 176.234 31.9373 176.299 31.9696L180.434 34.6509C180.498 34.6832 180.498 34.7478 180.466 34.8124C180.434 34.8447 180.401 34.877 180.369 34.877Z" fill="#FFFFFF"/>
  <path d="M174.974 31.6466C175.224 31.6466 175.427 31.4875 175.427 31.2912C175.427 31.095 175.224 30.9359 174.974 30.9359C174.725 30.9359 174.522 31.095 174.522 31.2912C174.522 31.4875 174.725 31.6466 174.974 31.6466Z" fill="#FFFFFF"/>
  <linearGradient id="grad5" x1="146.134" y1="46.5927" x2="133.774" y2="49.9791" gradientUnits="userSpaceOnUse">
    <stop offset="0" style="stop-color:#4285F4"/>
    <stop offset="1" style="stop-color:#4285F4;stop-opacity:0"/>
  </linearGradient>
  <path d="M133.819 46.7325L128.392 57.2313L144.77 42.7268L135.564 47.2817C135.531 47.2817 134.53 47.7985 133.819 46.7325Z" fill="url(#grad5)"/>
  <path d="M158.704 34.9006L155.016 38.2557C154.53 38.6981 154.596 39.4813 155.149 39.8367L172.226 50.8112C172.612 51.0591 173.116 51.0129 173.451 50.6993L176.947 47.4203C177.422 46.9751 177.351 46.2022 176.804 45.85L159.641 34.8036C159.351 34.6421 158.931 34.7067 158.704 34.9006Z" fill="#E6EBF0"/>
  <path d="M136.81 54.3506L133.138 57.6914C132.647 58.1382 132.719 58.9306 133.283 59.2807L150.807 70.1594C151.192 70.3981 151.688 70.3488 152.019 70.0391L155.508 66.7662C155.988 66.3165 155.91 65.5342 155.352 65.1874L137.747 54.2537C137.456 54.0921 137.036 54.1568 136.81 54.3506Z" fill="#E6EBF0"/>
  <linearGradient id="grad6" x1="115.454" y1="77.0511" x2="165.735" y2="46.3067" gradientUnits="userSpaceOnUse">
    <stop offset="0.352" style="stop-color:#FFFFFF"/>
    <stop offset="1" style="stop-color:#FFFFFF;stop-opacity:0.2"/>
  </linearGradient>
  <path d="M126.809 64.209L145.998 76.4199C146.644 76.8398 147.484 76.7752 148.065 76.2584L184.666 42.8884C185.958 41.7255 185.796 39.658 184.31 38.7212L168.094 28.4485C166.478 27.4471 164.411 27.6086 162.99 28.8685L126.583 61.4632C125.743 62.2708 125.84 63.5952 126.809 64.209Z" fill="url(#grad6)"/>
  <path fill-rule="evenodd" clip-rule="evenodd" d="M213.371 11.9689C206.675 11.9689 201.247 17.3972 201.247 24.0933C201.247 25.8275 201.611 27.4766 202.267 28.9684L199.987 32.0771C199.733 32.4244 200.007 32.9097 200.436 32.8708L204.626 32.4905C206.832 34.7878 209.935 36.2177 213.371 36.2177H243.143C249.839 36.2177 255.268 30.7894 255.268 24.0933C255.268 17.3972 249.839 11.9689 243.143 11.9689H213.371Z" fill="#FEEFC3"/>
  <path d="M210.325 20.5667C210.416 20.3703 210.695 20.3703 210.785 20.5667L211.519 22.1579C211.581 22.2913 211.707 22.3831 211.853 22.4004L213.593 22.6067C213.808 22.6322 213.894 22.8976 213.735 23.0444L212.449 24.2342C212.341 24.3339 212.293 24.4824 212.321 24.6265L212.663 26.3453C212.705 26.5573 212.479 26.7214 212.29 26.6157L210.761 25.7598C210.633 25.6881 210.477 25.6881 210.349 25.7598L208.82 26.6157C208.631 26.7214 208.405 26.5573 208.447 26.3453L208.789 24.6265C208.818 24.4824 208.769 24.3339 208.661 24.2342L207.375 23.0444C207.216 22.8976 207.302 22.6322 207.517 22.6067L209.257 22.4004C209.403 22.3831 209.529 22.2913 209.591 22.1579L210.325 20.5667Z" fill="#F9AB00"/>
  <path d="M219.175 20.5665C219.266 20.3701 219.545 20.3701 219.636 20.5665L220.37 22.1577C220.431 22.2911 220.557 22.3829 220.703 22.4002L222.443 22.6065C222.658 22.632 222.744 22.8974 222.586 23.0442L221.299 24.234C221.191 24.3337 221.143 24.4823 221.172 24.6263L221.513 26.3451C221.555 26.5572 221.33 26.7212 221.141 26.6156L219.612 25.7596C219.484 25.6879 219.327 25.6879 219.199 25.7596L217.67 26.6156C217.481 26.7212 217.256 26.5572 217.298 26.3451L217.639 24.6263C217.668 24.4823 217.62 24.3337 217.512 24.234L216.225 23.0442C216.067 22.8974 216.153 22.632 216.367 22.6065L218.108 22.4002C218.254 22.3829 218.38 22.2911 218.441 22.1577L219.175 20.5665Z" fill="#F9AB00"/>
  <path d="M228.026 20.5665C228.117 20.3701 228.396 20.3701 228.486 20.5665L229.22 22.1577C229.282 22.2911 229.408 22.3829 229.554 22.4002L231.294 22.6065C231.509 22.632 231.595 22.8974 231.436 23.0442L230.15 24.234C230.042 24.3337 229.994 24.4823 230.022 24.6263L230.364 26.3451C230.406 26.5572 230.18 26.7212 229.992 26.6156L228.462 25.7596C228.334 25.6879 228.178 25.6879 228.05 25.7596L226.521 26.6156C226.332 26.7212 226.106 26.5572 226.148 26.3451L226.49 24.6263C226.519 24.4823 226.47 24.3337 226.363 24.234L225.076 23.0442C224.917 22.8974 225.003 22.632 225.218 22.6065L226.958 22.4002C227.104 22.3829 227.231 22.2911 227.292 22.1577L228.026 20.5665Z" fill="#F9AB00"/>
  <path d="M236.877 20.5665C236.968 20.3701 237.247 20.3701 237.337 20.5665L238.071 22.1577C238.133 22.2911 238.259 22.3829 238.405 22.4002L240.145 22.6065C240.36 22.632 240.446 22.8974 240.288 23.0442L239.001 24.234C238.893 24.3337 238.845 24.4823 238.874 24.6263L239.215 26.3451C239.257 26.5572 239.031 26.7212 238.843 26.6156L237.314 25.7596C237.186 25.6879 237.029 25.6879 236.901 25.7596L235.372 26.6156C235.183 26.7212 234.958 26.5572 235 26.3451L235.341 24.6263C235.37 24.4823 235.322 24.3337 235.214 24.234L233.927 23.0442C233.768 22.8974 233.855 22.632 234.069 22.6065L235.81 22.4002C235.955 22.3829 236.082 22.2911 236.143 22.1577L236.877 20.5665Z" fill="#F9AB00"/>
  <path d="M245.729 20.5665C245.819 20.3701 246.098 20.3701 246.189 20.5665L246.923 22.1577C246.984 22.2911 247.111 22.3829 247.256 22.4002L248.997 22.6065C249.211 22.632 249.298 22.8974 249.139 23.0442L247.852 24.234C247.744 24.3337 247.696 24.4823 247.725 24.6263L248.066 26.3451C248.108 26.5572 247.883 26.7212 247.694 26.6156L246.165 25.7596C246.037 25.6879 245.881 25.6879 245.752 25.7596L244.223 26.6156C244.035 26.7212 243.809 26.5572 243.851 26.3451L244.193 24.6263C244.221 24.4823 244.173 24.3337 244.065 24.234L242.778 23.0442C242.62 22.8974 242.706 22.632 242.921 22.6065L244.661 22.4002C244.807 22.3829 244.933 22.2911 244.995 22.1577L245.729 20.5665Z" fill="#F9AB00"/>
  <path opacity="0.8" d="M244.373 64.2342C244.102 60.5281 240.891 57.7369 237.185 58.0082C235.143 58.1519 233.385 59.1963 232.247 60.7325L230.373 60.5272C230.03 60.4896 229.804 60.8737 230.002 61.1553L231.203 62.859C230.997 63.5937 230.911 64.3811 230.954 65.1762C231.225 68.8823 234.436 71.6735 238.142 71.4022C241.853 71.1508 244.625 67.9456 244.373 64.2342Z" fill="#F1F3F4"/>
  <path opacity="0.8" fill-rule="evenodd" clip-rule="evenodd" d="M248.118 50.5768C248.117 50.6231 248.117 50.6695 248.117 50.7161C248.117 54.7432 251.382 58.0078 255.409 58.0078H267.127C271.154 58.0078 274.419 54.7432 274.419 50.7161C274.419 46.6889 271.154 43.4243 267.127 43.4243H255.409C252.308 43.4243 249.659 45.3599 248.605 48.0887L246.551 48.4047C246.21 48.4571 246.091 48.8867 246.355 49.1073L248.118 50.5768Z" fill="#E8EAED"/>
  <g opacity="0.8">
    <path fill-rule="evenodd" clip-rule="evenodd" d="M64.4447 63.5315C64.4457 63.5848 64.4462 63.6382 64.4462 63.6918C64.4462 68.3254 60.6899 72.0816 56.0564 72.0816H35.9323C31.2988 72.0816 27.5425 68.3254 27.5425 63.6918C27.5425 59.0582 31.2988 55.302 35.9323 55.302H56.0564C59.6242 55.302 62.6718 57.529 63.885 60.6688L66.3802 61.0527C66.7207 61.1051 66.8401 61.5347 66.5755 61.7553L64.4447 63.5315Z" fill="#E8EAED"/>
  </g>
  <path d="M222.967 62.154C222.5 55.772 216.971 50.9656 210.589 51.4327C207.073 51.6803 204.045 53.4786 202.086 56.1241L198.442 55.7249C198.014 55.678 197.731 56.1581 197.979 56.51L200.288 59.786C199.933 61.0511 199.784 62.4069 199.859 63.7761C200.326 70.1581 205.854 74.9645 212.236 74.4974C218.627 74.0644 223.4 68.5451 222.967 62.154Z" fill="#CEEAD6"/>
  <line x1="206.805" y1="61.0167" x2="215.834" y2="61.0167" stroke="#34A853" stroke-width="1.5" stroke-linecap="round"/>
  <line x1="206.805" y1="65.2665" x2="212.503" y2="65.2665" stroke="#34A853" stroke-width="1.5" stroke-linecap="round"/>
  <path d="M76.7377 12.382C85.912 7.94425 96.9436 11.742 101.381 20.9163C103.84 25.9632 103.77 31.571 101.682 36.3807L105.523 41.6181C105.778 41.9653 105.503 42.4506 105.075 42.4117L98.0628 41.7754C96.6011 43.2732 94.8493 44.5577 92.9015 45.5454C83.7272 49.9832 72.6956 46.1854 68.2579 37.0111C63.7658 27.8514 67.578 16.8741 76.7377 12.382Z" fill="#E6F4EA"/>
  <path fill-rule="evenodd" clip-rule="evenodd" d="M84.8365 39.9724C85.1647 39.9708 85.4923 39.697 85.5471 39.3687C85.9312 37.4479 87.7424 34.6489 88.3461 33.7708C89.0047 32.7829 90.596 30.9169 90.596 30.9169C91.4742 29.7095 92.023 28.2826 92.023 26.691C92.1877 22.6846 89.0595 19.4465 84.9982 19.6112C84.9442 19.609 84.8902 19.6074 84.8365 19.6064V23.7827C84.8537 23.7824 84.871 23.7822 84.8884 23.7822C86.3153 23.7822 87.413 24.9347 87.413 26.3068C87.4679 27.6788 86.3153 28.8314 84.8884 28.8314C84.871 28.8314 84.8537 28.8312 84.8365 28.8309V39.9724Z" fill="#CEEAD6" stroke="#CEEAD6" stroke-width="0.7" stroke-linejoin="round"/>
  <path fill-rule="evenodd" clip-rule="evenodd" d="M84.8365 39.9724C85.1647 39.9708 85.4923 39.697 85.5471 39.3687C85.9312 37.4479 87.7424 34.6489 88.3461 33.7708C89.0047 32.7829 90.596 30.9169 90.596 30.9169C91.4742 29.7095 92.023 28.2826 92.023 26.691C92.1877 22.6846 89.0595 19.4465 84.9982 19.6112C84.9442 19.609 84.8902 19.6074 84.8365 19.6064V23.7827C84.8537 23.7824 84.871 23.7822 84.8884 23.7822C86.3153 23.7822 87.413 24.9347 87.413 26.3068C87.4679 27.6788 86.3153 28.8314 84.8884 28.8314C84.871 28.8314 84.8537 28.8312 84.8365 28.8309V39.9724Z" fill="none" stroke="#188038" stroke-width="0.7" stroke-linecap="round" stroke-linejoin="round" stroke-dasharray="1 1.6"/>
  <path fill-rule="evenodd" clip-rule="evenodd" d="M84.8365 39.9724C84.5082 39.9708 84.1806 39.697 84.1259 39.3687C83.7417 37.4479 81.9305 34.6489 81.3268 33.7708C80.6682 32.7829 79.0769 30.9169 79.0769 30.9169C78.1988 29.7095 77.6499 28.2826 77.6499 26.691C77.4852 22.6846 80.6134 19.4465 84.6747 19.6112C84.7288 19.609 84.7827 19.6074 84.8365 19.6064V23.7827C84.8192 23.7824 84.8019 23.7822 84.7846 23.7822C83.3576 23.7822 82.2599 24.9347 82.2599 26.3068C82.205 27.6788 83.3576 28.8314 84.7846 28.8314C84.8019 28.8314 84.8192 28.8312 84.8365 28.8309V39.9724Z" fill="#34A853" stroke="#34A853" stroke-width="0.7" stroke-dasharray="none"/>
  <g opacity="0.8">
    <path d="M45.9446 32.2072C50.219 30.1396 55.3588 31.909 57.4264 36.1834C58.5718 38.5349 58.5395 41.1476 57.5666 43.3885L59.137 45.53C59.3407 45.8078 59.1214 46.1961 58.7783 46.1649L55.8802 45.9019C55.1992 46.5998 54.383 47.1982 53.4755 47.6584C49.2011 49.726 44.0614 47.9566 41.9938 43.6822C39.9009 39.4146 41.677 34.3001 45.9446 32.2072Z" fill="#F1F3F4"/>
  </g>
  <g opacity="0.8">
    <path d="M143.924 7.91704C147.759 7.18438 151.466 9.68404 152.198 13.5197C152.608 15.6315 152.026 17.7002 150.776 19.2732L151.511 21.162C151.636 21.4831 151.323 21.8013 151 21.6824L148.901 20.9109C148.212 21.3204 147.436 21.6221 146.617 21.7944C142.782 22.5271 139.075 20.0275 138.342 16.1918C137.588 12.3561 140.088 8.67125 143.924 7.91704Z" fill="#F1F3F4"/>
  </g>
</g>
</svg>
