<svg width="92" height="98" fill="none" xmlns="http://www.w3.org/2000/svg"><g clip-path="url(#clip0_2801_6812)"><path d="M33.7507 82.169c-1.206-1.4659-2.7611-2.188-4.2739-2.15h-.1058c-1.5128-.0326-3.0679.6895-4.2739 2.15-2.5707 3.1218-2.5654 8.5781.0159 11.6999 1.1954 1.4442 2.7452 2.1608 4.258 2.1282h.1058c1.5128.0326 3.0626-.684 4.2581-2.1282 2.5812-3.1164 2.5918-8.5727.0158-11.6999z" fill="#9AA0A6"/><path d="M55.7132 93.4904c-10.5843 0-21.1686-.0054-31.7476.0054-3.3218 0-5.3583-1.4387-6.0248-4.7668-1.2166-6.0916-.9626-12.1234 1.2378-17.9978 3.8719-10.3427 10.4838-18.1824 20.1794-23.1719 3.1843-1.6396 6.5855-2.3725 10.1612-2.3508 6.8393.0434 13.6733.0163 20.5127.0217 11.9119.0109 19.862 6.8245 21.6498 19.0131 1.3436 9.1807 1.1108 18.3561-1.4493 27.374-.402 1.417-.9309 1.9111-2.4172 1.9002-10.7007-.076-21.4014-.038-32.1073-.038.0053.0055.0053.0055.0053.0109z" fill="#8AB4F8"/><path d="M24.0397 87.7888H35.227c1.2907 0 2.3433-1.0804 2.3433-2.4052 0-1.3247-1.0526-2.4051-2.3433-2.4051H24.0397c-1.2906 0-2.3432 1.0804-2.3432 2.4051-.0053 1.3302 1.0473 2.4052 2.3432 2.4052zm11.1873-4.1371c.931 0 1.6874.7764 1.6874 1.7319 0 .9556-.7564 1.732-1.6874 1.732H24.0397c-.9309 0-1.6873-.7764-1.6873-1.732 0-.9555.7564-1.7319 1.6873-1.7319H35.227zM71.3376 71.2247c.0529 0 .1005-.0109.1481-.038l4.8716-2.5681c.164-.0868.2275-.2877.1428-.456-.0846-.1683-.2804-.2335-.4443-.1466l-4.8716 2.568c-.164.0869-.2275.2878-.1429.4561.0582.1194.1746.1846.2963.1846zM62.2666 90.2058c.0159 0 .037-.0001.0529-.0055l9.0715-1.5527c.1798-.0326.3015-.2063.2697-.3909-.0317-.1846-.2009-.3095-.3808-.2769l-9.0715 1.5527c-.1798.0326-.3015.2063-.2698.3909.0265.1629.1693.2824.328.2824zM87.1783 74.2056v-6.0807c0-2.4594 1.8037-4.4899 4.1258-4.7831.0317.1954.0688.3855.0952.5809.0053.0272.0053.0543.0106.0869-2.01.2389-3.5757 1.9871-3.5757 4.1153v6.0807c0 2.2857 1.809 4.1425 4.0359 4.1425.0741 0 .1534-.0054.2274-.0108-.0105.228-.0264.4506-.0423.6786-.0634 0-.1216.0109-.1851.0109-2.5865 0-4.6918-2.1663-4.6918-4.8212z" fill="#D2E3FC"/><path d="M48.6676 81.0032c1.534-1.8622 3.5969-2.9155 5.6862-2.872h.1852c2.084-.0435 4.1522 1.0098 5.6862 2.872 2.6765 3.2467 3.216 8.4262 1.6503 12.4763h-.6983c1.608-3.8601 1.1267-8.9039-1.4546-12.0419-1.4123-1.7157-3.3112-2.6875-5.2048-2.6332-.0212 0-.0423 0-.0635-.0054v.0054h-.0793c-1.8937-.0597-3.7926.9175-5.2049 2.6332-2.5866 3.138-3.0679 8.1926-1.4493 12.0528h-.6982c-1.571-4.0502-1.0315-9.2405 1.645-12.4872zM73.5652 81.0032c1.534-1.8622 3.5969-2.9155 5.6862-2.872H79.4365c2.0894-.0435 4.1523 1.0098 5.6862 2.872 2.6818 3.2576 3.2214 8.4587 1.6398 12.5143-.2327 0-.4655 0-.6982-.0054 1.6239-3.8602 1.1478-8.931-1.444-12.0745-1.4123-1.7157-3.3112-2.6821-5.2049-2.6332-.0211 0-.0423 0-.0635-.0054v.0054h-.0793c-1.8884-.0597-3.7926.9175-5.2049 2.6332-2.5812 3.1326-3.0626 8.1818-1.4599 12.0365h-.6982c-1.5604-4.0502-1.0156-9.2242 1.6556-12.4709z" fill="#3C4043"/><path d="M58.7754 83.1699c-1.206-1.4658-2.7612-2.1879-4.2739-2.1499h-.1058c-1.5128-.0326-3.0679.6895-4.2739 2.1499-2.5707 3.1218-2.5655 8.5782.0158 11.7 1.1954 1.4441 2.7453 2.1608 4.2581 2.1282h.1058c1.5127.0326 3.0626-.6841 4.258-2.1282 2.5813-3.1164 2.5866-8.5727.0159-11.7zM83.673 83.1699c-1.206-1.4658-2.7611-2.1879-4.2739-2.1499h-.1058c-1.5128-.0326-3.0679.6895-4.2739 2.1499-2.5707 3.1218-2.5654 8.5782.0159 11.7 1.1954 1.4441 2.7452 2.1608 4.258 2.1282h.1058c1.5128.0326 3.0626-.6841 4.258-2.1282 2.5813-3.1164 2.5866-8.5727.0159-11.7z" fill="#9AA0A6"/><path d="M46.821 70.7039c2.2797 0 4.3373.0217 6.3897-.0054 1.5233-.0217 2.6553-.7004 3.0467-2.2857.4179-1.6993-.8622-3.225-2.8351-3.3878-.9469-.076-1.899-.0326-2.8511-.0326-.8781-.0054-1.7561 0-2.8352 0 .1693-.6949.2116-1.1781.3915-1.5908 3.5016-7.9157 8.9762-13.6816 17.4394-15.5492 5.2313-1.151 10.2088-.1466 13.8902 4.4248 3.507 4.3597 2.4755 10.4892-2.4331 13.0952-6.9081 3.6702-13.9114 7.1612-20.9411 10.5816-3.8455 1.873-7.527-.1738-9.2619-5.2501z" fill="#5F6368"/><path d="M57.9082 48.6988c-.4549.3529-.9098.695-1.3594 1.0587-6.0195 4.832-10.7006 10.6955-13.2978 18.1661-.7299 2.1011-1.7773 2.9209-3.9883 2.9318-5.2895.0326-10.5737.0489-15.8632 0-2.8563-.0271-3.8825-1.8459-2.6077-4.4574 3.5122-7.2045 8.569-12.9812 15.2866-17.1617.8569-.5321 1.9783-.8578 2.978-.8741 6.2311-.076 12.4674-.038 18.6984-.038.0529.1303.1005.2497.1534.3746z" fill="#5F6368"/><path d="M71.0455 69.3843c.1798 0 .3279-.152.3279-.3366V46.4948c0-.1846-.1481-.3366-.3279-.3366-.1799 0-.328.152-.328.3366v22.5529c0 .1846.1481.3366.328.3366z" fill="#8AB4F8"/><path d="M42.336 73.3155c1.4281-.0109 2.6447 1.6125 2.6447 3.5344 0 1.7536-1.2218 3.3552-2.5971 3.4041-1.4493.0543-2.7294-1.5582-2.7347-3.4475-.0158-1.9111 1.1954-3.4802 2.6871-3.491zM20.2995 76.8118c.0212 1.7971-1.1954 3.4476-2.5284 3.4367-.1745 0-.3438-.0326-.513-.0869.1005-2.2368.439-4.4628 1.0367-6.6616 1.0949.3963 1.9836 1.7971 2.0047 3.3118z" fill="#5F6368"/><path fill-rule="evenodd" clip-rule="evenodd" d="M16.3661 0h24.562c9.0009 0 16.3662 7.48005 16.3662 16.6212 0 7.5501-5.0252 13.9645-11.8485 15.9658.0443 2.6218-.1428 7.8103-.1428 7.8103l-7.045-7.1548H16.3661c-9.00092 0-16.36622-7.4801-16.36622-16.6213C-.00012 7.48005 7.36518 0 16.3661 0z" fill="#80868B"/><rect x="26" y="11.4995" width="18" height="10" rx="5" fill="#BDC1C6"/><path d="M21.3422 23.3395s.1796-1.5081.1796-2.1904c0-6.4133-5.0775-12.17303-12.08689-12.17303 0 0-.17954 1.50813-.17954 2.19043.00718 6.4061 5.08463 12.173 12.08683 12.173z" fill="#82CC52"/><path d="M21.342 23.3395L9.44187 8.97607s-.17954 1.50813-.17954 2.19043c0 6.4061 5.07747 12.173 12.07967 12.173z" fill="#137333"/></g><defs><clipPath id="clip0_2801_6812"><path fill="#fff" d="M0 0h92v98H0z"/></clipPath></defs></svg>