<?xml version="1.0" encoding="utf-8"?>
<!-- Generator: Adobe Illustrator 24.0.1, SVG Export Plug-In . SVG Version: 6.00 Build 0)  -->
<svg version="1.1" id="Layer_1" xmlns="http://www.w3.org/2000/svg" xmlns:xlink="http://www.w3.org/1999/xlink" x="0px" y="0px" width="210px" height="90px" viewBox="0 0 210 90" enable-background="new 0 0 210 90" xml:space="preserve">
    <radialGradient id="SVGID_1_" cx="87.5435" cy="96.9348" r="90.5946" gradientTransform="matrix(1 0 0 -1 0 92)" gradientUnits="userSpaceOnUse">
        <stop offset="0" style="stop-color:#5F6368"></stop>
        <stop offset="1" style="stop-color:#202124;stop-opacity:0"></stop>
    </radialGradient>
    <path fill="url(#SVGID_1_)" d="M79.25,82.673h-4.269c-0.4,0-0.849,0.174-1.002,0.389l-1.46,2.046h0.221
	c0.345,0,0.518,0.15,0.385,0.335c-0.036,0.051-0.095,0.098-0.164,0.142l0.169-0.027c0.249-0.04,0.472-0.157,0.537-0.281l0.993-1.893
	c0.196-0.374,1.116-0.691,1.752-0.517c0.265,0.073,0.387,0.225,0.366,0.401l-0.281,2.357c-0.049,0.408-0.743,0.839-1.58,1.003
	l-2.289,0.504l-0.515,0.463l2.278-0.401c0.01-0.002,0.021-0.004,0.031-0.005l0.03-0.005c0.031-0.005,0.056-0.003,0.086-0.006
	c0.057-0.006,0.114-0.017,0.17-0.017h0.061c0.018,0,0.036-0.001,0.052,0h1.227c0.4,0,0.849-0.174,1.002-0.389l2.647-3.71
	C79.85,82.847,79.65,82.673,79.25,82.673z"></path>
    <radialGradient id="SVGID_2_" cx="176.7283" cy="50.4022" r="10.1616" gradientTransform="matrix(1 0 0 -1 0 92)" gradientUnits="userSpaceOnUse">
        <stop offset="0" style="stop-color:#5F6368"></stop>
        <stop offset="1" style="stop-color:#202124;stop-opacity:0"></stop>
    </radialGradient>
    <path fill="url(#SVGID_2_)" d="M180.196,49.152c0.454,0.175,0.799,0.4,1.015,0.663c0.016-0.007,0.028-0.014,0.044-0.021
	c0.504-0.209,1.047-0.374,1.596-0.494l-0.701-0.909L180.196,49.152z"></path>
    <path fill="#3C4043" d="M152.178,49.813h-30.05c-0.287,0-0.519,0.284-0.519,0.634s0.232,0.634,0.519,0.634h30.05V49.813z"></path>
    <linearGradient id="SVGID_3_" gradientUnits="userSpaceOnUse" x1="531.2922" y1="80.0185" x2="553.027" y2="80.6279" gradientTransform="matrix(-1 0 0 1 729.4348 -30)">
        <stop offset="0.3639" style="stop-color:#3C4043;stop-opacity:0"></stop>
        <stop offset="0.4223" style="stop-color:#3C4043;stop-opacity:0.0917"></stop>
        <stop offset="0.515" style="stop-color:#ECE4CB;stop-opacity:0.2376"></stop>
        <stop offset="0.6307" style="stop-color:#FCC934;stop-opacity:0.4193"></stop>
        <stop offset="0.7646" style="stop-color:#FCC934;stop-opacity:0.6299"></stop>
        <stop offset="0.9121" style="stop-color:#FCC934;stop-opacity:0.8619"></stop>
        <stop offset="1" style="stop-color:#FCC934"></stop>
    </linearGradient>
    <polygon fill="url(#SVGID_3_)" points="191.357,49.811 174.431,49.811 174.431,51.081 191.357,51.081 "></polygon>
    <path fill="#3C4043" d="M158.344,65.011h-52.49c-0.287,0-0.519-0.283-0.519-0.631c0-0.349,0.232-0.631,0.519-0.631h52.49
	c0.287,0,0.519,0.283,0.519,0.631C158.863,64.728,158.63,65.011,158.344,65.011z"></path>
    <linearGradient id="SVGID_4_" gradientUnits="userSpaceOnUse" x1="33.1747" y1="109.9415" x2="54.9095" y2="110.5509" gradientTransform="matrix(1 0 0 1 0 -30)">
        <stop offset="0.3639" style="stop-color:#3C4043;stop-opacity:0"></stop>
        <stop offset="0.4465" style="stop-color:#EAE2E2;stop-opacity:0.1299"></stop>
        <stop offset="0.5779" style="stop-color:#EBCDCB;stop-opacity:0.3363"></stop>
        <stop offset="0.7414" style="stop-color:#D93025;stop-opacity:0.5934"></stop>
        <stop offset="0.9291" style="stop-color:#EE675C;stop-opacity:0.8885"></stop>
        <stop offset="1" style="stop-color:#EE675C"></stop>
    </linearGradient>
    <rect x="39.96" y="79.734" fill="url(#SVGID_4_)" width="16.926" height="1.27"></rect>
    <path fill="#3C4043" d="M109.189,80.989H56.717c-0.287,0-0.519-0.285-0.519-0.636s0.232-0.636,0.519-0.636h52.473
	c0.287,0,0.519,0.285,0.519,0.636C109.708,80.704,109.476,80.989,109.189,80.989z"></path>
    <path fill="#EE675C" d="M56.497,79.719h23.165c0.341,0.006,0.618,0.258,0.652,0.559c0.04,0.349-0.251,0.699-0.652,0.711
	c-7.722,0-15.443,0-23.165,0V79.719z"></path>
    <linearGradient id="SVGID_5_" gradientUnits="userSpaceOnUse" x1="1198.6914" y1="-322.8875" x2="1181.4515" y2="-322.8875" gradientTransform="matrix(-1 0 0 1 1307.625 403.24)">
        <stop offset="0.0583" style="stop-color:#3C4043"></stop>
        <stop offset="1" style="stop-color:#3C4043;stop-opacity:0"></stop>
    </linearGradient>
    <polygon fill="url(#SVGID_5_)" points="126.593,80.988 109.189,80.988 109.189,79.717 126.593,79.717 "></polygon>
    <linearGradient id="SVGID_6_" gradientUnits="userSpaceOnUse" x1="1149.5845" y1="-338.8615" x2="1132.3152" y2="-338.8615" gradientTransform="matrix(-1 0 0 1 1307.625 403.24)">
        <stop offset="0.0583" style="stop-color:#3C4043"></stop>
        <stop offset="1" style="stop-color:#3C4043;stop-opacity:0"></stop>
    </linearGradient>
    <polygon fill="url(#SVGID_6_)" points="175.73,65.005 158.297,65.005 158.297,63.752 175.73,63.752 "></polygon>
    <linearGradient id="SVGID_7_" gradientUnits="userSpaceOnUse" x1="82.2259" y1="93.9345" x2="103.9607" y2="94.5439" gradientTransform="matrix(1 0 0 1 0 -30)">
        <stop offset="0.3639" style="stop-color:#3C4043;stop-opacity:0"></stop>
        <stop offset="0.4371" style="stop-color:#3C4043;stop-opacity:0.1151"></stop>
        <stop offset="0.5535" style="stop-color:#CBD7EC;stop-opacity:0.2979"></stop>
        <stop offset="0.6984" style="stop-color:#669DF6;stop-opacity:0.5258"></stop>
        <stop offset="0.8645" style="stop-color:#669DF6;stop-opacity:0.787"></stop>
        <stop offset="1" style="stop-color:#669DF6"></stop>
    </linearGradient>
    <rect x="89.011" y="63.727" fill="url(#SVGID_7_)" width="16.926" height="1.27"></rect>
    <path fill="#669DF6" d="M105.634,63.727h23.165c0.341,0.006,0.618,0.258,0.652,0.559c0.04,0.349-0.251,0.699-0.652,0.711
	c-7.722,0-15.443,0-23.165,0C105.634,64.997,105.634,63.727,105.634,63.727z"></path>
    <path fill="#FCC934" d="M174.821,49.811h-23.165c-0.341,0.006-0.618,0.258-0.652,0.559c-0.04,0.349,0.251,0.699,0.652,0.711
	c7.722,0,15.443,0,23.165,0L174.821,49.811L174.821,49.811z"></path>
    <radialGradient id="SVGID_8_" cx="101.8615" cy="61.0537" r="101.604" gradientTransform="matrix(1 0 0 -0.6422 0 62.3538)" gradientUnits="userSpaceOnUse">
        <stop offset="0" style="stop-color:#5F6368"></stop>
        <stop offset="1" style="stop-color:#202124;stop-opacity:0"></stop>
    </radialGradient>
    <path fill="url(#SVGID_8_)" d="M1.5,44.889v47.71h45.272c-0.011-0.116,0.021-0.241,0.111-0.373l5.966-8.707
	c0.366-0.535,1.486-0.972,2.557-1.023l0.583-0.851c-0.226-0.326-0.136-0.622-0.136-0.622h8.203c0,0-1.371,1.468-5.016,1.468
	c-1.751,0-2.55-0.339-2.913-0.691l-0.471,0.688c1.097,0.013,1.681,0.471,1.297,1.031l-5.966,8.707c-0.09,0.132-0.23,0.257-0.4,0.373
	H208.5v-47.71H1.5z M33.589,57.318c-0.616,0.989-2.447,1.792-4.089,1.792c-0.27,0-0.508-0.029-0.731-0.069
	c-1.108,0.786-2.719,1.34-4.274,1.427l-7.75,12.453c-0.556,0.893-2.454,1.49-3.582,1.127L3.59,70.966l2.356-3.785l-3.827-1.652
	l7.25-11.648h6.859h0.225h1.831h0.225h1.602h0.225h1.831h0.225h1.603h0.225h1.831h0.225h2.317l-0.979,1.573
	c0.386,0.023,0.742,0.072,1.048,0.158l2.783-1.46c0.029-0.02-0.003-0.064,0.032-0.064c0.015,0-0.025,0.013,0.032,0.006
	c0.039-0.004,0.08,0.067,0.038,0.096l-2.737,1.467c0.262,0.086,0.479,0.198,0.668,0.326c0.7-0.281,1.494-0.457,2.252-0.457
	C33.373,55.526,34.205,56.329,33.589,57.318z M59.918,57.561c-0.999,0-1.586-0.642-1.537-1.534c-0.685,0.99-1.889,1.714-2.971,1.714
	c-1.067,0-1.686-0.704-1.594-1.673c-0.704,1.083-2.003,1.887-3.168,1.887c-1.251,0-2.062-0.926-1.748-2.13
	c-0.765,1.057-1.91,1.822-3.08,1.822c-1.364,0-2.373-1.041-1.715-2.987h19.422C62.407,57.503,59.918,57.561,59.918,57.561z
	 M87.744,82.313c-1.068,0.94-3.135,1.642-5.006,1.642c-0.087,0-0.172-0.002-0.256-0.005c-0.345-0.013-0.754,0.117-0.964,0.303
	l-3.351,3.155c-0.319,0.305-0.972,0.527-1.549,0.527h-2.002c-0.009,0.002-0.015,0.006-0.024,0.008l-3.239,0.843
	c-0.176,0.046-0.339,0.115-0.463,0.198l-0.215,0.142l-0.001,0.001l-1.123,0.743h-0.002l-0.057,0.038l-0.022-0.001
	c-0.515,0.318-1.258,0.536-1.942,0.536c-1.298,0-1.948-0.565-1.45-1.262l0.516-0.723l0.732-1.025l0.325-0.455l0.079-0.111
	l0.02,0.001c0.484-0.549,1.56-0.993,2.624-1.09h-5.168L65.1,85.596l-0.213-0.366l-0.071-0.122l-1.541-2.65
	c-0.15-0.258,0.446-0.611,1.031-0.611h1.222h0.798c0.658-0.923,2.586-1.67,4.304-1.67c1.719,0,2.578,0.748,1.92,1.67h0.926h0.831
	h6.259h0.567c0.658-0.923,2.586-1.67,4.304-1.67c1.719,0,2.578,0.748,1.92,1.67h0.009C87.824,81.847,88.016,82.074,87.744,82.313z
	 M101.807,58.754l-9.654,2.538h-7.655l-6.862-2.538l1.844-1.789h-0.013l1.251-2.398h0.062h22.15h4.307l-1.92,0.923h-2.869
	l-0.762,1.461L101.807,58.754z M129.101,67.502c-0.17,0.122-0.355,0.238-0.537,0.355c-0.047,0.072-0.141,0.152-0.288,0.239
	c-1.668,0.987-3.797,1.779-6.421,2.352c-0.171,0.037-0.363,0.067-0.557,0.087c-0.235,0.048-0.463,0.098-0.705,0.143
	c-1.224,0.225-2.471,0.325-3.735,0.322c-2.418-0.006-4.84-0.002-7.26-0.003c-4.216-0.001-6.63-0.935-6.544-2.606
	c0.065-1.259,0.687-2.516,2.125-3.753c0.226-0.194,0.442-0.262,0.967-0.261c0.17,0,0.341,0,0.511,0
	c0.196-0.132,0.42-0.257,0.694-0.364c0.65-0.253,1.406-0.379,2.088-0.373c0.008,0,0.015,0,0.023,0s0.015,0,0.023,0
	c0.687-0.006,1.335,0.12,1.767,0.373c0.183,0.107,0.3,0.234,0.383,0.366c1.277,0,2.553,0.002,3.829,0.002
	c0.197-0.134,0.424-0.26,0.701-0.368c0.65-0.253,1.406-0.379,2.088-0.373c0.008,0,0.015,0,0.023,0s0.015,0,0.023,0
	c0.687-0.006,1.335,0.12,1.767,0.373c0.184,0.108,0.302,0.235,0.384,0.368c1.508,0,3.016,0,4.524,0
	c0.119-0.068,0.25-0.132,0.397-0.189c0.508-0.198,1.1-0.296,1.633-0.292c0.006,0,0.012,0,0.018,0s0.012,0,0.018,0
	c0.537-0.005,1.044,0.094,1.382,0.292c0.098,0.057,0.174,0.121,0.235,0.189c0.03,0,0.061,0,0.091,0c1.176,0,1.812,0.197,1.851,0.653
	C130.67,65.87,130.224,66.698,129.101,67.502z M170.169,52.943l-0.328,0.444l-0.636,0.863l-1.08,1.465l-2.184,2.963
	c-0.261,0.354-0.928,0.631-1.521,0.631h-25.94c-0.745,0-1.278-0.241-1.393-0.631l-0.663-2.256c-0.066-0.224-0.075-0.462-0.028-0.708
	c0.045-0.239,0.142-0.486,0.291-0.735c0.015-0.025,0.03-0.05,0.046-0.075l0.968-1.518l0.347-0.544
	c0.402-0.631,1.582-1.142,2.636-1.142h2.112c0.646-0.731,2.048-1.294,3.32-1.294s1.956,0.563,1.67,1.294h14.488
	c0.646-0.731,2.048-1.294,3.32-1.294s1.956,0.563,1.67,1.294h1.74C170.133,51.7,170.666,52.269,170.169,52.943z M183.108,49.255
	c1.554-0.298,3.125-0.24,3.995,0.228c0.656,0.353,0.78,0.863,0.447,1.388c0.213,0.01,0.422,0.029,0.623,0.058
	c1.864,0.268,2.418,1.269,1.237,2.236s-3.649,1.533-5.513,1.265c-1.402-0.202-2.063-0.818-1.802-1.523
	c-0.904,0.009-1.709-0.126-2.246-0.415c-0.034-0.018-0.052-0.041-0.083-0.06c-1.367,0.742-3.353,1.248-5.282,1.248
	c-2.865,0-4.484-1.104-3.617-2.465c0.867-1.361,3.894-2.465,6.759-2.465c0.955,0,1.754,0.131,2.386,0.345l2.104-0.819l0.511-0.801
	c-0.82-0.194-0.879-0.668-0.879-0.668h1.305l0.001-0.001h0.243l-0.001,0.001h9.297c0.029-0.046-1.619,1.398-4.57,1.383
	c-2.297-0.012-2.965-0.83-2.965-0.83c-1.021,0.212-1.725,0.228-2.214,0.154l-0.489,0.767L183.108,49.255z"></path>
    <path fill="#5F6368" d="M32.052,44.913v-7.841c0-1.967,1.6-3.567,3.566-3.567c1.967,0,3.567,1.6,3.567,3.567v7.841h0.779v-7.841
	c0-2.396-1.949-4.346-4.346-4.346c-2.396,0-4.345,1.949-4.345,4.346v7.841H32.052z"></path>
    <linearGradient id="SVGID_9_" gradientUnits="userSpaceOnUse" x1="905.3615" y1="26.5202" x2="905.3615" y2="76.3036" gradientTransform="matrix(-1 0 0 1 1070 -30)">
        <stop offset="0" style="stop-color:#5F6368"></stop>
        <stop offset="1" style="stop-color:#202124;stop-opacity:0"></stop>
    </linearGradient>
    <path fill="url(#SVGID_9_)" d="M207.881,44.884l-13.442-20.875c-4.221-5.821-11.249-8.405-17.729-6.235
	c-0.271,0.091-0.545,0.188-0.823,0.293c-9.298,3.503-15.498-15.387-25.823-17.042c-12.544-2.01-16.34,9.149-16.34,9.149
	l-12.328,34.713L207.881,44.884z"></path>
    <path fill="#202124" d="M141.907,6.158c3.842-0.297,7.933,1.207,10.426,3.827c1.366,1.436,1.924,2.646,1.705,3.699
	c-0.34,1.639-2.51,2.866-5.664,4.205c-1.359,0.577-2.282,1.619-2.534,2.859c-0.213,1.05,0.088,2.09,0.825,2.852
	c0.644,0.665,1.897,0.951,3.264,0.951c1.083,0,2.238-0.179,3.217-0.492l20.085-5.576c-0.236-0.014-0.47-0.035-0.703-0.075
	l-19.456,5.402c-2.156,0.688-5.169,0.695-6.22-0.391c-0.677-0.7-0.953-1.654-0.757-2.619c0.234-1.155,1.102-2.129,2.381-2.672
	c3.229-1.371,5.454-2.642,5.816-4.391c0.237-1.142-0.342-2.428-1.772-3.93c-2.544-2.675-6.72-4.208-10.634-3.908
	c-2.349,0.181-5.598,1.088-8.165,4.278l-0.29,0.816C136.008,7.342,139.458,6.346,141.907,6.158z"></path>
    <linearGradient id="SVGID_10_" gradientUnits="userSpaceOnUse" x1="959.668" y1="32.5491" x2="959.668" y2="40.2986" gradientTransform="matrix(-1 0 0 1 1070 -30)">
        <stop offset="0" style="stop-color:#5F6368"></stop>
        <stop offset="1" style="stop-color:#202124;stop-opacity:0"></stop>
    </linearGradient>
    <path fill="url(#SVGID_10_)" d="M96.046,9.439h28.572c-1.082-3.659-4.664-3.178-7.197-2.302c-1.96,0.677-4.004,0.437-5.892-0.628
	l-0.29-0.164c-0.83-0.468-1.646-0.997-2.457-1.542c-3.932-2.64-6.513-0.284-7.786,1.552c-0.621,0.895-1.466,1.295-2.301,1.096
	C97.678,7.209,96.405,7.365,96.046,9.439z"></path>
    <linearGradient id="SVGID_11_" gradientUnits="userSpaceOnUse" x1="1037.3052" y1="62.995" x2="969.7903" y2="62.995" gradientTransform="matrix(-1 0 0 1 1070 -30)">
        <stop offset="0.4523" style="stop-color:#5F6368"></stop>
        <stop offset="0.7786" style="stop-color:#3C4043;stop-opacity:0.4042"></stop>
        <stop offset="1" style="stop-color:#FFFFFF;stop-opacity:0"></stop>
    </linearGradient>
    <polygon fill="url(#SVGID_11_)" points="28.549,33.408 98.04,33.408 98.04,32.582 28.549,32.582 "></polygon>
    <path fill="#5F6368" d="M61.886,31.8c0,0.431,0.354,0.784,0.786,0.782c0.429-0.002,0.78-0.354,0.78-0.782
	c0-0.431-0.356-0.785-0.786-0.783C62.237,31.02,61.886,31.371,61.886,31.8z"></path>
    <path fill="#5F6368" d="M58.833,31.8c0,0.431,0.354,0.784,0.786,0.782c0.429-0.002,0.78-0.354,0.78-0.782
	c0-0.431-0.356-0.785-0.786-0.783C59.183,31.02,58.833,31.371,58.833,31.8z"></path>
    <path fill="#5F6368" d="M53.884,31.8c0,0.431,0.354,0.784,0.786,0.782c0.429-0.002,0.78-0.354,0.78-0.782
	c0-0.431-0.356-0.785-0.786-0.783C54.234,31.02,53.884,31.371,53.884,31.8z"></path>
    <path fill="#5F6368" d="M50.831,31.8c0,0.431,0.354,0.784,0.786,0.782c0.429-0.002,0.78-0.354,0.78-0.782
	c0-0.431-0.356-0.785-0.786-0.783C51.181,31.02,50.831,31.371,50.831,31.8z"></path>
    <path fill="#5F6368" d="M44.926,31.8c0,0.431,0.354,0.784,0.786,0.782c0.429-0.002,0.78-0.354,0.78-0.782
	c0-0.431-0.356-0.785-0.786-0.783C45.277,31.02,44.926,31.371,44.926,31.8z"></path>
    <path fill="#5F6368" d="M41.873,31.8c0,0.431,0.354,0.784,0.786,0.782c0.429-0.002,0.78-0.354,0.78-0.782
	c0-0.431-0.356-0.785-0.786-0.783C42.223,31.02,41.873,31.371,41.873,31.8z"></path>
    <path fill="#5F6368" d="M36.924,31.8c0,0.431,0.354,0.784,0.786,0.782c0.429-0.002,0.78-0.354,0.78-0.782
	c0-0.431-0.356-0.785-0.786-0.783C37.274,31.02,36.924,31.371,36.924,31.8z"></path>
    <path fill="#5F6368" d="M33.871,31.8c0,0.431,0.354,0.784,0.786,0.782c0.429-0.002,0.78-0.354,0.78-0.782
	c0-0.431-0.356-0.785-0.786-0.783C34.221,31.02,33.871,31.371,33.871,31.8z"></path>
    <path fill="#5BB974" d="M48.923,27.289c0-0.574,0.465-1.039,1.039-1.039h4.481h5.958c0.453,0,0.889,0.154,1.239,0.429
	c0.1,0.079,3.204,2.159,4.223,2.95c0.249,0.193,0.319,0.543,0.319,0.858c0,0.292-0.095,0.561-0.256,0.779l0,0
	c-0.239,0.323-0.623,0.533-1.056,0.533H54.474h-4.483c-0.59,0-1.068-0.478-1.068-1.068L48.923,27.289z"></path>
    <polygon fill="#3C4043" points="49.128,28.469 63.939,28.469 62.224,27.312 49.128,27.312 "></polygon>
    <line fill="none" stroke="#5BB974" stroke-width="0.2596" stroke-linecap="round" stroke-miterlimit="10" x1="60.687" y1="27.312" x2="60.687" y2="28.469"></line>
    <line fill="none" stroke="#5BB974" stroke-width="0.2596" stroke-linecap="round" stroke-miterlimit="10" x1="58.504" y1="27.312" x2="58.504" y2="28.469"></line>
    <line fill="none" stroke="#5BB974" stroke-width="0.2596" stroke-linecap="round" stroke-miterlimit="10" x1="54.155" y1="27.312" x2="54.155" y2="28.469"></line>
    <line fill="none" stroke="#5BB974" stroke-width="0.2596" stroke-linecap="round" stroke-miterlimit="10" x1="56.308" y1="27.312" x2="56.308" y2="28.469"></line>
    <line fill="none" stroke="#5BB974" stroke-width="0.2596" stroke-linecap="round" stroke-miterlimit="10" x1="51.955" y1="27.312" x2="51.955" y2="28.469"></line>
    <line fill="none" stroke="#5BB974" stroke-width="0.2596" stroke-linecap="round" stroke-miterlimit="10" x1="49.099" y1="30.577" x2="47.367" y2="30.577"></line>
    <path fill="#5BB974" d="M46.905,26.25c0.511,0,0.925,0.414,0.925,0.925v3.699c0,0.511-0.414,0.924-0.924,0.925L33.627,31.8
	c-0.511,0-0.925-0.414-0.925-0.925v-3.701c0-0.511,0.414-0.925,0.925-0.925L46.905,26.25L46.905,26.25z"></path>
    <path fill="#3C4043" d="M54.675,30.675h1.12c0.245,0,0.443-0.198,0.443-0.443v-2.92h-2.006v2.92
	C54.232,30.477,54.43,30.675,54.675,30.675z"></path>
    <line fill="none" stroke="#5BB974" stroke-width="0.2596" stroke-linecap="round" stroke-miterlimit="10" x1="55.235" y1="27.312" x2="55.235" y2="30.788"></line>
    <rect x="32.926" y="27.312" fill="#3C4043" width="14.68" height="1.157"></rect>
    <line fill="none" stroke="#5BB974" stroke-width="0.2596" stroke-linecap="round" stroke-miterlimit="10" x1="45.694" y1="27.157" x2="45.694" y2="28.617"></line>
    <line fill="none" stroke="#5BB974" stroke-width="0.2596" stroke-linecap="round" stroke-miterlimit="10" x1="43.45" y1="27.193" x2="43.45" y2="28.572"></line>
    <line fill="none" stroke="#5BB974" stroke-width="0.2596" stroke-linecap="round" stroke-miterlimit="10" x1="39.125" y1="27.312" x2="39.125" y2="28.469"></line>
    <line fill="none" stroke="#5BB974" stroke-width="0.2596" stroke-linecap="round" stroke-miterlimit="10" x1="41.272" y1="27.215" x2="41.272" y2="28.572"></line>
    <line fill="none" stroke="#5BB974" stroke-width="0.2596" stroke-linecap="round" stroke-miterlimit="10" x1="36.901" y1="27.215" x2="36.901" y2="28.572"></line>
    <line fill="none" stroke="#5BB974" stroke-width="0.2596" stroke-linecap="round" stroke-miterlimit="10" x1="34.804" y1="27.128" x2="34.804" y2="28.572"></line>
    <path fill="#3C4043" d="M39.622,30.675h1.12c0.245,0,0.443-0.198,0.443-0.443v-2.92h-2.006v2.92
	C39.178,30.477,39.377,30.675,39.622,30.675z"></path>
    <line fill="none" stroke="#5BB974" stroke-width="0.2596" stroke-linecap="round" stroke-miterlimit="10" x1="40.182" y1="27.193" x2="40.182" y2="30.752"></line>
    <path fill="#5F6368" d="M28.53,31.8c0,0.431,0.354,0.784,0.786,0.782c0.429-0.002,0.78-0.354,0.78-0.782
	c0-0.431-0.356-0.785-0.786-0.783C28.88,31.02,28.53,31.371,28.53,31.8z"></path>
    <path fill="#5F6368" d="M25.476,31.8c0,0.431,0.354,0.784,0.786,0.782c0.429-0.002,0.78-0.354,0.78-0.782
	c0-0.431-0.356-0.785-0.786-0.783C25.827,31.02,25.476,31.371,25.476,31.8z"></path>
    <path fill="#5F6368" d="M20.527,31.8c0,0.431,0.354,0.784,0.786,0.782c0.429-0.002,0.78-0.354,0.78-0.782
	c0-0.431-0.356-0.785-0.786-0.783C20.877,31.02,20.527,31.371,20.527,31.8z"></path>
    <path fill="#5F6368" d="M17.474,31.8c0,0.431,0.354,0.784,0.786,0.782c0.429-0.002,0.78-0.354,0.78-0.782
	c0-0.431-0.356-0.785-0.786-0.783C17.824,31.02,17.474,31.371,17.474,31.8z"></path>
    <line fill="none" stroke="#5BB974" stroke-width="0.2596" stroke-linecap="round" stroke-miterlimit="10" x1="32.703" y1="30.577" x2="30.97" y2="30.577"></line>
    <path fill="#5BB974" d="M30.508,26.25c0.511,0,0.925,0.414,0.925,0.925v3.699c0,0.511-0.414,0.924-0.924,0.925L17.23,31.8
	c-0.511,0-0.925-0.414-0.925-0.925v-3.701c0-0.511,0.414-0.925,0.925-0.925L30.508,26.25L30.508,26.25z"></path>
    <rect x="16.529" y="27.312" fill="#3C4043" width="14.68" height="1.157"></rect>
    <line fill="none" stroke="#5BB974" stroke-width="0.2596" stroke-linecap="round" stroke-miterlimit="10" x1="29.298" y1="27.312" x2="29.298" y2="28.469"></line>
    <line fill="none" stroke="#5BB974" stroke-width="0.2596" stroke-linecap="round" stroke-miterlimit="10" x1="27.054" y1="27.312" x2="27.054" y2="28.469"></line>
    <line fill="none" stroke="#5BB974" stroke-width="0.2596" stroke-linecap="round" stroke-miterlimit="10" x1="22.728" y1="27.312" x2="22.728" y2="28.469"></line>
    <line fill="none" stroke="#5BB974" stroke-width="0.2596" stroke-linecap="round" stroke-miterlimit="10" x1="24.876" y1="27.312" x2="24.876" y2="28.469"></line>
    <line fill="none" stroke="#5BB974" stroke-width="0.2596" stroke-linecap="round" stroke-miterlimit="10" x1="20.504" y1="27.312" x2="20.504" y2="28.469"></line>
    <line fill="none" stroke="#5BB974" stroke-width="0.2596" stroke-linecap="round" stroke-miterlimit="10" x1="18.407" y1="27.312" x2="18.407" y2="28.469"></line>
    <path fill="#3C4043" d="M23.225,30.675h1.12c0.245,0,0.443-0.198,0.443-0.443v-2.92h-2.006v2.92
	C22.782,30.477,22.98,30.675,23.225,30.675z"></path>
    <line fill="none" stroke="#5BB974" stroke-width="0.2596" stroke-linecap="round" stroke-miterlimit="10" x1="23.785" y1="27.312" x2="23.785" y2="30.752"></line>
    <linearGradient id="SVGID_12_" gradientUnits="userSpaceOnUse" x1="985.9895" y1="46.9387" x2="985.9895" y2="54.4984" gradientTransform="matrix(-1 0 0 1 1070 -30)">
        <stop offset="0" style="stop-color:#3C4043"></stop>
        <stop offset="0.4509" style="stop-color:#3C4043;stop-opacity:0.5491"></stop>
        <stop offset="1" style="stop-color:#202124;stop-opacity:0"></stop>
    </linearGradient>
    <path fill="url(#SVGID_12_)" d="M67.55,24.161h32.921c-1.247-4.216-5.373-3.661-8.293-2.652c-2.258,0.78-4.613,0.503-6.788-0.724
	l-0.335-0.189c-0.957-0.54-1.897-1.149-2.831-1.777c-4.531-3.041-7.505-0.327-8.971,1.788c-0.715,1.032-1.689,1.493-2.651,1.263
	C69.43,21.592,67.964,21.772,67.55,24.161z"></path>
    <path fill="#5BB974" d="M44.107,54.66h19.422c-0.128-1.946-1.556-2.987-2.92-2.987c-1.17,0-2.006,0.765-2.345,1.822
	c-0.171-1.204-1.357-2.13-2.608-2.13c-1.165,0-2.14,0.804-2.407,1.887c-0.299-0.969-1.202-1.673-2.269-1.673
	c-1.082,0-1.993,0.724-2.28,1.714c-0.311-0.892-1.157-1.534-2.156-1.534C46.545,51.76,44.079,51.818,44.107,54.66z"></path>
    <path fill="#5F6368" d="M28.591,53.894V22.293c0-1.482-1.526-2.474-2.881-1.871l-11.489,5.115v6.283l-4.855,2.742v19.333
	L28.591,53.894L28.591,53.894z"></path>
    <path fill="#5BB974" stroke="#202124" stroke-width="0.2596" stroke-miterlimit="10" d="M26.162,53.894V27.079
	c0-0.568-0.46-1.028-1.028-1.028l0,0c-0.568,0-1.028,0.46-1.028,1.028v26.815"></path>
    <path fill="#5BB974" stroke="#202124" stroke-width="0.2596" stroke-miterlimit="10" d="M22.278,53.894V29.078
	c0-0.568-0.46-1.028-1.028-1.028l0,0c-0.568,0-1.028,0.46-1.028,1.028v24.816"></path>
    <path fill="#5BB974" stroke="#202124" stroke-width="0.2596" stroke-miterlimit="10" d="M18.394,53.894V31.192
	c0-0.568-0.46-1.028-1.028-1.028l0,0c-0.568,0-1.028,0.46-1.028,1.028v22.702"></path>
    <polygon fill="#5F6368" points="79.82,37.991 88.006,32.193 95.662,32.193 103.991,37.991 102.93,40.624 102.93,53.22 
	105.798,53.22 107.237,54.567 102.93,54.567 80.78,54.567 80.718,54.567 80.718,40.604 80.732,40.604 "></polygon>
    <rect x="89.852" y="40.693" fill="#669DF6" width="10.465" height="12.38"></rect>
    <linearGradient id="SVGID_13_" gradientUnits="userSpaceOnUse" x1="102.2723" y1="22.6208" x2="90.4978" y2="76.7168" gradientTransform="matrix(1 0 0 1 0 -30)">
        <stop offset="0" style="stop-color:#202124"></stop>
        <stop offset="1" style="stop-color:#202124;stop-opacity:0"></stop>
    </linearGradient>
    <polygon fill="url(#SVGID_13_)" points="102.93,40.624 80.718,40.624 80.718,52.546 98.481,52.546 "></polygon>
    <rect x="83.814" y="48.167" fill="#669DF6" width="3.19" height="4.648"></rect>
    <linearGradient id="SVGID_14_" gradientUnits="userSpaceOnUse" x1="97.055" y1="34.6561" x2="87.9141" y2="64.516" gradientTransform="matrix(1 0 0 1 0 -30)">
        <stop offset="0" style="stop-color:#FFFFFF"></stop>
        <stop offset="1" style="stop-color:#FFFFFF;stop-opacity:0"></stop>
    </linearGradient>
    <polygon fill="url(#SVGID_14_)" points="95.662,32.193 87.915,37.97 79.82,37.97 88.006,32.193 "></polygon>
    <line fill="none" stroke="#202124" stroke-width="0.26" stroke-linecap="round" stroke-miterlimit="10" x1="83.716" y1="48.05" x2="87.067" y2="48.05"></line>
    <line fill="none" stroke="#202124" stroke-width="0.2596" stroke-linecap="round" stroke-miterlimit="10" x1="83.716" y1="52.898" x2="87.059" y2="52.898"></line>
    <line fill="none" stroke="#202124" stroke-width="0.2596" stroke-linecap="round" stroke-miterlimit="10" x1="89.852" y1="53.073" x2="105.656" y2="53.073"></line>
    <path fill="none" stroke="#202124" stroke-width="0.2596" stroke-linecap="round" stroke-miterlimit="10" d="M90.612,52.999v-6.348
	c0-1.095,0.877-1.982,1.959-1.982l0,0c1.082,0,1.959,0.887,1.959,1.982v6.348"></path>
    <path fill="none" stroke="#202124" stroke-width="0.2596" stroke-linecap="round" stroke-miterlimit="10" d="M95.38,52.999v-6.348
	c0-1.095,0.877-1.982,1.959-1.982l0,0c1.082,0,1.959,0.887,1.959,1.982v6.348"></path>
    <path fill="#FCC934" d="M183.477,34.847c0.722-0.608,1.613-0.893,2.511-0.874c0.188-1.483,1.242-2.782,2.773-3.206
	c2.035-0.564,4.142,0.628,4.707,2.663s-0.628,4.142-2.663,4.707c-0.22,0.061-0.441,0.1-0.66,0.121
	c-0.001,1.106-0.45,2.179-1.332,2.922c-1.646,1.387-4.175,1.093-5.648-0.656C181.691,38.775,181.831,36.233,183.477,34.847z"></path>
    <circle fill="#F9AB00" cx="178.869" cy="37.534" r="5.188"></circle>
    <polyline fill="none" stroke="#7F7F7F" stroke-width="0.2596" stroke-linecap="round" stroke-miterlimit="10" points="
	179.892,40.091 183.18,43.672 183.227,46.437 "></polyline>
    <line fill="none" stroke="#7F7F7F" stroke-width="0.2596" stroke-linecap="round" stroke-miterlimit="10" x1="189.098" y1="34.83" x2="183.18" y2="43.672"></line>
    <line fill="none" stroke="#7F7F7F" stroke-width="0.2596" stroke-linecap="round" stroke-miterlimit="10" x1="185.81" y1="34.83" x2="186.943" y2="38.05"></line>
    <path fill="#5F6368" d="M192.598,46.811h-10.845c0,0,0.922-2.547,3.663-1.165c0,0,1.189-1.723,3.494-1.747
	C191.87,43.869,192.598,46.908,192.598,46.811z"></path>
    <path fill="#EE675C" d="M56.615,78.13L56.615,78.13c1.128,0,2.052-0.923,2.052-2.052V58.785c0-1.128-0.923-2.052-2.052-2.052l0,0
	c-1.128,0-2.052,0.923-2.052,2.052v17.293C54.564,77.207,55.487,78.13,56.615,78.13z"></path>
    <line fill="none" stroke="#5F6368" stroke-width="0.2596" stroke-linecap="round" stroke-miterlimit="10" x1="56.542" y1="59.811" x2="56.542" y2="80.768"></line>
    <path fill="#5F6368" d="M64.06,81.035h-8.203c0,0,0.547-2.917,4.193-2.917C63.695,78.119,64.06,81.035,64.06,81.035z"></path>
    <line fill="none" stroke="#5F6368" stroke-width="0.2596" stroke-linecap="round" stroke-miterlimit="10" x1="56.481" y1="69.727" x2="55.125" y2="67.931"></line>
    <linearGradient id="SVGID_15_" gradientUnits="userSpaceOnUse" x1="81.2565" y1="89.0549" x2="80.2408" y2="118.0008" gradientTransform="matrix(1 0 0 1 0 -30)">
        <stop offset="0" style="stop-color:#202124"></stop>
        <stop offset="1" style="stop-color:#202124;stop-opacity:0"></stop>
    </linearGradient>
    <path fill="url(#SVGID_15_)" d="M80.97,86.176c0.281-0.045,0.465,0.056,0.365,0.197l-0.869,1.218c-0.1,0.141-0.43,0.242-0.646,0.197
	c-0.546-0.113-0.771-0.431-0.503-0.806C79.583,86.607,80.262,86.289,80.97,86.176z"></path>
    <path fill="#9AA0A6" d="M72.639,67.523v-2.759l7.017,3.414c0.72,0.306,1.107,1.109,0.864,1.869l-1.401,4.391
	c-0.105,0.328-0.336,0.612-0.653,0.747c-0.759,0.324-1.453-0.266-1.383-0.964l0.358-3.527c0.024-0.232-0.116-0.449-0.336-0.524
	l-1.091-0.372L74.916,69.8C73.658,69.8,72.639,68.781,72.639,67.523L72.639,67.523z"></path>
    <path fill="#EE675C" d="M77.726,67.24l-1.021-4.784c-0.173-0.81-0.888-1.388-1.716-1.388c-1.298,0-2.351,1.052-2.351,2.351v3.257
	v1.055"></path>
    <linearGradient id="SVGID_16_" gradientUnits="userSpaceOnUse" x1="52.3132" y1="84.3279" x2="52.3132" y2="97.9342" gradientTransform="matrix(1 0 0 1 23.0033 -30)">
        <stop offset="0" style="stop-color:#202124"></stop>
        <stop offset="1" style="stop-color:#202124;stop-opacity:0"></stop>
    </linearGradient>
    <polygon fill="url(#SVGID_16_)" points="74.955,63.61 72.907,67.729 77.726,67.24 77.542,66.376 "></polygon>
    <circle fill="#9AA0A6" cx="70.762" cy="77.083" r="3.112"></circle>
    <linearGradient id="SVGID_17_" gradientUnits="userSpaceOnUse" x1="47.7587" y1="101.755" x2="47.7587" y2="109.4309" gradientTransform="matrix(1 0 0 1 23.0033 -30)">
        <stop offset="0" style="stop-color:#202124"></stop>
        <stop offset="1" style="stop-color:#202124;stop-opacity:0"></stop>
    </linearGradient>
    <circle fill="url(#SVGID_17_)" cx="70.762" cy="77.083" r="3.112"></circle>
    <circle fill="#9AA0A6" cx="85.57" cy="77.083" r="3.112"></circle>
    <linearGradient id="SVGID_18_" gradientUnits="userSpaceOnUse" x1="62.5667" y1="100.0969" x2="62.5667" y2="109.8232" gradientTransform="matrix(1 0 0 1 23.0033 -30)">
        <stop offset="0" style="stop-color:#202124"></stop>
        <stop offset="1" style="stop-color:#202124;stop-opacity:0"></stop>
    </linearGradient>
    <circle fill="url(#SVGID_18_)" cx="85.57" cy="77.083" r="3.112"></circle>
    <path fill="#5F6368" d="M79.826,65.738c-0.4,0-0.725,0.324-0.725,0.725l0,0c0,0.4,0.324,0.725,0.725,0.725h1.34
	c0.4,0,0.725,0.324,0.725,0.725v6.907c0,0.4-0.324,0.725-0.725,0.725h-4.269c-0.4,0-0.725-0.324-0.725-0.725v-4.307
	c0-0.4-0.324-0.725-0.725-0.725h-5.753c-0.237,0-0.46,0.116-0.595,0.311l-4.065,5.846c-0.334,0.481,0.01,1.138,0.595,1.138H75.63
	h6.259h3.679l0,0h3.122c0.458,0,0.812-0.423,0.711-0.869c-0.396-1.752-1.961-3.06-3.832-3.06c-0.087,0-0.173,0.003-0.259,0.009
	c-0.354,0.024-0.67-0.218-0.748-0.564l-1.099-5.879c-0.101-0.568-0.596-0.982-1.173-0.982C82.29,65.738,79.826,65.738,79.826,65.738
	z"></path>
    <linearGradient id="SVGID_19_" gradientUnits="userSpaceOnUse" x1="54.1574" y1="70.1763" x2="54.1574" y2="107.6465" gradientTransform="matrix(1 0 0 1 23.0033 -30)">
        <stop offset="0" style="stop-color:#202124"></stop>
        <stop offset="1" style="stop-color:#202124;stop-opacity:0"></stop>
    </linearGradient>
    <path fill="url(#SVGID_19_)" d="M79.826,65.738c-0.4,0-0.725,0.324-0.725,0.725l0,0c0,0.4,0.324,0.725,0.725,0.725h1.34
	c0.4,0,0.725,0.324,0.725,0.725v6.907c0,0.4-0.324,0.725-0.725,0.725h-4.269c-0.4,0-0.725-0.324-0.725-0.725v-4.307
	c0-0.4-0.324-0.725-0.725-0.725h-5.753c-0.237,0-0.46,0.116-0.595,0.311l-4.065,5.846c-0.334,0.481,0.01,1.138,0.595,1.138H75.63
	h6.259h3.679l0,0h3.122c0.458,0,0.812-0.423,0.711-0.869c-0.396-1.752-1.961-3.06-3.832-3.06c-0.087,0-0.173,0.003-0.259,0.009
	c-0.354,0.024-0.67-0.218-0.748-0.564l-1.099-5.879c-0.101-0.568-0.596-0.982-1.173-0.982C82.29,65.738,79.826,65.738,79.826,65.738
	z"></path>
    <path fill="#EE675C" d="M84.307,67.516c0,0.698,0.452,1.291,1.079,1.502c0.249,0.084,0.506-0.105,0.506-0.367v-2.269
	c0-0.262-0.257-0.451-0.506-0.367C84.759,66.225,84.307,66.817,84.307,67.516z"></path>
    <ellipse fill="#5F6368" cx="75.448" cy="58.743" rx="1.825" ry="1.896"></ellipse>
    <path fill="#5F6368" d="M76.604,62.134l0.707,1.649c0.066,0.154,0.179,0.283,0.322,0.368l2.637,1.571
	c0.3,0.179,0.447,0.533,0.363,0.872l0,0c-0.115,0.459-0.603,0.715-1.046,0.549l-2.907-1.09c-0.538-0.202-0.971-0.614-1.199-1.142
	l-0.939-2.177"></path>
    <path fill="#EE675C" d="M78.296,58.297h-1.978c-0.116,0-0.211-0.095-0.211-0.211l0,0c0-0.116,0.095-0.211,0.211-0.211h1.978
	c0.116,0,0.211,0.095,0.211,0.211l0,0C78.507,58.202,78.412,58.297,78.296,58.297z"></path>
    <path fill="#EE675C" d="M75.409,59.441c-0.403-0.028-0.599-0.23-0.671-0.466c-0.001-0.002-0.002-0.005-0.002-0.007
	c-0.098-0.339,0.194-0.668,0.547-0.667l1.666,0.006l-0.017-0.037l0.447-0.027c-0.107-1.083-1.007-1.929-2.103-1.929
	c-1.161,0-2.107,0.996-2.114,2.145c-0.007,1.161,0.947,2.151,2.145,2.181c0.011,0,0.023-0.001,0.036-0.003"></path>
    <circle fill="#EE675C" cx="75.373" cy="60.038" r="0.599"></circle>
    <path fill="#EE675C" d="M77.198,63.518c0,0-1.28-0.361-1.989,0.761l-0.407-0.869l-0.719-1.165l2.489-0.182L77.198,63.518z"></path>
    <path fill="#5F6368" d="M66.852,77.083c0-2.195,1.779-3.974,3.974-3.974s3.974,1.779,3.974,3.974"></path>
    <path fill="#9AA0A6" d="M68.468,71.008h7.926c0.345,0,0.625-0.28,0.625-0.625l0,0c0-0.345-0.28-0.625-0.625-0.625h-7.057
	L68.468,71.008z"></path>
    <linearGradient id="SVGID_20_" gradientUnits="userSpaceOnUse" x1="700.5739" y1="-352.779" x2="683.334" y2="-352.779" gradientTransform="matrix(1 0 0 1 -578.1902 403.24)">
        <stop offset="0.0583" style="stop-color:#3C4043"></stop>
        <stop offset="1" style="stop-color:#3C4043;stop-opacity:0"></stop>
    </linearGradient>
    <rect x="104.724" y="49.826" fill="url(#SVGID_20_)" width="17.404" height="1.27"></rect>
    <path fill="#FCC934" d="M140.001,44.803v-1.22c0-0.398-0.322-0.72-0.719-0.721c0.01-0.416,0.07-0.829,0.177-1.229h31.73l0.146,2.448
	h-0.485c-0.398,0-0.722,0.323-0.722,0.722l0,0c0,0.399,0.323,0.722,0.722,0.722h0.571l0.044,0.741
	c0.067,1.127-0.829,2.078-1.958,2.078h-28.319c-1.054,0-1.909-0.854-1.909-1.909v-0.91
	C139.678,45.525,140.001,45.202,140.001,44.803z"></path>
    <polygon fill="#8B9195" points="139.939,40.45 142.04,36.679 139.938,40.45 "></polygon>
    <path fill="#FCC934" d="M143.834,35.625h25.94c0.593,0,1.084,0.462,1.119,1.055H142.04
	C142.402,36.028,143.089,35.625,143.834,35.625z"></path>
    <linearGradient id="SVGID_21_" gradientUnits="userSpaceOnUse" x1="155.0873" y1="47.2893" x2="155.7551" y2="31.2635">
        <stop offset="0" style="stop-color:#2D3032"></stop>
        <stop offset="0.5382" style="stop-color:#4A4E51"></stop>
        <stop offset="1" style="stop-color:#5F6368"></stop>
    </linearGradient>
    <path fill="url(#SVGID_21_)" d="M171.188,41.633l-0.295-4.954h-28.854l-2.101,3.771c-0.208,0.375-0.369,0.772-0.48,1.183h12.63
	v4.512c0,0.253,0.205,0.458,0.458,0.458h6.297c0.253,0,0.458-0.205,0.458-0.458v-4.512H171.188z"></path>
    <line fill="none" stroke="#FCC934" stroke-width="0.2596" stroke-linecap="round" stroke-miterlimit="10" x1="167.217" y1="36.463" x2="167.217" y2="42.174"></line>
    <line fill="none" stroke="#FCC934" stroke-width="0.2596" stroke-linecap="round" stroke-miterlimit="10" x1="163.227" y1="36.463" x2="163.227" y2="42.174"></line>
    <line fill="none" stroke="#FCC934" stroke-width="0.2596" stroke-linecap="round" stroke-miterlimit="10" x1="148.326" y1="36.463" x2="148.326" y2="42.174"></line>
    <line fill="none" stroke="#FCC934" stroke-width="0.2596" stroke-linecap="round" stroke-miterlimit="10" x1="144.547" y1="36.463" x2="144.547" y2="42.174"></line>
    <line fill="none" stroke="#FCC934" stroke-width="0.2596" stroke-linecap="round" stroke-miterlimit="10" x1="155.694" y1="36.463" x2="155.694" y2="46.766"></line>
    <path fill="#FCC934" d="M159.568,36.444v5.278c0,0.072-0.058,0.13-0.13,0.13s-0.13-0.058-0.13-0.13v-5.278
	c0-0.072,0.058-0.13,0.13-0.13S159.568,36.372,159.568,36.444z"></path>
    <path fill="#FCC934" d="M152.086,36.399v5.441c0,0.072-0.058,0.13-0.13,0.13s-0.13-0.058-0.13-0.13v-5.441
	c0-0.072,0.058-0.13,0.13-0.13S152.086,36.328,152.086,36.399z"></path>
    <linearGradient id="SVGID_22_" gradientUnits="userSpaceOnUse" x1="170.9062" y1="46.4961" x2="170.6127" y2="43.0722">
        <stop offset="0" style="stop-color:#2D3032"></stop>
        <stop offset="0.5382" style="stop-color:#4A4E51"></stop>
        <stop offset="1" style="stop-color:#5F6368"></stop>
    </linearGradient>
    <path fill="url(#SVGID_22_)" d="M170.128,44.803L170.128,44.803c0-0.399,0.323-0.722,0.722-0.722h0.485l0.086,1.443h-0.571
	C170.451,45.525,170.128,45.202,170.128,44.803z"></path>
    <linearGradient id="SVGID_23_" gradientUnits="userSpaceOnUse" x1="139.6966" y1="46.4741" x2="139.5499" y2="41.4849">
        <stop offset="0" style="stop-color:#2D3032"></stop>
        <stop offset="0.5382" style="stop-color:#4A4E51"></stop>
        <stop offset="1" style="stop-color:#5F6368"></stop>
    </linearGradient>
    <path fill="url(#SVGID_23_)" d="M139.282,42.862c0.398,0.001,0.719,0.324,0.719,0.721v1.22c0,0.399-0.323,0.722-0.722,0.722v-2.537
	C139.279,42.945,139.28,42.903,139.282,42.862z"></path>
    <circle fill="#3C4043" cx="165.272" cy="47.975" r="2.532"></circle>
    <circle fill="#3C4043" cx="145.795" cy="47.975" r="2.532"></circle>
    <linearGradient id="SVGID_24_" gradientUnits="userSpaceOnUse" x1="28.2235" y1="76.8587" x2="21.368" y2="83.4603" gradientTransform="matrix(1 0 0 1 0 -30)">
        <stop offset="0" style="stop-color:#202124"></stop>
        <stop offset="1" style="stop-color:#202124;stop-opacity:0"></stop>
    </linearGradient>
    <polygon opacity="0.3" fill="url(#SVGID_24_)" enable-background="new    " points="13.265,53.874 24.843,44.58 28.601,51.03 
	28.591,53.894 "></polygon>
    <circle fill="#5BB974" cx="32.751" cy="48.19" r="2.975"></circle>
    <circle fill="#5BB974" cx="28.191" cy="47.122" r="4.202"></circle>
    <line fill="none" stroke="#5F6368" stroke-width="0.2596" stroke-linecap="round" stroke-miterlimit="10" x1="28.831" y1="49.063" x2="32.501" y2="48.495"></line>
    <line fill="none" stroke="#5F6368" stroke-width="0.2596" stroke-linecap="round" stroke-miterlimit="10" x1="31.471" y1="54.133" x2="27.679" y2="46.881"></line>
    <path fill="#9AA0A6" d="M125.932,58.983c0.427-0.505,0.977-0.754,1.513-0.742V58.24c0.006,0,0.012,0.001,0.018,0
	c0.006,0,0.012-0.001,0.018,0v0.001c0.536-0.012,1.086,0.237,1.513,0.742c0.911,1.077,0.908,2.959-0.005,4.035
	c-0.423,0.498-0.972,0.746-1.508,0.734v0.001c-0.006,0-0.012-0.001-0.018,0c-0.006,0-0.012,0.001-0.018,0v-0.001
	c-0.535,0.012-1.084-0.236-1.508-0.734C125.024,61.942,125.021,60.061,125.932,58.983z"></path>
    <path fill="#669DF6" d="M118.157,62.541c3.746,0,7.492-0.002,11.238,0.001c1.176,0.001,1.897-0.496,2.132-1.644
	c0.43-2.101,0.34-4.182-0.438-6.206c-1.37-3.568-3.712-6.27-7.144-7.991c-1.128-0.565-2.331-0.817-3.597-0.81
	c-2.42,0.015-4.84,0.005-7.261,0.007c-4.217,0.004-7.032,2.353-7.664,6.557c-0.476,3.166-0.394,6.33,0.513,9.441
	c0.142,0.488,0.329,0.66,0.855,0.656c3.788-0.026,7.576-0.014,11.365-0.014C118.157,62.539,118.157,62.54,118.157,62.541z"></path>
    <path fill="none" stroke="#AECBFA" stroke-width="0.2596" stroke-linecap="round" stroke-miterlimit="10" d="M125.41,60.46h3.961
	c0.394,0,0.713-0.319,0.713-0.713l0,0c0-0.394-0.319-0.713-0.713-0.713h-3.961c-0.394,0-0.713,0.319-0.713,0.713l0,0
	C124.696,60.14,125.016,60.46,125.41,60.46z"></path>
    <line fill="none" stroke="#AECBFA" stroke-width="0.2596" stroke-linecap="round" stroke-miterlimit="10" x1="112.628" y1="54.746" x2="110.904" y2="53.861"></line>
    <line fill="none" stroke="#AECBFA" stroke-width="0.2596" stroke-linecap="round" stroke-miterlimit="10" x1="115.838" y1="61.292" x2="112.628" y2="60.757"></line>
    <path fill="#5F6368" d="M117.074,58.983c0.427-0.505,0.977-0.754,1.513-0.742V58.24c0.006,0,0.012,0.001,0.018,0
	c0.006,0,0.012-0.001,0.018,0v0.001c0.536-0.012,1.086,0.237,1.513,0.742c0.911,1.077,0.908,2.959-0.005,4.035
	c-0.423,0.498-0.972,0.746-1.508,0.734v0.001c-0.006,0-0.012-0.001-0.018,0c-0.006,0-0.012,0.001-0.018,0v-0.001
	c-0.535,0.012-1.084-0.236-1.508-0.734C116.166,61.942,116.163,60.061,117.074,58.983z"></path>
    <path fill="#5F6368" d="M108.219,58.983c0.427-0.505,0.977-0.754,1.513-0.742V58.24c0.006,0,0.012,0.001,0.018,0
	c0.006,0,0.012-0.001,0.018,0v0.001c0.536-0.012,1.086,0.237,1.513,0.742c0.911,1.077,0.908,2.959-0.005,4.035
	c-0.423,0.498-0.972,0.746-1.508,0.734v0.001c-0.006,0-0.012-0.001-0.018,0c-0.006,0-0.012,0.001-0.018,0v-0.001
	c-0.535,0.012-1.084-0.236-1.508-0.734C107.311,61.942,107.309,60.061,108.219,58.983z"></path>
    <linearGradient id="SVGID_25_" gradientUnits="userSpaceOnUse" x1="115.4692" y1="57.4666" x2="114.6866" y2="44.9449">
        <stop offset="0" style="stop-color:#2D3032"></stop>
        <stop offset="0.5382" style="stop-color:#4A4E51"></stop>
        <stop offset="1" style="stop-color:#5F6368"></stop>
    </linearGradient>
    <path fill="url(#SVGID_25_)" d="M121.305,54.684c-0.808,0-1.534,0.007-2.261-0.002c-0.539-0.007-0.939-0.242-1.078-0.789
	c-0.149-0.586,0.305-1.113,1.003-1.168c0.335-0.026,0.672-0.011,1.009-0.012c0.31-0.001,0.621,0,1.003,0
	c-0.059-0.24-0.074-0.405-0.139-0.548c-1.239-2.73-3.177-4.719-6.174-5.362c-1.852-0.398-3.614-0.051-4.917,1.526
	c-1.242,1.504-0.876,3.618,0.86,4.516c2.446,1.266,4.924,2.47,7.413,3.649C119.389,57.14,120.691,56.434,121.305,54.684z"></path>
    <linearGradient id="SVGID_26_" gradientUnits="userSpaceOnUse" x1="123.7495" y1="57.425" x2="124.3364" y2="43.7293">
        <stop offset="0" style="stop-color:#2D3032"></stop>
        <stop offset="0.5382" style="stop-color:#4A4E51"></stop>
        <stop offset="1" style="stop-color:#5F6368"></stop>
    </linearGradient>
    <path fill="url(#SVGID_26_)" d="M117.381,47.094c0.16,0.121,0.322,0.241,0.481,0.364c2.131,1.666,3.788,3.689,4.708,6.265
	c0.259,0.724,0.628,1.007,1.412,1.012c1.872,0.011,3.744,0.017,5.615,0.001c1.011-0.009,1.374-0.636,0.923-1.537
	c-1.244-2.484-3.033-4.476-5.411-5.918c-0.304-0.184-0.7-0.297-1.055-0.301c-2.206-0.027-4.413-0.014-6.62-0.014
	C117.417,47.009,117.399,47.052,117.381,47.094z"></path>
    <line fill="none" stroke="#669DF6" stroke-width="0.2596" stroke-linecap="round" stroke-linejoin="round" stroke-miterlimit="10" x1="112.628" y1="46.445" x2="112.628" y2="54.222"></line>
    <linearGradient id="SVGID_27_" gradientUnits="userSpaceOnUse" x1="122.7868" y1="59.4053" x2="123.0313" y2="53.927">
        <stop offset="0" style="stop-color:#2D3032"></stop>
        <stop offset="0.5382" style="stop-color:#4A4E51"></stop>
        <stop offset="1" style="stop-color:#5F6368"></stop>
    </linearGradient>
    <path fill="url(#SVGID_27_)" d="M121.959,56.803c0,0.604,0.433,1.158,0.92,1.175c0.513,0.018,0.965-0.538,0.969-1.19
	c0.003-0.658-0.425-1.2-0.953-1.205C122.388,55.578,121.959,56.138,121.959,56.803z"></path>
    <path fill="#202124" d="M54.207,54.66h0.314c0.546-0.775,1.576-1.895,3.14-2.398c-0.066-0.072-0.139-0.139-0.213-0.204
	C55.79,52.639,54.732,53.877,54.207,54.66z"></path>
    <path fill="#202124" d="M51.129,54.66l1.674-2.216c-0.056-0.068-0.114-0.134-0.177-0.195l-1.821,2.412L51.129,54.66L51.129,54.66z"></path>
    <path fill="#202124" d="M47.086,54.66h0.277l-1.093-2.868c-0.075,0.013-0.16,0.031-0.256,0.057L47.086,54.66z"></path>
    <path fill="#202124" d="M50.131,54.66h0.261c-0.136-1.116,0.155-2.437,0.324-3.059c-0.096,0.011-0.19,0.027-0.282,0.049
	C50.257,52.321,50.003,53.562,50.131,54.66z"></path>
    <path fill="#202124" d="M46.056,54.66c-0.111-0.844-0.324-1.916-0.481-2.652c-0.079,0.036-0.158,0.077-0.238,0.124
	c0.173,0.816,0.359,1.78,0.461,2.528H46.056z"></path>
    <path fill="#9AA0A6" d="M58.238,81.035l-1.727-1.357c-0.054,0.071-0.106,0.141-0.151,0.211l1.458,1.146H58.238z"></path>
    <path fill="#9AA0A6" d="M59.284,81.035l-1.215-2.548c-0.08,0.034-0.164,0.065-0.239,0.102l1.166,2.446H59.284z"></path>
    <path fill="#9AA0A6" d="M60.618,81.035l0.616-2.797c-0.081-0.017-0.171-0.028-0.257-0.041l-0.625,2.838H60.618z"></path>
    <path fill="#9AA0A6" d="M61.601,81.035l1.454-1.865c-0.061-0.059-0.124-0.117-0.193-0.174l-1.589,2.039H61.601z"></path>
    <path fill="#AECBFA" d="M105.418,52.504c0.704,0.081,1.254,0.674,1.254,1.4v2.097c0,0.781-0.635,1.416-1.416,1.416
	c-0.027,0-0.052-0.006-0.078-0.008c0.005,0.087,0.014,0.174,0.02,0.262c0.02,0.001,0.038,0.006,0.058,0.006
	c0.924,0,1.675-0.752,1.675-1.675v-2.097c0-0.85-0.639-1.547-1.461-1.654c-0.012,0.071-0.036,0.133-0.047,0.205
	C105.422,52.472,105.421,52.488,105.418,52.504z"></path>
    <linearGradient id="SVGID_28_" gradientUnits="userSpaceOnUse" x1="131.1545" y1="58.7645" x2="131.3991" y2="54.1666">
        <stop offset="0" style="stop-color:#2D3032"></stop>
        <stop offset="0.5382" style="stop-color:#4A4E51"></stop>
        <stop offset="1" style="stop-color:#5F6368"></stop>
    </linearGradient>
    <path fill="url(#SVGID_28_)" d="M130.694,56.79c-0.008,0.62,0.422,1.189,0.895,1.185c0.061-0.001,0.118-0.034,0.177-0.053
	c-0.037-0.757-0.156-1.509-0.361-2.254C131.018,55.808,130.7,56.268,130.694,56.79z"></path>
    <path fill="#202124" d="M107.934,58.393L107.934,58.393c0.487-0.576,1.137-0.903,1.789-0.903c0.015,0,0.026,0.002,0.046,0.001
	c0.009,0,0.02-0.001,0.03-0.001c0.006,0.001,0.014,0.001,0.019,0.001c0.653-0.014,1.334,0.314,1.832,0.903
	c0.916,1.084,1.067,2.824,0.487,4.152c0.092,0,0.183,0,0.275,0c0.563-1.403,0.389-3.192-0.563-4.319
	c-0.537-0.635-1.258-0.996-1.987-0.996c-0.015,0-0.031,0-0.046-0.001h-0.046c-0.016-0.001-0.031,0.001-0.046,0.001
	c-0.729,0-1.45,0.361-1.987,0.996h0.001c-0.953,1.127-1.134,2.922-0.571,4.325c0.093-0.001,0.186,0,0.279,0
	C106.863,61.222,107.017,59.478,107.934,58.393z"></path>
    <path fill="#202124" d="M120.661,58.226c-0.537-0.635-1.258-0.996-1.987-0.996c-0.015,0-0.03,0-0.046-0.001h-0.046
	c-0.005,0-0.009,0-0.014,0.001c-0.743-0.016-1.475,0.351-2.02,0.996h0.001c-0.952,1.125-1.126,2.912-0.566,4.315
	c0.091,0,0.183,0,0.274,0c-0.578-1.328-0.426-3.064,0.489-4.147c0.001,0,0.001,0,0.001,0c0.487-0.576,1.137-0.903,1.788-0.903
	c0.015,0,0.029,0,0.043,0.001c0.005-0.002,0.012-0.001,0.018-0.001c0.009-0.001,0.021,0.001,0.031,0.001
	c0.016,0.007,0.03,0,0.046-0.001c0.652,0,1.302,0.327,1.789,0.903c0.915,1.082,1.07,2.82,0.494,4.148c0.093,0,0.186,0,0.28,0
	C121.795,61.139,121.612,59.351,120.661,58.226z"></path>
    <path fill="#9AA0A6" d="M184.247,46.811h0.316c-0.239-0.382-0.697-1.02-1.317-1.47c-0.108,0.035-0.208,0.076-0.303,0.124
	C183.526,45.843,183.979,46.408,184.247,46.811z"></path>
    <path fill="#9AA0A6" d="M187.466,46.811c0.31-1.338,1.017-2.452,1.335-2.9c-0.119,0.004-0.227,0.022-0.34,0.034
	c-0.372,0.551-0.984,1.604-1.263,2.866H187.466z"></path>
    <path fill="#9AA0A6" d="M189.628,46.811c0.488-0.884,1.277-1.748,1.612-2.094c-0.066-0.056-0.132-0.111-0.204-0.164
	c-0.371,0.382-1.215,1.308-1.706,2.258C189.33,46.811,189.628,46.811,189.628,46.811z"></path>
    <path fill="#5F6368" d="M61.028,44.913v-7.841c0-1.967,1.6-3.567,3.566-3.567c1.967,0,3.567,1.6,3.567,3.567v7.841h0.779v-7.841
	c0-2.396-1.949-4.346-4.346-4.346c-2.396,0-4.345,1.949-4.345,4.346v7.841H61.028z"></path>
    <path fill="#5F6368" d="M46.54,44.913v-7.841c0-1.967,1.6-3.567,3.567-3.567c1.966,0,3.566,1.6,3.566,3.567v7.841h0.779v-7.841
	c0-2.396-1.949-4.346-4.345-4.346s-4.345,1.949-4.345,4.346v7.841H46.54z"></path>
    <polygon fill="#202124" points="83.559,40.615 83.559,54.568 83.56,54.57 83.818,54.57 83.818,54.569 83.819,54.567 83.819,40.615 
	"></polygon>
    <polygon fill="#202124" points="86.995,40.628 86.995,54.568 86.996,54.57 87.254,54.57 87.254,54.569 87.255,54.567 87.255,40.628 
	"></polygon>
    <path fill="#202124" d="M79.858,38.1h8.066l0.272,2.374h-7.478c-0.011,0-0.017,0.009-0.027,0.011l0.041,0.119h-0.014v0.13
	c7.404,0,14.808,0,22.212,0v-0.11l0.052-0.129c-0.017-0.008-0.031-0.021-0.052-0.021H88.457L88.186,38.1h15.761l0.044-0.109
	l-0.216-0.151h-15.34l7.407-5.472c0.012-0.009,0.013-0.024,0.021-0.035l-0.202-0.14h-0.019l-7.646,5.647h-7.964l-0.213,0.151
	L79.858,38.1z"></path>
</svg>