<svg xmlns="http://www.w3.org/2000/svg" width="138" height="138"><path fill="#F1F3F4" d="M101.26 130.09l-75.02-.08-11.52-7.1 1.87-95.88c0-4.16 3.37-7.54 7.54-7.54H102c4.16 0 7.54 3.37 7.54 7.54v93.9c-.01 4.21-3.2 9.16-8.28 9.16z"/><path fill="#DADCE0" d="M105.98 118.29V63.23c0-.19-.15-.34-.34-.34s-.34.15-.34.34v55.07c0 4.4-3.58 7.98-7.98 7.98H20.16l1.09.67h76.08c4.77-.01 8.65-3.89 8.65-8.66z"/><path fill="#DADCE0" d="M107.91 119.36V64.83c0-.19-.15-.34-.34-.34s-.34.15-.34.34v54.53c0 4.99-4.06 9.04-9.04 9.04H23.62l1.09.67h73.48c5.36.01 9.72-4.35 9.72-9.71z"/><path fill="#EAEAEA" d="M96.21 124.49H19.32c-4.16 0-7.54-3.37-7.54-7.54V21.43c0-4.16 3.37-7.54 7.54-7.54h76.89c4.16 0 7.54 3.37 7.54 7.54v95.52c0 4.17-3.38 7.54-7.54 7.54z"/><linearGradient id="a" gradientUnits="userSpaceOnUse" x1="57.765" y1="79.4674" x2="57.765" y2="232.4494" gradientTransform="translate(0 -112)"><stop offset="0" style="stop-color:#F1F3F4"/><stop offset="1" style="stop-color:#F1F3F4;stop-opacity:0"/></linearGradient><path fill="url(#a)" d="M96.21 124.49H19.32c-4.16 0-7.54-3.37-7.54-7.54V21.43c0-4.16 3.37-7.54 7.54-7.54h76.89c4.16 0 7.54 3.37 7.54 7.54v95.52c0 4.17-3.38 7.54-7.54 7.54z"/><circle fill="#FFF" cx="24.05" cy="102.89" r="7.17"/><path fill="#4285F4" d="M24.69 106.42c-.4 0-.79-.16-1.08-.45l-3.05-3.05c-.52-.52-.52-1.38 0-1.9.52-.53 1.38-.53 1.9 0l2.09 2.09 5.93-8.18c.44-.6 1.28-.73 1.88-.3.6.44.74 1.28.3 1.88l-6.72 9.28c-.26.36-.67.59-1.12.63h-.13z"/><circle fill="#FFF" cx="24.05" cy="72.7" r="7.17"/><path fill="#4285F4" d="M24.69 76.23c-.41 0-.79-.16-1.08-.45l-3.05-3.05c-.53-.52-.53-1.38 0-1.9.53-.53 1.38-.53 1.9 0l2.09 2.09 5.93-8.18c.44-.6 1.28-.73 1.88-.3.6.44.74 1.28.3 1.88l-6.72 9.28c-.26.36-.67.59-1.12.63h-.13z"/><circle fill="#FFF" cx="24.05" cy="42.52" r="7.17"/><path fill="#4285F4" d="M24.69 46.05c-.41 0-.8-.16-1.09-.45l-3.05-3.05c-.52-.52-.52-1.38 0-1.9.53-.52 1.38-.52 1.9 0l2.09 2.09 5.93-8.18c.44-.6 1.28-.73 1.88-.3.6.44.74 1.28.3 1.88l-6.72 9.28c-.26.36-.67.6-1.12.63h-.12zM103.33 13.9H19.24c-4.12 0-7.46 3.34-7.46 7.46v2.1h97.75V20.1c0-3.43-2.77-6.2-6.2-6.2z"/><path fill="#BEC3C8" d="M31.36 19.5c-.56 0-1.02-.46-1.02-1.02v-6.92c0-1.28-.86-2.45-2.11-2.69-1.68-.33-3.16.96-3.16 2.59v2.44h-2.04v-2.23c0-2.44 1.78-4.63 4.21-4.87 2.79-.27 5.15 1.92 5.15 4.66v7.02c-.01.56-.47 1.02-1.03 1.02zM44.54 19.5c-.56 0-1.02-.46-1.02-1.02v-6.92c0-1.28-.86-2.45-2.11-2.69-1.68-.33-3.16.96-3.16 2.59v2.44H36.2v-2.23c0-2.44 1.78-4.63 4.21-4.87 2.79-.27 5.15 1.92 5.15 4.66v7.02c0 .56-.45 1.02-1.02 1.02zM57.73 19.5c-.56 0-1.02-.46-1.02-1.02v-6.92c0-1.28-.86-2.45-2.11-2.69-1.68-.33-3.16.96-3.16 2.59v2.44H49.4v-2.23c0-2.44 1.78-4.63 4.21-4.87 2.79-.27 5.15 1.92 5.15 4.66v7.02c-.01.56-.47 1.02-1.03 1.02zM70.91 19.5c-.56 0-1.02-.46-1.02-1.02v-6.92c0-1.28-.86-2.45-2.11-2.69-1.68-.33-3.16.96-3.16 2.59v2.44h-2.04v-2.23c0-2.44 1.78-4.63 4.21-4.87 2.79-.27 5.15 1.92 5.15 4.66v7.02c-.01.56-.47 1.02-1.03 1.02zM84.09 19.5c-.56 0-1.02-.46-1.02-1.02v-6.92c0-1.28-.86-2.45-2.11-2.69-1.68-.33-3.16.96-3.16 2.59v2.44h-2.04v-2.23c0-2.44 1.78-4.63 4.21-4.87 2.79-.27 5.15 1.92 5.15 4.66v7.02c0 .56-.46 1.02-1.03 1.02z"/><path fill="#FFF" d="M85.12 100.38H39.84c-.5 0-.9-.4-.9-.9s.4-.9.9-.9h45.28c.5 0 .9.4.9.9s-.41.9-.9.9zM78.64 107.75h-38.8c-.5 0-.9-.4-.9-.9s.4-.9.9-.9h38.81c.5 0 .9.4.9.9s-.41.9-.91.9zM85.12 70.29H39.84c-.5 0-.9-.4-.9-.9s.4-.9.9-.9h45.28c.5 0 .9.4.9.9s-.41.9-.9.9zM64.15 77.66H39.84c-.5 0-.9-.4-.9-.9s.4-.9.9-.9h24.31c.5 0 .9.4.9.9s-.41.9-.9.9zM85.12 40.2H39.84c-.5 0-.9-.4-.9-.9s.4-.9.9-.9h45.28c.5 0 .9.4.9.9s-.41.9-.9.9zM75.76 47.57H39.84c-.5 0-.9-.4-.9-.9s.4-.9.9-.9h35.92c.5 0 .9.4.9.9s-.41.9-.9.9z"/><linearGradient id="b" gradientUnits="userSpaceOnUse" x1="380.0227" y1="-204.6422" x2="66.1923" y2="211.4588" gradientTransform="translate(0 -112)"><stop offset="0" style="stop-color:#202124"/><stop offset="1" style="stop-color:#202124;stop-opacity:0"/></linearGradient><path fill="url(#b)" d="M95.3 17.26L11.78 101.7v15.43c0 4.06 3.29 7.35 7.35 7.35h77.24c4.07 0 7.37-3.3 7.37-7.37V13.9l-8.44 3.36z"/><path fill="#34A853" d="M125.93 30.13v51.64c-5.46-5.19-10.93-10.38-16.39-15.57-5.46 5.19-10.93 10.38-16.39 15.57V30.13h32.78z"/><linearGradient id="c" gradientUnits="userSpaceOnUse" x1="138.4048" y1="111.5718" x2="92.8895" y2="175.6084" gradientTransform="translate(0 -112)"><stop offset="0" style="stop-color:#202124"/><stop offset="1" style="stop-color:#202124;stop-opacity:0"/></linearGradient><path fill="url(#c)" d="M93.14 75.51l29.15-27.49-15.36-24.34-13.79 13.8z"/><path fill="#F9BA05" d="M109.53 52.47c11.32 0 20.49-9.17 20.49-20.49 0-11.32-9.17-20.49-20.49-20.49-11.32 0-20.49 9.17-20.49 20.49 0 11.31 9.18 20.49 20.49 20.49z"/><linearGradient id="d" gradientUnits="userSpaceOnUse" x1="136.1067" y1="108.2132" x2="98.5867" y2="158.7074" gradientTransform="translate(0 -112)"><stop offset="0" style="stop-color:#F1F3F4"/><stop offset="1" style="stop-color:#F1F3F4;stop-opacity:0"/></linearGradient><path fill="url(#d)" d="M109.53 52.47c11.32 0 20.49-9.17 20.49-20.49 0-11.32-9.17-20.49-20.49-20.49-11.32 0-20.49 9.17-20.49 20.49 0 11.31 9.18 20.49 20.49 20.49z"/><circle fill="#F9BA05" cx="109.53" cy="31.98" r="16.22"/><circle fill="#FFF" cx="109.53" cy="31.98" r="16.78"/><circle fill="#F9BA05" cx="109.53" cy="31.98" r="16.22"/><linearGradient id="e" gradientUnits="userSpaceOnUse" x1="204.8842" y1="-51.6765" x2="99.6233" y2="40.6713"><stop offset="0" style="stop-color:#202124"/><stop offset="1" style="stop-color:#202124;stop-opacity:0"/></linearGradient><circle fill="url(#e)" cx="109.53" cy="31.98" r="16.22"/><circle fill="#F9BA05" cx="109.53" cy="31.98" r="14.24"/><linearGradient id="f" gradientUnits="userSpaceOnUse" x1="125.1229" y1="12.4205" x2="102.8185" y2="40.3988"><stop offset="0" style="stop-color:#F1F3F4"/><stop offset="1" style="stop-color:#F1F3F4;stop-opacity:0"/></linearGradient><circle fill="url(#f)" cx="109.53" cy="31.98" r="14.24"/><path fill="#FFF" d="M125.93 76.05l-16.4-15.57-16.39 15.57v-1.06l16.39-15.57 16.4 15.57z"/></svg>
