<svg xmlns="http://www.w3.org/2000/svg" width="290" height="200"><linearGradient id="a" gradientUnits="userSpaceOnUse" x1="3927.6411" y1="94.4734" x2="3927.6411" y2="36.942" gradientTransform="rotate(180 2092.8928 100)"><stop offset="0" style="stop-color:#202124"/><stop offset="1" style="stop-color:#202124;stop-opacity:0"/></linearGradient><path fill="url(#a)" d="M243.75 158.36h25.97s8.19 6.96-3.35 6.96-22.62-6.96-22.62-6.96z"/><path fill="#DADCE0" d="M280.15 89.97c0-1.14-.12-2.26-.34-3.33-1.54-7.37-8.09-12.92-15.9-12.92h-37.19c-8.96 0-16.25 7.29-16.25 16.25 0 8.33 6.24 15.28 14.52 16.15.5.05.88.47.88.97v7.72l8.09-8.3c.18-.19.44-.3.7-.3h29.25c8.95.01 16.24-7.28 16.24-16.24z"/><path fill="#EA4335" d="M267.27 117.48c0-.49-.05-.97-.15-1.43-.66-3.17-3.48-5.55-6.84-5.55H244.3c-3.85 0-6.98 3.13-6.98 6.98 0 3.58 2.68 6.57 6.24 6.94.21.02.38.2.38.42v3.32l3.48-3.57c.08-.08.19-.13.3-.13h12.58c3.84.01 6.97-3.13 6.97-6.98z"/><linearGradient id="b" gradientUnits="userSpaceOnUse" x1="48.65" y1="110.7463" x2="48.65" y2="44.3564" gradientTransform="matrix(1 0 0 -1 0 200)"><stop offset="0" style="stop-color:#E8EAED"/><stop offset="1" style="stop-color:#E8EAED;stop-opacity:0"/></linearGradient><path fill="url(#b)" d="M19.07 94.17v4.39L2.79 121.07h16.28v8.34h-2.15v-1.71h-6.2v16.67h6.2v-2.24h2.15v12.15h75.44V94.17H19.07zm-2.15 47.44V129.9h2.15v11.71h-2.15z"/><path fill="#FFF" d="M48.48 128.1H29.56c-.14 0-.25.11-.25.25v25.92h.51v-25.66h18.42v25.66h.51v-25.92c-.02-.13-.13-.25-.27-.25z"/><path fill="#FFF" d="M94.52 98.31H19.07v.51h42.62l-14.71 22H19.07v.5h28.05c.08 0 .16-.04.21-.11L61.91 99.4v54.88h.51V98.81h32.1v-.5z"/><path fill="#DADCE0" d="M269.72 158.36h-25.97s1.73-9.24 13.28-9.24c11.54 0 12.69 9.24 12.69 9.24z"/><path fill="#FFF" d="M250.06 158.36l-4.69-3.68c.12-.19.26-.38.4-.57l5.41 4.25h-1.12zM253.76 158.36l-3.71-7.78c.2-.1.42-.19.63-.29l3.85 8.06-.77.01zM258.05 158.36l1.98-9c.23.04.46.08.68.13l-1.95 8.87h-.71zM260.98 158.36l5.01-6.42c.18.15.36.3.52.46l-4.65 5.96h-.88z"/><path fill="#DADCE0" d="M30.61 159.33H56.2s-2.77-7.36-10.79-7.36-14.8 7.36-14.8 7.36z"/><path fill="#F1F3F4" d="M46.65 159.33l-3.01-7.24c-.24.03-.47.07-.71.11l2.97 7.13h.75z"/><path fill="#DADCE0" d="M8.72 159.33h32.53s-1.08-12.38-15.57-12.38-16.96 12.38-16.96 12.38z"/><path fill="#F1F3F4" d="M31.08 147.64l-1.9 6.27.31.41c.12.15.09.37-.06.49-.06.05-.14.07-.21.07-.1 0-.21-.05-.28-.14l-.01-.01-1.39 4.6h.73l3.47-11.49c-.21-.07-.43-.14-.66-.2zM15.79 149.53c2.37 2.86 5.3 6.46 8 9.8h.9c-2.7-3.34-5.78-7.13-8.29-10.16-.21.12-.42.24-.61.36zM38.68 152.83l-6.98 6.5h1.02l6.35-5.91c-.12-.2-.25-.39-.39-.59zM10.52 154.98l7.23 4.35h1.35l-8.21-4.95c-.14.2-.26.4-.37.6z"/><path fill="#F1F3F4" d="M29.19 153.91l-5.28-6.89c-.28.02-.56.04-.82.07l5.85 7.64.25-.82z"/><path fill="#E6EBF0" d="M28.95 154.74c.07.09.17.14.28.14.07 0 .15-.02.21-.07.15-.12.18-.34.06-.49l-.31-.41-.25.82.01.01z"/><path fill="#DADCE0" d="M86.36 41.57h108.5v117.76H86.36z"/><radialGradient id="c" cx="214.6074" cy="204.3262" r="155.3389" gradientTransform="matrix(1 0 0 -1 0 200)" gradientUnits="userSpaceOnUse"><stop offset="0" style="stop-color:#F1F3F4"/><stop offset="1" style="stop-color:#F1F3F4;stop-opacity:0"/></radialGradient><path fill="url(#c)" d="M86.36 41.57h108.5v117.76H86.36z"/><path fill="#4285F4" d="M83.08 107.62h115.06"/><path fill="#FFF" d="M86.36 68.9h108.5v.56H86.36zM151.89 159.32h-.56v-41.26h-20.51v41.26h-.56v-41.83h21.63zM123.67 149.63h-31v-32.14h31v32.14zm-30.44-.56h29.87v-31.01H93.23v31.01zM189.04 149.63h-31v-32.14h31v32.14zm-30.44-.56h29.87v-31.01H158.6v31.01z"/><path fill="#FFF" d="M86.36 155.93h44.17v.56H86.36zM151.61 155.93h43.25v.56h-43.25z"/><path fill="#E8EAED" d="M104.4 159.33c-2.51-4.14-6.74-6.86-11.55-6.86-4.24 0-8.04 2.13-10.6 5.48-3.59-5.45-9.37-8.99-15.88-8.99-7.05 0-13.23 4.14-16.71 10.37h54.74z"/><path fill="#FFF" d="M68.01 159.33l-4.1-10.19c-.19.03-.38.06-.57.1l4.06 10.1h.61v-.01zM62.33 159.33l-6.6-6.87c-.15.11-.3.23-.45.34l6.27 6.52.78.01zM74.51 159.33l4.28-5.43c-.14-.13-.28-.26-.42-.38l-4.58 5.81h.72zM92.39 159.33l-.63-6.81c-.19.02-.38.03-.56.06l.62 6.75h.57zM96.75 159.33l3.85-4.22c-.15-.11-.3-.23-.46-.33l-4.15 4.56.76-.01zM149.24 129.32h-16.35v-8.95h16.35v8.95zm-15.79-.56h15.22v-7.82h-15.22v7.82zM149.24 156.49h-16.35v-24.5h16.35v24.5zm-15.79-.56h15.22v-23.37h-15.22v23.37z"/><linearGradient id="d" gradientUnits="userSpaceOnUse" x1="168.83" y1="43.6579" x2="168.83" y2="-2.1765" gradientTransform="matrix(1 0 0 -1 0 200)"><stop offset="0" style="stop-color:#D6D6D6"/><stop offset="1" style="stop-color:#FFFFFF;stop-opacity:0"/></linearGradient><path opacity=".5" fill="url(#d)" d="M200.41 159.33H49.66c9.42 4.73 19.55 7.88 26.59 7.88 6.51 0 8.91-2.69 7.32-6.83 5.3 2.35 10.65 3.89 14.79 4.11l65.07 28.05H288l-33.72-12.03-14.73-21.59-1 .55 3.34 4.89h-17.78l-3.65-5.18-1.01.29 3.59 4.89h-8.32c-.09-.24-.22-.49-.38-.75 0-.01-.01-.01-.01-.02.34.03.67.06.97.06 1.62 0 2.45-.48 2.5-1.27.01-.2-.03-.41-.12-.64-.27-.69-.98-1.52-2.14-2.42H202.1l-1.69.01zm23.04 5.68l3.94 5.92-12.98-4.63c.31-.31.46-.7.45-1.14v-.03c0-.04 0-.08-.01-.12h8.6z"/><linearGradient id="e" gradientUnits="userSpaceOnUse" x1="140.675" y1="148.1372" x2="140.675" y2="62.1328" gradientTransform="matrix(1 0 0 -1 0 200)"><stop offset="0" style="stop-color:#202124"/><stop offset="1" style="stop-color:#202124;stop-opacity:0"/></linearGradient><path opacity=".82" fill="url(#e)" d="M143.74 159.33l-57.36.02-.02-48.88 108.63-.3z"/><path fill="#FABB04" d="M238.59 159.46l.99-.26-10.6-39.87h-20.31l-8.18 39.9 1 .21 1.85-9.02h13.68l2.5 9.05.98-.27-2.43-8.78h18.11l2.41 9.04zm-35.04-10.06l5.62-27.37 7.57 27.37h-13.19z"/><path fill="#4285F4" d="M83.09 73.21v37.2c0 1.76 1.43 3.19 3.19 3.19h.01c1.76 0 3.19-1.43 3.19-3.19 0 1.76 1.43 3.19 3.19 3.19h.01c1.76 0 3.19-1.43 3.19-3.19 0 1.76 1.43 3.19 3.19 3.19h.01c1.76 0 3.19-1.43 3.19-3.19 0 1.76 1.43 3.19 3.19 3.19h.01c1.76 0 3.19-1.43 3.19-3.19 0 1.76 1.43 3.19 3.19 3.19h.01c1.76 0 3.19-1.43 3.19-3.19 0 1.76 1.43 3.19 3.19 3.19h.01c1.76 0 3.19-1.43 3.19-3.19 0 1.76 1.43 3.19 3.19 3.19h.01c1.76 0 3.19-1.43 3.19-3.19 0 1.76 1.43 3.19 3.19 3.19h.01c1.76 0 3.19-1.43 3.19-3.19 0 1.76 1.43 3.19 3.19 3.19h.01c1.76 0 3.19-1.43 3.19-3.19 0 1.76 1.43 3.19 3.19 3.19h.01c1.76 0 3.19-1.43 3.19-3.19 0 1.76 1.43 3.19 3.19 3.19h.01c1.76 0 3.19-1.43 3.19-3.19 0 1.76 1.43 3.19 3.19 3.19h.01c1.76 0 3.19-1.43 3.19-3.19 0 1.76 1.43 3.19 3.19 3.19h.01c1.76 0 3.19-1.43 3.19-3.19 0 1.76 1.43 3.19 3.19 3.19h.01c1.76 0 3.19-1.43 3.19-3.19 0 1.76 1.43 3.19 3.19 3.19h.01c1.76 0 3.19-1.43 3.19-3.19 0 1.76 1.43 3.19 3.19 3.19h.01c1.76 0 3.19-1.43 3.19-3.19 0 1.76 1.43 3.19 3.19 3.19h.01c1.76 0 3.19-1.43 3.19-3.19v.01c0 1.76 1.43 3.18 3.2 3.18 1.77 0 3.2-1.42 3.2-3.18V73.21H83.09z"/><path fill="#FFF" d="M172.69 73.21l-.13 34.41h.01v2.86c.04 1.73 1.45 3.12 3.19 3.12h.01c1.76 0 3.19-1.43 3.19-3.19 0 1.76 1.43 3.19 3.19 3.19h.01c1.71 0 3.1-1.35 3.18-3.04v-2.94l.13-34.41h-12.78zM147.01 107.62v2.86c.04 1.73 1.45 3.12 3.19 3.12h.01c1.76 0 3.19-1.43 3.19-3.19 0 1.76 1.43 3.19 3.19 3.19h.01c1.71 0 3.1-1.35 3.18-3.04v-2.94l.13-34.41h-12.77l-.13 34.41zM121.45 107.62v2.86c.04 1.73 1.45 3.12 3.19 3.12h.01c1.76 0 3.19-1.43 3.19-3.19 0 1.76 1.43 3.19 3.19 3.19h.02c1.71 0 3.1-1.35 3.18-3.04v-2.94l.13-34.41h-12.77l-.14 34.41zM95.87 107.62v2.86c.04 1.73 1.45 3.12 3.19 3.12h.01c1.76 0 3.19-1.43 3.19-3.19 0 1.76 1.43 3.19 3.19 3.19h.01c1.71 0 3.1-1.35 3.18-3.04v-2.94l.13-34.41H96.01l-.14 34.41z"/><linearGradient id="f" gradientUnits="userSpaceOnUse" x1="207.5034" y1="200.5597" x2="146.026" y2="117.6093" gradientTransform="matrix(1 0 0 -1 0 200)"><stop offset="0" style="stop-color:#F1F3F4"/><stop offset="1" style="stop-color:#F1F3F4;stop-opacity:0"/></linearGradient><path fill="url(#f)" d="M83.09 73.21h115.06v32.95H83.09z"/><linearGradient id="g" gradientUnits="userSpaceOnUse" x1="140.635" y1="94.3526" x2="140.635" y2="80.2034" gradientTransform="matrix(1 0 0 -1 0 200)"><stop offset=".1061" style="stop-color:#202124;stop-opacity:0.1"/><stop offset="1" style="stop-color:#202124;stop-opacity:0"/></linearGradient><path fill="url(#g)" d="M191.75 106.32H83.12v4.09c0 1.76 1.43 3.19 3.19 3.19h.01c1.76 0 3.19-1.43 3.19-3.19 0 1.76 1.43 3.19 3.19 3.19h.01c1.76 0 3.19-1.43 3.19-3.19 0 1.76 1.43 3.19 3.19 3.19h.01c1.76 0 3.19-1.43 3.19-3.19 0 1.76 1.43 3.19 3.19 3.19h.01c1.76 0 3.19-1.43 3.19-3.19 0 1.76 1.43 3.19 3.19 3.19h.01c1.76 0 3.19-1.43 3.19-3.19 0 1.76 1.43 3.19 3.19 3.19h.01c1.76 0 3.19-1.43 3.19-3.19 0 1.76 1.43 3.19 3.19 3.19h.01c1.76 0 3.19-1.43 3.19-3.19 0 1.76 1.43 3.19 3.19 3.19h.01c1.76 0 3.19-1.43 3.19-3.19 0 1.76 1.43 3.19 3.19 3.19h.01c1.76 0 3.19-1.43 3.19-3.19 0 1.76 1.43 3.19 3.19 3.19h.01c1.76 0 3.19-1.43 3.19-3.19 0 1.76 1.43 3.19 3.19 3.19h.01c1.76 0 3.19-1.43 3.19-3.19 0 1.76 1.43 3.19 3.19 3.19h.01c1.76 0 3.19-1.43 3.19-3.19 0 1.76 1.43 3.19 3.19 3.19h.01c1.76 0 3.19-1.43 3.19-3.19 0 1.76 1.43 3.19 3.19 3.19h.01c1.76 0 3.19-1.43 3.19-3.19 0 1.76 1.43 3.19 3.19 3.19h.01c1.76 0 3.19-1.43 3.19-3.19 0 1.76 1.43 3.19 3.19 3.19h.01c1.76 0 3.19-1.43 3.19-3.19 0 1.76 1.43 3.19 3.19 3.19h.01c1.76 0 3.19-1.43 3.19-3.19v.01c0 1.76 1.43 3.18 3.2 3.18 1.77 0 3.2-1.42 3.2-3.18v-4.14l-6.4.04z"/><path fill="#34A853" d="M245.67 58.4c0-.74-.08-1.45-.22-2.15-.99-4.75-5.22-8.33-10.26-8.33H211.2c-5.78 0-10.48 4.7-10.48 10.48 0 5.38 4.03 9.86 9.37 10.42.32.03.57.31.57.63v4.98l5.22-5.35c.12-.12.28-.19.45-.19h18.87c5.76-.01 10.47-4.71 10.47-10.49z"/><linearGradient id="h" gradientUnits="userSpaceOnUse" x1="94.9949" y1="125.6078" x2="78.8063" y2="103.4137" gradientTransform="matrix(1 0 0 -1 0 200)"><stop offset="0" style="stop-color:#202124"/><stop offset=".6727" style="stop-color:#202124;stop-opacity:0"/></linearGradient><path opacity=".25" fill="url(#h)" d="M83.08 105.38l21.28-23.23-21.28-12.02z"/><path fill="#E8EAED" d="M62.37 80.71c-18.11-6.9-27.19-27.18-20.29-45.29S69.25 8.23 87.36 15.13s27.2 27.18 20.29 45.29c-1.45 3.81-3.5 7.22-6 10.16l2.7 11.57-9.94-5.1c-9.13 6.12-20.99 7.87-32.04 3.66z"/><linearGradient id="i" gradientUnits="userSpaceOnUse" x1="41.6545" y1="178.2425" x2="101.0257" y2="131.4717" gradientTransform="matrix(1 0 0 -1 0 200)"><stop offset="0" style="stop-color:#FFFFFF;stop-opacity:0.6"/><stop offset="1" style="stop-color:#E8EAED"/></linearGradient><path fill="url(#i)" d="M62.37 80.71c-18.11-6.9-27.19-27.18-20.29-45.29S69.25 8.23 87.36 15.13s27.2 27.18 20.29 45.29c-1.45 3.81-3.5 7.22-6 10.16l2.7 11.57-9.94-5.1c-9.13 6.12-20.99 7.87-32.04 3.66z"/><path fill="#4285F4" d="M93.89 44.71l-8.79 1.95-1.63-7.33 8.79-1.95c.65-.16 1.47.16 1.79.81.33.49.49 1.3.81 2.44s.33 1.95.33 2.44c0 .83-.49 1.48-1.3 1.64z"/><linearGradient id="j" gradientUnits="userSpaceOnUse" x1="70.1499" y1="1812.0862" x2="96.671" y2="1806.2662" gradientTransform="translate(0 -1766)"><stop offset="0" style="stop-color:#202124"/><stop offset="1" style="stop-color:#202124;stop-opacity:0"/></linearGradient><path fill="url(#j)" d="M93.89 44.71l-8.79 1.95-1.63-7.33 8.79-1.95c.65-.16 1.47.16 1.79.81.33.49.49 1.3.81 2.44s.33 1.95.33 2.44c0 .83-.49 1.48-1.3 1.64z"/><path fill="#4285F4" d="M71.75 66.37c.16 1.63-.98 3.26-2.77 3.58-1.63.33-2.93-.49-3.26-.65L62.3 54l8.63-1.95.82 14.32z"/><linearGradient id="k" gradientUnits="userSpaceOnUse" x1="68.7394" y1="1794.8977" x2="66.6976" y2="1832.5569" gradientTransform="translate(0 -1766)"><stop offset="0" style="stop-color:#202124"/><stop offset="1" style="stop-color:#202124;stop-opacity:0"/></linearGradient><path fill="url(#k)" d="M71.75 66.37c.16 1.63-.98 3.26-2.77 3.58-1.63.33-2.93-.49-3.26-.65L62.3 54l8.63-1.95.82 14.32z"/><linearGradient id="l" gradientUnits="userSpaceOnUse" x1="57.2998" y1="1758.4536" x2="76.68" y2="1829.2098" gradientTransform="translate(0 -1766)"><stop offset="0" style="stop-color:#FFFFFF"/><stop offset=".837" style="stop-color:#4285F4"/></linearGradient><path fill="url(#l)" d="M85.91 28.27s0-.16 0 0c0-.16-.16 0 0 0-.16 0-.16 0 0 0-1.47.81-3.91 1.79-5.37 2.44-.81.33-1.3.98-1.47 1.95-1.14.65-2.28 1.14-3.09 1.63-2.6 1.14-3.91 1.63-5.05 1.95-2.12.65-4.72 1.14-5.37 1.3-.16 0-.33 0-.49.16-2.77.65-4.88 2.77-5.86 5.37l-3.09.65c-1.63.33-2.77 2.12-2.28 3.74l1.14 5.21c.33 1.63 2.12 2.77 3.74 2.44l2.93-.65c1.95 1.95 4.72 2.93 7.49 2.6h.49c1.79-.49 3.74-.98 6.02-1.3 1.47-.16 2.6-.33 5.21-.49h2.93c.33.65 1.14 1.14 1.95 1.14 1.63 0 4.23 0 6.02.16-2.1-9.58-4.06-19.02-5.85-28.3z"/><path fill="#FFF" d="M83.79 55.3l-4.72-22.63c-.07.03-.93.5-.98.52l4.57 22.11h1.13z"/></svg>