<?xml version="1.0" encoding="utf-8"?>
<!-- Generator: Adobe Illustrator 24.0.2, SVG Export Plug-In . SVG Version: 6.00 Build 0)  -->
<svg version="1.1" id="Layer_1" xmlns="http://www.w3.org/2000/svg" xmlns:xlink="http://www.w3.org/1999/xlink" x="0px" y="0px"
	 width="2900px" height="1700px" viewBox="0 0 2900 1700" enable-background="new 0 0 2900 1700" xml:space="preserve">
<linearGradient id="SVGID_1_" gradientUnits="userSpaceOnUse" x1="1398.4131" y1="935.7223" x2="1398.4131" y2="609.1544">
	<stop  offset="0" style="stop-color:#6C7379;stop-opacity:0"/>
	<stop  offset="1" style="stop-color:#6C7379"/>
</linearGradient>
<path fill="url(#SVGID_1_)" d="M2441.512,935.722c-12.628-52.752-86.151-134.135-213.453-134.135
	c-102.636,0-161.817,68.574-285.822,59.514c-117.811-8.607-261.738-100.963-402.631-110.17
	c-134.065-88.389-308.052-141.777-498.217-141.777c-300.076,0-559.911,132.897-686.075,326.568h1184.292l0,0H2441.512z"/>
<radialGradient id="SVGID_2_" cx="1396.0291" cy="5944.3442" r="1444.0193" gradientTransform="matrix(1 0 0 0.4151 0 -1572.6545)" gradientUnits="userSpaceOnUse">
	<stop  offset="0" style="stop-color:#FFFFFF;stop-opacity:0.6"/>
	<stop  offset="0.9114" style="stop-color:#FFFFFF;stop-opacity:0"/>
</radialGradient>
<rect x="32.584" y="935.722" fill="url(#SVGID_2_)" width="2836.878" height="582.925"/>
<linearGradient id="SVGID_3_" gradientUnits="userSpaceOnUse" x1="5779.1484" y1="6952.8687" x2="5779.1484" y2="6745.6274" gradientTransform="matrix(0 1 -1 0 7179.1899 -4637.5742)">
	<stop  offset="0" style="stop-color:#8C9196;stop-opacity:0"/>
	<stop  offset="1" style="stop-color:#8C9196"/>
</linearGradient>
<polygon fill="url(#SVGID_3_)" points="433.562,1162.069 433.562,1121.079 226.321,1121.079 226.321,1162.069 "/>
<circle fill="#FFBA00" cx="1873.121" cy="605.605" r="78.01"/>
<path fill="#8C9196" d="M433.503,1121.219l1787.08,0.218c18.479-0.054,33.513-15.132,33.513-33.611v-50.151
	c0-22.305,8.744-43.216,24.622-58.882c15.877-15.665,36.914-24.234,59.207-23.955l12.781,0v40.996h-13.332
	c-11.287-0.122-21.852,4.244-29.86,12.144c-8.008,7.901-12.418,18.447-12.418,29.696v50.151c0,41.021-33.373,74.492-74.394,74.611
	l-1787.08-0.218L433.503,1121.219z"/>
<linearGradient id="SVGID_4_" gradientUnits="userSpaceOnUse" x1="5550.8818" y1="-1333.0614" x2="5550.8818" y2="-1540.3024" gradientTransform="matrix(0 -1 1 0 3891.0144 6526.208)">
	<stop  offset="0" style="stop-color:#8C9196;stop-opacity:0"/>
	<stop  offset="1" style="stop-color:#8C9196"/>
</linearGradient>
<polygon fill="url(#SVGID_4_)" points="2350.712,954.832 2350.712,995.821 2557.953,995.821 2557.953,954.832 "/>
<linearGradient id="SVGID_5_" gradientUnits="userSpaceOnUse" x1="-9450.6289" y1="1058.4551" x2="-7132.853" y2="1058.4551" gradientTransform="matrix(-1 0 0 1 -6892.6816 0)">
	<stop  offset="0" style="stop-color:#FFFFFF;stop-opacity:0"/>
	<stop  offset="0.0707" style="stop-color:#FFFFFF;stop-opacity:0.1413"/>
	<stop  offset="0.5" style="stop-color:#FFFFFF"/>
	<stop  offset="0.9293" style="stop-color:#FFFFFF;stop-opacity:0.1413"/>
	<stop  offset="1" style="stop-color:#FFFFFF;stop-opacity:0"/>
</linearGradient>
<path fill="url(#SVGID_5_)" d="M2219.419,1144.074l-22.75-0.007l0.001-5l22.75,0.007L2219.419,1144.074z M2173.92,1144.062
	l-22.75-0.006l0.001-5l22.75,0.006L2173.92,1144.062z M2128.42,1144.05l-22.75-0.006l0.001-5l22.75,0.006L2128.42,1144.05z
	 M2082.92,1144.037l-22.75-0.006l0.001-5l22.75,0.006L2082.92,1144.037z M2037.42,1144.025l-22.75-0.006l0.001-5l22.75,0.006
	L2037.42,1144.025z M1991.92,1144.014l-22.75-0.007l0.001-5l22.75,0.007L1991.92,1144.014z M1946.42,1144.001l-22.75-0.006l0.001-5
	l22.75,0.006L1946.42,1144.001z M1900.92,1143.989l-22.75-0.006l0.001-5l22.75,0.006L1900.92,1143.989z M1855.42,1143.977
	l-22.75-0.006l0.001-5l22.75,0.006L1855.42,1143.977z M1809.92,1143.965l-22.75-0.006l0.001-5l22.75,0.006L1809.92,1143.965z
	 M1764.42,1143.953l-22.75-0.007l0.001-5l22.75,0.007L1764.42,1143.953z M1718.92,1143.94l-22.75-0.006l0.001-5l22.75,0.006
	L1718.92,1143.94z M1673.42,1143.929l-22.75-0.006l0.001-5l22.75,0.006L1673.42,1143.929z M1627.92,1143.916l-22.75-0.006l0.001-5
	l22.75,0.006L1627.92,1143.916z M1582.42,1143.904l-22.75-0.006l0.001-5l22.75,0.006L1582.42,1143.904z M1536.92,1143.892
	l-22.75-0.006l0.001-5l22.75,0.006L1536.92,1143.892z M1491.42,1143.88l-22.75-0.006l0.001-5l22.75,0.006L1491.42,1143.88z
	 M1445.92,1143.868l-22.75-0.007l0.001-5l22.75,0.007L1445.92,1143.868z M1400.42,1143.855l-22.75-0.006l0.001-5l22.75,0.006
	L1400.42,1143.855z M1354.92,1143.844l-22.75-0.006l0.001-5l22.75,0.006L1354.92,1143.844z M1309.42,1143.831l-22.75-0.006l0.001-5
	l22.75,0.006L1309.42,1143.831z M1263.92,1143.819l-22.75-0.006l0.001-5l22.75,0.006L1263.92,1143.819z M1218.42,1143.808
	l-22.75-0.007l0.001-5l22.75,0.007L1218.42,1143.808z M1172.92,1143.795l-22.75-0.006l0.001-5l22.75,0.006L1172.92,1143.795z
	 M1127.42,1143.783l-22.75-0.006l0.001-5l22.75,0.006L1127.42,1143.783z M1081.92,1143.771l-22.75-0.006l0.001-5l22.75,0.006
	L1081.92,1143.771z M1036.42,1143.759l-22.75-0.006l0.001-5l22.75,0.006L1036.42,1143.759z M990.92,1143.747l-22.75-0.007l0.001-5
	l22.75,0.007L990.92,1143.747z M945.421,1143.734l-22.75-0.006l0.001-5l22.75,0.006L945.421,1143.734z M899.921,1143.723
	l-22.75-0.006l0.001-5l22.75,0.006L899.921,1143.723z M854.421,1143.71l-22.75-0.006l0.001-5l22.75,0.006L854.421,1143.71z
	 M808.921,1143.698l-22.75-0.006l0.001-5l22.75,0.006L808.921,1143.698z M763.421,1143.687l-22.75-0.007l0.001-5l22.75,0.007
	L763.421,1143.687z M717.921,1143.674l-22.75-0.006l0.001-5l22.75,0.006L717.921,1143.674z M672.421,1143.662l-22.75-0.007l0.002-5
	l22.75,0.007L672.421,1143.662z M626.921,1143.649l-22.75-0.006l0.001-5l22.75,0.006L626.921,1143.649z M581.421,1143.638
	l-22.75-0.006l0.001-5l22.75,0.006L581.421,1143.638z M535.921,1143.625l-22.75-0.006l0.001-5l22.75,0.006L535.921,1143.625z
	 M490.421,1143.613l-22.75-0.006l0.001-5l22.75,0.006L490.421,1143.613z M444.921,1143.602l-22.75-0.007l0.001-5l22.75,0.007
	L444.921,1143.602z M399.421,1143.589l-22.75-0.006l0.001-5l22.75,0.006L399.421,1143.589z M353.921,1143.577l-22.75-0.006l0.001-5
	l22.75,0.006L353.921,1143.577z M308.421,1143.564l-22.75-0.006l0.001-5l22.75,0.006L308.421,1143.564z M262.921,1143.553
	l-22.75-0.006l0.001-5l22.75,0.006L262.921,1143.553z M2242.57,1139.66l-1.932-4.611c6.737-2.822,12.685-6.955,17.678-12.284
	l3.648,3.42C2256.486,1132.029,2249.961,1136.563,2242.57,1139.66z M2274.127,1105.924l-4.734-1.607
	c1.794-5.284,2.704-10.833,2.704-16.491v-5.139h5v5.139C2277.096,1094.031,2276.097,1100.12,2274.127,1105.924z M2277.096,1059.937
	h-5l0.001-22.772l5,0.045l-0.001,0.458V1059.937z M2281.187,1015.886l-4.656-1.822c2.884-7.373,7.057-14.098,12.4-19.985l3.703,3.36
	C2287.7,1002.874,2283.849,1009.081,2281.187,1015.886z M2309.892,984.256l-2.264-4.458c7.081-3.598,14.678-5.829,22.58-6.634
	l0.507,4.975C2323.428,978.881,2316.422,980.938,2309.892,984.256z M2557.947,977.836h-22.75v-5h22.75V977.836z M2512.447,977.836
	h-22.75v-5h22.75V977.836z M2466.947,977.836h-22.75v-5h22.75V977.836z M2421.447,977.836h-22.75v-5h22.75V977.836z
	 M2375.947,977.836h-22.75v-5h22.75V977.836z"/>
<path fill="#8A9195" d="M875.836,522.709h-47.355c-1.311,0-2.375,1.063-2.375,2.375v26.855h-92.249
	c-4.149,0-7.512,3.363-7.512,7.512v76.999l-32.421,64.231c-0.826,1.636-1.256,3.443-1.256,5.276v228.475h33.677h40.667h111.199
	V561.469v-9.531v-26.855C878.211,523.772,877.148,522.709,875.836,522.709z"/>
<path fill="#FFFFFF" d="M878.211,706.622v-5h-48.016V637.36h48.016v-5h-48.016V552.85h48.016v-0.912v-4.088h-52.105v4.088h-0.912
	v80.422h-47.74v-80.422h-5v80.422h-46.11v4.089l-0.46,0.911h46.57v64.262h-78.94c-0.55,1.377-0.848,2.845-0.848,4.334v0.666h79.787
	v71.886h-79.787v5h79.787v150.923h5V783.508h47.74v150.923h5V783.508h48.016v-5h-48.016v-71.886H878.211z M825.195,778.508h-47.74
	v-71.886h47.74V778.508z M825.195,701.622h-47.74V637.36h47.74V701.622z"/>
<radialGradient id="SVGID_6_" cx="730.7623" cy="551.7378" r="237.2802" gradientUnits="userSpaceOnUse">
	<stop  offset="0" style="stop-color:#FFFFFF;stop-opacity:0.4"/>
	<stop  offset="0.9327" style="stop-color:#FFFFFF;stop-opacity:0.0269"/>
	<stop  offset="1" style="stop-color:#FFFFFF;stop-opacity:0"/>
</radialGradient>
<path fill="url(#SVGID_6_)" d="M875.836,522.708h-47.355c-1.312,0-2.375,1.063-2.375,2.375v26.855h-92.249
	c-4.149,0-7.512,3.364-7.512,7.512v76.999l-32.421,64.231c-0.826,1.636-1.256,3.443-1.256,5.276v82.812
	c15.641,4.057,32.046,6.22,48.956,6.22c53.239,0,101.473-21.405,136.587-56.069V561.469v-9.531v-26.855
	C878.211,523.772,877.148,522.708,875.836,522.708z"/>
<path fill="none" d="M875.836,522.709h-47.355c-1.311,0-2.375,1.063-2.375,2.375v26.855h-92.249c-4.149,0-7.512,3.363-7.512,7.512
	v76.999l-32.421,64.231c-0.826,1.636-1.256,3.443-1.256,5.276v228.475h33.677h40.667h111.199V561.469v-9.531v-26.855
	C878.211,523.772,877.148,522.709,875.836,522.709z"/>
<linearGradient id="SVGID_7_" gradientUnits="userSpaceOnUse" x1="1708.9757" y1="1041.7524" x2="1700.1594" y2="1142.5232">
	<stop  offset="0" style="stop-color:#202124;stop-opacity:0.9"/>
	<stop  offset="1" style="stop-color:#202124;stop-opacity:0"/>
</linearGradient>
<path fill="url(#SVGID_7_)" d="M1899.754,1058.443c-46.038,28.659-94.195,47.489-127.45,47.489
	c-29.388,0-40.971-14.721-35.492-37.918c-62.614,37.735-127.069,62.219-172.155,62.219c-48.79,0-62.899-28.679-43.952-71.789
	H1899.754z"/>
<linearGradient id="SVGID_8_" gradientUnits="userSpaceOnUse" x1="-1468.2073" y1="1132.3763" x2="-1468.2073" y2="1273.3207" gradientTransform="matrix(-1 0 0 1 -502.0875 0)">
	<stop  offset="0" style="stop-color:#202124;stop-opacity:0.9"/>
	<stop  offset="0.4421" style="stop-color:#202124;stop-opacity:0.9881"/>
	<stop  offset="0.5019" style="stop-color:#202124"/>
	<stop  offset="1" style="stop-color:#202124"/>
</linearGradient>
<path fill="url(#SVGID_8_)" d="M781.714,1154.893c12.765-9.055,28.056-12.977,46.616-12.97c0.463,0,0.927,0,1.39,0
	c2.765-1.344,5.701-2.607,8.789-3.751c10.611-3.932,21.231-5.886,29.586-5.79l0.005-0.005c0.096-0.002,0.185,0.004,0.28,0.003
	c0.092,0.002,0.193-0.005,0.285-0.003l-0.005,0.005c8.545-0.095,15.258,1.859,18.005,5.79c0.801,1.146,1.212,2.411,1.288,3.759
	c27.182,0.001,54.365,0.003,81.55,0.001c2.771-1.348,5.713-2.613,8.807-3.76c10.611-3.932,21.231-5.886,29.586-5.79l0.005-0.005
	c0.096-0.002,0.185,0.004,0.28,0.003c0.093,0.002,0.193-0.005,0.286-0.003l-0.005,0.005c8.545-0.095,15.258,1.859,18.005,5.79
	c0.807,1.154,1.217,2.429,1.289,3.786c26.918,0.008,53.829,0.023,80.764,0.014c2.794-1.363,5.764-2.642,8.889-3.8
	c10.612-3.932,21.231-5.886,29.586-5.79l0.005-0.005c0.096-0.002,0.185,0.004,0.28,0.003c0.093,0.002,0.193-0.005,0.286-0.003
	l-0.005,0.005c8.545-0.095,15.257,1.859,18.005,5.79c0.795,1.137,1.205,2.39,1.286,3.725c6.097-0.015,12.194-0.031,18.297-0.051
	c8.327-0.028,9.925,1.327,8.32,5.176c-10.237,24.547-33.902,49.516-66.402,74.501c-43.151,33.173-106.119,51.712-172.7,51.742
	c-38.216,0.017-76.339-0.06-114.651,0.055c-20.044,0.06-37.047-1.93-50.383-6.391c-40.59-13.578-56.218-34.903-49.689-63.058
	C743.35,1187.893,758.345,1171.471,781.714,1154.893z"/>
<linearGradient id="SVGID_9_" gradientUnits="userSpaceOnUse" x1="-1683.9841" y1="1210.7588" x2="-1683.9841" y2="1658.9735" gradientTransform="matrix(-1 0 0 1 -502.0875 0)">
	<stop  offset="0" style="stop-color:#202124;stop-opacity:0.9"/>
	<stop  offset="0.4011" style="stop-color:#202124;stop-opacity:0.9881"/>
	<stop  offset="0.4553" style="stop-color:#202124"/>
	<stop  offset="1" style="stop-color:#202124;stop-opacity:0"/>
</linearGradient>
<path fill="url(#SVGID_9_)" d="M946.448,1503.629c24.399-26.165,56.798-50.812,93.573-72.444c0.233-0.161,0.484-0.322,0.766-0.484
	c49.871-28.776,100.39-54.447,153.911-79.536c80.367-37.673,151.038-80.144,213.108-127.255
	c10.825-8.216,25.263-13.213,37.484-13.151c12.339-0.062,17.456,4.935,12.958,13.151c-25.793,47.111-34.332,89.582-24.228,127.255
	c6.317,23.553,9.032,47.619,6.199,74.285c-0.136,1.607-0.328,3.231-0.58,4.875c-0.016,0.126-0.027,0.249-0.044,0.375
	c-0.006,0.05-0.032,0.099-0.042,0.149c-3.482,21.711-17.067,46.479-41.592,72.779c-80.005,85.794-245.935,155.344-370.617,155.344
	C902.662,1658.974,866.444,1589.424,946.448,1503.629z M1096.744,1503.615c-26.521,28.437-14.507,51.755,26.752,51.923
	c41.308,0.168,97.529-23.338,124.197-51.925c26.526-28.436,14.479-51.772-26.787-51.892
	C1179.419,1451.599,1123.432,1475,1096.744,1503.615z"/>
<path fill="#BEC3C8" d="M1136.116,1057.209c6.734-7.966,15.421-11.904,23.88-11.714v-0.01c0.094-0.004,0.189,0.008,0.283,0.005
	c0.094,0.003,0.189-0.01,0.283-0.005v0.01c8.46-0.19,17.147,3.748,23.88,11.714c14.374,17.006,14.335,46.705-0.085,63.68
	c-6.679,7.864-15.345,11.771-23.796,11.581v0.01c-0.094,0.004-0.189-0.008-0.283-0.005c-0.094-0.003-0.189,0.009-0.283,0.005v-0.01
	c-8.45,0.191-17.116-3.717-23.796-11.581C1121.781,1103.914,1121.742,1074.215,1136.116,1057.209z"/>
<path fill="#4285F4" d="M1013.41,1113.372c59.125,0,118.251-0.025,177.376,0.015c18.565,0.013,29.935-7.83,33.645-25.94
	c6.792-33.155,5.365-65.999-6.908-97.954c-21.627-56.311-58.58-98.961-112.747-126.117c-17.798-8.923-36.791-12.902-56.774-12.782
	c-38.198,0.23-76.398,0.075-114.596,0.109c-66.552,0.059-110.98,37.137-120.958,103.484c-7.515,49.97-6.212,99.907,8.098,149.001
	c2.244,7.699,5.197,10.409,13.496,10.353c59.787-0.406,119.578-0.218,179.368-0.218
	C1013.41,1113.34,1013.41,1113.356,1013.41,1113.372z"/>
<path fill="#1A73E8" d="M1195.999,1083.013h-73.737c-4.492,0-8.147-3.655-8.147-8.147v-11.224c0-4.492,3.655-8.147,8.147-8.147
	h73.737c4.492,0,8.147,3.655,8.147,8.147v11.224C1204.146,1079.357,1200.491,1083.013,1195.999,1083.013z M1122.262,1060.494
	c-1.735,0-3.147,1.412-3.147,3.147v11.224c0,1.735,1.412,3.147,3.147,3.147h73.737c1.735,0,3.147-1.412,3.147-3.147v-11.224
	c0-1.735-1.412-3.147-3.147-3.147H1122.262z"/>
<path fill="#1A73E8" d="M926.144,992.837c-0.384,0-0.774-0.09-1.14-0.277l-27.21-13.972c-1.228-0.63-1.712-2.138-1.082-3.365
	c0.631-1.229,2.136-1.714,3.366-1.082l27.21,13.972c1.228,0.63,1.712,2.138,1.082,3.365
	C927.926,992.341,927.051,992.837,926.144,992.837z"/>
<path fill="#1A73E8" d="M976.815,1096.148c-0.136,0-0.275-0.011-0.414-0.034l-50.667-8.444c-1.362-0.227-2.282-1.515-2.055-2.877
	c0.227-1.361,1.509-2.282,2.877-2.055l50.667,8.444c1.362,0.227,2.282,1.515,2.055,2.877
	C979.074,1095.282,978.015,1096.148,976.815,1096.148z"/>
<path fill="none" d="M1013.41,1113.372c59.125,0,118.251-0.025,177.376,0.015c18.565,0.013,29.935-7.83,33.645-25.94
	c6.792-33.155,5.365-65.999-6.908-97.954c-21.627-56.311-58.58-98.961-112.747-126.117c-17.798-8.923-36.791-12.902-56.774-12.782
	c-38.198,0.23-76.398,0.075-114.596,0.109c-66.552,0.059-110.98,37.137-120.958,103.484c-7.515,49.97-6.212,99.907,8.098,149.001
	c2.244,7.699,5.197,10.409,13.496,10.353c59.787-0.406,119.578-0.218,179.368-0.218
	C1013.41,1113.34,1013.41,1113.356,1013.41,1113.372z"/>
<g>
	<path fill="#BEC3C8" d="M996.313,1057.209c6.734-7.966,15.42-11.904,23.88-11.714v-0.01c0.094-0.004,0.189,0.008,0.283,0.005
		c0.094,0.003,0.189-0.01,0.283-0.005v0.01c8.46-0.19,17.147,3.748,23.88,11.714c14.373,17.006,14.334,46.705-0.085,63.68
		c-6.68,7.864-15.346,11.771-23.796,11.581v0.01c-0.094,0.004-0.189-0.008-0.283-0.005c-0.094-0.003-0.189,0.009-0.283,0.005v-0.01
		c-8.45,0.191-17.116-3.717-23.796-11.581C981.978,1103.914,981.94,1074.215,996.313,1057.209z"/>
	<path fill="#BEC3C8" d="M857.214,1057.209c6.734-7.966,15.421-11.904,23.88-11.714v-0.01c0.094-0.004,0.189,0.008,0.283,0.005
		c0.094,0.003,0.189-0.01,0.283-0.005v0.01c8.46-0.19,17.147,3.748,23.88,11.714c14.373,17.006,14.335,46.705-0.085,63.68
		c-6.68,7.864-15.346,11.771-23.796,11.581v0.01c-0.094,0.004-0.189-0.008-0.283-0.005c-0.094-0.003-0.189,0.009-0.283,0.005v-0.01
		c-8.45,0.191-17.116-3.717-23.796-11.581C842.88,1103.914,842.841,1074.215,857.214,1057.209z"/>
</g>
<g>
	<path fill="#E6EBF0" d="M1063.086,989.358c-12.75,0-24.219,0.111-35.684-0.036c-8.515-0.109-14.823-3.812-17.012-12.451
		c-2.345-9.255,4.812-17.568,15.83-18.43c5.281-0.413,10.614-0.167,15.923-0.191c4.899-0.022,9.799-0.005,15.833-0.005
		c-0.934-3.789-1.171-6.399-2.193-8.653c-19.552-43.09-50.14-74.474-97.446-84.626c-29.236-6.274-57.041-0.81-77.601,24.08
		c-19.606,23.735-13.827,57.098,13.58,71.282c38.598,19.975,77.719,38.976,116.998,57.589
		C1032.847,1028.122,1053.4,1016.981,1063.086,989.358z"/>
	<path fill="#E6EBF0" d="M1001.165,869.572c2.53,1.915,5.087,3.797,7.586,5.751c33.64,26.291,59.785,58.218,74.301,98.88
		c4.08,11.43,9.919,15.894,22.29,15.966c29.542,0.171,59.086,0.265,88.627,0.008c15.949-0.139,21.685-10.033,14.563-24.254
		c-19.634-39.202-47.863-70.649-85.395-93.401c-4.792-2.905-11.047-4.683-16.651-4.752c-34.821-0.426-69.651-0.214-104.478-0.214
		C1001.727,868.228,1001.446,868.9,1001.165,869.572z"/>
</g>
<rect x="922.646" y="859.315" fill="#4285F4" width="7" height="122.752"/>
<path fill="#FFFFFF" d="M1073.405,1022.796c-0.002,9.538,6.834,18.269,14.514,18.539c8.098,0.284,15.238-8.486,15.29-18.779
	c0.052-10.384-6.715-18.938-15.04-19.012C1080.184,1003.474,1073.407,1012.311,1073.405,1022.796z"/>
<path fill="#FFFFFF" d="M1225.395,1041.291c0.977-0.009,1.943-0.181,2.885-0.479c-0.574-12.181-2.457-24.282-5.786-36.272
	c-6.136,2.17-11.115,9.782-11.218,18.05C1211.153,1032.37,1217.943,1041.362,1225.395,1041.291z"/>
<path fill="#FFFFFF" d="M983.769,1113.755c-9.272-20.863-6.709-48.478,7.728-65.559c7.766-9.188,18.174-14.325,28.562-14.09
	c0.081,0.005,0.165-0.001,0.248-0.007c0.057,0.003,0.114,0.001,0.171,0.002c0.055,0.001,0.108-0.001,0.153-0.003
	c0.087,0.008,0.176,0.014,0.263,0.008c10.387-0.219,20.796,4.902,28.562,14.09c14.425,17.066,16.996,44.649,7.753,65.505
	c1.792,0,3.585,0,5.377,0c8.895-22.292,5.807-50.847-9.312-68.734c-8.681-10.271-20.433-16.064-32.231-15.864
	c-0.028-0.003-0.056-0.005-0.084-0.006c-0.143-0.008-0.288-0.004-0.402,0.005c-0.054-0.001-0.077-0.001-0.132-0.002
	c-0.143-0.007-0.287-0.009-0.432-0.003c-0.028,0.001-0.056,0.003-0.083,0.006c-11.822-0.204-23.55,5.593-32.231,15.864
	c-15.131,17.903-18.211,46.491-9.288,68.791C980.183,1113.756,981.976,1113.756,983.769,1113.755z"/>
<path fill="#FFFFFF" d="M844.593,1113.587c-9.183-20.843-6.593-48.357,7.805-65.391c7.766-9.188,18.185-14.325,28.562-14.09
	c0.081,0.005,0.166-0.001,0.248-0.007c0.058,0.003,0.114,0.001,0.172,0.002c0.056-0.002,0.107-0.001,0.153-0.003
	c0.087,0.008,0.176,0.014,0.263,0.008c10.398-0.224,20.796,4.902,28.562,14.09c14.442,17.086,17.001,44.714,7.719,65.579
	c1.793,0.001,3.586,0.006,5.379,0.006c8.934-22.303,5.857-50.904-9.279-68.813c-8.682-10.271-20.421-16.052-32.231-15.864
	c-0.028-0.003-0.056-0.005-0.084-0.006c-0.143-0.008-0.288-0.004-0.402,0.005c-0.054-0.001-0.076-0.001-0.132-0.002
	c-0.143-0.007-0.288-0.009-0.432-0.003c-0.028,0.001-0.056,0.003-0.083,0.006c-11.805-0.204-23.549,5.594-32.231,15.864
	c-15.088,17.851-18.195,46.326-9.367,68.598C841.006,1113.574,842.799,1113.578,844.593,1113.587z"/>
<path fill="#1A73E8" d="M836.695,1022.302v-57.417c0-8.125-6.61-14.735-14.735-14.735h-8.83c-0.234,1.34-0.477,2.673-0.682,4.038
	c-0.048,0.321-0.092,0.641-0.139,0.962h9.651c5.368,0,9.735,4.367,9.735,9.735v57.417c0,5.368-4.367,9.735-9.735,9.735h-13.484
	c0.094,1.667,0.199,3.334,0.318,5h13.166C830.084,1037.037,836.695,1030.427,836.695,1022.302z"/>
<path fill="#34A853" d="M1899.754,1058.443c-17.38-28.659-46.706-47.489-79.961-47.489c-29.388,0-55.692,14.721-73.411,37.918
	c-24.879-37.735-64.85-62.219-109.937-62.219c-48.79,0-91.578,28.679-115.742,71.79H1899.754z"/>
<path fill="#E6EBF0" d="M1591.556,1032.158c-11.741-12.394-20.744-19.151-26.702-22.79c-0.908,0.628-1.814,1.258-2.708,1.909
	c5.658,3.295,14.897,9.923,27.232,22.943c9.495,10.022,15.647,18.197,19.565,24.223h3.589
	C1608.596,1052.148,1602.101,1043.289,1591.556,1032.158z"/>
<path fill="#E6EBF0" d="M1671.786,1058.443h3.188c2.087-6.386,4.557-16.237,5.861-29.708c1.441-14.892,0.609-26.622-0.37-33.952
	c-1.066-0.407-2.139-0.798-3.217-1.176c1.031,7.003,2.111,19.228,0.6,34.839C1676.511,1042.276,1673.876,1052.268,1671.786,1058.443
	z"/>
<path fill="#E6EBF0" d="M1697.781,1058.443c3.893-3.532,8.49-8.26,13.612-14.556c6.083-7.477,10.577-14.569,13.819-20.497
	c-0.753-0.722-1.519-1.428-2.286-2.132c-3.201,5.951-7.712,13.179-13.86,20.736c-6.191,7.61-11.613,12.876-15.87,16.448H1697.781z"
	/>
<path fill="#E6EBF0" d="M1790.92,1058.443h3.739l-24.091-32.372c-0.832,0.554-1.657,1.12-2.473,1.701L1790.92,1058.443z"/>
<path fill="#E6EBF0" d="M1821.124,1058.443c0.464-5.008,0.724-11.299,0.546-19.13c-0.306-13.448-2.88-22.494-5.475-28.276
	c-1.09,0.045-2.175,0.111-3.255,0.196c2.586,5.348,5.416,14.297,5.731,28.148c0.179,7.871-0.097,14.135-0.57,19.062H1821.124z"/>
<path fill="#E6EBF0" d="M1842.085,1058.443h4.06l26.933-29.543c-0.809-0.601-1.627-1.188-2.453-1.762L1842.085,1058.443z"/>
<path fill="#E6EBF0" d="M1615.843,988.404l28.178,70.039h3.233l-28.375-70.528C1617.862,988.062,1616.853,988.233,1615.843,988.404z
	"/>
<path fill="#EA4335" d="M1450,559.388c-124.682,0-225.756,101.074-225.756,225.755c0,38.221,9.511,74.214,26.275,105.766
	c0.036,0.072,0.056,0.143,0.097,0.216c0.101,0.183,0.205,0.362,0.306,0.546c1.281,2.388,2.603,4.749,3.966,7.084
	c22.034,38.754,47.191,73.728,75.471,107.956c45.236,54.749,76.301,116.47,94.44,184.935c3.164,11.94,12.94,19.201,25.222,19.112
	c12.279,0.09,22.057-7.171,25.221-19.112c18.138-68.464,49.204-130.186,94.44-184.935c30.125-36.46,56.706-73.766,79.742-115.586
	c0.13-0.236,0.231-0.47,0.314-0.703c16.604-31.436,26.018-67.255,26.018-105.279C1675.756,660.462,1574.681,559.388,1450,559.388z
	 M1449.704,860.58c-41.379-0.175-75.187-34.089-75.178-75.413c0.009-41.545,34.312-75.704,75.776-75.46
	c41.416,0.244,75.175,34.131,75.171,75.457C1525.469,826.749,1491.304,860.756,1449.704,860.58z"/>
</svg>
