<svg xmlns="http://www.w3.org/2000/svg" width="290" height="200"><path fill="#3C4043" d="M141.9 181.02l-128.83 6.91c-3.19.18-5.89-2.26-6.07-5.45L0 51.95c-.16-2.81 2.02-5.23 4.83-5.38l130.13-6.98c2.81-.16 5.23 2.02 5.38 4.83l7 130.51c.19 3.19-2.25 5.92-5.44 6.09z"/><path fill="#202124" d="M6 52.03l128.03-6.84 4.87 90.76-128.03 6.84L6 52.03z"/><path fill="#3C4043" d="M128.2 108.37c0-28.93-23.46-52.39-52.39-52.39s-52.39 23.46-52.39 52.39c0 12.56 4.45 24.1 11.82 33.12l84.47-4.49c5.37-8.2 8.49-18.07 8.49-28.63z"/><linearGradient id="a" gradientUnits="userSpaceOnUse" x1="581.058" y1="122.7489" x2="49.1933" y2="1.2633" gradientTransform="translate(0 84)"><stop offset="0" style="stop-color:#202124"/><stop offset="1" style="stop-color:#202124;stop-opacity:0"/></linearGradient><path fill="url(#a)" d="M128.18 108.38c0-28.93-23.46-52.39-52.39-52.39-16.18 0-30.65 7.34-40.26 18.87 2.57-1.88 5.34-3.57 8.32-5.01 26.31-12.66 57.96-1.72 70.7 24.44 6.82 14.02 6.82 29.55 1.31 42.91l3.79-.22c5.39-8.22 8.53-18.03 8.53-28.6z"/><circle fill="#5BB974" cx="92.35" cy="86.55" r="14.38"/><circle fill="#DADCE0" cx="46.49" cy="94.66" r="14.06"/><circle fill="#81C995" cx="46.49" cy="94.66" r="14.06"/><path fill="#F28B82" d="M70.44 139.64c-1.14-.27-2.19-.71-3.23-1.39-4.71-3.1-6.02-9.43-2.93-14.14 3.1-4.71 9.43-6.02 14.14-2.93 4.71 3.1 6.02 9.43 2.93 14.14-1.29 1.97-3.06 3.3-5.15 4l-5.76.32z"/><circle fill="#F28B82" cx="86.94" cy="77.51" r="10.21"/><circle fill="#F28B82" cx="51.27" cy="123.67" r="10.79"/><circle fill="#81C995" cx="57" cy="107.2" r="14.64"/><circle fill="#81C995" cx="42.75" cy="109.17" r="10.98"/><linearGradient id="b" gradientUnits="userSpaceOnUse" x1="78.7662" y1="-34.6336" x2="50.517" y2="27.1529" gradientTransform="translate(0 84)"><stop offset="0" style="stop-color:#202124"/><stop offset="1" style="stop-color:#202124;stop-opacity:0"/></linearGradient><path fill="url(#b)" d="M71.54 105.61c-.88-8.04-8.11-13.84-16.15-12.96-4.22.46-7.81 2.68-10.15 5.84-1.18-.28-2.42-.37-3.7-.23-6.03.66-10.38 6.08-9.72 12.11s6.08 10.38 12.11 9.72c1.49-.16 2.88-.62 4.11-1.3 2.89 2.23 6.61 3.4 10.53 2.97 8.05-.89 13.85-8.12 12.97-16.15z"/><path fill="#5F6368" d="M41.77 109.97c-.32 0-.58-.25-.59-.57-.01-.33.25-.6.57-.61l32.82-1.03c.33-.04.6.25.61.57.01.33-.25.6-.57.61l-32.82 1.03h-.02z"/><path fill="#81C995" d="M84.54 76.86c-.12-1.26-.46-2.52-1.04-3.72-2.63-5.44-9.17-7.71-14.61-5.08s-7.71 9.17-5.08 14.61c.65 1.35 1.54 2.5 2.6 3.43-1.2 3.51-1.07 7.48.68 11.08 3.52 7.26 12.25 10.3 19.52 6.79 7.26-3.52 10.3-12.25 6.79-19.52-1.86-3.8-5.13-6.44-8.86-7.59z"/><path fill="#5F6368" d="M95.42 108.56c-.18 0-.35-.08-.47-.23L71.34 77.92c-.2-.26-.15-.63.1-.83.26-.2.63-.15.83.1l23.61 30.41c.2.26.15.63-.1.83-.1.09-.23.13-.36.13z"/><path fill="#5F6368" d="M79.21 87.19l-9.23-.66c-.33-.02-.57-.31-.55-.63.02-.33.31-.57.63-.55l8.05.57.58-8.11c.02-.33.3-.57.63-.55.33.02.57.31.55.63l-.66 9.3zM84.35 94.34h-.04l-9.53-.67c-.33-.02-.57-.31-.55-.63.02-.33.3-.56.63-.55l8.94.63.64-9c.02-.33.3-.58.63-.55.33.02.57.31.55.63l-.68 9.59c-.02.31-.28.55-.59.55z"/><circle fill="#5BB974" cx="64.85" cy="99.54" r="14.64"/><circle fill="#5BB974" cx="79.4" cy="100.85" r="10.98"/><path fill="#5F6368" d="M77.81 101.68h-.08l-34.78-4.52c-.32-.04-.55-.34-.51-.66.04-.32.34-.55.66-.51l34.78 4.52c.32.04.55.34.51.66-.03.3-.29.51-.58.51z"/><path fill="#5F6368" d="M72.17 107.46c-.17 0-.33-.07-.45-.2l-6.3-7.27c-.1-.12-.15-.27-.14-.43s.08-.3.2-.4l7.22-6.26c.25-.21.62-.19.83.06s.19.62-.06.83l-6.77 5.87 5.91 6.82c.21.25.19.62-.06.83-.11.1-.25.15-.38.15zM63.04 106.2c-.17 0-.33-.07-.45-.2l-6.3-7.27c-.21-.25-.19-.62.06-.83l7.22-6.26c.25-.21.62-.19.83.06s.19.62-.06.83l-6.77 5.87 5.91 6.82c.21.25.19.62-.06.83-.11.1-.25.15-.38.15z"/><path fill="#81C995" d="M104.25 137.83c.42-.18.83-.39 1.23-.63 5.13-3.03 6.83-9.65 3.8-14.78s-9.65-6.83-14.78-3.8-6.83 9.65-3.8 14.78c1.42 2.4 3.62 4.05 6.08 4.81l7.47-.38z"/><path fill="#5F6368" d="M85.72 136.42c-.21 0-.41-.11-.52-.3-.16-.29-.06-.65.23-.8l22.81-12.67c.29-.16.65-.05.8.23.16.29.06.65-.23.8L86 136.34c-.09.05-.18.08-.28.08z"/><circle fill="#81C995" cx="109.36" cy="122.52" r="8.09"/><path fill="#5F6368" d="M107.7 129.71c-.04 0-.09 0-.13-.01l-6.98-1.56c-.32-.07-.52-.39-.45-.71l1.55-6.93c.07-.32.39-.52.71-.45s.52.39.45.71l-1.42 6.36 6.4 1.43c.32.07.52.39.45.71-.07.26-.31.45-.58.45zM101.68 132.99c-.04 0-.09 0-.13-.01l-6.98-1.56c-.15-.03-.29-.13-.37-.26-.08-.13-.11-.29-.08-.45l1.55-6.94c.07-.32.39-.52.71-.45s.52.39.45.71l-1.42 6.36 6.4 1.43c.32.07.52.39.45.71-.07.27-.31.46-.58.46z"/><circle fill="#F28B82" cx="84.45" cy="121.98" r="7.9"/><circle fill="#F28B82" cx="102.66" cy="101.15" r="6.36"/><path fill="#81C995" d="M74.59 127.91c-7.23 0-13.19 5.34-14.21 12.28l28.1-1.55c-1.61-6.16-7.21-10.73-13.89-10.73z"/><linearGradient id="c" gradientUnits="userSpaceOnUse" x1="74.8446" y1="22.8923" x2="74.4271" y2="56.8471" gradientTransform="translate(0 84)"><stop offset="0" style="stop-color:#202124"/><stop offset="1" style="stop-color:#202124;stop-opacity:0"/></linearGradient><path fill="url(#c)" d="M74.59 127.83c-7.24 0-13.21 5.35-14.21 12.31l28.13-1.5c-1.6-6.21-7.22-10.81-13.92-10.81z"/><linearGradient id="d" gradientUnits="userSpaceOnUse" x1="429.0847" y1="-228.0251" x2="64.2105" y2="97.1889" gradientTransform="translate(0 84)"><stop offset="0" style="stop-color:#202124"/><stop offset="1" style="stop-color:#202124;stop-opacity:0"/></linearGradient><path fill="url(#d)" d="M147.35 174.96l-5.8-108.16S59.39 124.7 5.99 162.31l1.1 20.36c.17 3.09 2.8 5.45 5.89 5.29l128.9-6.92c3.21-.19 5.65-2.92 5.47-6.08z"/><path fill="#3C4043" d="M245.46 187.43l-123.69-36.68c-3.06-.91-4.78-4.12-3.9-7.18l37.17-125.28c.8-2.7 3.65-4.25 6.36-3.43l124.95 37.06c2.7.8 4.25 3.65 3.43 6.36l-37.15 125.31c-.93 2.99-4.14 4.74-7.17 3.84z"/><path fill="#202124" d="M160.26 20.15L283.5 56.69l-24.94 87.4-124.14-36.81 25.84-87.13z"/><linearGradient id="e" gradientUnits="userSpaceOnUse" x1="211.4545" y1="214.9881" x2="211.4545" y2="232.3225" gradientTransform="rotate(16.724 571.23963 138.03462)"><stop offset="0" style="stop-color:#202124"/><stop offset="1" style="stop-color:#202124;stop-opacity:0"/></linearGradient><path opacity=".3" fill="url(#e)" d="M167.01 106.77s-4.47 3.87-9.64 2.31c-6.18-1.86-7.34-8.2-7.34-8.2l87.52 26.29c-1.16 1.65-3.53 1.78-4.82.36l-.33.59 18.69 13.77-61.61-18.29-14.36-12.11c-6.29.97-8.11-4.72-8.11-4.72z"/><path fill="#FDD663" d="M188.12 44.47l-18.72 62.22 57.25 17.21 18.7-62.23z"/><path fill="#5F6368" d="M222.8 120.72l-18.12-5.55 5.96-20 .07-.24-11.59-3.54-6.1 20.33-15.22-4.63-.14.48 15.22 4.63-.42 1.41.47.15 6.52-21.74 10.64 3.24-6.48 21.74.48.15.44-1.5 18.13 5.55z"/><radialGradient id="f" cx="193.4907" cy="-48.5781" r="52.7278" gradientTransform="translate(0 84)" gradientUnits="userSpaceOnUse"><stop offset=".1761" style="stop-color:#FEF7E0"/><stop offset="1" style="stop-color:#FFFFFF;stop-opacity:0"/></radialGradient><path opacity=".4" fill="url(#f)" d="M188.11 44.49l-18.72 62.22 57.23 17.2 18.72-62.22z"/><path fill="#5F6368" d="M235.34 124.26c-.54-.16-1.09-.17-1.61-.05.36-2.34-1.05-4.64-3.38-5.34-1.82-.55-3.71.03-4.92 1.33-.15-.07-.3-.13-.46-.18-1.71-.51-3.51.46-4.02 2.16l3.21.96 2.98.9 4.75 1.43 1.28.38 4.39 1.32c-.04-1.31-.9-2.51-2.22-2.91zM174.45327 102.4692L179.461 85.8052l16.06063 4.8264-5.00772 16.66399zM208.94964 112.8461l5.00772-16.66397 16.06063 4.8264-5.00772 16.66398zM194.67988 112.50234l4.64509-15.45728 8.17876 2.45781-4.6451 15.45728zM199.58995 96.12454l.8116-2.70072 8.17875 2.45781-.8116 2.70072z"/><path fill="#FDD663" d="M190.17 99.18l-.14-.14c-4.53-4.66-10.49-3.19-10.54-3.17l-.19.05-.01-3.24.12-.02c.07-.01 6.93-1.31 12.39 3.72l.09.09-1.72 2.71zm-8.36-3.85c2.19 0 5.5.56 8.31 3.36l1.38-2.18c-4.93-4.46-10.96-3.73-11.9-3.58l.01 2.6c.34-.07 1.14-.2 2.2-.2z"/><path fill="#5F6368" d="M224.29 69.11l-.36-.36c-8.6-8.85-19.82-6.04-19.93-6.01l-.5.13-.01-6.41.33-.06c.11-.03 13.19-2.51 23.63 7.09l.24.24-3.4 5.38zm-15.97-7.29c4.17 0 10.55 1.06 15.88 6.49l2.84-4.49c-9.78-8.95-21.97-7.12-23.06-6.93l.01 5.34c.45-.1 2.06-.41 4.33-.41z"/><path fill="#FDD663" d="M186.6 98.87l-4.1-1.24.09-.29 4.1 1.23zM187.48 92.05l-2.1-.63.09-.29 2.1.62zM224.66 109.54l-.14-.14c-4.53-4.67-10.49-3.19-10.54-3.17l-.19.05-.01-3.24.12-.02c.07-.01 6.93-1.31 12.38 3.72l.09.09-1.71 2.71zm-8.35-3.85c2.19 0 5.5.56 8.31 3.36l1.38-2.18c-4.92-4.45-10.96-3.73-11.9-3.58l.01 2.6c.34-.07 1.13-.2 2.2-.2zM216.9869 108.01118l.08919-.29689 4.09896 1.23136-.0892.29689zM219.88168 101.79163l.0893-.29685 2.09715.63094-.0893.29685z"/><linearGradient id="g" gradientUnits="userSpaceOnUse" x1="207.272" y1="154.8738" x2="207.272" y2="213.7687" gradientTransform="rotate(16.724 571.23963 138.03462)"><stop offset="0" style="stop-color:#202124"/><stop offset="1" style="stop-color:#202124;stop-opacity:0"/></linearGradient><path fill="url(#g)" d="M233.92 99.7l-21.94 19.74-42.57-12.79 8.18-27.22 57.24 17.2z"/><path fill="#5F6368" d="M173.91 104.12c-2.24-.67-4.58-.15-6.46 1.21-1.03-3.45-3.52-6.23-6.95-7.26-3.72-1.12-7.64.09-10.46 2.82l28.89 8.68c-.68-2.59-2.49-4.69-5.02-5.45z"/><path fill="#3C4043" d="M159.88 103.85l-.55-6.04c-.22-.04-.43-.06-.65-.08l.54 5.92.66.2zM156.93 102.96l-2.45-4.77c-.2.07-.41.13-.61.21l2.21 4.3.85.26zM163.34 104.89l3-2.11c-.11-.19-.23-.36-.35-.54l-3.43 2.41.78.24zM172.73 107.71l.75-3.69c-.21-.05-.42-.09-.63-.12l-.74 3.63.62.18zM175.09 108.42l2.58-1.55c-.12-.18-.26-.34-.4-.51l-3.01 1.81.83.25z"/><path fill="#5F6368" d="M241.54 78.82l-60.72-18.24-5.25 17.47-.65 2.16c-.28.93.25 1.91 1.18 2.19h.01c.93.28 1.91-.25 2.19-1.18-.28.93.25 1.91 1.18 2.19h.01c.93.28 1.91-.25 2.19-1.18-.28.93.25 1.91 1.18 2.19h.01c.93.28 1.91-.25 2.19-1.18-.28.93.25 1.91 1.18 2.19h.01c.93.28 1.91-.25 2.19-1.18-.28.93.25 1.91 1.18 2.19h.01c.93.28 1.91-.25 2.19-1.18-.28.93.25 1.91 1.18 2.19h.01c.93.28 1.91-.25 2.19-1.18-.28.93.25 1.91 1.18 2.19h.01c.93.28 1.91-.25 2.19-1.18-.28.93.25 1.91 1.18 2.19h.01c.93.28 1.91-.25 2.19-1.18-.28.93.25 1.91 1.18 2.19h.01c.93.28 1.91-.25 2.19-1.18-.28.93.25 1.91 1.18 2.19h.01c.93.28 1.91-.25 2.19-1.18-.28.93.25 1.91 1.18 2.19h.01c.93.28 1.91-.25 2.19-1.18-.28.93.25 1.91 1.18 2.19h.01c.93.28 1.91-.25 2.19-1.18-.28.93.25 1.91 1.18 2.19h.01c.93.28 1.91-.25 2.19-1.18-.28.93.25 1.91 1.18 2.19h.01c.93.28 1.91-.25 2.19-1.18-.28.93.25 1.91 1.18 2.19h.01c.93.28 1.91-.25 2.19-1.18-.28.93.25 1.91 1.18 2.19h.01c.93.28 1.91-.25 2.19-1.18-.28.93.25 1.91 1.18 2.19h.01c.93.28 1.91-.25 2.19-1.18-.28.93.25 1.91 1.18 2.19s1.91-.24 2.19-1.17l.64-2.14-.03-.03.04.01 5.14-17.42z"/><path fill="#2D3032" d="M187.65 62.63l-5.53 18.13-.45 1.51c-.25.92.27 1.88 1.19 2.15h.01c.93.28 1.91-.25 2.19-1.18-.28.93.25 1.91 1.18 2.19h.01c.9.27 1.85-.22 2.16-1.1l.47-1.55 5.52-18.12-6.75-2.03zM201.14 66.68l-5.51 18.1-.46 1.55c-.25.92.27 1.88 1.19 2.15h.01c.93.28 1.91-.25 2.19-1.18-.28.93.25 1.91 1.18 2.19h.01c.9.27 1.85-.22 2.16-1.1l.47-1.55 5.52-18.13-6.76-2.03zM214.68 70.75l-5.53 18.12-.45 1.51c-.25.92.27 1.88 1.19 2.15h.01c.93.28 1.91-.25 2.19-1.18-.28.93.25 1.91 1.18 2.19h.01c.9.27 1.85-.22 2.16-1.1l.47-1.55 5.52-18.11-6.75-2.03zM228.18 74.8l-5.52 18.1h.01l-.45 1.51c-.25.92.27 1.88 1.19 2.15h.01c.93.28 1.91-.25 2.19-1.18-.28.93.25 1.91 1.18 2.19h.01c.9.27 1.85-.22 2.16-1.1l.47-1.55 5.52-18.09-6.77-2.03z"/><linearGradient id="h" gradientUnits="userSpaceOnUse" x1="206.795" y1="194.0785" x2="206.795" y2="201.8387" gradientTransform="rotate(16.724 571.23963 138.03462)"><stop offset=".1061" style="stop-color:#202124;stop-opacity:0.1"/><stop offset="1" style="stop-color:#202124;stop-opacity:0"/></linearGradient><path fill="url(#h)" d="M232.86 95.22l-3.37-1.01-3.37-1.01-3.37-1.01-3.37-1.01-3.37-1.01-3.37-1.01-3.37-1.01-3.37-1.01-3.37-1.01-3.37-1.01-3.37-1.01-3.37-1.01-3.37-1.01-3.37-1.01-3.37-1.01-3.37-1.01-3.37-1.01-.65 2.16c-.28.93.25 1.91 1.18 2.19h.01c.93.28 1.91-.25 2.19-1.18-.28.93.25 1.91 1.18 2.19h.01c.93.28 1.91-.25 2.19-1.18-.28.93.25 1.91 1.18 2.19h.01c.93.28 1.91-.25 2.19-1.18-.28.93.25 1.91 1.18 2.19h.01c.93.28 1.91-.25 2.19-1.18-.28.93.25 1.91 1.18 2.19h.01c.93.28 1.91-.25 2.19-1.18-.28.93.25 1.91 1.18 2.19h.01c.93.28 1.91-.25 2.19-1.18-.28.93.25 1.91 1.18 2.19h.01c.93.28 1.91-.25 2.19-1.18-.28.93.25 1.91 1.18 2.19h.01c.93.28 1.91-.25 2.19-1.18-.28.93.25 1.91 1.18 2.19h.01c.93.28 1.91-.25 2.19-1.18-.28.93.25 1.91 1.18 2.19h.01c.93.28 1.91-.25 2.19-1.18-.28.93.25 1.91 1.18 2.19h.01c.93.28 1.91-.25 2.19-1.18-.28.93.25 1.91 1.18 2.19h.01c.93.28 1.91-.25 2.19-1.18-.28.93.25 1.91 1.18 2.19h.01c.93.28 1.91-.25 2.19-1.18-.28.93.25 1.91 1.18 2.19h.01c.93.28 1.91-.25 2.19-1.18-.28.93.25 1.91 1.18 2.19h.01c.93.28 1.91-.25 2.19-1.18-.28.93.25 1.91 1.18 2.19h.01c.93.28 1.91-.25 2.19-1.18-.28.93.25 1.91 1.18 2.19h.01c.93.28 1.91-.25 2.19-1.18-.28.93.25 1.91 1.18 2.19.93.28 1.91-.24 2.19-1.17l.64-2.14-3.53-1.04z"/><path fill="#3C4043" d="M224.14 119.9c.45.98 1.16 2.52 1.73 3.77l.81.24c-.37-.81-1.21-2.63-1.79-3.9-.25-.07-.5-.11-.75-.11zM233.6 122.22l-2.52 3.01.67.2 2-2.39c-.03-.28-.08-.55-.15-.82z"/><path fill="#5F6368" d="M240.9 76.6l-57.23-17.39.14-.48 57.23 17.39zM187.5582 46.3301l.1449-.47855 57.21545 17.32424-.1449.47855z"/></svg>