<?xml version="1.0" encoding="utf-8"?>
<!-- Generator: Adobe Illustrator 24.0.2, SVG Export Plug-In . SVG Version: 6.00 Build 0)  -->
<svg version="1.1" id="Layer_1" xmlns="http://www.w3.org/2000/svg" xmlns:xlink="http://www.w3.org/1999/xlink" x="0px" y="0px"
	 width="20px" height="20px" viewBox="0 0 20 20" enable-background="new 0 0 20 20" xml:space="preserve">
<path fill-rule="evenodd" clip-rule="evenodd" d="M10,14.67l4.76,3.46c0.26,0.19,0.61,0.13,0.8-0.13c0.11-0.15,0.14-0.34,0.08-0.51
	l-1.82-5.59l4.73-3.36c0.26-0.18,0.32-0.54,0.13-0.8C18.57,7.59,18.4,7.5,18.21,7.5h-5.79l-1.87-5.81c-0.1-0.3-0.42-0.47-0.72-0.37
	C9.65,1.38,9.51,1.51,9.46,1.69L7.58,7.5H1.79c-0.32,0-0.57,0.26-0.57,0.57c0,0.18,0.09,0.36,0.24,0.47l4.73,3.36l-1.82,5.59
	c-0.1,0.3,0.07,0.62,0.37,0.72c0.17,0.06,0.37,0.03,0.51-0.08L10,14.67z"/>
</svg>
