<?xml version="1.0" encoding="utf-8"?>
<!-- Generator: Adobe Illustrator 23.0.4, SVG Export Plug-In . SVG Version: 6.00 Build 0)  -->
<svg version="1.1" id="Layer_1" xmlns="http://www.w3.org/2000/svg" xmlns:xlink="http://www.w3.org/1999/xlink" x="0px" y="0px"
	 width="36px" height="36px" viewBox="0 0 36 36" enable-background="new 0 0 36 36" xml:space="preserve">
<path d="M19.5,4.59v3.03C19,7.54,18.5,7.5,18,7.5c-5.02,0-9,3.85-9,9.3c0,3.51,2.93,8.16,9,13.71c6.08-5.55,9-10.18,9-13.71v-0.3h3
	v0.3c0,4.98-4,10.88-12,17.7C10.01,27.67,6,21.78,6,16.8C6,9.33,11.7,4.5,18,4.5C18.51,4.5,19,4.53,19.5,4.59z M18,19.5
	c-1.65,0-3-1.35-3-3s1.35-3,3-3s3,1.35,3,3S19.65,19.5,18,19.5z M30,1.5V6h4.5v3H30v4.5h-3V9h-4.5V6H27V1.5H30z"/>
</svg>
