<svg xmlns="http://www.w3.org/2000/svg" width="150" height="80"><linearGradient id="a" gradientUnits="userSpaceOnUse" x1="60.7288" y1="56.366" x2="60.7288" y2="76.8533"><stop offset="0" style="stop-color:#F1F3F4"/><stop offset="1" style="stop-color:#F1F3F4;stop-opacity:0"/></linearGradient><path fill-rule="evenodd" clip-rule="evenodd" fill="url(#a)" d="M1.831 77.897h117.795s-31.495-8.666-55.692-10.323C34.054 65.526 1.831 77.897 1.831 77.897z"/><radialGradient id="b" cx="82.7705" cy="69.1278" r="38.1183" gradientTransform="matrix(1 0 0 .6255 0 25.8894)" gradientUnits="userSpaceOnUse"><stop offset="0" style="stop-color:#F1F3F4"/><stop offset="1" style="stop-color:#F1F3F4;stop-opacity:0"/></radialGradient><path fill-rule="evenodd" clip-rule="evenodd" fill="url(#b)" d="M80.758 69.078c16.742-9.435 30.46-12.099 40.124-12.71 8.793-.556 27.045-.222 27.045-.222l-.222 22.833c-8.128-.296-16.256-.591-24.385-.887-7.356-1.835-14.995-3.594-22.907-5.246-6.707-1.4-13.263-2.651-19.655-3.768z"/><linearGradient id="c" gradientUnits="userSpaceOnUse" x1="73.7886" y1="62.4322" x2="73.7886" y2="69.293"><stop offset="0" style="stop-color:#F1F3F4"/><stop offset="1" style="stop-color:#F1F3F4;stop-opacity:0"/></linearGradient><path fill="url(#c)" d="M88.133 64.58v-8.839l-1.436-1.225v-4.433c0-.064-.052-.116-.116-.116s-.116.052-.116.116v4.464l-1.3 1.2-5.606-3.847-.059-2.48c-.031-1.312-.792-2.498-1.973-3.072l-2.255-1.043v-2.073c0-.41-.242-.782-.617-.949-.239-.106-.54-.299-.643-.54l-.108-.244v-4.347c0-.064-.052-.116-.116-.116s-.116.052-.116.116v4.347l-.108.244c-.103.241-.403.434-.643.54-.375.167-.617.539-.617.949v2.073l-2.255 1.043c-1.18.574-1.942 1.759-1.973 3.072l-.059 2.48-5.606 3.847-1.326-1.224v-4.698c0-.064-.052-.116-.116-.116s-.116.052-.116.116v4.713l-1.41 1.203v11.064s8.591.168 20.711 1.985c.001 0 4.296-2.552 7.979-4.21z"/><path fill="none" d="M77.285 47.954c-.768-.963-1.629-1.86-2.559-2.667h-.823v2.752h3.449l-.067-.085zM73.903 50.091h3.576v1.4h-3.576zM69.814 48.274H68.3c-.135.361-.213.748-.222 1.146l-.01.435h1.747v-1.581zM69.814 50.091h-1.753l-.033 1.4h1.786zM70.05 50.091h3.618v1.4H70.05zM70.243 47.954l-.067.084h3.491v-2.752h-.865c-.93.808-1.791 1.705-2.559 2.668zM70.05 48.274h3.618v1.581H70.05zM60.984 54.428l-1.273 1.086h2.449zM72.305 43.373h2.968v1.678h-2.968zM77.715 51.491h1.834l-.033-1.4h-1.801zM77.715 49.855h1.796l-.011-.435c-.009-.398-.087-.785-.222-1.146h-1.563v1.581zM73.903 48.274h3.576v1.581h-3.576zM86.594 54.428l-1.177 1.086h2.449zM73.805 53.272c-.513 0-.93.417-.93.93v1.9h1.859v-1.9c.001-.513-.417-.93-.929-.93zM68.703 53.741h.983v.236h-.983zM70.536 61.29h.983v.236h-.983z"/><path fill="none" d="M74.97 56.336h-2.33v-2.135c0-.643.523-1.165 1.165-1.165s1.165.523 1.165 1.165v2.135zM76.385 57.508h.983v.236h-.983z"/><path fill="#D3D3D3" d="M75.272 43.232c0-.032-.004-.063-.007-.095h-2.954c-.003.031-.007.063-.007.095v.141h2.968v-.141zM62.415 55.745l-.003.002-.252-.233h-2.449l-.266.227v.008h2.97zM88.133 55.749v-.008l-.267-.227h-2.449l-.252.233-.004-.003v.005zM67.415 67.288l.236.021V53.427c0-.511.125-1.02.362-1.473.016-.03.017-.063.006-.093l-.001.039-.349.239c-.166.408-.254.847-.254 1.288v13.861zM79.558 51.954c.237.452.362.962.362 1.473v15.326l.236.037V53.427c0-.443-.089-.885-.257-1.294l-.34-.233-.001-.05c-.015.032-.018.07 0 .104zM73.805 53.036c-.643 0-1.165.523-1.165 1.165v2.135h2.33v-2.135c0-.642-.523-1.165-1.165-1.165zm.93 3.065h-1.859v-1.9c0-.513.417-.93.93-.93s.93.417.93.93v1.9zM76.385 57.508h.983v.236h-.983zM68.703 53.741h.983v.236h-.983zM70.536 61.29h.983v.236h-.983zM79.549 51.491h-1.835v-1.4h1.801l-.006-.236h-1.796v-1.581h1.563c-.03-.08-.062-.158-.098-.236h-1.526l-.184-.231c-.722-.906-1.528-1.75-2.393-2.521h.196v-.236h-2.968v.236h.147c-.865.771-1.671 1.615-2.393 2.521l-.184.231h-1.478c-.035.077-.068.156-.098.236h1.515v1.581h-1.747l-.006.236h1.753v1.4h-1.786l-.006.236h11.533l-.004-.236zm-5.646-6.204h.823c.93.807 1.792 1.704 2.559 2.667l.067.084h-3.449v-2.751zm-.235 6.204H70.05v-1.4h3.618v1.4zm0-1.636H70.05v-1.581h3.618v1.581zm0-1.817h-3.491l.067-.084c.768-.963 1.629-1.86 2.559-2.667h.865v2.751zm3.811 3.453h-3.576v-1.4h3.576v1.4zm0-1.636h-3.576v-1.581h3.576v1.581z"/><linearGradient id="d" gradientUnits="userSpaceOnUse" x1="52.8315" y1="56.9817" x2="52.8315" y2="68.1775"><stop offset="0" style="stop-color:#F1F3F4"/><stop offset="1" style="stop-color:#F1F3F4;stop-opacity:0"/></linearGradient><path fill="url(#d)" d="M56.655 57.449h-7.648v10.176c2.532-.171 5.088-.27 7.648-.279v-9.897z"/><linearGradient id="e" gradientUnits="userSpaceOnUse" x1="21.0677" y1="78.5616" x2="21.0677" y2="74.862"><stop offset=".0881" style="stop-color:#FFFFFF;stop-opacity:0"/><stop offset=".274" style="stop-color:#F5F5F5;stop-opacity:0.2039"/><stop offset="1" style="stop-color:#D3D3D3"/></linearGradient><path fill-rule="evenodd" clip-rule="evenodd" fill="url(#e)" d="M12.742 78.562s3.249-6.271 10.511-2.484c0 0 4.415-1.223 6.141 2.484H12.742z"/><linearGradient id="f" gradientUnits="userSpaceOnUse" x1="75.2285" y1="77.8965" x2="75.2285" y2="73.5216"><stop offset=".0881" style="stop-color:#FFFFFF;stop-opacity:0"/><stop offset=".274" style="stop-color:#F5F5F5;stop-opacity:0.2039"/><stop offset="1" style="stop-color:#D3D3D3"/></linearGradient><path fill-rule="evenodd" clip-rule="evenodd" fill="url(#f)" d="M57.501 77.897s4.062-7.141 12.231-2.689c0 0 2.387-2.042 5.072-.413 0 0 4.704-3.305 9.225.734 0 0 6.242-2.007 8.927 2.367H57.501z"/><linearGradient id="g" gradientUnits="userSpaceOnUse" x1="95.5127" y1="51.1045" x2="95.5127" y2="64.7963"><stop offset="0" style="stop-color:#F1F3F4"/><stop offset="1" style="stop-color:#F1F3F4;stop-opacity:0"/></linearGradient><path fill="url(#g)" d="M100.01 54.013h-.044l.02-.013-4.46-3.05-4.48 3.064h-.03v9.922c3.136-1.377 6.136-2.516 8.994-3.455v-6.468z"/><linearGradient id="h" gradientUnits="userSpaceOnUse" x1="1732.7646" y1="102.162" x2="1732.7646" y2="98.3079" gradientTransform="matrix(-1 0 0 1 1863.2941 -33.8824)"><stop offset=".0881" style="stop-color:#FFFFFF;stop-opacity:0"/><stop offset=".274" style="stop-color:#F5F5F5;stop-opacity:0.2039"/><stop offset="1" style="stop-color:#D3D3D3"/></linearGradient><path fill-rule="evenodd" clip-rule="evenodd" fill="url(#h)" d="M148.257 68.28c-.918-.666-2.471-1.606-4.593-2.074-3.462-.763-6.293.205-7.426.665-.111-.277-.591-1.381-1.773-1.884-1.29-.549-2.891-.16-3.99.998-.467-.361-2.265-1.663-4.877-1.552-2.645.112-4.339 1.597-4.766 1.995-.532-.233-2.396-.973-4.655-.333-1.863.528-2.967 1.703-3.374 2.185h35.454z"/><linearGradient id="i" gradientUnits="userSpaceOnUse" x1="43.5118" y1="84.9478" x2="60.581" y2="61.1175"><stop offset=".2508" style="stop-color:#FFFFFF;stop-opacity:0"/><stop offset=".4036" style="stop-color:#F5F5F5;stop-opacity:0.2039"/><stop offset="1" style="stop-color:#D3D3D3"/></linearGradient><path fill="url(#i)" d="M59.786 67.368l-1.383-.027c1.642.477 2.587 1.25 2.544 2.096-.045.898-1.292 1.988-3.593 2.336l-8.022 1.432c-4.546.81-6.472 2.545-8.626 5.669-.074.107-.047.254.06.328.041.028.087.042.134.042.075 0 .148-.036.194-.102 2.08-3.017 3.938-4.692 8.32-5.473l8.015-1.431c2.319-.35 3.921-1.466 3.987-2.777.043-.822-.539-1.549-1.63-2.093z"/><path fill="#636465" d="M32.467 54.02295l.21249-.10034 1.82799 3.87088-.21249.10034zM37.30562 57.79332l1.82885-3.87088.21248.10039-1.82884 3.87088z"/><path fill="#70757A" d="M32.784 57.579h6.318v6.22h-6.318z"/><path fill="none" d="M35.943.727c-2.193 0-3.88.527-5.164 1.241 1.308-.706 3.047-1.227 5.338-1.237-.059-.001-.115-.004-.174-.004zM44.725 5.835s-.522-1.362-1.966-2.679c1.422 1.317 1.966 2.679 1.966 2.679z"/><path fill="#70757A" d="M57.374 14.302c-.822-4.807-5.006-8.467-10.048-8.467h-2.601s-.544-1.362-1.966-2.679C41.431 1.944 39.321.773 36.116.731c-2.291.01-4.03.531-5.338 1.237-2.717 1.512-3.618 3.867-3.618 3.867h-2.6c-5.042 0-9.226 3.66-10.048 8.467-1.854 2.02-2.987 4.713-2.987 7.671 0 .369.019.734.054 1.095.374 1.975 1.127 5.048 2.784 8.482.191.396.385.775.582 1.142-.055-.261-.105-.509-.149-.74-.035-.36-.054-.725-.054-1.095-.004-.864.091-2.018.49-3.307.744-2.403 2.142-3.975 2.952-4.756.126-.824.641-3.489 2.987-5.644 2.909-2.671 6.436-2.54 7.099-2.503 0 0 1.931-4.181 7.953-4.181 5.607 0 7.455 4.149 7.455 4.149.663-.037 4.549-.136 7.457 2.535 2.346 2.154 2.452 4.444 2.579 5.268.81.781 2.616 2.729 3.36 5.132.399 1.29.493 2.443.49 3.307 0 .219-.009.436-.021.652 1.642-3.417 2.392-6.473 2.765-8.441.035-.36.054-.725.054-1.095-.002-2.958-1.134-5.651-2.988-7.671z"/><linearGradient id="j" gradientUnits="userSpaceOnUse" x1="35.9427" y1="-.1108" x2="35.9427" y2="46.5548"><stop offset="0" style="stop-color:#DADCE0"/><stop offset="1" style="stop-color:#FFFFFF;stop-opacity:0"/></linearGradient><path opacity=".5" fill="url(#j)" d="M57.374 14.302c-.822-4.807-5.006-8.467-10.048-8.467h-2.601s-.544-1.362-1.966-2.679C41.431 1.944 39.321.773 36.116.731c-2.291.01-4.03.531-5.338 1.237-2.717 1.512-3.618 3.867-3.618 3.867h-2.6c-5.042 0-9.226 3.66-10.048 8.467-1.854 2.02-2.987 4.713-2.987 7.671 0 .369.019.734.054 1.095.374 1.975 1.127 5.048 2.784 8.482.191.396.385.775.582 1.142-.055-.261-.105-.509-.149-.74-.035-.36-.054-.725-.054-1.095-.004-.864.091-2.018.49-3.307.744-2.403 2.142-3.975 2.952-4.756.126-.824.641-3.489 2.987-5.644 2.909-2.671 6.436-2.54 7.099-2.503 0 0 1.931-4.181 7.953-4.181 5.607 0 7.455 4.149 7.455 4.149.663-.037 4.549-.136 7.457 2.535 2.346 2.154 2.452 4.444 2.579 5.268.81.781 2.616 2.729 3.36 5.132.399 1.29.493 2.443.49 3.307 0 .219-.009.436-.021.652 1.642-3.417 2.392-6.473 2.765-8.441.035-.36.054-.725.054-1.095-.002-2.958-1.134-5.651-2.988-7.671z"/><path fill="#D3D3D3" d="M57.564 30.857c.004-.864-.091-2.018-.49-3.307-.744-2.403-2.55-4.351-3.36-5.132-.126-.824-.233-3.114-2.579-5.268-2.909-2.671-6.794-2.572-7.457-2.535 0 0-1.848-4.149-7.455-4.149-6.021 0-7.953 4.181-7.953 4.181-.663-.037-4.191-.168-7.099 2.503-2.346 2.154-2.861 4.82-2.987 5.644-.81.781-2.208 2.353-2.952 4.756-.399 1.29-.493 2.443-.49 3.307 0 .369.019.734.054 1.095.044.232.093.48.149.74.924 1.722 1.931 3.167 3.197 4.733.149-4.577 3.54-7.316 3.54-7.316.104-.715-.168-2.59 1.772-4.46 2.406-2.319 5.785-2.235 6.333-2.203 0 0 1.603-3.109 6.385-3.109s6.194 3.139 6.194 3.139c.548-.032 3.466-.146 5.872 2.173 1.94 1.87 1.966 3.567 2.071 4.282.67.678 2.226 2.66 2.841 4.746.33 1.119.408 2.121.405 2.871 0 .038-.002.075-.003.113 1.632-1.996 2.838-3.763 3.971-6.112.007-.014.013-.027.019-.041.013-.215.022-.432.022-.651z"/><path fill="#70757A" d="M53.554 37.549c.003-.75-.075-1.752-.405-2.871-.615-2.086-2.171-4.068-2.841-4.746-.104-.715-.13-2.412-2.071-4.282-2.406-2.319-5.324-2.205-5.872-2.173 0 0-1.413-3.139-6.194-3.139s-6.385 3.109-6.385 3.109c-.548-.032-3.928-.116-6.333 2.203-1.94 1.87-1.668 3.745-1.772 4.46 0 0-3.391 2.739-3.54 7.316 1.784 2.208 4.083 4.661 7.394 8.489 1.694 1.958 4.167 4.853 7.143 8.468h6.529c2.976-3.616 5.449-6.51 7.143-8.468 3.193-3.692 5.444-6.105 7.201-8.253.001-.038.003-.075.003-.113z"/><linearGradient id="k" gradientUnits="userSpaceOnUse" x1="35.8478" y1="-17.2385" x2="35.8478" y2="43.2149"><stop offset="0" style="stop-color:#F1F3F4"/><stop offset="1" style="stop-color:#F1F3F4;stop-opacity:0"/></linearGradient><path fill="url(#k)" d="M53.554 37.549c.003-.75-.075-1.752-.405-2.871-.615-2.086-2.171-4.068-2.841-4.746-.104-.715-.13-2.412-2.071-4.282-2.406-2.319-5.324-2.205-5.872-2.173 0 0-1.413-3.139-6.194-3.139s-6.385 3.109-6.385 3.109c-.548-.032-3.928-.116-6.333 2.203-1.94 1.87-1.668 3.745-1.772 4.46 0 0-3.391 2.739-3.54 7.316 1.784 2.208 4.083 4.661 7.394 8.489 1.694 1.958 4.167 4.853 7.143 8.468h6.529c2.976-3.616 5.449-6.51 7.143-8.468 3.193-3.692 5.444-6.105 7.201-8.253.001-.038.003-.075.003-.113z"/><path fill="#FFF" d="M27.213 5.719l-.053.116-.146.002 7.311 48.547.216-.002zM37.813 54.384l-.216-.002 7.13-48.55.207.004zM39.207 54.383l.302-.363 18.032-39.528-.172-.194-18.26 40.083c.052.001.098.002.098.002zM32.678 54.383h.123L14.548 14.112l-.036.19-.073.089 17.987 39.686zM38.872 57.54v.442c0 .364-.384.66-.855.66h-.09c-.461 0-.844-.29-.854-.646h-.23c-.01.356-.393.646-.854.646h-.09c-.471 0-.855-.296-.855-.66l-.002-.118h-.23v.118c0 .364-.384.66-.855.66h-.09c-.471 0-.855-.296-.855-.66v-.405h-.23v.405c0 .494.487.895 1.085.895h.09c.424 0 .793-.202.971-.496.178.294.547.496.971.496h.09c.426 0 .791-.197.969-.49.178.293.543.49.969.49h.09c.598 0 1.085-.402 1.085-.895v-.442h-.23z"/><path fill="#7F7F7F" d="M34.896 57.531h-.002"/><path fill="#636465" d="M35.797 54.383h.236v3.196h-.236z"/><path fill="#D3D3D3" d="M101.02497 34.59628l.12749-.06022 1.09167 2.31113-.1275.06022zM103.90459 36.85533l1.09243-2.31062.12746.06026-1.09243 2.31062z"/><path fill="#DADCE0" d="M101.213 36.725h3.772v3.714h-3.772z"/><path fill="none" d="M103.099 2.778c-1.309 0-2.317.315-3.083.741.781-.421 1.819-.733 3.187-.739-.035 0-.069-.002-.104-.002zM108.343 5.829s-.312-.813-1.174-1.6c.849.786 1.174 1.6 1.174 1.6z"/><path fill="#DADCE0" d="M107.17 4.229c-.793-.724-2.053-1.423-3.967-1.448-1.368.006-2.406.317-3.187.739-1.623.903-2.161 2.309-2.161 2.309h10.488s-.325-.814-1.173-1.6zM115.896 10.884c-.491-2.87-2.989-5.055-6-5.055H96.302c-3.01 0-5.509 2.185-6 5.055-1.107 1.206-1.783 2.814-1.783 4.581 0 .221.011.439.032.654.223 1.18.673 3.014 1.662 5.064.114.237.23.463.347.682-.033-.156-.063-.304-.089-.442-.021-.215-.032-.433-.032-.654-.002-.516.054-1.205.292-1.975.444-1.435 1.279-2.374 1.763-2.84.075-.492.383-2.084 1.783-3.37 1.737-1.595 3.843-1.517 4.239-1.494 0 0 1.153-2.496 4.749-2.496 3.348 0 4.451 2.477 4.451 2.477.396-.022 2.716-.082 4.453 1.513 1.401 1.286 1.464 2.654 1.54 3.146.483.466 1.562 1.629 2.006 3.064.238.77.295 1.459.292 1.975 0 .131-.005.26-.013.389.981-2.04 1.428-3.865 1.651-5.04.021-.215.032-.433.032-.654.002-1.766-.674-3.374-1.781-4.58z"/><linearGradient id="l" gradientUnits="userSpaceOnUse" x1="103.0653" y1="18.0705" x2="103.1589" y2="10.865"><stop offset="0" style="stop-color:#202124"/><stop offset="1" style="stop-color:#202124;stop-opacity:0"/></linearGradient><path opacity=".3" fill="url(#l)" d="M115.896 10.884c-.491-2.87-2.989-5.055-6-5.055H96.302c-3.01 0-5.509 2.185-6 5.055-1.107 1.206-1.783 2.814-1.783 4.581 0 .221.011.439.032.654.223 1.18.673 3.014 1.662 5.064.114.237.23.463.347.682-.033-.156-.063-.304-.089-.442-.021-.215-.032-.433-.032-.654-.002-.516.054-1.205.292-1.975.444-1.435 1.279-2.374 1.763-2.84.075-.492.383-2.084 1.783-3.37 1.737-1.595 3.843-1.517 4.239-1.494 0 0 1.153-2.496 4.749-2.496 3.348 0 4.451 2.477 4.451 2.477.396-.022 2.716-.082 4.453 1.513 1.401 1.286 1.464 2.654 1.54 3.146.483.466 1.562 1.629 2.006 3.064.238.77.295 1.459.292 1.975 0 .131-.005.26-.013.389.981-2.04 1.428-3.865 1.651-5.04.021-.215.032-.433.032-.654.002-1.766-.674-3.374-1.781-4.58z"/><path fill="#EAEAEA" d="M115.717 18.794c-.444-1.435-1.523-2.598-2.006-3.064-.075-.492-.139-1.859-1.54-3.146-1.737-1.595-4.057-1.536-4.453-1.513 0 0-1.104-2.477-4.451-2.477-3.595 0-4.749 2.496-4.749 2.496-.396-.022-2.502-.101-4.239 1.494-1.401 1.286-1.708 2.878-1.783 3.37-.483.466-1.319 1.405-1.763 2.84-.238.77-.295 1.459-.292 1.975 0 .221.011.439.032.654.026.138.056.286.089.442.552 1.029 1.154 1.892 1.91 2.828.088-2.734 2.112-4.37 2.112-4.37.016-.107.017-.257.029-.439.009-.137.023-.292.053-.461.02-.112.047-.231.085-.354.056-.185.135-.38.246-.582.111-.202.256-.409.443-.618.062-.07.13-.139.202-.209.18-.173.368-.324.562-.455.29-.197.59-.349.886-.468.197-.079.392-.142.581-.194.472-.128.904-.179 1.226-.196.129-.007.24-.009.329-.008.089.001.157.003.198.006 0 0 .957-1.856 3.812-1.856s3.699 1.874 3.699 1.874c.184-.011.816-.037 1.589.188.086.025.174.053.263.085.178.063.361.14.547.234.185.094.372.205.558.335.093.065.185.136.277.211.092.076.183.156.273.243.217.209.394.415.539.614.096.133.179.262.249.388s.128.247.176.364c.097.233.154.447.191.634.019.093.032.18.043.259.011.079.019.15.027.212.004.031.008.06.011.087.025.025.052.054.081.085.144.156.334.384.535.661.04.056.081.113.122.172.082.119.164.244.246.376.284.461.553.994.713 1.539.049.167.089.33.121.487.032.157.056.308.074.453.036.289.047.55.046.774 0 .023-.001.045-.002.067.975-1.192 1.695-2.247 2.371-3.65.004-.008.008-.016.012-.025.008-.129.013-.258.013-.389.001-.514-.055-1.203-.293-1.973z"/><path fill="#D3D3D3" d="M113.615 24.765c.001-.224-.01-.485-.046-.774.036.289.047.55.046.774zM111.758 20.302c.144.156.334.384.535.661-.202-.278-.391-.505-.535-.661zM108.786 16.636zM94.996 18.487c.111-.201.256-.409.443-.618-.187.209-.332.416-.443.618zM96.203 17.205c-.193.131-.382.282-.562.455-.072.07-.14.14-.202.209.062-.07.13-.139.202-.209.18-.173.369-.324.562-.455zM109.333 16.87c.185.094.372.205.558.335-.186-.13-.373-.241-.558-.335zM94.583 20.323c.016-.107.017-.257.029-.439-.012.182-.013.332-.029.439 0 0-2.024 1.637-2.112 4.37.089-2.734 2.112-4.37 2.112-4.37zM110.979 18.274c-.145-.199-.322-.405-.539-.614-.09-.087-.181-.167-.273-.243.092.076.183.156.273.243.218.209.395.415.539.614zM103.236 14.488c2.855 0 3.699 1.874 3.699 1.874.184-.011.816-.037 1.589.188-.773-.226-1.405-.199-1.589-.188-.001 0-.844-1.874-3.699-1.874s-3.812 1.856-3.812 1.856c-.041-.002-.108-.005-.198-.006.089.001.157.003.198.006-.001 0 .957-1.856 3.812-1.856z"/><path fill="#EAEAEA" d="M97.089 16.737c.197-.079.392-.142.581-.194-.188.052-.384.115-.581.194z"/><linearGradient id="m" gradientUnits="userSpaceOnUse" x1="97.3798" y1="103.6632" x2="97.3798" y2="19.8406"><stop offset="0" style="stop-color:#202124"/><stop offset="1" style="stop-color:#202124;stop-opacity:0"/></linearGradient><path fill="url(#m)" d="M97.089 16.737c.197-.079.392-.142.581-.194-.188.052-.384.115-.581.194z"/><path fill="#EAEAEA" d="M94.665 19.423c.02-.112.047-.231.085-.354-.037.123-.065.241-.085.354z"/><linearGradient id="n" gradientUnits="userSpaceOnUse" x1="94.7076" y1="103.6632" x2="94.7076" y2="19.8406"><stop offset="0" style="stop-color:#202124"/><stop offset="1" style="stop-color:#202124;stop-opacity:0"/></linearGradient><path fill="url(#n)" d="M94.665 19.423c.02-.112.047-.231.085-.354-.037.123-.065.241-.085.354z"/><path fill="#EAEAEA" d="M97.67 16.543c.472-.128.904-.179 1.226-.196-.322.018-.754.068-1.226.196z"/><linearGradient id="o" gradientUnits="userSpaceOnUse" x1="98.2833" y1="103.6632" x2="98.2833" y2="19.8406"><stop offset="0" style="stop-color:#202124"/><stop offset="1" style="stop-color:#202124;stop-opacity:0"/></linearGradient><path fill="url(#o)" d="M97.67 16.543c.472-.128.904-.179 1.226-.196-.322.018-.754.068-1.226.196z"/><path fill="#EAEAEA" d="M113.495 23.538c-.032-.157-.072-.32-.121-.487-.161-.545-.429-1.078-.713-1.539.284.461.553.994.713 1.539.049.167.089.33.121.487z"/><linearGradient id="p" gradientUnits="userSpaceOnUse" x1="113.0773" y1="103.6632" x2="113.0773" y2="19.8406"><stop offset="0" style="stop-color:#202124"/><stop offset="1" style="stop-color:#202124;stop-opacity:0"/></linearGradient><path fill="url(#p)" d="M113.495 23.538c-.032-.157-.072-.32-.121-.487-.161-.545-.429-1.078-.713-1.539.284.461.553.994.713 1.539.049.167.089.33.121.487z"/><path fill="#EAEAEA" d="M113.615 24.765c0 .023-.001.045-.002.067.001-.022.002-.044.002-.067z"/><linearGradient id="q" gradientUnits="userSpaceOnUse" x1="113.6145" y1="103.6632" x2="113.6145" y2="19.8406"><stop offset="0" style="stop-color:#202124"/><stop offset="1" style="stop-color:#202124;stop-opacity:0"/></linearGradient><path fill="url(#q)" d="M113.615 24.765c0 .023-.001.045-.002.067.001-.022.002-.044.002-.067z"/><path fill="#EAEAEA" d="M112.414 21.135c.082.119.164.245.246.376-.081-.131-.164-.257-.246-.376z"/><linearGradient id="r" gradientUnits="userSpaceOnUse" x1="112.5372" y1="103.6632" x2="112.5372" y2="19.8406"><stop offset="0" style="stop-color:#202124"/><stop offset="1" style="stop-color:#202124;stop-opacity:0"/></linearGradient><path fill="url(#r)" d="M112.414 21.135c.082.119.164.245.246.376-.081-.131-.164-.257-.246-.376z"/><path fill="#EAEAEA" d="M111.596 19.659c.019.093.032.18.043.259-.011-.079-.024-.165-.043-.259z"/><linearGradient id="s" gradientUnits="userSpaceOnUse" x1="111.6174" y1="103.6632" x2="111.6174" y2="19.8406"><stop offset="0" style="stop-color:#202124"/><stop offset="1" style="stop-color:#202124;stop-opacity:0"/></linearGradient><path fill="url(#s)" d="M111.596 19.659c.019.093.032.18.043.259-.011-.079-.024-.165-.043-.259z"/><path fill="#EAEAEA" d="M111.404 19.026c.097.233.154.447.191.634-.036-.187-.094-.401-.191-.634z"/><linearGradient id="t" gradientUnits="userSpaceOnUse" x1="111.5001" y1="103.6632" x2="111.5001" y2="19.8406"><stop offset="0" style="stop-color:#202124"/><stop offset="1" style="stop-color:#202124;stop-opacity:0"/></linearGradient><path fill="url(#t)" d="M111.404 19.026c.097.233.154.447.191.634-.036-.187-.094-.401-.191-.634z"/><path fill="#EAEAEA" d="M111.639 19.918c.011.079.019.15.027.212-.008-.062-.016-.133-.027-.212z"/><linearGradient id="u" gradientUnits="userSpaceOnUse" x1="111.6522" y1="103.6632" x2="111.6522" y2="19.8406"><stop offset="0" style="stop-color:#202124"/><stop offset="1" style="stop-color:#202124;stop-opacity:0"/></linearGradient><path fill="url(#u)" d="M111.639 19.918c.011.079.019.15.027.212-.008-.062-.016-.133-.027-.212z"/><path fill="#EAEAEA" d="M111.228 18.662c.07.126.128.247.176.364-.048-.117-.106-.239-.176-.364z"/><linearGradient id="v" gradientUnits="userSpaceOnUse" x1="111.3162" y1="103.6632" x2="111.3162" y2="19.8406"><stop offset="0" style="stop-color:#202124"/><stop offset="1" style="stop-color:#202124;stop-opacity:0"/></linearGradient><path fill="url(#v)" d="M111.228 18.662c.07.126.128.247.176.364-.048-.117-.106-.239-.176-.364z"/><path fill="#D3D3D3" d="M113.569 23.991c-.018-.145-.042-.296-.074-.453-.032-.157-.072-.32-.121-.487-.161-.545-.429-1.078-.713-1.539-.081-.132-.164-.258-.246-.376-.041-.059-.082-.117-.122-.172-.201-.278-.39-.505-.535-.661-.029-.031-.056-.06-.081-.085-.004-.027-.008-.056-.011-.087-.008-.062-.016-.133-.027-.212-.011-.079-.024-.165-.043-.259-.037-.187-.095-.4-.191-.634-.048-.117-.106-.238-.176-.364-.07-.126-.152-.255-.249-.388-.145-.199-.322-.405-.539-.614-.09-.087-.181-.167-.273-.243-.092-.076-.184-.146-.277-.211-.186-.131-.373-.241-.558-.335-.185-.094-.369-.171-.547-.234-.089-.032-.177-.06-.263-.085-.773-.226-1.405-.199-1.589-.188 0 0-.843-1.874-3.699-1.874-2.855 0-3.812 1.856-3.812 1.856-.041-.002-.108-.005-.198-.006-.089 0-.201.001-.329.008-.322.018-.754.068-1.226.196-.189.051-.384.115-.581.194-.296.118-.596.271-.886.468-.193.131-.382.282-.562.455-.072.07-.14.14-.202.209-.187.209-.332.416-.443.618-.111.201-.19.397-.246.582-.037.123-.065.242-.085.354-.03.169-.045.324-.053.461-.012.182-.013.332-.029.439 0 0-2.024 1.637-2.112 4.37 1.065 1.318 2.437 2.782 4.413 5.067 1.011 1.169 2.488 2.897 4.265 5.056h3.899c1.777-2.159 3.254-3.887 4.265-5.056 1.907-2.205 3.251-3.645 4.3-4.928 0-.023.002-.045.002-.067.001-.225-.01-.486-.046-.775z"/><linearGradient id="w" gradientUnits="userSpaceOnUse" x1="103.0433" y1="103.6632" x2="103.0433" y2="19.8406"><stop offset="0" style="stop-color:#202124"/><stop offset="1" style="stop-color:#202124;stop-opacity:0"/></linearGradient><path fill="url(#w)" d="M113.569 23.991c-.018-.145-.042-.296-.074-.453-.032-.157-.072-.32-.121-.487-.161-.545-.429-1.078-.713-1.539-.081-.132-.164-.258-.246-.376-.041-.059-.082-.117-.122-.172-.201-.278-.39-.505-.535-.661-.029-.031-.056-.06-.081-.085-.004-.027-.008-.056-.011-.087-.008-.062-.016-.133-.027-.212-.011-.079-.024-.165-.043-.259-.037-.187-.095-.4-.191-.634-.048-.117-.106-.238-.176-.364-.07-.126-.152-.255-.249-.388-.145-.199-.322-.405-.539-.614-.09-.087-.181-.167-.273-.243-.092-.076-.184-.146-.277-.211-.186-.131-.373-.241-.558-.335-.185-.094-.369-.171-.547-.234-.089-.032-.177-.06-.263-.085-.773-.226-1.405-.199-1.589-.188 0 0-.843-1.874-3.699-1.874-2.855 0-3.812 1.856-3.812 1.856-.041-.002-.108-.005-.198-.006-.089 0-.201.001-.329.008-.322.018-.754.068-1.226.196-.189.051-.384.115-.581.194-.296.118-.596.271-.886.468-.193.131-.382.282-.562.455-.072.07-.14.14-.202.209-.187.209-.332.416-.443.618-.111.201-.19.397-.246.582-.037.123-.065.242-.085.354-.03.169-.045.324-.053.461-.012.182-.013.332-.029.439 0 0-2.024 1.637-2.112 4.37 1.065 1.318 2.437 2.782 4.413 5.067 1.011 1.169 2.488 2.897 4.265 5.056h3.899c1.777-2.159 3.254-3.887 4.265-5.056 1.907-2.205 3.251-3.645 4.3-4.928 0-.023.002-.045.002-.067.001-.225-.01-.486-.046-.775z"/><path fill="#FFF" d="M101.158 34.815h.112L90.339 10.694l-.037.19-.075.087 10.667 23.536zM105.049 34.817l.286-.345 10.696-23.437-.137-.152-10.953 23.935zM97.925 5.71l-.008-.012-.062.131-.131-.001 4.374 28.987.211.007zM104.266 34.819h-.216l4.299-28.991.224.002zM104.848 36.702v.264c0 .217-.229.394-.51.394h-.054c-.275 0-.504-.173-.51-.385h-.137c-.006.213-.235.385-.51.385h-.054c-.281 0-.51-.177-.51-.394l-.001-.07h-.137v.07c0 .217-.229.394-.51.394h-.054c-.281 0-.51-.177-.51-.394v-.242h-.137v.242c0 .295.291.535.648.535h.054c.253 0 .473-.121.58-.296.106.175.326.296.58.296h.054c.254 0 .472-.118.579-.293.106.175.324.293.578.293h.054c.357 0 .648-.24.648-.535v-.264h-.141z"/><path fill="#7F7F7F" d="M102.474 36.697h-.001"/><path fill="#D3D3D3" d="M103.012 34.826h.141v1.899h-.141z"/><linearGradient id="x" gradientUnits="userSpaceOnUse" x1="119.6099" y1="36.3276" x2="119.6099" y2="53.2087"><stop offset="0" style="stop-color:#F1F3F4"/><stop offset="1" style="stop-color:#F1F3F4;stop-opacity:0"/></linearGradient><path fill="url(#x)" d="M124.505 35.991c-.188-1.098-1.143-1.934-2.295-1.934h-.594s-.12-.309-.448-.61c-.304-.282-.783-.556-1.503-.556-.008 0-.014.001-.022.001-.011 0-.022-.002-.033-.002-.501 0-.886.121-1.179.284-.639.345-.827.883-.827.883h-.594c-1.151 0-2.107.836-2.295 1.934-.423.461-.682 1.076-.682 1.752 0 .084.004.168.012.25.085.451.258 1.153.636 1.937.537 1.114 1.145 1.654 2.552 3.281.383.443.941 1.095 1.611 1.909l.356.755h-.313v1.421h1.443v-1.429h-.053v.009h-.275l.345-.73h.007c.68-.826 1.245-1.487 1.631-1.934 1.407-1.627 2.014-2.167 2.552-3.281.378-.784.55-1.486.636-1.937.008-.082.012-.166.012-.25.002-.676-.257-1.291-.68-1.753zm-4.561 9.884h-.684l-.345-.73h.662v.73h.054v-.73h.658l-.345.73z"/></svg>