<svg version="1.1" id="Layer_1" xmlns="http://www.w3.org/2000/svg" xmlns:xlink="http://www.w3.org/1999/xlink" x="0px" y="0px" width="600px" height="200px" viewBox="0 0 600 200" enable-background="new 0 0 600 200" xml:space="preserve"><linearGradient id="SVGID_1_" gradientUnits="userSpaceOnUse" x1="661.2784" y1="389.7968" x2="284.5828" y2="72.0577" gradientTransform="matrix(1 0 0 -1 0 202)"><stop offset="0" style="stop-color:#202124"></stop><stop offset="0.9483" style="stop-color:#202124;stop-opacity:0"></stop></linearGradient><path fill="url(#SVGID_1_)" d="M314.32,8l-95.52,98.18l95.53,95.53c33.407-33.687,66.81-67.373,100.21-101.06L314.32,8z"></path><path fill="#E6E8EB" d="M210.65,76.33h82.66c0.392,0,0.71,0.318,0.71,0.71v76.1c0,0.392-0.318,0.71-0.71,0.71h-82.66 c-0.392,0-0.71-0.318-0.71-0.71v-76.1C209.94,76.648,210.258,76.33,210.65,76.33z"></path><path fill="#E6E8EB" d="M302.93,112.85h82.66c0.392,0,0.71,0.318,0.71,0.71v76.1c0,0.392-0.318,0.71-0.71,0.71h-82.66 c-0.392,0-0.71-0.318-0.71-0.71v-76.1C302.22,113.168,302.538,112.85,302.93,112.85z"></path><path fill="#FFFFFF" d="M215.95,81.41H288c0.641,0,1.16,0.519,1.16,1.16v56.58c0,0.641-0.519,1.16-1.16,1.16h-72.05 c-0.641,0-1.16-0.519-1.16-1.16V82.57C214.79,81.929,215.309,81.41,215.95,81.41z"></path><path fill="#FFFFFF" d="M308.23,117.93h72.05c0.641,0,1.16,0.519,1.16,1.16v56.58c0,0.641-0.519,1.16-1.16,1.16h-72.05 c-0.641,0-1.16-0.519-1.16-1.16v-56.58C307.07,118.449,307.589,117.93,308.23,117.93z"></path><linearGradient id="SVGID_2_" gradientUnits="userSpaceOnUse" x1="360.6586" y1="3501.4299" x2="381.45" y2="3501.4299" gradientTransform="matrix(1 0 0 1 0 -3364)"><stop offset="0" style="stop-color:#D4D4D4"></stop><stop offset="0.1" style="stop-color:#D5D5D5;stop-opacity:0.97"></stop><stop offset="0.25" style="stop-color:#D9D9D9;stop-opacity:0.87"></stop><stop offset="0.42" style="stop-color:#E0E0E0;stop-opacity:0.72"></stop><stop offset="0.62" style="stop-color:#E9E9E9;stop-opacity:0.51"></stop><stop offset="0.83" style="stop-color:#F5F5F5;stop-opacity:0.24"></stop><stop offset="1" style="stop-color:#FFFFFF;stop-opacity:0"></stop></linearGradient><path opacity="0.5" fill="url(#SVGID_2_)" enable-background="new    " d="M362.25,133.39c2.954,10.08,9.822,18.558,19.07,23.54 l0.13-0.24v-19.38c-4.36-5.446-6.124-12.525-4.83-19.38h-15.71C360.318,123.121,360.774,128.378,362.25,133.39z"></path><path fill="#F9BA08" d="M330.47,121.36l-2.64-3.43h-19.9c-0.475,0-0.86,0.385-0.86,0.86v13l3.53,4.59L330.47,121.36z"></path><path fill="#A7CAFD" d="M355.39,168.62L355.39,168.62c-2.106,2.208-3.234,5.171-3.13,8.22h28.33c0.11-0.003,0.219-0.027,0.32-0.07 l-9.28-8.66C366.992,163.8,359.749,164.028,355.39,168.62z"></path><path fill="#E6E8EB" d="M314.92,7.88h99.18c0.475,0,0.86,0.385,0.86,0.86v91.3c0,0.475-0.385,0.86-0.86,0.86h-99.18 c-0.475,0-0.86-0.385-0.86-0.86V8.74C314.06,8.265,314.445,7.88,314.92,7.88z"></path><path fill="#FFFFFF" d="M321.29,13.98h86.45c0.773,0,1.4,0.627,1.4,1.4v67.88c0,0.773-0.627,1.4-1.4,1.4h-86.45 c-0.773,0-1.4-0.627-1.4-1.4V15.38C319.89,14.607,320.517,13.98,321.29,13.98z"></path><linearGradient id="SVGID_3_" gradientUnits="userSpaceOnUse" x1="319.88" y1="3398.6499" x2="336.79" y2="3398.6499" gradientTransform="matrix(1 0 0 1 0 -3364)"><stop offset="0" style="stop-color:#D4D4D4"></stop><stop offset="0.1" style="stop-color:#D5D5D5;stop-opacity:0.97"></stop><stop offset="0.25" style="stop-color:#D9D9D9;stop-opacity:0.87"></stop><stop offset="0.42" style="stop-color:#E0E0E0;stop-opacity:0.72"></stop><stop offset="0.62" style="stop-color:#E9E9E9;stop-opacity:0.51"></stop><stop offset="0.83" style="stop-color:#F5F5F5;stop-opacity:0.24"></stop><stop offset="1" style="stop-color:#FFFFFF;stop-opacity:0"></stop></linearGradient><path opacity="0.5" fill="url(#SVGID_3_)" enable-background="new    " d="M332,40.52l4.79-8.63 c-5.163-2.806-11.133-3.752-16.91-2.68v10.13C323.913,38.075,328.287,38.501,332,40.52z"></path><path fill="#F9BA08" d="M385.72,84.66h22.39c0.552,0,1-0.448,1-1V64.49L384.46,83L385.72,84.66z"></path><path fill="#A7CAFD" d="M336.14,78.08L336.14,78.08c-1.689,1.766-2.594,4.138-2.51,6.58h23l-7.49-7 C345.423,74.215,339.627,74.403,336.14,78.08z"></path><rect x="374.153" y="20.968" transform="matrix(0.9396 -0.3423 0.3423 0.9396 12.7748 133.1236)" fill="#A7CAFD" width="18.8" height="18.8"></rect><circle fill="#F9BA08" cx="366.03" cy="60.43" r="9.22"></circle><path fill="none" stroke="#80B3FD" stroke-width="1.49" stroke-miterlimit="10" d="M360.41,158.91c0,0-12.67-2.72-12.54-12.8 c0-2.39,3.87-3.45,4.16,0.4c0.33,4.26-5.44,11.79-13,6c-8.13-6.22-6.5-11.87-4.45-11.84c3.58,0,2.71,14.2-14.08,5.62"></path><linearGradient id="SVGID_4_" gradientUnits="userSpaceOnUse" x1="226" y1="3478.3767" x2="251.56" y2="3478.3767" gradientTransform="matrix(1 0 0 1 0 -3364)"><stop offset="0" style="stop-color:#D4D4D4"></stop><stop offset="0.1" style="stop-color:#D5D5D5;stop-opacity:0.97"></stop><stop offset="0.25" style="stop-color:#D9D9D9;stop-opacity:0.87"></stop><stop offset="0.42" style="stop-color:#E0E0E0;stop-opacity:0.72"></stop><stop offset="0.62" style="stop-color:#E9E9E9;stop-opacity:0.51"></stop><stop offset="0.83" style="stop-color:#F5F5F5;stop-opacity:0.24"></stop><stop offset="1" style="stop-color:#FFFFFF;stop-opacity:0"></stop></linearGradient><path opacity="0.5" fill="url(#SVGID_4_)" enable-background="new    " d="M234.94,130.5c-8.275-4.731-11.148-15.275-6.417-23.551 c4.618-8.077,14.808-11.04,23.037-6.699l-3.24,5.9c-5.168-2.667-11.519-0.64-14.187,4.528c-2.569,4.978-0.791,11.097,4.047,13.922 L234.94,130.5z"></path><path fill="#FFFFFF" d="M290.41,60.14c-9.45,0-17.11,7.66-17.11,17.11s7.66,17.11,17.11,17.11s17.11-7.66,17.11-17.11 c0-0.003,0-0.007,0-0.01C307.514,67.794,299.856,60.14,290.41,60.14z"></path><path fill="#FFFFFF" d="M400.38,6.53c-9.45,0-17.11,7.66-17.11,17.11s7.66,17.11,17.11,17.11c9.45,0,17.11-7.66,17.11-17.11 c0-0.003,0-0.007,0-0.01C417.484,14.184,409.826,6.53,400.38,6.53z"></path><path fill="#FFFFFF" d="M381,109.44c-7.373,0.006-13.346,5.987-13.34,13.36c0.005,7.373,5.987,13.346,13.36,13.34 c7.369-0.006,13.34-5.981,13.34-13.35c0-7.373-5.977-13.35-13.35-13.35C381.007,109.44,381.003,109.44,381,109.44z"></path><path fill="#4282F2" d="M290.41,60.14c-9.45,0-17.11,7.66-17.11,17.11s7.66,17.11,17.11,17.11s17.11-7.66,17.11-17.11 c0-0.003,0-0.007,0-0.01C307.514,67.794,299.856,60.14,290.41,60.14z M287,85.79L280.15,79l2.39-2.39L287,81l11.29-11.28l2.39,2.39 L287,85.79z"></path><path fill="#4282F2" d="M400.38,6.53c-9.45,0-17.11,7.66-17.11,17.11s7.66,17.11,17.11,17.11c9.45,0,17.11-7.66,17.11-17.11 c0-0.003,0-0.007,0-0.01C417.484,14.184,409.826,6.53,400.38,6.53z M397,32.18l-6.84-6.84l2.4-2.39L397,27.4l11.29-11.29l2.4,2.39 L397,32.18z"></path><path fill="#4282F2" d="M381,109.44c-7.373,0.006-13.346,5.987-13.34,13.36c0.005,7.373,5.987,13.346,13.36,13.34 c7.369-0.006,13.34-5.981,13.34-13.35c0-7.373-5.977-13.35-13.35-13.35C381.007,109.44,381.003,109.44,381,109.44z M378.33,129.44 l-5.33-5.31l1.87-1.87l3.47,3.47l8.81-8.81l1.87,1.86L378.33,129.44z"></path><path fill="#F8B904" d="M179.5,143.11c3.048,1.858,5.754,4.226,8,7l5.43-9.08c-3.37-4.48-11.4-9.84-17.74-11.09l-5.41,9.06 C173.228,139.815,176.514,141.204,179.5,143.11z"></path><path fill="#E84336" d="M76.51,113.08c-3.053,1.206-6.289,1.883-9.57,2l3,8c5.16,0,13.55-2.87,18-6.83l-3-8 C82.42,110.32,79.57,111.953,76.51,113.08z"></path><path fill="#4282F2" d="M166.49,22c-1.301-0.543-2.399-1.48-3.14-2.68l-5.41,12.85c1.557,2.403,4.421,3.615,7.23,3.06l5.41-12.85 C169.21,22.681,167.781,22.548,166.49,22z"></path><path fill="#E84336" d="M502.7,181.13c2.898-1.567,6.044-2.626,9.3-3.13l-4-7.6c-5.13,0.61-13.11,4.5-17,9l4,7.59 C497.218,184.617,499.822,182.636,502.7,181.13z"></path><path fill="#00AC4D" d="M429.55,136.28c-2.015-0.919-3.743-2.367-5-4.19l-4.35,9.64c2,3.16,7.13,5.88,11.39,5.33l4.36-9.63 C433.752,137.624,431.543,137.227,429.55,136.28z"></path><path fill="#4282F2" d="M376.27,97.12c1.885-0.277,3.803-0.227,5.67,0.15l-1.3-9.88c-3.753-0.659-7.619-0.146-11.07,1.47l1.3,9.87 C372.565,97.889,374.391,97.345,376.27,97.12z"></path><polygon fill="#A7CAFD" points="238.208,140.31 258.8,140.31 252.89,131.6 246.79,122.61 242.05,132.39 "></polygon><polygon fill="#F9BA08" points="250.664,91.348 262.439,106.866 277.957,95.091 267.576,81.41 263.761,81.41 "></polygon></svg>