<?xml version="1.0" encoding="utf-8"?>
<!-- Generator: Adobe Illustrator 23.0.4, SVG Export Plug-In . SVG Version: 6.00 Build 0)  -->
<svg version="1.1" id="Layer_1" xmlns="http://www.w3.org/2000/svg" xmlns:xlink="http://www.w3.org/1999/xlink" x="0px" y="0px"
	 width="36px" height="36px" viewBox="0 0 36 36" enable-background="new 0 0 36 36" xml:space="preserve">
<path d="M18,28.5c-5.81,0-10.5-4.69-10.5-10.5S12.19,7.5,18,7.5S28.5,12.19,28.5,18S23.81,28.5,18,28.5z M31.41,16.5
	C30.72,10.25,25.75,5.28,19.5,4.59V1.5h-3v3.09C10.24,5.28,5.28,10.25,4.59,16.5H1.5v3h3.09c0.69,6.26,5.65,11.22,11.91,11.91v3.09
	h3v-3.09c6.25-0.69,11.22-5.65,11.91-11.91h3.09v-3H31.41z M18,12c-3.31,0-6,2.68-6,6s2.69,6,6,6s6-2.69,6-6S21.32,12,18,12z"/>
</svg>
