<svg xmlns="http://www.w3.org/2000/svg" width="600" height="200"><linearGradient id="a" gradientUnits="userSpaceOnUse" x1="297.47" y1="391.76" x2="299.61" y2="654.08" gradientTransform="translate(0 -306)"><stop offset="0" style="stop-color:#3C4043"/><stop offset="1" style="stop-color:#202124"/></linearGradient><path fill="url(#a)" d="M371.771,241.327L371.767,37.17c0-10.642-8.627-19.269-19.269-19.269h-109.19 c-10.642,0-19.269,8.627-19.269,19.269l0.012,204.167L371.771,241.327z"/><path fill="#8C9196" d="M370.038,37.168v204.155h3.456V37.168c0-11.578-9.42-20.996-20.996-20.996h-109.19 c-11.578,0-20.998,9.42-20.998,20.996v204.155h1.12h0.069l2.269,0.002V37.168c0-9.671,7.869-17.54,17.54-17.54h109.19 C362.171,19.628,370.038,27.497,370.038,37.168z"/><linearGradient id="b" gradientUnits="userSpaceOnUse" x1="222.31" y1="-522.75" x2="373.5" y2="-522.75" gradientTransform="matrix(1 0 0 -1 0 -394)"><stop offset=".51" style="stop-color:#8C9196;stop-opacity:0"/><stop offset=".58" style="stop-color:#8C9196;stop-opacity:0.1312"/><stop offset="1" style="stop-color:#8C9196"/></linearGradient><path fill="url(#b)" d="M371.765,241.327l1.731-0.002V37.17c0-11.578-9.42-20.998-20.998-20.998h-109.19 c-11.578,0-20.998,9.42-20.998,20.998l0.004,204.159h1.717l0.006-204.159c0-10.642,8.627-19.269,19.269-19.269h109.19 c10.642,0,19.269,8.627,19.267,19.271L371.765,241.327L371.765,241.327L371.765,241.327z"/><path fill="#202124" d="M224.556,241.327l0.002-204.157c0-10.338,8.412-18.75,18.752-18.75H352.5c10.338,0,18.75,8.412,18.75,18.75 l0.016,204.159l1.024-0.002l-0.006-204.155c0-10.91-8.876-19.786-19.786-19.786h-109.19c-10.91,0-19.788,8.876-19.788,19.786 v204.159L224.556,241.327z"/><linearGradient id="c" gradientUnits="userSpaceOnUse" x1="207.59" y1="-438.83" x2="388.22" y2="-619.46" gradientTransform="matrix(1 0 0 -1 0 -394)"><stop offset="0" style="stop-color:#FFFFFF;stop-opacity:0"/><stop offset=".11" style="stop-color:#3C4043;stop-opacity:0.1056"/><stop offset=".27" style="stop-color:#5F6368;stop-opacity:0.2674"/><stop offset=".45" style="stop-color:#C9CDD2;stop-opacity:0.4489"/><stop offset=".66" style="stop-color:#C1C5CA;stop-opacity:0.6643"/><stop offset="1" style="stop-color:#BEC3C8"/></linearGradient><path fill="url(#c)" d="M371.184,241.325h1.167V37.17c0-10.947-8.905-19.851-19.851-19.851H243.308 c-10.947,0-19.851,8.905-19.851,19.851l0.004,204.157h1.161l0.002-204.159c0-10.303,8.382-18.684,18.686-18.684H352.5 c10.303,0,18.684,8.382,18.684,18.684V241.325L371.184,241.325z"/><linearGradient id="d" gradientUnits="userSpaceOnUse" x1="297.9" y1="-635.33" x2="297.9" y2="-413.4" gradientTransform="matrix(1 0 0 -1 0 -394)"><stop offset="0" style="stop-color:#202124"/><stop offset="1" style="stop-color:#9AA0A6"/></linearGradient><path fill="url(#d)" d="M243.512,19.978L243.512,19.978l108.84,0.18c9.422,0,17.088,7.664,17.088,17.086l-0.014,203.503 l-143.064-0.004l0.063-203.679C226.424,27.642,234.09,19.978,243.512,19.978 M243.512,19.396c-9.759,0-17.671,7.912-17.671,17.671 l-0.065,204.261l144.231,0.004l0.014-204.087c0-9.759-7.912-17.671-17.671-17.671L243.512,19.396L243.512,19.396z"/><path fill="#202124" d="M367.091 241.338L367.066 48.15c0-7.329-5.941-13.27-13.27-13.27H242.153c-7.329 0-13.27 5.941-13.27 13.27l-.006 193.178L367.091 241.338zM306.655 29.355h-12.49c-.903 0-1.639-.734-1.639-1.639s.734-1.639 1.639-1.639h12.49c.903 0 1.639.734 1.639 1.639C308.295 28.619 307.561 29.355 306.655 29.355zM294.166 26.68c-.57 0-1.036.466-1.036 1.036s.466 1.036 1.036 1.036h12.49c.57 0 1.036-.466 1.036-1.036s-.466-1.036-1.036-1.036H294.166zM266.613 30.694c-1.641 0-2.978-1.337-2.978-2.978s1.337-2.978 2.978-2.978 2.978 1.337 2.978 2.978S268.257 30.694 266.613 30.694zM266.613 25.341c-1.31 0-2.375 1.065-2.375 2.375s1.065 2.375 2.375 2.375c1.308 0 2.375-1.065 2.375-2.375S267.923 25.341 266.613 25.341z"/><path fill="#202124" d="M266.613,28.979c-0.697,0-1.263-0.566-1.263-1.263s0.566-1.263,1.263-1.263s1.263,0.566,1.263,1.263 C267.879,28.413,267.31,28.979,266.613,28.979z M266.613,27.056c-0.364,0-0.66,0.296-0.66,0.66s0.296,0.66,0.66,0.66 s0.66-0.296,0.66-0.66C267.274,27.352,266.977,27.056,266.613,27.056z"/><path fill="#3C4043" d="M357.97 241.33L358.59 241.33 358.58 84.58 237.58 84.58 237.58 241.33 238.18 241.33 238.18 85.19 357.97 85.19z"/><path fill="#FCC934" d="M273.95 108.63L271.86 108.93 273.37 110.41 273 112.48 274.87 111.51 274.89 106.74z"/><path fill="#3C4043" d="M276.39 110.41L277.9 108.95 275.82 108.64 274.89 106.74 274.87 111.51 276.74 112.5z"/><path fill="#FCC934" d="M246.93 106.66L247.86 108.56 249.95 108.86 248.43 110.33 248.78 112.41 246.92 111.43 245.05 112.4 245.41 110.32 243.91 108.85 245.99 108.55zM253.92 106.68L254.85 108.58 256.94 108.89 255.42 110.35 255.77 112.43 253.91 111.45 252.04 112.42 252.4 110.34 250.9 108.87 252.98 108.57zM260.91 106.7L261.84 108.6 263.92 108.91 262.41 110.37 262.76 112.45 260.9 111.47 259.03 112.44 259.39 110.36 257.88 108.89 259.97 108.59zM267.9 106.72L268.83 108.62 270.91 108.93 269.4 110.39 269.75 112.47 267.88 111.49 266.02 112.46 266.38 110.39 264.87 108.91 266.96 108.61z"/><path transform="rotate(-89.83 297.97 130.43)" fill="#3C4043" d="M297.67 70.13H298.27000000000004V190.74H297.67z"/><path transform="rotate(-89.83 298.13 147.13)" fill="#3C4043" d="M297.83 86.99H298.43V207.28H297.83z"/><path fill="#3C4043" d="M291.27 140.458c-.002 0-.002 0-.004 0l-17.895-.051c-.762-.002-1.38-.623-1.378-1.386.002-.762.621-1.378 1.382-1.378.002 0 .002 0 .004 0l17.895.051c.762.002 1.38.623 1.378 1.386C292.649 139.843 292.032 140.458 291.27 140.458zM320.3 140.458c-.002 0-.002 0-.004 0l-17.895-.051c-.762-.002-1.38-.623-1.378-1.386.002-.762.621-1.378 1.382-1.378.002 0 .002 0 .004 0l17.895.051c.762.002 1.38.623 1.378 1.386C321.679 139.843 321.06 140.458 320.3 140.458zM349.33 140.458c-.002 0-.002 0-.004 0l-17.895-.051c-.762-.002-1.38-.623-1.378-1.386.002-.762.621-1.378 1.382-1.378.002 0 .002 0 .004 0l17.895.051c.762.002 1.38.623 1.378 1.386C350.71 139.843 350.09 140.458 349.33 140.458zM348.51 195.949l-102.813-.051 0 0c-.762 0-1.382.619-1.382 1.382 0 .762.617 1.382 1.382 1.382l102.813.051 0 0c.762 0 1.382-.619 1.382-1.382C349.89 196.566 349.273 195.949 348.51 195.949zM316.946 206.994l-71.249-.051 0 0c-.762 0-1.382.617-1.382 1.382 0 .762.617 1.382 1.382 1.382l71.249.051 0 0c.762 0 1.382-.619 1.382-1.382S317.708 206.994 316.946 206.994z"/><path transform="rotate(-89.85 298.1 188.13)" fill="#3C4043" d="M297.8 127.94H298.40000000000003V248.32999999999998H297.8z"/><path fill="#3C4043" d="M297.597 224.027l-36.324-.051c0 0 0 0-.002 0-.762 0-1.38.617-1.382 1.38 0 .762.617 1.382 1.38 1.382l36.324.051c0 0 0 0 .002 0 .762 0 1.38-.617 1.382-1.38C298.979 224.648 298.36 224.029 297.597 224.027zM279.438 233.588l-18.161-.051c-.002 0-.002 0-.004 0-.76 0-1.38.615-1.382 1.378-.002.762.615 1.382 1.378 1.386l18.161.051c.002 0 .002 0 .004 0 .76 0 1.38-.615 1.382-1.378C280.82 234.209 280.203 233.59 279.438 233.588z"/><path transform="rotate(-89.85 298.1 217.11)" fill="#3C4043" d="M297.8 156.91H298.40000000000003V277.3H297.8z"/><path fill="#8C9196" d="M288.635,100.369H245.58c-1.073,0-1.94-0.869-1.94-1.94s0.869-1.94,1.94-1.94h43.055 c1.073,0,1.94,0.869,1.94,1.94C290.575,99.498,289.708,100.369,288.635,100.369z"/><path fill="#3C4043" d="M289.792,121.481h-44.79c-0.762,0-1.382-0.619-1.382-1.382s0.619-1.382,1.382-1.382h44.79 c0.762,0,1.382,0.619,1.382,1.382C291.174,120.864,290.554,121.481,289.792,121.481z"/><linearGradient id="e" gradientUnits="userSpaceOnUse" x1="307.88" y1="-483.04" x2="365.99" y2="-587.73" gradientTransform="matrix(1 0 0 -1 0 -394)"><stop offset="0" style="stop-color:#202124"/><stop offset="1" style="stop-color:#202124;stop-opacity:0"/></linearGradient><path fill="url(#e)" d="M338.19 168.39L367.06 204.93 367.57 171.82z"/><path fill="#5F6368" d="M264.236 140.239c0 0-.002 0-.004 0l-17.898-.051c-.644-.002-1.163-.525-1.161-1.167.002-.642.523-1.161 1.163-1.161 0 0 .002 0 .004 0l17.898.051c.644.002 1.163.525 1.161 1.167C265.397 139.72 264.878 140.239 264.236 140.239zM283.671 171.912c-.008 0-.016 0-.025 0-2.121-.006-4.114-.838-5.61-2.342-1.496-1.506-2.316-3.501-2.31-5.622.006-2.121.838-4.114 2.342-5.61 1.498-1.49 3.487-2.309 5.598-2.309.008 0 .016 0 .025 0 2.121.006 4.112.838 5.61 2.342 1.496 1.504 2.316 3.501 2.309 5.622-.006 2.121-.838 4.114-2.342 5.61C287.771 171.09 285.782 171.912 283.671 171.912zM283.667 156.559c-1.97 0-3.824.764-5.222 2.154-1.402 1.396-2.179 3.254-2.185 5.232s.76 3.84 2.154 5.244c1.396 1.402 3.254 2.179 5.232 2.185.008 0 .016 0 .022 0 1.97 0 3.824-.764 5.222-2.154 1.402-1.396 2.179-3.254 2.185-5.232.012-4.084-3.303-7.417-7.388-7.429C283.683 156.559 283.675 156.559 283.667 156.559zM291.037 177.849c0 0-.002 0-.004 0l-14.809-.043c-.644-.002-1.165-.525-1.163-1.169.002-.644.523-1.163 1.167-1.163 0 0 .002 0 .004 0l14.809.043c.644.002 1.165.525 1.163 1.169C292.2 177.328 291.679 177.849 291.037 177.849zM254.41 171.824c-.008 0-.016 0-.022 0-2.121-.006-4.114-.838-5.61-2.342s-2.316-3.501-2.309-5.622c.006-2.121.838-4.114 2.342-5.61 1.498-1.49 3.487-2.309 5.598-2.309.008 0 .016 0 .025 0 2.121.006 4.112.838 5.61 2.342 1.496 1.504 2.316 3.501 2.309 5.622-.006 2.121-.838 4.112-2.342 5.61C258.512 171.004 256.523 171.824 254.41 171.824zM254.408 156.475c-1.97 0-3.824.764-5.222 2.154-1.402 1.394-2.179 3.254-2.185 5.232s.758 3.84 2.154 5.244c1.394 1.402 3.254 2.179 5.232 2.185.008 0 .014 0 .02 0 4.075 0 7.397-3.309 7.409-7.388.006-1.978-.76-3.84-2.156-5.244-1.394-1.402-3.254-2.179-5.232-2.185C254.424 156.475 254.416 156.475 254.408 156.475zM312.912 172.135c-.008 0-.016 0-.022 0-2.121-.006-4.114-.838-5.61-2.342-1.496-1.506-2.316-3.503-2.31-5.625.006-2.121.838-4.112 2.342-5.61 1.5-1.49 3.487-2.309 5.6-2.309.008 0 .016 0 .022 0 4.38.012 7.932 3.587 7.92 7.967-.006 2.121-.838 4.112-2.342 5.61C317.013 171.315 315.025 172.135 312.912 172.135zM312.912 156.784c-1.97 0-3.824.766-5.222 2.156-1.402 1.394-2.179 3.254-2.185 5.232s.76 3.84 2.154 5.244c1.394 1.402 3.254 2.179 5.232 2.185.008 0 .014 0 .02 0 4.075 0 7.397-3.309 7.409-7.388.012-4.084-3.303-7.417-7.388-7.429C312.926 156.784 312.92 156.784 312.912 156.784z"/><path fill="#5F6368" d="M316.37 166.171l-1.257-.658c-.3-.208-.709-.151-.94.131l-.638.891c-1.553-.862-2.41-2.025-2.88-3.1l.993-.474c.333-.159.491-.548.358-.895l-.523-1.557c-.127-.329-.476-.517-.822-.437l-1.488.341.008.033-.018-.002c-.004.063-.454 6.328 6.722 7.954l.002-.01.027.016.681-1.345C316.75 166.749 316.654 166.371 316.37 166.171zM254.463 168.615h-.143c-.069 0-.135-.027-.186-.074l-4.028-3.865c-.104-.1-.11-.266-.012-.372l4.053-4.447c.051-.055.123-.086.198-.086 0 0 0 0 .002 0h.143c.076 0 .147.033.196.088l4.026 4.468c.098.108.09.274-.014.374l-4.051 3.842C254.598 168.589 254.533 168.615 254.463 168.615zM250.664 164.47l3.728 3.577 3.748-3.556-3.726-4.135L250.664 164.47z"/><path fill="#5F6368" d="M253.08 165.53L252.31 165.52 252.31 164.05 256.23 164.06 256.22 164.83 253.08 164.82z"/><path fill="#5F6368" d="M254.88 166.25L254.34 165.71 255.6 164.44 254.34 163.07 254.9 162.55 256.66 164.45zM262.05 177.763c0 0-.002 0-.004 0l-14.809-.043c-.644-.002-1.165-.525-1.163-1.169.002-.644.523-1.163 1.167-1.163 0 0 .002 0 .004 0l14.809.043c.644.002 1.165.525 1.163 1.169C263.213 177.244 262.691 177.763 262.05 177.763zM320.085 177.931c0 0-.002 0-.004 0l-14.809-.043c-.644-.002-1.165-.525-1.163-1.169.002-.644.523-1.163 1.167-1.163 0 0 .002 0 .004 0l14.809.043c.644.002 1.165.525 1.163 1.169C321.25 177.412 320.729 177.931 320.085 177.931zM373.498 135.728h1.858c.472 0 .854.382.854.854v37.545c0 .472-.382.854-.854.854h-1.858V135.728zM373.49 98.629h1.858c.472 0 .854.382.854.854v18.302c0 .472-.382.854-.854.854h-1.858V98.629zM280.38 167L283.63 159.69 286.93 167 283.67 165.5z"/><path fill="#3C4043" d="M304.401,43.159H245.92c-4.609,0-8.345,3.736-8.345,8.345v33.663h66.824L304.401,43.159L304.401,43.159z"/><path fill="#5F6368" d="M358.566,66.245h-54.165V43.159h47.643c3.601,0,6.522,2.921,6.522,6.522V66.245L358.566,66.245z"/><path opacity=".48" fill="#3C4043" d="M304.4 66.25H331.78999999999996V85.17H304.4z"/><path fill="#3C4043" d="M331.79 66.25H358.57000000000005V85.17H331.79z"/><path opacity=".48" fill="#3C4043" d="M357.89 241.33L308.22 241.33 308.22 217.44 357.98 217.59z"/><path fill="#5F6368" d="M252.276 223.465L252.276 223.465c-.486-.969-1.331-1.717-2.35-2.052l0 0 0 0 0 0 0 0c-.382-.127-.789-.194-1.212-.196-1.239-.004-2.35.572-3.092 1.482l0 0c-.591.724-.948 1.658-.95 2.677-.002.785.149 1.422.399 1.993l0 0c.419.957 1.116 1.727 1.831 2.692l0 0c.233.313.466.646.695 1.014.813 1.312.566 2.095 1.083 2.095.529.002.296-.783 1.118-2.091 1.359-2.164 2.929-3.149 2.937-5.68C252.732 224.701 252.568 224.043 252.276 223.465zM248.704 223.79c.85.002 1.537.717 1.535 1.596 0 .38-.131.728-.345.999l-.004.004c-.004.006-.01.012-.014.016l0 0c0 0 0 .002-.002.002l0 0c-.284.345-.705.564-1.177.564-.85-.002-1.537-.717-1.535-1.596 0-.37.125-.709.329-.979l.002-.004c.01-.012.018-.025.029-.037l0 0c.006-.006.012-.012.018-.02l.014-.018C247.837 223.994 248.246 223.787 248.704 223.79zM339.23 222.5L342.24 217.53 338.12 217.53 331.17 229 308.22 229 308.22 232.52 329.04 232.52 323.74 241.32 327.87 241.33 337.09 226.02 358.29 226.02 358.29 222.5z"/><path fill="#70757A" d="M349.107,122.908h-27.663V90.65h21.623c3.389,0.01,6.05,2.761,6.039,6.15v26.108 C349.106,122.908,349.107,122.908,349.107,122.908z"/><path fill="none" stroke="#202124" stroke-width=".23" stroke-miterlimit="10" d="M323.48 92.18H342.04V95.31H323.48zM344.95 122.91L345.04 90.99M325.38 110.38H329.28V114.07H325.38z"/><path fill="none" stroke="#202124" stroke-width=".23" stroke-miterlimit="10" d="M330.36 122.91L330.36 109.43 324.33 109.43 324.33 121.46 322.86 121.46 322.86 122.91M332.94 109.43H342.14V116.42H332.94z"/><linearGradient id="f" gradientUnits="userSpaceOnUse" x1="328.33" y1="485.91" x2="328.33" y2="496.45" gradientTransform="translate(0 -368)"><stop offset="0" style="stop-color:#202124"/><stop offset="1" style="stop-color:#202124;stop-opacity:0"/></linearGradient><path opacity=".3" fill-rule="evenodd" clip-rule="evenodd" fill="url(#f)" d="M335.422,128.485c-9.291-0.027-18.582,0.027-27.871,0l13.894-5.578h27.663L335.422,128.485z"/><path fill="none" stroke="#202124" stroke-width=".23" stroke-miterlimit="10" d="M324.33 121.46L330.36 121.46M321.49 107.98L345.04 107.98"/><path fill="#FCC934" d="M338.306,104.845l4.631-8.204h-21.411l-4.631,8.142l-0.004,1.071c-0.002,0.591,0.476,1.073,1.067,1.073 c0.591,0,1.073-0.476,1.073-1.067c-0.002,0.591,0.476,1.073,1.067,1.073c0.591,0.002,1.073-0.476,1.073-1.067 c-0.002,0.591,0.476,1.073,1.067,1.073c0.591,0,1.073-0.476,1.073-1.067c-0.002,0.591,0.476,1.073,1.067,1.073 c0.591,0,1.073-0.476,1.073-1.067c-0.002,0.591,0.476,1.073,1.067,1.073s1.073-0.476,1.073-1.067 c-0.002,0.591,0.476,1.073,1.067,1.073c0.591,0,1.073-0.476,1.073-1.067c-0.002,0.591,0.476,1.073,1.067,1.073 s1.073-0.476,1.073-1.067c-0.002,0.591,0.476,1.073,1.067,1.073c0.591,0,1.073-0.476,1.073-1.067 c-0.002,0.591,0.476,1.073,1.067,1.073c0.591,0,1.073-0.476,1.073-1.067c-0.002,0.591,0.476,1.073,1.067,1.073 s1.073-0.476,1.073-1.067L338.306,104.845"/><linearGradient id="g" gradientUnits="userSpaceOnUse" x1="87.86" y1="35.71" x2="86.86" y2="117.71" gradientTransform="matrix(1 0 0 -1 0 202)"><stop offset=".38" style="stop-color:#202124;stop-opacity:0"/><stop offset="1" style="stop-color:#5F6368"/></linearGradient><path fill="url(#g)" d="M147.35,122.14c1.469,0.018,2.674-1.159,2.692-2.628c0.005-0.447-0.102-0.888-0.312-1.282 c-2.106-4.296-5.472-7.848-9.65-10.18c-12.2-6.39-20.26,6-35,0.67C95.39,105.19,90,96.6,74.77,94.58l-1.22-0.14 c-10.646-0.896-20.757,4.812-25.49,14.39c-0.457,0.914-1.409,1.475-2.43,1.43c-7.127-0.324-14.16,1.723-20,5.82 c-1.193,0.867-1.458,2.536-0.591,3.729c0.494,0.68,1.28,1.088,2.121,1.101L147.35,122.14z"/><linearGradient id="h" gradientUnits="userSpaceOnUse" x1="307.88" y1="1450.04" x2="365.99" y2="1554.73" gradientTransform="translate(0 -1370)"><stop offset="0" style="stop-color:#202124"/><stop offset="1" style="stop-color:#202124;stop-opacity:0"/></linearGradient><path fill="url(#h)" d="M338.19 159.39L367.06 195.93 367.56 162.82z"/><linearGradient id="i" gradientUnits="userSpaceOnUse" x1="208.8" y1="968" x2="232.05" y2="1009.89" gradientTransform="translate(0 -904)"><stop offset="0" style="stop-color:#202124"/><stop offset="1" style="stop-color:#202124;stop-opacity:0"/></linearGradient><path fill="url(#i)" d="M222.3 94.99L222.37 115.99 240.27 93.15z"/><linearGradient id="j" gradientUnits="userSpaceOnUse" x1="486.79" y1="97.19" x2="485.79" y2="158.19" gradientTransform="matrix(1 0 0 -1 0 202)"><stop offset=".24" style="stop-color:#202124;stop-opacity:0"/><stop offset="1" style="stop-color:#5F6368"/></linearGradient><path fill="url(#j)" d="M553.43,77.39c-12-17.52-33.75-13.25-33.75-13.25s-6.84-23.07-29.06-19.23s-17.09,22.65-40.11,16.67 S419.27,79.1,419.27,79.1L553.43,77.39z"/><path fill="#FDD663" d="M416.45,90.6c-26.173-8.806-54.528,5.273-63.334,31.446c-2.484,7.382-3.208,15.242-2.116,22.954 l-12.83,14.35l19.15,3.77c13.87,23.878,44.471,31.992,68.349,18.122c23.878-13.87,31.992-44.471,18.122-68.349 C437.688,102.387,427.969,94.462,416.45,90.6z"/><path fill="none" stroke="#202124" stroke-width="10" stroke-linecap="round" stroke-linejoin="round" d="M383.05 121.41L417.37 155.83M417.42 121.46L383 155.78"/><path fill="#81C995" d="M162,24.35c26.173-8.804,54.528,5.277,63.332,31.45c2.488,7.397,3.21,15.274,2.108,23l12.83,14.35 l-19.14,3.76c-13.897,23.862-44.508,31.941-68.37,18.043s-31.941-44.508-18.043-68.37C140.816,36.111,150.512,28.21,162,24.35z"/><path fill="none" stroke="#202124" stroke-width="10" stroke-linecap="round" stroke-linejoin="round" d="M160.49 70.67L173.06 83.23 194.42 60.25"/></svg>
