<svg width="415" height="215" viewBox="0 0 415 215" fill="none" xmlns="http://www.w3.org/2000/svg">
<path d="M222.93 202.36L280.07 214.21C283.4 214.9 286.84 214.78 290.11 213.85L370.73 190.96C371.89 190.63 371.82 188.97 370.64 188.74L317.74 178.43L222.93 202.36Z" fill="url(#paint0_linear)"/>
<path d="M190.72 210.21L0.890137 186.3L95.8001 173.71L198.51 194.42L190.72 210.21Z" fill="url(#paint1_linear)"/>
<path d="M402.28 71.3701L411.9 60.4701C418.42 53.0901 412.13 46.8601 404.52 53.1801C404.37 53.3001 404.22 53.4301 404.07 53.5601C402.16 55.1801 400.75 57.2801 400.23 59.2901L397.25 70.7501C396.69 72.9101 398.58 73.8601 400.82 72.5601C401.37 72.2601 401.86 71.8501 402.28 71.3701Z" fill="#DADCE0"/>
<path d="M327.61 175.91L229.55 200.68V66.9202L327.61 42.1501V175.91Z" fill="url(#paint2_linear)"/>
<path d="M327.61 175.91L229.55 200.68V66.9202L327.61 42.1501V175.91Z" fill="#DADCE0"/>
<path d="M327.61 175.91L229.55 200.68V66.9202L327.61 42.1501V175.91Z" fill="url(#paint3_linear)"/>
<path d="M193.85 148.94L95.8 173.71V39.9499L193.85 15.1799V148.94Z" fill="url(#paint4_linear)"/>
<path d="M95.8 39.95L229.55 66.92V200.68L95.8 173.71V39.95Z" fill="#70757A"/>
<path d="M187.13 79.96L95.8 173.71L186.91 192.08L187.13 79.96Z" fill="url(#paint5_linear)"/>
<path d="M229.55 66.9199L190.15 77.1399C188.24 77.6399 186.9 79.3599 186.9 81.3399V205.91C186.9 208.75 189.59 210.83 192.34 210.1L229.54 200.68V66.9199H229.55Z" fill="#E8EAED"/>
<path d="M229.55 200.68L327.61 175.91L229.55 156.14V200.68Z" fill="#70757A"/>
<path d="M229.55 66.9199L327.61 42.1499L193.85 15.1799L95.8 39.9499L229.55 66.9199Z" fill="#E8EAED"/>
<path d="M229.55 66.92L243.6 26.5C243.89 25.67 244.56 25.04 245.41 24.82L337.84 0.100035C339.88 -0.449965 341.71 1.51004 341.01 3.51004L327.61 42.15L229.55 66.92Z" fill="#70757A"/>
<path d="M373.98 185.07L327.61 175.91L229.55 200.71L281.32 211.07C284.85 211.77 288.21 212.13 291.58 211.23L373.95 188.66C375.78 188.17 375.8 185.59 373.98 185.07Z" fill="#E8EAED"/>
<path d="M327.61 42.15L354.98 35.66C357.6 35.04 360.12 37.03 360.12 39.72V164.41C360.12 166.24 358.93 167.85 357.18 168.4L327.61 175.9V42.15Z" fill="#70757A"/>
<path d="M348.51 86.9201L360.11 84.1301V123.76L348.51 127.33V86.9201Z" fill="#5F6368"/>
<path d="M229.55 66.92L193.85 59.72L237.17 45.02L229.55 66.92Z" fill="url(#paint6_linear)"/>
<path d="M186.91 123.57L198.51 120.77V160.41L186.91 163.98V123.57Z" fill="#70757A"/>
<path d="M275.07 26.7402L303.42 19.3102L307.69 8.16016L278.94 15.8502L275.07 26.7402Z" fill="#5F6368"/>
<path d="M317.07 204.27L302.46 200.51L336.72 190.54L352.86 194.44L317.07 204.27Z" fill="#70757A"/>
<path d="M403.67 77.0401L395.28 77.9501C392.94 78.2701 390.79 76.6401 390.47 74.3001C390.15 71.9601 391.78 69.8101 394.12 69.4901L402.51 68.5801C404.85 68.2601 407 69.8901 407.32 72.2301C407.64 74.5701 406.01 76.7201 403.67 77.0401Z" fill="#70757A"/>
<path d="M394.07 73.8201L378.34 78.3501C367.69 81.4201 371.8 87.9801 383.17 86.0301C383.39 85.9901 383.62 85.9501 383.84 85.9101C386.71 85.4001 389.25 84.3701 390.75 83.1201L399.36 75.9501C400.98 74.6001 399.32 73.2801 396.23 73.4601C395.5 73.5001 394.76 73.6301 394.07 73.8201Z" fill="#DADCE0"/>
<path d="M235 101.28C234.81 101.28 234.62 101.2 234.47 101.05C234.2 100.76 234.23 100.31 234.52 100.05C235.62 99.0501 236.79 98.1501 238.01 97.3901C238.34 97.1801 238.78 97.2801 238.99 97.6101C239.2 97.9401 239.1 98.3801 238.77 98.5901C237.62 99.3101 236.52 100.15 235.48 101.1C235.34 101.22 235.17 101.28 235 101.28Z" fill="#5F6368"/>
<path d="M301.65 143.71C301.63 143.71 301.61 143.71 301.58 143.71C298.54 143.43 295.67 142.58 293.03 141.18C292.68 141 292.55 140.57 292.73 140.22C292.91 139.87 293.34 139.74 293.69 139.92C296.16 141.23 298.86 142.02 301.71 142.29C302.1 142.33 302.39 142.67 302.35 143.06C302.33 143.43 302.02 143.71 301.65 143.71ZM310.33 143.14C310 143.14 309.7 142.91 309.63 142.57C309.55 142.19 309.8 141.81 310.19 141.73C312.94 141.17 315.67 140.26 318.29 139.02C318.64 138.85 319.07 139 319.24 139.36C319.41 139.72 319.26 140.14 318.9 140.31C316.17 141.6 313.34 142.55 310.47 143.13C310.43 143.14 310.38 143.14 310.33 143.14ZM340 140.72C339.64 140.72 339.27 140.72 338.91 140.71C336.75 140.67 334.65 140.52 332.66 140.28C332.27 140.23 331.99 139.88 332.04 139.49C332.09 139.1 332.44 138.82 332.83 138.87C334.77 139.11 336.82 139.25 338.94 139.29C339.78 139.31 340.62 139.3 341.44 139.28C341.83 139.27 342.16 139.58 342.17 139.97C342.18 140.36 341.87 140.69 341.48 140.7C340.98 140.72 340.49 140.72 340 140.72ZM350.11 139.74C349.78 139.74 349.48 139.51 349.41 139.17C349.33 138.78 349.58 138.41 349.97 138.33C352.79 137.76 355.56 136.94 358.19 135.87C358.55 135.72 358.97 135.9 359.12 136.26C359.27 136.62 359.09 137.04 358.73 137.19C356.02 138.29 353.16 139.14 350.26 139.72C350.2 139.74 350.16 139.74 350.11 139.74ZM324.22 138.46C324.15 138.46 324.07 138.45 324 138.43C321.02 137.47 318.32 136.2 315.95 134.65C315.62 134.44 315.53 133.99 315.74 133.67C315.95 133.34 316.4 133.25 316.72 133.46C318.98 134.93 321.57 136.15 324.43 137.07C324.8 137.19 325.01 137.59 324.89 137.97C324.8 138.27 324.52 138.46 324.22 138.46ZM286.53 135.92C286.34 135.92 286.15 135.85 286.01 135.7C284.19 133.77 282.43 131.46 280.64 128.66C280.43 128.33 280.52 127.89 280.86 127.68C281.19 127.47 281.63 127.56 281.84 127.9C283.58 130.62 285.29 132.86 287.05 134.73C287.32 135.02 287.31 135.47 287.02 135.74C286.88 135.86 286.7 135.92 286.53 135.92ZM326.01 135.8C325.8 135.8 325.59 135.71 325.45 135.53C325.21 135.22 325.26 134.77 325.57 134.53C327.83 132.76 329.9 130.76 331.72 128.57C331.97 128.27 332.42 128.23 332.72 128.48C333.02 128.73 333.06 129.18 332.81 129.48C330.93 131.75 328.79 133.82 326.44 135.65C326.32 135.75 326.16 135.8 326.01 135.8ZM366.2 133.25C365.97 133.25 365.74 133.13 365.6 132.92C365.39 132.59 365.49 132.15 365.82 131.94C368.18 130.43 370.48 128.67 372.65 126.71C372.94 126.45 373.39 126.47 373.65 126.76C373.91 127.05 373.89 127.5 373.6 127.76C371.37 129.78 369.01 131.58 366.58 133.13C366.46 133.22 366.33 133.25 366.2 133.25ZM309.97 128.87C309.75 128.87 309.54 128.77 309.4 128.59C307.57 126.15 306.26 123.44 305.52 120.53C305.42 120.15 305.65 119.76 306.03 119.67C306.41 119.57 306.8 119.8 306.89 120.18C307.59 122.91 308.81 125.45 310.53 127.74C310.77 128.05 310.7 128.5 310.39 128.74C310.27 128.82 310.12 128.87 309.97 128.87ZM337.02 122.42C336.92 122.42 336.81 122.4 336.71 122.35C336.36 122.18 336.21 121.75 336.38 121.4C337.72 118.64 338.54 115.92 338.83 113.31C338.87 112.92 339.22 112.64 339.62 112.68C340.01 112.72 340.29 113.08 340.25 113.47C339.94 116.24 339.07 119.12 337.67 122.02C337.53 122.27 337.28 122.42 337.02 122.42ZM379.14 121.63C378.98 121.63 378.82 121.58 378.69 121.47C378.39 121.22 378.34 120.77 378.59 120.47C380.37 118.32 382.08 115.97 383.67 113.47C383.88 113.14 384.32 113.04 384.65 113.25C384.98 113.46 385.08 113.9 384.87 114.23C383.25 116.77 381.5 119.17 379.69 121.36C379.55 121.54 379.34 121.63 379.14 121.63ZM276.89 121.41C276.63 121.41 276.39 121.27 276.26 121.03C275.52 119.63 274.8 118.23 274.08 116.84C273.46 115.64 272.84 114.44 272.23 113.27C272.05 112.92 272.18 112.49 272.53 112.31C272.88 112.13 273.31 112.26 273.49 112.61C274.11 113.79 274.73 114.99 275.35 116.19C276.06 117.58 276.79 118.97 277.52 120.36C277.7 120.71 277.57 121.14 277.22 121.32C277.11 121.39 277 121.41 276.89 121.41ZM305.78 112.39C305.74 112.39 305.71 112.39 305.67 112.38C305.28 112.32 305.02 111.96 305.08 111.57C305.55 108.53 306.67 105.63 308.3 103.2C308.52 102.87 308.96 102.79 309.29 103.01C309.62 103.23 309.7 103.67 309.48 104C307.96 106.26 306.92 108.96 306.48 111.8C306.43 112.14 306.13 112.39 305.78 112.39ZM388.58 106.97C388.47 106.97 388.36 106.95 388.26 106.89C387.91 106.71 387.77 106.29 387.94 105.94C389.21 103.41 390.4 100.74 391.47 98.0201C391.61 97.6501 392.03 97.47 392.39 97.62C392.76 97.76 392.94 98.18 392.79 98.54C391.71 101.3 390.5 104.01 389.21 106.58C389.09 106.83 388.84 106.97 388.58 106.97ZM268.5 106.07C268.27 106.07 268.04 105.96 267.9 105.75C266.06 102.93 264.28 100.79 262.46 99.2101C262.16 98.9501 262.13 98.5001 262.39 98.2101C262.65 97.9101 263.1 97.88 263.39 98.14C265.32 99.81 267.18 102.04 269.09 104.97C269.3 105.3 269.21 105.74 268.88 105.95C268.77 106.04 268.64 106.07 268.5 106.07ZM338.26 105.58C338 105.58 337.74 105.43 337.62 105.18C336.44 102.76 334.51 100.83 331.86 99.43C331.51 99.25 331.38 98.82 331.56 98.47C331.74 98.12 332.17 97.99 332.52 98.17C335.44 99.71 337.58 101.86 338.89 104.56C339.06 104.91 338.91 105.34 338.56 105.51C338.47 105.56 338.37 105.58 338.26 105.58ZM315.36 98.6001C315.1 98.6001 314.84 98.45 314.72 98.2C314.55 97.85 314.7 97.42 315.05 97.25C317.74 95.95 320.73 95.43 323.91 95.7C324.3 95.73 324.59 96.08 324.56 96.47C324.53 96.86 324.18 97.15 323.79 97.12C320.87 96.87 318.12 97.35 315.67 98.53C315.57 98.58 315.47 98.6001 315.36 98.6001ZM255.19 95.7101C255.15 95.7101 255.11 95.71 255.07 95.7C252.11 95.21 249.26 95.18 246.61 95.62C246.22 95.68 245.86 95.42 245.79 95.03C245.73 94.64 245.99 94.2801 246.38 94.2101C249.18 93.7501 252.19 93.77 255.31 94.29C255.7 94.35 255.96 94.72 255.89 95.11C255.84 95.46 255.54 95.7101 255.19 95.7101Z" fill="#5F6368"/>
<path d="M395.03 90.52C394.96 90.52 394.9 90.51 394.83 90.49C394.45 90.38 394.24 89.99 394.34 89.61C395.07 87.09 395.38 85.5499 395.39 85.5399C395.47 85.1499 395.84 84.91 396.23 84.99C396.61 85.07 396.86 85.44 396.78 85.83C396.77 85.89 396.45 87.4399 395.71 90.0099C395.62 90.3099 395.33 90.52 395.03 90.52Z" fill="#5F6368"/>
<defs>
<linearGradient id="paint0_linear" x1="417.25" y1="152.422" x2="258.899" y2="210.585" gradientUnits="userSpaceOnUse">
<stop stop-color="#202124"/>
<stop offset="1" stop-color="#202124" stop-opacity="0"/>
</linearGradient>
<linearGradient id="paint1_linear" x1="392.189" y1="201.582" x2="79.016" y2="189.478" gradientUnits="userSpaceOnUse">
<stop stop-color="#202124"/>
<stop offset="1" stop-color="#202124" stop-opacity="0"/>
</linearGradient>
<linearGradient id="paint2_linear" x1="283.539" y1="192.316" x2="273.968" y2="55.4402" gradientUnits="userSpaceOnUse">
<stop stop-color="white"/>
<stop offset="0.1919" stop-color="#F0F1F2"/>
<stop offset="0.7192" stop-color="#CCD0D4"/>
<stop offset="1" stop-color="#BEC3C8"/>
</linearGradient>
<linearGradient id="paint3_linear" x1="-216.045" y1="7.76834" x2="363.399" y2="140.905" gradientUnits="userSpaceOnUse">
<stop stop-color="#202124"/>
<stop offset="1" stop-color="#202124" stop-opacity="0"/>
</linearGradient>
<linearGradient id="paint4_linear" x1="149.783" y1="165.344" x2="140.211" y2="28.4684" gradientUnits="userSpaceOnUse">
<stop stop-color="white"/>
<stop offset="0.1919" stop-color="#F0F1F2"/>
<stop offset="0.7192" stop-color="#CCD0D4"/>
<stop offset="1" stop-color="#BEC3C8"/>
</linearGradient>
<linearGradient id="paint5_linear" x1="317.252" y1="-22.3215" x2="147.806" y2="175.366" gradientUnits="userSpaceOnUse">
<stop stop-color="#202124"/>
<stop offset="1" stop-color="#202124" stop-opacity="0"/>
</linearGradient>
<linearGradient id="paint6_linear" x1="270.073" y1="59.6406" x2="199.068" y2="52.5401" gradientUnits="userSpaceOnUse">
<stop stop-color="#202124"/>
<stop offset="1" stop-color="#202124" stop-opacity="0"/>
</linearGradient>
</defs>
</svg>
