<svg width="74" height="74" viewBox="0 0 74 74" fill="none" xmlns="http://www.w3.org/2000/svg">
<path d="M9.50879 35.2158C12.8225 35.2158 15.5088 32.5295 15.5088 29.2158C15.5088 25.9021 12.8225 23.2158 9.50879 23.2158C6.19508 23.2158 3.50879 25.9021 3.50879 29.2158C3.50879 32.5295 6.19508 35.2158 9.50879 35.2158Z" fill="#F2F3F4" fill-opacity="0.1"/>
<path opacity="0.16" d="M16.4287 64.379C20.2947 64.379 23.4287 61.245 23.4287 57.379C23.4287 53.513 20.2947 50.379 16.4287 50.379C12.5627 50.379 9.42871 53.513 9.42871 57.379C9.42871 61.245 12.5627 64.379 16.4287 64.379Z" fill="#B2B2B2"/>
<g opacity="0.9">
<path opacity="0.9" d="M37.4191 60.2167C39.6282 60.2167 41.4191 58.4258 41.4191 56.2167C41.4191 54.0075 39.6282 52.2167 37.4191 52.2167C35.2099 52.2167 33.4191 54.0075 33.4191 56.2167C33.4191 58.4258 35.2099 60.2167 37.4191 60.2167Z" fill="#E1E2E6" fill-opacity="0.1"/>
</g>
<g opacity="0.8">
<g opacity="0.77">
<path opacity="0.77" d="M46.3672 47.3414C50.2332 47.3414 53.3672 44.2074 53.3672 40.3414C53.3672 36.4754 50.2332 33.3414 46.3672 33.3414C42.5012 33.3414 39.3672 36.4754 39.3672 40.3414C39.3672 44.2074 42.5012 47.3414 46.3672 47.3414Z" fill="#E1E2E6" fill-opacity="0.4"/>
</g>
</g>
<path d="M69.2696 23.3803C68.5699 23.3805 67.879 23.5394 67.2472 23.8456C66.6255 22.4096 65.607 21.1887 64.3158 20.3314C63.0246 19.4741 61.5164 19.0174 59.9748 19.0171C59.5951 19.0199 59.2161 19.0507 58.8408 19.1093C56.9489 19.3854 55.2183 20.3464 53.9661 21.8162C52.714 23.286 52.0242 25.166 52.0233 27.1115C52.0233 27.366 52.0384 27.6184 52.06 27.8665H74C73.9149 26.6484 73.3796 25.5083 72.5019 24.6759C71.6242 23.8435 70.4692 23.3806 69.2696 23.3803Z" fill="#3F3F3F"/>
<path fill-rule="evenodd" clip-rule="evenodd" d="M24.2878 41.4562C24.4588 41.0516 24.9191 40.8651 25.3159 41.0395L50.9578 52.3119C51.3545 52.4863 51.5375 52.9557 51.3665 53.3602C51.1954 53.7648 50.7351 53.9513 50.3384 53.7769L24.6964 42.5045C24.2997 42.3301 24.1167 41.8607 24.2878 41.4562Z" fill="#686C71"/>
<path fill-rule="evenodd" clip-rule="evenodd" d="M31.045 11.3853C31.2753 11.0125 31.7583 10.9006 32.1239 11.1354L51.0648 23.2966C51.2878 23.4398 51.4251 23.6879 51.4301 23.9566C51.4351 24.2252 51.3071 24.4784 51.0895 24.6301L25.6395 42.3749C25.2828 42.6236 24.796 42.5304 24.5521 42.1667C24.3083 41.8031 24.3997 41.3067 24.7563 41.058L49.2226 23.9991L31.2902 12.4853C30.9246 12.2506 30.8148 11.7581 31.045 11.3853Z" fill="#686C71"/>
<path d="M31.8726 18.8503C35.7386 18.8503 38.8726 15.7163 38.8726 11.8503C38.8726 7.98435 35.7386 4.85034 31.8726 4.85034C28.0066 4.85034 24.8726 7.98435 24.8726 11.8503C24.8726 15.7163 28.0066 18.8503 31.8726 18.8503Z" fill="#F1BE42"/>
<path d="M50.6337 60.2435C55.0519 60.2435 58.6337 56.6618 58.6337 52.2435C58.6337 47.8253 55.0519 44.2435 50.6337 44.2435C46.2154 44.2435 42.6337 47.8253 42.6337 52.2435C42.6337 56.6618 46.2154 60.2435 50.6337 60.2435Z" fill="#EA4335"/>
<path d="M51 35C57.6274 35 63 29.6274 63 23C63 16.3726 57.6274 11 51 11C44.3726 11 39 16.3726 39 23C39 29.6274 44.3726 35 51 35Z" fill="#91C699"/>
<path fill-rule="evenodd" clip-rule="evenodd" d="M46.0181 21.894C46.1086 21.4857 46.5125 21.2281 46.9202 21.3187L55.4075 23.2052C55.8152 23.2958 56.0724 23.7003 55.9819 24.1087C55.8914 24.5171 55.4875 24.7747 55.0798 24.684L46.5925 22.7976C46.1848 22.7069 45.9276 22.3024 46.0181 21.894Z" fill="white"/>
<path fill-rule="evenodd" clip-rule="evenodd" d="M52.1062 18.0182C52.5139 18.1091 52.7708 18.5137 52.6802 18.9221L50.7958 27.4069C50.7051 27.8152 50.3011 28.0726 49.8934 27.9818C49.4858 27.8909 49.2288 27.4863 49.3195 27.0779L51.2038 18.5931C51.2945 18.1848 51.6985 17.9274 52.1062 18.0182Z" fill="white"/>
<path d="M0 18.6361C0.0368473 18.0983 0.198552 17.5771 0.471819 17.1154C0.745087 16.6536 1.12211 16.2645 1.5719 15.9799C2.02169 15.6954 2.5314 15.5236 3.05912 15.4786C3.58684 15.4337 4.11751 15.5169 4.60749 15.7214C5.0496 14.2356 5.92818 12.9233 7.12501 11.9612C8.32184 10.999 9.77948 10.4331 11.3018 10.3396C12.8241 10.2461 14.338 10.6296 15.6397 11.4383C16.9415 12.2471 17.9687 13.4423 18.583 14.8632C19.2371 14.5474 19.9569 14.3989 20.6802 14.4306C21.4034 14.4622 22.1081 14.6731 22.7331 15.0448C23.3582 15.4166 23.8846 15.938 24.2668 16.5638C24.6489 17.1897 24.8753 17.901 24.9261 18.6361H0Z" fill="#F2F3F4" fill-opacity="0.1"/>
<g opacity="0.43">
<path opacity="0.16" d="M6.25012 44.353C7.35469 44.353 8.25012 43.4576 8.25012 42.353C8.25012 41.2485 7.35469 40.353 6.25012 40.353C5.14555 40.353 4.25012 41.2485 4.25012 42.353C4.25012 43.4576 5.14555 44.353 6.25012 44.353Z" fill="#F2F3F4"/>
</g>
<path d="M49.3283 3.27539L50.9691 5.21997L44.8459 7.09212L39.5873 7.91955L46.5147 3.33684L49.3283 3.27539Z" fill="#555555"/>
<path style="mix-blend-mode:multiply" opacity="0.15" d="M49.0331 4.85449L50.9693 5.22102L44.514 7.24461L49.0331 4.85449Z" fill="url(#paint0_linear_790_635)"/>
<path d="M39.5873 7.92097L50.2102 0L49.3283 3.27681L39.5873 7.92097Z" fill="#3F3F3F"/>
<path d="M49.0329 4.85449L47.8665 8.92582L39.5873 7.9206L49.0329 4.85449Z" fill="#3F3F3F"/>
<path d="M21.6232 70.7013L22.7077 74L29.109 68.0368L33.7143 62.3765L23.6499 67.4047L21.6232 70.7013Z" fill="#555555"/>
<path style="mix-blend-mode:multiply" opacity="0.15" d="M23.6325 71.4494L22.7075 73.9998L29.5142 67.749L23.6325 71.4494Z" fill="url(#paint1_linear_790_635)"/>
<path d="M33.7141 62.3765L17.257 69.47L21.623 70.7013L33.7141 62.3765Z" fill="#3F3F3F"/>
<path d="M23.6323 71.4497L29.1087 72.8961L33.714 62.3765L23.6323 71.4497Z" fill="#3F3F3F"/>
<path d="M22.9999 56C31.2842 56 38 49.2843 38 41C38 32.7158 31.2842 26 22.9999 26C14.7157 26 8 32.7158 8 41C8 49.2843 14.7157 56 22.9999 56Z" fill="white"/>
<path fill-rule="evenodd" clip-rule="evenodd" d="M32.92 52.2516C30.2759 54.5845 26.8033 56 23 56C20.5593 56 18.2548 55.4171 16.218 54.3829C16.0988 53.8504 16.0363 53.2993 16.0363 52.7359C16.0363 48.3842 19.7697 44.7689 24.4859 44.7689C29.026 44.7689 32.6552 48.1192 32.92 52.2516ZM33.8282 51.3803C33.1396 47.0715 29.2195 43.7689 24.4859 43.7689C19.2666 43.7689 15.0363 47.784 15.0363 52.7359C15.0363 53.0792 15.0566 53.4179 15.0962 53.7511C10.8363 51.105 8 46.3838 8 41C8 32.7158 14.7157 26 23 26C31.2842 26 38 32.7158 38 41C38 45.0282 36.4121 48.6856 33.8282 51.3803Z" fill="#7CACF8"/>
<path fill-rule="evenodd" clip-rule="evenodd" d="M22.6265 34.6464C20.812 34.6464 19.3426 36.1436 19.3426 37.9883C19.3426 39.8331 20.812 41.3302 22.6265 41.3302C24.441 41.3302 25.9104 39.8331 25.9104 37.9883C25.9104 36.1436 24.441 34.6464 22.6265 34.6464ZM18.1874 37.9883C18.1874 35.4912 20.1757 33.4685 22.6265 33.4685C25.0772 33.4685 27.0656 35.4912 27.0656 37.9883C27.0656 40.4855 25.0772 42.5081 22.6265 42.5081C20.1757 42.5081 18.1874 40.4855 18.1874 37.9883Z" fill="white"/>
<defs>
<linearGradient id="paint0_linear_790_635" x1="45.8639" y1="10.1106" x2="50.2925" y2="5.94144" gradientUnits="userSpaceOnUse">
<stop stop-color="white"/>
<stop offset="0.13" stop-color="#F8F8F9"/>
<stop offset="0.31" stop-color="#E5E6E7"/>
<stop offset="0.52" stop-color="#C6C8CA"/>
<stop offset="0.75" stop-color="#9B9EA1"/>
<stop offset="0.99" stop-color="#686C71"/>
</linearGradient>
<linearGradient id="paint1_linear_790_635" x1="2195.69" y1="935.685" x2="1945.44" y2="1004.46" gradientUnits="userSpaceOnUse">
<stop stop-color="white"/>
<stop offset="0.13" stop-color="#F8F8F9"/>
<stop offset="0.31" stop-color="#E5E6E7"/>
<stop offset="0.52" stop-color="#C6C8CA"/>
<stop offset="0.75" stop-color="#9B9EA1"/>
<stop offset="0.99" stop-color="#686C71"/>
</linearGradient>
</defs>
</svg>
