<svg xmlns="http://www.w3.org/2000/svg" width="118.24" height="123.313"><path fill="#F1F3F4" d="M20.48 114.153v-93.9c0-4.17 3.38-7.54 7.54-7.54h77.87c4.17 0 7.54 3.38 7.54 7.54l1.87 95.88-11.52 7.1-75.02.08c-5.08 0-8.27-4.95-8.28-9.16z"/><path fill="#DADCE0" d="M32.69 120.173h76.08l1.09-.67H32.7c-4.4 0-7.98-3.58-7.98-7.98v-55.07c0-.19-.15-.34-.34-.34s-.34.15-.34.34v55.06c0 4.77 3.88 8.65 8.65 8.66z"/><path fill="#DADCE0" d="M31.83 122.293h73.48l1.09-.67H31.83c-4.98 0-9.04-4.05-9.04-9.04v-54.53c0-.19-.15-.34-.34-.34s-.34.15-.34.34v54.53c0 5.36 4.36 9.72 9.72 9.71z"/><path fill="#EAEAEA" d="M26.27 110.173v-95.52c0-4.17 3.38-7.54 7.54-7.54h76.89c4.17 0 7.54 3.38 7.54 7.54v95.52c0 4.17-3.38 7.54-7.54 7.54H33.81c-4.16 0-7.54-3.37-7.54-7.54z"/><linearGradient id="a" gradientUnits="userSpaceOnUse" x1="431.0285" y1="73.5812" x2="431.0285" y2="-79.4008" gradientTransform="rotate(180 251.64175 17.1356)"><stop offset="0" style="stop-color:#F1F3F4"/><stop offset="1" style="stop-color:#F1F3F4;stop-opacity:0"/></linearGradient><path fill="url(#a)" d="M26.27 110.173v-95.52c0-4.17 3.38-7.54 7.54-7.54h76.89c4.17 0 7.54 3.38 7.54 7.54v95.52c0 4.17-3.38 7.54-7.54 7.54H33.81c-4.16 0-7.54-3.37-7.54-7.54z"/><circle fill="#FFF" cx="105.97" cy="96.113" r="7.17"/><path fill="#4285F4" d="M106.198 100.425c-.4 0-.79-.16-1.08-.45l-3.05-3.05c-.52-.52-.52-1.38 0-1.9.52-.53 1.38-.53 1.9 0l2.09 2.09 5.93-8.18c.44-.6 1.28-.73 1.88-.3.6.44.74 1.28.3 1.88l-6.72 9.28c-.26.36-.67.59-1.12.63h-.13z"/><circle fill="#FFF" cx="105.97" cy="65.923" r="7.17"/><path fill="#4285F4" d="M106.198 70.235c-.41 0-.79-.16-1.08-.45l-3.05-3.05c-.53-.52-.53-1.38 0-1.9.53-.53 1.38-.53 1.9 0l2.09 2.09 5.93-8.18c.44-.6 1.28-.73 1.88-.3.6.44.74 1.28.3 1.88l-6.72 9.28c-.26.36-.67.59-1.12.63h-.13z"/><circle fill="#FFF" cx="105.97" cy="35.743" r="7.17"/><path fill="#4285F4" d="M106.198 40.055c-.41 0-.8-.16-1.09-.45l-3.05-3.05c-.52-.52-.52-1.38 0-1.9.53-.52 1.38-.52 1.9 0l2.09 2.09 5.93-8.18c.44-.6 1.28-.73 1.88-.3.6.44.74 1.28.3 1.88l-6.72 9.28c-.26.36-.67.6-1.12.63h-.12zM20.49 13.323v3.36h97.75v-2.1c0-4.12-3.34-7.46-7.46-7.46H26.69c-3.43 0-6.2 2.77-6.2 6.2z"/><path fill="#BEC3C8" d="M97.63 11.703v-7.02c0-2.74 2.36-4.93 5.15-4.66 2.43.24 4.21 2.43 4.21 4.87v2.23h-2.04v-2.44c0-1.63-1.48-2.92-3.16-2.59-1.25.24-2.11 1.41-2.11 2.69v6.92c0 .56-.46 1.02-1.02 1.02s-1.02-.46-1.03-1.02zM84.46 11.703v-7.02c0-2.74 2.36-4.93 5.15-4.66 2.43.24 4.21 2.43 4.21 4.87v2.23h-2.05v-2.44c0-1.63-1.48-2.92-3.16-2.59-1.25.24-2.11 1.41-2.11 2.69v6.92c0 .56-.46 1.02-1.02 1.02-.57 0-1.02-.46-1.02-1.02zM71.26 11.703v-7.02c0-2.74 2.36-4.93 5.15-4.66 2.43.24 4.21 2.43 4.21 4.87v2.23h-2.04v-2.44c0-1.63-1.48-2.92-3.16-2.59-1.25.24-2.11 1.41-2.11 2.69v6.92c0 .56-.46 1.02-1.02 1.02s-1.02-.46-1.03-1.02zM58.08 11.703v-7.02c0-2.74 2.36-4.93 5.15-4.66 2.43.24 4.21 2.43 4.21 4.87v2.23H65.4v-2.44c0-1.63-1.48-2.92-3.16-2.59-1.25.24-2.11 1.41-2.11 2.69v6.92c0 .56-.46 1.02-1.02 1.02s-1.02-.46-1.03-1.02zM44.9 11.703v-7.02c0-2.74 2.36-4.93 5.15-4.66 2.43.24 4.21 2.43 4.21 4.87v2.23h-2.04v-2.44c0-1.63-1.48-2.92-3.16-2.59-1.25.24-2.11 1.41-2.11 2.69v6.92c0 .56-.46 1.02-1.02 1.02-.57 0-1.03-.46-1.03-1.02z"/><path fill="#FFF" d="M44 92.703c0-.5.4-.9.9-.9h45.28c.5 0 .9.4.9.9s-.4.9-.9.9H44.9c-.49 0-.9-.4-.9-.9zM50.274 100.073c0-.5.4-.9.9-.9h38.81c.5 0 .9.4.9.9s-.4.9-.9.9h-38.8c-.5 0-.91-.4-.91-.9zM44 62.613c0-.5.4-.9.9-.9h45.28c.5 0 .9.4.9.9s-.4.9-.9.9H44.9c-.49 0-.9-.4-.9-.9zM64.642 69.983c0-.5.4-.9.9-.9h24.31c.5 0 .9.4.9.9s-.4.9-.9.9h-24.31c-.49 0-.9-.4-.9-.9zM44 32.523c0-.5.4-.9.9-.9h45.28c.5 0 .9.4.9.9s-.4.9-.9.9H44.9c-.49 0-.9-.4-.9-.9zM52.773 39.893c0-.5.4-.9.9-.9h35.92c.5 0 .9.4.9.9s-.4.9-.9.9h-35.92c-.49 0-.9-.4-.9-.9z"/><linearGradient id="b" gradientUnits="userSpaceOnUse" x1="753.2862" y1="357.6908" x2="439.4558" y2="-58.4102" gradientTransform="rotate(180 251.64175 17.1356)"><stop offset="0" style="stop-color:#202124"/><stop offset="1" style="stop-color:#202124;stop-opacity:0"/></linearGradient><path fill="url(#b)" d="M26.28 7.123v103.21c0 4.07 3.3 7.37 7.37 7.37h77.24c4.06 0 7.35-3.29 7.35-7.35v-15.43l-83.52-84.44-8.44-3.36z"/><path fill="#34A853" d="M36.87 23.353v51.64c-5.46-5.19-10.93-10.38-16.39-15.57-5.46 5.19-10.93 10.38-16.39 15.57v-51.64h32.78z"/><linearGradient id="c" gradientUnits="userSpaceOnUse" x1="511.6683" y1="41.4769" x2="466.153" y2="-22.5597" gradientTransform="rotate(180 251.64175 17.1356)"><stop offset="0" style="stop-color:#202124"/><stop offset="1" style="stop-color:#202124;stop-opacity:0"/></linearGradient><path fill="url(#c)" d="M36.88 30.703l-13.79-13.8-15.36 24.34 29.15 27.49z"/><path fill="#F9BA05" d="M40.98 25.203c0-11.32-9.17-20.49-20.49-20.49C9.17 4.713 0 13.883 0 25.203c0 11.32 9.17 20.49 20.49 20.49 11.31 0 20.49-9.18 20.49-20.49z"/><linearGradient id="d" gradientUnits="userSpaceOnUse" x1="509.3702" y1="44.8354" x2="471.8502" y2="-5.6588" gradientTransform="rotate(180 251.64175 17.1356)"><stop offset="0" style="stop-color:#F1F3F4"/><stop offset="1" style="stop-color:#F1F3F4;stop-opacity:0"/></linearGradient><path fill="url(#d)" d="M40.98 25.203c0-11.32-9.17-20.49-20.49-20.49C9.17 4.713 0 13.883 0 25.203c0 11.32 9.17 20.49 20.49 20.49 11.31 0 20.49-9.18 20.49-20.49z"/><circle fill="#F9BA05" cx="20.49" cy="25.203" r="16.22"/><circle fill="#FFF" cx="20.49" cy="25.203" r="16.78"/><circle fill="#F9BA05" cx="20.49" cy="25.203" r="16.22"/><linearGradient id="e" gradientUnits="userSpaceOnUse" x1="578.1477" y1="204.7251" x2="472.8868" y2="112.3773" gradientTransform="rotate(180 251.64175 73.1356)"><stop offset="0" style="stop-color:#202124"/><stop offset="1" style="stop-color:#202124;stop-opacity:0"/></linearGradient><circle fill="url(#e)" cx="20.49" cy="25.203" r="16.22"/><circle fill="#F9BA05" cx="20.49" cy="25.203" r="14.24"/><linearGradient id="f" gradientUnits="userSpaceOnUse" x1="498.3864" y1="140.6281" x2="476.082" y2="112.6498" gradientTransform="rotate(180 251.64175 73.1356)"><stop offset="0" style="stop-color:#F1F3F4"/><stop offset="1" style="stop-color:#F1F3F4;stop-opacity:0"/></linearGradient><circle fill="url(#f)" cx="20.49" cy="25.203" r="14.24"/><path fill="#FFF" d="M4.09 68.213l16.4-15.57 16.39 15.57v1.06l-16.39-15.57-16.4 15.57z"/></svg>