<svg xmlns="http://www.w3.org/2000/svg" width="24px" height="24px" viewBox="0 0 24 24">
<path fill-rule="evenodd" clip-rule="evenodd" fill="#EC928E" d="M12,21.5c5.25,0,9.5-4.25,9.5-9.5S17.25,2.5,12,2.5
S2.5,6.75,2.5,12S6.75,21.5,12,21.5z M12,24C5.37,24,0,18.63,0,12S5.37,0,12,0s12,5.37,12,12S18.63,24,12,24z"/>
<path fill="#E3E3E3" d="M13.15,11.62H11.3V9.31h1.85c0.63,0,1.15,0.52,1.15,1.15C14.31,11.1,13.79,11.62,13.15,11.62z M13.04,7H9v10
h2.31v-3.08h1.73c1.91,0,3.46-1.55,3.46-3.46S14.95,7,13.04,7z"/>
</svg>
