<svg width="280" height="156" fill="none" xmlns="http://www.w3.org/2000/svg"><path fill="#fff" d="M0 0h280v156H0z"/><linearGradient id="a" x1="178.872" y1="0" x2="288.269" y2="0" gradientUnits="userSpaceOnUse"><stop offset="0" style="stop-color:#e8eaed;stop-opacity:.5"/><stop offset="1" style="stop-color:#e8eaed;stop-opacity:0"/></linearGradient><linearGradient id="b" x1="94.15" y1="0" x2="-23.238" y2="0" gradientUnits="userSpaceOnUse"><stop offset="0" style="stop-color:#e8eaed;stop-opacity:.5"/><stop offset="1" style="stop-color:#e8eaed;stop-opacity:0"/></linearGradient><linearGradient id="c" x1="96.943" y1="0" x2="-12.534" y2="0" gradientUnits="userSpaceOnUse"><stop offset="0" style="stop-color:#e8eaed;stop-opacity:.5"/><stop offset="1" style="stop-color:#e8eaed;stop-opacity:0"/></linearGradient><linearGradient id="d" x1="48.813" y1="59.152" x2="64.71" y2="62.18" gradientUnits="userSpaceOnUse"><stop offset=".401" style="stop-color:#fff;stop-opacity:0"/><stop offset=".506" style="stop-color:#cddffc;stop-opacity:.1751"/><stop offset=".625" style="stop-color:#9cbff9;stop-opacity:.3747"/><stop offset=".738" style="stop-color:#75a6f7;stop-opacity:.5635"/><stop offset=".842" style="stop-color:#5994f5;stop-opacity:.7363"/><stop offset=".932" style="stop-color:#4889f4;stop-opacity:.8873"/><stop offset="1" style="stop-color:#4285f4"/></linearGradient><linearGradient id="e" x1="82.568" y1="66.118" x2="61.78" y2="61.508" gradientUnits="userSpaceOnUse"><stop offset="0" style="stop-color:#202124"/><stop offset="1" style="stop-color:#202124;stop-opacity:0"/></linearGradient><linearGradient id="f" x1="82.568" y1="66.118" x2="61.78" y2="61.508" gradientUnits="userSpaceOnUse"><stop offset="0" style="stop-color:#202124"/><stop offset="1" style="stop-color:#202124;stop-opacity:0"/></linearGradient><linearGradient id="g" x1="87.277" y1="70.055" x2="81.026" y2="68.451" gradientUnits="userSpaceOnUse"><stop offset="0" style="stop-color:#202124"/><stop offset="1" style="stop-color:#202124;stop-opacity:0"/></linearGradient><linearGradient id="h" x1="86.101" y1="66.864" x2="82.125" y2="65.934" gradientUnits="userSpaceOnUse"><stop offset="0" style="stop-color:#202124"/><stop offset="1" style="stop-color:#202124;stop-opacity:0"/></linearGradient><linearGradient id="i" x1="86.134" y1="72.927" x2="80.316" y2="71.251" gradientUnits="userSpaceOnUse"><stop offset="0" style="stop-color:#202124"/><stop offset="1" style="stop-color:#202124;stop-opacity:0"/></linearGradient><linearGradient id="k" x1="136.524" y1="67.655" x2="135.891" y2="106.035" gradientUnits="userSpaceOnUse"><stop offset="0" style="stop-color:#d6d6d6;stop-opacity:.5"/><stop offset=".295" style="stop-color:#dcdcdc;stop-opacity:.3523"/><stop offset=".671" style="stop-color:#ebebeb;stop-opacity:.1643"/><stop offset="1" style="stop-color:#fff;stop-opacity:0"/></linearGradient><radialGradient id="j" cx="0" cy="0" r="1" gradientUnits="userSpaceOnUse" gradientTransform="matrix(65.5529 0 0 65.5527 176.151 31.61)"><stop offset="0" style="stop-color:#fff;stop-opacity:.374"/><stop offset="1" style="stop-color:#fff;stop-opacity:0"/></radialGradient><path d="M245.953 54.478H202.08c-13.282 0-24.053 10.77-24.053 24.054 0 2.87.526 5.609 1.448 8.154l-5.843 9.848 12.621.084c4.232 3.707 9.757 5.967 15.821 5.967h43.873c13.283 0 24.053-10.77 24.053-24.053.007-13.283-10.764-24.053-24.047-24.053Z" fill="url(#a)"/><path d="M98.631 90.96c.186-.18.204-.463.04-.634-.164-.17-.448-.163-.634.016-.186.178-.204.462-.04.632.165.17.448.164.634-.015Z" fill="#fff"/><path d="M226.803 97.1061c-4.862 0-8.803-3.9407-8.803-8.8032v-.4999c0-4.8625 3.941-8.8032 8.803-8.8032 4.863 0 8.803 3.9407 8.803 8.8032v.4999c0 4.8625-3.94 8.8032-8.803 8.8032Z" fill="#34A853"/><path d="M217.321 73 200 63l-10 17.32 17.321 10 10-17.32Z" fill="#FBBC04"/><path d="m211.6 60 2.01 3.33m-2.61-.69 3.33-2.01M257 78.32l3.83-.69m-1.58 2.19-.69-3.82M193 92.2l3.87-.4m-1.74 2.07-.41-3.87" style="stroke:#4285f4;stroke-width:.9597;stroke-miterlimit:10;stroke-linecap:round"/><path d="m244.219 88.251-5.031-17.288c-.714-2.46.669-5.044 3.084-5.771 2.421-.727 4.966.675 5.68 3.135l5.032 17.289c.714 2.46-.669 5.044-3.084 5.771-2.422.727-4.96-.675-5.681-3.136Z" fill="#4285F4"/><path d="M232.73 75.86 218 67.868c5.025-2.954 10.043-5.914 15.068-8.868-.11 5.615-.227 11.237-.338 16.86Z" fill="#EA4335"/><path d="M29.035 101.044h49.71c3.7 0 7.14 1.071 10.062 2.902l10.517-2.902-4.505 8.868a18.928 18.928 0 0 1 2.96 10.166c0 10.511-8.524 19.035-19.035 19.035h-49.71c-10.51 0-19.034-8.524-19.034-19.035 0-10.51 8.524-19.034 19.035-19.034Z" fill="url(#b)"/><path d="M48.175 77.291h38.96c2.896 0 5.596-.84 7.885-2.272l8.239 2.272-3.531-6.956a14.81 14.81 0 0 0 2.321-7.967c0-8.24-6.675-14.916-14.915-14.916h-38.96c-8.239 0-14.915 6.676-14.915 14.916 0 8.247 6.676 14.923 14.916 14.923Z" fill="url(#c)"/><path d="m44.279 66.479 3.789.878m-2.314 1.392.879-3.79M85.15 53.21l2.01 3.33m-2.61-.69 3.33-2.01" style="stroke:#fbbc04;stroke-width:.9597;stroke-miterlimit:10;stroke-linecap:round"/><path d="M71 130c5.523 0 10-4.477 10-10s-4.477-10-10-10-10 4.477-10 10 4.477 10 10 10Z" fill="#EA4335"/><path d="m30 130.86 4.81-9.93 4.82-9.93 6.19 9.13 6.2 9.13-11.01.8-11.01.8Z" fill="#FBBC04"/><path d="m52 72.22 13.651-.733 14.627 2.486 2.555-11.602-8.966-2.25 2.362-6.53a1.423 1.423 0 0 0-2.517-1.283c-.93 1.373-2.892 4.054-4.928 5.49-1.258.884-2.313 2.152-2.718 3.291l-12.172-3.883L52 72.22Z" fill="url(#d)"/><path d="M74.43 52.227a.635.635 0 0 0-.906.136l-.977 1.38a.635.635 0 1 0 1.038.735l.977-1.38a.638.638 0 0 0-.131-.87Z" stroke="#fff" stroke-width=".3" stroke-miterlimit="10" fill="#4285F4"/><path d="M66.065 61.089s-.532 1.678-.13 2.923l-5.508-.883.593-3.703 5.045 1.663Z" fill="url(#e)"/><path d="M83.242 70.005c-.374 1.052-1.715 1.556-2.9 1.092L75.79 69.1a1.388 1.388 0 0 1 .897-2.62l4.974 1.063c1.223.298 1.947 1.426 1.58 2.46Z" fill="#4285F4"/><path d="M83.676 67.286c-.374 1.052-1.715 1.556-2.9 1.092l-4.552-1.996a1.388 1.388 0 0 1 .897-2.62l4.974 1.063c1.225.298 1.947 1.427 1.58 2.461Z" fill="#4285F4"/><path d="M84.112 64.567c-.373 1.052-1.715 1.556-2.9 1.092l-4.552-1.995a1.388 1.388 0 0 1 .897-2.62l4.974 1.062c1.223.3 1.947 1.429 1.58 2.461Zm-9.062 7.248 4.553 1.996c1.184.466 2.526-.04 2.899-1.092.009-.024.014-.049.02-.072l-2.452-1.596 2.135.021a2.31 2.31 0 0 0-1.283-.814l-4.975-1.063a1.389 1.389 0 0 0-.897 2.62Z" fill="#4285F4"/><path d="M82.502 72.721c-.373 1.052-1.715 1.556-2.9 1.092l-4.552-1.996a1.388 1.388 0 0 1 .897-2.62l4.974 1.063c1.223.3 1.947 1.428 1.58 2.461Z" fill="#4285F4"/><path d="M66.065 61.09s-.532 1.677-.13 2.923l-5.508-.883.593-3.703 5.045 1.662Z" fill="url(#f)"/><path d="M83.242 70.004c-.374 1.052-1.715 1.556-2.9 1.092L75.79 69.1a1.388 1.388 0 0 1 .897-2.62l4.974 1.063c1.223.298 1.947 1.426 1.58 2.46Z" fill="#4285F4"/><path d="m80.461 68.12 2.84 1.667c.118-.57-.077-1.15-.489-1.588l-.214-.059-2.137-.02Z" fill="url(#g)"/><path d="M83.676 67.287c-.374 1.051-1.715 1.556-2.9 1.092l-4.552-1.996a1.388 1.388 0 0 1 .897-2.62l4.974 1.062c1.225.299 1.947 1.427 1.58 2.462Z" fill="#4285F4"/><path d="M83.742 67.027c.098-.538-.08-1.078-.455-1.499l-2.135-.02 2.59 1.519Z" fill="url(#h)"/><path d="M84.112 64.567c-.373 1.052-1.715 1.556-2.9 1.092l-4.552-1.996a1.388 1.388 0 0 1 .897-2.62l4.974 1.063c1.223.3 1.947 1.428 1.58 2.461Zm-9.062 7.248 4.553 1.996c1.184.465 2.526-.04 2.899-1.092.009-.025.014-.05.02-.072l-2.452-1.596 2.135.021a2.31 2.31 0 0 0-1.283-.815l-4.975-1.062a1.389 1.389 0 0 0-.897 2.62Z" fill="#4285F4"/><path d="M82.523 72.65c.167-.552.035-1.122-.316-1.576l-2.135-.02 2.45 1.595Z" fill="url(#i)"/><path d="M164.251 75.4189h.676c.168 0 .298.1363.285.3116l-1.052 13.6268c-.013.1688-.162.3117-.331.3117h-.675l1.097-14.2501Zm1.046-13.458h.675c.169 0 .298.1364.285.3117l-.513 6.6413c-.013.1688-.162.3116-.331.3116h-.675l.559-7.2646Z" fill="#4285F4"/><path d="M160.362 32.007h-39.62c-4.279 0-8.031 3.48-8.362 7.758l-7.661 98.432c-.331 4.278 2.882 7.758 7.161 7.758h39.621c4.278 0 8.03-3.48 8.361-7.758l7.661-98.432c.331-4.279-2.882-7.758-7.161-7.758Z" fill="#4285F4"/><path d="M165.407 69.219a.338.338 0 0 0 .331-.312l.513-6.641a.287.287 0 0 0-.286-.312h-.162l1.72-22.196c.331-4.278-2.882-7.758-7.161-7.758h-39.62c-4.279 0-8.031 3.48-8.362 7.758l-7.661 98.432c-.331 4.279 2.882 7.758 7.161 7.758h39.621c4.278 0 8.03-3.479 8.361-7.758l3.798-48.534h.163a.338.338 0 0 0 .331-.312l1.051-13.626a.286.286 0 0 0-.285-.312h-.163l.481-6.2h.169v.013Z" fill="url(#j)"/><path d="M151.488 144.773h-39.115c-3.811 0-6.661-3.09-6.369-6.901l7.59-97.575c.292-3.811 3.622-6.901 7.44-6.901h39.114c3.811 0 6.661 3.09 6.369 6.9l-7.589 97.576c-.299 3.811-3.623 6.901-7.44 6.901Z" stroke="#fff" stroke-width=".459" stroke-miterlimit="10" stroke-linecap="round" fill="#4285F4"/><path d="M151.903 143.079h-39.504c-2.778 0-4.856-2.252-4.642-5.031l7.33-94.2c.201-2.629 2.499-4.758 5.129-4.758h40.049c2.629 0 4.596 2.129 4.388 4.758l-7.329 94.2c-.214 2.779-2.642 5.031-5.421 5.031Z" fill="#fff"/><path d="M147.32 104.614h-24.098c-3.376 0-5.967-2.733-5.791-6.109l1.227-23.397c.175-3.376 3.057-6.11 6.433-6.11h24.099c3.376 0 5.966 2.734 5.791 6.11l-1.227 23.397c-.176 3.376-3.058 6.109-6.434 6.109Z" fill="url(#k)"/><path d="M137.01 96.0124c-.006.2207.013.448.078.6752l.033.1104c.35 1.214 1.623 1.9151 2.837 1.558 1.214-.357 1.915-1.623 1.558-2.837l-.033-.1103c-.065-.2273-.175-.4285-.292-.6103l-4.181 1.214Zm9.635-6.493c-.013 0-.02 0-.033.0065-1.065.1298-2.071-.6492-2.395-1.7399l-1.487-5.1092c-1.013-3.4862-4.2-5.7065-7.492-5.4598a1.6242 1.6242 0 0 0 0-.8829c-.253-.857-1.149-1.3504-2.006-1.1037-.857.2532-1.35 1.1491-1.103 2.0061.084.2986.259.5518.474.7465-2.909 1.5581-4.402 5.1417-3.389 8.628l1.551 5.3364c.26 1.0323-.207 2.0905-1.123 2.5189-.643.2987-.967 1.0583-.753 1.7789l.032.1103 2.883-.8374 13.516-3.9407 2.883-.8375-.026-.0974c-.201-.7076-.851-1.214-1.532-1.1231Z" fill="#34A853"/><path d="m51.6 98 2.01 3.33m-2.61-.69 3.33-2.01M84 118.32l3.83-.69m-1.58 2.19-.69-3.82M22 109.2l3.87-.4m-1.74 2.07-.41-3.87" style="stroke:#34a853;stroke-width:.9597;stroke-miterlimit:10;stroke-linecap:round"/></svg>
