<?xml version="1.0" encoding="utf-8"?>
<!-- Generator: Adobe Illustrator 21.0.2, SVG Export Plug-In . SVG Version: 6.00 Build 0)  -->
<svg version="1.1" id="Capa_1" xmlns="http://www.w3.org/2000/svg" xmlns:xlink="http://www.w3.org/1999/xlink" x="0px" y="0px"
		width="33px" height="30px" viewBox="0 0 33 30" enable-background="new 0 0 33 30" xml:space="preserve">
<path fill="#34A853" d="M30.75,10.5c1.24,0,2.25-1.01,2.25-2.25S31.99,6,30.75,6S28.5,7.01,28.5,8.25S29.51,10.5,30.75,10.5z"/>
	<path fill="#EA4335" d="M24,18c2.49,0,4.5-2.01,4.5-4.5S26.49,9,24,9s-4.5,2.01-4.5,4.5S21.51,18,24,18z"/>
	<path fill="#FBBC04" d="M24,30c2.9,0,5.25-2.35,5.25-5.25S26.9,19.5,24,19.5s-5.25,2.35-5.25,5.25S21.1,30,24,30z"/>
	<path fill="#4285F4" d="M18,9c0-4.97-4.03-9-9-9S0,4.03,0,9s4.03,9,9,9S18,13.97,18,9z"/>
</svg>