<svg xmlns="http://www.w3.org/2000/svg" width="150" height="80"><linearGradient id="a" gradientUnits="userSpaceOnUse" x1="43.4749" y1="214.9944" x2="60.5151" y2="238.7843" gradientTransform="matrix(1 0 0 -1 0 300)"><stop offset="0" style="stop-color:#202124;stop-opacity:0"/><stop offset="1" style="stop-color:#3C4043"/></linearGradient><path fill="url(#a)" d="M59.721 67.455l-1.381-.027c1.639.476 2.583 1.248 2.54 2.093-.045.897-1.289 1.985-3.587 2.332l-8.008 1.43c-4.538.809-6.461 2.54-8.611 5.659-.074.107-.047.253.06.327.041.028.087.042.133.042.075 0 .148-.035.194-.102 2.077-3.012 3.931-4.684 8.306-5.464l8.002-1.428c2.315-.349 3.914-1.463 3.98-2.772.043-.82-.538-1.546-1.628-2.09z"/><linearGradient id="b" gradientUnits="userSpaceOnUse" x1="60.6628" y1="243.5278" x2="60.6628" y2="223.0751" gradientTransform="matrix(1 0 0 -1 0 300)"><stop offset="0" style="stop-color:#5F6368"/><stop offset="1" style="stop-color:#5F6368;stop-opacity:0"/></linearGradient><path fill-rule="evenodd" clip-rule="evenodd" fill="url(#b)" d="M1.865 77.966H119.46S88.018 69.314 63.863 67.66C34.033 65.617 1.865 77.966 1.865 77.966z"/><radialGradient id="c" cx="84.1071" cy="326.7838" r="52.8811" gradientTransform="matrix(1 0 0 -.6255 0 248.4164)" gradientUnits="userSpaceOnUse"><stop offset="0" style="stop-color:#5F6368"/><stop offset="1" style="stop-color:#5F6368;stop-opacity:0"/></radialGradient><path fill-rule="evenodd" clip-rule="evenodd" fill="url(#c)" d="M80.658 69.163c16.714-9.419 30.408-12.078 40.056-12.688 8.778-.555 26.999-.221 26.999-.221-.074 7.598-.147 15.196-.221 22.794-8.115-.295-16.229-.59-24.343-.885a606.8224 606.8224 0 00-22.868-5.237 606.4518 606.4518 0 00-19.623-3.763z"/><linearGradient id="d" gradientUnits="userSpaceOnUse" x1="73.6025" y1="255.828" x2="73.7465" y2="230.484" gradientTransform="matrix(1 0 0 -1 0 300)"><stop offset="0" style="stop-color:#5F6368"/><stop offset=".8918" style="stop-color:#5F6368;stop-opacity:0"/></linearGradient><path fill="url(#d)" d="M88.02 64.672v-8.824l-1.434-1.223V50.2c0-.064-.052-.116-.116-.116s-.116.052-.116.116v4.456l-1.298 1.198-5.596-3.841-.059-2.476c-.031-1.31-.791-2.493-1.969-3.067l-2.251-1.042V43.36c0-.41-.241-.781-.616-.948-.239-.106-.539-.299-.642-.539l-.108-.244v-4.34c0-.064-.052-.116-.116-.116s-.116.052-.116.116v4.339l-.108.244c-.103.24-.403.433-.642.539-.375.166-.616.538-.616.948v2.069l-2.251 1.042c-1.178.573-1.938 1.756-1.969 3.067l-.059 2.476-5.596 3.841-1.324-1.222v-4.691c0-.064-.052-.116-.116-.116s-.116.052-.116.116v4.705l-1.408 1.201v11.045s8.576.168 20.676 1.982c.002.001 4.289-2.546 7.966-4.202z"/><path fill="none" d="M77.191 48.075c-.767-.961-1.626-1.857-2.555-2.663h-.822v2.747h3.443l-.066-.084zM73.815 50.207h3.57v1.398h-3.57zM69.733 48.394h-1.512c-.135.361-.213.746-.222 1.144l-.01.435h1.745l-.001-1.579zM69.733 50.207h-1.75l-.033 1.399h1.783zM69.968 50.207h3.612v1.398h-3.612zM70.161 48.075l-.067.084h3.485v-2.747h-.864c-.928.806-1.787 1.701-2.554 2.663zM69.968 48.394h3.612v1.579h-3.612zM60.917 54.537l-1.27 1.084h2.445zM72.219 43.501h2.963v1.676h-2.963zM77.62 51.606h1.831l-.033-1.399H77.62zM77.62 49.972h1.793l-.01-.435c-.009-.398-.087-.783-.222-1.144h-1.56v1.579zM73.815 48.394h3.57v1.579h-3.57zM86.484 54.537l-1.175 1.084h2.445zM73.717 53.383c-.512 0-.928.416-.928.928v1.896h1.856v-1.896c0-.511-.417-.928-.928-.928zM68.624 53.852h.981v.235h-.981zM70.454 61.387h.981v.235h-.981z"/><path fill="none" d="M74.88 56.443h-2.327v-2.131c0-.641.522-1.163 1.163-1.163s1.163.522 1.163 1.163l.001 2.131zM76.292 57.612h.981v.235h-.981z"/><path fill="#202124" d="M75.182 43.36c0-.032-.004-.063-.007-.094h-2.949c-.003.032-.007.062-.007.094v.141h2.963v-.141zM62.346 55.852l-.002.002-.252-.233h-2.445l-.266.227v.009h2.965zM88.02 55.857v-.009l-.266-.227h-2.445l-.252.233-.004-.003v.006zM67.338 67.376l.235.021V53.538c0-.51.125-1.019.361-1.47.016-.03.017-.063.006-.093l-.001.038-.348.239c-.166.407-.254.846-.254 1.286l.001 13.838zM79.46 52.068c.236.452.361.96.361 1.47v15.3l.235.037V53.538c0-.442-.089-.883-.256-1.292l-.339-.233-.001-.05c-.015.033-.017.071 0 .105zM73.717 53.148c-.641 0-1.163.522-1.163 1.163v2.131h2.327v-2.131c-.001-.641-.523-1.163-1.164-1.163zm.928 3.059h-1.856v-1.896c0-.512.416-.928.928-.928s.928.416.928.928v1.896zM76.292 57.612h.981v.235h-.981zM68.624 53.852h.981v.235h-.981zM70.454 61.387h.981v.235h-.981zM79.451 51.606H77.62v-1.398h1.798l-.006-.235H77.62v-1.579h1.56c-.03-.08-.062-.158-.097-.235h-1.524l-.184-.231c-.721-.904-1.525-1.747-2.389-2.516h.196v-.235h-2.963v.235h.147c-.864.77-1.668 1.612-2.389 2.516l-.184.231h-1.476c-.035.077-.068.155-.097.235h1.512v1.579h-1.744l-.006.235h1.75v1.398H67.95l-.006.235h11.513l-.006-.235zm-5.636-6.194h.822c.929.806 1.789 1.701 2.555 2.663l.067.084h-3.443l-.001-2.747zm-.235 6.194h-3.612v-1.398h3.612v1.398zm0-1.634h-3.612v-1.579h3.612v1.579zm0-1.813h-3.485l.067-.084c.766-.961 1.626-1.857 2.555-2.663h.864l-.001 2.747zm3.805 3.447h-3.57v-1.398h3.57v1.398zm0-1.634h-3.57v-1.579h3.57v1.579z"/><linearGradient id="e" gradientUnits="userSpaceOnUse" x1="52.4217" y1="261.2924" x2="52.8537" y2="232.3484" gradientTransform="matrix(1 0 0 -1 0 300)"><stop offset="0" style="stop-color:#5F6368"/><stop offset="1" style="stop-color:#5F6368;stop-opacity:0"/></linearGradient><path fill="url(#e)" d="M56.596 57.554h-7.635v10.159c2.528-.17 5.079-.269 7.635-.278v-9.881z"/><linearGradient id="f" gradientUnits="userSpaceOnUse" x1="21.069" y1="221.3698" x2="21.069" y2="225.063" gradientTransform="matrix(1 0 0 -1 0 300)"><stop offset="0" style="stop-color:#202124;stop-opacity:0"/><stop offset="1" style="stop-color:#3C4043"/></linearGradient><path fill-rule="evenodd" clip-rule="evenodd" fill="url(#f)" d="M12.757 78.63S16 72.37 23.25 76.15c0 0 4.408-1.221 6.13 2.48H12.757z"/><linearGradient id="g" gradientUnits="userSpaceOnUse" x1="75.1378" y1="222.0338" x2="75.1378" y2="226.4014" gradientTransform="matrix(1 0 0 -1 0 300)"><stop offset="0" style="stop-color:#202124;stop-opacity:0"/><stop offset="1" style="stop-color:#3C4043"/></linearGradient><path fill-rule="evenodd" clip-rule="evenodd" fill="url(#g)" d="M57.441 77.966s4.055-7.129 12.211-2.684c0 0 2.383-2.039 5.063-.412 0 0 4.696-3.299 9.209.733 0 0 6.231-2.004 8.912 2.364H57.441z"/><linearGradient id="h" gradientUnits="userSpaceOnUse" x1="96.1978" y1="260.9419" x2="95.1898" y2="238.1899" gradientTransform="matrix(1 0 0 -1 0 300)"><stop offset="0" style="stop-color:#5F6368"/><stop offset="1" style="stop-color:#5F6368;stop-opacity:0"/></linearGradient><path fill="url(#h)" d="M99.877 54.124h-.044l.02-.014-4.453-3.045-4.473 3.059h-.03v9.906c3.13-1.375 6.126-2.511 8.979-3.449l.001-6.457z"/><linearGradient id="i" gradientUnits="userSpaceOnUse" x1="2282.9487" y1="197.7515" x2="2282.9487" y2="201.5991" gradientTransform="rotate(180 1206.6471 133.0588)"><stop offset="0" style="stop-color:#202124;stop-opacity:0"/><stop offset="1" style="stop-color:#3C4043"/></linearGradient><path fill-rule="evenodd" clip-rule="evenodd" fill="url(#i)" d="M148.043 68.366c-.916-.665-2.467-1.604-4.585-2.07-3.456-.762-6.283.204-7.413.664-.111-.277-.59-1.379-1.771-1.881-1.288-.548-2.886-.16-3.984.996-.466-.36-2.261-1.66-4.869-1.549-2.64.112-4.331 1.594-4.758 1.992-.531-.233-2.392-.971-4.647-.332-1.86.527-2.961 1.7-3.368 2.181l35.395-.001z"/><path fill="#636465" d="M32.4453 54.13207l.21249-.10035 1.82457 3.86365-.21249.10035zM37.2836 57.89654l1.82543-3.86365.21249.1004-1.82543 3.86364z"/><path fill="#5F6368" d="M32.765 57.683h6.307v6.209h-6.307z"/><path fill="none" d="M35.919.927c-2.189 0-3.874.526-5.155 1.239 1.305-.705 3.041-1.225 5.329-1.235-.06 0-.115-.004-.174-.004zM44.686 6.027s-.521-1.36-1.962-2.675c1.419 1.315 1.962 2.675 1.962 2.675z"/><path fill="#5F6368" d="M57.313 14.479c-.821-4.799-4.998-8.452-10.031-8.452h-2.596s-.543-1.36-1.962-2.675C41.398 2.142 39.292.973 36.092.931c-2.287.01-4.023.53-5.329 1.235-2.713 1.509-3.612 3.86-3.612 3.86h-2.596c-5.033 0-9.21 3.653-10.031 8.452-1.851 2.017-2.982 4.705-2.982 7.659 0 .369.019.733.054 1.093.373 1.972 1.125 5.039 2.779 8.467.191.396.384.774.581 1.14-.055-.26-.105-.508-.148-.739-.035-.36-.054-.724-.054-1.093-.004-.863.091-2.014.489-3.302.742-2.399 2.139-3.968 2.947-4.748.126-.823.64-3.484 2.982-5.634 2.904-2.666 6.425-2.536 7.088-2.498 0 0 1.928-4.174 7.939-4.174 5.597 0 7.442 4.142 7.442 4.142.662-.037 4.541-.136 7.445 2.53 2.342 2.151 2.448 4.437 2.574 5.259.808.78 2.612 2.724 3.354 5.123.398 1.287.492 2.439.489 3.302 0 .219-.009.435-.021.651 1.64-3.411 2.388-6.462 2.76-8.426.035-.36.054-.724.054-1.093-.001-2.952-1.132-5.641-2.983-7.658z"/><linearGradient id="j" gradientUnits="userSpaceOnUse" x1="36.3777" y1="331.6109" x2="35.9458" y2="281.0669" gradientTransform="matrix(1 0 0 -1 0 300)"><stop offset="0" style="stop-color:#9AA0A6"/><stop offset="1" style="stop-color:#FFFFFF;stop-opacity:0"/></linearGradient><path opacity=".5" fill="url(#j)" d="M57.313 14.479c-.821-4.799-4.998-8.452-10.031-8.452h-2.596s-.543-1.36-1.962-2.675C41.398 2.142 39.292.973 36.092.931c-2.287.01-4.023.53-5.329 1.235-2.713 1.509-3.612 3.86-3.612 3.86h-2.596c-5.033 0-9.21 3.653-10.031 8.452-1.851 2.017-2.982 4.705-2.982 7.659 0 .369.019.733.054 1.093.373 1.972 1.125 5.039 2.779 8.467.191.396.384.774.581 1.14-.055-.26-.105-.508-.148-.739-.035-.36-.054-.724-.054-1.093-.004-.863.091-2.014.489-3.302.742-2.399 2.139-3.968 2.947-4.748.126-.823.64-3.484 2.982-5.634 2.904-2.666 6.425-2.536 7.088-2.498 0 0 1.928-4.174 7.939-4.174 5.597 0 7.442 4.142 7.442 4.142.662-.037 4.541-.136 7.445 2.53 2.342 2.151 2.448 4.437 2.574 5.259.808.78 2.612 2.724 3.354 5.123.398 1.287.492 2.439.489 3.302 0 .219-.009.435-.021.651 1.64-3.411 2.388-6.462 2.76-8.426.035-.36.054-.724.054-1.093-.001-2.952-1.132-5.641-2.983-7.658z"/><path fill="#3C4043" d="M57.503 31.006c.004-.863-.091-2.014-.489-3.302-.742-2.399-2.546-4.343-3.354-5.123-.126-.823-.232-3.108-2.574-5.259-2.904-2.666-6.783-2.567-7.445-2.53 0 0-1.845-4.142-7.442-4.142-6.011 0-7.939 4.174-7.939 4.174-.662-.037-4.184-.168-7.088 2.498-2.342 2.151-2.856 4.812-2.982 5.634-.808.78-2.204 2.349-2.947 4.748-.398 1.287-.492 2.439-.489 3.302 0 .369.019.733.054 1.093.044.231.093.479.148.739.923 1.719 1.928 3.161 3.191 4.725.149-4.569 3.534-7.304 3.534-7.304.104-.714-.168-2.585 1.769-4.452 2.402-2.315 5.775-2.231 6.323-2.199 0 0 1.601-3.103 6.374-3.103s6.184 3.133 6.184 3.133c.547-.032 3.461-.146 5.862 2.169 1.937 1.867 1.963 3.561 2.067 4.275.669.677 2.222 2.655 2.836 4.738.33 1.118.407 2.118.405 2.866 0 .038-.002.075-.003.113 1.63-1.992 2.833-3.756 3.965-6.102.007-.014.013-.027.019-.041.012-.214.021-.431.021-.65z"/><path fill="#5F6368" d="M53.501 37.687c.003-.749-.075-1.749-.405-2.866-.614-2.083-2.168-4.061-2.836-4.738-.104-.714-.13-2.408-2.067-4.275-2.402-2.315-5.315-2.201-5.862-2.169 0 0-1.41-3.133-6.184-3.133s-6.374 3.103-6.374 3.103c-.547-.032-3.921-.116-6.323 2.199-1.937 1.867-1.665 3.738-1.769 4.452 0 0-3.385 2.734-3.534 7.304 1.781 2.204 4.076 4.653 7.381 8.475 1.691 1.955 4.16 4.844 7.131 8.454h6.518c2.971-3.609 5.44-6.499 7.131-8.454 3.188-3.686 5.435-6.095 7.189-8.239.001-.038.004-.075.004-.113z"/><linearGradient id="k" gradientUnits="userSpaceOnUse" x1="34.7895" y1="361.708" x2="35.8695" y2="258.028" gradientTransform="matrix(1 0 0 -1 0 300)"><stop offset="0" style="stop-color:#9AA0A6"/><stop offset="1" style="stop-color:#5F6368"/></linearGradient><path fill="url(#k)" d="M53.501 37.687c.003-.749-.075-1.749-.405-2.866-.614-2.083-2.168-4.061-2.836-4.738-.104-.714-.13-2.408-2.067-4.275-2.402-2.315-5.315-2.201-5.862-2.169 0 0-1.41-3.133-6.184-3.133s-6.374 3.103-6.374 3.103c-.547-.032-3.921-.116-6.323 2.199-1.937 1.867-1.665 3.738-1.769 4.452 0 0-3.385 2.734-3.534 7.304 1.781 2.204 4.076 4.653 7.381 8.475 1.691 1.955 4.16 4.844 7.131 8.454h6.518c2.971-3.609 5.44-6.499 7.131-8.454 3.188-3.686 5.435-6.095 7.189-8.239.001-.038.004-.075.004-.113z"/><path fill="#202124" d="M32.659 54.492h.122L14.56 14.289l-.036.192s-.006.005-.012.013c-.002.003-.058.064-.06.067l17.958 39.63.249.301zM39.178 54.492l.301-.364L57.404 14.58l-.09-.101s-.022-.131-.024-.14c0-.002-.002-.009-.004-.018L39.08 54.492h.098zM27.203 5.907c-.013.028-.025.056-.027.059-.004.008-.025.061-.025.061l-.146.001 7.298 48.464.217.001-7.317-48.586zM37.786 54.492h-.216l7.119-48.465.183.001zM38.843 57.644v.441c0 .363-.383.659-.853.659h-.09c-.46 0-.842-.289-.852-.644h-.23c-.01.355-.392.644-.853.644h-.09c-.471 0-.853-.296-.853-.659l-.002-.118h-.23v.118c0 .363-.383.659-.853.659h-.09c-.471 0-.853-.296-.853-.659v-.404h-.23v.404c0 .493.486.894 1.083.894h.09c.424 0 .791-.202.969-.495.178.293.546.495.969.495h.09c.425 0 .79-.197.967-.489.177.292.542.489.967.489h.09c.597 0 1.083-.401 1.083-.894v-.441h-.229z"/><path fill="none" d="M34.874 57.635h-.002"/><path fill="#636465" d="M35.773 54.492h.235v3.191h-.235z"/><path fill="#3C4043" d="M100.88935 34.73726l.12659-.0598 1.08996 2.30752-.12659.0598zM103.76315 36.98978l1.09072-2.30727.12657.05984-1.09072 2.30726z"/><path fill="#5F6368" d="M101.078 36.865h3.766v3.707h-3.766z"/><path fill="none" d="M102.961 2.975c-1.307 0-2.313.314-3.078.74.779-.421 1.816-.731 3.181-.737-.034-.001-.067-.003-.103-.003zM108.196 6.02s-.311-.812-1.172-1.597c.848.785 1.172 1.597 1.172 1.597z"/><path fill="#5F6368" d="M107.025 4.423c-.792-.722-2.049-1.421-3.96-1.446-1.365.006-2.402.317-3.181.737-1.62.901-2.157 2.305-2.157 2.305h10.47c-.001.001-.325-.811-1.172-1.596zM115.736 11.067c-.49-2.865-2.984-5.047-5.99-5.047H96.176c-3.005 0-5.499 2.181-5.99 5.047-1.105 1.204-1.78 2.81-1.78 4.573 0 .22.011.438.032.653.223 1.177.672 3.009 1.659 5.056.114.236.229.462.347.681-.033-.155-.062-.303-.088-.441-.02-.215-.032-.432-.032-.653-.002-.515.054-1.203.292-1.972.443-1.432 1.277-2.37 1.76-2.835.075-.491.382-2.08 1.781-3.364 1.734-1.592 3.837-1.514 4.232-1.492 0 0 1.151-2.492 4.741-2.492 3.342 0 4.444 2.473 4.444 2.473.395-.022 2.711-.081 4.445 1.511 1.398 1.284 1.462 2.649 1.537 3.14.483.466 1.56 1.627 2.003 3.059.238.769.294 1.457.292 1.972 0 .131-.005.26-.013.389.979-2.037 1.426-3.858 1.648-5.031.02-.215.032-.432.032-.653-.001-1.764-.676-3.37-1.782-4.574z"/><linearGradient id="l" gradientUnits="userSpaceOnUse" x1="102.9273" y1="281.7584" x2="103.0208" y2="288.9518" gradientTransform="matrix(1 0 0 -1 0 300)"><stop offset="0" style="stop-color:#202124"/><stop offset="1" style="stop-color:#202124;stop-opacity:0"/></linearGradient><path opacity=".3" fill="url(#l)" d="M115.736 11.067c-.49-2.865-2.984-5.047-5.99-5.047H96.176c-3.005 0-5.499 2.181-5.99 5.047-1.105 1.204-1.78 2.81-1.78 4.573 0 .22.011.438.032.653.223 1.177.672 3.009 1.659 5.056.114.236.229.462.347.681-.033-.155-.062-.303-.088-.441-.02-.215-.032-.432-.032-.653-.002-.515.054-1.203.292-1.972.443-1.432 1.277-2.37 1.76-2.835.075-.491.382-2.08 1.781-3.364 1.734-1.592 3.837-1.514 4.232-1.492 0 0 1.151-2.492 4.741-2.492 3.342 0 4.444 2.473 4.444 2.473.395-.022 2.711-.081 4.445 1.511 1.398 1.284 1.462 2.649 1.537 3.14.483.466 1.56 1.627 2.003 3.059.238.769.294 1.457.292 1.972 0 .131-.005.26-.013.389.979-2.037 1.426-3.858 1.648-5.031.02-.215.032-.432.032-.653-.001-1.764-.676-3.37-1.782-4.574z"/><path fill="#3C4043" d="M115.558 18.964c-.443-1.432-1.52-2.594-2.003-3.059-.075-.491-.139-1.856-1.537-3.14-1.734-1.592-4.05-1.533-4.445-1.511 0 0-1.102-2.473-4.444-2.473-3.589 0-4.741 2.492-4.741 2.492-.395-.022-2.498-.1-4.232 1.492-1.398 1.284-1.705 2.873-1.781 3.364-.483.466-1.316 1.403-1.759 2.835-.238.769-.294 1.457-.292 1.972 0 .22.011.438.032.653.026.138.056.286.088.441.551 1.027 1.152 1.889 1.907 2.823.088-2.729 2.109-4.363 2.109-4.363.016-.106.017-.256.029-.438.009-.136.023-.291.053-.46.02-.112.047-.231.084-.354.056-.185.134-.38.246-.581.111-.201.256-.408.442-.617.062-.069.129-.139.202-.209.179-.173.368-.323.561-.454.289-.196.589-.349.885-.467.197-.079.392-.142.58-.193.471-.128.902-.178 1.224-.196.129-.007.24-.009.329-.009.089.001.156.003.197.006 0 0 .956-1.853 3.806-1.853s3.692 1.871 3.692 1.871c.184-.011.815-.037 1.587.188.086.025.173.053.262.085.178.063.361.14.546.234.185.094.372.204.557.335.093.065.185.135.277.211.091.075.182.156.272.243.217.209.394.414.538.613.096.132.178.262.248.387s.128.247.176.363c.096.233.154.446.191.633.019.093.032.18.043.258.011.079.019.15.027.212.004.031.008.06.011.087.025.025.052.054.081.085.144.156.333.383.534.66.04.055.081.113.121.172.082.118.164.244.245.376.284.46.552.992.712 1.537.049.167.089.329.121.486.032.157.056.308.074.452.036.289.047.55.046.773 0 .023-.001.045-.002.067.973-1.19 1.692-2.243 2.367-3.643l.012-.024c.008-.129.013-.258.013-.389.003-.516-.054-1.204-.291-1.973z"/><path fill="#3C4043" d="M113.46 24.925c.001-.224-.01-.485-.046-.773.035.288.047.549.046.773zM111.605 20.469c.144.156.333.383.534.66-.2-.277-.39-.504-.534-.66zM108.639 16.809c.178.063.361.14.546.234-.186-.094-.369-.171-.546-.234zM94.872 18.657c.111-.201.256-.408.442-.617-.187.209-.331.416-.442.617zM96.077 17.377c-.193.131-.381.281-.561.454-.072.07-.14.139-.202.209.062-.069.129-.139.202-.209.179-.172.368-.323.561-.454zM109.184 17.043c.185.094.372.204.557.335-.185-.13-.372-.241-.557-.335zM94.46 20.49c.016-.106.017-.256.029-.438-.012.182-.014.331-.029.438 0 0-2.02 1.634-2.109 4.363.089-2.729 2.109-4.363 2.109-4.363zM110.828 18.444c-.144-.199-.321-.404-.538-.613-.09-.086-.181-.167-.272-.243.091.075.182.156.272.243.217.209.394.415.538.613zM103.098 14.665c2.85 0 3.692 1.871 3.692 1.871.184-.011.815-.037 1.587.188-.772-.225-1.403-.199-1.587-.188 0 0-.842-1.871-3.692-1.871s-3.806 1.853-3.806 1.853c-.041-.002-.108-.005-.197-.006.089.001.156.003.197.006 0 0 .955-1.853 3.806-1.853z"/><path fill="#EAEAEA" d="M96.961 16.91c.197-.079.392-.142.58-.193-.188.051-.383.115-.58.193z"/><linearGradient id="m" gradientUnits="userSpaceOnUse" x1="97.2515" y1="196.3107" x2="97.2515" y2="279.9914" gradientTransform="matrix(1 0 0 -1 0 300)"><stop offset="0" style="stop-color:#202124"/><stop offset="1" style="stop-color:#202124;stop-opacity:0"/></linearGradient><path fill="url(#m)" d="M96.961 16.91c.197-.079.392-.142.58-.193-.188.051-.383.115-.58.193z"/><path fill="#EAEAEA" d="M94.542 19.592c.02-.112.047-.231.084-.354-.037.123-.064.242-.084.354z"/><linearGradient id="n" gradientUnits="userSpaceOnUse" x1="94.5841" y1="196.3107" x2="94.5841" y2="279.9914" gradientTransform="matrix(1 0 0 -1 0 300)"><stop offset="0" style="stop-color:#202124"/><stop offset="1" style="stop-color:#202124;stop-opacity:0"/></linearGradient><path fill="url(#n)" d="M94.542 19.592c.02-.112.047-.231.084-.354-.037.123-.064.242-.084.354z"/><path fill="#EAEAEA" d="M97.542 16.717c.471-.128.902-.178 1.224-.196-.322.018-.753.068-1.224.196z"/><linearGradient id="o" gradientUnits="userSpaceOnUse" x1="98.1537" y1="196.3107" x2="98.1537" y2="279.9914" gradientTransform="matrix(1 0 0 -1 0 300)"><stop offset="0" style="stop-color:#202124"/><stop offset="1" style="stop-color:#202124;stop-opacity:0"/></linearGradient><path fill="url(#o)" d="M97.542 16.717c.471-.128.902-.178 1.224-.196-.322.018-.753.068-1.224.196z"/><path fill="#EAEAEA" d="M113.339 23.7c-.032-.157-.072-.319-.121-.486-.16-.544-.428-1.076-.712-1.537.284.46.552.993.712 1.537.05.166.089.329.121.486z"/><linearGradient id="p" gradientUnits="userSpaceOnUse" x1="112.9227" y1="196.3107" x2="112.9227" y2="279.9914" gradientTransform="matrix(1 0 0 -1 0 300)"><stop offset="0" style="stop-color:#202124"/><stop offset="1" style="stop-color:#202124;stop-opacity:0"/></linearGradient><path fill="url(#p)" d="M113.339 23.7c-.032-.157-.072-.319-.121-.486-.16-.544-.428-1.076-.712-1.537.284.46.552.993.712 1.537.05.166.089.329.121.486z"/><path fill="#EAEAEA" d="M113.46 24.925c0 .023-.001.045-.002.067 0-.023.002-.045.002-.067z"/><linearGradient id="q" gradientUnits="userSpaceOnUse" x1="113.4589" y1="196.3107" x2="113.4589" y2="279.9914" gradientTransform="matrix(1 0 0 -1 0 300)"><stop offset="0" style="stop-color:#202124"/><stop offset="1" style="stop-color:#202124;stop-opacity:0"/></linearGradient><path fill="url(#q)" d="M113.46 24.925c0 .023-.001.045-.002.067 0-.023.002-.045.002-.067z"/><path fill="#EAEAEA" d="M112.261 21.301c.082.118.164.244.245.376-.081-.132-.164-.257-.245-.376z"/><linearGradient id="r" gradientUnits="userSpaceOnUse" x1="112.3833" y1="196.3107" x2="112.3833" y2="279.9914" gradientTransform="matrix(1 0 0 -1 0 300)"><stop offset="0" style="stop-color:#202124"/><stop offset="1" style="stop-color:#202124;stop-opacity:0"/></linearGradient><path fill="url(#r)" d="M112.261 21.301c.082.118.164.244.245.376-.081-.132-.164-.257-.245-.376z"/><path fill="#EAEAEA" d="M111.444 19.828c.019.093.032.18.043.258a4.9458 4.9458 0 00-.043-.258z"/><linearGradient id="s" gradientUnits="userSpaceOnUse" x1="111.4653" y1="196.3107" x2="111.4653" y2="279.9914" gradientTransform="matrix(1 0 0 -1 0 300)"><stop offset="0" style="stop-color:#202124"/><stop offset="1" style="stop-color:#202124;stop-opacity:0"/></linearGradient><path fill="url(#s)" d="M111.444 19.828c.019.093.032.18.043.258a4.9458 4.9458 0 00-.043-.258z"/><path fill="#EAEAEA" d="M111.253 19.195c.096.233.154.446.191.633-.038-.187-.095-.4-.191-.633z"/><linearGradient id="t" gradientUnits="userSpaceOnUse" x1="111.3481" y1="196.3107" x2="111.3481" y2="279.9914" gradientTransform="matrix(1 0 0 -1 0 300)"><stop offset="0" style="stop-color:#202124"/><stop offset="1" style="stop-color:#202124;stop-opacity:0"/></linearGradient><path fill="url(#t)" d="M111.253 19.195c.096.233.154.446.191.633-.038-.187-.095-.4-.191-.633z"/><path fill="#EAEAEA" d="M111.487 20.086c.011.079.019.15.027.212-.008-.063-.016-.134-.027-.212z"/><linearGradient id="u" gradientUnits="userSpaceOnUse" x1="111.4999" y1="196.3107" x2="111.4999" y2="279.9914" gradientTransform="matrix(1 0 0 -1 0 300)"><stop offset="0" style="stop-color:#202124"/><stop offset="1" style="stop-color:#202124;stop-opacity:0"/></linearGradient><path fill="url(#u)" d="M111.487 20.086c.011.079.019.15.027.212-.008-.063-.016-.134-.027-.212z"/><path fill="#EAEAEA" d="M111.077 18.832c.07.125.128.247.176.363-.049-.117-.107-.238-.176-.363z"/><linearGradient id="v" gradientUnits="userSpaceOnUse" x1="111.1645" y1="196.3107" x2="111.1645" y2="279.9914" gradientTransform="matrix(1 0 0 -1 0 300)"><stop offset="0" style="stop-color:#202124"/><stop offset="1" style="stop-color:#202124;stop-opacity:0"/></linearGradient><path fill="url(#v)" d="M111.077 18.832c.07.125.128.247.176.363-.049-.117-.107-.238-.176-.363z"/><path fill="#3C4043" d="M113.413 24.152c-.018-.144-.042-.295-.074-.452-.032-.157-.072-.319-.121-.486-.16-.544-.428-1.076-.712-1.537-.081-.132-.164-.257-.245-.376-.041-.059-.081-.117-.121-.172-.201-.277-.39-.504-.534-.66-.029-.031-.056-.059-.081-.085-.004-.027-.008-.056-.011-.087-.008-.062-.016-.133-.027-.212-.011-.079-.024-.165-.043-.258-.037-.186-.095-.4-.191-.633-.048-.117-.106-.238-.176-.363-.07-.125-.152-.255-.248-.387-.144-.199-.321-.404-.538-.613-.09-.086-.181-.167-.272-.243s-.184-.146-.277-.211c-.185-.13-.372-.241-.557-.335a4.5727 4.5727 0 00-.546-.234c-.089-.032-.176-.06-.262-.085-.772-.225-1.403-.199-1.587-.188 0 0-.842-1.871-3.692-1.871s-3.806 1.853-3.806 1.853c-.041-.002-.108-.005-.197-.006-.089-.001-.2.001-.329.009-.322.018-.752.068-1.224.196-.188.051-.383.115-.58.193-.295.118-.595.271-.885.467-.193.131-.381.281-.561.454-.072.07-.14.139-.202.209-.187.209-.331.416-.442.617-.111.201-.19.396-.246.581-.037.123-.065.241-.084.354-.03.168-.045.323-.053.46-.012.182-.013.332-.029.438 0 0-2.02 1.634-2.109 4.363 1.063 1.315 2.433 2.778 4.406 5.058 1.01 1.167 2.484 2.893 4.258 5.048h3.892c1.774-2.155 3.248-3.88 4.258-5.048 1.904-2.201 3.245-3.639 4.293-4.92 0-.022.002-.045.002-.067.001-.222-.011-.483-.047-.771z"/><linearGradient id="w" gradientUnits="userSpaceOnUse" x1="102.9052" y1="196.3107" x2="102.9052" y2="279.9914" gradientTransform="matrix(1 0 0 -1 0 300)"><stop offset="0" style="stop-color:#9AA0A6"/><stop offset="1" style="stop-color:#5F6368"/></linearGradient><path fill="url(#w)" d="M113.413 24.152c-.018-.144-.042-.295-.074-.452-.032-.157-.072-.319-.121-.486-.16-.544-.428-1.076-.712-1.537-.081-.132-.164-.257-.245-.376-.041-.059-.081-.117-.121-.172-.201-.277-.39-.504-.534-.66-.029-.031-.056-.059-.081-.085-.004-.027-.008-.056-.011-.087-.008-.062-.016-.133-.027-.212-.011-.079-.024-.165-.043-.258-.037-.186-.095-.4-.191-.633-.048-.117-.106-.238-.176-.363-.07-.125-.152-.255-.248-.387-.144-.199-.321-.404-.538-.613-.09-.086-.181-.167-.272-.243s-.184-.146-.277-.211c-.185-.13-.372-.241-.557-.335a4.5727 4.5727 0 00-.546-.234c-.089-.032-.176-.06-.262-.085-.772-.225-1.403-.199-1.587-.188 0 0-.842-1.871-3.692-1.871s-3.806 1.853-3.806 1.853c-.041-.002-.108-.005-.197-.006-.089-.001-.2.001-.329.009-.322.018-.752.068-1.224.196-.188.051-.383.115-.58.193-.295.118-.595.271-.885.467-.193.131-.381.281-.561.454-.072.07-.14.139-.202.209-.187.209-.331.416-.442.617-.111.201-.19.396-.246.581-.037.123-.065.241-.084.354-.03.168-.045.323-.053.46-.012.182-.013.332-.029.438 0 0-2.02 1.634-2.109 4.363 1.063 1.315 2.433 2.778 4.406 5.058 1.01 1.167 2.484 2.893 4.258 5.048h3.892c1.774-2.155 3.248-3.88 4.258-5.048 1.904-2.201 3.245-3.639 4.293-4.92 0-.022.002-.045.002-.067.001-.222-.011-.483-.047-.771z"/><path fill="#202124" d="M90.222 10.881c-.009.044-.02.1-.021.104-.002.007-.015.082-.015.082l-.076.085 10.651 23.5.254.308h.121L90.222 10.881zM115.736 11.067l-.03-.163-10.905 24.055h.106l.284-.342 10.63-23.453zM97.79 5.879c-.006.014-.014.03-.017.036-.011.022-.047.105-.047.105h-.131l4.359 28.939.216.001-4.38-29.081zM108.196 6.02s-.039-.089-.043-.098c-.001-.002-.006-.013-.01-.022L103.9 34.957l.218.003 4.223-28.94h-.145zM104.707 36.842v.263c0 .217-.229.393-.509.393h-.054c-.275 0-.503-.173-.509-.385h-.137c-.006.212-.234.385-.509.385h-.054c-.281 0-.509-.177-.509-.393l-.001-.07h-.137v.07c0 .217-.229.393-.509.393h-.054c-.281 0-.509-.177-.509-.393v-.241h-.137v.241c0 .294.29.534.647.534h.054c.253 0 .472-.121.579-.296.106.175.326.296.579.296h.054c.254 0 .472-.118.578-.292.106.174.324.292.577.292h.054c.356 0 .647-.239.647-.534v-.263h-.141z"/><path fill="none" d="M102.338 36.836h-.002"/><path fill="#3C4043" d="M102.875 34.969h.14v1.896h-.14z"/><linearGradient id="x" gradientUnits="userSpaceOnUse" x1="119.4443" y1="263.5322" x2="119.4443" y2="246.6797" gradientTransform="matrix(1 0 0 -1 0 300)"><stop offset="0" style="stop-color:#5F6368"/><stop offset="1" style="stop-color:#5F6368;stop-opacity:0"/></linearGradient><path fill="url(#x)" d="M124.331 36.132c-.188-1.096-1.141-1.931-2.291-1.931h-.593s-.12-.309-.447-.609c-.303-.282-.781-.555-1.501-.555-.008 0-.014.001-.022.001-.011 0-.021-.002-.033-.002-.5 0-.884.121-1.177.283-.638.345-.825.881-.825.881h-.593c-1.15 0-2.103.834-2.291 1.931-.423.461-.681 1.075-.681 1.749 0 .084.004.167.012.25.085.45.257 1.151.635 1.934.536 1.112 1.143 1.651 2.547 3.275.382.442.939 1.094 1.608 1.906l.356.755h-.311V47.418h1.441v-1.427h-.052V46h-.275l.344-.729h.007c.679-.824 1.242-1.484 1.629-1.931 1.405-1.624 2.011-2.163 2.547-3.275.378-.783.55-1.483.635-1.934.008-.082.012-.166.012-.25 0-.675-.258-1.289-.681-1.749zm-4.554 9.867h-.683l-.344-.729h.66v.729h.054v-.729h.657l-.344.729z"/></svg>