<?xml version="1.0" encoding="utf-8"?>
<!-- Generator: Adobe Illustrator 21.1.0, SVG Export Plug-In . SVG Version: 6.00 Build 0)  -->
<svg version="1.1" id="Layer_1" xmlns="http://www.w3.org/2000/svg" xmlns:xlink="http://www.w3.org/1999/xlink" x="0px" y="0px"
	 width="120px" height="120px" viewBox="0 0 120 120" enable-background="new 0 0 120 120" xml:space="preserve">
<path fill="#E0E1E5" d="M16.22,39.59l-0.09-0.03c-0.37-0.12-0.75,0.15-0.75,0.55l0,14.38c0,0.51-0.34,0.99-0.85,1.09
	c-0.7,0.15-1.32-0.38-1.32-1.06l-0.33-15.06c-0.01-0.42-0.35-0.74-0.77-0.73h0c-0.4,0.01-0.72,0.33-0.73,0.73l-0.33,15.03
	c0,0.51-0.34,0.99-0.85,1.09c-0.7,0.15-1.32-0.38-1.32-1.06V40.19c0-0.43-0.45-0.71-0.83-0.51h0c-0.16,0.08-0.27,0.23-0.3,0.4
	C4.82,54.51,3.82,56.66,8.41,61.54c1.42,1.51,1.81,2.14,1.92,4.19L9.75,95.27c-0.02,1.3,1.03,2.37,2.33,2.37h0
	c1.3,0,2.35-1.06,2.33-2.36l-0.42-29.64c0.11-2.04,0.48-2.66,1.84-4.15c4.38-4.83,3.46-7.02,0.76-21.45
	C16.56,39.83,16.42,39.66,16.22,39.59z"/>
<path fill="#E0E1E5" d="M113.72,69.47c0.09-1.65,0.05-22.02,0.04-29.83c0-1.62-1.41-2.87-3.01-2.7c-1.11,0.12-2.02,0.94-2.25,2.04
	c-0.41,1.97-1.02,4.82-1.04,4.93c-2.92,14.43-3.92,16.58,0.66,21.46c1.42,1.51,1.81,2.14,1.92,4.19l-0.57,25.71
	c-0.02,1.3,1.03,2.37,2.33,2.37h0c1.3,0,2.35-1.06,2.33-2.36L113.72,69.47z"/>
<ellipse transform="matrix(0.9001 -0.4357 0.4357 0.9001 -20.6864 32.6981)" fill="#E0E1E5" cx="60.96" cy="61.46" rx="39.96" ry="39.96"/>
<path opacity="0.4" fill="#C6C6C6" d="M92.35,46.27c-8.39-17.34-29.25-24.59-46.58-16.2c-4.95,2.4-9.08,5.81-12.26,9.87
	c1.93-1.51,4.04-2.84,6.33-3.95c17.34-8.39,38.19-1.14,46.58,16.2c5.99,12.38,4,26.56-3.94,36.71
	C95.13,79.01,99.63,61.31,92.35,46.27z"/>
<path fill="#FFFFFF" d="M76.53,55.67c-1.13,0-2.26-0.19-3.35-0.57c-2.57-0.89-4.63-2.73-5.82-5.18c-2.45-5.05-0.32-11.15,4.73-13.6
	c2.45-1.18,5.21-1.34,7.78-0.45c2.57,0.89,4.63,2.73,5.82,5.18c1.18,2.45,1.35,5.21,0.45,7.78c-0.89,2.57-2.73,4.63-5.18,5.82
	C79.56,55.33,78.05,55.67,76.53,55.67z M76.52,36.83c-1.29,0-2.57,0.29-3.77,0.87c-4.3,2.08-6.1,7.27-4.02,11.57
	c1.01,2.08,2.77,3.65,4.95,4.41c2.18,0.76,4.53,0.62,6.62-0.38l0,0c2.08-1.01,3.65-2.77,4.41-4.95c0.76-2.18,0.62-4.53-0.38-6.62
	c-1.01-2.08-2.77-3.65-4.95-4.41C78.44,36.99,77.48,36.83,76.52,36.83z"/>
<path fill="#FFFFFF" d="M56.41,98.19c-1.13,0-2.26-0.19-3.35-0.57c-2.57-0.89-4.63-2.73-5.82-5.18c-1.18-2.45-1.34-5.21-0.45-7.78
	c0.89-2.57,2.73-4.63,5.18-5.82c2.45-1.18,5.21-1.35,7.78-0.45c2.57,0.89,4.63,2.73,5.82,5.18c1.18,2.45,1.34,5.21,0.45,7.78
	c-0.89,2.57-2.73,4.63-5.18,5.82l0,0C59.44,97.85,57.93,98.19,56.41,98.19z M56.4,79.34c-1.29,0-2.57,0.29-3.77,0.87
	c-2.08,1.01-3.65,2.77-4.41,4.95c-0.76,2.18-0.62,4.53,0.38,6.62c1.01,2.08,2.77,3.65,4.95,4.41c2.18,0.76,4.53,0.62,6.62-0.38
	c2.08-1.01,3.65-2.77,4.41-4.95c0.76-2.18,0.62-4.53-0.38-6.62c-1.01-2.08-2.77-3.65-4.95-4.41C58.32,79.5,57.36,79.34,56.4,79.34z"
	/>
<ellipse transform="matrix(0.9001 -0.4357 0.4357 0.9001 -18.1189 21.4326)" fill="#24893D" cx="37.68" cy="50.23" rx="11.09" ry="11.09"/>
<ellipse transform="matrix(0.3635 -0.9316 0.9316 0.3635 -24.3348 129.9068)" fill="#24893D" cx="82.9" cy="82.76" rx="6.29" ry="6.29"/>
<ellipse transform="matrix(0.5491 -0.8357 0.8357 0.5491 0.6946 74.6934)" fill="#24893D" cx="69.57" cy="36.7" rx="8.05" ry="8.05"/>
<ellipse transform="matrix(0.5491 -0.8357 0.8357 0.5491 -42.4051 67.6003)" fill="#24893D" cx="41.45" cy="73.1" rx="8.51" ry="8.51"/>
<path fill="#34A753" d="M57.44,58.85c-0.7-6.34-6.4-10.91-12.73-10.22c-3.33,0.36-6.16,2.12-8,4.61c-0.93-0.22-1.91-0.29-2.91-0.18
	c-4.75,0.52-8.18,4.8-7.66,9.55c0.52,4.75,4.8,8.18,9.55,7.66c1.17-0.13,2.27-0.49,3.24-1.03c2.28,1.76,5.21,2.68,8.3,2.34
	C53.56,70.89,58.13,65.19,57.44,58.85z"/>
<path fill="#58C372" d="M33.96,62.43c-0.32,0-0.58-0.25-0.59-0.57c-0.01-0.33,0.25-0.6,0.57-0.61l25.88-0.81
	c0.32-0.01,0.6,0.25,0.61,0.57c0.01,0.33-0.25,0.6-0.57,0.61l-25.88,0.81C33.97,62.43,33.96,62.43,33.96,62.43z"/>
<path fill="#34A753" d="M74.71,42c-1.48-3.06-4.14-5.16-7.17-6.04c-0.11-0.93-0.37-1.86-0.8-2.76c-2.08-4.3-7.26-6.11-11.57-4.02
	c-4.3,2.08-6.11,7.26-4.02,11.57c0.54,1.11,1.29,2.05,2.17,2.81c-0.86,2.71-0.73,5.74,0.61,8.51c2.78,5.74,9.68,8.14,15.42,5.36
	C75.08,54.64,77.49,47.74,74.71,42z"/>
<path fill="#58C372" d="M76.73,60.36l-8.59-11.07l0.52-7.3c0.02-0.33-0.22-0.61-0.55-0.63c-0.33-0.02-0.61,0.22-0.63,0.55
	l-0.43,5.98l-3.39-4.37l0.46-6.5c0.02-0.33-0.22-0.61-0.55-0.63c-0.32-0.02-0.61,0.22-0.63,0.55l-0.37,5.18l-4.46-5.74
	c-0.2-0.26-0.57-0.31-0.83-0.1c-0.26,0.2-0.31,0.57-0.1,0.83l4.7,6.05l-5.6-0.4c-0.32-0.02-0.61,0.22-0.63,0.55
	c-0.02,0.33,0.22,0.61,0.55,0.63l6.66,0.47l3.43,4.41l-6.22-0.44c-0.32-0.02-0.61,0.22-0.63,0.55c-0.02,0.33,0.22,0.61,0.55,0.63
	l7.28,0.52l8.54,11c0.12,0.15,0.29,0.23,0.47,0.23c0.13,0,0.26-0.04,0.36-0.12C76.89,60.99,76.93,60.62,76.73,60.36z"/>
<path fill="#57C372" d="M64.51,46.5c-1.17-0.12-2.32,0-3.38,0.32c-1.87-2.31-4.61-3.9-7.79-4.22c-6.34-0.65-12.01,3.96-12.66,10.3
	c-0.65,6.34,3.96,12.01,10.3,12.66c3.29,0.34,6.39-0.75,8.71-2.75c0.93,0.47,1.95,0.8,3.05,0.91c4.76,0.49,9.01-2.97,9.5-7.73
	S69.27,46.98,64.51,46.5z"/>
<path fill="#71D385" d="M62.7,54.71l-8.27-1.08l4.61-4c0.25-0.21,0.27-0.59,0.06-0.84c-0.21-0.25-0.59-0.27-0.84-0.06l-5.41,4.69
	l-5.68-0.74l4.67-4.05c0.25-0.21,0.27-0.59,0.06-0.84c-0.21-0.25-0.59-0.27-0.84-0.06l-5.47,4.74l-10.32-1.34
	c-0.33-0.04-0.62,0.19-0.66,0.51c-0.04,0.32,0.19,0.62,0.51,0.66l10.31,1.34l4.84,5.59c0.12,0.14,0.28,0.2,0.45,0.2
	c0.14,0,0.28-0.05,0.39-0.14c0.25-0.21,0.27-0.59,0.06-0.84l-3.97-4.58l5.37,0.7l4.9,5.65c0.12,0.14,0.28,0.2,0.45,0.2
	c0.14,0,0.28-0.05,0.39-0.14c0.25-0.21,0.27-0.59,0.06-0.84l-4.03-4.64l8.2,1.07c0.03,0,0.05,0.01,0.08,0.01
	c0.29,0,0.55-0.22,0.59-0.52C63.25,55.05,63.02,54.75,62.7,54.71z"/>
<path fill="#34A753" d="M58.03,86.66c0.28,3.51,3.36,6.13,6.87,5.85c0.83-0.07,1.59-0.3,2.29-0.64c1.68,1.52,3.95,2.37,6.39,2.18
	c4.68-0.38,8.17-4.48,7.8-9.16c-0.38-4.68-4.48-8.17-9.16-7.8c-2.36,0.19-4.41,1.33-5.83,3c-0.79-0.26-1.64-0.37-2.51-0.3
	C60.37,80.07,57.75,83.15,58.03,86.66z"/>
<ellipse transform="matrix(0.9001 -0.4357 0.4357 0.9001 -15.9234 41.2388)" fill="#E94335" cx="81.97" cy="55.34" rx="5.01" ry="5.01"/>
<path fill="#57C372" d="M86.19,63.95c-3.05-1.76-6.95-0.71-8.71,2.35c-0.41,0.72-0.66,1.48-0.77,2.25c-2.2,0.52-4.2,1.91-5.41,4.03
	c-2.34,4.07-0.94,9.27,3.13,11.62c4.07,2.34,9.27,0.94,11.62-3.13c1.18-2.05,1.41-4.39,0.83-6.5c0.66-0.5,1.23-1.14,1.67-1.9
	C90.29,69.61,89.24,65.71,86.19,63.95z"/>
<path fill="#71D385" d="M82.91,69.87c-0.21-0.13-0.48-0.06-0.61,0.15l-3.16,5.16l-1.33-4.37c-0.07-0.23-0.32-0.36-0.55-0.29
	c-0.23,0.07-0.36,0.32-0.29,0.55l1.56,5.13l-2.23,3.64l-1.34-4.43c-0.07-0.23-0.32-0.36-0.55-0.29c-0.23,0.07-0.36,0.32-0.29,0.55
	l1.57,5.18l-4.12,6.74c-0.13,0.21-0.06,0.48,0.15,0.61c0.14,0.09,0.31,0.08,0.45,0.01c0.06-0.04,0.12-0.09,0.16-0.15l4.15-6.77
	l5.23-1.59c0.03-0.01,0.06-0.02,0.09-0.04c0.18-0.1,0.27-0.31,0.2-0.51c-0.07-0.23-0.32-0.36-0.55-0.29l-4.28,1.3l2.1-3.44
	l5.29-1.61c0.03-0.01,0.06-0.02,0.09-0.04c0.18-0.1,0.27-0.31,0.2-0.51c-0.07-0.23-0.32-0.36-0.55-0.29l-4.34,1.32l3.1-5.07
	C83.18,70.27,83.11,70,82.91,69.87z"/>
<ellipse transform="matrix(0.5491 -0.8357 0.8357 0.5491 -35.376 84.8888)" fill="#24893D" cx="60.99" cy="75.23" rx="8.05" ry="8.05"/>
<ellipse transform="matrix(0.9001 -0.4357 0.4357 0.9001 -25.749 37.8955)" fill="#E94335" cx="69.77" cy="75.1" rx="6.23" ry="6.23"/>
</svg>
