<?xml version="1.0" encoding="utf-8"?>
<!-- Generator: Adobe Illustrator 24.1.0, SVG Export Plug-In . SVG Version: 6.00 Build 0)  -->
<svg version="1.1" id="Layer_1" xmlns="http://www.w3.org/2000/svg" xmlns:xlink="http://www.w3.org/1999/xlink" x="0px" y="0px"
	 width="305px" height="218.532px" viewBox="0 0 305 218.532" enable-background="new 0 0 305 218.532" xml:space="preserve">
<path opacity="0.4" fill="#DADCE0" enable-background="new    " d="M287.176,158.198l1.648-1.332l-57.95-71.75l-0.291-0.361
	l-20.309-1.349l-10.232-11.818l-0.245-0.283l-10.132-1.833H154.06v-14.94h-2.12v14.94H20.5v2.12h60.28v8.9l-25.257,0.252
	l-34.46-2.05l-0.126,2.116l34.534,2.052l99.735-0.991l54.044,3.591l65.608,75.774l1.604-1.389l-64.236-74.188l17.291,1.149
	L287.176,158.198z M83.96,71.592h67.98v8.191l-67.98,0.678V71.592z M158.062,79.936l-0.002-0.214l-2.801,0.028l-1.199-0.08v-8.078
	h35.416l9.208,1.667l8.615,9.949L158.062,79.936z"/>
<path opacity="0.4" fill="#DADCE0" enable-background="new    " d="M149.57,63.792H21v-9h128.414l39.311-2.721l98.372-18.651v12.448
	l-68.981,14.393c-0.837,0.171-1.707,0.102-2.507-0.203l-6.864-2.614l-18.607,3.521c-0.174,0.033-0.35,0.056-0.526,0.068l-39.73,2.75
	C149.777,63.788,149.673,63.792,149.57,63.792z"/>
<linearGradient id="SVGID_1_" gradientUnits="userSpaceOnUse" x1="201.8839" y1="1150.9966" x2="247.4582" y2="1072.0597" gradientTransform="matrix(1 0 0 1 0 -1087.1953)">
	<stop  offset="0" style="stop-color:#669DF6"/>
	<stop  offset="0.2828" style="stop-color:#ABD0FF"/>
	<stop  offset="0.5151" style="stop-color:#D2E3FC"/>
	<stop  offset="0.7183" style="stop-color:#E8F0FE"/>
	<stop  offset="0.955" style="stop-color:#FFFFFF"/>
</linearGradient>
<path opacity="0.8" fill="url(#SVGID_1_)" enable-background="new    " d="M153.57,112.532c-2.761,0-5-2.238-5-5v-56.85
	c0-2.309,1.581-4.318,3.826-4.86l66.5-16.07l68.201-17.281l0.258,10.092l-66.049,16.895l-62.735,15.16v52.915
	C158.57,110.294,156.332,112.532,153.57,112.532z"/>
<path opacity="0.8" fill-rule="evenodd" clip-rule="evenodd" fill="#4285F4" enable-background="new    " d="M153.57,129.532
	c13.63,0,24.68-7.71,24.68-17.22s-11.05-17.22-24.68-17.22c-13.63,0-24.68,7.71-24.68,17.22
	C128.88,121.822,139.94,129.532,153.57,129.532z"/>
<path fill-rule="evenodd" clip-rule="evenodd" fill="#F1F3F4" d="M154.46,117.282c-0.2-0.06-0.42-0.05-0.61,0.02l-9.03,3.3
	c-0.86,0.31-1.65-0.6-1.23-1.41l8.91-16.88c0.35-0.67,1.3-0.72,1.72-0.09l10.78,16.16c0.51,0.77-0.21,1.77-1.1,1.52L154.46,117.282z
	"/>
<path fill="#3C4043" d="M19.98,142.792H289v15.33c0,22.17-17.98,40.15-40.15,40.15H60.13c-22.18,0-40.15-17.98-40.15-40.15V142.792z
	"/>
<path fill="#E8EAED" d="M249,198.532H60c-22.056,0-40-17.944-40-40v-75.49h2v75.49c0,20.953,17.047,38,38,38h189
	c20.953,0,38-17.047,38-38v-75.5h2v75.5C289,180.588,271.056,198.532,249,198.532z"/>
<linearGradient id="SVGID_2_" gradientUnits="userSpaceOnUse" x1="288" y1="-670.7762" x2="288" y2="-593.0593" gradientTransform="matrix(1 0 0 -1 0 -587.7345)">
	<stop  offset="5.166997e-04" style="stop-color:#E8EAED"/>
	<stop  offset="0.5482" style="stop-color:#F8F8F9"/>
	<stop  offset="1" style="stop-color:#FFFFFF"/>
</linearGradient>
<rect x="287" y="5.325" fill="url(#SVGID_2_)" width="2" height="77.717"/>
<path opacity="0.2" fill="#669CF5" enable-background="new    " d="M55.5,109.532L55.5,109.532c28.99,0,52.5,23.51,52.5,52.5l0,0
	c0,28.99-23.51,52.5-52.5,52.5l0,0c-28.99,0-52.5-23.51-52.5-52.5l0,0C3,133.042,26.51,109.532,55.5,109.532z"/>
<path opacity="0.2" fill="#4285F4" enable-background="new    " d="M55.5,129.802L55.5,129.802c17.8,0,32.24,14.43,32.24,32.24l0,0
	c0,17.8-14.43,32.24-32.24,32.24l0,0c-17.8,0-32.24-14.43-32.24-32.24l0,0C23.26,144.232,37.7,129.802,55.5,129.802z"/>
<g id="Assistant_Mic">
	<rect x="53.6" y="177.032" fill="#34A853" width="4.8" height="5.1"/>
	<path fill="#4285F4" d="M56,170.132c2.65,0,4.8-2.15,4.8-4.8v-12c0-2.65-2.15-4.8-4.8-4.8s-4.8,2.15-4.8,4.8v12
		C51.2,167.992,53.35,170.132,56,170.132z"/>
	<path fill="#FABB05" d="M47.6,165.332H44c0,3.18,1.27,6.23,3.52,8.48l2.54-2.54C48.48,169.702,47.6,167.562,47.6,165.332z"/>
	<path fill="#E94235" d="M56,173.732c-2.23,0-4.36-0.89-5.94-2.46l-2.54,2.54c3.43,3.43,8.59,4.46,13.08,2.6
		c4.48-1.86,7.41-6.23,7.41-11.08h-3.6C64.4,169.972,60.64,173.732,56,173.732z"/>
</g>
<g id="Launcher_Icon">
	<path fill="#80868B" d="M233,152.532h6c2.21,0,4,1.79,4,4v6c0,2.21-1.79,4-4,4h-6c-2.21,0-4-1.79-4-4v-6
		C229,154.322,230.79,152.532,233,152.532z"/>
	<path fill="#80868B" d="M233,170.532h6c2.21,0,4,1.79,4,4v6c0,2.21-1.79,4-4,4h-6c-2.21,0-4-1.79-4-4v-6
		C229,172.322,230.79,170.532,233,170.532z"/>
	<path fill="#80868B" d="M251,152.532h6c2.21,0,4,1.79,4,4v6c0,2.21-1.79,4-4,4h-6c-2.21,0-4-1.79-4-4v-6
		C247,154.322,248.79,152.532,251,152.532z"/>
	<path fill="#80868B" d="M251,170.532h6c2.21,0,4,1.79,4,4v6c0,2.21-1.79,4-4,4h-6c-2.21,0-4-1.79-4-4v-6
		C247,172.322,248.79,170.532,251,170.532z"/>
</g>
<linearGradient id="SVGID_3_" gradientUnits="userSpaceOnUse" x1="21" y1="-670.7762" x2="21" y2="-593.0593" gradientTransform="matrix(1 0 0 -1 0 -587.7345)">
	<stop  offset="5.166997e-04" style="stop-color:#E8EAED"/>
	<stop  offset="0.5482" style="stop-color:#F8F8F9"/>
	<stop  offset="1" style="stop-color:#FFFFFF"/>
</linearGradient>
<rect x="20" y="5.325" fill="url(#SVGID_3_)" width="2" height="77.717"/>
</svg>
