<svg xmlns="http://www.w3.org/2000/svg" width="290" height="200"><path fill="#5F6368" d="M96.16 97.3l-69.45.14c-1.72 0-3.1-1.39-3.12-3.1l-.13-70.35c-.01-1.52 1.23-2.76 2.75-2.75l70.16-.14c1.52-.01 2.76 1.23 2.75 2.75l.15 70.36c-.01 1.69-1.4 3.09-3.11 3.09z"/><linearGradient id="a" gradientUnits="userSpaceOnUse" x1="-84.5344" y1="-359.9731" x2="55.0055" y2="118.9023" gradientTransform="matrix(1 0 0 -1 0 200)"><stop offset="0" style="stop-color:#202124"/><stop offset="1" style="stop-color:#202124;stop-opacity:0"/></linearGradient><path fill="url(#a)" d="M96.19 97.37l-69.45.14c-1.72 0-3.1-1.39-3.12-3.1l-.13-70.35c-.01-1.52 1.23-2.76 2.75-2.75l70.16-.14c1.52-.01 2.76 1.23 2.75 2.75l.15 70.36c-.02 1.69-1.4 3.09-3.11 3.09z"/><path fill="#202124" d="M26.44 24.14L95.18 24l.1 48.93-68.74.14-.1-48.93z"/><path fill="#5D6166" d="M34.61 30.23h51.47v36.94H34.61z"/><path fill="none" stroke="#202124" stroke-width=".6292" stroke-miterlimit="10" d="M71.09 52.42c-11.97-6.66-22.91 0-22.91 0l-1.74-5.73s12.53-6.66 26.24 0l-1.59 5.73zM55.31 54.06h8.79M57.31 40.15h4.48"/><path fill="#5F6368" d="M251.09 126.33l-95.27.19c-2.35 0-4.26-1.9-4.28-4.25l-.18-96.5c-.01-2.08 1.69-3.78 3.77-3.77l96.25-.19c2.08-.01 3.78 1.69 3.77 3.77l.21 96.52c-.03 2.31-1.93 4.23-4.27 4.23z"/><path fill="#202124" d="M155.44 25.98l94.3-.19.14 67.11-94.3.19-.14-67.11z"/><path fill="#70757A" d="M173.64 37.68h59.04V92.9h-59.04z"/><path fill="none" stroke="#202124" stroke-width=".3533" stroke-miterlimit="10" d="M197.22 92.9l-.01-24.22c0-3.7 2.66-6.7 5.95-6.7h0c3.29 0 5.95 3 5.95 6.69l.01 24.22M197.22 84.45l-23.57.01M232.59 84.43l-23.47.01M177.93 61.98h13.7v22.47h-13.7zM214.6 61.97h13.7v22.47h-13.7z"/><path fill="#3C4043" d="M173.64 40.94h59.04v16.03h-59.04z"/><linearGradient id="b" gradientUnits="userSpaceOnUse" x1="203.16" y1="186.2084" x2="203.16" y2="145.199" gradientTransform="matrix(1 0 0 -1 0 200)"><stop offset="0" style="stop-color:#202124;stop-opacity:0.1"/><stop offset="1" style="stop-color:#202124;stop-opacity:0"/></linearGradient><path fill="url(#b)" d="M173.64 40.94h59.04v16.03h-59.04z"/><path fill="none" stroke="#202124" stroke-width=".6822" stroke-miterlimit="10" d="M180.02 51.99s12.13-2.75 11.87-6.75c-.17-2.61-8 6.74-.24 6.75 6.07.01 9.74-6.95 10.7-3.2 1.08 4.24 8.29-1.6 7.66-2.34-.86-1-6.41 4.6-1.89 5.95 4.52 1.35 10.83-9.19 13.19-4.81s4.13 2.78 4.13 2.78"/><path fill="#70757A" d="M235.41 55.77h7.38v16.35h-7.38z"/><path fill="none" stroke="#70757A" stroke-width=".496" stroke-miterlimit="10" d="M232.68 58.29h2.73M232.68 69.64h2.73"/><linearGradient id="c" gradientUnits="userSpaceOnUse" x1="274.0786" y1="247.3177" x2="59.4832" y2="99.8494" gradientTransform="matrix(1 0 0 -1 0 200)"><stop offset="0" style="stop-color:#202124"/><stop offset="1" style="stop-color:#202124;stop-opacity:0"/></linearGradient><path fill="url(#c)" d="M26.71 97.44l63.54-27.6 10.07 27.48z"/><linearGradient id="d" gradientUnits="userSpaceOnUse" x1="6.8456" y1="57.378" x2="221.0944" y2="57.378" gradientTransform="matrix(1 0 0 -1 0 200)"><stop offset="0" style="stop-color:#202124;stop-opacity:0.2"/><stop offset=".6257" style="stop-color:#5F6368"/></linearGradient><path fill="none" stroke="url(#d)" stroke-width="1.6089" stroke-linecap="round" stroke-miterlimit="10" stroke-dasharray="4.8268" d="M220.29 162.53s-49.67 46.19-97.61 12.2c-29.77-21.11-49.67-77.56-22.66-76.69s-2.58 59.28-18.3 47.06c-15.44-12-47.93-47.06-74.07-38.34"/><path fill="#3C4043" d="M186.21 174.18l-95.27.19c-2.35 0-4.26-1.9-4.28-4.25l-.18-96.5c-.01-2.08 1.69-3.78 3.77-3.77l96.25-.19c2.08-.01 3.78 1.69 3.77 3.77l.21 96.52c-.03 2.31-1.93 4.23-4.27 4.23z"/><linearGradient id="e" gradientUnits="userSpaceOnUse" x1="138.38" y1="-97.6119" x2="138.38" y2="115.6621" gradientTransform="matrix(1 0 0 -1 0 200)"><stop offset="0" style="stop-color:#202124"/><stop offset="1" style="stop-color:#202124;stop-opacity:0"/></linearGradient><path fill="url(#e)" d="M186.11 174.4l-95.27.19c-2.35 0-4.26-1.9-4.28-4.25l-.18-96.5c-.01-2.08 1.69-3.78 3.77-3.77l96.25-.19c2.08-.01 3.78 1.69 3.77 3.77l.21 96.52c-.03 2.31-1.93 4.23-4.27 4.23z"/><path fill="#202124" d="M90.56 73.83l94.3-.19.17 67.07-94.3.19-.17-67.07z"/><path fill="#5F6368" d="M178.84 117.42l-8.16-10.24V78.54h-45.75c-2.76 0-5 2.24-5 4.99v57.34h50.75v-22.78h7.81c.36.01.56-.39.35-.67z"/><radialGradient id="f" cx="113.8676" cy="113.9046" r="54.2695" gradientTransform="matrix(1 0 0 -1 2.8231 180.1664)" gradientUnits="userSpaceOnUse"><stop offset="0" style="stop-color:#FFFFFF"/><stop offset="1" style="stop-color:#FFFFFF;stop-opacity:0"/></radialGradient><path opacity=".4" fill="url(#f)" d="M178.84 117.42l-8.16-10.24V78.54h-45.75c-2.76 0-5 2.24-5 4.99v57.34h50.75v-22.78h7.81c.36.01.56-.39.35-.67z"/><linearGradient id="g" gradientUnits="userSpaceOnUse" x1="149.4277" y1="-14.4958" x2="149.4277" y2="72.4173" gradientTransform="matrix(1 0 0 -1 0 200)"><stop offset="0" style="stop-color:#202124"/><stop offset="1" style="stop-color:#202124;stop-opacity:0"/></linearGradient><path fill="url(#g)" d="M178.84 117.42l-8.16-10.24V78.54h-45.75c-2.76 0-5 2.24-5 4.99v57.34h50.75v-22.78h7.81c.36.01.56-.39.35-.67z"/><linearGradient id="h" gradientUnits="userSpaceOnUse" x1="180.7035" y1="142.8843" x2="140.4589" y2="65.6803" gradientTransform="matrix(1 0 0 -1 0 200)"><stop offset="0" style="stop-color:#202124"/><stop offset="1" style="stop-color:#202124;stop-opacity:0"/></linearGradient><path fill="url(#h)" d="M170.74 118.23l-9.96 22.79h-30.29v-33.26z"/><path fill="#202124" d="M152.67 123.96h.33v16.92h-.33zM143.48 119.14h.33v21.74h-.33zM162.26 119.42h.33v21.46h-.33z"/><path fill="#202124" d="M143.52 123.8h18.78v.33h-18.78zM130.36 78.54h.33v62.34h-.33z"/><path fill="#3C4043" d="M178.84 117.41l-8.16-10.24h-39.33c-.46 0-.75.5-.52.91l7.99 9.56 31.85.46h7.81c.37 0 .57-.4.36-.69z"/><path fill="#3C4043" d="M178.93 117.66v1.41c0 .61-.5 1.11-1.11 1.11-.62 0-1.11-.5-1.11-1.11 0 .61-.5 1.11-1.11 1.11h-.01c-.61 0-1.11-.5-1.11-1.11 0 .61-.5 1.11-1.11 1.11h-.01c-.61 0-1.11-.5-1.11-1.11 0 .61-.5 1.11-1.11 1.11h-.01c-.61 0-1.11-.5-1.11-1.11 0 .61-.5 1.11-1.11 1.11h-.01c-.61 0-1.11-.5-1.11-1.11 0 .61-.5 1.11-1.11 1.11h-.01c-.61 0-1.11-.5-1.11-1.11 0 .61-.5 1.11-1.11 1.11h-.01c-.61 0-1.11-.5-1.11-1.11 0 .61-.5 1.11-1.11 1.11h-.01c-.61 0-1.11-.5-1.11-1.11 0 .61-.5 1.11-1.11 1.11h-.01c-.61 0-1.11-.5-1.11-1.11 0 .61-.5 1.11-1.11 1.11h-.01c-.61 0-1.11-.5-1.11-1.11 0 .61-.5 1.11-1.11 1.11h-.01c-.61 0-1.11-.5-1.11-1.11 0 .61-.5 1.11-1.11 1.11h-.01c-.61 0-1.11-.5-1.11-1.11 0 .61-.5 1.11-1.11 1.11h-.01c-.61 0-1.11-.5-1.11-1.11 0 .61-.5 1.11-1.11 1.11h-.01c-.61 0-1.11-.5-1.11-1.11 0 .61-.5 1.11-1.11 1.11h-.01c-.61 0-1.11-.5-1.11-1.11 0 .61-.5 1.11-1.11 1.11h-.01c-.61 0-1.11-.5-1.11-1.11 0 .61-.5 1.11-1.11 1.11h-.01c-.61 0-1.11-.5-1.11-1.11 0 .61-.5 1.11-1.11 1.11h-.01c-.61 0-1.11-.5-1.11-1.11v-1.43l40.13.02z"/><path fill="#5F6368" d="M143.29 117.64l-8.36-10.47h4.45l8.36 10.47zM143.29 117.64v1.45c.01.6.5 1.09 1.11 1.09h.01c.61 0 1.11-.5 1.11-1.11 0 .61.5 1.11 1.11 1.11h.01c.6 0 1.08-.47 1.11-1.06v-1.48h-4.46zM152.2 117.64l-8.36-10.47h4.45l8.36 10.47zM152.2 117.64v1.45c.01.6.5 1.09 1.11 1.09h.01c.61 0 1.11-.5 1.11-1.11 0 .61.5 1.11 1.11 1.11h.01c.6 0 1.08-.47 1.11-1.06v-1.48h-4.46zM161.11 117.64l-8.36-10.47h4.45l8.36 10.47zM161.11 117.64v1.45c.01.6.5 1.09 1.11 1.09h.01c.61 0 1.11-.5 1.11-1.11 0 .61.5 1.11 1.11 1.11h.01c.6 0 1.08-.47 1.11-1.06v-1.48h-4.46zM170.02 117.64l-8.36-10.47h4.45l8.36 10.47zM170.02 117.64v1.45c.01.6.5 1.09 1.11 1.09h.01c.61 0 1.11-.5 1.11-1.11 0 .61.5 1.11 1.11 1.11h.01c.6 0 1.08-.47 1.11-1.06v-1.48h-4.46z"/><linearGradient id="i" gradientUnits="userSpaceOnUse" x1="158.865" y1="97.3403" x2="158.865" y2="79.4607" gradientTransform="matrix(1 0 0 -1 0 200)"><stop offset="0" style="stop-color:#202124"/><stop offset="1" style="stop-color:#202124;stop-opacity:0"/></linearGradient><path fill="url(#i)" d="M178.93 117.66v1.41c0 .61-.5 1.11-1.11 1.11-.62 0-1.11-.5-1.11-1.11 0 .61-.5 1.11-1.11 1.11h-.01c-.61 0-1.11-.5-1.11-1.11 0 .61-.5 1.11-1.11 1.11h-.01c-.61 0-1.11-.5-1.11-1.11 0 .61-.5 1.11-1.11 1.11h-.01c-.61 0-1.11-.5-1.11-1.11 0 .61-.5 1.11-1.11 1.11h-.01c-.61 0-1.11-.5-1.11-1.11 0 .61-.5 1.11-1.11 1.11h-.01c-.61 0-1.11-.5-1.11-1.11 0 .61-.5 1.11-1.11 1.11h-.01c-.61 0-1.11-.5-1.11-1.11 0 .61-.5 1.11-1.11 1.11h-.01c-.61 0-1.11-.5-1.11-1.11 0 .61-.5 1.11-1.11 1.11h-.01c-.61 0-1.11-.5-1.11-1.11 0 .61-.5 1.11-1.11 1.11h-.01c-.61 0-1.11-.5-1.11-1.11 0 .61-.5 1.11-1.11 1.11h-.01c-.61 0-1.11-.5-1.11-1.11 0 .61-.5 1.11-1.11 1.11h-.01c-.61 0-1.11-.5-1.11-1.11 0 .61-.5 1.11-1.11 1.11h-.01c-.61 0-1.11-.5-1.11-1.11 0 .61-.5 1.11-1.11 1.11h-.01c-.61 0-1.11-.5-1.11-1.11 0 .61-.5 1.11-1.11 1.11h-.01c-.61 0-1.11-.5-1.11-1.11 0 .61-.5 1.11-1.11 1.11h-.01c-.61 0-1.11-.5-1.11-1.11 0 .61-.5 1.11-1.11 1.11h-.01c-.61 0-1.11-.5-1.11-1.11 0 .61-.5 1.11-1.11 1.11h-.01c-.61 0-1.11-.5-1.11-1.11v-1.43l40.13.02z"/><path fill="#5F6368" d="M164.16 95.72l-25.74 7.27c-.31.09-.56-.09-.56-.4V91.46c0-.31.25-.63.56-.71l25.74-7.27c.31-.09.56.09.56.4v11.13c-.01.3-.26.62-.56.71z"/><linearGradient id="j" gradientUnits="userSpaceOnUse" x1="205.8095" y1="54.7985" x2="150.1138" y2="94.0593"><stop offset="0" style="stop-color:#F1F3F4"/><stop offset="1" style="stop-color:#F1F3F4;stop-opacity:0"/></linearGradient><path fill="url(#j)" d="M164.16 95.72l-25.74 7.27c-.31.09-.56-.09-.56-.4V91.46c0-.31.25-.63.56-.71l25.74-7.27c.31-.09.56.09.56.4v11.13c-.01.3-.26.62-.56.71z"/><path fill="none" stroke="#3C4043" stroke-width=".6173" stroke-miterlimit="10" d="M140.03 99.55s7.35-1.48 7.35-7.31c0-1.39-2.21-2.02-2.41.2-.22 2.46 3.06 6.86 7.5 3.56 4.75-3.53 3.85-6.81 2.67-6.81-2.07 0-1.68 8.19 8.1 3.36"/><path fill="#3C4043" d="M136.27 140.88c-1.94-4.18-5.2-6.93-8.9-6.93-3.27 0-6.2 2.15-8.18 5.53-2.77-5.51-7.22-9.08-12.24-9.08-5.43 0-10.2 4.19-12.89 10.48h42.21z"/><path fill="#202124" d="M108.15 140.88l-3.16-10.29c-.11.02-.22.05-.32.07l3.14 10.22h.34zM103.74 140.88l-5.05-6.89-.24.24 4.88 6.65h.41zM113.14 140.88l3.33-5.55c-.08-.09-.15-.18-.23-.27l-3.49 5.81.39.01zM126.96 140.88l-.48-6.86c-.11.01-.22.01-.33.03l.48 6.83h.33zM130.28 140.88l3.01-4.32-.24-.24-3.17 4.56h.4z"/><linearGradient id="k" gradientUnits="userSpaceOnUse" x1="292.9404" y1="78.1013" x2="212.1773" y2="80.5653" gradientTransform="matrix(1 0 0 -1 0 200)"><stop offset="0" style="stop-color:#202124"/><stop offset="1" style="stop-color:#202124;stop-opacity:0"/></linearGradient><path fill="url(#k)" d="M190.66 126.8l64.69-14.07-37.09 13.78z"/><path fill="#2D3032" d="M200.91 133.23l22.54 5.79 5.48 19.01 8.7-16.11 25.44 6.77 18.07-45.72z"/><linearGradient id="l" gradientUnits="userSpaceOnUse" x1="224.5379" y1="54.3448" x2="271.9008" y2="84.186" gradientTransform="matrix(1 0 0 -1 0 200)"><stop offset="0" style="stop-color:#9AA0A6"/><stop offset="1" style="stop-color:#9AA0A6;stop-opacity:0.2"/></linearGradient><path fill="url(#l)" d="M200.91 133.23l22.54 5.79 5.48 19.01 8.7-16.11 25.44 6.77 18.07-45.72z"/><linearGradient id="m" gradientUnits="userSpaceOnUse" x1="220.1713" y1="47.0837" x2="281.3601" y2="91.7279" gradientTransform="matrix(1 0 0 -1 0 200)"><stop offset="0" style="stop-color:#3C4043"/><stop offset=".6592" style="stop-color:#3C4043;stop-opacity:0.2"/></linearGradient><path fill="url(#m)" d="M275.07 108.17l-51.62 30.85 5.48 19.01 8.7-16.11z"/></svg>