<svg xmlns="http://www.w3.org/2000/svg" width="360" height="200" viewBox="0 0 360 200"><path fill="#DADCE0" d="M0,0h360v200H0V0z"/><path fill="none" d="M147.6 165c0 2.5-1.2 5.1-3.4 7.3l-4 4c-.82.85-1.65 1.54-2.49 2.07.88-.54 1.75-1.23 2.59-2.07l4-4c2.3-2.2 3.4-4.8 3.4-7.3 0-2-.8-4-2.2-5.4-1.2-1.2-2.8-1.9-4.6-1.9 1.7 0 3.3.7 4.5 1.9C146.8 161 147.6 162.9 147.6 165zM129 172.05c-1.33.6-2.6.85-3.8.85C126.4 172.9 127.67 172.65 129 172.05zM137 165.2L137 165.2 134.9 167.3zM135.36 179.41c-.08.02-.16.05-.25.07C135.19 179.46 135.27 179.43 135.36 179.41z"/><path fill="none" d="M141.19 166.18c0 .14-.03.27-.08.4.16-.39.1-.87-.21-1.18-.11-.11-.24-.18-.38-.23C140.91 165.34 141.19 165.73 141.19 166.18zM133.4 179.7c.48 0 .97-.06 1.46-.17-.5.1-1 .16-1.51.17C133.37 179.7 133.38 179.7 133.4 179.7zM140.9 157.7v-.1C140.9 157.63 140.89 157.67 140.9 157.7L140.9 157.7zM125.2 172.9c-2.6 0-4.9-1.2-6.5-2.8C120.2 171.7 122.5 172.9 125.2 172.9zM133.53 149.63c.02 0 .04.01.07.01C133.57 149.64 133.55 149.63 133.53 149.63zM136.2 164.2c2.3-2.2 3.4-4.8 3.4-7.3l0 0 0 0C139.6 159.4 138.4 162 136.2 164.2zM128.7 164.25c0-.28-.1-.55-.3-.75-.21-.21-.49-.3-.77-.3C128.21 163.21 128.67 163.67 128.7 164.25zM124.87 166.09c0 .69-.54 1.24-1.22 1.28.35 0 .7-.12.95-.37.5-.5.5-1.4 0-1.9s-1.4-.5-1.9 0c-.02.02-.03.05-.04.07.23-.23.56-.38.91-.38C124.29 164.79 124.87 165.37 124.87 166.09zM130 171.53c1.01-.59 2.05-1.38 3.1-2.43l1.7-1.7.1-.1-1.8 1.8C132.05 170.15 131.01 170.95 130 171.53zM136.93 151.07c.16.13.32.28.47.43C137.25 151.35 137.09 151.2 136.93 151.07zM141.62 181.26c.35 0 .67.14.9.37-.01-.01-.01-.02-.02-.03-.5-.5-1.3-.5-1.8 0-.08.1-.13.21-.19.32C140.74 181.53 141.14 181.26 141.62 181.26z"/><path fill="none" d="M147.1 183c-2.2 2.3-4.5 3.4-6.9 3.4-2 0-4.1-.9-5.6-2.4l-.86-1.15c-.05.01-.09.03-.14.05-.48.1-.87.19-1.35.29.02.04.04.07.06.11.49-.1.89-.2 1.38-.3.2.4.5.8.9 1.2 1.6 1.5 3.6 2.4 5.6 2.4 2.3 0 4.7-1.2 6.9-3.4l4-4c2.2-2.2 3.4-4.8 3.4-7.3 0-.04 0-.07-.01-.11-.03 2.47-1.22 5.04-3.39 7.21L147.1 183zM143 175.4l2.2-2.2c.09-.09.16-.18.25-.27-.09.09-.16.18-.25.27L143 175.4z"/><path fill="none" d="M140.33 182.59c0 .34.12.66.37.91.38.38.94.47 1.41.26-.15.06-.31.1-.49.1C140.91 183.86 140.34 183.29 140.33 182.59zM142.78 182c.08.17.14.36.14.56 0 .28-.11.52-.26.73C142.97 182.92 143.02 182.44 142.78 182z"/><path fill="#BABFC5" d="M133.7,185.2c-0.6-0.6-1-1.2-1.4-1.9c0.01,0,0.01,0,0.02,0c-0.02-0.04-0.04-0.07-0.06-0.11 c-0.02,0-0.03,0.01-0.05,0.01c-0.96,0.1-1.91,0.01-2.96,0c0.23,1.43,0.91,2.85,2.06,4c3,3,8.6,4.8,14.4-0.9l0.34-0.34 c-2.06,1.47-4.03,2.04-5.84,2.04C137.6,188,135.3,186.8,133.7,185.2z"/><path fill="#FFF" d="M138.9,179.5c-1.75,1.75-3.5,2.83-5.16,3.35l0.86,1.15c1.5,1.5,3.6,2.4,5.6,2.4c2.4,0,4.7-1.1,6.9-3.4l4-4 c2.17-2.17,3.37-4.74,3.39-7.21c-0.03-1.96-0.82-3.92-2.19-5.29c-0.9-1-2.1-1.6-3.3-1.8v-0.01c0.07,2.59-0.88,5.45-3.55,8.24 c-0.09,0.09-0.16,0.18-0.25,0.27l-2.2,2.2l-1.8,1.8l-0.1,0.1l1.8-1.8L138.9,179.5z M142.11,183.76c-0.47,0.21-1.02,0.12-1.41-0.26 c-0.25-0.25-0.38-0.58-0.37-0.91c0-0.01-0.01-0.02-0.01-0.03c0-0.24,0.08-0.45,0.19-0.64c0.06-0.11,0.1-0.22,0.19-0.32 c0.5-0.5,1.3-0.5,1.8,0c0.01,0.01,0.01,0.02,0.02,0.03c0.11,0.11,0.19,0.23,0.26,0.37c0.24,0.44,0.19,0.92-0.12,1.3 C142.52,183.5,142.34,183.67,142.11,183.76z"/><path fill="#CDD0D5" d="M153.3,165.6c-1.29-1.39-2.89-2.09-4.48-2.3c0.09,0.45,0.18,0.83,0.18,1.28c0-0.03,0-0.06,0-0.09 c1.2,0.3,2.4,0.9,3.3,1.8c1.4,1.4,2.2,3.3,2.2,5.4c0,0.03-0.01,0.06-0.01,0.09c0,0.04,0.01,0.07,0.01,0.11c0,2.5-1.2,5.1-3.4,7.3 l-4,4c-2.2,2.2-4.6,3.4-6.9,3.4c-2,0-4-0.9-5.6-2.4c-0.4-0.4-0.7-0.8-0.9-1.2c-0.49,0.1-0.89,0.2-1.38,0.3 c0.36,0.62,0.74,1.16,1.28,1.7c1.6,1.6,3.9,2.8,6.4,2.9c2.4,0,5.1-1,7.9-3.8l-1.86,1.86c0.68-0.49,1.37-1.07,2.06-1.76l1.8-1.8 l2.2-2.2C157.6,174.7,156.3,168.6,153.3,165.6z M148,184.1l1.8-1.8L148,184.1z"/><path fill="#CDD0D5" d="M140 187.9c-2.5-.1-4.8-1.3-6.4-2.9-.54-.54-.92-1.09-1.28-1.7-.01 0-.01 0-.02 0 .4.7.8 1.3 1.4 1.9 1.6 1.6 3.9 2.8 6.5 2.8 1.8 0 3.78-.57 5.84-2.04l1.86-1.86C145.1 186.9 142.4 187.9 140 187.9zM149 164.69L149 164.69c1.2.21 2.4.81 3.3 1.81 1.37 1.37 2.17 3.33 2.19 5.29 0-.03.01-.06.01-.09 0-2.1-.8-4-2.2-5.4-.9-.9-2.1-1.5-3.3-1.8 0 .03 0 .06 0 .09 0 .01 0 .01 0 .01C149 164.63 149 164.66 149 164.69z"/><path fill="#BABFC5" d="M132.2,183.1c0.02,0.03,0.04,0.06,0.05,0.09c0.47-0.1,0.87-0.19,1.35-0.29c0.05-0.01,0.09-0.03,0.14-0.05 l-0.04-0.05c1.7-0.5,3.5-1.6,5.3-3.4l2.1-2.1c-2.8,2.8-5.5,3.8-7.9,3.8c-2.7,0-5-1.2-6.5-2.8c-0.9-0.9-1.6-2-1.9-3.2 c-0.9,0.2-1.8,0.2-2.6,0.2c0,1.9,0.8,3.8,2.2,5.3c1.2,1.2,2.8,2.2,4.7,2.6c0.05,0,0.1,0,0.14,0c-0.01-0.07-0.04-0.13-0.04-0.2 C130.1,183.2,131.1,183.2,132.2,183.1z"/><path fill="#BABFC5" d="M132.2 183.2c.02 0 .03-.01.05-.01-.02-.03-.04-.06-.05-.09-1.1.1-2.1.1-3-.1.01.07.03.13.04.2C130.29 183.21 131.24 183.3 132.2 183.2zM133.7 182.8l.04.05c1.66-.52 3.41-1.6 5.16-3.35l4-4-1.8 1.8-2.1 2.1C137.2 181.2 135.4 182.3 133.7 182.8z"/><path fill="#FFF" d="M127.8,177.3c1.59,1.49,3.57,2.38,5.55,2.4c0.51,0,1.01-0.06,1.51-0.17c0.08-0.02,0.16-0.03,0.25-0.05 c0.08-0.02,0.16-0.05,0.25-0.07c0.79-0.22,1.57-0.57,2.35-1.04c0.85-0.53,1.68-1.22,2.49-2.07l4-4c2.2-2.2,3.4-4.8,3.4-7.3 c0-2.1-0.8-4-2.2-5.4c-1.2-1.2-2.8-1.9-4.5-1.9h-0.01c-0.22,2.37-1.32,4.93-3.79,7.4l-0.1,0.1l0,0l-2.1,2.1l-0.1,0.1l-1.7,1.7 l-2.2,2.2l-0.1,0.1c-1.6,1.6-3.2,2.6-4.7,3.2c0,0.01,0.01,0.02,0.01,0.03c0.03-0.01,0.06-0.02,0.09-0.03 C126.5,175.6,127,176.5,127.8,177.3z M140.09,165.08c0.15,0,0.3,0.03,0.43,0.09c0.14,0.05,0.27,0.12,0.38,0.23 c0.31,0.31,0.37,0.79,0.21,1.18c-0.16,0.41-0.55,0.7-1.02,0.7c-0.61,0-1.1-0.49-1.1-1.1C138.99,165.57,139.48,165.08,140.09,165.08 z"/><path fill="#CDD0D5" d="M145.2,173.2c0.09-0.09,0.16-0.18,0.25-0.27c2.64-2.75,3.6-5.59,3.55-8.25c-0.1-0.49-0.1-0.99-0.2-1.38 c0.01,0,0.01,0,0.02,0c-0.01-0.04-0.01-0.07-0.02-0.1c-0.4-1.9-1.3-3.5-2.4-4.7c-1.5-1.5-3.5-2.2-5.4-2.2h-0.1v1.3v0.1 c1.8,0,3.4,0.7,4.6,1.9c1.4,1.4,2.2,3.4,2.2,5.4c0,2.5-1.1,5.1-3.4,7.3l-4,4c-0.84,0.84-1.71,1.53-2.59,2.07 c-0.77,0.48-1.56,0.82-2.35,1.04c-0.08,0.02-0.16,0.05-0.25,0.07c-0.08,0.02-0.17,0.03-0.25,0.05c-0.49,0.1-0.98,0.17-1.46,0.17 c-0.02,0-0.03,0-0.05,0s-0.03,0-0.05,0c-2,0-4-0.9-5.6-2.4c-0.79-0.79-1.29-1.68-1.59-2.67c-0.38,0.17-0.84,0.27-1.21,0.37 c0.4,1.2,1,2.3,1.9,3.2c1.6,1.6,3.9,2.8,6.5,2.8c2.4,0,5.1-1,7.9-3.8l1.8-1.8L145.2,173.2z"/><path fill="#CDD0D5" d="M145.45 172.93c2.66-2.78 3.62-5.64 3.55-8.24v-.01C149.05 167.34 148.09 170.17 145.45 172.93zM149 164.68c0-.03 0-.06 0-.09 0-.46-.09-.84-.18-1.28-.01 0-.01 0-.02 0C148.9 163.69 148.9 164.19 149 164.68zM149 164.69c0-.03 0-.06 0-.09 0-.01 0-.01 0-.01C149 164.62 149 164.65 149 164.69 149 164.68 149 164.69 149 164.69zM133.3 179.7c.02 0 .03 0 .05 0-1.98-.02-3.96-.91-5.55-2.4-.8-.8-1.3-1.7-1.6-2.7-.03.01-.06.02-.09.03.3.99.8 1.88 1.59 2.67C129.3 178.8 131.3 179.7 133.3 179.7zM137.71 178.37c-.78.47-1.56.82-2.35 1.04C136.15 179.19 136.93 178.85 137.71 178.37zM135.11 179.48c-.08.02-.16.03-.25.05C134.94 179.51 135.03 179.5 135.11 179.48z"/><path fill="#BABFC5" d="M142.78,182c-0.07-0.13-0.15-0.25-0.26-0.37c-0.23-0.23-0.55-0.37-0.9-0.37c-0.48,0-0.88,0.27-1.11,0.66 c-0.11,0.22-0.19,0.44-0.19,0.66c0.01,0.71,0.59,1.27,1.29,1.27c0.17,0,0.34-0.04,0.49-0.1c0.14-0.06,0.28-0.15,0.39-0.26 c0.07-0.06,0.11-0.14,0.16-0.21c0.15-0.21,0.26-0.46,0.26-0.73C142.92,182.36,142.86,182.17,142.78,182z"/><path fill="#BABFC5" d="M142.11 183.76c.23-.09.41-.26.56-.47-.06.07-.09.14-.16.21C142.38 183.62 142.25 183.7 142.11 183.76zM142.52 181.63c.11.12.19.24.26.37C142.71 181.86 142.63 181.73 142.52 181.63zM140.32 182.56c0 .01.01.02.01.03 0-.22.08-.45.19-.66C140.4 182.11 140.32 182.32 140.32 182.56zM139.4 165.4c-.4.5-.4 1.1 0 1.5s1.1.4 1.5 0c.09-.09.16-.21.21-.32.05-.12.08-.26.08-.4 0-.45-.28-.84-.67-1.01C140.14 165.03 139.69 165.11 139.4 165.4z"/><path fill="#BABFC5" d="M140.09 167.28c.47 0 .86-.29 1.02-.7-.05.12-.12.23-.21.32-.4.4-1.1.4-1.5 0s-.4-1 0-1.5c.29-.29.74-.37 1.12-.23-.13-.06-.28-.09-.43-.09-.61 0-1.1.49-1.1 1.1C138.99 166.79 139.48 167.28 140.09 167.28zM130 171.53c-.34.2-.67.37-1 .52-1.33.6-2.6.85-3.8.85-2.7 0-5-1.2-6.5-2.8-.19-.19-.36-.38-.53-.58-2.46-3.02-2.29-7.5.53-10.32l-2.2 2.2c-3 3-3 7.9 0 10.9 1.4 1.4 3.5 2.6 5.9 2.8.7.1 1.6 0 2.5-.2.4-.1.9-.2 1.3-.4 1.5-.6 3.1-1.6 4.7-3.2l2.2-2.2C132.05 170.15 131.01 170.95 130 171.53z"/><path fill="#FFF" d="M125.3,171.6c2.3,0,4.7-1.2,6.9-3.4l4-4c2.2-2.2,3.4-4.8,3.4-7.3l0,0c-0.1-2.1-0.9-4.1-2.2-5.4 c-0.15-0.15-0.31-0.3-0.47-0.43c-0.95-0.79-2.11-1.29-3.33-1.43c-0.02,0-0.04-0.01-0.07-0.01c-0.21-0.02-0.42-0.03-0.63-0.03 c-1.06,0-2.09,0.27-3,0.77c-0.36,0.2-0.71,0.43-1.03,0.7c-0.16,0.13-0.32,0.28-0.47,0.43l-8.7,8.7c-1.2,1.2-1.9,2.8-1.9,4.5 s0.7,3.3,1.9,4.5C121.3,170.7,123.3,171.6,125.3,171.6z M127.61,163.2c0.01,0,0.01,0,0.02,0c0.28-0.01,0.57,0.09,0.77,0.3 c0.2,0.2,0.3,0.48,0.3,0.75c0,0.02,0.01,0.03,0.01,0.05c0,0.61-0.49,1.1-1.1,1.1c-0.61,0-1.1-0.49-1.1-1.1 C126.51,163.69,127,163.2,127.61,163.2z M122.66,165.17c0.02-0.02,0.02-0.05,0.04-0.07c0.5-0.5,1.4-0.5,1.9,0s0.5,1.4,0,1.9 c-0.25,0.25-0.6,0.38-0.95,0.37c-0.03,0-0.05,0.02-0.08,0.02c-0.72,0-1.3-0.58-1.3-1.3C122.27,165.73,122.42,165.4,122.66,165.17z"/><path fill="#CDD0D5" d="M125.2,172.9c1.2,0,2.47-0.25,3.8-0.85c0.33-0.15,0.67-0.32,1-0.52c1.01-0.59,2.05-1.38,3.1-2.43l1.8-1.8 l2.1-2.1c2.5-2.5,3.6-5.1,3.8-7.5h0.09c0-0.03,0.01-0.07,0.01-0.1v-1.3c-0.1-2.4-1.2-4.5-2.6-5.8c-1.5-1.5-3.5-2.2-5.4-2.2 c-2,0-3.9,0.8-5.4,2.2l-8.7,8.7c-2.91,2.81-3.09,7.29-0.63,10.32c0.16,0.2,0.34,0.4,0.53,0.58C120.3,171.7,122.6,172.9,125.2,172.9 z M117.8,164.7c0-1.7,0.7-3.3,1.9-4.5l8.7-8.7c0.15-0.15,0.31-0.29,0.47-0.43c0.32-0.27,0.67-0.5,1.03-0.7 c0.91-0.5,1.93-0.77,3-0.77c0.21,0,0.42,0.01,0.63,0.03c0.02,0,0.04,0.01,0.07,0.01c1.17,0.13,2.33,0.59,3.33,1.43 c0.16,0.14,0.32,0.28,0.47,0.43c1.4,1.4,2.2,3.3,2.2,5.4l0,0c0,2.5-1.1,5.1-3.4,7.3l-4,4c-2.2,2.3-4.5,3.4-6.9,3.4 c-2,0-4.1-0.9-5.6-2.4C118.5,168,117.8,166.4,117.8,164.7z"/><path fill="#CDD0D5" d="M137 165.2l.1-.1c2.47-2.47 3.57-5.03 3.79-7.4h-.09C140.6 160.1 139.5 162.7 137 165.2zM137.4 151.5c1.3 1.3 2.1 3.3 2.2 5.4C139.6 154.8 138.8 152.9 137.4 151.5zM132.2 168.2c-2.2 2.2-4.6 3.4-6.9 3.4C127.7 171.6 130 170.5 132.2 168.2z"/><path fill="#CDD0D5" d="M125.3 171.6c-2 0-4-.9-5.6-2.4C121.2 170.7 123.3 171.6 125.3 171.6zM133.59 149.64c1.23.14 2.38.64 3.33 1.43C135.92 150.23 134.77 149.77 133.59 149.64zM132.9 149.6c.21 0 .42.01.63.03C133.32 149.61 133.11 149.6 132.9 149.6zM128.87 151.07c.32-.27.67-.5 1.03-.7C129.54 150.57 129.19 150.81 128.87 151.07z"/><path fill="#BABFC5" d="M122.7,167c0.25,0.25,0.6,0.37,0.95,0.37c0.68-0.04,1.22-0.59,1.22-1.28c0-0.72-0.58-1.3-1.3-1.3 c-0.36,0-0.68,0.14-0.91,0.38C122.21,165.68,122.22,166.52,122.7,167z"/><path fill="#BABFC5" d="M123.57 167.39c.03 0 .05-.01.08-.02-.35 0-.7-.13-.95-.37-.48-.48-.49-1.32-.04-1.83-.24.24-.39.56-.39.92C122.27 166.81 122.85 167.39 123.57 167.39zM126.9 165c.4.4 1.1.4 1.5 0 .2-.2.3-.47.3-.75-.03-.58-.49-1.04-1.07-1.05-.27.01-.53.1-.73.3C126.5 164 126.5 164.6 126.9 165z"/><path fill="#BABFC5" d="M127.61 165.4c.61 0 1.1-.49 1.1-1.1 0-.02-.01-.03-.01-.05 0 .27-.1.55-.3.75-.4.4-1.1.4-1.5 0s-.4-1 0-1.5c.19-.19.46-.29.73-.3-.01 0-.01 0-.02 0-.61 0-1.1.49-1.1 1.1C126.51 164.91 127 165.4 127.61 165.4zM103.94 151.23c-.53 0-.95-.43-.95-.95s.43-.95.95-.95h14.17l7.8-7.79L60.47 76.1c-5.35-5.35-14.02-5.35-19.37 0s-5.35 14.02 0 19.37l65.43 65.43 9.68-9.67H103.94zM46.77 94.06c0-.52.43-.95.95-.95h21.97c.53 0 .95.43.95.95s-.43.95-.95.95H47.72C47.19 95.01 46.77 94.58 46.77 94.06zM54.8 102.09c0-.52.43-.95.95-.95h21.97c.53 0 .95.43.95.95s-.43.95-.95.95H55.75C55.22 103.04 54.8 102.61 54.8 102.09zM62.83 110.12c0-.52.43-.95.95-.95h21.97c.53 0 .95.43.95.95s-.42.95-.95.95H63.78C63.25 111.07 62.83 110.64 62.83 110.12zM70.86 118.15c0-.52.43-.95.95-.95h21.97c.53 0 .95.43.95.95s-.42.95-.95.95H71.81C71.28 119.1 70.86 118.67 70.86 118.15zM78.89 126.18c0-.52.43-.95.95-.95h21.97c.53 0 .95.43.95.95s-.42.95-.95.95H79.84C79.31 127.13 78.89 126.7 78.89 126.18zM86.93 134.22c0-.52.43-.95.95-.95h21.97c.53 0 .95.43.95.95s-.43.95-.96.95H87.88C87.35 135.17 86.93 134.74 86.93 134.22zM94.96 142.25c0-.52.43-.95.95-.95h21.97c.53 0 .95.43.95.95s-.43.95-.95.95H95.91C95.38 143.2 94.96 142.77 94.96 142.25z"/><path fill="#F1F1F2" d="M70.64 94.06c0-.52-.42-.95-.95-.95H47.72c-.52 0-.95.43-.95.95s.42.95.95.95h21.97C70.21 95.01 70.64 94.58 70.64 94.06zM78.67 102.09c0-.52-.42-.95-.95-.95H55.75c-.52 0-.95.43-.95.95s.42.95.95.95h21.97C78.24 103.04 78.67 102.61 78.67 102.09zM86.7 110.12c0-.52-.42-.95-.95-.95H63.78c-.52 0-.95.43-.95.95s.42.95.95.95h21.97C86.28 111.07 86.7 110.64 86.7 110.12zM94.73 118.15c0-.52-.42-.95-.95-.95H71.81c-.52 0-.95.43-.95.95s.42.95.95.95h21.97C94.31 119.1 94.73 118.67 94.73 118.15zM102.76 126.18c0-.52-.42-.95-.95-.95H79.84c-.52 0-.95.43-.95.95s.42.95.95.95h21.97C102.34 127.13 102.76 126.7 102.76 126.18zM110.8 134.22c0-.52-.42-.95-.95-.95H87.88c-.52 0-.95.43-.95.95s.42.95.95.95h21.96C110.37 135.17 110.8 134.74 110.8 134.22zM118.83 142.25c0-.52-.42-.95-.95-.95H95.91c-.52 0-.95.43-.95.95s.42.95.95.95h21.97C118.4 143.2 118.83 142.77 118.83 142.25zM102.99 150.28c0 .52.42.95.95.95h12.27l1.9-1.9h-14.17C103.42 149.33 102.99 149.76 102.99 150.28z"/><path fill="#BABFC5" d="M28,145.9l23.4,4.1l-3.7-25.6h-0.1V124c0-0.3-0.1-0.5-0.2-0.8l-0.1-0.3c-0.1-0.2-0.1-0.4-0.2-0.6L47,122	l-0.2-0.6l-0.1-0.3c-0.1-0.2-0.2-0.5-0.3-0.7l-0.1-0.2c-0.1-0.3-0.3-0.6-0.4-0.9l-0.1-0.1c-0.1-0.2-0.3-0.5-0.4-0.7l-0.2-0.3	l-0.4-0.6l-0.2-0.3c-0.1-0.2-0.2-0.3-0.4-0.5l-0.2-0.3c-0.1-0.2-0.3-0.4-0.5-0.5l-0.2-0.2c-0.2-0.3-0.5-0.5-0.7-0.8	c-1.8-1.8-3.8-3.1-6-4c-1.1-0.4-2.2-0.8-3.4-1s-2.3-0.3-3.5-0.3c-2.9,0-5.8,0.7-8.5,2.1c-1.6,0.8-3.1,1.9-4.4,3.2	c-7.1,7.1-7.1,18.7,0,25.8C19.9,143.7,23.9,145.5,28,145.9z"/><path fill="#BABFC5" d="M23.3,135.3c-1.2-1.1-2.2-2.4-2.8-3.9c-0.1-0.3,0-0.6,0.3-0.7c0.2-0.1,0.6,0,0.7,0.3	c0.5,1.4,1.4,2.5,2.5,3.5c3.2,2.7,7.9,2.8,11.2,0.3c2.2-1.7,3.5-4.3,3.5-7.1s-1.3-5.4-3.5-7.1c-3.2-2.4-7.8-2.4-10.9,0	c-2.2,1.7-3.5,4.3-3.5,7.1c0,0.3-0.2,0.5-0.5,0.5s-0.5-0.2-0.5-0.5c0-3.1,1.4-6,3.9-7.9c3.5-2.7,8.6-2.7,12.1,0	c2.5,1.9,3.9,4.8,3.9,7.9c0,3.1-1.4,6-3.9,7.9c-1.8,1.4-3.9,2.1-6.1,2.1C27.4,137.7,25.1,136.9,23.3,135.3L23.3,135.3z"/><path fill="#959CA5" d="M35.8 135.6c2.5-1.9 3.9-4.8 3.9-7.9s-1.4-6-3.9-7.9c-3.5-2.7-8.6-2.7-12.1 0-2.5 1.9-3.9 4.8-3.9 7.9 0 .3.2.5.5.5s.5-.2.5-.5c0-2.8 1.3-5.4 3.5-7.1 3.2-2.4 7.8-2.4 10.9 0 2.2 1.7 3.5 4.3 3.5 7.1 0 2.8-1.3 5.4-3.5 7.1-3.3 2.6-8 2.5-11.2-.3-1.1-1-2-2.1-2.5-3.5-.1-.3-.4-.4-.6-.3-.3.1-.4.4-.3.7.6 1.5 1.5 2.8 2.8 3.9 1.8 1.6 4.1 2.4 6.4 2.4C31.9 137.7 34 137 35.8 135.6L35.8 135.6zM16.4 79.6c-.3.3-.3.7 0 .9.1.1.3.2.5.2s.3-.1.5-.2L42.9 55 42 54.1 16.4 79.6zM20.3 83.5c-.3.3-.3.7 0 .9.1.1.3.2.5.2s.3-.1.5-.2l25.5-25.5-1-.9L20.3 83.5z"/><path fill="#BABFC5" d="M41.9,54.1l0.9,0.9l2.9,2.9l0.9,0.9l0.9,0.9L83,24.4l-6.8-6.8L40.9,53L41.9,54.1z M74.4,19.7l6.5,6.5	L80,27.1l-6.5-6.5L74.4,19.7z M50.6,56.4l-0.9,0.9l-6.5-6.5l0.9-0.9L50.6,56.4z"/><path fill="#FFF" d="M73.5,20.6l0.9-0.9l6.5,6.5L80,27.1L73.5,20.6z M43.2,50.9l0.9-0.9l6.5,6.5l-0.9,0.9L43.2,50.9z"/><path fill="#BABFC5" d="M72.4,140l-5.5,5.5c1.4,1.4,2.6,2.8,3.9,4.2c8.3,10,13.4,22.9,13.4,37l-58.5-0.2l66.2,0.2	c-0.1-15.9-5.7-30.6-15.2-42C75.4,143.1,74,141.6,72.4,140z"/><path fill="#FFF" d="M84.2,186.7c-0.1-14-5.1-26.9-13.4-37c-1.2-1.5-2.5-2.9-3.9-4.2l-41.2,41h0.1L84.2,186.7z M80.5,177	c0,3.3-2.7,6-6,6s-6-2.7-6-6s2.7-6,6-6S80.5,173.7,80.5,177z M68.3,164c0.7-1.1,1.9-1.6,3.1-1.6c0.7,0,1.5,0.2,2.1,0.6	c1.7,1.2,2.2,3.5,1,5.2l-0.1,0.1l-6.2-4.2L68.3,164z M47.5,172.2l-1.3,7H46c-2-0.4-3.2-2.2-2.9-4.2c0.3-1.7,1.8-2.9,3.5-2.9	c0.2,0,0.5,0,0.7,0.1L47.5,172.2L47.5,172.2z M37.4,186.5c0.3-3.1,2.9-5.5,6-5.5c3.2,0,5.8,2.4,6,5.5H37.4z M57.9,173	c-3.3,0-6.1-2.7-6.1-6s2.7-6,6.1-6c3.3,0,6,2.7,6,6S61.2,173,57.9,173z"/><circle fill="#959CA5" cx="57.9" cy="167" r="6"/><circle fill="#959CA5" cx="74.4" cy="177" r="6"/><path fill="#959CA5" d="M43.4,181.1c-3.1,0-5.7,2.4-6,5.5h12C49.2,183.5,46.6,181.1,43.4,181.1z"/><path fill="#DADCE0" d="M43.2,175c-0.4,2,0.9,3.8,2.9,4.2h0.2l1.3-7h-0.2c-0.2,0-0.4-0.1-0.7-0.1C45,172.1,43.5,173.3,43.2,175	L43.2,175z M74.5,168.2c1.2-1.7,0.7-4.1-1-5.2c-0.6-0.4-1.4-0.6-2.1-0.6c-1.2,0-2.4,0.6-3.1,1.6l-0.1,0.2l6.2,4.2L74.5,168.2z"/><path fill="#BABFC5" d="M22.8,18.7l0.1,0.1H26c2.3,0,4.1,1.9,4.1,4.1V26l0.7,0.7l2.9-2.9v-5.9c0-1.5-1.3-2.8-2.8-2.8h-4.7l-3.6,3.6	H22.8z M28,13.4l-0.4,0.4H31c2.3,0,4.1,1.9,4.1,4.1v4.5l1-1c1.8-1.8,2.1-4.4,1.1-6.5c-0.3-0.6-0.6-1.1-1.1-1.5	C33.9,11.2,30.3,11.2,28,13.4z M26.2,31.4l-2-2v4L26.2,31.4z M19.5,37.8c-0.4,0.2-0.8,0.4-1.3,0.5v-4.5c0-1.5-1.3-2.8-2.8-2.8h-4.2	c-0.7,2-0.2,4.3,1.4,5.8c0.5,0.5,1,0.8,1.6,1.1C15.9,38.8,17.9,38.8,19.5,37.8z M19.5,24.8l-1.4-1.4l3.3-3.3l-4.6,4.7H19.5z M15.5,29.8c2.3,0,4.1,1.9,4.1,4.1v3.9c0.4-0.2,0.8-0.5,1.1-0.8l2.1-2.1V29c0-0.4-0.1-0.7-0.2-1L21,26.3c-0.3-0.1-0.6-0.2-1-0.2	h-4.7l-2.8,2.8c-0.3,0.3-0.5,0.6-0.7,0.9L15.5,29.8z M26,20.1h-1.8l4.6,4.6v-1.8C28.8,21.4,27.5,20.1,26,20.1z"/><path fill="#FFF" d="M15.5,31.1c1.5,0,2.8,1.3,2.8,2.8v4.5c0.4-0.1,0.9-0.3,1.3-0.5h0.1V34c0-2.3-1.8-4.1-4.1-4.1H12	c-0.3,0.4-0.5,0.9-0.6,1.3h4.1V31.1z M22.8,34.8l1.3-1.3v-4L22.6,28c0.1,0.3,0.2,0.6,0.2,1L22.8,34.8z M20,26.1c0.4,0,0.7,0.1,1,0.2	l-1.5-1.5h-2.8l-1.3,1.3H20z M22.7,18.8l-1.3,1.3L22.7,18.8z M26,18.8h-3.1l1.3,1.3H26c1.5,0,2.8,1.3,2.8,2.8v1.8l1.3,1.3v-3.1	C30.1,20.6,28.3,18.8,26,18.8z M31,15.1c1.5,0,2.8,1.3,2.8,2.8v5.9l1.3-1.3v-4.6c0-2.3-1.9-4.1-4.1-4.1h-3.3l-1.3,1.3	C26.4,15.1,31,15.1,31,15.1z"/><path fill="#959CA5" d="M30.9,26.7L30.1,26l-1.3-1.3l-4.6-4.6l-1.3-1.3l-0.1-0.1l-0.1,0.1l-1.3,1.3l-3.3,3.3l1.4,1.4l1.5,1.5	l1.6,1.6l1.5,1.5l2.1,2l4.7,4.7l0.1,0.1l4.7-4.7l-0.1-0.1L30.9,26.7z"/><path fill="#FFF" d="M272,151.6c-0.2-0.3-0.6-0.4-0.9-0.2L261,161.5c-0.4,0.4-0.9,0.5-1.4,0.2c-0.6-0.4-0.6-1.2-0.2-1.7	l10.3-10.8c0.3-0.3,0.3-0.8,0-1.1s-0.7-0.3-1,0L258,158.5c-0.4,0.4-0.9,0.5-1.4,0.2c-0.6-0.4-0.7-1.2-0.2-1.7l10-10	c0.3-0.3,0.2-0.8-0.2-0.9c-0.2,0-0.4,0-0.5,0.1c-12.2,8.1-14.4,8.9-14.6,15.5c-0.1,2-0.2,2.8-1.6,4.3l-21.1,20.3	c-0.9,0.9-0.9,2.4,0,3.3c0.9,0.9,2.4,0.9,3.3,0l20.5-21c1.5-1.4,2.2-1.5,4.2-1.6c6.5-0.3,7.3-2.5,15.6-14.5	C272.1,152.1,272.1,151.9,272,151.6L272,151.6z M192.9,92.5l-7-7l10.9-10.9l20.6,20.6l-10.9,10.9l-7.5-7.5c-0.2,0.6-0.5,1.2-1,1.7	l8.6,8.6l13.6-13.6l-23.5-23.5l-13.6,13.6l8.1,8.1c0.2-0.2,0.4-0.3,0.6-0.5C192.2,92.8,192.5,92.6,192.9,92.5L192.9,92.5z"/><path fill="#FFF" d="M215.5,95.3l-18.8-18.8l-9,9l6.8,6.8c0.9,0,1.7,0.3,2.5,0.8c1.2,0.8,2,2.1,2.2,3.6v0.4l7.3,7.3L215.5,95.3z M194,93.6c-0.5,0.1-1,0.2-1.5,0.5c-0.1,0.1-0.3,0.2-0.4,0.3l4.9,4.9c0.5-0.5,0.8-1.2,0.8-1.9L194,93.6z"/><path fill="#BABFC5" d="M217.4,95.3l-20.6-20.6L186,85.6l7,7c0.5-0.2,1.1-0.2,1.6-0.2l-6.8-6.8l9-9l18.8,18.8l-9,9l-7.3-7.3	c0,0.6-0.1,1.1-0.2,1.6l7.5,7.5L217.4,95.3L217.4,95.3z M198,96.7c-0.1-1.1-0.7-2-1.6-2.6c-0.7-0.4-1.5-0.6-2.3-0.5l3.9,3.9	L198,96.7L198,96.7z"/><path fill="#959CA5" d="M159.2,133.3l31.7-31.7c0.8-0.8,1-2,0.5-2.9c-0.8-1.5-0.4-3.2,0.8-4.3c0.1-0.1,0.2-0.2,0.4-0.3	c0.4-0.3,1-0.5,1.5-0.5c0.8-0.1,1.6,0.1,2.3,0.5c0.9,0.6,1.5,1.5,1.6,2.6v0.8c-0.1,0.7-0.4,1.4-0.8,1.9l-0.2,0.2	c-0.8,0.8-1.9,1.1-2.9,1c-0.4,0-0.7,0.2-0.8,0.6c0,0.4,0.2,0.7,0.6,0.8c1.5,0.2,3-0.3,4-1.4l0.2-0.2c0.5-0.5,0.8-1.1,1-1.7	c0.2-0.5,0.2-1.1,0.2-1.6v-0.4c-0.2-1.5-1-2.8-2.2-3.6c-0.8-0.5-1.6-0.7-2.5-0.8c-0.6,0-1.1,0.1-1.6,0.2c-0.4,0.1-0.8,0.3-1.1,0.5	c-0.2,0.2-0.4,0.3-0.6,0.5c-1.6,1.5-2.1,3.9-1.1,5.8c0.2,0.4,0.1,1-0.2,1.4l-32,31.9l1.1,0.3L159.2,133.3z"/><path fill="#FFF" d="M159,132.56l-1.1-0.3l-13.2-3.2l17.8,17.8l-3.4-13.9L159,132.56z M36.1,21.16l-1,1l-1.3,1.3l-2.9,2.9	l4.7,4.7l3.5-3.5c3.2-3.2,3.2-8.4,0-11.6c-0.6-0.6-1.2-1-1.9-1.4C38.2,16.76,37.9,19.36,36.1,21.16z M26.2,31.06l-2,2l-1.3,1.3	l-2.1,2.1c-0.3,0.3-0.7,0.6-1.1,0.8h-0.1c-1.6,1-3.7,1-5.4,0.2c0.4,0.7,0.8,1.3,1.4,1.9c3.2,3.2,8.4,3.2,11.6,0l3.7-3.7L26.2,31.06z M271.9,81.76l8.3-8.3l5.9,5.9l-8.3,8.3L271.9,81.76z"/><path fill="#BABFC5" d="M232.5,100.6l-0.2,0.3l0.4-0.4L232.5,100.6z M278.7,88.9l-0.9-0.9l-5.9-5.9l-0.8-0.8l-15.9,15.9	c-7.2-3.8-16.2-2.8-22.4,3l-0.2,0.2l-0.4,0.4l-59,59l27.4,27.4l25.1-25.1L211.4,148l14.8-14.8l10.8-10.8l4.1,4.1l10.1,10.1l7.6-7.6	c0.4-0.3,0.7-0.7,1.1-1c6.3-6.3,7.3-16,3.1-23.4L278.7,88.9L278.7,88.9z"/><path fill="#FFF" d="M241.1,126.5l-4.1-4.1l-10.8,10.8L211.4,148l14.2,14.2l20.5-20.5L236,131.6c-0.3-0.3-0.3-0.7,0-0.9	s0.7-0.3,0.9,0l10.2,10.2l4.1-4.1L241.1,126.5L241.1,126.5z"/><path fill="#959CA5" d="M236.9,130.6c-0.3-0.3-0.7-0.3-0.9,0s-0.3,0.7,0,0.9l10.2,10.2l0.9-0.9L236.9,130.6z"/><path fill="#BABFC5" d="M318.3,18.1l19,19c0.3,0.3,0.5,0.6,0.7,1l0.3-0.2l0.5-0.3c0.3-0.2,0.5-0.4,0.8-0.6l0.4-0.3	c0.4-0.3,0.7-0.6,1.1-1c1.4-1.4,2.4-3,3.2-4.6l-1.1-0.6l0.6-1.2l1,0.5c1.7-5.2,0.5-11.2-3.6-15.4c-1.3-1.3-2.7-2.3-4.3-3	c-2.7-1.3-5.7-1.7-8.6-1.3l1,1.8l-1.2,0.6l-1.2-2.2c-1.2,0.3-2.3,0.7-3.4,1.3c-1.3,0.7-2.5,1.6-3.6,2.7c-0.4,0.4-0.7,0.7-1,1.1	l-0.3,0.4c-0.2,0.2-0.4,0.5-0.6,0.8l-0.3,0.5l-0.2,0.3C317.8,17.7,318,17.9,318.3,18.1L318.3,18.1z M338.5,20.7l3.6,2.1l-0.7,1.2	l-3.6-2.1L338.5,20.7z M330.7,15.9l3.9-0.8l0.3,1.3l-3.9,0.8L330.7,15.9z M335.5,30.3h-1.3l0.1-3.8h1.3L335.5,30.3z M322.9,15.1	l1.9,3.8l-1.2,0.6l-1.9-3.8L322.9,15.1z"/><path fill="#FFF" d="M323.5,46.2c-0.4,0-0.8-0.1-1.2-0.2c-2.5-0.5-4.8-1.7-6.8-3.6l-2.5-2.5c-2.3-2.3-3.5-5.2-3.8-8.2l-0.1-0.1	l-17.2,19.7l12,12L323.5,46.2z M312.6,26.3c-0.2,1.4-0.2,2.2,0.6,3c0.5,0.5,1.1,0.7,1.7,0.7c0.4,0,0.8-0.1,1.3-0.1	c0.5-0.1,1-0.1,1.5-0.1c0.9,0,1.8,0.2,2.7,1.1c1.3,1.3,1.1,2.8,0.9,4.1s-0.2,2.2,0.6,3c0.5,0.5,1.1,0.7,1.7,0.7c0.4,0,0.8,0,1.3-0.1	s1-0.1,1.5-0.1c0.9,0,1.8,0.2,2.7,1.1c1.3,1.3,1.1,2.8,0.9,4.1c-0.1,0.6-0.1,1.1-0.1,1.6l0.6-0.3l0.5-0.2c0.2-0.1,0.4-0.3,0.7-0.4	l0.4-0.3c0.2-0.2,0.5-0.3,0.7-0.5l0.3-0.3c0.3-0.2,0.5-0.5,0.8-0.7l-21-21c-0.3,0.3-0.5,0.6-0.8,0.9l-0.1,0.1	C312.9,23.8,312.8,25.1,312.6,26.3L312.6,26.3z"/><path fill="#FFF" d="M313.1,40l2.5,2.5c1.9,1.9,4.3,3.1,6.8,3.6c0.4,0.1,0.8,0.1,1.2,0.2c0.4,0,0.8,0.1,1.2,0.1h1.4	c0.3,0,0.5-0.1,0.8-0.1l0.3-0.1c0.3-0.1,0.7-0.2,1-0.2h0.1c-0.1-0.8,0-1.5,0.1-2.2c0.2-1.4,0.2-2.2-0.6-3c-0.5-0.5-1.1-0.7-1.7-0.7	c-0.4,0-0.8,0.1-1.3,0.1c-0.5,0.1-1,0.1-1.5,0.1c-0.9,0-1.8-0.2-2.7-1.1c-1.3-1.3-1.1-2.8-0.9-4.1c0.2-1.4,0.2-2.2-0.6-3	c-0.5-0.5-1.1-0.7-1.7-0.7c-0.4,0-0.8,0-1.3,0.1s-1,0.1-1.5,0.1c-0.9,0-1.8-0.2-2.7-1.1c-1.3-1.3-1.1-2.8-0.9-4.1	c0.1-1,0.2-1.7-0.1-2.3l-0.3,0.5l-0.2,0.3c-0.2,0.4-0.3,0.7-0.5,1.1v0.1c-0.1,0.3-0.2,0.7-0.4,1l-0.1,0.4c-0.1,0.2-0.1,0.5-0.2,0.8	l-0.1,0.5c0,0.2-0.1,0.5-0.1,0.7v2.6C309.5,34.7,310.8,37.7,313.1,40L313.1,40z"/><path fill="#AFB3BB" d="M312,22.6c-0.1-0.1-0.2-0.3-0.4-0.4l-0.9,0.9c0.2,0.2,0.4,0.5,0.5,0.7C311.5,23.4,311.7,23,312,22.6z M328.6,45.7c0.1,0.6,0.4,1.3,1,1.9l0.9-0.9c-0.4-0.4-0.6-0.9-0.7-1.4C329.4,45.4,329,45.6,328.6,45.7L328.6,45.7z"/><path fill="#CDD0D5" d="M311.3,26.1c-0.2,1.3-0.4,2.8,0.9,4.1c0.9,0.9,1.8,1.1,2.7,1.1c0.5,0,1-0.1,1.5-0.1c0.5-0.1,0.9-0.1,1.3-0.1	c0.7,0,1.2,0.2,1.7,0.7c0.8,0.8,0.7,1.7,0.6,3c-0.2,1.3-0.4,2.8,0.9,4.1c0.9,0.8,1.8,1.1,2.7,1.1c0.5,0,1-0.1,1.4-0.1	c0.5-0.1,0.9-0.1,1.3-0.1c0.7,0,1.2,0.2,1.7,0.7c0.8,0.8,0.7,1.7,0.6,3c-0.1,0.7-0.2,1.5-0.1,2.2c0.4-0.1,0.9-0.3,1.3-0.5	c0-0.5,0-1,0.1-1.6c0.2-1.3,0.4-2.8-0.9-4.1c-0.8-0.9-1.8-1.1-2.7-1.1c-0.5,0-1,0.1-1.4,0.1c-0.5,0.1-0.9,0.1-1.3,0.1	c-0.7,0-1.2-0.2-1.7-0.7c-0.8-0.8-0.7-1.7-0.6-3c0.2-1.3,0.4-2.8-0.9-4.1c-0.8-0.9-1.8-1.1-2.7-1.1c-0.5,0-1,0.1-1.5,0.1	c-0.5,0.1-0.9,0.1-1.3,0.1c-0.7,0-1.2-0.2-1.7-0.7c-0.8-0.8-0.7-1.7-0.6-3c0.2-1.2,0.3-2.5-0.5-3.7c-0.3,0.4-0.6,0.8-0.8,1.2	C311.5,24.4,311.4,25.1,311.3,26.1z"/><path fill="#BABFC5" d="M333.9,42.6l0.6,0.6c0.8,0.8,2.1,0.8,2.9,0c1.3-1.3,1.6-3.4,0.7-5c-0.2-0.4-0.4-0.7-0.7-1l-19-19	c-0.2-0.2-0.5-0.5-0.8-0.6c-1.6-1-3.8-0.8-5.1,0.6c-0.8,0.8-0.8,2.1,0,2.9l0.6,0.6L333.9,42.6z"/><path fill="#FFF" d="M330.75,15.95l3.9-0.8l0.3,1.3l-3.9,0.8L330.75,15.95z M334.25,30.35l0.1-3.8l1.3,0.1l-0.1,3.8L334.25,30.35	z M321.75,15.75l1.2-0.6l1.9,3.8l-1.2,0.6L321.75,15.75z M337.95,21.85l0.7-1.2l3.6,2.1l-0.7,1.2L337.95,21.85z M343.15,30.65	l1.1,0.6l1.7,0.9l0.6-1.2l-1.9-1l-1-0.5L343.15,30.65L343.15,30.65z M328.05,12.85l1.2-0.6l-1-1.8l-0.6-1l-1.2,0.6l0.4,0.6	L328.05,12.85z"/><g><path fill="#FFF" d="M314.11,72.4l-15.65,15.65c0,0,9.05,14.14,11.1,16.15c5.73,5.73,15.01,5.74,20.73,0.03 s5.7-14.99-0.03-20.73C329.42,82.33,314.11,72.4,314.11,72.4z"/><path transform="matrix(0.7071 -0.7071 0.7071 0.7071 19.7031 272.3794)" fill="#FFF" d="M328.87 111.8H348.41V113.00999999999999H328.87z"/><path transform="matrix(0.7071 -0.7071 0.7071 0.7071 21.476 268.107)" fill="#FFF" d="M333.77 101.84H334.97999999999996V114.41H333.77z"/><path fill="#EA4335" d="M330.26,83.49c-0.1-0.1-0.35-0.27-0.35-0.27l-5.01-3.43l-19.06,19.06l3.43,5.02 c0.1,0.11,0.2,0.21,0.3,0.32c5.73,5.73,15.01,5.74,20.73,0.03C336.01,98.5,335.99,89.22,330.26,83.49z"/><path fill="#959CA5" d="M330.26,83.49c-0.1-0.1-0.35-0.27-0.35-0.27l-5.01-3.43l-19.06,19.06l3.43,5.02 c0.1,0.11,0.2,0.21,0.3,0.32c5.73,5.73,15.01,5.74,20.73,0.03C336.01,98.5,335.99,89.22,330.26,83.49z"/><ellipse transform="matrix(0.7071 -0.7071 0.7071 0.7071 25.4629 250.663)" fill="#FFF" cx="315.31" cy="94.6" rx="1.57" ry="1.58"/><ellipse transform="matrix(0.7071 -0.7071 0.7071 0.7071 33.0299 248.5983)" fill="#959CA5" cx="316.6" cy="84.43" rx="1.09" ry="1.09"/><path fill="#FFF" d="M325.1,83.58c-0.11,0-0.23-0.03-0.33-0.1l-10.52-6.88c-0.28-0.18-0.36-0.56-0.18-0.84s0.56-0.36,0.84-0.18 l10.52,6.88c0.28,0.18,0.36,0.56,0.18,0.84C325.5,83.48,325.3,83.58,325.1,83.58z"/><ellipse transform="matrix(0.7071 -0.7071 0.7071 0.7071 25.6384 244.5339)" opacity=".7" fill="#FFF" cx="308" cy="91.32" rx="1.5" ry="1.51"/></g><g><path transform="matrix(0.7071 -0.7071 0.7071 0.7071 56.3125 188.9207)" fill="#34A853" d="M249.21 5.89H263.2V47.08H249.21z"/><ellipse transform="matrix(0.7071 -0.7071 0.7071 0.7071 50.2797 203.4849)" fill="#34A853" cx="270.77" cy="41.05" rx="7" ry="6.68"/><linearGradient id="a" gradientUnits="userSpaceOnUse" x1="1250.981" y1="-4293.795" x2="1264.538" y2="-4293.795" gradientTransform="matrix(-0.7299 0.7299 0.6969 0.6969 4168.9497 2103.1572)"><stop offset="0" style="stop-color:#FFFFFF"/><stop offset=".995" style="stop-color:#E1E2E3"/><stop offset="1" style="stop-color:#E1E2E3"/></linearGradient><path fill="url(#a)" d="M275.49,45.77c2.73-2.73,2.83-7.06,0.22-9.67c0,0,0,0-0.01-0.01L246.59,6.98l-9.89,9.89L265.82,46 C268.43,48.61,272.76,48.51,275.49,45.77z"/><path transform="matrix(0.7071 -0.7071 0.7071 0.7071 33.4078 179.4055)" fill="#FFF" d="M207.86 28.82H258.68V69.93H207.86z"/><path transform="matrix(0.7071 -0.7071 0.7071 0.7071 48.9398 166.057)" fill="#979DA5" d="M204.62 20.64H245.22V27.27H204.62z"/><ellipse transform="matrix(0.7071 -0.7071 0.7071 0.7071 62.3253 174.3856)" fill="#979DA5" cx="241.66" cy="11.96" rx="7" ry="6.68"/><linearGradient id="b" gradientUnits="userSpaceOnUse" x1="1274.07" y1="-4333.561" x2="1274.07" y2="-4313.188" gradientTransform="matrix(-0.7299 0.7299 0.6969 0.6969 4168.9497 2103.1572)"><stop offset="0" style="stop-color:#BABFC5"/><stop offset=".995" style="stop-color:#AAAFB5"/><stop offset="1" style="stop-color:#AAAFB5"/></linearGradient><path fill="url(#b)" d="M236.69,16.87c0.01,0.01,0.02,0.02,0.03,0.04c2.61,2.61,6.94,2.51,9.67-0.22s2.83-7.06,0.22-9.67 s-6.94-2.51-9.67,0.22c-0.01,0.01-0.02,0.02-0.03,0.03l0,0L208.2,35.98l4.69,4.69L236.69,16.87z"/></g><g><circle fill="#BABFC5" cx="136.24" cy="53.85" r="46.82"/><linearGradient id="c" gradientUnits="userSpaceOnUse" x1="134.695" y1="294.589" x2="76.01" y2="235.904" gradientTransform="matrix(1 0 0 -1 0 350)"><stop offset="0" style="stop-color:#FFFFFF"/><stop offset=".91" style="stop-color:#8C8D90"/><stop offset="1" style="stop-color:#808285"/></linearGradient><path opacity=".4" fill="url(#c)" d="M138.12,98.51c-25.86,0-46.82-20.96-46.82-46.82 c0-11.28,3.99-21.63,10.64-29.71c-7.77,8.36-12.53,19.56-12.53,31.87c0,25.86,20.96,46.82,46.82,46.82 c14.57,0,27.59-6.66,36.18-17.1C163.87,92.76,151.67,98.51,138.12,98.51z"/><path fill="#FFF" d="M134.96 50.16l-1.15 1.14-.4 2.4c-.06.37-.38.63-.74.63-.04 0-.08 0-.12-.01-.41-.07-.69-.45-.62-.86l.06-.34-3.73 3.7.9 1.97c.17.38.01.82-.37.99-.1.05-.21.07-.31.07-.28 0-.56-.16-.68-.44l-.67-1.47-22.19 22.01c.87 1.05 1.79 2.04 2.74 2.98l30.1-29.86L134.96 50.16zM134.14 49.32L134.14 49.34 134.15 49.33z"/><path fill="#FFF" d="M176.23,46.01l-23.98,23.81c-0.23,0.23-0.6,0.23-0.82,0c-0.23-0.23-0.23-0.6,0-0.82l24.52-24.34 c-1.3-5.63-3.81-11.07-7.61-15.92c-13.87-17.73-39.49-20.86-57.22-6.99c-11.28,8.83-16.64,22.41-15.48,35.69l36.23-35.93 c0.34-0.34,0.53-0.79,0.53-1.27s-0.18-0.93-0.52-1.27l-0.42-0.42c-0.7-0.7-1.84-0.71-2.54-0.01L102.6,43.61 c-0.23,0.22-0.6,0.21-0.82-0.02s-0.21-0.6,0.02-0.82l26.3-25.07c1.15-1.14,3.03-1.13,4.18,0.03l0.42,0.42 c0.56,0.56,0.86,1.31,0.86,2.1s-0.31,1.53-0.88,2.09L95.79,58.93c0.2,1.64,0.51,3.27,0.92,4.88c0.41-0.03,0.8-0.2,1.11-0.51 l18.07-17.92c0.23-0.23,0.6-0.23,0.82,0c0.23,0.23,0.23,0.6,0,0.82L98.65,64.13c-0.46,0.46-1.03,0.72-1.63,0.81 c1.4,4.95,3.75,9.72,7.12,14.02c0.02,0.02,0.04,0.05,0.06,0.07l22.42-22.23l-0.84-1.8c-0.17-0.38-0.01-0.82,0.37-0.99 c0.38-0.17,0.82-0.01,0.99,0.37l0.6,1.31l4.57-4.53l0.43-2.56c0.03-0.18,0.13-0.33,0.26-0.44l-1.36-1.4l-16.83,16.7 c-1.16,1.15-3.04,1.14-4.19-0.02l-0.48-0.48c-0.56-0.56-0.86-1.31-0.86-2.1c0-0.79,0.31-1.53,0.88-2.09l13.72-13.61 c-0.01-0.18,0.04-0.35,0.16-0.5c0.15-0.19,0.38-0.27,0.61-0.26l21.42-21.24c0.7-0.7,0.71-1.84,0.01-2.54l-0.48-0.49 c-0.7-0.7-1.84-0.71-2.54-0.01L124.5,38.53c-0.23,0.23-0.6,0.23-0.82,0c-0.23-0.23-0.23-0.6,0-0.82l18.56-18.41 c1.16-1.15,3.04-1.14,4.19,0.02l0.48,0.49c1.15,1.16,1.14,3.04-0.02,4.19l-21.21,21.04l3.34,2.72l1.83-1.81l-0.97-1l13.3-13.3 c1.41-2.03,3.3-3.93,5.41-5.41l0.06-0.06l0.01,0.01c0.65-0.45,1.31-0.88,1.99-1.24c6.71-3.6,12.18-1.25,14.9,3.81 c2.26,4.22,1.89,8.98-2.18,12.54l0.01,0.01l-18.82,18.74l-2.62-2.69l-5.83,5.78l-0.46,3.96c-0.04,0.38-0.37,0.66-0.74,0.66 c-0.03,0-0.06,0-0.09,0c-0.41-0.05-0.71-0.42-0.66-0.83l0.24-2.09l-13.55,13.44c-0.34,0.34-0.53,0.79-0.53,1.27 s0.18,0.93,0.52,1.27l0.48,0.49c0.7,0.7,1.84,0.71,2.54,0.01l40.74-40.4c0.56-0.55,1.3-0.86,2.09-0.86h0.01 c0.79,0,1.53,0.31,2.09,0.88l0.34,0.34c1.15,1.16,1.14,3.04-0.02,4.19l-33.49,33.22c-0.34,0.34-0.53,0.79-0.53,1.27 s0.18,0.93,0.52,1.27l0.48,0.48c0.7,0.7,1.84,0.71,2.54,0.01l6.05-6c0.23-0.23,0.6-0.23,0.82,0c0.23,0.23,0.23,0.6,0,0.82l-6.05,6 c-1.16,1.15-3.04,1.14-4.19-0.02L134.77,82c-0.56-0.56-0.86-1.31-0.86-2.1s0.31-1.53,0.88-2.09l33.49-33.22 c0.7-0.7,0.71-1.84,0.01-2.54l-0.34-0.34c-0.34-0.34-0.79-0.53-1.27-0.53c-0.49-0.04-0.93,0.18-1.27,0.52l-40.74,40.4 c-1.16,1.15-3.04,1.14-4.19-0.02L120,81.59c-1.15-1.16-1.14-3.04,0.02-4.19l14.58-14.47l0.12-1.02c0.05-0.41,0.43-0.7,0.83-0.66 c0.2,0.02,0.36,0.12,0.48,0.26l4.68-4.64l-1.55,0.67c-0.1,0.04-0.2,0.06-0.3,0.06c-0.29,0-0.57-0.17-0.69-0.45 c-0.17-0.38,0.01-0.82,0.39-0.99l1.58-0.69l-1.54-1.59l-30.08,29.83c7.14,6.64,16.25,10.31,25.57,10.81l42.82-43.38 C176.79,49.44,176.56,47.72,176.23,46.01z"/><path fill="#FFF" d="M110.97 59.59c-.34.34-.53.79-.53 1.27s.18.93.52 1.27l.48.48c.7.7 1.84.71 2.54.01l13.94-13.83-3.34-2.72L110.97 59.59zM135.67 94.6c1.78.03 3.57-.06 5.35-.27l18.88-18.68c.23-.23.6-.22.82 0 .23.23.22.6 0 .82l-17.77 17.58c6.5-1.08 12.84-3.76 18.4-8.11 10.58-8.28 15.96-20.73 15.63-33.2L135.67 94.6zM151.42 69.82c.23.23.6.23.82 0l23.98-23.81c-.09-.45-.18-.91-.29-1.36l-24.52 24.34C151.2 69.22 151.2 69.59 151.42 69.82z"/><path fill="#FFF" d="M160.72,75.65c-0.23-0.23-0.6-0.23-0.82,0l-18.88,18.68c0.65-0.08,1.29-0.17,1.93-0.27l17.77-17.58 C160.95,76.25,160.95,75.88,160.72,75.65z"/><path opacity=".25" fill="#263238" d="M160.72,75.65c-0.23-0.23-0.6-0.23-0.82,0l-18.88,18.68 c0.65-0.08,1.29-0.17,1.93-0.27l17.77-17.58C160.95,76.25,160.95,75.88,160.72,75.65z"/><path fill="#FFF" d="M176.9 51.16l-42.82 43.38c.53.03 1.05.05 1.58.06l41.31-41.85C176.96 52.22 176.94 51.69 176.9 51.16zM137.78 53.07l-30.1 29.86c.28.27.55.55.84.81L138.6 53.9 137.78 53.07z"/><path opacity=".25" fill="#263238" d="M137.78,53.07l-30.1,29.86c0.28,0.27,0.55,0.55,0.84,0.81 L138.6,53.9L137.78,53.07z"/><path fill="#FFF" d="M134.14 49.34L133.81 51.3 134.96 50.16 134.15 49.33z"/><path opacity=".25" fill="#263238" d="M134.14 49.34L133.81 51.3 134.96 50.16 134.15 49.33z"/><path fill="#FFF" d="M126.61,56.8l-22.42,22.23c0.24,0.31,0.49,0.6,0.74,0.9l22.19-22.01L126.61,56.8z"/><path opacity=".25" fill="#263238" d="M126.61,56.8l-22.42,22.23c0.24,0.31,0.49,0.6,0.74,0.9 l22.19-22.01L126.61,56.8z"/><path fill="#FFF" d="M120.01,77.4c-1.16,1.15-1.17,3.03-0.02,4.19l0.48,0.49c1.15,1.16,3.03,1.17,4.19,0.02l40.74-40.4 c0.34-0.34,0.79-0.57,1.27-0.52c0.48,0,0.93,0.19,1.27,0.53l0.34,0.34c0.7,0.7,0.69,1.85-0.01,2.54L134.79,77.8 c-0.56,0.56-0.87,1.3-0.88,2.09c0,0.79,0.3,1.54,0.86,2.1l0.48,0.48c1.15,1.16,3.03,1.17,4.19,0.02l6.05-6 c0.23-0.23,0.23-0.6,0-0.82c-0.23-0.23-0.6-0.23-0.82,0l-6.05,6c-0.7,0.7-1.85,0.69-2.54-0.01l-0.48-0.48 c-0.34-0.34-0.52-0.79-0.52-1.27s0.19-0.93,0.53-1.27l33.49-33.22c1.16-1.15,1.17-3.03,0.02-4.19l-0.34-0.34 c-0.56-0.56-1.3-0.87-2.09-0.88h-0.01c-0.79,0-1.53,0.31-2.09,0.86l-40.74,40.4c-0.7,0.7-1.85,0.69-2.54-0.01l-0.48-0.49 c-0.34-0.34-0.52-0.79-0.52-1.27s0.19-0.93,0.53-1.27l13.55-13.44l0.22-1.86L120.01,77.4z"/><path fill="#FFF" d="M140.71,56.88l-4.68,4.64c0.13,0.15,0.2,0.35,0.18,0.57l-0.12,1.01l5.83-5.78l-0.66-0.68L140.71,56.88z"/><path opacity=".25" fill="#263238" d="M140.71,56.88l-4.68,4.64c0.13,0.15,0.2,0.35,0.18,0.57 l-0.12,1.01l5.83-5.78l-0.66-0.68L140.71,56.88z"/><path fill="#FFF" d="M131.99 53.11L132.32 51.14 127.75 55.68 128.26 56.81z"/><path opacity=".25" fill="#263238" d="M131.99 53.11L132.32 51.14 127.75 55.68 128.26 56.81z"/><path fill="#FFF" d="M129,47.73l0.02,0.02c0.32,0.26,0.37,0.73,0.11,1.06c-0.15,0.18-0.36,0.28-0.58,0.28 c-0.17,0-0.33-0.06-0.47-0.17l-0.15-0.12l-13.94,13.83c-0.7,0.7-1.85,0.69-2.54-0.01l-0.48-0.48c-0.34-0.34-0.52-0.79-0.52-1.27 s0.19-0.93,0.53-1.27l13.62-13.51l-0.45-0.37c-0.17-0.14-0.26-0.35-0.27-0.55l-13.72,13.61c-0.56,0.56-0.87,1.3-0.88,2.09 c0,0.79,0.3,1.54,0.86,2.1l0.48,0.48c1.15,1.16,3.03,1.17,4.19,0.02l16.83-16.7l-0.81-0.83L129,47.73z"/><path opacity=".25" fill="#263238" d="M129,47.73l0.02,0.02c0.32,0.26,0.37,0.73,0.11,1.06 c-0.15,0.18-0.36,0.28-0.58,0.28c-0.17,0-0.33-0.06-0.47-0.17l-0.15-0.12l-13.94,13.83c-0.7,0.7-1.85,0.69-2.54-0.01l-0.48-0.48 c-0.34-0.34-0.52-0.79-0.52-1.27s0.19-0.93,0.53-1.27l13.62-13.51l-0.45-0.37c-0.17-0.14-0.26-0.35-0.27-0.55l-13.72,13.61 c-0.56,0.56-0.87,1.3-0.88,2.09c0,0.79,0.3,1.54,0.86,2.1l0.48,0.48c1.15,1.16,3.03,1.17,4.19,0.02l16.83-16.7l-0.81-0.83 L129,47.73z"/><path fill="#FFF" d="M125.66 45.01l21.21-21.04c1.16-1.15 1.17-3.03.02-4.19l-.48-.49c-1.15-1.16-3.03-1.17-4.19-.02l-18.56 18.41c-.23.23-.23.6 0 .82.23.23.6.23.82 0l18.56-18.41c.7-.7 1.85-.69 2.54.01l.48.49c.7.7.69 1.85-.01 2.54l-21.42 21.24c.16.01.31.05.44.16L125.66 45.01zM133.57 20.25c0-.79-.3-1.54-.86-2.1l-.42-.42c-1.15-1.16-3.03-1.17-4.18-.03L101.8 42.77c-.23.22-.24.59-.02.82s.59.24.82.02l26.32-25.08c.71-.7 1.85-.69 2.54.01l.42.42c.34.34.52.79.52 1.27s-.19.93-.53 1.27L95.64 57.44c.04.5.09.99.15 1.49l36.89-36.59C133.25 21.78 133.56 21.04 133.57 20.25zM116.72 46.21c.23-.23.23-.6 0-.82-.23-.23-.6-.23-.82 0L97.83 63.3c-.31.31-.71.47-1.11.51.1.38.19.76.3 1.14.6-.09 1.17-.36 1.63-.81L116.72 46.21z"/><path opacity=".25" fill="#263238" d="M116.72,46.21c0.23-0.23,0.23-0.6,0-0.82 c-0.23-0.23-0.6-0.23-0.82,0L97.83,63.3c-0.31,0.31-0.71,0.47-1.11,0.51c0.1,0.38,0.19,0.76,0.3,1.14 c0.6-0.09,1.17-0.36,1.63-0.81L116.72,46.21z"/><path fill="#90A4AE" d="M131.93 53.45c-.07.41.21.79.62.86.04.01.08.01.12.01.36 0 .68-.26.74-.63l.4-2.4-1.82 1.81L131.93 53.45zM134.14 49.32L133 48.15c-.13.11-.23.26-.26.44l-.43 2.56 1.82-1.81L134.14 49.32z"/><path fill="#90A4AE" d="M133.81 51.3L134.14 49.34 132.32 51.14 131.99 53.11zM124.03 44.65c-.12.15-.17.33-.16.5l.77-.76C124.41 44.38 124.18 44.46 124.03 44.65zM127.93 48.79L129 47.73 125.66 45.01 124.59 46.08z"/><path fill="#90A4AE" d="M128.07 48.91c.14.11.31.17.47.17.22 0 .43-.09.58-.28.26-.32.21-.79-.11-1.06L129 47.73l-1.07 1.06L128.07 48.91zM124.13 45.71l.45.37 1.07-1.06-.58-.47c-.13-.11-.29-.15-.44-.16l-.77.76C123.87 45.36 123.96 45.56 124.13 45.71zM140.14 55.49l-1.58.69c-.38.17-.55.61-.39.99.12.28.4.45.69.45.1 0 .2-.02.3-.06l1.55-.67.4-.4L140.14 55.49z"/><path fill="#90A4AE" d="M141.11 56.48L140.71 56.88 141.26 56.64z"/><g fill="#90A4AE"><path d="M129.16,58.78l-0.9-1.97l-1.13,1.13l0.67,1.46c0.13,0.28,0.4,0.44,0.68,0.44c0.1,0,0.21-0.02,0.31-0.07 C129.17,59.6,129.33,59.15,129.16,58.78z"/><path d="M127.18,56.24l0.57-0.57l-0.6-1.3c-0.17-0.38-0.62-0.54-0.99-0.37c-0.38,0.17-0.54,0.62-0.37,0.99 l0.83,1.8l-0.01,0.01l0.52,1.13l1.13-1.12l-0.51-1.13L127.18,56.24z"/></g><path fill="#90A4AE" d="M135.55 61.25c-.4-.04-.78.25-.83.66l-.12 1.02 1.43-1.42C135.91 61.38 135.75 61.28 135.55 61.25zM134.14 66.88c-.05.41.25.78.66.83.03 0 .06 0 .09 0 .38 0 .7-.28.74-.66l.46-3.96-1.71 1.69L134.14 66.88z"/><path fill="#90A4AE" d="M136.03,61.52l-1.43,1.42l-0.22,1.86l1.71-1.69l0.12-1.01C136.23,61.87,136.16,61.67,136.03,61.52z"/><path fill="#FFF" d="M148.63,26.15l-0.06,0.06c0.02-0.02,0.05-0.03,0.07-0.05L148.63,26.15z"/><linearGradient id="d" gradientUnits="userSpaceOnUse" x1="-2694.451" y1="-2482.356" x2="-2694.451" y2="-2456.131" gradientTransform="matrix(-0.5243 -0.5243 -0.5184 0.5184 -2554.7983 -95.8127)"><stop offset="0" style="stop-color:#90A4AE"/><stop offset="1" style="stop-color:#FFFFFF"/></linearGradient><path opacity=".6" fill="url(#d)" d="M148.63,26.15l-0.06,0.06 c0.02-0.02,0.05-0.03,0.07-0.05L148.63,26.15z"/><path fill="#FFF" d="M142.17 43.01l-3.7 3.67 1.48-.22c.41-.06.79.22.85.63s-.22.79-.63.85l-3.49.51-1.73 1.71 2.83 2.9 1.58-1.57c1.16-1.15 3.04-1.14 4.19.02.56.56.86 1.31.86 2.1 0 .35-.07.69-.19 1.02.1.36-.06.74-.41.89l-.19.08c-.03.03-.05.07-.08.1l-1.62 1.6 2.62 2.69 18.82-18.74-.01-.01c-.81.71-1.76 1.38-2.88 1.98C154.38 46.51 145.74 46.78 142.17 43.01zM143.16 31.62l-13.3 13.3.97 1 10.22-10.14C141.5 34.39 142.21 32.97 143.16 31.62z"/><path fill="#FFF" d="M143.25,53.61c0-0.48-0.18-0.93-0.52-1.27c-0.7-0.7-1.84-0.71-2.54-0.01l-1.59,1.57l1.54,1.59l3.01-1.31 C143.21,54,143.25,53.81,143.25,53.61z"/><linearGradient id="e" gradientUnits="userSpaceOnUse" x1="-2713.643" y1="-2482.356" x2="-2713.643" y2="-2456.131" gradientTransform="matrix(-0.5243 -0.5243 -0.5184 0.5184 -2554.7983 -95.8127)"><stop offset="0" style="stop-color:#90A4AE"/><stop offset="1" style="stop-color:#FFFFFF"/></linearGradient><path opacity=".6" fill="url(#e)" d="M143.25,53.61c0-0.48-0.18-0.93-0.52-1.27 c-0.7-0.7-1.84-0.71-2.54-0.01l-1.59,1.57l1.54,1.59l3.01-1.31C143.21,54,143.25,53.81,143.25,53.61z"/><path fill="#FFF" d="M133.6 47.97c.41.07.69.45.62.86l-.08.49.01.01.82-.81c-.18-.11-.32-.29-.36-.52-.06-.41.22-.79.63-.85l1.3-.19 4.92-4.88c-.07-.11-.15-.21-.21-.32-.62-1.16-.8-2.49-.65-3.89l-8.95 8.88 1.36 1.4C133.16 48.01 133.38 47.94 133.6 47.97zM142.73 52.34c.34.34.52.79.52 1.27 0 .2-.04.39-.1.57l.07-.03c.38-.16.82.01.99.39.01.03.01.06.02.09.12-.32.19-.66.19-1.02 0-.79-.3-1.54-.86-2.1-1.15-1.16-3.03-1.17-4.19-.02l-1.58 1.57.81.83 1.59-1.57C140.89 51.63 142.03 51.64 142.73 52.34z"/><path opacity=".25" fill="#263238" d="M142.73,52.34c0.34,0.34,0.52,0.79,0.52,1.27 c0,0.2-0.04,0.39-0.1,0.57l0.07-0.03c0.38-0.16,0.82,0.01,0.99,0.39c0.01,0.03,0.01,0.06,0.02,0.09c0.12-0.32,0.19-0.66,0.19-1.02 c0-0.79-0.3-1.54-0.86-2.1c-1.15-1.16-3.03-1.17-4.19-0.02l-1.58,1.57l0.81,0.83l1.59-1.57 C140.89,51.63,142.03,51.64,142.73,52.34z"/><path opacity=".25" fill="#C4CED3" d="M142.73,52.34c0.34,0.34,0.52,0.79,0.52,1.27 c0,0.2-0.04,0.39-0.1,0.57l0.07-0.03c0.38-0.16,0.82,0.01,0.99,0.39c0.01,0.03,0.01,0.06,0.02,0.09c0.12-0.32,0.19-0.66,0.19-1.02 c0-0.79-0.3-1.54-0.86-2.1c-1.15-1.16-3.03-1.17-4.19-0.02l-1.58,1.57l0.81,0.83l1.59-1.57 C140.89,51.63,142.03,51.64,142.73,52.34z"/><path fill="#FFF" d="M141.05,35.78l-10.22,10.14l0.81,0.83l8.95-8.88C140.66,37.19,140.82,36.49,141.05,35.78z"/><path opacity=".25" fill="#263238" d="M141.05,35.78l-10.22,10.14l0.81,0.83l8.95-8.88 C140.66,37.19,140.82,36.49,141.05,35.78z"/><path opacity=".25" fill="#C4CED3" d="M141.05,35.78l-10.22,10.14l0.81,0.83l8.95-8.88 C140.66,37.19,140.82,36.49,141.05,35.78z"/><path fill="#FFF" d="M142.17,43.01c-0.27-0.29-0.51-0.59-0.72-0.93l-4.92,4.88l1.94-0.28L142.17,43.01z"/><path opacity=".25" fill="#263238" d="M142.17,43.01c-0.27-0.29-0.51-0.59-0.72-0.93l-4.92,4.88 l1.94-0.28L142.17,43.01z"/><path opacity=".25" fill="#C4CED3" d="M142.17,43.01c-0.27-0.29-0.51-0.59-0.72-0.93l-4.92,4.88 l1.94-0.28L142.17,43.01z"/><path fill="#FFF" d="M143.62,55.61l-2.36,1.03l0.66,0.68l1.62-1.6C143.57,55.68,143.59,55.64,143.62,55.61z"/><path opacity=".25" fill="#263238" d="M143.62,55.61l-2.36,1.03l0.66,0.68l1.62-1.6 C143.57,55.68,143.59,55.64,143.62,55.61z"/><path opacity=".25" fill="#263238" d="M143.62,55.61l-2.36,1.03l0.66,0.68l1.62-1.6 C143.57,55.68,143.59,55.64,143.62,55.61z"/><path fill="#FFF" d="M135.46,48.63c-0.04,0.01-0.07,0.01-0.11,0.01c-0.14,0-0.27-0.05-0.38-0.12l-0.82,0.81l0.81,0.83 l1.73-1.71L135.46,48.63z"/><path opacity=".25" fill="#263238" d="M135.46,48.63c-0.04,0.01-0.07,0.01-0.11,0.01 c-0.14,0-0.27-0.05-0.38-0.12l-0.82,0.81l0.81,0.83l1.73-1.71L135.46,48.63z"/><path opacity=".25" fill="#C4CED3" d="M135.46,48.63c-0.04,0.01-0.07,0.01-0.11,0.01 c-0.14,0-0.27-0.05-0.38-0.12l-0.82,0.81l0.81,0.83l1.73-1.71L135.46,48.63z"/><path fill="#90A4AE" d="M134.22,48.84c0.07-0.41-0.21-0.79-0.62-0.86c-0.23-0.04-0.44,0.04-0.61,0.18l1.14,1.17L134.22,48.84z"/><path opacity=".6" fill="#90A4AE" d="M134.22,48.84c0.07-0.41-0.21-0.79-0.62-0.86 c-0.23-0.04-0.44,0.04-0.61,0.18l1.14,1.17L134.22,48.84z"/><path fill="#90A4AE" d="M135.24 47.15c-.41.06-.69.44-.63.85.03.23.17.41.36.52l1.57-1.56L135.24 47.15zM140.17 47.94c.41-.06.69-.44.63-.85s-.44-.69-.85-.63l-1.48.22-1.79 1.78L140.17 47.94z"/><path fill="#90A4AE" d="M135.46,48.63l1.23-0.18l1.79-1.78l-1.94,0.28l-1.57,1.56c0.11,0.07,0.24,0.12,0.38,0.12 C135.38,48.64,135.42,48.64,135.46,48.63z"/><g fill="#90A4AE"><path opacity=".6" d="M139.95 46.46l-1.48.22-1.79 1.78 3.49-.52c.41-.06.69-.44.63-.85C140.74 46.68 140.36 46.4 139.95 46.46zM138.48 46.67l-1.94.28-.01.01-1.29.19c-.41.06-.69.44-.63.85.03.23.17.41.36.52l.01-.01c.11.07.24.12.37.12.03.01.07.01.11 0l1.23-.18L138.48 46.67z"/></g><path fill="#90A4AE" d="M143.81 55.53c.35-.15.51-.54.41-.89-.13.36-.34.69-.6.98L143.81 55.53zM142.72 54.88c.2-.2.34-.44.43-.7l-3.01 1.31.97.99L142.72 54.88z"/><path fill="#90A4AE" d="M143.21,54.15l-0.07,0.03c-0.09,0.26-0.23,0.5-0.43,0.7l-1.61,1.6l0.15,0.16l2.36-1.03 c0.27-0.29,0.47-0.62,0.6-0.98c-0.01-0.03-0.01-0.06-0.02-0.09C144.04,54.16,143.6,53.99,143.21,54.15z"/><g fill="#90A4AE"><path opacity=".6" d="M144.22,54.64c-0.13,0.36-0.34,0.69-0.6,0.98l0.19-0.09 C144.16,55.38,144.32,54.99,144.22,54.64z"/><path opacity=".6" d="M144.19,54.54c-0.15-0.38-0.59-0.55-0.98-0.39l-0.07,0.03 c0,0,0,0,0,0.01l-3,1.3l0.97,0.98l-0.01,0.01l0.15,0.16l2.36-1.03c0.27-0.29,0.47-0.62,0.6-0.98 C144.2,54.6,144.2,54.57,144.19,54.54z"/></g><path fill="#FFF" d="M143.16 31.62l5.41-5.41C146.46 27.69 144.57 29.58 143.16 31.62zM152.69 27.97c-.66-.47-1.56-.44-2.19.09l1.02 1.05C151.86 28.69 152.25 28.31 152.69 27.97z"/><path fill="#FFF" d="M152.69 27.97c.29-.22.6-.43.93-.61.03-.02.06-.03.1-.05-1.12-1.09-2.88-1.11-4.03-.08l.81.83C151.13 27.53 152.03 27.5 152.69 27.97zM149.57 27.33c.04-.04.08-.06.12-.1l-1.05-1.07c-.02.02-.05.03-.07.05l-5.41 5.41c-.94 1.36-1.66 2.77-2.11 4.16L149.57 27.33zM160.03 39.29c-3.29 1.77-7.4.53-9.17-2.76-.27-.5-.46-1.02-.59-1.55l-8.1 8.03c3.57 3.77 12.21 3.5 18.3.23 1.12-.6 2.06-1.27 2.88-1.98l-2.46-2.53C160.62 38.93 160.33 39.12 160.03 39.29zM151.52 29.12l-1.02-1.05c-.04.03-.08.06-.11.09l-9.8 9.72c-.15 1.4.03 2.73.65 3.89.06.11.14.21.21.32l8.61-8.54C150.02 31.95 150.53 30.37 151.52 29.12z"/><path fill="#FFF" d="M150.5 28.06l-.81-.83c-.04.03-.08.06-.12.1l-8.52 8.45c-.23.71-.39 1.41-.46 2.1l9.8-9.72C150.42 28.12 150.46 28.1 150.5 28.06zM150.27 34.98c-.12-.48-.19-.96-.2-1.44l-8.61 8.54c.21.33.45.64.72.93L150.27 34.98z"/></g><linearGradient id="f" gradientUnits="userSpaceOnUse" x1="-2188.057" y1="3143.322" x2="-2188.057" y2="3117.097" gradientTransform="matrix(-0.5243 -0.5243 0.5184 -0.5184 -2621.9058 522.3696)"><stop offset="0" style="stop-color:#90A4AE"/><stop offset="1" style="stop-color:#FFFFFF"/></linearGradient><path opacity=".6" fill="url(#f)" d="M142.17,43.01l-3.7,3.67l1.48-0.22	c0.41-0.06,0.79,0.22,0.85,0.63s-0.22,0.79-0.63,0.85l-3.49,0.51l-1.73,1.71l2.83,2.9l1.58-1.57c1.16-1.15,3.04-1.14,4.19,0.02	c0.56,0.56,0.86,1.31,0.86,2.1c0,0.35-0.07,0.69-0.19,1.02c0.1,0.36-0.06,0.74-0.41,0.89l-0.19,0.08c-0.03,0.03-0.05,0.07-0.08,0.1	l-1.62,1.6l2.62,2.69l18.82-18.74l-0.01-0.01c-0.81,0.71-1.76,1.38-2.88,1.98C154.38,46.51,145.74,46.78,142.17,43.01z"/><linearGradient id="g" gradientUnits="userSpaceOnUse" x1="-2169.885" y1="3143.322" x2="-2169.885" y2="3117.097" gradientTransform="matrix(-0.5243 -0.5243 0.5184 -0.5184 -2621.9058 522.3696)"><stop offset="0" style="stop-color:#90A4AE"/><stop offset="1" style="stop-color:#FFFFFF"/></linearGradient><path opacity=".6" fill="url(#g)" d="M143.16,31.62l-13.3,13.3l0.97,1l10.22-10.14	C141.5,34.39,142.21,32.97,143.16,31.62z"/><linearGradient id="h" gradientUnits="userSpaceOnUse" x1="-2174.81" y1="3143.322" x2="-2174.81" y2="3117.097" gradientTransform="matrix(-0.5243 -0.5243 0.5184 -0.5184 -2621.9058 522.3696)"><stop offset="0" style="stop-color:#90A4AE"/><stop offset="1" style="stop-color:#FFFFFF"/></linearGradient><path opacity=".6" fill="url(#h)" d="M133.6,47.97c0.41,0.07,0.69,0.45,0.62,0.86l-0.08,0.49	l0.01,0.01l0.82-0.81c-0.18-0.11-0.32-0.29-0.36-0.52c-0.06-0.41,0.22-0.79,0.63-0.85l1.3-0.19l4.92-4.88	c-0.07-0.11-0.15-0.21-0.21-0.32c-0.62-1.16-0.8-2.49-0.65-3.89l-8.95,8.88l1.36,1.4C133.16,48.01,133.38,47.94,133.6,47.97z"/><g><path opacity=".25" fill="#263238" d="M151.41 68.99c-.21.23-.21.6.01.83.23.23.6.23.82 0L171.19 51c-.09-.46-.18-.92-.28-1.37L151.41 68.99zM134.08 94.54c.53.03 1.05.05 1.58.06l36.25-36.72c-.01-.53-.03-1.07-.06-1.6L134.08 94.54zM168.27 44.59L134.79 77.8c-.56.56-.87 1.3-.88 2.09 0 .79.3 1.54.86 2.1l.48.48c1.15 1.16 3.03 1.17 4.19.02l6.05-6c.23-.23.23-.6 0-.82-.23-.23-.6-.23-.82 0l-6.05 6c-.7.7-1.85.69-2.54-.01l-.48-.48c-.34-.34-.52-.79-.52-1.27 0-.48.19-.93.53-1.27l33.49-33.22c.17-.17.3-.35.42-.54-.25-.68-.51-1.36-.79-2.03C168.89 43.45 168.74 44.12 168.27 44.59zM166.69 40.01L166.69 40.01c-.8 0-1.54.31-2.1.86l-40.74 40.4c-.7.7-1.85.69-2.54-.01l-.48-.49c-.34-.34-.52-.79-.52-1.27s.19-.93.53-1.27l13.55-13.44.22-1.86-14.6 14.47c-1.16 1.15-1.17 3.03-.02 4.19l.48.49c1.15 1.16 3.03 1.17 4.19.02l40.74-40.4c.34-.34.79-.57 1.27-.52.48 0 .93.19 1.27.53l.34.34c.08.08.15.17.21.26-.32-.73-.67-1.46-1.03-2.18C167.21 40.06 166.96 40.01 166.69 40.01zM146.05 23.13l-21.42 21.24c.16.01.31.05.44.16l.59.48 21.21-21.04c.7-.69.97-1.65.83-2.56-.49-.22-.98-.42-1.47-.61C146.75 21.5 146.69 22.5 146.05 23.13zM123.66 37.68c-.23.23-.23.6 0 .82.23.23.6.23.82 0l18.56-18.41c.12-.12.26-.21.4-.29-.45-.14-.9-.28-1.35-.4L123.66 37.68zM127.74 18.05L101.8 42.77c-.23.22-.24.59-.02.82s.59.24.82.02l26.32-25.08c.71-.7 1.85-.69 2.54.01l.42.42c.34.34.52.79.52 1.27s-.19.93-.53 1.27L95.64 57.44c.04.5.09.99.15 1.49l36.89-36.59c.57-.56.88-1.3.89-2.09 0-.79-.3-1.54-.86-2.1l-.22-.22C130.91 17.88 129.32 17.92 127.74 18.05z"/><linearGradient id="i" gradientUnits="userSpaceOnUse" x1="191.321" y1="330.126" x2="140.95" y2="279.755" gradientTransform="matrix(1 0 0 -1 0 350)"><stop offset="0" style="stop-color:#CFD8DC"/><stop offset="1" style="stop-color:#FFFFFF"/></linearGradient><path opacity=".6" fill="url(#i)" d="M168.73,42.85c-0.05-0.19-0.13-0.37-0.24-0.53 C168.57,42.49,168.66,42.67,168.73,42.85z"/><linearGradient id="j" gradientUnits="userSpaceOnUse" x1="168.291" y1="353.156" x2="117.92" y2="302.785" gradientTransform="matrix(1 0 0 -1 0 350)"><stop offset="0" style="stop-color:#CFD8DC"/><stop offset="1" style="stop-color:#FFFFFF"/></linearGradient><path opacity=".6" fill="url(#j)" d="M145.58,20.1c-0.57-0.58-1.46-0.68-2.14-0.3 c0.94,0.3,1.87,0.63,2.79,1c-0.05-0.07-0.11-0.14-0.17-0.21L145.58,20.1z"/><path fill="#FFF" d="M152.61 24.02c-.65.24-1.31.53-1.98.89-.68.37-1.35.79-1.99 1.24l1.05 1.07c1.15-1.02 2.91-.99 4.03.09.84-.44 1.73-.68 2.62-.74-.02 0-.03 0-.05 0C155.11 25.64 153.87 24.8 152.61 24.02zM160.87 27.9c-.03-.02-.06-.04-.08-.06C160.82 27.86 160.85 27.88 160.87 27.9zM162.26 29.3c-.02-.03-.05-.07-.07-.1C162.22 29.24 162.24 29.27 162.26 29.3zM160.89 38.73l2.46 2.53c1.25-1.09 2.15-2.3 2.73-3.58-.77-1.27-1.6-2.52-2.53-3.74C163.38 35.81 162.45 37.56 160.89 38.73zM159.18 26.98c-.03-.01-.06-.02-.09-.03C159.12 26.96 159.15 26.97 159.18 26.98zM157.17 26.57c.05 0 .11.01.16.01C157.28 26.57 157.23 26.57 157.17 26.57z"/><linearGradient id="k" gradientUnits="userSpaceOnUse" x1="180.769" y1="340.678" x2="130.397" y2="290.307" gradientTransform="matrix(1 0 0 -1 0 350)"><stop offset="0" style="stop-color:#CFD8DC"/><stop offset="1" style="stop-color:#FFFFFF"/></linearGradient><path opacity=".6" fill="url(#k)" d="M168.34,28.74c-13.87-17.73-39.49-20.86-57.22-6.99 c-1.97,1.54-3.76,3.23-5.36,5.03c0.09-0.07,0.18-0.15,0.28-0.22c6.5-5.08,14.05-7.87,21.7-8.51l0.37-0.35 c1.15-1.14,3.03-1.13,4.18,0.03l0.2,0.2c3.24,0.11,6.47,0.6,9.6,1.47l0.13-0.13c1.16-1.15,3.04-1.14,4.19,0.02l0.48,0.49 c0.46,0.46,0.72,1.04,0.81,1.63c1.69,0.75,3.32,1.62,4.91,2.61c5.8-2.19,10.47,0.15,12.92,4.7c1.56,2.92,1.87,6.1,0.55,8.96 c0.48,0.8,0.95,1.61,1.37,2.44c0.49,0.14,0.95,0.39,1.32,0.76l0.34,0.34c0.98,0.99,1.11,2.51,0.4,3.65 c0.56,1.56,1.03,3.15,1.39,4.75l5.02-4.98c0.11,0.45,0.2,0.91,0.29,1.36l-5.02,5c0.33,1.75,0.55,3.51,0.65,5.28l5.05-5.12 c0.04,0.53,0.06,1.06,0.07,1.59l-5.06,5.13c0.19,10.04-3.32,20.05-10.27,27.86C179.11,71.81,182.13,46.37,168.34,28.74z"/><linearGradient id="l" gradientUnits="userSpaceOnUse" x1="179.421" y1="342.026" x2="129.05" y2="291.655" gradientTransform="matrix(1 0 0 -1 0 350)"><stop offset="0" style="stop-color:#CFD8DC"/><stop offset="1" style="stop-color:#FFFFFF"/></linearGradient><path opacity=".6" fill="url(#l)" d="M160.79,27.84c-0.5-0.36-1.04-0.65-1.61-0.86 C159.75,27.19,160.29,27.48,160.79,27.84z"/><linearGradient id="m" gradientUnits="userSpaceOnUse" x1="177.386" y1="344.061" x2="127.015" y2="293.69" gradientTransform="matrix(1 0 0 -1 0 350)"><stop offset="0" style="stop-color:#CFD8DC"/><stop offset="1" style="stop-color:#FFFFFF"/></linearGradient><path opacity=".6" fill="url(#m)" d="M156.34,26.57c0.28-0.02,0.55-0.02,0.83,0 C156.9,26.55,156.62,26.55,156.34,26.57z"/><linearGradient id="n" gradientUnits="userSpaceOnUse" x1="182.991" y1="338.456" x2="132.62" y2="288.085" gradientTransform="matrix(1 0 0 -1 0 350)"><stop offset="0" style="stop-color:#CFD8DC"/><stop offset="1" style="stop-color:#FFFFFF"/></linearGradient><path opacity=".6" fill="url(#n)" d="M162.79,30.12c-0.16-0.29-0.34-0.56-0.53-0.82 c0.19,0.25,0.36,0.52,0.52,0.81c0.65,1.22,0.89,2.55,0.77,3.83c0,0,0,0.01,0.01,0.01C163.68,32.67,163.44,31.34,162.79,30.12z"/><linearGradient id="o" gradientUnits="userSpaceOnUse" x1="180.764" y1="340.684" x2="130.392" y2="290.312" gradientTransform="matrix(1 0 0 -1 0 350)"><stop offset="0" style="stop-color:#CFD8DC"/><stop offset="1" style="stop-color:#FFFFFF"/></linearGradient><path opacity=".6" fill="url(#o)" d="M160.87,27.9c0.49,0.37,0.93,0.8,1.32,1.3 C161.81,28.7,161.36,28.26,160.87,27.9z"/><linearGradient id="p" gradientUnits="userSpaceOnUse" x1="178.214" y1="343.234" x2="127.842" y2="292.862" gradientTransform="matrix(1 0 0 -1 0 350)"><stop offset="0" style="stop-color:#CFD8DC"/><stop offset="1" style="stop-color:#FFFFFF"/></linearGradient><path opacity=".6" fill="url(#p)" d="M159.09,26.95c-0.56-0.2-1.15-0.32-1.75-0.37 C157.94,26.62,158.53,26.75,159.09,26.95z"/><path fill="#FFF" d="M165.53,28.72c-2.45-4.55-7.12-6.89-12.92-4.7c1.26,0.78,2.5,1.63,3.68,2.55c0.02,0,0.03,0,0.05,0 c0.28-0.02,0.55-0.02,0.83,0c0.06,0,0.11,0.01,0.16,0.01c0.6,0.05,1.19,0.17,1.75,0.37c0.03,0.01,0.06,0.02,0.09,0.03 c0.57,0.21,1.11,0.5,1.61,0.86c0.03,0.02,0.06,0.04,0.08,0.06c0.49,0.37,0.93,0.8,1.32,1.3c0.02,0.03,0.05,0.07,0.07,0.1 c0.19,0.26,0.37,0.53,0.53,0.82c0.65,1.22,0.89,2.55,0.77,3.83c0.92,1.21,1.76,2.46,2.53,3.74 C167.4,34.82,167.09,31.64,165.53,28.72z"/><path opacity=".6" fill="#BABFC5" d="M165.53,28.72c-2.45-4.55-7.12-6.89-12.92-4.7 c1.26,0.78,2.5,1.63,3.68,2.55c0.02,0,0.03,0,0.05,0c0.28-0.02,0.55-0.02,0.83,0c0.06,0,0.11,0.01,0.16,0.01 c0.6,0.05,1.19,0.17,1.75,0.37c0.03,0.01,0.06,0.02,0.09,0.03c0.57,0.21,1.11,0.5,1.61,0.86c0.03,0.02,0.06,0.04,0.08,0.06 c0.49,0.37,0.93,0.8,1.32,1.3c0.02,0.03,0.05,0.07,0.07,0.1c0.19,0.26,0.37,0.53,0.53,0.82c0.65,1.22,0.89,2.55,0.77,3.83 c0.92,1.21,1.76,2.46,2.53,3.74C167.4,34.82,167.09,31.64,165.53,28.72z"/><path opacity=".25" fill="#263238" d="M175.93,44.65l-5.02,4.98c0.1,0.46,0.19,0.91,0.28,1.37 l5.03-4.99C176.13,45.56,176.04,45.1,175.93,44.65z"/><linearGradient id="q" gradientUnits="userSpaceOnUse" x1="196.416" y1="325.031" x2="146.045" y2="274.66" gradientTransform="matrix(1 0 0 -1 0 350)"><stop offset="0" style="stop-color:#B2B8BC"/><stop offset="1" style="stop-color:#C8CCCC"/></linearGradient><path fill="url(#q)" d="M175.93,44.65l-5.02,4.98c0.1,0.46,0.19,0.91,0.28,1.37l5.03-4.99 C176.13,45.56,176.04,45.1,175.93,44.65z"/><path opacity=".25" fill="#263238" d="M176.9,51.16l-5.05,5.12c0.03,0.53,0.05,1.07,0.06,1.6 l5.06-5.13C176.96,52.22,176.94,51.69,176.9,51.16z"/><linearGradient id="r" gradientUnits="userSpaceOnUse" x1="200.186" y1="321.261" x2="149.815" y2="270.89" gradientTransform="matrix(1 0 0 -1 0 350)"><stop offset="0" style="stop-color:#B2B8BC"/><stop offset="1" style="stop-color:#C8CCCC"/></linearGradient><path fill="url(#r)" d="M176.9,51.16l-5.05,5.12c0.03,0.53,0.05,1.07,0.06,1.6l5.06-5.13 C176.96,52.22,176.94,51.69,176.9,51.16z"/><path opacity=".25" fill="#263238" d="M169.12,41.23l-0.34-0.34c-0.37-0.37-0.83-0.62-1.32-0.76 c0.37,0.72,0.71,1.45,1.03,2.18c0.11,0.17,0.19,0.35,0.24,0.53c0.28,0.67,0.55,1.35,0.79,2.03 C170.23,43.74,170.1,42.22,169.12,41.23z"/><linearGradient id="s" gradientUnits="userSpaceOnUse" x1="191.219" y1="330.229" x2="140.847" y2="279.857" gradientTransform="matrix(1 0 0 -1 0 350)"><stop offset="0" style="stop-color:#B2B8BC"/><stop offset="1" style="stop-color:#C8CCCC"/></linearGradient><path fill="url(#s)" d="M169.12,41.23l-0.34-0.34c-0.37-0.37-0.83-0.62-1.32-0.76c0.37,0.72,0.71,1.45,1.03,2.18 c0.11,0.17,0.19,0.35,0.24,0.53c0.28,0.67,0.55,1.35,0.79,2.03C170.23,43.74,170.1,42.22,169.12,41.23z"/><path opacity=".25" fill="#263238" d="M146.41,19.29c-1.15-1.16-3.03-1.17-4.19-0.02l-0.13,0.13 c0.45,0.13,0.9,0.26,1.35,0.4c0.69-0.38,1.57-0.28,2.14,0.3l0.48,0.49c0.06,0.06,0.12,0.14,0.17,0.21c0.49,0.2,0.99,0.4,1.47,0.61 c-0.09-0.6-0.36-1.17-0.81-1.63L146.41,19.29z"/><linearGradient id="t" gradientUnits="userSpaceOnUse" x1="168.374" y1="353.074" x2="118.002" y2="302.702" gradientTransform="matrix(1 0 0 -1 0 350)"><stop offset="0" style="stop-color:#B2B8BC"/><stop offset="1" style="stop-color:#C8CCCC"/></linearGradient><path fill="url(#t)" d="M146.41,19.29c-1.15-1.16-3.03-1.17-4.19-0.02l-0.13,0.13c0.45,0.13,0.9,0.26,1.35,0.4 c0.69-0.38,1.57-0.28,2.14,0.3l0.48,0.49c0.06,0.06,0.12,0.14,0.17,0.21c0.49,0.2,0.99,0.4,1.47,0.61 c-0.09-0.6-0.36-1.17-0.81-1.63L146.41,19.29z"/><path opacity=".25" fill="#263238" d="M128.11,17.7l-0.37,0.35c1.58-0.13,3.17-0.17,4.75-0.12 l-0.2-0.2C131.14,16.57,129.26,16.56,128.11,17.7z"/><linearGradient id="u" gradientUnits="userSpaceOnUse" x1="159.776" y1="361.671" x2="109.405" y2="311.3" gradientTransform="matrix(1 0 0 -1 0 350)"><stop offset="0" style="stop-color:#B2B8BC"/><stop offset="1" style="stop-color:#C8CCCC"/></linearGradient><path fill="url(#u)" d="M128.11,17.7l-0.37,0.35c1.58-0.13,3.17-0.17,4.75-0.12l-0.2-0.2 C131.14,16.57,129.26,16.56,128.11,17.7z"/><path fill="#959CA5" d="M156.29,26.58c-0.87,0.07-1.75,0.31-2.58,0.74c0.01,0.01,0.03,0.02,0.04,0.03c0.56,0.56,0.86,1.31,0.86,2.1 c0,0.76-0.3,1.47-0.81,2.01l7.08,7.27c1.56-1.17,2.5-2.92,2.67-4.78c-0.1-0.13-0.19-0.27-0.3-0.4 C161.18,30.89,158.83,28.57,156.29,26.58z"/><path fill="#848E97" d="M162.79,30.12c-1.31-2.44-3.9-3.75-6.49-3.54c2.54,1.99,4.89,4.32,6.97,6.97c0.1,0.13,0.2,0.27,0.3,0.4 C163.68,32.67,163.44,31.34,162.79,30.12z"/></g><path fill="#959CA5" d="M153.45,29.44c0-0.48-0.18-0.93-0.52-1.27c-0.07-0.07-0.15-0.14-0.24-0.19c-0.44,0.34-0.83,0.72-1.17,1.15	l1.47,1.51C153.28,30.3,153.45,29.88,153.45,29.44z"/><path fill="#959CA5" d="M152.69 27.97c.08.06.16.12.24.19.34.34.52.79.52 1.27 0 .44-.17.86-.46 1.18l.81.84c.52-.55.81-1.26.81-2.01 0-.79-.3-1.54-.86-2.1-.01-.01-.03-.02-.04-.03-.03.02-.06.03-.1.05C153.29 27.54 152.98 27.75 152.69 27.97zM152.99 30.62l-1.47-1.51c-.99 1.26-1.51 2.83-1.46 4.42l2.85-2.83C152.95 30.68 152.97 30.65 152.99 30.62zM153.74 31.54l-3.47 3.44c.13.53.32 1.05.59 1.55 1.77 3.29 5.87 4.53 9.17 2.76.31-.16.59-.35.86-.56l-7.08-7.27C153.78 31.48 153.76 31.51 153.74 31.54z"/><path fill="#959CA5" d="M153.8,31.46l-0.81-0.84c-0.02,0.03-0.04,0.06-0.07,0.09l-2.85,2.83c0.02,0.48,0.08,0.96,0.2,1.44l3.47-3.44	C153.76,31.51,153.78,31.48,153.8,31.46z"/><path opacity=".4" fill="#848E97" d="M45.78,90.8c-4.54-4.54-5.22-11.48-2.05-16.75	c-0.93,0.56-1.82,1.25-2.62,2.05l0,0c-5.35,5.35-5.35,14.02,0,19.37l65.43,65.43l4.68-4.68L45.78,90.8z"/><g><ellipse transform="matrix(0.9001 -0.4357 0.4357 0.9001 -38.1485 154.5943)" fill="#BABFC5" cx="318.02" cy="160.48" rx="29.19" ry="29.19"/><ellipse transform="matrix(0.9001 -0.4357 0.4357 0.9001 -38.1485 154.5943)" fill="#FFF" cx="318.02" cy="160.48" rx="25.48" ry="25.48"/><ellipse transform="matrix(0.8609 -0.5088 0.5088 0.8609 -41.0766 192.6992)" fill="#BABFC5" cx="331.86" cy="171.47" rx="6.22" ry="6.22"/><path fill="#BABFC5" d="M339.16,164.12c-1.34-0.6-2.93-0.58-4.29,0.23c-2.22,1.31-2.95,4.17-1.64,6.38 c0.98,1.65,2.81,2.48,4.6,2.25C338.78,170.15,339.24,167.15,339.16,164.12z"/><path fill="none" d="M318.99 139.92c1.28.28 2.53.65 3.75 1.11 1.01.38 1.99.85 2.95 1.36.15-.09.31-.18.47-.26 1.27-.61 2.63-.82 3.94-.7-.47-2.78-2.88-4.9-5.79-4.9-1.38 0-2.64.48-3.64 1.27-1.84-1.53-4.47-1.93-6.76-.83-1.17.57-2.09 1.45-2.7 2.5C313.84 139.21 316.46 139.38 318.99 139.92zM326.85 143.04c.96.58 1.89 1.2 2.76 1.9-.34.72-.83 1.36-1.42 1.88 1.14 2.71.75 5.71-.81 8 .8.27 1.63.38 2.45.32.25-1.02.92-1.93 1.94-2.42.88-.42 1.84-.46 2.7-.19.3-.41.55-.85.74-1.32-1.54-2.44-3.44-4.54-5.61-6.27.35-.73.55-1.53.57-2.38-.27-.03-.53-.06-.8-.06C328.53 142.5 327.67 142.68 326.85 143.04z"/><path fill="none" d="M318.43,142.41c0-0.89,0.21-1.73,0.56-2.49C318.63,140.68,318.43,141.52,318.43,142.41z"/><path fill="#959CA5" d="M326.16 142.13c-.16.08-.31.17-.47.26.39.21.78.42 1.16.65.83-.36 1.69-.54 2.53-.54.27 0 .54.02.8.06 0-.05.01-.1.01-.15 0-.33-.03-.66-.09-.98C328.79 141.31 327.43 141.52 326.16 142.13zM329.84 155.14c-.82.06-1.65-.05-2.45-.32-.22.32-.45.63-.71.92.09.04.18.08.28.11.8.28 1.63.42 2.45.42.11 0 .22-.01.32-.02C329.7 155.87 329.75 155.5 329.84 155.14zM334.48 152.53c.37.12.71.3 1.03.53.15-.22.28-.44.41-.67-.22-.4-.46-.8-.7-1.18C335.03 151.68 334.78 152.12 334.48 152.53z"/><path fill="#BABFC5" d="M332.64 155.52c-.94.45-1.92.69-2.92.73.03.46.14.92.35 1.35.88 1.82 3.07 2.58 4.89 1.7 1.82-.88 2.58-3.07 1.7-4.89-.27-.57-.68-1.01-1.16-1.36C334.79 154.11 333.81 154.96 332.64 155.52zM331.78 152.72c-1.02.49-1.69 1.4-1.94 2.42.79-.06 1.57-.26 2.3-.62.95-.46 1.73-1.16 2.34-1.99C333.62 152.26 332.66 152.29 331.78 152.72z"/><path fill="#BABFC5" d="M332.14,154.52c-0.73,0.36-1.51,0.56-2.3,0.62c-0.09,0.36-0.14,0.73-0.11,1.11 c0.99-0.04,1.98-0.28,2.92-0.73c1.17-0.56,2.15-1.41,2.87-2.46c-0.32-0.23-0.66-0.41-1.03-0.53 C333.87,153.36,333.09,154.06,332.14,154.52z"/><linearGradient id="v" gradientUnits="userSpaceOnUse" x1="1239.31" y1="-188.06" x2="1243.567" y2="-192.658" gradientTransform="matrix(0.4357 0.9001 0.9001 -0.4357 -44.5887 -1047.8604)"><stop offset="0" style="stop-color:#BABFC5"/><stop offset=".177" style="stop-color:#B1B6BB"/><stop offset=".472" style="stop-color:#979CA2"/><stop offset=".847" style="stop-color:#6E7378"/><stop offset=".995" style="stop-color:#5C6166"/><stop offset="1" style="stop-color:#5C6166"/></linearGradient><path fill="url(#v)" d="M328.19,146.82c-0.52,0.45-1.12,0.82-1.77,1.08c-0.65,0.25-1.36,0.39-2.11,0.39 c-0.41,0-0.82-0.04-1.21-0.13c-0.12,1.13,0.06,2.31,0.59,3.42c0.74,1.52,2.02,2.67,3.62,3.22c0.02,0.01,0.05,0.01,0.07,0.02 C328.94,152.53,329.33,149.53,328.19,146.82z"/><linearGradient id="w" gradientUnits="userSpaceOnUse" x1="1233.859" y1="-193.108" x2="1238.116" y2="-197.706" gradientTransform="matrix(0.4357 0.9001 0.9001 -0.4357 -44.5887 -1047.8604)"><stop offset="0" style="stop-color:#BABFC5"/><stop offset=".177" style="stop-color:#B1B6BB"/><stop offset=".472" style="stop-color:#979CA2"/><stop offset=".847" style="stop-color:#6E7378"/><stop offset=".995" style="stop-color:#5C6166"/><stop offset="1" style="stop-color:#5C6166"/></linearGradient><path fill="url(#w)" d="M322.7,152.07c-0.66-1.37-0.87-2.84-0.67-4.24c-2.11-0.89-3.6-2.98-3.6-5.42 c0-0.89,0.2-1.73,0.56-2.49c-2.53-0.54-5.15-0.71-7.78-0.45c-1.02,1.75-1.18,3.96-0.23,5.92c0.38,0.78,0.89,1.44,1.5,1.98 c-0.69,2.02-0.62,4.31,0.39,6.38c2.03,4.18,7.06,5.93,11.24,3.91c1-0.49,1.86-1.15,2.56-1.92 C324.92,155.06,323.52,153.76,322.7,152.07z"/><path fill="#959CA5" d="M327.31,154.8c-1.6-0.55-2.88-1.7-3.62-3.22c-0.53-1.1-0.71-2.28-0.59-3.42 c-0.37-0.08-0.73-0.19-1.07-0.33c-0.19,1.4,0.01,2.87,0.67,4.24c0.82,1.69,2.22,2.99,3.97,3.67c0.26-0.29,0.49-0.6,0.71-0.92 C327.36,154.81,327.33,154.81,327.31,154.8z"/><linearGradient id="x" gradientUnits="userSpaceOnUse" x1="1238.821" y1="-188.514" x2="1243.078" y2="-193.112" gradientTransform="matrix(0.4357 0.9001 0.9001 -0.4357 -44.5887 -1047.8604)"><stop offset="0" style="stop-color:#BABFC5"/><stop offset=".177" style="stop-color:#B1B6BB"/><stop offset=".472" style="stop-color:#979CA2"/><stop offset=".847" style="stop-color:#6E7378"/><stop offset=".995" style="stop-color:#5C6166"/><stop offset="1" style="stop-color:#5C6166"/></linearGradient><path fill="url(#x)" d="M327.31,154.8c-1.6-0.55-2.88-1.7-3.62-3.22c-0.53-1.1-0.71-2.28-0.59-3.42 c-0.37-0.08-0.73-0.19-1.07-0.33c-0.19,1.4,0.01,2.87,0.67,4.24c0.82,1.69,2.22,2.99,3.97,3.67c0.26-0.29,0.49-0.6,0.71-0.92 C327.36,154.81,327.33,154.81,327.31,154.8z"/><linearGradient id="y" gradientUnits="userSpaceOnUse" x1="323.906" y1="58.992" x2="327.545" y2="62.062" gradientTransform="matrix(1 0 0 -1 0 200)"><stop offset="0" style="stop-color:#BABFC5"/><stop offset=".244" style="stop-color:#B0B5BB"/><stop offset=".654" style="stop-color:#969BA1"/><stop offset=".995" style="stop-color:#7C8086"/><stop offset="1" style="stop-color:#7C8086"/></linearGradient><path fill="url(#y)" d="M325.69,142.39c-0.96-0.51-1.94-0.97-2.95-1.36c-1.22-0.46-2.47-0.83-3.75-1.11 c-0.35,0.76-0.56,1.6-0.56,2.49c0,2.44,1.48,4.53,3.6,5.42C322.33,145.61,323.63,143.57,325.69,142.39z"/><linearGradient id="z" gradientUnits="userSpaceOnUse" x1="327.255" y1="55.023" x2="330.894" y2="58.093" gradientTransform="matrix(1 0 0 -1 0 200)"><stop offset="0" style="stop-color:#BABFC5"/><stop offset=".244" style="stop-color:#B0B5BB"/><stop offset=".654" style="stop-color:#969BA1"/><stop offset=".995" style="stop-color:#7C8086"/><stop offset="1" style="stop-color:#7C8086"/></linearGradient><path fill="url(#z)" d="M326.42,147.9c0.65-0.25,1.25-0.62,1.77-1.08c0.59-0.52,1.08-1.16,1.42-1.88 c-0.88-0.7-1.81-1.32-2.76-1.9c-0.07,0.03-0.15,0.06-0.22,0.09c-2.04,0.99-3.3,2.93-3.53,5.03c0.39,0.08,0.79,0.13,1.21,0.13 C325.05,148.29,325.77,148.15,326.42,147.9z"/><path fill="#959CA5" d="M326.63,143.13c0.07-0.03,0.14-0.06,0.22-0.09c-0.38-0.23-0.77-0.45-1.16-0.65 c-2.06,1.18-3.36,3.22-3.66,5.44c0.34,0.14,0.7,0.26,1.07,0.33C323.33,146.06,324.59,144.12,326.63,143.13z"/><linearGradient id="A" gradientUnits="userSpaceOnUse" x1="326.175" y1="56.303" x2="329.814" y2="59.373" gradientTransform="matrix(1 0 0 -1 0 200)"><stop offset="0" style="stop-color:#BABFC5"/><stop offset=".244" style="stop-color:#B0B5BB"/><stop offset=".654" style="stop-color:#969BA1"/><stop offset=".995" style="stop-color:#7C8086"/><stop offset="1" style="stop-color:#7C8086"/></linearGradient><path fill="url(#A)" d="M326.63,143.13c0.07-0.03,0.14-0.06,0.22-0.09c-0.38-0.23-0.77-0.45-1.16-0.65 c-2.06,1.18-3.36,3.22-3.66,5.44c0.34,0.14,0.7,0.26,1.07,0.33C323.33,146.06,324.59,144.12,326.63,143.13z"/><linearGradient id="B" gradientUnits="userSpaceOnUse" x1="1238.406" y1="-188.898" x2="1242.663" y2="-193.495" gradientTransform="matrix(0.4357 0.9001 0.9001 -0.4357 -44.5887 -1047.8604)"><stop offset="0" style="stop-color:#BABFC5"/><stop offset=".177" style="stop-color:#B1B6BB"/><stop offset=".472" style="stop-color:#979CA2"/><stop offset=".847" style="stop-color:#6E7378"/><stop offset=".995" style="stop-color:#5C6166"/><stop offset="1" style="stop-color:#5C6166"/></linearGradient><path fill="url(#B)" d="M326.42,147.9c-0.65,0.25-1.36,0.39-2.11,0.39C325.05,148.29,325.76,148.15,326.42,147.9z"/><linearGradient id="C" gradientUnits="userSpaceOnUse" x1="328.005" y1="54.135" x2="331.643" y2="57.205" gradientTransform="matrix(1 0 0 -1 0 200)"><stop offset="0" style="stop-color:#BABFC5"/><stop offset=".244" style="stop-color:#B0B5BB"/><stop offset=".654" style="stop-color:#969BA1"/><stop offset=".995" style="stop-color:#7C8086"/><stop offset="1" style="stop-color:#7C8086"/></linearGradient><path fill="url(#C)" d="M326.42,147.9c-0.65,0.25-1.36,0.39-2.11,0.39C325.05,148.29,325.76,148.15,326.42,147.9z"/><linearGradient id="D" gradientUnits="userSpaceOnUse" x1="1239.535" y1="-187.852" x2="1243.792" y2="-192.45" gradientTransform="matrix(0.4357 0.9001 0.9001 -0.4357 -44.5887 -1047.8604)"><stop offset="0" style="stop-color:#BABFC5"/><stop offset=".177" style="stop-color:#B1B6BB"/><stop offset=".472" style="stop-color:#979CA2"/><stop offset=".847" style="stop-color:#6E7378"/><stop offset=".995" style="stop-color:#5C6166"/><stop offset="1" style="stop-color:#5C6166"/></linearGradient><path fill="url(#D)" d="M328.19,146.82c-0.52,0.45-1.12,0.82-1.77,1.08C327.07,147.64,327.67,147.27,328.19,146.82z"/><linearGradient id="E" gradientUnits="userSpaceOnUse" x1="328.449" y1="53.607" x2="332.088" y2="56.678" gradientTransform="matrix(1 0 0 -1 0 200)"><stop offset="0" style="stop-color:#BABFC5"/><stop offset=".244" style="stop-color:#B0B5BB"/><stop offset=".654" style="stop-color:#969BA1"/><stop offset=".995" style="stop-color:#7C8086"/><stop offset="1" style="stop-color:#7C8086"/></linearGradient><path fill="url(#E)" d="M328.19,146.82c-0.52,0.45-1.12,0.82-1.77,1.08C327.07,147.64,327.67,147.27,328.19,146.82z"/><linearGradient id="F" gradientUnits="userSpaceOnUse" x1="341.98" y1="213.466" x2="309.778" y2="181.263" gradientTransform="matrix(1 0 0 -1 0 350)"><stop offset="0" style="stop-color:#FFFFFF"/><stop offset=".922" style="stop-color:#8C8C8C"/><stop offset="1" style="stop-color:#828282"/></linearGradient><path opacity=".4" fill="url(#F)" d="M340.95,149.4c-6.13-12.67-21.37-17.96-34.04-11.83 c-3.62,1.75-6.63,4.25-8.96,7.21c1.41-1.1,2.95-2.07,4.63-2.88c2.8-1.35,5.71-2.15,8.63-2.43c0.61-1.05,1.53-1.93,2.7-2.5 c2.29-1.1,4.92-0.7,6.76,0.83c1-0.79,2.26-1.27,3.64-1.27c2.92,0,5.33,2.12,5.79,4.9c2.5,0.24,4.82,1.73,5.99,4.16 c0.87,1.79,0.98,3.81,0.33,5.68c-0.14,0.39-0.31,0.76-0.5,1.12c0.24,0.44,0.48,0.88,0.7,1.34c1.62,3.36,2.44,6.89,2.54,10.39 c0.84,0.38,1.58,1.01,2.09,1.87c1.31,2.22,0.57,5.07-1.64,6.38c-0.57,0.33-1.17,0.53-1.79,0.61c-0.92,2.72-2.29,5.28-4.08,7.57 C342.99,173.32,346.27,160.39,340.95,149.4z"/><linearGradient id="G" gradientUnits="userSpaceOnUse" x1="342.514" y1="212.932" x2="310.312" y2="180.73" gradientTransform="matrix(1 0 0 -1 0 350)"><stop offset="0" style="stop-color:#FFFFFF"/><stop offset=".922" style="stop-color:#8C8C8C"/><stop offset="1" style="stop-color:#828282"/></linearGradient><path opacity=".4" fill="url(#G)" d="M335.22,151.21c0.04-0.11,0.1-0.2,0.14-0.31 c0.56-1.6,0.46-3.31-0.28-4.83c-0.97-1.99-2.85-3.25-4.9-3.51c-0.02,0.85-0.22,1.66-0.57,2.38 C331.78,146.67,333.68,148.77,335.22,151.21z"/><linearGradient id="H" gradientUnits="userSpaceOnUse" x1="325.43" y1="55.06" x2="325.43" y2="63.47" gradientTransform="matrix(1 0 0 -1 0 200)"><stop offset="0" style="stop-color:#BABFC5"/><stop offset=".506" style="stop-color:#B8BDC2"/><stop offset=".839" style="stop-color:#B1B5BA"/><stop offset="1" style="stop-color:#ACAFB2"/></linearGradient><path fill="url(#H)" d="M324.31,136.53c-1.38,0-2.64,0.48-3.64,1.27c0.68,0.56,1.25,1.26,1.66,2.1 c0.18,0.37,0.31,0.75,0.41,1.13c2.46,0.94,4.79,2.25,6.87,3.91c0.37-0.77,0.58-1.62,0.58-2.53 C330.19,139.16,327.56,136.53,324.31,136.53z"/><linearGradient id="I" gradientUnits="userSpaceOnUse" x1="-2355.149" y1="5669.905" x2="-2351.208" y2="5673.23" gradientTransform="matrix(0.5491 -0.8357 -0.8357 -0.5491 6352.5596 1286.8126)"><stop offset="0" style="stop-color:#BABFC5"/><stop offset=".244" style="stop-color:#B0B5BB"/><stop offset=".654" style="stop-color:#969BA1"/><stop offset=".995" style="stop-color:#7C8086"/><stop offset="1" style="stop-color:#7C8086"/></linearGradient><path fill="url(#I)" d="M318.99,139.92c1.28,0.27,2.53,0.64,3.75,1.11c-0.1-0.38-0.23-0.76-0.41-1.13 c-0.41-0.84-0.98-1.54-1.66-2.1C319.96,138.36,319.38,139.09,318.99,139.92z"/><linearGradient id="J" gradientUnits="userSpaceOnUse" x1="322.74" y1="61.311" x2="311.21" y2="61.311" gradientTransform="matrix(1 0 0 -1 0 200)"><stop offset="0" style="stop-color:#BABFC5"/><stop offset=".401" style="stop-color:#B8BCC2"/><stop offset=".665" style="stop-color:#B0B4B9"/><stop offset=".888" style="stop-color:#A2A6AB"/><stop offset="1" style="stop-color:#989CA0"/></linearGradient><path fill="url(#J)" d="M322.33,139.9c-0.41-0.84-0.98-1.54-1.66-2.1c-1.84-1.52-4.47-1.93-6.76-0.83 c-1.17,0.57-2.09,1.45-2.7,2.5c2.62-0.25,5.24-0.09,7.78,0.45c1.28,0.27,2.53,0.64,3.75,1.11 C322.64,140.65,322.51,140.27,322.33,139.9z"/><linearGradient id="K" gradientUnits="userSpaceOnUse" x1="339.859" y1="27.02" x2="339.859" y2="35.88" gradientTransform="matrix(1 0 0 -1 0 200)"><stop offset="0" style="stop-color:#BABFC5"/><stop offset=".346" style="stop-color:#B7BCC2"/><stop offset=".573" style="stop-color:#AFB4B9"/><stop offset=".766" style="stop-color:#A0A5AB"/><stop offset=".94" style="stop-color:#8C9196"/><stop offset="1" style="stop-color:#83888C"/></linearGradient><path fill="url(#K)" d="M341.25,165.99c-0.51-0.86-1.25-1.49-2.09-1.87c0.08,3.03-0.38,6.03-1.34,8.86 c0.61-0.08,1.22-0.27,1.79-0.61C341.82,171.06,342.56,168.21,341.25,165.99z"/><path transform="matrix(0.8744 -0.4852 0.4852 0.8744 -42.1719 181.8545)" fill="#FFF" d="M322.04 171.76H338.32000000000005V173.01H322.04z"/><path fill="#FFF" d="M336.74 172.89L331.5 171.71 332.67 166.5 333.89 166.77 332.99 170.77 337.02 171.67z"/><path fill="#FFF" d="M333.28 174.78L328.03 173.61 329.2 168.39 330.42 168.66 329.53 172.66 333.55 173.56z"/><g><path transform="matrix(0.7899 -0.6133 0.6133 0.7899 -24.9707 229.5094)" fill="#FFF" d="M321.81 139.48H323.06V162.91H321.81z"/><path fill="#FFF" d="M320.12 148.29L313.89 147.85 313.98 146.6 318.96 146.95 319.32 141.94 320.56 142.03z"/><path fill="#FFF" d="M323.4 152.44L316.66 151.96 316.75 150.71 322.24 151.1 322.63 145.57 323.88 145.66z"/><path fill="#959CA5" d="M314.69,187.34c-0.82,0-1.65-0.14-2.45-0.42c-1.88-0.65-3.39-2-4.25-3.79c-0.87-1.79-0.98-3.81-0.33-5.68 c0.65-1.88,2-3.39,3.79-4.25s3.81-0.98,5.68-0.33c1.88,0.65,3.39,2,4.25,3.78c0.87,1.79,0.98,3.81,0.33,5.68 c-0.65,1.88-2,3.39-3.78,4.25C316.9,187.08,315.8,187.34,314.69,187.34z M314.68,173.56c-0.94,0-1.88,0.21-2.75,0.64 c-1.52,0.74-2.67,2.02-3.22,3.62c-0.55,1.6-0.46,3.31,0.28,4.83s2.02,2.67,3.62,3.22c1.6,0.56,3.32,0.46,4.83-0.28l0,0 c1.52-0.74,2.67-2.02,3.22-3.62c0.56-1.6,0.46-3.31-0.28-4.83s-2.02-2.67-3.62-3.22C316.09,173.68,315.38,173.56,314.68,173.56z"/><linearGradient id="L" gradientUnits="userSpaceOnUse" x1="1229.491" y1="-212.946" x2="1234.92" y2="-208.366" gradientTransform="matrix(0.4357 0.9001 0.9001 -0.4357 -44.5887 -1047.8604)"><stop offset="0" style="stop-color:#BABFC5"/><stop offset=".244" style="stop-color:#B0B5BB"/><stop offset=".654" style="stop-color:#969BA1"/><stop offset=".995" style="stop-color:#7C8086"/><stop offset="1" style="stop-color:#7C8086"/></linearGradient><circle fill="url(#L)" cx="301.01" cy="152.29" r="8.1"/><ellipse transform="matrix(0.5491 -0.8357 0.8357 0.5491 -1.6398 341.9852)" fill="#BABFC5" cx="316.13" cy="172.51" rx="5.88" ry="5.88"/><linearGradient id="M" gradientUnits="userSpaceOnUse" x1="-2388.502" y1="5668.435" x2="-2384.339" y2="5671.949" gradientTransform="matrix(0.5491 -0.8357 -0.8357 -0.5491 6352.5596 1286.8126)"><stop offset="0" style="stop-color:#BABFC5"/><stop offset=".244" style="stop-color:#B0B5BB"/><stop offset=".654" style="stop-color:#969BA1"/><stop offset=".995" style="stop-color:#7C8086"/><stop offset="1" style="stop-color:#7C8086"/></linearGradient><circle fill="url(#M)" cx="303.76" cy="169" r="6.22"/><g fill="#BABFC5"><ellipse transform="matrix(0.994 -0.109 0.109 0.994 -15.5573 34.4167)" cx="307.02" cy="159.5" rx="8.43" ry="8.43"/><ellipse transform="matrix(0.994 -0.109 0.109 0.994 -15.7304 33.5286)" cx="298.81" cy="160.64" rx="6.33" ry="6.33"/></g><path transform="matrix(0.9995 -0.0312 0.0312 0.9995 -4.8573 9.6795)" fill="#FFF" d="M297.65 159.86H317.82V161.11H297.65z"/><path fill="#BABFC5" d="M317.11,161.51c0.65,0.32,1.37,0.54,2.14,0.61c3.46,0.36,6.56-2.16,6.91-5.62s-2.16-6.56-5.62-6.91 c-0.86-0.09-1.69,0-2.47,0.24c-1.36-1.65-3.34-2.79-5.64-3.02c-4.62-0.48-8.76,2.89-9.23,7.51c-0.48,4.62,2.89,8.76,7.51,9.23 C313.13,163.8,315.41,163,317.11,161.51z"/><path transform="matrix(0.1289 -0.9917 0.9917 0.1289 115.8479 441.1853)" fill="#FFF" d="M308.42 143.93H309.67V165.38H308.42z"/><path fill="#FFF" d="M315.74,160.21l-4.04-4.66c-0.23-0.26-0.2-0.66,0.06-0.88l4.63-4.02l0.82,0.94l-4.16,3.61l3.63,4.19 L315.74,160.21z"/><path fill="#FFF" d="M310.48,159.48l-4.04-4.66c-0.23-0.26-0.2-0.66,0.06-0.88l4.63-4.02l0.82,0.94l-4.16,3.61l3.63,4.19 L310.48,159.48z"/><ellipse transform="matrix(0.9001 -0.4357 0.4357 0.9001 -40.9437 157.4642)" fill="#BABFC5" cx="322.88" cy="168.01" rx="4.55" ry="4.55"/></g></g><g><linearGradient id="N" gradientUnits="userSpaceOnUse" x1="152.015" y1="-82.439" x2="153.015" y2="-82.439" gradientTransform="matrix(13.5678 -13.5678 13.5678 13.5678 -700.0932 3219.8647)"><stop offset="0" style="stop-color:#FFFFFF"/><stop offset=".995" style="stop-color:#B3B5B8"/><stop offset="1" style="stop-color:#B3B5B8"/></linearGradient><path fill="url(#N)" d="M236.69 16.87L213.82 39.99 242.89 69.05 265.77 45.94 236.69 16.87"/></g><path opacity=".35" fill="#AAADB2" d="M259.38,45.31L237.6,23.53c-0.31-0.31-0.81-0.31-1.12,0	L207.6,52.41c-0.31,0.31-0.31,0.81,0,1.12l21.78,21.78c0.16,0.15,0.36,0.23,0.56,0.23s0.41-0.08,0.56-0.23l28.88-28.88	C259.69,46.12,259.69,45.62,259.38,45.31z M237.04,25.22l16.04,16.04l-4.56,4.56l-16.04-16.04L237.04,25.22z M247.38,56.19	l-3.49-3.49l4.64-4.64l3.49,3.49L247.38,56.19z M241.62,61.95l-3.49-3.49l4.64-4.64l3.49,3.49L241.62,61.95z M235.86,67.71	l-3.49-3.49l4.64-4.64l3.49,3.49L235.86,67.71z M219.84,42.42l16.04,16.04l-4.64,4.64L215.2,47.06L219.84,42.42z M225.6,36.66	l16.04,16.04L237,57.34L220.97,41.3L225.6,36.66z M242.77,51.58l-16.04-16.04l4.64-4.64l16.04,16.04L242.77,51.58z M214.08,48.18	l16.04,16.04l-4.79,4.79l-16.04-16.04L214.08,48.18z M229.94,73.63l-3.49-3.49l4.79-4.79l3.49,3.49L229.94,73.63z M253.14,50.43	l-3.49-3.49l4.56-4.56l3.49,3.49L253.14,50.43z"/><path fill="#8C8C8C" d="M336.09,145.59c-1.17-2.43-3.49-3.92-5.99-4.16c0.05,0.32,0.09,0.64,0.09,0.98	c0,0.05-0.01,0.1-0.01,0.15c2.05,0.26,3.93,1.52,4.9,3.51c0.74,1.52,0.84,3.23,0.28,4.83c-0.04,0.11-0.1,0.2-0.14,0.31	c0.24,0.38,0.48,0.78,0.7,1.18c0.19-0.36,0.37-0.73,0.5-1.12C337.07,149.4,336.96,147.38,336.09,145.59z"/></svg>
