<svg width="232" height="132" fill="none" xmlns="http://www.w3.org/2000/svg"><g clip-path="url(#clip0)"><path d="M219.42 0C226.37 0 232 5.63 232 12.58v106.84c0 6.95-5.63 12.58-12.58 12.58H12.58C5.63 132 0 126.37 0 119.42V12.58C0 5.63 5.63 0 12.58 0" fill="#FFF1F0"/><path d="M119.31 75.6499C119.31 106.77 144.54 132 175.65 132c31.11 0 56.35-25.23 56.35-56.3501l-34.9.01c0 11.84-9.61 21.44-21.44 21.44-4.99 0-9.56-1.7-13.18-4.56l-.03-.04c-.17-.14-.34-.26-.52-.39-.09-.07-.17-.17-.27-.24l-.24-.21c-4.42-3.94-7.2-9.66-7.2-16.02M20.88 53.0701c-7.34 0-14.37 1.31-20.88 3.69V103.93c.74-1.57 1.64-3.05 2.71-4.3999l.04-.04c.15-.18.28-.37.42-.56.07-.09.18-.18.26-.3l.22-.26c4.24-4.75 10.4-7.75 17.24-7.75 12.75 0 23.07 10.3399 23.07 23.0699 0 5.49-1.92 10.54-5.14 14.5l-.06.05c-.07.09-.15.17-.22.26l-.02.02c-.02.02-.02.02-.02.04-1.07 1.27-2.28 2.42-3.6 3.43h43.8c1.83-5.77 2.82-11.92 2.82-18.3 0-33.4799-27.15-60.6199-60.64-60.6199zM48.71 0c.76 3.4 1.84 6.53 3.19 9.49 4.57 10.01 12.14 18.05 19.92 28.13 2.53 3.28 5.08 6.75 7.55 10.59 8.85 13.72 6.2 21.91 11.81 21.91 5.74 0 3.18-8.2 12.03-21.91C115.58 29.05 129.6 18.68 133.68 0H48.71zM219.42 0h-26.35c-1.8 4.72-2.79 9.84-2.79 15.2 0 23.27 18.59 42.18 41.73 42.73V12.58C232 5.63 226.37 0 219.42 0z" fill="#FCE8E6"/></g><defs><clipPath id="clip0"><path fill="#fff" d="M0 0h232v132H0z"/></clipPath></defs></svg>