<svg width="11" height="11" viewBox="0 0 11 11" fill="none" xmlns="http://www.w3.org/2000/svg">
<path fill-rule="evenodd" clip-rule="evenodd" d="M1.98152 2.1574H2.86112V3.03704H1.98152V3.91667H1.10182V3.03704H0.222229V2.1574H1.10182V1.27778H1.98152V2.1574ZM2.86112 3.91667H3.74071V9.63426H2.86112V3.91667ZM0.222229 4.79629H2.86112V9.63426H0.222229V4.79629ZM3.74071 1.27778H7.2593L8.1389 3.03704H3.74071V1.27778ZM3.74071 3.03704H10.7778V9.63426H3.74071V3.03704ZM5.94471 8.0949C7.09843 8.0949 8.03376 7.15958 8.03376 6.00579C8.03376 4.85199 7.09843 3.91667 5.94471 3.91667C4.79088 3.91667 3.85556 4.85199 3.85556 6.00579C3.85556 7.15958 4.79088 8.0949 5.94471 8.0949Z" fill="white"/>
<mask id="mask0_8_3185" style="mask-type:luminance" maskUnits="userSpaceOnUse" x="0" y="1" width="11" height="9">
<path fill-rule="evenodd" clip-rule="evenodd" d="M1.98152 2.1574H2.86112V3.03704H1.98152V3.91667H1.10182V3.03704H0.222229V2.1574H1.10182V1.27778H1.98152V2.1574ZM2.86112 3.91667H3.74071V9.63426H2.86112V3.91667ZM0.222229 4.79629H2.86112V9.63426H0.222229V4.79629ZM3.74071 1.27778H7.2593L8.1389 3.03704H3.74071V1.27778ZM3.74071 3.03704H10.7778V9.63426H3.74071V3.03704ZM5.94471 8.0949C7.09843 8.0949 8.03376 7.15958 8.03376 6.00579C8.03376 4.85199 7.09843 3.91667 5.94471 3.91667C4.79088 3.91667 3.85556 4.85199 3.85556 6.00579C3.85556 7.15958 4.79088 8.0949 5.94471 8.0949Z" fill="white"/>
</mask>
<g mask="url(#mask0_8_3185)">
</g>
</svg>
