<?xml version="1.0" encoding="utf-8"?>
<!-- Generator: Adobe Illustrator 24.0.1, SVG Export Plug-In . SVG Version: 6.00 Build 0)  -->
<svg version="1.1" id="Layer_1" xmlns="http://www.w3.org/2000/svg" xmlns:xlink="http://www.w3.org/1999/xlink" x="0px" y="0px" width="320px" height="320px" viewBox="0 0 320 320" enable-background="new 0 0 320 320" xml:space="preserve">
    <path fill="#5F6368" d="M262.47,118.5H201.2c0.81,4.36,1.15,8.88,0.96,13.51c-1.34,32.3-28.49,57.54-60.82,57.54h-21.77
	c6.31,24.51,28.56,42.61,55.04,42.61h62.36l32.24,33.07v-29.41c0-2.24,1.62-4.13,3.82-4.52c26.58-4.65,46.81-27.76,46.97-55.64
	C320.18,144.22,293.9,118.5,262.47,118.5z"></path>
    <path fill="#F9DA6C" d="M195.76,129.49c0-3.77-0.39-7.44-1.14-10.99c-5.08-24.3-26.67-42.61-52.46-42.61H53.6
	C24.04,75.89,0,99.94,0,129.49c0,27.49,20.59,50.4,47.9,53.29c1.64,0.17,2.89,1.56,2.89,3.21v25.46l26.7-27.38
	c0.61-0.62,1.44-0.97,2.31-0.97h38.53h23.83C171.71,183.09,195.76,159.05,195.76,129.49z"></path>
</svg>