<svg xmlns="http://www.w3.org/2000/svg" width="360" height="300" viewBox="0 0 360 300"><path fill="#DADCE0" d="M0,0h360v300H0V0z"/><circle fill="#959CA5" cx="87.26" cy="45.8" r="36.22"/><ellipse transform="matrix(0.7071 -0.7071 0.7071 0.7071 -6.8283 75.1174)" fill="#EFF0F2" cx="87.26" cy="45.8" rx="12.07" ry="12.07"/><ellipse transform="matrix(0.7071 -0.7071 0.7071 0.7071 -6.8283 75.1174)" fill="#CDD0D5" cx="87.26" cy="45.8" rx="1.51" ry="1.51"/><path fill="#959CA5" d="M332.23,215.35c-5.36-4.48-11.78-7.5-18.65-8.77l6.66,9.56L332.23,215.35z"/><path fill="#FFF" d="M338.81,244.51l5.59-11.82c-2.46-6.75-6.66-12.73-12.17-17.34l-11.99,0.79l-6.66-9.56	c-2.41-0.44-4.89-0.69-7.42-0.69c-5.3,0-10.36,1.02-15,2.87l-4.49,9.54l-10.37,0.66c-5.03,5.42-8.48,12.11-9.98,19.35l7.23,10.38	l-5.59,11.89c2.41,6.57,6.47,12.33,11.67,16.81l12.28-0.77l6.86,9.95c2.4,0.44,4.86,0.68,7.39,0.68c5.17,0,10.11-0.97,14.66-2.73	l4.67-10.03l10.85-0.65c4.77-5.27,8.17-11.8,9.66-19.02L338.81,244.51L338.81,244.51z"/><path fill="#959CA5" d="M346,254.82c0.55-2.67,0.84-5.43,0.84-8.25c0-4.88-0.87-9.55-2.44-13.88l-5.59,11.82L346,254.82z M296.45,232.6l-7.09,15.07l9.71,13.99l16.79-1.08l7.09-15.07l-9.71-13.99L296.45,232.6z"/><g opacity=".35"><linearGradient id="a" gradientUnits="userSpaceOnUse" x1="310.4" y1="50.33" x2="277.394" y2="83.336" gradientTransform="matrix(1 0 0 1 0 192)"><stop offset="0" style="stop-color:#FFFFFF"/><stop offset="1" style="stop-color:#CBCED2"/></linearGradient><path fill="url(#a)" d="M273.96,238.09c0-9.07,2.97-17.45,7.99-24.21c-9.99,7.41-16.47,19.29-16.47,32.69 c0,22.47,18.21,40.68,40.68,40.68c13.4,0,25.28-6.48,32.69-16.47c-7,5.2-15.49,8-24.21,7.99 C292.17,278.77,273.96,260.56,273.96,238.09z"/></g><path fill="#959CA5" d="M320.82,284.52c5.99-2.31,11.29-6,15.52-10.67l-10.85,0.65L320.82,284.52L320.82,284.52z M279.63,277.39	c5.45,4.71,12.06,7.87,19.14,9.18l-6.86-9.95L279.63,277.39L279.63,277.39z M266.32,238.31c-0.55,2.67-0.84,5.43-0.84,8.26	c0,4.92,0.88,9.64,2.48,14.01l5.59-11.89L266.32,238.31L266.32,238.31z M291.16,208.76c-5.65,2.24-10.73,5.73-14.86,10.2l10.37-0.66	L291.16,208.76z"/><path fill="#BABFC5" d="M251.16,203.4l88.23-88.26l5.6,5.6L256.76,209L251.16,203.4z"/><linearGradient id="b" gradientUnits="userSpaceOnUse" x1="-2704.781" y1="-2198.347" x2="-2703.781" y2="-2198.347" gradientTransform="matrix(-91.6269 91.6269 91.6269 91.6269 -46057.5391 449373.0625)"><stop offset="0" style="stop-color:#BABFC5"/><stop offset="1" style="stop-color:#ABB0B7"/></linearGradient><path fill="url(#b)" d="M251.15,203.41l5.6,5.6L345,120.76l-5.6-5.6L251.15,203.41z"/><path fill="#EFF0F2" d="M318.32,66.66c2.84,0,5.15,2.31,5.15,5.15v27.42l0.88,0.88c0.07-0.09,0.12-0.2,0.12-0.32V71.81	c0-3.39-2.76-6.15-6.15-6.15l-27.94-0.02c-0.14,0-0.26,0.06-0.36,0.15l0.86,0.86L318.32,66.66z"/><path fill="#FFF" d="M239.19,98.99l8.56-8.56l46.82,46.82l-8.56,8.56L239.19,98.99z M204.86,133.33l28.38-28.38l46.82,46.82	l-28.38,28.38L204.86,133.33L204.86,133.33z M193.65,133.91l57.44,57.44l75.39-75.39l-57.44-57.44L193.65,133.91L193.65,133.91z M251.68,181.55l-48.23-48.23l29.79-29.79l48.23,48.23L251.68,181.55L251.68,181.55z M286.01,147.22l-48.23-48.23l9.97-9.97	l48.23,48.23L286.01,147.22z M300.54,131.99l-47.53-47.53l16.02-16.02l47.53,47.53L300.54,131.99z M181.58,133.84l69.57,69.57	l88.25-88.25l-15.06-15.06l-0.88-0.88l-32.58-32.58l-0.86-0.86l-20.19-20.19L181.58,133.84L181.58,133.84z M328.07,115.96	c0,0.18-0.07,0.34-0.19,0.47l-76.32,76.32c-0.13,0.13-0.3,0.19-0.47,0.19s-0.34-0.07-0.47-0.19l-58.37-58.37	c-0.12-0.12-0.19-0.29-0.19-0.47s0.07-0.34,0.19-0.47l76.32-76.32c0.26-0.26,0.68-0.26,0.94,0l58.37,58.37	C328,115.62,328.07,115.79,328.07,115.96z"/><path fill="#E8EAED" d="M268.57,57.12l-76.32,76.32c-0.12,0.12-0.19,0.29-0.19,0.47s0.07,0.34,0.19,0.47l58.37,58.37	c0.13,0.13,0.3,0.19,0.47,0.19s0.34-0.07,0.47-0.19l76.32-76.32c0.12-0.12,0.19-0.29,0.19-0.47s-0.07-0.34-0.19-0.47L269.5,57.12	C269.25,56.86,268.83,56.86,268.57,57.12C268.58,57.11,268.57,57.12,268.57,57.12z M251.09,191.35l-57.44-57.44l75.39-75.39	l57.44,57.44L251.09,191.35z"/><ellipse transform="matrix(0.7071 -0.7071 0.7071 0.7071 40.1829 245.0406)" fill="#BABFC5" cx="315.88" cy="74.02" rx="4.52" ry="4.52"/><path fill="#959CA5" d="M253,84.46l16.02-16.02l47.52,47.52l-16.02,16.02L253,84.46z"/><path fill="#BABFC5" d="M237.78,98.98l48.23,48.23l9.97-9.97l-48.23-48.23L237.78,98.98L237.78,98.98z"/><path fill="#FFF" d="M239.2,99l8.56-8.56l46.81,46.82l-8.56,8.56L239.2,99z"/><path fill="#BABFC5" d="M203.44,133.32l29.79-29.79l48.23,48.23l-29.79,29.79L203.44,133.32z"/><path fill="#FFF" d="M251.68,180.14l-46.82-46.82l28.37-28.37l46.82,46.82L251.68,180.14z"/><path fill="#8F969F" d="M149.69,181.17c1.42-0.09,2.79,0.41,3.83,1.39c1.09,1.04,1.7,2.48,1.7,3.98c0,4.04,3.29,7.33,7.33,7.33 h12.27c0.48,0,0.87-0.39,0.87-0.87s-0.39-0.87-0.87-0.87l0,0h-12.27c-3.08-0.01-5.58-2.51-5.59-5.59c0-1.99-0.82-3.91-2.25-5.26 c-1.4-1.32-3.22-1.98-5.08-1.86h-14.81c-1.81,0.73-3.66,1.31-5.56,1.75L149.69,181.17L149.69,181.17z"/><path fill="#959CA5" d="M129.66,170.62c0.52-1.18,0.81-2.49,0.81-3.86c0-5.32-4.32-9.64-9.64-9.64s-9.64,4.32-9.64,9.64 c0,1.37,0.29,2.68,0.81,3.86C117.73,172.57,123.93,172.57,129.66,170.62z"/><circle fill="#959CA5" cx="120.83" cy="144.49" r="4.94"/><path fill="#959CA5" d="M147.77,149.76c-0.75-0.98-1.7-1.83-2.83-2.49c-4.61-2.66-10.51-1.08-13.17,3.53s-1.08,10.51,3.53,13.17 c1.14,0.66,2.4,1.08,3.7,1.23C143.45,161.24,146.62,155.86,147.77,149.76L147.77,149.76z M138.64,123.84 c-1.15,0.18-2.28,0.56-3.35,1.17c-4.61,2.66-6.19,8.56-3.53,13.17s8.56,6.19,13.17,3.53c1.07-0.62,2.02-1.44,2.78-2.42 C146.51,133.27,143.31,127.82,138.64,123.84L138.64,123.84z M111.84,118.77c-0.43,1.1-0.65,2.28-0.65,3.46 c0,5.33,4.32,9.64,9.64,9.64c5.33,0,9.64-4.32,9.64-9.64c0-1.22-0.24-2.38-0.65-3.46c-2.82-0.98-5.84-1.52-8.99-1.52 S114.66,117.79,111.84,118.77L111.84,118.77z M102.67,165.2c1.27-0.15,2.52-0.55,3.69-1.23c4.61-2.66,6.19-8.56,3.53-13.17 s-8.56-6.19-13.17-3.53c-1.1,0.63-2.06,1.48-2.83,2.49C95.04,155.86,98.21,161.24,102.67,165.2L102.67,165.2z M93.95,139.28 c0.74,0.95,1.67,1.78,2.78,2.42c4.61,2.66,10.51,1.08,13.17-3.53c2.66-4.61,1.08-10.51-3.53-13.17c-1.07-0.62-2.2-0.99-3.35-1.17 C98.44,127.75,95.17,133.15,93.95,139.28z"/><path fill="#FFF" d="M120.83,107.2c-20.69,0-37.47,16.77-37.47,37.47s16.78,37.47,37.47,37.47c2.9,0,5.72-0.34,8.43-0.96 c1.92-0.44,3.77-1.03,5.56-1.75c13.76-5.55,23.47-19.01,23.47-34.76C158.3,123.97,141.52,107.2,120.83,107.2z M120.83,112.58 c4.11,0,7.6,2.57,8.99,6.18c0.41,1.07,0.65,2.24,0.65,3.46c0,5.33-4.32,9.64-9.64,9.64s-9.64-4.32-9.64-9.64 c0-1.22,0.24-2.38,0.65-3.46C113.23,115.15,116.73,112.58,120.83,112.58z M125.77,144.49c0,2.73-2.21,4.94-4.94,4.94 s-4.94-2.21-4.94-4.94s2.21-4.94,4.94-4.94S125.77,141.76,125.77,144.49z M93.2,128.54c1.99-3.44,5.89-5.31,9.82-4.7 c1.15,0.18,2.28,0.56,3.35,1.17c4.61,2.66,6.19,8.56,3.53,13.17s-8.56,6.19-13.17,3.53c-1.07-0.62-2.02-1.44-2.78-2.42 C91.61,136.28,91.18,132.04,93.2,128.54z M93.2,160.44c-1.95-3.37-1.67-7.59,0.7-10.68c0.75-0.98,1.7-1.83,2.83-2.49 c4.61-2.66,10.51-1.08,13.17,3.53s1.08,10.51-3.53,13.17c-1.13,0.66-2.39,1.08-3.69,1.23C98.85,165.65,95.13,163.78,93.2,160.44 L93.2,160.44z M112,170.62c-0.54-1.22-0.81-2.53-0.81-3.86c0-5.32,4.32-9.64,9.64-9.64c5.33,0,9.64,4.32,9.64,9.64 c0,1.37-0.29,2.68-0.81,3.86c-1.49,3.4-4.88,5.78-8.83,5.78S113.49,174.02,112,170.62z M148.46,160.44 c-1.98,3.44-5.77,5.19-9.47,4.75c-1.3-0.15-2.56-0.57-3.7-1.23c-4.61-2.66-6.19-8.56-3.53-13.17s8.56-6.19,13.17-3.53 c1.13,0.66,2.08,1.51,2.83,2.49C150.06,152.76,150.47,156.97,148.46,160.44L148.46,160.44z M147.71,139.28 c-0.74,0.95-1.67,1.78-2.78,2.42c-4.61,2.66-10.51,1.08-13.17-3.53s-1.08-10.51,3.53-13.17c1.07-0.62,2.2-1,3.35-1.17 c3.93-0.61,7.83,1.26,9.82,4.7C150.42,131.93,150.12,136.18,147.71,139.28z"/><path fill="#E1E2E6" d="M208.51,65.43c1.53,1.53,3.57,1.09,5.1-0.44l1.21-1.21L204.4,53.36c-1.53-1.53-1.53-4.01,0-5.54l0,0 l20.25-20.26l-3.91-3.91L196.51,47.9c-1.53,1.53-1.53,4.01,0,5.54l0,0L208.51,65.43L208.51,65.43z"/><path fill="#BABFC5" d="M237,15.21l-1.14-1.14c-1.53-1.53-4.01-1.53-5.54,0l0,0l-9.58,9.58l3.91,3.91L237,15.21z"/><path fill="#FFF" d="M204.4,47.82c-1.53,1.53-1.53,4.01,0,5.54l0,0l10.42,10.42l1.58,1.58c1.53,1.53,3.57,1.09,5.1-0.44 l33.82-33.83l-9.58,9.58l-17.11-17.09l9.58-9.58L237,15.21l-12.35,12.35L204.4,47.82z M225.49,54.54l-2.46,1.69l-1.81,2.59 l-0.01-0.01l-1.25-0.58l1.07-2.32l-4.01-3.95l-2.06,6.44l-1.58-0.39l1.42-8.24l-2.53-2.49c-0.45-0.44-0.45-1.16-0.01-1.6 c0.44-0.45,1.16-0.45,1.6-0.01l2.64,2.6l8.16-1.56l0.41,1.58l-6.37,2.14l3.95,3.88l2.28-1.05l0.58,1.26L225.49,54.54L225.49,54.54z M239.47,39.15c0.27,0.28,0.27,0.72,0,1l-7.69,7.7c-0.28,0.27-0.72,0.27-1,0c-0.27-0.28-0.27-0.72,0-1l7.69-7.7 C238.74,38.87,239.18,38.87,239.47,39.15C239.46,39.14,239.47,39.15,239.47,39.15z M236.38,36.07c0.28,0.27,0.28,0.71,0.01,0.99 l-0.01,0.01l-7.69,7.7c-0.27,0.28-0.71,0.28-0.99,0.01l-0.01-0.01c-0.27-0.28-0.27-0.72,0-1l7.69-7.7 C235.65,35.79,236.09,35.79,236.38,36.07C236.37,36.06,236.38,36.07,236.38,36.07z M233.44,33.13c0.27,0.27,0.28,0.72,0,1 l-7.69,7.7c-0.27,0.27-0.72,0.27-1,0s-0.28-0.72,0-1l7.7-7.7C232.72,32.85,233.17,32.85,233.44,33.13z M228.78,29.79 c0.36-0.36,0.95-0.36,1.31,0s0.36,0.95,0,1.31l-10.94,10.94c-0.36,0.36-0.95,0.36-1.31,0s-0.36-0.95,0-1.31L228.78,29.79z"/><path fill="#BABFC5" d="M215.88,48.39l0.62-0.12l-2.64-2.6c-0.45-0.44-1.17-0.43-1.6,0.01c-0.44,0.45-0.43,1.17,0.01,1.6l2.53,2.49 l0.06-0.35C214.95,48.89,215.37,48.48,215.88,48.39L215.88,48.39z M221.77,54.72l0.87-0.4l-3.95-3.88l-1.33,0.45l-0.35,1.09 l4.01,3.95l0.4-0.86C221.5,54.91,221.62,54.79,221.77,54.72L221.77,54.72z M218.7,50.43l6.37-2.14l-0.41-1.58l-8.16,1.56 l-0.62,0.12c-0.51,0.1-0.93,0.5-1.02,1.04l-0.06,0.35l-1.42,8.24l1.58,0.39l2.06-6.44l0.35-1.09 C217.37,50.88,218.7,50.43,218.7,50.43z M224.92,53.27l-2.28,1.05l-0.87,0.4c-0.15,0.07-0.27,0.19-0.34,0.34l-0.4,0.86l-1.07,2.32 l1.25,0.58l-0.29-0.3l1.31-3.03l2.75-1.41l0.51,0.47l0.01-0.01C225.5,54.54,224.92,53.27,224.92,53.27z M222.23,55.48l-1.31,3.03 l0.3,0.3l0.01,0.01l1.81-2.59l2.45-1.69v-0.01l-0.51-0.46L222.23,55.48z M228.63,23.58l17.11,17.09l9.58-9.58 c1.53-1.53,1.97-3.57,0.44-5.1l-12-11.99c-1.53-1.53-4.01-1.53-5.54,0l0,0L228.63,23.58L228.63,23.58z M244.01,21.35 c0.37-0.03,0.7,0.25,0.73,0.62l0.67,8.01l-3.99-0.11c-0.37-0.01-0.67-0.32-0.66-0.69v-0.01c0.01-0.38,0.28-0.67,0.7-0.66l2.47,0.07 l-0.54-6.49C243.36,21.71,243.64,21.38,244.01,21.35L244.01,21.35z"/><path fill="#FFF" d="M217.85,40.73c-0.36,0.36-0.36,0.95,0,1.31s0.95,0.36,1.31,0L230.1,31.1c0.36-0.36,0.36-0.95,0-1.31 c-0.36-0.36-0.95-0.36-1.31,0L217.85,40.73z M224.75,40.82c-0.27,0.27-0.27,0.72,0,1c0.27,0.27,0.72,0.27,1,0l7.69-7.7 c0.27-0.28,0.27-0.72,0-1c-0.28-0.27-0.72-0.27-1,0L224.75,40.82z M227.7,43.77c-0.27,0.27-0.27,0.72,0,1c0.28,0.27,0.72,0.27,1,0 l7.69-7.7c0.27-0.28,0.27-0.72,0-1s-0.72-0.27-1,0L227.7,43.77z M230.78,46.84c-0.27,0.28-0.27,0.72,0,1c0.28,0.27,0.72,0.27,1,0 l7.69-7.7c0.27-0.27,0.27-0.72,0-1c-0.28-0.27-0.72-0.27-1,0L230.78,46.84z M243.39,22.09l0.54,6.49l-2.47-0.07 c-0.36-0.02-0.67,0.25-0.7,0.61c0,0.02,0,0.03,0,0.05c-0.01,0.38,0.29,0.69,0.66,0.7l3.99,0.11l-0.67-8.01 c-0.03-0.37-0.35-0.65-0.72-0.62c0,0,0,0-0.01,0C243.64,21.38,243.36,21.71,243.39,22.09L243.39,22.09z"/><path fill="#BABFC5" d="M22.16,176.01c-10.11-10.11-10.13-26.55-0.06-36.68l0.02-0.02l0.01-0.01l0.01-0.01l0.02-0.02 c10.13-10.07,26.57-10.05,36.68,0.06c4.43,4.43,6.92,10.08,7.48,15.88h0.01l3.87,32.16l-32.16-3.87v-0.01 C32.24,182.93,26.59,180.44,22.16,176.01L22.16,176.01z"/><path fill="#959CA5" d="M40.48,171.9c-3.79,0-7.36-1.48-10.04-4.16c-2.67-2.66-4.17-6.28-4.16-10.05c0-3.79,1.48-7.36,4.16-10.05 c2.68-2.68,6.25-4.16,10.04-4.16c0.41,0,0.73,0.33,0.73,0.73c0,0.41-0.33,0.73-0.73,0.73c-3.4,0-6.6,1.32-9.01,3.73 s-3.73,5.6-3.73,9.01c0,3.4,1.32,6.6,3.73,9.01s5.6,3.73,9.01,3.73c3.4,0,6.6-1.32,9.01-3.73c4.97-4.97,4.97-13.05,0-18.01 c-1.2-1.21-2.63-2.16-4.21-2.8c-0.37-0.15-0.56-0.57-0.41-0.94c0-0.01,0.01-0.01,0.01-0.02c0.15-0.38,0.58-0.56,0.96-0.4 c1.76,0.71,3.34,1.76,4.7,3.12c5.54,5.54,5.54,14.55,0,20.09C47.84,170.42,44.27,171.9,40.48,171.9L40.48,171.9z"/><path fill="#7F8791" d="M146.17,51.47c-1-2.08-0.58-4.57,1.05-6.21c1.02-1.02,2.41-1.59,3.85-1.59c1.39,0,2.78,0.53,3.84,1.59 l1.93,1.93l0.97-0.97l-1.93-1.93c-1.28-1.28-3.01-2-4.82-1.99c-1.74,0-3.49,0.66-4.82,1.99c-2.49,2.49-2.67,6.46-0.42,9.17 l0.49-0.49C146.2,52.48,146.14,51.98,146.17,51.47z M151.22,46.68c-1.3,0-2.59,0.49-3.58,1.48c-0.92,0.92-1.41,2.11-1.47,3.31 c0.17,0.35,0.39,0.68,0.64,1l0.72-0.72c0-0.95,0.36-1.89,1.08-2.62c0.72-0.72,1.66-1.08,2.61-1.08c0.94,0,1.89,0.36,2.61,1.08 l0.54,0.54l0.97-0.97l-0.54-0.54C153.85,47.21,152.56,46.68,151.22,46.68z"/><path fill="#4A535E" d="M146.32,52.97l0.49-0.49c-0.25-0.32-0.48-0.65-0.64-1C146.14,51.98,146.2,52.48,146.32,52.97z"/><path fill="#E1E2E6" d="M147.72,51.57l-0.18,0.18l-0.73,0.72l-0.49,0.5l-0.5,0.49l-0.96,0.97l2.38,2.38l2.86-2.86 C150.1,53.95,147.72,51.57,147.72,51.57z"/><path fill="#FFF" d="M174.05,110.47c0.51,0.51,1.18,0.77,1.86,0.77s1.34-0.26,1.86-0.77l26-26c1.02-1.02,1.03-2.67,0.01-3.7 l-0.01-0.01l-38.38-38.38c-0.13-0.13-0.27-0.24-0.41-0.34c-0.57-0.38-1.27-0.51-1.94-0.38c-0.5,0.1-0.97,0.34-1.36,0.72l-3.85,3.85 l-0.97,0.97l-1.5,1.5l-0.97,0.97l-4.28,4.28l-2.86,2.86l-11.57,11.57c-1.02,1.02-1.03,2.67-0.01,3.7l0.01,0.01L174.05,110.47 L174.05,110.47z M166,47.95l34.66,34.66l-24.76,24.76l-9.9-9.9l-24.76-24.76L166,47.95z M155.32,48.73l4.95,4.95l-0.93,0.93 l-4.95-4.95L155.32,48.73z M147.74,59.4l4.95-4.95c0.51-0.51,1.34-0.51,1.86,0c0.51,0.51,0.51,1.34,0,1.86l-4.95,4.95 c-0.13,0.13-0.28,0.22-0.43,0.29c-0.32,0.13-0.67,0.13-0.99,0c-0.16-0.06-0.31-0.16-0.43-0.29 C147.23,60.75,147.23,59.92,147.74,59.4L147.74,59.4z M157.8,46.25l4.95,4.95l-0.93,0.93l-4.95-4.95L157.8,46.25z"/><path fill="#BABFC5" d="M166,97.47l24.76-24.76l9.9,9.9L166,47.95l-24.76,24.76L166,97.47z M183.33,72.71L166,90.04l-17.33-17.33 L166,55.38L183.33,72.71z"/><path fill="#FFF" d="M166,97.47l9.9,9.9L166,97.47z"/><linearGradient id="c" gradientUnits="userSpaceOnUse" x1="-2705.845" y1="-2220.074" x2="-2705.845" y2="-2220.473" gradientTransform="matrix(24.7579 -24.7579 -24.7579 -24.7579 12192.5938 -121857.9922)"><stop offset="0" style="stop-color:#BABFC5"/><stop offset="1" style="stop-color:#A6ACB3"/></linearGradient><path fill="url(#c)" d="M166,97.47l9.9,9.9L166,97.47z"/><path fill="#BABFC5" d="M166,97.47l9.9,9.9l24.76-24.76l-9.9-9.9L166,97.47z M188.85,88.14l-7.43,7.43 c-0.31,0.31-0.81,0.32-1.12,0.02c-0.01-0.01-0.01-0.01-0.02-0.02c-0.31-0.31-0.32-0.81-0.01-1.13l0.01-0.01l7.43-7.43 c0.32-0.31,0.83-0.31,1.14,0C189.17,87.31,189.17,87.82,188.85,88.14z M190.09,81.95L175.24,96.8c-0.31,0.31-0.81,0.32-1.12,0.02 c-0.01-0.01-0.01-0.01-0.02-0.02c-0.31-0.31-0.32-0.81-0.01-1.13l0.01-0.01l14.85-14.85c0.32-0.31,0.83-0.31,1.14,0 C190.41,81.12,190.41,81.63,190.09,81.95z"/><linearGradient id="d" gradientUnits="userSpaceOnUse" x1="-2705.807" y1="-2220.277" x2="-2704.807" y2="-2220.277" gradientTransform="matrix(24.7579 -24.7579 -24.7579 -24.7579 12192.5938 -121857.9922)"><stop offset="0" style="stop-color:#BABFC5"/><stop offset="1" style="stop-color:#A6ACB3"/></linearGradient><path fill="url(#d)" d="M166,97.47l9.9,9.9l24.76-24.76l-9.9-9.9L166,97.47z M188.85,88.14l-7.43,7.43 c-0.31,0.31-0.81,0.32-1.12,0.02c-0.01-0.01-0.01-0.01-0.02-0.02c-0.31-0.31-0.32-0.81-0.01-1.13l0.01-0.01l7.43-7.43 c0.32-0.31,0.83-0.31,1.14,0C189.17,87.31,189.17,87.82,188.85,88.14z M190.09,81.95L175.24,96.8c-0.31,0.31-0.81,0.32-1.12,0.02 c-0.01-0.01-0.01-0.01-0.02-0.02c-0.31-0.31-0.32-0.81-0.01-1.13l0.01-0.01l14.85-14.85c0.32-0.31,0.83-0.31,1.14,0 C190.41,81.12,190.41,81.63,190.09,81.95z"/><path fill="#FFF" d="M166,97.47l9.9,9.9L166,97.47z"/><linearGradient id="e" gradientUnits="userSpaceOnUse" x1="-2705.845" y1="-2220.074" x2="-2705.845" y2="-2220.473" gradientTransform="matrix(24.7579 -24.7579 -24.7579 -24.7579 12192.5938 -121857.9922)"><stop offset="0" style="stop-color:#FFFFFF"/><stop offset="1" style="stop-color:#E3E5E8"/></linearGradient><path fill="url(#e)" d="M166,97.47l9.9,9.9L166,97.47z"/><linearGradient id="f" gradientUnits="userSpaceOnUse" x1="-2705.845" y1="-2220.074" x2="-2705.845" y2="-2220.473" gradientTransform="matrix(24.7579 -24.7579 -24.7579 -24.7579 12192.5938 -121857.9922)"><stop offset="0" style="stop-color:#BABFC5"/><stop offset="1" style="stop-color:#A6ACB3"/></linearGradient><path fill="url(#f)" d="M166,97.47l9.9,9.9L166,97.47z"/><path fill="#FFF" d="M148.67,72.71L166,55.38l17.33,17.33L166,90.04L148.67,72.71z"/><path fill="#C2C6CA" d="M156.86,47.18l0.93-0.93l4.95,4.95l-0.93,0.93L156.86,47.18z M154.39,49.65l0.93-0.93l4.95,4.95l-0.93,0.93 L154.39,49.65z"/><path fill="#E1E2E6" d="M188.95,80.8L174.1,95.65c-0.32,0.32-0.32,0.83,0,1.14c0.31,0.31,0.81,0.32,1.12,0.02 c0.01-0.01,0.01-0.01,0.02-0.02l14.85-14.85c0.32-0.32,0.32-0.83,0-1.14C189.77,80.49,189.27,80.49,188.95,80.8L188.95,80.8z M187.71,86.99l-7.43,7.43c-0.32,0.32-0.32,0.83,0,1.14c0.31,0.31,0.81,0.32,1.12,0.02c0.01-0.01,0.01-0.01,0.02-0.02l7.43-7.43 c0.32-0.32,0.32-0.83,0-1.14S188.03,86.68,187.71,86.99z"/><g><path fill="#EFF0F2" d="M117.9,265.37l-4.1-4.1h-3.48c0.44-0.77,0.8-1.57,1.09-2.39l-1.22-1.22l-5.54-5.54 c0.23-0.27,0.46-0.54,0.72-0.79c1.62-1.62,3.6-2.64,5.68-3.08c-0.71-1.65-1.72-3.19-3.07-4.53l-3.02-3.02 c-1.51-1.51-2.36-3.55-2.36-5.69c0-1.65,0.49-3.22,1.41-4.55h-3.02c-1.13,0-2.05-0.92-2.05-2.05c0-0.57,0.23-1.08,0.61-1.45 c-0.37,0.37-0.6,0.88-0.6,1.44c0,1.13,0.92,2.05,2.05,2.05h17.09c0.17,0,0.34-0.03,0.5-0.07l-4.04-4.03h-6.63l3.31-3.31l-5.8-5.8 l-6.27,6.27c-3.06,3.04-4.77,7.18-4.76,11.49c0,4.34,1.69,8.42,4.76,11.49l3.02,3.02c2.5,2.5,2.5,6.57,0,9.06 c-0.6,0.61-1.32,1.09-2.11,1.41c-0.39,0.16-0.78,0.27-1.19,0.35c-0.6,0.12-1.22,0.15-1.83,0.09c-1.02-0.1-2.02-0.44-2.91-1.02 c-0.36-0.23-0.69-0.51-1-0.82l-14.03-14.03c-0.93-0.93-2.91-3.28-5.69-5.69l-0.02-0.02c-0.01,0-0.01-0.01-0.02-0.01 c1.39-1.89,2.12-4.1,2.19-6.34h-1.89c-1.13,0-2.05-0.92-2.05-2.05s0.92-2.05,2.05-2.05h0.01c-1.13,0-2.05,0.92-2.05,2.05 s0.92,2.05,2.05,2.05h10.94l-4.1-4.1h-5.58c-0.56-1.62-1.47-3.09-2.68-4.31l-3.76-3.76c-0.51,1.28-1.26,2.48-2.26,3.55l3.11,3.11 c2.44,2.44,2.77,6.2,1,9.01c-0.07,0.11-0.15,0.22-0.23,0.33c-3.65-2.5-8.14-4.46-13.14-4.05c-5.76,0.47-10.56,4.06-14.28,10.66 l6.53,5.15l0.44-1.23c2.33-4.14,5.01-6.36,7.95-6.61c4.27-0.36,8.74,3.23,11.88,6.23l17.86,17.86c2.85,2.85,6.59,4.27,10.33,4.27 c3.25,0,6.51-1.08,9.17-3.23H117.9z"/><path fill="#959CA5" d="M55.21,268.19c4.33-4.33,1.72-13.95-5.82-21.49c-7.54-7.54-17.16-10.15-21.49-5.82L55.21,268.19z M114.55,226.35l4.03,4.03l9.91,9.91c3.51-4.06,3.35-10.19-0.5-14.04c-1.08-1.07-2.38-1.9-3.81-2.41 c2.4-6.19,1.11-13.49-3.89-18.48c-0.59-0.58-1.22-1.11-1.88-1.6c-6.77-5.08-16.41-4.56-22.57,1.6c-0.38,0.38-0.74,0.79-1.08,1.2 l8.36,8.36l2.32,2.32l5.8,5.8L114.55,226.35L114.55,226.35z M69.29,217.16l-7.15-7.15c1.43-0.64,2.92-1.14,4.44-1.5 c-0.19-0.23-0.39-0.45-0.61-0.67c-3.34-3.34-8.21-4.2-12.35-2.6c-0.34-0.96-0.89-1.83-1.61-2.55c-2.58-2.58-6.67-2.68-9.39-0.34 l22.54,22.54c0.27-0.23,0.54-0.47,0.8-0.72l0.28-0.31c0.99-1.06,1.74-2.27,2.26-3.55C68.93,219.31,69.19,218.24,69.29,217.16 L69.29,217.16z M69.29,217.16l11.23,11.23l4.1,4.1l5.02,5.02c4.85-8.18,3.14-18.07-3.15-24.35c-5.13-5.13-13.02-6.27-19.91-4.64 c-1.55,0.37-3.04,0.87-4.44,1.5C62.14,210.02,69.29,217.16,69.29,217.16z"/><path fill="#FFF" d="M22.66,240.72l-8.52,18.97l29.72,29.72l19.31-8.18L22.66,240.72L22.66,240.72z"/><linearGradient id="g" gradientUnits="userSpaceOnUse" x1="-2715.582" y1="-2202.67" x2="-2714.582" y2="-2202.67" gradientTransform="matrix(-42.5325 -42.5325 -42.5325 42.5325 -209134.9375 -21532.9902)"><stop offset="0" style="stop-color:#FFFFFF"/><stop offset="1" style="stop-color:#EAEBED"/></linearGradient><path fill="url(#g)" d="M22.66,240.72l-8.52,18.97l29.72,29.72l19.31-8.18L22.66,240.72L22.66,240.72z"/><path fill="#FFF" d="M34.07,238.75l-7.94-7.94l-6.68,6.69l3.21,3.22l40.51,40.51l4.2,4.2l6.69-6.69L57.4,262.08L34.07,238.75 L34.07,238.75z"/><path fill="#959CA5" d="M127,274.46c2.35-2.71,2.2-6.77-0.33-9.31c-0.72-0.7-1.58-1.24-2.53-1.58c1.59-4.1,0.74-8.93-2.57-12.25 c-0.39-0.39-0.81-0.74-1.25-1.06c-2.65-1.98-6.03-2.72-9.27-2.02c-2.15,0.46-4.12,1.53-5.68,3.08c-0.25,0.25-0.49,0.52-0.72,0.79 L127,274.46z"/></g><path fill="#BABFC5" d="M303.93,32.44l-0.08-0.07L303.93,32.44z"/><linearGradient id="h" gradientUnits="userSpaceOnUse" x1="-2703.89" y1="-2180.348" x2="-2702.89" y2="-2180.348" gradientTransform="matrix(-18.0171 18.0171 18.0171 18.0171 -9120.4492 88023.8516)"><stop offset="0" style="stop-color:#FFFFFF"/><stop offset="1" style="stop-color:#CBCED2"/></linearGradient><path fill="url(#h)" d="M303.93,32.44l-0.08-0.07L303.93,32.44z"/><path fill="#BABFC5" d="M303.93,32.44l-0.08-0.07L303.93,32.44z M307.32,28.91V28.9l-3.47,3.47L307.32,28.91z"/><g><linearGradient id="i" gradientUnits="userSpaceOnUse" x1="-2703.89" y1="-2178.488" x2="-2702.89" y2="-2178.488" gradientTransform="matrix(-18.0171 18.0171 18.0171 18.0171 -9120.4492 88023.8516)"><stop offset="0" style="stop-color:#FFFFFF"/><stop offset="1" style="stop-color:#CBCED2"/></linearGradient><path fill="url(#i)" d="M337.07,61.33l5.27,4.59L337.07,61.33z"/><linearGradient id="j" gradientUnits="userSpaceOnUse" x1="306.19" y1="-171.93" x2="306.19" y2="-159.37" gradientTransform="matrix(1 0 0 1 0 192)"><stop offset="0" style="stop-color:#BABFC5"/><stop offset="1" style="stop-color:#949AA2"/></linearGradient><path fill="url(#j)" d="M306.19,28.45c-5.07,0-9.29-3.6-10.26-8.38c-0.14,0.68-0.21,1.38-0.21,2.09 c0,5.78,4.69,10.47,10.47,10.47s10.47-4.69,10.47-10.47c0-0.72-0.07-1.42-0.21-2.09C315.49,24.85,311.26,28.45,306.19,28.45z"/><path opacity=".5" fill="#BABFC5" d="M306.19,28.45c5.07,0,9.29-3.6,10.26-8.38 c-0.97-4.78-5.2-8.38-10.26-8.38c-5.07,0-9.29,3.6-10.26,8.38C296.9,24.85,301.13,28.45,306.19,28.45z"/><path fill="#BABFC5" d="M306.19,28.45c5.07,0,9.29-3.6,10.26-8.38c-0.97-4.78-5.2-8.38-10.26-8.38c-5.07,0-9.29,3.6-10.26,8.38 C296.9,24.85,301.13,28.45,306.19,28.45z"/><path fill="#8F969F" d="M300.43,26.75l-2.28,2.28l-0.09,0.09c-0.27,0.26-0.27,0.68-0.01,0.95l0.01,0.01 c0.13,0.13,0.31,0.2,0.48,0.2s0.35-0.07,0.48-0.2L299.1,30l0.01-0.01l2.56-2.56l12.25-12.25l0.01-0.01l0.08-0.08 c0.27-0.27,0.27-0.7,0-0.96s-0.7-0.27-0.96,0l-0.09,0.09L300.43,26.75L300.43,26.75z"/><path fill="#FFF" d="M307.32,28.91l-3.47,3.46L307.32,28.91z M316.37,19.86l-9.05,9.05l30.97,26.99l5.12-5.12l1.96,2.25 l-4.83,4.83l5.27,4.6l4.16-4.17l-33.53-38.36L316.37,19.86z"/><linearGradient id="k" gradientUnits="userSpaceOnUse" x1="-2703.89" y1="-2179.544" x2="-2702.89" y2="-2179.544" gradientTransform="matrix(-18.0171 18.0171 18.0171 18.0171 -9120.4492 88023.8516)"><stop offset="0" style="stop-color:#FFFFFF"/><stop offset="1" style="stop-color:#CBCED2"/></linearGradient><path fill="url(#k)" d="M303.93,32.44l30.89,26.93L303.93,32.44z"/><path fill="#FFF" d="M337.07,61.33l5.27,4.59l3.47-3.46l-5.27-4.6L337.07,61.33z"/><linearGradient id="l" gradientUnits="userSpaceOnUse" x1="-2703.89" y1="-2178.488" x2="-2702.89" y2="-2178.488" gradientTransform="matrix(-18.0171 18.0171 18.0171 18.0171 -9120.4492 88023.8516)"><stop offset="0" style="stop-color:#FFFFFF"/><stop offset="1" style="stop-color:#CBCED2"/></linearGradient><path fill="url(#l)" d="M337.07,61.33l5.27,4.59l3.47-3.46l-5.27-4.6L337.07,61.33z"/><path fill="#FFF" d="M307.32,28.91l-3.47,3.46l0.08,0.07l30.89,26.93l3.47-3.47C338.29,55.9,307.32,28.91,307.32,28.91z"/><linearGradient id="m" gradientUnits="userSpaceOnUse" x1="-2703.89" y1="-2179.546" x2="-2702.89" y2="-2179.546" gradientTransform="matrix(-18.0171 18.0171 18.0171 18.0171 -9120.4492 88023.8516)"><stop offset="0" style="stop-color:#FFFFFF"/><stop offset="1" style="stop-color:#CBCED2"/></linearGradient><path fill="url(#m)" d="M307.32,28.91l-3.47,3.46l0.08,0.07l30.89,26.93l3.47-3.47C338.29,55.9,307.32,28.91,307.32,28.91z"/><path fill="#959CA5" d="M345.37,53.03l-1.96-2.25l-5.12,5.12l2.25,1.96L345.37,53.03z"/><path fill="#7F8791" d="M334.82,59.37l2.25,1.96L334.82,59.37z"/><linearGradient id="n" gradientUnits="userSpaceOnUse" x1="-2703.89" y1="-2178.683" x2="-2702.89" y2="-2178.683" gradientTransform="matrix(-18.0171 18.0171 18.0171 18.0171 -9120.4492 88023.8516)"><stop offset="0" style="stop-color:#959CA5"/><stop offset="1" style="stop-color:#777E88"/></linearGradient><path fill="url(#n)" d="M334.82,59.37l2.25,1.96L334.82,59.37z"/><path fill="#FFF" d="M337.07,61.33l3.47-3.47l-2.25-1.96l-3.47,3.47L337.07,61.33z"/><linearGradient id="o" gradientUnits="userSpaceOnUse" x1="-2703.89" y1="-2178.683" x2="-2702.89" y2="-2178.683" gradientTransform="matrix(-18.0171 18.0171 18.0171 18.0171 -9120.4492 88023.8516)"><stop offset="0" style="stop-color:#959CA5"/><stop offset="1" style="stop-color:#777E88"/></linearGradient><path fill="url(#o)" d="M337.07,61.33l3.47-3.47l-2.25-1.96l-3.47,3.47L337.07,61.33z"/></g><g><path fill="#FFF" d="M230.81,248.43l1.07-1.07l-0.58-0.58l6.77-6.77l-1.07-1.07l-0.82,0.82l-4.83-4.83l4.87-4.87l3,3l1.07-1.07 l-3-3l3.48-3.48l-1.07-1.07l-3.48,3.48l-4.8-4.8l4.87-4.87l2.78,2.78l1.07-1.07l-2.78-2.78l1.46-1.46l-1.07-1.07l-1.46,1.46 l-4.87-4.87l2.7-2.7l-1.07-1.07l-2.7,2.7l-4.8-4.8l2.7-2.7l-1.07-1.07l-2.7,2.7l-4.93-4.93l1.46-1.46l-1.07-1.07l-1.46,1.46 l-3.01-3.01l-1.07,1.07l3.01,3.01l-4.87,4.87l-4.74-4.74l3.48-3.48l-1.07-1.07l-3.48,3.48l-3.29-3.29l-1.07,1.07l3.29,3.29 l-4.87,4.87l-4.81-4.81l0.82-0.82l-1.07-1.07l-0.82,0.82l-1.07,1.07l-4.87,4.87l-0.69-0.69l-1.07,1.07l0.69,0.69l-4.74,4.74 l-0.69-0.69l-1.07,1.07l0.69,0.69l-4.87,4.87l-0.24-0.24l-1.07,1.07l0.24,0.24l-1.25,1.25l1.07,1.07l1.25-1.25l4.81,4.81l-4.8,4.8 l-3.04-3.04l-1.07,1.07l3.04,3.04l-3.03,3.03l1.07,1.07l3.03-3.03l4.74,4.74l-4.88,4.88l-2.14-2.14l-1.07,1.07l2.14,2.14 l-1.45,1.45l1.07,1.07l1.45-1.45l4.93,4.93l-2.52,2.52l1.07,1.07l2.52-2.52l4.8,4.8l-2.52,2.52l1.07,1.07l2.52-2.52l4.87,4.87 l-1.45,1.45l1.07,1.07l1.45-1.45l2.14,2.14l1.07-1.07l-2.14-2.14l4.88-4.88l4.8,4.8l-3.03,3.03l1.07,1.08l3.03-3.03l2.87,2.87 l1.07-1.07l-2.87-2.87l4.8-4.8l4.83,4.83l-1.25,1.25l1.07,1.07l1.25-1.25l1.07-1.07l4.87-4.87l0.58,0.58l1.07-1.07l-0.58-0.58 l4.74-4.74L230.81,248.43L230.81,248.43z M235.11,240.84l-4.87,4.87l-4.83-4.83l4.87-4.87L235.11,240.84z M201.9,228.99l4.74-4.74 l4.8,4.8l-4.74,4.74L201.9,228.99z M205.62,234.86l-4.87,4.87l-4.8-4.8l4.87-4.87L205.62,234.86z M200.82,227.91l-4.93-4.93 l4.74-4.74l4.93,4.93L200.82,227.91z M207.71,223.18l4.87-4.87l4.8,4.8l-4.87,4.87L207.71,223.18z M212.51,230.13l4.87,4.87 l-4.74,4.74l-4.87-4.87L212.51,230.13z M213.58,229.05l4.87-4.87l4.87,4.87l-4.87,4.87L213.58,229.05z M219.53,223.11l4.87-4.87 l4.87,4.87l-4.87,4.87L219.53,223.11z M218.45,222.03l-4.8-4.8l4.87-4.87l4.8,4.8L218.45,222.03z M212.58,216.16l-4.93-4.93 l4.87-4.87l4.93,4.93L212.58,216.16z M211.5,217.23l-4.87,4.87l-4.93-4.93l4.87-4.87L211.5,217.23z M200.62,216.09l-4.74-4.74 l4.87-4.87l4.74,4.74L200.62,216.09z M199.55,217.17l-4.74,4.74l-4.74-4.74l4.74-4.74L199.55,217.17z M193.74,222.98l-4.87,4.87 l-4.74-4.74l4.87-4.87L193.74,222.98z M194.81,224.05l4.93,4.93l-4.87,4.87l-4.93-4.93L194.81,224.05z M193.8,234.93l-4.8,4.8 l-4.93-4.93l4.8-4.8L193.8,234.93z M194.88,236.01l4.8,4.8l-4.8,4.8l-4.8-4.8L194.88,236.01z M200.75,241.88l4.87,4.87l-4.8,4.8 l-4.87-4.87L200.75,241.88z M201.83,240.81l4.87-4.87l4.87,4.87l-4.87,4.87L201.83,240.81z M212.64,241.88l4.8,4.8l-4.87,4.87 l-4.8-4.8L212.64,241.88z M213.72,240.81l4.74-4.74l4.8,4.8l-4.74,4.74L213.72,240.81z M219.53,235l4.87-4.87l4.8,4.8l-4.87,4.87 L219.53,235z M235.14,228.98l-4.87,4.87l-4.8-4.8l4.87-4.87L235.14,228.98z M235.21,217.16l-4.87,4.87l-4.87-4.87l4.87-4.87 L235.21,217.16z M229.27,211.22l-4.87,4.87l-4.8-4.8l4.87-4.87L229.27,211.22z M218.46,200.41l4.93,4.93l-4.87,4.87l-4.93-4.93 L218.46,200.41z M206.7,200.54l4.74,4.74l-4.87,4.87l-4.74-4.74L206.7,200.54z M194.87,200.6l4.81,4.81l-4.87,4.87l-4.81-4.81 L194.87,200.6z M188.93,206.54l4.81,4.81l-4.74,4.74l-4.81-4.81L188.93,206.54z M178.25,217.22l4.87-4.87l4.81,4.81l-4.87,4.87 L178.25,217.22z M178.26,228.99l4.8-4.8l4.74,4.74l-4.8,4.8L178.26,228.99z M178.11,240.75l4.88-4.88l4.93,4.93l-4.88,4.88 L178.11,240.75z M184.12,246.76l4.88-4.88l4.8,4.8l-4.88,4.88L184.12,246.76z M194.87,257.51l-4.87-4.87l4.88-4.88l4.87,4.87 L194.87,257.51z M206.7,257.43l-4.8-4.8l4.8-4.8l4.8,4.8L206.7,257.43z M218.48,257.46l-4.83-4.83l4.87-4.87l4.83,4.83 L218.48,257.46z M224.43,251.52l-4.83-4.83l4.74-4.74l4.83,4.83L224.43,251.52z"/><path fill="#BABFC5" d="M197.73,260.37c-0.41-0.08-0.81-0.15-1.22-0.22c1.1,0.3,2.22,0.54,3.35,0.71l-0.29-0.1 C198.97,260.61,198.35,260.49,197.73,260.37L197.73,260.37z M187.72,259.72c-5.85,0.36-11.52,2.03-16.64,4.89 c-0.76,1.36-1.61,2.69-2.55,3.97c0.21,0.28,0.38,0.58,0.52,0.89c7.73-5.56,17.26-7.86,26.78-6.37 C193.02,262.35,190.29,261.23,187.72,259.72L187.72,259.72z M167.82,267.75l0.21,0.21c0.19,0.19,0.35,0.4,0.5,0.61 c0.93-1.28,1.78-2.6,2.55-3.97c2.86-5.11,4.53-10.8,4.89-16.64c-1.51-2.57-2.63-5.3-3.38-8.11c1.49,9.53-0.82,19.08-6.4,26.81 C166.78,266.92,167.34,267.27,167.82,267.75L167.82,267.75z"/><path fill="#FFF" d="M168.03,275.18c1.54-1.54,1.87-3.83,1.02-5.71c-0.14-0.31-0.32-0.61-0.52-0.89 c-0.15-0.21-0.31-0.42-0.5-0.61l-0.21-0.21c-0.48-0.48-1.04-0.84-1.63-1.09c-1.91-0.81-4.12-0.38-5.59,1.09l-13.57,13.57 c-1.98,2-1.98,5.22,0,7.22l0.21,0.21c1.98,1.98,5.23,1.98,7.22,0L168.03,275.18L168.03,275.18z"/><path fill="#BABFC5" d="M175.97,247.97c1.39,2.37,3.09,4.59,5.12,6.62s4.26,3.74,6.63,5.12c2.57,1.51,5.3,2.63,8.12,3.38 c2.8,0.75,5.69,1.13,8.57,1.13c8.44,0,16.88-3.21,23.31-9.64l4.6-4.59c12.85-12.85,12.85-33.77,0-46.62 c-12.85-12.85-33.77-12.85-46.62,0l-4.6,4.6c-8.62,8.62-11.45,20.87-8.5,31.88C173.34,242.67,174.46,245.4,175.97,247.97 L175.97,247.97z M174.48,230.62c0.02-1.02,0.1-2.03,0.22-3.04c0.08-0.62,0.17-1.24,0.28-1.85c0.47-2.49,1.25-4.93,2.35-7.26 c0.23-0.48,0.47-0.95,0.72-1.42c1.09-2.03,2.43-3.95,4.03-5.73c0.33-0.37,0.68-0.74,1.03-1.1l0.1-0.11l4.6-4.6l0.11-0.1 c0.36-0.36,0.73-0.7,1.1-1.03c1.78-1.6,3.71-2.94,5.73-4.03c2.72-1.47,5.64-2.51,8.68-3.07c0.61-0.11,1.23-0.21,1.85-0.28 c1.01-0.12,2.02-0.2,3.04-0.22l0.67-0.02c0.48,0,0.96,0.01,1.44,0.03c1.71,0.08,3.42,0.32,5.1,0.69c0.99,0.22,1.98,0.49,2.95,0.81 l0.04,0.01c2.81,0.94,5.46,2.29,7.87,4.02c0.41,0.29,0.82,0.6,1.22,0.92c0.88,0.7,1.73,1.45,2.54,2.26s1.56,1.67,2.26,2.54 c1.81,2.29,3.29,4.82,4.37,7.53c0.21,0.52,0.39,1.04,0.57,1.56l0.01,0.04c0.32,0.97,0.59,1.95,0.81,2.95 c0.37,1.68,0.61,3.39,0.69,5.1c0.03,0.7,0.03,1.41,0.02,2.11c-0.02,1.02-0.1,2.03-0.22,3.04c-0.08,0.62-0.17,1.24-0.28,1.85 c-0.47,2.49-1.25,4.93-2.35,7.26c-0.23,0.48-0.47,0.95-0.72,1.42c-1.11,2.07-2.46,3.99-4.03,5.74c-0.33,0.37-0.68,0.74-1.03,1.1 l-0.1,0.11l-4.6,4.59l-0.11,0.1c-0.36,0.36-0.72,0.7-1.1,1.03c-1.74,1.57-3.67,2.92-5.73,4.03c-0.47,0.25-0.94,0.49-1.42,0.72 c-2.3,1.09-4.75,1.87-7.28,2.33c-0.61,0.11-1.23,0.21-1.85,0.28c-0.99,0.12-1.99,0.19-3,0.21l-0.69,0.02 c-0.48,0-0.95-0.01-1.42-0.03c-1.04-0.05-2.08-0.15-3.11-0.3c-1.13-0.17-2.25-0.41-3.35-0.71c-0.55-0.15-1.09-0.31-1.62-0.49 l-0.03-0.01c-0.53-0.18-1.05-0.36-1.56-0.57c-2.23-0.88-4.35-2.04-6.32-3.45c-0.41-0.29-0.82-0.6-1.22-0.92 c-0.88-0.7-1.74-1.45-2.55-2.26s-1.56-1.67-2.26-2.54c-1.81-2.29-3.29-4.82-4.37-7.53c-0.21-0.52-0.39-1.04-0.57-1.56l-0.01-0.04 c-0.54-1.63-0.94-3.3-1.2-5c-0.15-1.01-0.26-2.03-0.31-3.05C174.47,232.03,174.47,231.32,174.48,230.62L174.48,230.62z"/></g><g fill="#FFF"><path d="M47.6,91.18c0.13-2.61,0.27-5.56,3.26-8.54c2.98-2.98,5.94-3.13,8.54-3.26c2.58-0.13,4.8-0.24,7.25-2.69 s2.56-4.68,2.69-7.26c0.13-2.61,0.27-5.56,3.26-8.54c2.99-2.99,5.94-3.13,8.54-3.26c2.58-0.13,4.8-0.24,7.26-2.69 c1.16-1.16,1.8-2.28,2.16-3.4l-5.86-5.86c-0.47,1.08-1.18,2.17-2.28,3.27c-2.99,2.99-5.94,3.13-8.54,3.26 c-2.58,0.13-4.8,0.24-7.26,2.69c-2.45,2.45-2.56,4.68-2.69,7.26c-0.13,2.61-0.27,5.56-3.26,8.54c-2.98,2.98-5.94,3.13-8.54,3.26 c-2.58,0.13-4.8,0.24-7.25,2.69s-2.56,4.68-2.69,7.26c-0.13,2.61-0.27,5.56-3.26,8.54c-2.33,2.33-4.63,2.93-6.77,3.14l5.54,5.54 c2.57-0.13,4.78-0.24,7.23-2.69C47.36,95.98,47.47,93.75,47.6,91.18z"/><path d="M40.23,83.8c0.13-2.61,0.27-5.56,3.26-8.54c2.98-2.98,5.94-3.13,8.54-3.26c2.58-0.13,4.8-0.24,7.25-2.69 s2.56-4.68,2.69-7.26c0.13-2.61,0.27-5.56,3.26-8.54c2.99-2.99,5.94-3.13,8.54-3.26c2.58-0.13,4.8-0.24,7.26-2.69 c1.16-1.16,1.8-2.28,2.16-3.4L60.43,21.41L9.2,72.63l21.11,21.11c2.57-0.13,4.78-0.24,7.23-2.69C39.99,88.61,40.1,86.38,40.23,83.8 z M111.65,72.63L92.07,53.05c-0.47,1.08-1.18,2.17-2.28,3.27c-2.99,2.99-5.94,3.13-8.54,3.26c-2.58,0.13-4.8,0.24-7.26,2.69 c-2.45,2.45-2.56,4.68-2.69,7.26c-0.13,2.61-0.27,5.56-3.26,8.54c-2.98,2.98-5.94,3.13-8.54,3.26c-2.58,0.13-4.8,0.24-7.25,2.69 s-2.56,4.68-2.69,7.26c-0.13,2.61-0.27,5.56-3.26,8.54c-2.33,2.33-4.63,2.93-6.77,3.14l20.9,20.9 C60.43,123.86,111.65,72.63,111.65,72.63z"/></g><path fill="none" d="M9.2,72.63l51.22-51.22l51.22,51.22l-51.22,51.22L9.2,72.63z"/><g opacity=".6"><linearGradient id="p" gradientUnits="userSpaceOnUse" x1="191.915" y1="315.98" x2="191.915" y2="414.673" gradientTransform="matrix(0.7071 -0.7071 0.7071 0.7071 -305.565 -21.9542)"><stop offset="0" style="stop-color:#FFFFFF"/><stop offset="1" style="stop-color:#979DA5"/></linearGradient><path fill="url(#p)" d="M9.2,72.63l51.23,51.23l51.22-51.23L9.2,72.63z"/></g><path fill="#8F969F" d="M42.18,83.9c0.13-2.58,0.24-4.8,2.69-7.26c2.45-2.45,4.68-2.56,7.25-2.69c2.61-0.13,5.56-0.27,8.54-3.26	c2.99-2.99,3.13-5.94,3.26-8.54c0.13-2.58,0.24-4.8,2.69-7.26c2.45-2.45,4.68-2.56,7.26-2.69c2.61-0.13,5.56-0.27,8.54-3.26	c1.1-1.1,1.81-2.2,2.28-3.27l-1.51-1.51c-0.36,1.12-0.99,2.24-2.16,3.4c-2.45,2.45-4.68,2.56-7.26,2.69	c-2.61,0.13-5.56,0.27-8.54,3.26c-2.99,2.99-3.13,5.94-3.26,8.54c-0.13,2.58-0.24,4.8-2.69,7.26c-2.45,2.45-4.68,2.56-7.25,2.69	c-2.61,0.13-5.56,0.27-8.54,3.26c-2.99,2.99-3.13,5.94-3.26,8.54c-0.13,2.58-0.24,4.8-2.69,7.26c-2.44,2.44-4.66,2.56-7.23,2.69	l1.84,1.84c2.14-0.21,4.45-0.81,6.77-3.14C41.91,89.46,42.05,86.5,42.18,83.9z M49.56,91.27c0.13-2.58,0.24-4.8,2.69-7.26	c2.45-2.45,4.68-2.56,7.25-2.69c2.61-0.13,5.56-0.27,8.54-3.26c2.99-2.99,3.13-5.94,3.26-8.54c0.13-2.58,0.24-4.8,2.69-7.26	c2.45-2.45,4.68-2.56,7.26-2.69c2.61-0.13,5.56-0.27,8.54-3.26c1.1-1.1,1.81-2.2,2.28-3.27l-1.51-1.51	c-0.36,1.12-0.99,2.24-2.16,3.4c-2.45,2.45-4.68,2.56-7.26,2.69c-2.61,0.13-5.56,0.27-8.54,3.26c-2.99,2.99-3.13,5.94-3.26,8.54	c-0.13,2.58-0.24,4.8-2.69,7.26c-2.45,2.45-4.68,2.56-7.25,2.69c-2.61,0.13-5.56,0.27-8.54,3.26c-2.99,2.99-3.13,5.94-3.26,8.54	c-0.13,2.58-0.24,4.8-2.69,7.26c-2.44,2.44-4.66,2.56-7.23,2.69l1.84,1.84c2.14-0.21,4.45-0.81,6.77-3.14	C49.28,96.83,49.43,93.88,49.56,91.27z"/></svg>
