<?xml version="1.0" encoding="utf-8"?>
<!-- Generator: Adobe Illustrator 24.2.3, SVG Export Plug-In . SVG Version: 6.00 Build 0)  -->
<svg version="1.1" id="Layer_1" xmlns="http://www.w3.org/2000/svg" xmlns:xlink="http://www.w3.org/1999/xlink" x="0px" y="0px"
	 width="179.79px" height="132px" viewBox="0 0 179.79 132" enable-background="new 0 0 179.79 132" xml:space="preserve">
<g>
	<path fill="#DADCE0" d="M39.56,99.66c-0.29,0-0.58-0.06-0.85-0.18l-21.4-9.31c-1.08-0.47-1.58-1.73-1.11-2.82
		c0.47-1.08,1.73-1.58,2.82-1.11l21.4,9.31c1.08,0.47,1.58,1.73,1.11,2.82C41.17,99.18,40.38,99.66,39.56,99.66z"/>
</g>
<g>
	<path fill="#DADCE0" d="M24.52,104.95c-0.29,0-0.58-0.06-0.85-0.18l-21.4-9.31c-1.08-0.47-1.58-1.73-1.11-2.82
		c0.47-1.08,1.73-1.58,2.82-1.11l21.4,9.31c1.08,0.47,1.58,1.73,1.11,2.82C26.13,104.47,25.34,104.95,24.52,104.95z"/>
</g>
<linearGradient id="SVGID_1_" gradientUnits="userSpaceOnUse" x1="24.9293" y1="123.0224" x2="38.7851" y2="88.7279">
	<stop  offset="0" style="stop-color:#D3D4D7"/>
	<stop  offset="0.1558" style="stop-color:#DDDEE1"/>
	<stop  offset="0.4072" style="stop-color:#E8EAED"/>
	<stop  offset="0.4401" style="stop-color:#E8EAED"/>
	<stop  offset="1" style="stop-color:#E8EAED"/>
</linearGradient>
<path fill="url(#SVGID_1_)" d="M28.82,124.06c10.3-8.2,20.6-16.4,30.91-24.61c-4.93-2.68-9.87-5.35-14.8-8.03
	c-2.5-1.63-5.67-2.2-8.76-1.29l-21.47,6.33c-1.39,0.41-2.64,1.08-3.69,1.95c0,0-0.01,0-0.01-0.01c-0.08,0.07-0.3,0.26-0.59,0.55
	c-2.77,2.65-4.01,6.71-2.85,10.64v0c0.67,2.26,2.02,4.11,3.77,5.43c0.24,0.19,0.42,0.32,0.5,0.37c0.03,0.01,0.05,0.03,0.08,0.04
	c0.28,0.18,0.56,0.35,0.85,0.5c5.25,2.8,10.41,5.64,15.66,8.44c0,0,0,0,0,0c0.12,0.07,0.25,0.13,0.37,0.2
	C28.75,124.42,28.83,124.21,28.82,124.06z"/>
<linearGradient id="SVGID_2_" gradientUnits="userSpaceOnUse" x1="91.1752" y1="-101.5726" x2="70.8473" y2="114.1657">
	<stop  offset="0.3464" style="stop-color:#DADCE0"/>
	<stop  offset="0.8212" style="stop-color:#EAEAEA;stop-opacity:0"/>
</linearGradient>
<path fill="url(#SVGID_2_)" d="M109.13,58.51H48.48c-2.25,0-4.08-1.83-4.08-4.08V5.03c0-2.25,1.83-4.08,4.08-4.08h60.65
	c2.25,0,4.08,1.83,4.08,4.08v49.39C113.21,56.68,111.38,58.51,109.13,58.51z"/>
<linearGradient id="SVGID_3_" gradientUnits="userSpaceOnUse" x1="84.2357" y1="-27.3905" x2="72.0505" y2="101.461">
	<stop  offset="0.3464" style="stop-color:#DADCE0"/>
	<stop  offset="0.8212" style="stop-color:#EAEAEA;stop-opacity:0"/>
</linearGradient>
<path fill="url(#SVGID_3_)" d="M78.83,10.03c-10.74,0-19.44,8.71-19.44,19.44v0.52c0,10.74,8.71,19.44,19.44,19.44
	s19.44-8.71,19.44-19.44v-0.52C98.28,18.73,89.57,10.03,78.83,10.03z M75.11,35.34c0,1.5-1.22,2.72-2.72,2.72
	c-1.5,0-2.72-1.22-2.72-2.72V24.12c0-1.5,1.22-2.72,2.72-2.72c1.5,0,2.72,1.22,2.72,2.72V35.34z M88.01,35.34
	c0,1.5-1.22,2.72-2.72,2.72h0c-1.5,0-2.72-1.22-2.72-2.72V24.12c0-1.5,1.22-2.72,2.72-2.72h0c1.5,0,2.72,1.22,2.72,2.72V35.34z"/>
<path fill="#DADCE0" d="M58.38,119.19l-21.47,6.33c-5.6,1.65-11.48-1.55-13.13-7.15l0,0c-1.65-5.6,1.55-11.48,7.15-13.13l21.47-6.33
	c5.6-1.65,11.48,1.55,13.13,7.15l0,0C67.18,111.67,63.98,117.54,58.38,119.19z"/>
<linearGradient id="SVGID_4_" gradientUnits="userSpaceOnUse" x1="53.3392" y1="175.46" x2="45.0082" y2="114.8289">
	<stop  offset="0" style="stop-color:#000000"/>
	<stop  offset="1" style="stop-color:#202124;stop-opacity:0"/>
</linearGradient>
<path fill="url(#SVGID_4_)" d="M58.38,119.19l-21.47,6.33c-5.6,1.65-11.48-1.55-13.13-7.15c-1.65-5.6,1.55-11.48,7.15-13.13
	l21.47-6.33c5.6-1.65,11.48,1.55,13.13,7.15v0C67.18,111.67,63.98,117.54,58.38,119.19z"/>
<path fill="#F1F3F4" d="M58.55,107.23c-0.01-0.03-0.02-0.06-0.03-0.09c0.45-0.26,0.89-0.52,1.34-0.78
	c-1.13-0.72-2.26-1.43-3.39-2.15c-1.34-0.99-3.1-1.37-4.83-0.9l-17.02,4.71c-2.99,0.83-4.74,3.92-3.91,6.91l0,0
	c0.42,1.52,1.42,2.71,2.7,3.42c0.92,0.59,1.84,1.18,2.76,1.76c0.95-0.55,1.9-1.1,2.85-1.65l15.62-4.32
	C57.62,113.31,59.37,110.22,58.55,107.23L58.55,107.23z"/>
<path fill="#DADCE0" d="M57.79,116.14l-17.02,4.71c-2.99,0.83-6.08-0.93-6.91-3.91v0c-0.83-2.99,0.93-6.08,3.91-6.91l17.02-4.71
	c2.99-0.83,6.08,0.93,6.91,3.91l0,0C62.53,112.22,60.78,115.32,57.79,116.14z"/>
<linearGradient id="SVGID_5_" gradientUnits="userSpaceOnUse" x1="39.212" y1="120.598" x2="179.0765" y2="121.3459">
	<stop  offset="0.2315" style="stop-color:#D3D3D3"/>
	<stop  offset="0.9175" style="stop-color:#D3D3D3;stop-opacity:0"/>
</linearGradient>
<path fill="url(#SVGID_5_)" d="M178.8,125.6c-5.06,0.3-9.8-0.08-14.2-1.15c-4.77-1.16-7.54-2.71-10.48-4.35
	c-3.64-2.03-7.41-4.14-14.67-5.46c-11.5-2.1-19.75-0.02-28.49,2.18c-6.4,1.61-13.01,3.27-21.67,3.56
	c-13.39,0.44-27.36-2.7-41.53-9.34c-1.37-0.65-3.01-0.05-3.65,1.32c-0.64,1.37-0.05,3.01,1.32,3.65
	c14.96,7.01,29.78,10.33,44.04,9.86c9.25-0.31,16.47-2.12,22.83-3.72c8.49-2.14,15.83-3.98,26.16-2.1
	c6.36,1.16,9.58,2.95,12.98,4.85c3.13,1.75,6.36,3.55,11.86,4.89c3.85,0.94,7.91,1.4,12.18,1.4c1.09,0,2.2-0.04,3.32-0.1V125.6z"/>
<linearGradient id="SVGID_6_" gradientUnits="userSpaceOnUse" x1="161.3173" y1="-108.4819" x2="60.4899" y2="52.373">
	<stop  offset="0" style="stop-color:#000000"/>
	<stop  offset="1" style="stop-color:#202124;stop-opacity:0"/>
</linearGradient>
<path fill="url(#SVGID_6_)" d="M63.09,18.03c-6.22,5.72-12.48,11.5-18.69,17.22c-0.03,5.92,0,11.99,0,17.91
	c0,3.69,1.93,5.34,4.56,5.34c0,0,28.24-0.15,28.08,0c5.26-4.98,10.53-9.95,15.79-14.93c-0.49,0.43-0.98,0.87-1.48,1.3
	c-5.46,4.54-12.94,5.82-19.53,3.33c-6.95-2.63-10.98-8.84-12.09-14.55c0,0-1.15-5.1,0.69-10.59c0.76-2.25,1.91-3.99,1.91-3.99
	C62.64,18.62,62.91,18.26,63.09,18.03z"/>
<g>
	<path fill="#70757A" d="M72.39,38.06L72.39,38.06c-1.5,0-2.72-1.22-2.72-2.72V24.12c0-1.5,1.22-2.72,2.72-2.72l0,0
		c1.5,0,2.72,1.22,2.72,2.72v11.21C75.11,36.84,73.89,38.06,72.39,38.06z"/>
</g>
<g>
	<g>
		<path fill="#70757A" d="M85.28,38.06L85.28,38.06c-1.5,0-2.72-1.22-2.72-2.72V24.12c0-1.5,1.22-2.72,2.72-2.72l0,0
			c1.5,0,2.72,1.22,2.72,2.72v11.21C88.01,36.84,86.79,38.06,85.28,38.06z"/>
	</g>
</g>
<linearGradient id="SVGID_7_" gradientUnits="userSpaceOnUse" x1="59.355" y1="188.4329" x2="104.8158" y2="130.1725">
	<stop  offset="0" style="stop-color:#70757A"/>
	<stop  offset="1" style="stop-color:#70757A;stop-opacity:0"/>
</linearGradient>
<path fill="url(#SVGID_7_)" d="M178.8,125.6c-5.06,0.3-9.8-0.08-14.2-1.15c-4.77-1.16-7.54-2.71-10.48-4.35
	c-3.64-2.03-7.41-4.14-14.67-5.46c-11.5-2.1-19.75-0.02-28.49,2.18c-6.4,1.61-13.01,3.27-21.67,3.56
	c-13.39,0.44-27.36-2.7-41.53-9.34c-1.37-0.65-3.01-0.05-3.65,1.32c-0.64,1.37-0.05,3.01,1.32,3.65
	c14.96,7.01,29.78,10.33,44.04,9.86c9.25-0.31,16.47-2.12,22.83-3.72c8.49-2.14,15.83-3.98,26.16-2.1
	c6.36,1.16,9.58,2.95,12.98,4.85c3.13,1.75,6.36,3.55,11.86,4.89c3.85,0.94,7.91,1.4,12.18,1.4c1.09,0,2.2-0.04,3.32-0.1V125.6z"/>
<linearGradient id="SVGID_8_" gradientUnits="userSpaceOnUse" x1="40.3294" y1="122.4517" x2="48.3192" y2="115.7475">
	<stop  offset="0" style="stop-color:#C9CBCF"/>
	<stop  offset="1" style="stop-color:#B5B7BA"/>
</linearGradient>
<path fill="url(#SVGID_8_)" d="M44.26,114.99l-5.1,6.07c0,0,0.97,0.07,2.85-0.53l8.36-2.34l-5.04-2.24
	C45.33,115.96,44.68,115.64,44.26,114.99z"/>
</svg>
