<svg xmlns="http://www.w3.org/2000/svg" width="220" height="220"><linearGradient id="a" gradientUnits="userSpaceOnUse" x1="113.45" y1="1063" x2="113.45" y2="982.46" gradientTransform="matrix(1 0 0 -1 0 1124)"><stop offset="0" style="stop-color:#202124"/><stop offset="1" style="stop-color:#202124;stop-opacity:0"/></linearGradient><path fill="url(#a)" d="M165.3 130.9H64.9v.1l-13.2 27.5h100.4l12.1-25.2h.2c3.4 0 6.2-.6 6.5-1.4h.4c2.1 0 3.9-.493 3.9-.993l-9.9-.007z"/><linearGradient id="b" gradientUnits="userSpaceOnUse" x1="-421.9082" y1="197.7261" x2="-421.9082" y2="105.6801" gradientTransform="rotate(180 -170.97825 110)"><stop offset="0" style="stop-color:#DADCE0"/><stop offset="1" style="stop-color:#FFFFFF;stop-opacity:0"/></linearGradient><path fill="url(#b)" d="M159.903 111.695L135.05 73.099c-7.804-10.762-20.799-15.539-32.78-11.528-.501.168-1.008.348-1.521.541-17.191 6.477-28.654-28.45-47.745-31.509-23.193-3.717-30.211 16.915-30.211 16.915L0 111.7l159.903-.005z"/><linearGradient id="c" gradientUnits="userSpaceOnUse" x1="183.4" y1="181.131" x2="183.4" y2="128.4369" gradientTransform="matrix(1 0 0 -1 0 220)"><stop offset="0" style="stop-color:#E6EBEF"/><stop offset=".4509" style="stop-color:#EEF2F4;stop-opacity:0.5491"/><stop offset="1" style="stop-color:#FFFFFF;stop-opacity:0"/></linearGradient><path fill="url(#c)" d="M214.3 67.8h-61.8c2.341-7.915 10.087-6.874 15.568-4.979 4.239 1.465 8.66.945 12.743-1.358l.628-.354c1.796-1.013 3.561-2.157 5.315-3.335 8.505-5.709 14.088-.613 16.84 3.356 1.342 1.936 3.17 2.802 4.976 2.371 2.202-.524 4.953-.186 5.73 4.299z"/><path fill="#E8EAED" d="M183.5 39.7c-5.247 0-9.5-4.253-9.5-9.5s4.253-9.5 9.5-9.5 9.5 4.253 9.5 9.5-4.253 9.5-9.5 9.5z"/><path fill="#F8C229" d="M144.2 130.907c.1-2 1.8-3.5 3.8-3.4 1 0 2 .4 2.6 1.2.7-.7 1.6-1.2 2.6-1.2s2 .4 2.6 1.2c.7-.7 1.6-1.2 2.6-1.2h.3c0-3.9 3.2-7.1 7.1-7.1 3.6 0 6.6 2.7 7 6.3h.4c2.3 0 4.2 1.9 4.2 4.2h-33.2z"/><path fill="#FFF" d="M112.7 79.4H64.6c-.2 0-.3-.1-.3-.3 0-.1.2-.3.3-.3h48.1c.2 0 .3.1.3.3s-.1.3-.3.3z"/><path fill="#34A853" d="M209.223 113.069c0 6.2-5.6 11.3-12.4 11.3-3.4 0-6.6-1.2-9.1-3.5h-9.9c-6.3-.4-11.2-5.8-10.8-12.2.4-6.1 5.3-10.8 11.4-10.8h.7c2.2-6.5 9.2-9.9 15.7-7.7 5 1.7 8.4 6.4 8.4 11.7v1.6c3.6 1.9 5.9 5.6 6 9.6z"/><path fill="#70757A" d="M185.623 131.169c-.2-.1-.4-.3-.4-.5l5-26.7c.1-.3.3-.3.5-.3s.4.3.3.5l-5 26.7c0 .2-.2.3-.4.3z"/><path fill="#70757A" d="M188.523 115.569h-.2l-12.7-4.1c-.3-.1-.3-.3-.3-.5s.3-.3.5-.3l12.7 4.1c.3.1.3.3.3.5 0 .1-.1.3-.3.3zM189.423 111.469c-.2 0-.3-.1-.4-.3 0-.2.1-.4.3-.5l6.3-1c.2-.1.4.1.5.3s-.1.4-.3.5l-6.4 1z"/><linearGradient id="d" gradientUnits="userSpaceOnUse" x1="184" y1="1067.22" x2="184" y2="982.58" gradientTransform="matrix(1 0 0 -1 0 1124)"><stop offset="0" style="stop-color:#202124"/><stop offset="1" style="stop-color:#202124;stop-opacity:0"/></linearGradient><path fill="url(#d)" d="M192.5 133.9c-2.8 0-5.6.4-8.3 1.3l1.8-4.1c.1-.1-.1-.2-.3-.3-.2 0-.4.1-.5.2l-1.9 4.5h-9.6c-6.1.2-10.9 2.4-10.9 5.2s5.2 5.2 11.5 5.2h.7c1.7 2.2 6.3 3.7 11.7 3.7 6.9 0 12.4-2.5 12.4-5.5v-.7c3.6-.8 6.1-2.5 6.1-4.3-.3-2.9-5.8-5.2-12.7-5.2z"/><path fill="#FFF" d="M37.929 40.17c7.082-.544 14.621 2.223 19.215 7.053 2.507 2.635 3.532 4.85 3.134 6.769-.621 2.997-4.617 5.253-10.426 7.719-2.536 1.076-4.26 3.023-4.731 5.341-.399 1.967.164 3.914 1.545 5.341 1.206 1.245 3.548 1.78 6.098 1.78 2.009 0 4.147-.333 5.961-.91l37.322-10.362c-.563-.023-1.122-.091-1.675-.194l-35.828 9.947c-3.965 1.264-9.5 1.283-11.422-.703-1.234-1.274-1.736-3.014-1.379-4.773.428-2.11 2.016-3.89 4.356-4.883 5.993-2.543 10.123-4.907 10.8-8.175.443-2.139-.635-4.538-3.296-7.335-4.72-4.962-12.456-7.807-19.723-7.248-4.317.332-10.273 1.992-15.012 7.776-.048.129-.075.205-.075.205l-.617 1.736c.012-.012.026-.02.036-.035 4.755-6.846 11.172-8.699 15.717-9.049z"/><radialGradient id="e" cx="180.1316" cy="169.871" r="237.2901" gradientTransform="matrix(1 0 0 -1 0 220)" gradientUnits="userSpaceOnUse"><stop offset="0" style="stop-color:#DADCE0"/><stop offset="1" style="stop-color:#6E7378"/></radialGradient><path fill="url(#e)" d="M65.145 75.514H165.47v55.393H65.145z"/><path fill="#FFF" d="M158.203 93.743c-.682 0-1.322-.265-1.804-.747-.723-.724-1.986-.724-2.709-.001-.995.995-2.614.995-3.608.001-.747-.748-1.963-.748-2.71 0-.963.963-2.644.964-3.607-.001-.724-.724-1.987-.724-2.71.001-.964.963-2.644.963-3.607 0-.724-.725-1.986-.724-2.71-.001-.964.965-2.644.965-3.607 0-.724-.724-1.987-.724-2.71.001-.964.963-2.644.963-3.607 0-.724-.725-1.987-.724-2.71-.001-.963.965-2.644.965-3.607 0-.748-.747-1.963-.748-2.71.001-.963.963-2.644.963-3.607 0-.724-.725-1.987-.724-2.71-.001-.963.965-2.644.965-3.607 0-.724-.724-1.986-.724-2.71 0-.995.996-2.613.995-3.607.001-.724-.725-1.986-.725-2.71 0-.964.963-2.644.964-3.607-.001-.124-.124-.124-.325 0-.449.124-.125.325-.122.449.001.724.724 1.986.723 2.71 0 .962-.966 2.643-.966 3.607 0 .724.724 1.987.724 2.71-.001.963-.963 2.644-.963 3.607 0 .724.725 1.986.725 2.71 0 .962-.964 2.643-.965 3.607.001.724.724 1.986.724 2.71 0 .995-.996 2.613-.995 3.607-.001.724.725 1.986.725 2.71 0 .963-.964 2.643-.965 3.607.001.724.724 1.986.724 2.71 0 .963-.965 2.644-.964 3.607-.001.724.725 1.986.725 2.71 0 .962-.964 2.643-.965 3.607.001.724.724 1.986.724 2.71 0 .963-.965 2.644-.964 3.607-.001.724.725 1.986.725 2.709.001.965-.965 2.643-.964 3.608-.001.747.748 1.963.748 2.71 0 .963-.963 2.643-.963 3.607 0 .747.748 1.963.748 2.709 0 .965-.963 2.644-.964 3.607.001.747.747 1.963.748 2.71-.001.965-.963 2.643-.963 3.608 0 .123.124.123.325 0 .449-.124.124-.325.124-.449 0-.724-.725-1.986-.725-2.71 0-.995.995-2.614.995-3.608 0-.722-.725-1.985-.724-2.709 0-.481.483-1.122.748-1.803.748zM118.636 120.288H97.714c-.175 0-.317-.142-.317-.317v-5.943c0-5.877 4.781-10.659 10.659-10.659h.238c5.877 0 10.66 4.782 10.66 10.659v5.943c-.001.175-.143.317-.318.317zm-20.605-.635h20.287v-5.626c0-5.528-4.497-10.025-10.025-10.025h-.238c-5.527 0-10.024 4.497-10.024 10.025v5.626zM88.681 120.288H67.759c-.175 0-.317-.142-.317-.317v-5.944c0-5.877 4.782-10.659 10.659-10.659h.237c5.877 0 10.659 4.781 10.659 10.659v5.944c.001.175-.141.317-.316.317zm-20.605-.635h20.287v-5.626c0-5.527-4.497-10.024-10.025-10.024h-.237c-5.528 0-10.025 4.497-10.025 10.024v5.626zM165.47 98.416H93.198c-.175 0-.317-.142-.317-.317s.142-.317.317-.317h72.272c.175 0 .317.142.317.317s-.142.317-.317.317z"/><path fill="#FFF" d="M92.96 131.7c-.175 0-.317-.142-.317-.317V92.631c0-.106.053-.205.141-.264l25.2-16.88c.146-.097.342-.058.44.087.097.146.059.343-.087.44l-25.06 16.787v38.582c0 .175-.142.317-.317.317zM149.859 130.907h-.634v-15.334c0-5.527-4.497-10.024-10.024-10.024h-.238c-5.528 0-10.025 4.497-10.025 10.024v15.334h-.634v-15.334c0-5.877 4.782-10.659 10.659-10.659h.238c5.877 0 10.659 4.781 10.659 10.659v15.334z"/><radialGradient id="f" cx="237.7709" cy="1625.7926" r="107.1728" gradientTransform="matrix(.9879 .155 -.0736 .4691 3.6735 -626.4005)" gradientUnits="userSpaceOnUse"><stop offset=".0061" style="stop-color:#DADCE0"/><stop offset=".3552" style="stop-color:#DDDFE3"/><stop offset=".6531" style="stop-color:#E8E9EC"/><stop offset=".9313" style="stop-color:#F9FAFA"/><stop offset="1" style="stop-color:#FFFFFF"/></radialGradient><path fill="url(#f)" d="M219.687 212.378h-6.505c0-7.89-6.421-14.311-14.311-14.311h-71.016c-11.478 0-20.816-9.338-20.816-20.816 0-7.89-6.42-14.311-14.311-14.311H0v-6.505h92.73c11.478 0 20.815 9.338 20.815 20.815 0 7.891 6.421 14.312 14.312 14.312h71.016c11.476.001 20.814 9.34 20.814 20.816z"/><path fill="#F1F3F4" d="M183.305 158.499h13.997v12.024h-13.997z"/><path fill="#F1F3F4" d="M182.59 155.996h15.426v4.552H182.59z"/><path fill="#F1F3F4" d="M188.692 170.643l-6.189-13.393.097 3.854.735.048-.03 9.372z"/><path fill="#F1F3F4" d="M182.835 165.811v-5.801l-14.755 7.178c-1.514.642-2.327 2.331-1.817 3.93l2.947 9.233c.22.691.706 1.288 1.372 1.571 1.597.681 3.057-.56 2.908-2.026l-.753-7.416c-.05-.487.244-.944.708-1.103l2.295-.783 2.308.003c2.643.001 4.787-2.142 4.787-4.786z"/><path fill="#F1F3F4" d="M172.137 165.215l2.148-10.06c.363-1.702 1.867-2.919 3.609-2.919 2.73 0 4.943 2.214 4.943 4.943v9.067"/><path fill="#F1F3F4" d="M177.964 157.583l4.306 8.663-10.133-1.031.387-1.815z"/><circle fill="#F1F3F4" cx="186.781" cy="185.913" r="6.544"/><circle fill="#F1F3F4" cx="186.781" cy="185.913" r="6.544"/><circle fill="#F1F3F4" cx="155.644" cy="185.913" r="6.544"/><circle fill="#F1F3F4" cx="155.644" cy="185.913" r="6.544"/><path fill="#F1F3F4" d="M167.722 162.057c.841 0 1.524.682 1.524 1.524 0 .841-.682 1.524-1.524 1.524h-2.817c-.841 0-1.524.682-1.524 1.524v14.525c0 .841.682 1.524 1.524 1.524h8.977c.841 0 1.524-.682 1.524-1.524v-9.057c0-.841.682-1.524 1.524-1.524h12.095c.499 0 .966.244 1.251.653l8.547 12.293c.703 1.011-.02 2.394-1.251 2.394H149.08c-.962 0-1.707-.889-1.495-1.827.832-3.683 4.124-6.434 8.058-6.434.183 0 .364.007.545.018.744.05 1.409-.46 1.573-1.186l2.31-12.36c.213-1.195 1.253-2.065 2.467-2.065h5.184v-.002z"/><path fill="#F1F3F4" d="M167.722 162.057c.841 0 1.524.682 1.524 1.524 0 .841-.682 1.524-1.524 1.524h-2.817c-.841 0-1.524.682-1.524 1.524v14.525c0 .841.682 1.524 1.524 1.524h8.977c.841 0 1.524-.682 1.524-1.524v-9.057c0-.841.682-1.524 1.524-1.524h12.095c.499 0 .966.244 1.251.653l8.547 12.293c.703 1.011-.02 2.394-1.251 2.394H149.08c-.962 0-1.707-.889-1.495-1.827.832-3.683 4.124-6.434 8.058-6.434.183 0 .364.007.545.018.744.05 1.409-.46 1.573-1.186l2.31-12.36c.213-1.195 1.253-2.065 2.467-2.065h5.184v-.002z"/><path fill="#F1F3F4" d="M158.299 165.795c0 1.468-.95 2.714-2.268 3.158-.523.175-1.063-.22-1.063-.773v-4.772c0-.551.541-.948 1.063-.773 1.319.446 2.268 1.692 2.268 3.16z"/><ellipse fill="#F1F3F4" cx="176.928" cy="147.349" rx="3.837" ry="3.988"/><path fill="#F1F3F4" d="M174.496 154.479l-1.486 3.468c-.138.323-.376.594-.678.774l-5.545 3.304c-.631.376-.94 1.121-.763 1.833.24.964 1.268 1.503 2.198 1.155l6.113-2.292c1.132-.424 2.042-1.291 2.521-2.401l1.974-4.577M170.94 146.411h4.158c.244 0 .444-.2.444-.444s-.2-.444-.444-.444h-4.158c-.244 0-.444.2-.444.444s.201.444.444.444z"/><path fill="#F1F3F4" d="M177.01 148.816c.848-.06 1.26-.484 1.41-.979.002-.005.003-.01.005-.015.207-.711-.408-1.406-1.15-1.403l-3.502.013.035-.077-.939-.058c.224-2.278 2.118-4.056 4.423-4.056 2.441 0 4.43 2.093 4.444 4.509.014 2.442-1.991 4.522-4.51 4.586-.024 0-.049-.002-.076-.006"/><circle fill="#F1F3F4" cx="177.085" cy="150.072" r="1.259"/><path fill="#F1F3F4" d="M173.249 157.391s2.691-.758 4.181 1.599l.856-1.827 1.513-2.449-5.233-.382-1.317 3.059zM195.002 185.913c0-4.615-3.741-8.357-8.357-8.357s-8.357 3.741-8.357 8.357M191.606 173.139H174.94c-.725 0-1.313-.588-1.313-1.313s.587-1.313 1.313-1.313h14.837l1.829 2.626z"/><path fill="#F8C229" d="M183.305 158.499h13.997v12.024h-13.997z"/><path fill="#F8C229" d="M182.59 155.996h15.426v4.552H182.59z"/><path fill="#FFF" d="M182.591 160.336h15.426v.423h-15.426z"/><linearGradient id="g" gradientUnits="userSpaceOnUse" x1="285.5789" y1="1075.6871" x2="270.0268" y2="1101.2278" gradientTransform="matrix(-1 0 0 1 456.4172 -931.6149)"><stop offset="0" style="stop-color:#202124"/><stop offset="1" style="stop-color:#202124;stop-opacity:0"/></linearGradient><path fill="url(#g)" d="M188.692 170.643l-6.189-13.393.097 3.854.735.048-.03 9.372z"/><path fill="#70757A" d="M182.835 165.811v-5.801l-14.755 7.178c-1.514.642-2.327 2.331-1.817 3.93l2.947 9.233c.22.691.706 1.288 1.372 1.571 1.597.681 3.057-.56 2.908-2.026l-.753-7.416c-.05-.487.244-.944.708-1.103l2.295-.783 2.308.003c2.643.001 4.787-2.142 4.787-4.786z"/><path fill="#34A853" d="M172.137 165.215l2.148-10.06c.363-1.702 1.867-2.919 3.609-2.919 2.73 0 4.943 2.214 4.943 4.943v9.067"/><linearGradient id="h" gradientUnits="userSpaceOnUse" x1="279.2137" y1="1069.6807" x2="279.2137" y2="1098.2905" gradientTransform="matrix(-1 0 0 1 456.4172 -931.6149)"><stop offset="0" style="stop-color:#202124"/><stop offset="1" style="stop-color:#202124;stop-opacity:0"/></linearGradient><path fill="url(#h)" d="M177.964 157.583l4.306 8.663-10.133-1.031.387-1.815z"/><circle fill="#9AA0A6" cx="186.781" cy="185.913" r="6.544"/><linearGradient id="i" gradientUnits="userSpaceOnUse" x1="269.6365" y1="1106.3245" x2="269.6365" y2="1122.4646" gradientTransform="matrix(-1 0 0 1 456.4172 -931.6149)"><stop offset="0" style="stop-color:#202124"/><stop offset="1" style="stop-color:#202124;stop-opacity:0"/></linearGradient><circle fill="url(#i)" cx="186.781" cy="185.913" r="6.544"/><circle fill="#9AA0A6" cx="155.644" cy="185.913" r="6.544"/><linearGradient id="j" gradientUnits="userSpaceOnUse" x1="300.7729" y1="1102.838" x2="300.7729" y2="1123.2896" gradientTransform="matrix(-1 0 0 1 456.4172 -931.6149)"><stop offset="0" style="stop-color:#202124"/><stop offset="1" style="stop-color:#202124;stop-opacity:0"/></linearGradient><circle fill="url(#j)" cx="155.644" cy="185.913" r="6.544"/><path fill="#DADCE0" d="M167.722 162.057c.841 0 1.524.682 1.524 1.524 0 .841-.682 1.524-1.524 1.524h-2.817c-.841 0-1.524.682-1.524 1.524v14.525c0 .841.682 1.524 1.524 1.524h8.977c.841 0 1.524-.682 1.524-1.524v-9.057c0-.841.682-1.524 1.524-1.524h12.095c.499 0 .966.244 1.251.653l8.547 12.293c.703 1.011-.02 2.394-1.251 2.394H149.08c-.962 0-1.707-.889-1.495-1.827.832-3.683 4.124-6.434 8.058-6.434.183 0 .364.007.545.018.744.05 1.409-.46 1.573-1.186l2.31-12.36c.213-1.195 1.253-2.065 2.467-2.065h5.184v-.002z"/><linearGradient id="k" gradientUnits="userSpaceOnUse" x1="283.0933" y1="1039.9241" x2="283.0933" y2="1118.7126" gradientTransform="matrix(-1 0 0 1 456.4172 -931.6149)"><stop offset="0" style="stop-color:#202124"/><stop offset="1" style="stop-color:#202124;stop-opacity:0"/></linearGradient><path fill="url(#k)" d="M167.722 162.057c.841 0 1.524.682 1.524 1.524 0 .841-.682 1.524-1.524 1.524h-2.817c-.841 0-1.524.682-1.524 1.524v14.525c0 .841.682 1.524 1.524 1.524h8.977c.841 0 1.524-.682 1.524-1.524v-9.057c0-.841.682-1.524 1.524-1.524h12.095c.499 0 .966.244 1.251.653l8.547 12.293c.703 1.011-.02 2.394-1.251 2.394H149.08c-.962 0-1.707-.889-1.495-1.827.832-3.683 4.124-6.434 8.058-6.434.183 0 .364.007.545.018.744.05 1.409-.46 1.573-1.186l2.31-12.36c.213-1.195 1.253-2.065 2.467-2.065h5.184v-.002z"/><path fill="#F8C229" d="M158.299 165.795c0 1.468-.95 2.714-2.268 3.158-.523.175-1.063-.22-1.063-.773v-4.772c0-.551.541-.948 1.063-.773 1.319.446 2.268 1.692 2.268 3.16z"/><ellipse fill="#DADCE0" cx="176.928" cy="147.349" rx="3.837" ry="3.988"/><path fill="#DADCE0" d="M174.496 154.479l-1.486 3.468c-.138.323-.376.594-.678.774l-5.545 3.304c-.631.376-.94 1.121-.763 1.833.24.964 1.268 1.503 2.198 1.155l6.113-2.292c1.132-.424 2.042-1.291 2.521-2.401l1.974-4.577"/><path fill="#ED594E" d="M170.94 146.411h4.158c.244 0 .444-.2.444-.444s-.2-.444-.444-.444h-4.158c-.244 0-.444.2-.444.444s.201.444.444.444z"/><path fill="#ED594E" d="M177.01 148.816c.848-.06 1.26-.484 1.41-.979.002-.005.003-.01.005-.015.207-.711-.408-1.406-1.15-1.403l-3.502.013.035-.077-.939-.058c.224-2.278 2.118-4.056 4.423-4.056 2.441 0 4.43 2.093 4.444 4.509.014 2.442-1.991 4.522-4.51 4.586-.024 0-.049-.002-.076-.006"/><circle fill="#ED594E" cx="177.085" cy="150.072" r="1.259"/><path fill="#34A853" d="M173.249 157.391s2.691-.758 4.181 1.599l.856-1.827 1.513-2.449-5.233-.382-1.317 3.059z"/><path fill="#DADCE0" d="M195.002 185.913c0-4.615-3.741-8.357-8.357-8.357s-8.357 3.741-8.357 8.357"/><linearGradient id="l" gradientUnits="userSpaceOnUse" x1="168.4587" y1="90.1354" x2="168.4587" y2="12.7719" gradientTransform="matrix(1 0 0 -1 0 220)"><stop offset="0" style="stop-color:#202124"/><stop offset="1" style="stop-color:#202124;stop-opacity:0"/></linearGradient><path fill="url(#l)" d="M193.633 198.543l-14.15 8.509c-.472.284-1.05.453-1.549.453h-12.096c-.841 0-1.213-.472-.83-1.055l4.128-6.269c.383-.582.013-1.055-.83-1.055h-8.977c-.841 0-1.834.472-2.219 1.055l-6.62 10.054c-.383.582-.013 1.055.83 1.055h2.817c.841 0 1.213.472.83 1.055-.383.582-1.376 1.055-2.219 1.055v.001h-5.183c-1.214 0-1.857-.602-1.525-1.43l3.324-8.556c.168-.503-.265-.856-1.032-.821-.185.008-.37.013-.553.013-3.934 0-5.972-1.904-5.125-4.453.216-.649 1.365-1.265 2.327-1.265H145v-.001c1.647-2.501 5.913-4.53 9.526-4.53 3.615 0 5.208 2.028 3.561 4.53l-.001.001h16.101v-.001h1.948c1.647-2.501 5.913-4.53 9.526-4.53s5.208 2.028 3.561 4.53h1.678l-.001.001h2.57c1.235-.003 1.327.954.164 1.654z"/><linearGradient id="m" gradientUnits="userSpaceOnUse" x1="93.2477" y1="125.1673" x2="93.2477" y2="47.8039" gradientTransform="matrix(-1 0 1.3549 -1 49.039 220)"><stop offset="0" style="stop-color:#202124"/><stop offset="1" style="stop-color:#202124;stop-opacity:0"/></linearGradient><path fill="url(#m)" d="M7.154 163.511l2.622 8.509c.088.284.437.453.936.453h12.095c.841 0 1.853-.472 2.258-1.055l4.366-6.269c.405-.582 1.417-1.055 2.258-1.055h8.977c.841 0 1.195.472.789 1.055l-7.001 10.054c-.405.582-1.417 1.055-2.258 1.055h-2.817c-.841 0-1.853.472-2.258 1.055-.405.582-.052 1.055.789 1.055v.001h5.183c1.214 0 2.673-.602 3.462-1.43l8.268-8.556c.514-.503 1.425-.856 2.144-.821.175.008.353.013.536.013 3.934 0 8.552-1.904 11.159-4.453.664-.649.349-1.265-.614-1.265h-.018l.001-.001c1.742-2.501.224-4.53-3.389-4.53-3.614 0-7.956 2.028-9.698 4.53v.001H28.842l.001-.001h-1.948c1.742-2.501.224-4.53-3.389-4.53s-7.956 2.028-9.698 4.53H12.13v.001H9.56c-1.232-.003-2.622.954-2.406 1.654z"/><path fill="#70757A" d="M191.606 173.139H174.94c-.725 0-1.313-.588-1.313-1.313s.587-1.313 1.313-1.313h14.837l1.829 2.626zM26.004 115.499l-4.238 8.025-2.039 10.752 5.244.995 2.039-10.753z"/><linearGradient id="n" gradientUnits="userSpaceOnUse" x1="-687.9687" y1="840.4442" x2="-687.9687" y2="868.8455" gradientTransform="rotate(10.735 3525.71779 4276.93848)"><stop offset="0" style="stop-color:#F1F3F4"/><stop offset="1" style="stop-color:#F1F3F4;stop-opacity:0"/></linearGradient><path fill="url(#n)" d="M26.004 115.499l-4.238 8.025-2.039 10.752 5.244.995 2.039-10.753z"/><path fill="#DADCE0" d="M10.226 121.336l11.54 2.188 4.238-8.025-11.538-2.188z"/><linearGradient id="o" gradientUnits="userSpaceOnUse" x1="-696.443" y1="850.0623" x2="-694.961" y2="843.7999" gradientTransform="rotate(10.735 3525.71779 4276.93848)"><stop offset="0" style="stop-color:#F1F3F4"/><stop offset="1" style="stop-color:#F1F3F4;stop-opacity:0"/></linearGradient><path fill="url(#o)" d="M10.226 121.336l11.54 2.188 4.238-8.025-11.538-2.188z"/><path fill="#DADCE0" d="M14.466 113.311l-1.624 1.412c-.193.168-.108.484.144.532l11.951 2.266 1.067-2.021-11.538-2.189z"/><linearGradient id="p" gradientUnits="userSpaceOnUse" x1="-694.6455" y1="849.9063" x2="-694.5378" y2="841.1583" gradientTransform="rotate(10.735 3525.71779 4276.93848)"><stop offset="0" style="stop-color:#70757A"/><stop offset="1" style="stop-color:#70757A;stop-opacity:0"/></linearGradient><path fill="url(#p)" d="M14.466 113.311l-1.624 1.412c-.193.168-.108.484.144.532l11.951 2.266 1.067-2.021-11.538-2.189z"/><path fill="#4285F4" d="M16.06 120.813l1.591 1.304 3.965-7.45-3.869-.733-3.965 7.449z"/><linearGradient id="q" gradientUnits="userSpaceOnUse" x1="-694.8958" y1="838.8893" x2="-695.3619" y2="842.2595" gradientTransform="rotate(10.735 3525.71779 4276.93848)"><stop offset="0" style="stop-color:#FFFFFF;stop-opacity:0.936"/><stop offset="1" style="stop-color:#FFFFFF;stop-opacity:0"/></linearGradient><path opacity=".4" fill="url(#q)" d="M16.06 120.813l1.591 1.304 3.965-7.45-3.869-.733-3.965 7.449z"/><path fill="#DADCE0" d="M8.18972 132.08806l2.03868-10.7515 11.53848 2.1879-2.03868 10.7515z"/><linearGradient id="r" gradientUnits="userSpaceOnUse" x1="-696.51" y1="866.8678" x2="-696.51" y2="850.9703" gradientTransform="rotate(10.735 3525.71779 4276.93848)"><stop offset="0" style="stop-color:#F1F3F4"/><stop offset="1" style="stop-color:#F1F3F4;stop-opacity:0"/></linearGradient><path fill="url(#r)" d="M10.226 121.336l11.54 2.188-2.039 10.752-11.54-2.188z"/><linearGradient id="s" gradientUnits="userSpaceOnUse" x1="-645.4716" y1="792.9126" x2="-695.45" y2="858.5582" gradientTransform="rotate(10.735 3525.71779 4276.93848)"><stop offset="0" style="stop-color:#202124"/><stop offset="1" style="stop-color:#202124;stop-opacity:0"/></linearGradient><path fill="url(#s)" d="M26.004 115.499l-4.238 8.025-2.039 10.752 3.16-2.344z"/><linearGradient id="t" gradientUnits="userSpaceOnUse" x1="-680.7646" y1="844.436" x2="-688.3371" y2="860.7821" gradientTransform="rotate(10.735 3525.71779 4276.93848)"><stop offset="0" style="stop-color:#202124"/><stop offset="1" style="stop-color:#202124;stop-opacity:0"/></linearGradient><path fill="url(#t)" d="M22.936 131.896l-.049.036-3.16 2.344 2.622.497 2.622.498z"/><linearGradient id="u" gradientUnits="userSpaceOnUse" x1="21.3731" y1="1052.6271" x2="25.432" y2="1047.3192" gradientTransform="translate(0 -931.6149)"><stop offset="0" style="stop-color:#202124"/><stop offset="1" style="stop-color:#202124;stop-opacity:0"/></linearGradient><path fill="url(#u)" d="M25.615 115.634l-.83 1.569-.184-.035c-.215-.041-.328-.278-.226-.47l.433-.817c.114-.217.357-.334.598-.288l.209.041z"/><linearGradient id="v" gradientUnits="userSpaceOnUse" x1="-702.7825" y1="850.3045" x2="-695.68" y2="847.0723" gradientTransform="rotate(10.735 3525.71779 4276.93848)"><stop offset="0" style="stop-color:#202124"/><stop offset="1" style="stop-color:#202124;stop-opacity:0"/></linearGradient><path fill="url(#v)" d="M13.782 121.383l2.483-.402-.205-.168z"/><linearGradient id="w" gradientUnits="userSpaceOnUse" x1="-705.593" y1="849.8151" x2="-688.7355" y2="842.1434" gradientTransform="rotate(10.735 3525.71779 4276.93848)"><stop offset="0" style="stop-color:#202124"/><stop offset="1" style="stop-color:#202124;stop-opacity:0"/></linearGradient><path fill="url(#w)" d="M17.651 122.117l4.323-7.385-.358-.065z"/><linearGradient id="x" gradientUnits="userSpaceOnUse" x1="-697.2706" y1="827.9984" x2="-694.259" y2="844.3951" gradientTransform="rotate(10.735 3525.71779 4276.93848)"><stop offset="0" style="stop-color:#202124"/><stop offset="1" style="stop-color:#202124;stop-opacity:0"/></linearGradient><path fill="url(#x)" d="M13.398 115.331l-.167.317 10.866 3.458.839-1.587z"/><path fill="#70757A" d="M27.01 130.57v-5.801l14.755 7.178c1.514.642 2.327 2.331 1.817 3.93l-2.947 9.233c-.22.691-.706 1.288-1.372 1.571-1.597.681-3.057-.56-2.908-2.026l.753-7.416c.05-.487-.244-.944-.708-1.103l-2.295-.783-2.308.003c-2.643.002-4.787-2.141-4.787-4.786z"/><path fill="#34A853" d="M37.708 129.974l-2.148-10.06c-.363-1.702-1.867-2.919-3.609-2.919-2.73 0-4.943 2.214-4.943 4.943v9.067"/><linearGradient id="y" gradientUnits="userSpaceOnUse" x1="32.6418" y1="1034.4396" x2="32.6418" y2="1063.0494" gradientTransform="translate(0 -931.6149)"><stop offset="0" style="stop-color:#202124"/><stop offset="1" style="stop-color:#202124;stop-opacity:0"/></linearGradient><path fill="url(#y)" d="M31.881 122.342l-4.306 8.663 10.133-1.031-.387-1.815z"/><circle fill="#9AA0A6" cx="23.065" cy="150.672" r="6.544"/><linearGradient id="z" gradientUnits="userSpaceOnUse" x1="23.0651" y1="1071.0836" x2="23.0651" y2="1087.2238" gradientTransform="translate(0 -931.6149)"><stop offset="0" style="stop-color:#202124"/><stop offset="1" style="stop-color:#202124;stop-opacity:0"/></linearGradient><circle fill="url(#z)" cx="23.065" cy="150.672" r="6.544"/><circle fill="#9AA0A6" cx="54.201" cy="150.672" r="6.544"/><linearGradient id="A" gradientUnits="userSpaceOnUse" x1="54.2014" y1="1067.597" x2="54.2014" y2="1088.0486" gradientTransform="translate(0 -931.6149)"><stop offset="0" style="stop-color:#202124"/><stop offset="1" style="stop-color:#202124;stop-opacity:0"/></linearGradient><circle fill="url(#A)" cx="54.201" cy="150.672" r="6.544"/><path fill="#DADCE0" d="M42.123 126.816c-.841 0-1.524.682-1.524 1.524 0 .841.682 1.524 1.524 1.524h2.817c.841 0 1.524.682 1.524 1.524v14.525c0 .841-.682 1.524-1.524 1.524h-8.976c-.841 0-1.524-.682-1.524-1.524v-9.057c0-.841-.682-1.524-1.524-1.524H20.822c-.499 0-.966.244-1.251.653l-8.547 12.293c-.703 1.011.02 2.394 1.251 2.394H60.765c.962 0 1.707-.889 1.495-1.827-.832-3.683-4.124-6.434-8.058-6.434-.183 0-.364.007-.545.018-.744.05-1.409-.46-1.573-1.186l-2.31-12.361c-.213-1.195-1.253-2.065-2.467-2.065h-5.184v-.001z"/><linearGradient id="B" gradientUnits="userSpaceOnUse" x1="36.5223" y1="1004.6831" x2="36.5223" y2="1083.4717" gradientTransform="translate(0 -931.6149)"><stop offset="0" style="stop-color:#202124"/><stop offset="1" style="stop-color:#202124;stop-opacity:0"/></linearGradient><path fill="url(#B)" d="M42.123 126.816c-.841 0-1.524.682-1.524 1.524 0 .841.682 1.524 1.524 1.524h2.817c.841 0 1.524.682 1.524 1.524v14.525c0 .841-.682 1.524-1.524 1.524h-8.976c-.841 0-1.524-.682-1.524-1.524v-9.057c0-.841-.682-1.524-1.524-1.524H20.822c-.499 0-.966.244-1.251.653l-8.547 12.293c-.703 1.011.02 2.394 1.251 2.394H60.765c.962 0 1.707-.889 1.495-1.827-.832-3.683-4.124-6.434-8.058-6.434-.183 0-.364.007-.545.018-.744.05-1.409-.46-1.573-1.186l-2.31-12.361c-.213-1.195-1.253-2.065-2.467-2.065h-5.184v-.001z"/><path fill="#F8C229" d="M51.546 130.554c0 1.468.95 2.714 2.268 3.158.523.175 1.063-.22 1.063-.773v-4.772c0-.551-.541-.948-1.063-.773-1.319.447-2.268 1.693-2.268 3.16z"/><ellipse fill="#DADCE0" cx="32.917" cy="112.108" rx="3.837" ry="3.988"/><path fill="#DADCE0" d="M35.348 119.238l1.486 3.468c.138.323.376.594.678.774l5.545 3.304c.631.376.94 1.121.763 1.833-.24.964-1.268 1.503-2.198 1.155l-6.113-2.292c-1.132-.424-2.042-1.291-2.521-2.401l-1.974-4.577"/><path fill="#ED594E" d="M38.905 111.171h-4.158c-.244 0-.444-.2-.444-.444s.2-.444.444-.444h4.158c.244 0 .444.2.444.444 0 .243-.2.444-.444.444z"/><path fill="#ED594E" d="M32.836 113.576c-.848-.06-1.26-.484-1.41-.979-.002-.005-.003-.01-.005-.015-.207-.711.408-1.406 1.15-1.403l3.502.013-.035-.077.94-.058c-.224-2.278-2.118-4.056-4.423-4.056-2.441 0-4.43 2.093-4.444 4.509-.014 2.442 1.991 4.522 4.51 4.586.024 0 .049-.002.076-.006"/><circle fill="#ED594E" cx="32.761" cy="114.831" r="1.259"/><path fill="#34A853" d="M36.596 122.15s-2.691-.758-4.181 1.599l-.856-1.827-1.513-2.449 5.233-.382 1.317 3.059z"/><path fill="#DADCE0" d="M14.843 150.672c0-4.615 3.741-8.357 8.357-8.357s8.357 3.741 8.357 8.357"/><path fill="#70757A" d="M30.057 137.012c-.177 0-.459-.034-.931-.091-3.636-.438-5.675-.552-6.054-.339l-.223.126-.217-.143-13.651-9.559c-.184-.129-.229-.382-.1-.566.13-.184.384-.228.566-.1l13.476 9.436c.737-.201 2.411-.119 5.728.269L9.978 121.658c-.178-.137-.211-.392-.074-.57.137-.179.393-.211.57-.074l20.069 15.462-.12.29c-.073.175-.111.246-.366.246z"/><path fill="#70757A" d="M18.24 137.898h16.666c.725 0 1.313-.588 1.313-1.313s-.587-1.313-1.313-1.313H20.068l-1.828 2.626z"/><linearGradient id="C" gradientUnits="userSpaceOnUse" x1="36.7196" y1="1047.3781" x2="20.7759" y2="1065.899" gradientTransform="translate(0 -931.6149)"><stop offset="0" style="stop-color:#202124"/><stop offset="1" style="stop-color:#202124;stop-opacity:0"/></linearGradient><path fill="url(#C)" d="M27.01 124.558l-.33-2.993-6.953 12.711 5.244.995z"/><path fill="#4285F4" d="M164.99 10.799H68.818c-1.825 0-3.304 1.479-3.304 3.304v44.44c0 1.825 1.479 3.304 3.304 3.304h41.069l5.901 7.285c.575.71 1.657.71 2.232 0l5.901-7.285h41.069c1.825 0 3.304-1.479 3.304-3.304v-44.44c.001-1.824-1.479-3.304-3.304-3.304z"/><path fill="#FFF" d="M79.365 31.449h2.217l2.247 6.544.395 1.397h.121l.426-1.397 2.337-6.544h2.217L85.363 42.32h-2.156l-3.842-10.871zM90.616 41.637l4.326-7.728-.046-.091h-4.783l.031-1.883h7.045v1.974l-4.905 8.654-1.668-.926zM101.942 42.563c-.395 0-.787-.056-1.177-.167s-.752-.283-1.086-.516-.625-.524-.873-.873c-.249-.35-.433-.767-.555-1.253l1.807-.698c.111.506.327.911.646 1.214.319.304.725.455 1.222.455.243 0 .468-.043.676-.129.207-.086.39-.205.546-.357s.279-.331.364-.539c.086-.207.129-.437.129-.691 0-.243-.043-.468-.129-.676s-.205-.39-.357-.547c-.151-.157-.331-.278-.539-.364s-.437-.129-.691-.129c-.315 0-.592.068-.836.205-.243.137-.45.306-.623.508l-1.928-.881.607-5.193h5.846v1.746H100.8l-.395 2.429.122.03c.202-.172.45-.319.743-.44s.648-.182 1.063-.182c.435 0 .85.084 1.244.25.395.167.745.402 1.048.706.303.304.546.671.729 1.101.182.431.273.909.273 1.435 0 .516-.091.992-.273 1.427s-.438.81-.767 1.123c-.329.314-.719.56-1.169.737-.447.18-.939.269-1.476.269zM106.542 31.449h2.217l2.247 6.544.395 1.397h.121l.426-1.397 2.337-6.544h2.217L112.54 42.32h-2.156l-3.842-10.871zM121.877 37.325h2.596v1.761h-2.596v2.581h-1.761v-2.581h-2.581v-1.761h2.581v-2.581h1.761v2.581zM129.696 42.563c-.557 0-1.065-.081-1.526-.243-.461-.162-.858-.382-1.191-.66-.335-.279-.592-.607-.775-.987-.182-.38-.273-.792-.273-1.238 0-.303.043-.587.129-.85s.202-.501.35-.714c.146-.212.317-.4.508-.562.193-.162.395-.298.608-.41v-.121c-.335-.223-.626-.516-.874-.881-.248-.364-.372-.79-.372-1.276 0-.415.086-.802.258-1.161.172-.359.41-.67.714-.934.303-.263.663-.468 1.078-.615.414-.147.869-.22 1.366-.22.496 0 .951.073 1.366.22.415.147.774.352 1.078.615s.541.575.714.934c.172.36.257.747.257 1.161 0 .486-.124.911-.372 1.276s-.539.658-.873.881v.121c.213.112.415.248.607.41.193.162.362.35.509.562.146.213.263.451.348.714.085.263.129.546.129.85 0 .446-.091.858-.273 1.238-.182.38-.441.709-.774.987-.334.279-.732.498-1.191.66-.46.162-.969.243-1.525.243zm0-1.838c.516 0 .942-.134 1.275-.402.334-.268.501-.63.501-1.086 0-.213-.046-.408-.137-.585s-.215-.331-.372-.463c-.157-.131-.344-.232-.562-.303-.217-.071-.452-.106-.705-.106-.253 0-.488.035-.706.106-.217.071-.405.172-.561.303-.158.132-.282.286-.373.463s-.137.372-.137.585c0 .455.167.817.502 1.086.333.268.758.402 1.275.402zm0-4.691c.425 0 .779-.119 1.062-.357.284-.238.426-.549.426-.934 0-.395-.142-.706-.426-.934-.283-.228-.638-.342-1.062-.342-.426 0-.779.114-1.063.342-.283.228-.425.539-.425.934 0 .384.142.696.425.934.284.238.637.357 1.063.357zM142.661 42.077c-.354.152-.729.271-1.124.357-.394.086-.804.129-1.23.129-.81 0-1.561-.147-2.255-.441s-1.293-.696-1.799-1.207-.903-1.114-1.191-1.807c-.288-.693-.433-1.435-.433-2.225s.145-1.531.433-2.224c.288-.693.685-1.296 1.191-1.807.506-.511 1.106-.913 1.799-1.207.694-.294 1.445-.441 2.255-.441s1.561.147 2.255.441c.694.293 1.293.696 1.799 1.207.506.511.903 1.114 1.191 1.807.289.693.433 1.435.433 2.224 0 .84-.158 1.62-.471 2.338-.313.719-.754 1.336-1.321 1.852l.836 1.245-1.519 1.017-.849-1.258zm-2.307-3.462l1.519-1.033 1.184 1.792c.273-.314.488-.681.645-1.101s.235-.883.235-1.39c0-.557-.093-1.065-.281-1.526-.187-.461-.445-.853-.774-1.177-.329-.324-.714-.577-1.153-.759-.441-.182-.914-.273-1.42-.273s-.98.091-1.419.273c-.441.182-.825.435-1.154.759-.329.324-.587.716-.774 1.177-.187.461-.281.969-.281 1.526s.093 1.065.281 1.526c.187.461.445.853.774 1.177.329.324.714.577 1.154.759s.913.273 1.419.273c.222 0 .435-.02.638-.061.202-.04.4-.096.592-.167l-1.185-1.775zM150.814 42.563c-.425 0-.832-.056-1.222-.167s-.747-.281-1.07-.508c-.324-.228-.61-.514-.858-.858-.249-.344-.438-.744-.57-1.199l1.867-.744c.132.506.355.888.668 1.146.313.258.709.387 1.184.387.213 0 .415-.033.608-.099.192-.066.359-.159.501-.281.142-.121.255-.266.342-.433.086-.167.128-.357.128-.569 0-.445-.164-.795-.494-1.048-.328-.253-.782-.38-1.359-.38h-.895v-1.807h.82c.202 0 .399-.025.592-.076.192-.05.361-.129.508-.235.146-.106.263-.243.35-.41.086-.167.129-.362.129-.585 0-.344-.122-.625-.364-.843-.244-.217-.572-.326-.987-.326-.446 0-.788.119-1.025.357-.238.238-.402.504-.494.797l-1.822-.744c.091-.253.228-.514.41-.782s.412-.511.691-.729c.279-.218.605-.395.98-.531.374-.137.805-.205 1.29-.205.497 0 .949.071 1.359.212.411.142.763.337 1.056.585s.521.542.683.881.243.706.243 1.101c0 .303-.038.577-.113.82-.076.243-.175.461-.297.653-.121.192-.261.357-.417.494-.157.137-.317.245-.479.326v.121c.486.193.889.501 1.207.926.319.425.479.962.479 1.61 0 .455-.087.873-.258 1.252-.173.38-.417.711-.736.994-.319.283-.701.504-1.147.66-.445.158-.94.237-1.488.237z"/></svg>