<svg width="232" height="132" fill="none" xmlns="http://www.w3.org/2000/svg"><path d="M219.42 132H12.58C5.632 132 0 126.368 0 119.42V12.58C0 5.632 5.632 0 12.58 0h206.84C226.368 0 232 5.632 232 12.58v106.84c0 6.948-5.632 12.58-12.58 12.58z" fill="#D7ECFF"/><path d="M67.662 63.178c17.713 0 32.059 14.371 32.059 32.059 0 7.636-2.674 14.654-7.147 20.156l-.077.077c-.103.129-.206.231-.308.36l-.026.026c-.026.026-.026.026-.026.051-5.887 6.967-14.68 11.415-24.501 11.415-17.713 0-32.059-14.371-32.059-32.059 0-7.456 2.545-14.294 6.813-19.719l.051-.051c.206-.257.386-.514.591-.771.103-.129.257-.257.36-.411l.308-.36c5.889-6.609 14.45-10.773 23.962-10.773zM178.727 29.949c-4.889-9.335-13.324-16.514-23.521-19.728h-.012c-3.818-1.20704-7.881-1.86004-12.105-1.86004-12.364 0-23.423 5.59104-30.799 14.37104-5.874 6.995-9.408 16.009-9.408 25.849 0 7.574 1.527 13.706 4.039 19.211 4.212 9.224 11.182 16.625 18.349 25.91 2.327 3.017 4.68 6.219 6.958 9.753 8.152 12.635 5.714 20.184 10.874 20.184 5.283 0 2.931-7.549 11.083-20.184 13.497-20.91 29.137-30.454 29.137-54.862-.014-6.748-1.677-13.078-4.595-18.644zM198.174 90.277l-.604.705c-.201.302-.504.554-.705.806-.403.504-.755 1.007-1.158 1.511l-.101.101c-8.355 10.62-13.339 24.006-13.345 38.6h37.159c6.948 0 12.58-5.632 12.58-12.58V70.564c-13.307 2.838-25.076 9.893-33.826 19.713zM0 12.58v45.287l35.822.009c0-8.993 3.071-17.242 8.218-23.786l.063-.062c.248-.31.465-.62.713-.93.124-.155.31-.31.434-.496l.372-.434c7.102-7.97 17.429-12.994 28.903-12.994L74.52 0H12.58C5.632 0 0 5.632 0 12.58z" fill="#E8F0FE"/></svg>