<svg xmlns="http://www.w3.org/2000/svg" width="600" height="200"><linearGradient id="a" gradientUnits="userSpaceOnUse" x1="502.45" y1="-970.2" x2="502.45" y2="-1125.02" gradientTransform="matrix(1 0 0 -1 0 -930)"><stop offset="0" style="stop-color:#3C4043"/><stop offset="1" style="stop-color:#3C4043;stop-opacity:0"/></linearGradient><path fill="url(#a)" d="M524.28,172.79v-120l-31.56-10.6c-4.756-1.607-9.914,0.946-11.522,5.702 c-0.317,0.937-0.478,1.919-0.478,2.908l-0.1,122L524.28,172.79z"/><path fill="#202124" d="M480.73 64.71H524.27V65.25H480.73zM480.73 75.38H524.27V75.92H480.73z"/><linearGradient id="b" gradientUnits="userSpaceOnUse" x1="417.6" y1="-995.1" x2="417.6" y2="-1103.64" gradientTransform="matrix(1 0 0 -1 0 -930)"><stop offset="0" style="stop-color:#3C4043"/><stop offset="1" style="stop-color:#3C4043;stop-opacity:0"/></linearGradient><path fill="url(#b)" d="M363.19 66.04H472V172.79000000000002H363.19z"/><path fill="#202124" d="M363.19 69.45H472V69.99000000000001H363.19z"/><path fill="#81C995" d="M462.58,60.98h-115.4l0,0V35.59c-0.011-14.023,11.347-25.399,25.37-25.41c0.017,0,0.033,0,0.05,0h90 c14.022,0,25.39,11.367,25.39,25.39l0,0c0.011,14.023-11.347,25.399-25.37,25.41C462.607,60.98,462.593,60.98,462.58,60.98z"/><path fill="#202124" d="M379.53 19.91l1.8 3.65c.032.069.095.117.17.13l4 .59c.126.018.213.135.195.261-.007.049-.03.094-.065.129l-2.92 2.85c-.056.05-.082.126-.07.2l.69 4c.034.128-.043.259-.171.293C383.106 32.027 383.05 32.022 383 32l-3.6-1.9c-.068-.039-.152-.039-.22 0L375.6 32c-.113.058-.252.013-.309-.1-.023-.046-.031-.099-.021-.15l.68-4c.017-.073-.006-.149-.06-.2L373 24.67c-.09-.09-.089-.236.001-.325.035-.035.08-.058.129-.065l4-.59c.078-.011.145-.06.18-.13l1.8-3.65c.064-.116.21-.158.326-.094C379.476 19.838 379.508 19.871 379.53 19.91zM399 19.91l1.8 3.65c.035.07.102.119.18.13l4 .59c.126.018.213.135.195.261-.007.049-.03.094-.065.129l-2.92 2.85c-.052.053-.077.126-.07.2l.69 4c.025.125-.056.246-.18.271-.051.01-.103.003-.15-.021l-3.61-1.9c-.068-.039-.152-.039-.22 0L395.09 32c-.113.058-.252.013-.309-.1-.023-.046-.031-.099-.021-.15l.69-4c.012-.074-.014-.15-.07-.2l-2.92-2.85c-.09-.09-.089-.236.001-.325.035-.035.08-.058.129-.065l4-.59c.078-.01.146-.059.18-.13l1.8-3.65c.05-.123.19-.182.313-.132C398.932 19.828 398.973 19.864 399 19.91zM418.51 19.91l1.81 3.65c.032.069.095.117.17.13l4 .59c.121.01.211.117.201.238-.005.06-.034.114-.081.152l-2.92 2.85c-.049.054-.072.128-.06.2l.69 4c.031.129-.048.258-.177.29-.047.011-.097.008-.143-.01l-3.61-1.9c-.064-.04-.146-.04-.21 0l-3.59 1.9c-.12.056-.263.005-.319-.115-.02-.042-.027-.089-.021-.135l.69-4c.012-.072-.011-.146-.06-.2L412 24.67c-.094-.077-.109-.215-.032-.309.038-.046.093-.075.152-.081l4-.59c.075-.013.138-.061.17-.13l1.81-3.65c.058-.113.196-.158.309-.101C418.453 19.831 418.488 19.867 418.51 19.91zM438 19.91l1.8 3.65c.032.069.095.117.17.13l4 .59c.126.018.213.135.195.261-.007.049-.03.094-.065.129l-2.92 2.85c-.056.05-.082.126-.07.2l.69 4c.025.125-.056.246-.18.271-.051.01-.103.003-.15-.021l-3.61-1.9c-.068-.039-.152-.039-.22 0L434.08 32c-.113.058-.252.013-.309-.1-.023-.046-.031-.099-.021-.15l.69-4c.007-.074-.018-.147-.07-.2l-2.92-2.85c-.09-.09-.089-.236.001-.325.035-.035.08-.058.129-.065l4-.59c.078-.011.145-.06.18-.13l1.8-3.65c.044-.125.181-.191.306-.147C437.924 19.813 437.972 19.855 438 19.91zM457.5 19.91l1.8 3.65c.035.07.102.119.18.13l4 .59c.126.018.213.135.195.261-.007.049-.03.094-.065.129l-2.92 2.85c-.054.051-.077.127-.06.2l.68 4c.038.121-.03.25-.151.288C461.107 32.024 461.05 32.022 461 32l-3.61-1.9c-.068-.039-.152-.039-.22 0l-3.6 1.9c-.12.056-.263.005-.319-.115-.02-.042-.027-.089-.021-.135l.69-4c.012-.074-.014-.15-.07-.2l-2.92-2.85c-.09-.09-.089-.236.001-.325.035-.035.08-.058.129-.065l4-.59c.075-.013.138-.061.17-.13l1.8-3.65c.017-.131.138-.224.269-.207C457.396 19.746 457.475 19.816 457.5 19.91zM458.74 45.15h-81.52c-.63.001-1.141-.509-1.141-1.139-.001-.63.509-1.141 1.139-1.141.001 0 .002 0 .002 0h81.52c.63.001 1.139.512 1.139 1.141C459.878 44.64 459.369 45.149 458.74 45.15zM423.92 52.07h-46.7c-.63.001-1.141-.509-1.141-1.139-.001-.63.509-1.141 1.139-1.141.001 0 .002 0 .002 0h46.7c.63.001 1.139.512 1.139 1.141C425.058 51.56 424.549 52.069 423.92 52.07z"/><linearGradient id="c" gradientUnits="userSpaceOnUse" x1="192.85" y1="-950.2" x2="192.85" y2="-1165.27" gradientTransform="matrix(1 0 0 -1 0 -930)"><stop offset="0" style="stop-color:#3C4043"/><stop offset="1" style="stop-color:#3C4043;stop-opacity:0"/></linearGradient><path fill="url(#c)" d="M130.32,172.79V48.18l81.12-12.36c11.051-1.679,21.371,5.919,23.05,16.97 c0.152,1.003,0.229,2.015,0.23,3.03v13.24h20.67v103.73L130.32,172.79L130.32,172.79z"/><linearGradient id="d" gradientUnits="userSpaceOnUse" x1="95.75" y1="-968.67" x2="95.75" y2="-1098.82" gradientTransform="matrix(1 0 0 -1 0 -930)"><stop offset="0" style="stop-color:#3C4043"/><stop offset="1" style="stop-color:#3C4043;stop-opacity:0"/></linearGradient><path fill="url(#d)" d="M121.57,172.79H69.94V50.46c0.001-0.799,0.531-1.501,1.3-1.72L119.77,35 c0.756-0.21,1.538,0.233,1.748,0.988c0.035,0.124,0.052,0.253,0.052,0.382V172.79z"/><path fill="#202124" d="M121.58 46.34L121.57 45.79 69.93 60.77 69.93 61.33 81.77 57.88 81.77 172.79 82.31 172.79 82.31 57.73 95.48 53.91 95.48 172.79 96.03 172.79 96.03 53.75 109.2 49.94 109.2 172.79 109.74 172.79 109.74 49.78z"/><linearGradient id="e" gradientUnits="userSpaceOnUse" x1="160.89" y1="439" x2="159.32" y2="550.52" gradientTransform="translate(0 -338)"><stop offset=".48" style="stop-color:#3C4043"/><stop offset="1" style="stop-color:#202124"/></linearGradient><path fill="url(#e)" d="M125.58 98.69H195.22V172.79H125.58z"/><path fill="#202124" d="M192.86,158.43h-22.05l-0.27-0.27v-17.69l0.27-0.27h22.05l0.27,0.27v17.69L192.86,158.43z M171.08,157.89 h21.5v-17.15h-21.5V157.89z"/><linearGradient id="f" gradientUnits="userSpaceOnUse" x1="234.9" y1="439.72" x2="230.2" y2="525.81" gradientTransform="translate(0 -338)"><stop offset="0" style="stop-color:#5F6368"/><stop offset="1" style="stop-color:#3C4043"/></linearGradient><path fill="url(#f)" d="M195.23 98.69L270.85 98.69 270.85 172.79 195.23 172.79 195.23 162.23z"/><path fill="#5F6368" d="M109.49,127l16.64-15h80.19c0.679,0.004,1.226,0.559,1.222,1.238c-0.001,0.211-0.057,0.419-0.162,0.602 l-16.3,14.59H110.2c-0.48,0.025-0.889-0.344-0.914-0.824C109.275,127.386,109.347,127.169,109.49,127z"/><path fill="#5F6368" d="M109.32,127.38h81.79v4c0,1.73-1.4,3.134-3.13,3.14l0,0c-1.732-0.005-3.135-1.408-3.14-3.14 c0,1.734-1.406,3.14-3.14,3.14l0,0c-1.732-0.005-3.135-1.408-3.14-3.14c0,1.734-1.406,3.14-3.14,3.14l0,0 c-1.734,0-3.14-1.406-3.14-3.14c-0.005,1.732-1.408,3.135-3.14,3.14l0,0c-1.734,0-3.14-1.406-3.14-3.14 c-0.005,1.732-1.408,3.135-3.14,3.14l0,0c-1.73-0.006-3.13-1.41-3.13-3.14c-0.005,1.732-1.408,3.135-3.14,3.14l0,0 c-1.732-0.005-3.135-1.408-3.14-3.14c0,1.73-1.4,3.134-3.13,3.14l0,0c-1.732-0.005-3.135-1.408-3.14-3.14 c0,1.734-1.406,3.14-3.14,3.14l0,0c-1.732-0.005-3.135-1.408-3.14-3.14c-0.005,1.732-1.408,3.135-3.14,3.14l0,0 c-1.734,0-3.14-1.406-3.14-3.14c-0.005,1.732-1.408,3.135-3.14,3.14l0,0c-1.734,0-3.14-1.406-3.14-3.14 c-0.005,1.732-1.408,3.135-3.14,3.14l0,0c-1.73-0.006-3.13-1.41-3.13-3.14c-0.005,1.732-1.408,3.135-3.14,3.14l0,0 c-1.732-0.005-3.135-1.408-3.14-3.14c0,1.734-1.406,3.14-3.14,3.14l0,0c-1.732-0.005-3.135-1.408-3.14-3.14L109.32,127.38z"/><path fill="#5F6368" d="M175.39 134.82c-1.372.001-2.612-.818-3.15-2.08-.742 1.737-2.752 2.543-4.489 1.801-.81-.346-1.455-.991-1.801-1.801-.742 1.737-2.752 2.543-4.489 1.801-.81-.346-1.455-.991-1.801-1.801-.75 1.74-2.768 2.542-4.507 1.793-.805-.347-1.446-.988-1.793-1.793-.742 1.737-2.752 2.543-4.489 1.801-.81-.346-1.455-.991-1.801-1.801-.742 1.737-2.752 2.543-4.489 1.801-.81-.346-1.455-.991-1.801-1.801-.742 1.737-2.752 2.543-4.489 1.801-.81-.346-1.455-.991-1.801-1.801-.742 1.737-2.752 2.543-4.489 1.801-.81-.346-1.455-.991-1.801-1.801-.461 1.06-1.429 1.814-2.57 2l-.09-.53c1.382-.23 2.394-1.428 2.39-2.83h.54c.094 1.588 1.457 2.799 3.045 2.705 1.457-.086 2.619-1.248 2.705-2.705h.54c.094 1.588 1.457 2.799 3.045 2.705 1.457-.086 2.619-1.248 2.705-2.705h.54c.094 1.588 1.457 2.799 3.045 2.705 1.457-.086 2.619-1.248 2.705-2.705h.54c.094 1.588 1.457 2.799 3.045 2.705 1.457-.086 2.619-1.248 2.705-2.705h.54c.094 1.588 1.457 2.799 3.045 2.705 1.457-.086 2.619-1.248 2.705-2.705h.55c.094 1.588 1.457 2.799 3.045 2.705 1.457-.086 2.619-1.248 2.705-2.705h.54c.094 1.588 1.457 2.799 3.045 2.705 1.457-.086 2.619-1.248 2.705-2.705h.54c.094 1.588 1.457 2.799 3.045 2.705 1.457-.086 2.619-1.248 2.705-2.705h.54c.017 1.883-1.497 3.423-3.38 3.44C175.41 134.82 175.4 134.82 175.39 134.82zM109.32 127.11H178.52999999999997V127.65H109.32zM132.84 88.78H192.17000000000002V95.08H132.84z"/><path fill="#202124" d="M166.46 172.79L165.92 172.79 165.92 140.61 137.47 140.61 137.47 172.79 136.93 172.79 136.93 140.34 137.2 140.07 166.19 140.07 166.46 140.34z"/><path fill="#202124" d="M151.42 140.34H151.95999999999998V172.79000000000002H151.42z"/><path fill="#5F6368" d="M178.3,127.18l16.94-15h90.84c0.679-0.001,1.231,0.549,1.232,1.228c0,0.215-0.055,0.426-0.162,0.612 l-16.3,14.59H179c-0.48,0.019-0.885-0.354-0.904-0.835C178.087,127.558,178.16,127.346,178.3,127.18z"/><path fill="#5F6368" d="M266.67 127.56h-88.54v4c.147 1.786 1.648 3.156 3.44 3.14l0 0c1.732-.005 3.135-1.408 3.14-3.14 0 1.73 1.4 3.134 3.13 3.14l0 0c1.732-.005 3.135-1.408 3.14-3.14 0 1.734 1.406 3.14 3.14 3.14l0 0c1.732-.005 3.135-1.408 3.14-3.14 0 1.734 1.406 3.14 3.14 3.14l0 0c1.734 0 3.14-1.406 3.14-3.14.005 1.732 1.408 3.135 3.14 3.14l0 0c1.483-.001 2.763-1.039 3.07-2.49.168.612.517 1.159 1 1.57.587.591 1.387.922 2.22.92h.17c1.473-.004 2.746-1.031 3.06-2.47.314 1.439 1.587 2.466 3.06 2.47h.17c1.473-.004 2.746-1.031 3.06-2.47.314 1.439 1.587 2.466 3.06 2.47h.17c1.474 0 2.749-1.029 3.06-2.47.315 1.443 1.593 2.471 3.07 2.47h.16c1.476-.003 2.751-1.029 3.07-2.47.311 1.441 1.586 2.47 3.06 2.47h.16c1.734 0 3.14-1.406 3.14-3.14.005 1.732 1.408 3.135 3.14 3.14l0 0c1.73-.006 3.13-1.41 3.13-3.14.005 1.732 1.408 3.135 3.14 3.14l0 0c1.732-.005 3.135-1.408 3.14-3.14 0 1.73 1.4 3.134 3.13 3.14l0 0c1.732-.005 3.135-1.408 3.14-3.14 0 1.734 1.406 3.14 3.14 3.14l0 0 0 0c1.732-.005 3.135-1.408 3.14-3.14 0 1.734 1.406 3.14 3.14 3.14l0 0 0 0c1.734 0 3.14-1.406 3.14-3.14l0 0v-4H266.67zM185.16 94.22H185.97V98.97H185.16zM138.71 94.22H139.52V98.97H138.71z"/><path fill="#202124" d="M226.22 172.79L225.68 172.79 225.68 140.74 209.6 140.74 209.6 172.79 209.06 172.79 209.06 140.47 209.33 140.2 225.95 140.2 226.22 140.47z"/><path fill="#202124" d="M222 149.59h-8.73l-.27-.27v-3.71l.27-.27H222l.27.27v3.71L222 149.59zM213.54 149.05h8.19v-3.17h-8.19V149.05zM234.45 172.79L233.91 172.79 233.91 140.34 234.18 140.07 270.2 140.07 270.2 140.61 234.45 140.61z"/><path fill="#8AB4F8" d="M110.08,41.32h100.65c15.685,0,28.4,12.715,28.4,28.4v28.4l0,0H110.08c-15.685,0-28.4-12.715-28.4-28.4l0,0 l0,0C81.68,54.035,94.395,41.32,110.08,41.32L110.08,41.32z"/><path fill="#202124" d="M113.12 50.89l2 4.09c.036.076.107.128.19.14l4.52.66c.142.024.237.159.212.3-.009.053-.034.102-.072.14l-3.26 3.19c-.065.053-.095.138-.08.22l.77 4.5c.03.135-.055.268-.19.298-.061.014-.126.004-.18-.028l-4-2.12c-.075-.041-.165-.041-.24 0l-4 2.12c-.119.07-.272.029-.342-.09-.032-.054-.042-.119-.028-.18l.77-4.5c.011-.082-.019-.164-.08-.22l-3.26-3.19c-.101-.102-.101-.266 0-.368.038-.038.087-.063.14-.072l4.51-.66c.086-.009.162-.062.2-.14l2-4.09c.085-.116.247-.141.363-.057C113.085 50.849 113.104 50.868 113.12 50.89zM134.93 50.89L137 55c.033.078.106.132.19.14l4.51.66c.142.019.242.151.222.293-.008.056-.033.107-.072.147l-3.27 3.19c-.063.054-.09.139-.07.22l.77 4.5c.023.142-.074.275-.216.298-.056.009-.114-.001-.164-.028l-4-2.12c-.075-.041-.165-.041-.24 0l-4 2.12c-.126.068-.284.021-.352-.106-.027-.05-.037-.108-.028-.164l.77-4.5c.02-.081-.007-.166-.07-.22l-3.27-3.19c-.101-.102-.099-.267.003-.368.04-.039.092-.065.147-.072l4.51-.66c.084-.008.157-.062.19-.14l2-4.09C134.659 50.806 134.821 50.798 134.93 50.89zM156.73 50.89l2 4.09c.038.078.114.131.2.14l4.51.66c.142.024.237.159.212.3-.009.053-.034.102-.072.14l-3.26 3.19c-.061.056-.091.138-.08.22l.77 4.5c.03.135-.055.268-.19.298-.061.014-.126.004-.18-.028l-4-2.12c-.075-.041-.165-.041-.24 0l-4 2.12c-.119.07-.272.029-.342-.09-.032-.054-.042-.119-.028-.18l.77-4.5c.011-.082-.019-.164-.08-.22l-3.26-3.19c-.101-.102-.101-.266 0-.368.038-.038.087-.063.14-.072l4.51-.66c.086-.009.162-.062.2-.14l2-4.09c.085-.116.247-.141.363-.057C156.695 50.849 156.714 50.868 156.73 50.89zM178.54 50.89l2 4.09c.033.078.106.132.19.14l4.51.66c.142.019.242.151.222.293-.008.056-.033.107-.072.147l-3.27 3.19c-.063.054-.09.139-.07.22l.77 4.5c.023.142-.074.275-.216.298-.056.009-.114-.001-.164-.028l-4-2.12c-.079-.039-.171-.039-.25 0l-4 2.12c-.126.068-.284.021-.352-.106-.027-.05-.037-.108-.028-.164l.77-4.5c.02-.081-.007-.166-.07-.22l-3.27-3.19c-.101-.102-.099-.267.003-.368.04-.039.092-.065.147-.072l4.51-.66c.084-.008.157-.062.19-.14l2-4.09c.082-.124.25-.158.374-.076C178.494 50.834 178.52 50.86 178.54 50.89zM200.34 50.89l2 4.09c.038.078.114.131.2.14l4.51.66c.142.024.237.159.212.3-.009.053-.034.102-.072.14L204 59.41c-.061.056-.091.138-.08.22l.77 4.5c.03.135-.055.268-.19.298-.061.014-.126.004-.18-.028l-4-2.12c-.075-.041-.165-.041-.24 0l-4 2.12c-.119.07-.272.029-.342-.09-.032-.054-.042-.119-.028-.18l.77-4.5c.015-.082-.015-.167-.08-.22l-3.4-3.19c-.101-.102-.101-.266 0-.368.038-.038.087-.063.14-.072l4.52-.66c.083-.012.154-.064.19-.14l2-4.09c.048-.135.197-.206.332-.158C200.256 50.758 200.314 50.816 200.34 50.89zM202.51 79.34h-92c-.71-.063-1.234-.689-1.172-1.398.055-.623.549-1.117 1.172-1.172h92c.71-.063 1.336.462 1.398 1.172s-.462 1.336-1.172 1.398C202.661 79.347 202.585 79.347 202.51 79.34zM163.2 87.16h-52.73c-.712 0-1.29-.578-1.29-1.29s.578-1.29 1.29-1.29h52.73c.712 0 1.29.578 1.29 1.29S163.912 87.16 163.2 87.16z"/><linearGradient id="g" gradientUnits="userSpaceOnUse" x1="385.49" y1="436.95" x2="387.84" y2="531.65" gradientTransform="translate(0 -338)"><stop offset="0" style="stop-color:#5F6368"/><stop offset="1" style="stop-color:#3C4043"/></linearGradient><path fill="url(#g)" d="M424.2 172.79L348.59 172.79 348.59 97.73 424.2 97.73 424.2 108.29z"/><radialGradient id="h" cx="289.75" cy="-10820.91" r="263.06" gradientTransform="matrix(1 -.008 -.0008 -.1029 1.54 -938.59)" gradientUnits="userSpaceOnUse"><stop offset="0" style="stop-color:#3C4043;stop-opacity:0.48"/><stop offset="1" style="stop-color:#202124;stop-opacity:0"/></radialGradient><path fill="url(#h)" d="M31.69,172.79v37h536.62v-37H31.69z M349,183.7l73.18,26.1h-91.35l-60.55-26.1H349z"/><linearGradient id="i" gradientUnits="userSpaceOnUse" x1="343" y1="-1096.54" x2="347.7" y2="-1140.57" gradientTransform="matrix(1 0 0 -1 0 -930)"><stop offset="0" style="stop-color:#202124;stop-opacity:0.1"/><stop offset="1" style="stop-color:#202124;stop-opacity:0"/></linearGradient><path fill="url(#i)" d="M270.28 183.7L330.82 209.8 422.17 209.8 348.99 183.7z"/><path fill="#202124" d="M480.73 86.05H524.27V86.59H480.73z"/><path fill="#5F6368" d="M492.56 124.5H498.44V152.16H492.56z"/><path fill="#5F6368" d="M489.29 126.62H495.84000000000003V127.41000000000001H489.29zM489.29 149.02H495.84000000000003V149.81H489.29z"/><linearGradient id="j" gradientUnits="userSpaceOnUse" x1="457.58" y1="473.45" x2="455.62" y2="557.58" gradientTransform="translate(0 -338)"><stop offset="0" style="stop-color:#3C4043"/><stop offset=".35" style="stop-color:#373A3D"/><stop offset=".82" style="stop-color:#28292C"/><stop offset="1" style="stop-color:#202124"/></linearGradient><path fill="url(#j)" d="M424.21 120.96H490.40999999999997V172.79H424.21z"/><path fill="#202124" d="M474.15 137.81H445c-.149 0-.27-.121-.27-.27v-3.93c0-.149.121-.27.27-.27h29.17c.149 0 .27.121.27.27v3.93c0 .149-.12.27-.269.271C474.164 137.811 474.157 137.811 474.15 137.81zM445.25 137.27h28.63v-3.39h-28.63V137.27zM473.73 140.5h-28.35c-.149 0-.27.121-.27.27v32h.54V141h13.64v31.75h.54V141h13.63v31.75H474v-32C473.99 140.609 473.872 140.5 473.73 140.5z"/><radialGradient id="k" cx="373.09" cy="28.83" r="194.86" gradientUnits="userSpaceOnUse"><stop offset="0" style="stop-color:#FFFFFF"/><stop offset=".59" style="stop-color:#3C4043"/></radialGradient><path fill="url(#k)" d="M349.19,87h-71c-4.28,0-7.75,3.47-7.75,7.75v88.95h78.75C349.19,151.467,349.19,119.233,349.19,87z"/><path fill="#5F6368" d="M306.85 157.46H336.19V183.70000000000002H306.85z"/><linearGradient id="l" gradientUnits="userSpaceOnUse" x1="321.52" y1="-1087.46" x2="321.52" y2="-1113.7" gradientTransform="matrix(1 0 0 -1 0 -930)"><stop offset="0" style="stop-color:#FDD663"/><stop offset=".2" style="stop-color:#FDD663;stop-opacity:0.99"/><stop offset=".34" style="stop-color:#F1C660;stop-opacity:0.95"/><stop offset=".45" style="stop-color:#F2CA6B;stop-opacity:0.89"/><stop offset=".56" style="stop-color:#F3CF7A;stop-opacity:0.8"/><stop offset=".66" style="stop-color:#F5D68E;stop-opacity:0.68"/><stop offset=".76" style="stop-color:#F7DFA6;stop-opacity:0.53"/><stop offset=".85" style="stop-color:#FAE9C2;stop-opacity:0.36"/><stop offset=".93" style="stop-color:#FCF5E2;stop-opacity:0.17"/><stop offset="1" style="stop-color:#FFFFFF;stop-opacity:0"/></linearGradient><path fill="url(#l)" d="M306.85 157.46H336.19V183.70000000000002H306.85z"/><path fill="#202124" d="M298.48,157c-2.761,0-5,2.239-5,5s2.239,5,5,5s5-2.239,5-5S301.241,157,298.48,157z M298.48,166.51 c-2.48-0.017-4.476-2.04-4.46-4.52c0.017-2.48,2.04-4.476,4.52-4.46c2.46,0.016,4.449,2.01,4.46,4.47c0,2.48-2.01,4.49-4.49,4.49 c-0.01,0-0.02,0-0.03,0V166.51z"/><path fill="#DADCE0" d="M374.93,183.78l0.59-0.16l-6.62-24.92h-12.68l-5.11,24.94l0.6,0.12l1.16-5.64h8.57l1.56,5.66l0.59-0.16 l-1.52-5.5h11.35L374.93,183.78z M353,177.5l3.53-17.18l4.75,17.18H353z M361.91,177.5l-5-18.18h11.55l4.84,18.18H361.91z"/><path fill="#5F6368" d="M361.513,147.455L349,131.42h-61c-0.514,0.001-0.929,0.419-0.927,0.932c0,0.164,0.044,0.326,0.128,0.468 l12.4,15.54l61.52,0.189c0.18-0.012,0.308-0.04,0.415-0.076L361.513,147.455z"/><path fill="#202124" d="M347.89 148.45L334.41 131.42 341.33 131.42 354.72 148.47zM334.14 148.36L320.61 131.42 327.51 131.42 340.99 148.41zM320.32 148.36L306.79 131.42 313.69 131.42 327.23 148.36zM306.5 148.36L292.96 131.42 299.87 131.42 313.4 148.41zM306.5 148.36v1.55c.022.934.785 1.68 1.72 1.68l0 0c.95 0 1.72-.77 1.72-1.72l0 0c0 .95.77 1.72 1.72 1.72.003 0 .007 0 .01 0l0 0c.905.008 1.662-.687 1.73-1.59v-1.59L306.5 148.36zM320.32 148.36v1.55c.022.934.785 1.68 1.72 1.68l0 0c.95 0 1.72-.77 1.72-1.72l0 0c.005.952.778 1.72 1.73 1.72l0 0c.916-.004 1.667-.725 1.71-1.64v-1.59H320.32zM338.87 113.65l-39.93 11.28c-.321.133-.69-.019-.823-.341-.037-.088-.053-.184-.047-.279v-17.26c.034-.514.379-.955.87-1.11l39.93-11.28c.324-.128.69.032.817.355.033.084.048.174.043.265v17.26C339.701 113.052 339.359 113.494 338.87 113.65z"/><path fill="#5F6368" d="M490.4 120.96L481.39 108.29 424.2 108.29 424.2 120.96zM369.57 94.22H370.38V97.73H369.57zM418.44 94.22H419.25V97.73H418.44zM364.87 87.91H424.2V94.21H364.87z"/><path fill="#5F6368" d="M424.2 120.69H490.4V121.23H424.2z"/><path fill="#202124" d="M424.2,134.37v-0.54h-38.13c-0.149,0-0.27,0.121-0.27,0.27v38.69h0.54v-33.36h18.22v33.36h0.54v-33.36h19.1 v-0.54h-37.86v-4.52L424.2,134.37L424.2,134.37z"/><path fill="#5F6368" d="M424.2 124.5L373.08 124.5 373.08 108.57 424.2 108.57"/><path fill="none" stroke="#202124" stroke-miterlimit="10" d="M286.6,184V87.26"/><path fill="#DADCE0" d="M301.5,119.86l-0.11-0.53c0.08,0,6.27-1.32,9.4-5.6c-1.299-1.411-2.014-3.262-2-5.18 c0.17-1.91,1.24-2.55,2.18-2.51c1.174,0.074,2.092,1.043,2.1,2.22c0.021,1.934-0.547,3.828-1.63,5.43 c0.466,0.48,0.998,0.891,1.58,1.22c1.59,0.89,4.19,1.43,7.52-1c1.574-1.128,2.95-2.51,4.07-4.09c-1.422-1.341-1.95-3.377-1.36-5.24 c0.178-0.86,1.019-1.413,1.879-1.235c0.654,0.135,1.153,0.664,1.251,1.325c0.4,1.21,0.21,3-1.05,5.05c1.52,1.17,4.94,2.27,11.94-1.2 l0.24,0.49c-7.2,3.56-10.83,2.41-12.48,1.17c-1.151,1.607-2.56,3.013-4.17,4.16c-2.78,2.07-5.66,2.45-8.11,1.08 c-0.595-0.336-1.14-0.753-1.62-1.24C307.88,118.52,301.58,119.85,301.5,119.86z M310.92,106.58c-0.86,0-1.44,0.75-1.55,2 c-0.023,1.722,0.598,3.391,1.74,4.68c0.969-1.486,1.477-3.226,1.46-5c-0.003-0.888-0.694-1.622-1.58-1.68H310.92z M324.87,103.79 c-0.62,0-0.94,0.59-1.08,0.95c-0.502,1.619-0.058,3.382,1.15,4.57c1.2-2,1.27-3.61,1-4.51C325.7,104.18,325.31,103.79,324.87,103.79 L324.87,103.79z"/><path fill="#202124" d="M347.86,148.379v1.55c0.022,0.934,0.785,1.68,1.72,1.68l0,0c0.95,0,1.72-0.77,1.72-1.72l0,0 c0,0.95,0.77,1.72,1.72,1.72c0.003,0,0.007,0,0.01,0l0,0c0.89-0.013,1.623-0.703,1.69-1.59v-1.59L347.86,148.379z"/><path fill="#5F6368" d="M361.534 148.478l-6.814-.05v1.55c.022.934.786 1.68 1.72 1.68.95 0 1.72-.77 1.72-1.72 0 .95.77 1.72 1.72 1.72.003 0 .007 0 .01 0 .89-.013 1.623-.703 1.69-1.59v-.002L361.534 148.478zM341 148.326v1.55c.022.934.785 1.68 1.72 1.68l0 0c.95 0 1.72-.77 1.72-1.72l0 0c0 .95.77 1.72 1.72 1.72.003 0 .007 0 .01 0l0 0c.89-.013 1.623-.703 1.69-1.59v-1.59L341 148.326z"/><path fill="#202124" d="M334.14,148.326v1.55c0.022,0.934,0.785,1.68,1.72,1.68l0,0c0.95,0,1.72-0.77,1.72-1.72l0,0 c0,0.95,0.77,1.72,1.72,1.72c0.003,0,0.007,0,0.01,0l0,0c0.89-0.013,1.623-0.703,1.69-1.59v-1.59L334.14,148.326z"/><linearGradient id="m" gradientUnits="userSpaceOnUse" x1="330.55" y1="1050.98" x2="330.63" y2="1058.09" gradientTransform="translate(0 -904)"><stop offset="0" style="stop-color:#FFFFFF;stop-opacity:0"/><stop offset="1" style="stop-color:#000000;stop-opacity:0.4"/></linearGradient><path fill="url(#m)" d="M361.511,147.66h-27.367h-1.59H299.59v2.21c0,0.95,0.77,1.72,1.72,1.72s1.72-0.77,1.72-1.72 c0,0.95,0.77,1.72,1.72,1.72c0.003,0,0.007,0,0.01,0c0.95,0.005,1.724-0.76,1.73-1.71c0-0.003,0-0.007,0-0.01 c0,0.95,0.77,1.72,1.72,1.72s1.72-0.77,1.72-1.72c0,0.95,0.77,1.72,1.72,1.72c0.003,0,0.007,0,0.01,0 c0.95,0.005,1.724-0.76,1.73-1.71c0-0.003,0-0.007,0-0.01c0,0.95,0.77,1.72,1.72,1.72s1.72-0.77,1.72-1.72 c0,0.95,0.77,1.72,1.72,1.72c0.003,0,0.007,0,0.01,0c0.95,0.005,1.724-0.76,1.73-1.71c0-0.003,0-0.007,0-0.01 c0,0.95,0.77,1.72,1.72,1.72s1.72-0.77,1.72-1.72c0,0.95,0.77,1.72,1.72,1.72c0.003,0,0.007,0,0.01,0 c0.95,0.005,1.724-0.76,1.73-1.71c0-0.003,0-0.007,0-0.01c0,0.95,0.77,1.72,1.72,1.72s1.72-0.77,1.72-1.72 c0,0.95,0.77,1.72,1.72,1.72c0.003,0,0.007,0,0.01,0c0.95,0.005,1.724-0.76,1.73-1.71c0-0.005,0-0.007,0-0.01 c0.001-0.036,0.021-0.072,0.05-0.109v0.115c0.022,0.934,0.786,1.68,1.72,1.68c0.95,0,1.72-0.77,1.72-1.72 c0,0.95,0.77,1.72,1.72,1.72c0.003,0,0.007,0,0.01,0c0.89-0.013,1.623-0.703,1.69-1.59v-0.09c0.022,0.934,0.786,1.68,1.72,1.68 c0.95,0,1.72-0.77,1.72-1.72c0,0.95,0.77,1.72,1.72,1.72c0.003,0,0.007,0,0.01,0c0.89-0.013,1.623-0.703,1.69-1.59v-1.034l0,0v0.997 c0.022,0.934,0.785,1.68,1.72,1.68c0.95,0,1.72-0.77,1.72-1.72c0,0.95,0.77,1.72,1.72,1.72c0.003,0,0.007,0,0.01,0 c0.89-0.013,1.623-0.703,1.69-1.59v-0.041c0.022,0.934,0.785,1.68,1.72,1.68c0.95,0,1.72-0.77,1.72-1.72c0,0.95,0.77,1.72,1.72,1.72 c0.003,0,0.007,0,0.01,0c0.89-0.013,1.623-0.703,1.69-1.59C361.557,149.265,361.534,148.463,361.511,147.66z"/></svg>
