<?xml version="1.0" encoding="utf-8"?>
<!-- Generator: Adobe Illustrator 24.0.1, SVG Export Plug-In . SVG Version: 6.00 Build 0)  -->
<svg version="1.1" xmlns="http://www.w3.org/2000/svg" xmlns:xlink="http://www.w3.org/1999/xlink" x="0px" y="0px" width="340px"
	 height="200px" viewBox="0 0 340 200" enable-background="new 0 0 340 200" xml:space="preserve">
<g id="BACKGROUND">
	
		<radialGradient id="SVGID_1_" cx="350.0367" cy="140.1135" r="33.8885" gradientTransform="matrix(1.2943 -0.0176 0.0093 0.4086 -159.0129 89.0429)" gradientUnits="userSpaceOnUse">
		<stop  offset="0" style="stop-color:#D4D4D4"/>
		<stop  offset="0.1599" style="stop-color:#DBDBDB;stop-opacity:0.8401"/>
		<stop  offset="1" style="stop-color:#FFFFFF;stop-opacity:0"/>
	</radialGradient>
	<rect x="250.186" y="139.775" opacity="0.5" fill="url(#SVGID_1_)" width="89.814" height="27.398"/>
	<g opacity="0.5">
		<linearGradient id="SVGID_2_" gradientUnits="userSpaceOnUse" x1="337.4045" y1="124.1865" x2="9.0456" y2="123.5471">
			<stop  offset="0.0873" style="stop-color:#D4D4D4;stop-opacity:0.9403"/>
			<stop  offset="0.5661" style="stop-color:#D4D4D4"/>
			<stop  offset="1" style="stop-color:#FAFAFA;stop-opacity:0.0358"/>
		</linearGradient>
		<path fill="url(#SVGID_2_)" d="M226.84,188.694H8.93v-5.75h217.91c3.578,0,6.929-1.407,9.435-3.962
			c2.505-2.556,3.847-5.933,3.777-9.512l-0.076-3.847c-0.1-5.136,1.824-9.983,5.42-13.65c3.596-3.667,8.405-5.686,13.54-5.686
			h49.782c12.648,0,22.937-10.289,22.937-22.937c0-11.132-9.057-20.189-20.189-20.189H142.178c-10.457,0-18.964-8.507-18.964-18.964
			v-6.635c0-7.286-5.928-13.214-13.214-13.214H10.343v-5.75h99.657c10.457,0,18.964,8.507,18.964,18.964v6.635
			c0,7.287,5.928,13.214,13.214,13.214h169.289c14.303,0,25.939,11.636,25.939,25.939c0,15.818-12.869,28.687-28.687,28.687h-49.782
			c-3.578,0-6.929,1.407-9.435,3.962c-2.505,2.556-3.847,5.933-3.777,9.512l0.076,3.847c0.1,5.136-1.824,9.983-5.42,13.65
			C236.784,186.674,231.976,188.694,226.84,188.694z"/>
	</g>
	<g>
		<path fill="#D1D1D1" d="M100.332,93.039c-1.193-1.005-2.667-1.476-4.151-1.445c-0.31-2.453-2.053-4.599-4.584-5.301
			c-3.365-0.933-6.848,1.038-7.782,4.403c-0.933,3.365,1.038,6.849,4.403,7.782c0.364,0.101,0.728,0.166,1.091,0.201
			c0.002,1.828,0.745,3.603,2.202,4.831c2.721,2.293,6.902,1.807,9.338-1.084C103.285,99.534,103.053,95.331,100.332,93.039z"/>
		<circle fill="#EAEAEA" cx="107.08" cy="97.089" r="8.577"/>
		<g>
			
				<line fill="none" stroke="#7F7F7F" stroke-width="0.5391" stroke-linecap="round" stroke-miterlimit="10" x1="91.038" y1="93.012" x2="100.823" y2="107.629"/>
			
				<line fill="none" stroke="#7F7F7F" stroke-width="0.5391" stroke-linecap="round" stroke-miterlimit="10" x1="96.704" y1="95.81" x2="94.624" y2="98.369"/>
		</g>
	</g>
	<linearGradient id="SVGID_3_" gradientUnits="userSpaceOnUse" x1="147.1791" y1="13.3022" x2="147.1791" y2="31.731">
		<stop  offset="0" style="stop-color:#D6D6D6"/>
		<stop  offset="0.3181" style="stop-color:#DEDEDE;stop-opacity:0.6819"/>
		<stop  offset="0.8216" style="stop-color:#F5F5F5;stop-opacity:0.1784"/>
		<stop  offset="1" style="stop-color:#FFFFFF;stop-opacity:0"/>
	</linearGradient>
	<path opacity="0.5" fill="url(#SVGID_3_)" d="M105.532,28.261v3.628h83.294v-3.628c-3.155-10.668-13.595-9.264-20.982-6.711
		c-5.713,1.975-11.672,1.273-17.175-1.831l-0.846-0.477c-2.421-1.365-4.799-2.908-7.164-4.495
		c-11.463-7.695-18.988-0.827-22.697,4.524c-1.81,2.61-4.272,3.776-6.706,3.196C110.288,21.76,106.58,22.216,105.532,28.261z"/>
	
		<linearGradient id="SVGID_4_" gradientUnits="userSpaceOnUse" x1="337.6134" y1="38.7632" x2="337.6134" y2="73.3351" gradientTransform="matrix(-1 0 0 1 614.3572 0)">
		<stop  offset="0.3757" style="stop-color:#D6D6D6"/>
		<stop  offset="0.568" style="stop-color:#DADADA;stop-opacity:0.692"/>
		<stop  offset="0.7679" style="stop-color:#E7E7E7;stop-opacity:0.3718"/>
		<stop  offset="0.9706" style="stop-color:#FBFBFB;stop-opacity:0.0471"/>
		<stop  offset="1" style="stop-color:#FFFFFF;stop-opacity:0"/>
	</linearGradient>
	<path opacity="0.5" fill="url(#SVGID_4_)" d="M330.708,73.211H222.78c4.088-13.823,17.616-12.004,27.187-8.695
		c7.403,2.559,15.124,1.65,22.255-2.372l1.097-0.619c3.137-1.769,6.218-3.768,9.282-5.824c14.853-9.971,24.603-1.071,29.41,5.862
		c2.345,3.382,5.536,4.893,8.69,4.142C324.545,64.788,329.35,65.378,330.708,73.211z"/>
	<linearGradient id="SVGID_5_" gradientUnits="userSpaceOnUse" x1="83.5837" y1="106.111" x2="83.5837" y2="117.5658">
		<stop  offset="0.0859" style="stop-color:#D6D6D6"/>
		<stop  offset="0.4517" style="stop-color:#E3E3E3;stop-opacity:0.5998"/>
		<stop  offset="1" style="stop-color:#FFFFFF;stop-opacity:0"/>
	</linearGradient>
	<path opacity="0.5" fill="url(#SVGID_5_)" d="M107.565,113.721c-1.535,0-2.91,0.496-3.865,1.281
		c-1.352-2.311-4.443-3.928-8.045-3.928c-0.149,0-0.295,0.011-0.442,0.017c-2.695-2.73-7.026-4.509-11.925-4.509
		c-6.078,0-11.295,2.729-13.576,6.629c-1.611-1.325-3.933-2.162-6.522-2.162c-4.864,0-8.807,2.936-8.807,6.558h14.098h3.517h14.883
		h11.215h4.25h2.084h8.354C112.784,115.461,110.447,113.721,107.565,113.721z"/>
	<g>
		<path fill="#7F7F7F" d="M101.092,112.438v-4.704l5.365-5.842c0.101-0.11,0.094-0.28-0.016-0.381
			c-0.11-0.101-0.281-0.094-0.381,0.016l-5.507,5.997v4.666c0.182,0.091,0.346,0.199,0.518,0.3
			C101.075,112.471,101.092,112.458,101.092,112.438z"/>
	</g>
	<linearGradient id="SVGID_6_" gradientUnits="userSpaceOnUse" x1="35.1795" y1="78.4727" x2="35.1795" y2="108.2142">
		<stop  offset="0.2229" style="stop-color:#D6D6D6"/>
		<stop  offset="0.5244" style="stop-color:#E3E3E3;stop-opacity:0.6121"/>
		<stop  offset="1" style="stop-color:#FFFFFF;stop-opacity:0"/>
	</linearGradient>
	<path opacity="0.5" fill="url(#SVGID_6_)" d="M45.058,82.812c-10.354,0-19.254,6.2-23.207,15.087
		c-2.32-1.927-5.299-3.087-8.551-3.087c-7.397,0-13.393,5.996-13.393,13.393h19.758h7.027h43.757
		C70.451,94.181,59.082,82.812,45.058,82.812z"/>
</g>
<g id="FOREGROUND">
	<g>
		<path fill="none" stroke="#D2D7DB" stroke-width="1.6372" stroke-miterlimit="10" d="M217.252,87.836"/>
		<g>
			<path fill="none" stroke="#D4D9DD" stroke-width="1.714" stroke-miterlimit="10" d="M219.165,86.061"/>
			<path fill="#E8E8E8" d="M209.649,97.435h-35.252c-2.583,0-4.677-2.094-4.677-4.677V44.391c0-2.583,2.094-4.677,4.677-4.677
				h39.929v53.044C214.325,95.342,212.232,97.435,209.649,97.435z"/>
			<g>
				<linearGradient id="SVGID_7_" gradientUnits="userSpaceOnUse" x1="199.5195" y1="92.8801" x2="222.3406" y2="52.4732">
					<stop  offset="0.2458" style="stop-color:#202124;stop-opacity:0.1"/>
					<stop  offset="1" style="stop-color:#202124;stop-opacity:0"/>
				</linearGradient>
				<path fill="url(#SVGID_7_)" d="M214.325,39.715h-0.215l-6.516,11.528v36.499l4.802,8.796c0.322-0.234,0.853-0.636,1.29-1.4
					c0.31-0.541,0.562-1.231,0.639-2.051L214.325,39.715z"/>
			</g>
			<linearGradient id="SVGID_8_" gradientUnits="userSpaceOnUse" x1="215.2923" y1="86.1157" x2="202.0316" y2="98.4131">
				<stop  offset="0.1288" style="stop-color:#1F2125"/>
				<stop  offset="0.8661" style="stop-color:#1F2125;stop-opacity:0"/>
			</linearGradient>
			<path opacity="0.1" fill="url(#SVGID_8_)" d="M210.272,97.389c2.288-0.305,4.054-2.259,4.054-4.63v-5.498
				c-0.216-2.313-2.986-5.263-2.986-5.263l-14.115,15.438C201.755,97.38,205.846,97.38,210.272,97.389z"/>
			<path fill="#E8E8E8" d="M195.123,97.435H159.87c-2.583,0-4.677-2.094-4.677-4.677V39.715h44.606v53.044
				C199.799,95.342,197.706,97.435,195.123,97.435z"/>
			<linearGradient id="SVGID_9_" gradientUnits="userSpaceOnUse" x1="216.3332" y1="42.2713" x2="163.4921" y2="78.0602">
				<stop  offset="0.3781" style="stop-color:#202124;stop-opacity:0.1"/>
				<stop  offset="1" style="stop-color:#202124;stop-opacity:0"/>
			</linearGradient>
			<path fill="url(#SVGID_9_)" d="M199.799,97.435h-39.828c-2.639,0-4.778-2.139-4.778-4.778V39.715h44.606V97.435z"/>
			<g>
				<linearGradient id="SVGID_10_" gradientUnits="userSpaceOnUse" x1="173.6971" y1="57.5362" x2="158.0642" y2="85.0544">
					<stop  offset="0.2458" style="stop-color:#202124;stop-opacity:0.1"/>
					<stop  offset="1" style="stop-color:#202124;stop-opacity:0"/>
				</linearGradient>
				<path fill="url(#SVGID_10_)" d="M176.722,72.663L176.722,72.663c-6.212,0-11.247-5.036-11.247-11.247V47.573l-10.281,11.44
					v33.775c0,2.567,2.081,4.647,4.647,4.647h1.581l21.994-25.913L176.722,72.663z"/>
			</g>
			<circle fill="#575859" cx="165.475" cy="47.019" r="1.464"/>
			<circle fill="#575859" cx="187.969" cy="47.019" r="1.464"/>
			<path fill="none" stroke="#36A653" stroke-width="1.7554" stroke-linecap="round" stroke-miterlimit="10" d="M187.969,47.645
				v13.771c0,6.212-5.036,11.247-11.247,11.247h0c-6.212,0-11.247-5.036-11.247-11.247V47.573"/>
			<path fill="#D1D1D1" d="M199.799,39.715l7.205,11.219c0.275,0.429,0.909,0.408,1.155-0.039l6.166-11.18H199.799z"/>
			<linearGradient id="SVGID_11_" gradientUnits="userSpaceOnUse" x1="218.1247" y1="37.8226" x2="195.4874" y2="49.8958">
				<stop  offset="0.3781" style="stop-color:#202124;stop-opacity:0.1"/>
				<stop  offset="1" style="stop-color:#202124;stop-opacity:0"/>
			</linearGradient>
			<path fill="url(#SVGID_11_)" d="M199.799,39.715l7.205,11.219c0.275,0.429,0.909,0.408,1.155-0.039l6.166-11.18H199.799z"/>
		</g>
		<g>
			<g>
				<path fill="#E6EBF0" d="M194.797,97.435h14.852c0.212,0,0.419-0.019,0.623-0.046C205.846,97.38,199.328,97.38,194.797,97.435z"
					/>
			</g>
			<path fill="#36A653" d="M217.636,78.198c-3.812-0.145-6.948,2.903-6.948,6.683c0,1.505,0.497,2.894,1.337,4.012
				c0,0,1.512,1.756,2.138,2.676c0.583,0.857,2.308,3.496,2.665,5.306c0.083,0.323,0.367,0.551,0.698,0.559l0,0.002
				c0.003,0,0.006-0.001,0.009-0.001c0.003,0,0.006,0.001,0.009,0.001l0-0.002c0.332-0.009,0.616-0.236,0.698-0.559
				c0.357-1.81,2.082-4.449,2.665-5.306c0.626-0.92,2.138-2.676,2.138-2.676c0.839-1.118,1.337-2.507,1.337-4.012
				C224.38,81.1,221.448,78.053,217.636,78.198z M217.534,86.932c-1.33,0-2.408-1.078-2.408-2.408s1.078-2.408,2.408-2.408
				s2.408,1.078,2.408,2.408S218.864,86.932,217.534,86.932z"/>
		</g>
	</g>
	<g>
		<g>
			<g id="house_5_">
				<polygon fill="#D1D1D1" points="63.043,22.774 51.654,22.774 28.52,35.046 28.52,40.243 10.343,46.353 10.343,58.587 
					28.52,58.587 38.816,58.587 82.001,58.587 82.001,34.474 				"/>
				<radialGradient id="SVGID_12_" cx="82.3727" cy="21.8514" r="40.7873" gradientUnits="userSpaceOnUse">
					<stop  offset="0" style="stop-color:#D6D6D6"/>
					<stop  offset="1" style="stop-color:#FFFFFF;stop-opacity:0"/>
				</radialGradient>
				<polygon opacity="0.5" fill="url(#SVGID_12_)" points="63.043,22.774 51.654,22.774 28.52,35.046 28.52,40.243 10.343,46.353 
					10.343,58.587 28.52,58.587 38.816,58.587 82.001,58.587 82.001,34.474 				"/>
				<g>
					<path fill="#FFFFFF" d="M62.595,45.736h-0.6c-1.31,0-2.373,1.062-2.373,2.372v10.478h0.539V48.109
						c0-1.011,0.823-1.833,1.833-1.833h0.6c1.011,0,1.833,0.822,1.833,1.833v10.478h0.539V48.109
						C64.968,46.799,63.905,45.736,62.595,45.736z"/>
					<polygon fill="#FFFFFF" points="71.925,34.621 71.99,34.661 71.706,35.12 71.578,35.041 71.578,58.587 72.117,58.587 
						72.117,35.16 82.001,35.16 82.001,34.621 					"/>
					<polygon fill="#FFFFFF" points="71.578,34.621 71.925,34.621 52.754,22.774 51.729,22.774 71.578,35.041 					"/>
					<polygon fill="#D1D1D1" points="71.578,35.041 71.706,35.12 71.99,34.661 71.925,34.621 71.578,34.621 					"/>
					<polygon fill="#FFFFFF" points="27.729,40.509 27.729,58.587 28.268,58.587 28.268,40.328 					"/>
				</g>
			</g>
		</g>
		<g>
			<linearGradient id="SVGID_13_" gradientUnits="userSpaceOnUse" x1="84.8135" y1="46.2623" x2="68.8286" y2="61.0861">
				<stop  offset="0.1288" style="stop-color:#1F2125"/>
				<stop  offset="0.8661" style="stop-color:#1F2125;stop-opacity:0"/>
			</linearGradient>
			<path opacity="0.1" fill="url(#SVGID_13_)" d="M82.001,53.997v4.6c0,0-12.719-0.092-20.182,0l18.059-17.483L82.001,53.997z"/>
			<path fill="#E84336" d="M84.657,39.359c-3.812-0.145-6.948,2.903-6.948,6.683c0,1.505,0.497,2.894,1.337,4.012
				c0,0,1.512,1.756,2.138,2.676c0.583,0.857,2.308,3.496,2.665,5.306c0.083,0.323,0.367,0.551,0.698,0.559l0,0.002
				c0.003,0,0.006-0.001,0.009-0.001c0.003,0,0.006,0.001,0.009,0.001l0-0.002c0.332-0.009,0.616-0.236,0.698-0.559
				c0.357-1.81,2.082-4.449,2.665-5.306c0.626-0.92,2.138-2.676,2.138-2.676c0.839-1.118,1.337-2.507,1.337-4.012
				C91.402,42.262,88.47,39.214,84.657,39.359z M84.555,48.093c-1.33,0-2.408-1.078-2.408-2.408s1.078-2.408,2.408-2.408
				s2.408,1.078,2.408,2.408S85.885,48.093,84.555,48.093z"/>
		</g>
	</g>
	<g>
		<path fill="#D1D1D1" d="M83.841,149.423H66.267v-3.671c0-3.012-2.447-5.463-5.455-5.463h-7.863c-3.008,0-5.455,2.451-5.455,5.463
			v3.671H36.076c-2.393,0-4.332,1.94-4.332,4.333v25.054c0,2.393,1.94,4.332,4.332,4.332h47.765c2.393,0,4.332-1.94,4.332-4.332
			v-25.054C88.173,151.362,86.233,149.423,83.841,149.423z M50.339,145.863c0-1.505,1.218-2.726,2.722-2.726h7.909
			c1.355,0,2.453,1.1,2.453,2.457v3.828H50.339V145.863z"/>
		<path fill="#FFFFFF" d="M79.641,179.619v-26.556c0-1.534,0.809-2.874,2.018-3.641h-0.881c-1.018,0.891-1.675,2.185-1.675,3.641
			v11.477l-5.663,1.735v-14.171c0-1.022,0.284-1.948,0.739-2.682h-0.553c-0.412,0.763-0.657,1.685-0.657,2.682v3.901h-4.411v-3.901
			c0-1.022,0.284-1.948,0.739-2.682h-0.553c-0.412,0.763-0.657,1.685-0.657,2.682v15.811l-9.403,2.882
			c-0.893,0.274-1.84,0.281-2.737,0.02l-11.708-3.398v-15.316c0-1.022,0.285-1.948,0.74-2.682h-0.553
			c-0.412,0.763-0.657,1.686-0.657,2.682v3.901h-4.411v-3.901c0-1.022,0.285-1.948,0.74-2.682h-0.553
			c-0.412,0.763-0.657,1.686-0.657,2.682v13.763l-7.143-2.073v0.357l7.143,2.073v14.272c0,0.98,0.234,1.89,0.633,2.645h0.554
			c-0.441-0.728-0.717-1.641-0.717-2.645v-17.541h4.411v4.329l-0.024-0.007v0.357l0.024,0.007v12.855c0,0.98,0.234,1.89,0.633,2.645
			h0.554c-0.441-0.728-0.717-1.641-0.717-2.645v-12.719l11.613,3.37c0.468,0.136,0.949,0.204,1.43,0.204
			c0.506,0,1.012-0.075,1.503-0.226l9.302-2.851v12.222c0,0.979,0.234,1.89,0.633,2.645h0.554c-0.441-0.729-0.716-1.64-0.716-2.645
			v-17.542h4.411v17.542c0,0.979,0.234,1.89,0.633,2.645h0.554c-0.441-0.729-0.716-1.64-0.716-2.645v-13.862l5.663-1.735v14.72
			c0,1.389,0.594,2.636,1.533,3.523h0.843C80.37,182.359,79.641,181.075,79.641,179.619z M43.768,162.612h-4.411v-3.972h4.411
			V162.612z M43.768,158.298h-4.411v-1.949h4.411V158.298z M72.968,162.612h-4.411v-3.972h4.411V162.612z M72.968,158.298h-4.411
			v-1.951h4.411V158.298z"/>
		<linearGradient id="SVGID_14_" gradientUnits="userSpaceOnUse" x1="90.2199" y1="170.2016" x2="74.2351" y2="185.0254">
			<stop  offset="0.1288" style="stop-color:#1F2125"/>
			<stop  offset="0.8661" style="stop-color:#1F2125;stop-opacity:0"/>
		</linearGradient>
		<path opacity="0.1" fill="url(#SVGID_14_)" d="M88.173,178.809v-8.917c-0.788-0.951-1.57-2.114-2.328-4.234l-18.059,17.483
			c0.317-0.004,0.647-0.003,0.983,0h15.072C86.233,183.141,88.173,181.202,88.173,178.809z"/>
		<g>
			<path fill="none" d="M63.423,145.594c0-1.357-1.098-2.457-2.453-2.457H53.06c-1.503,0-2.721,1.22-2.721,2.726v3.56h13.084
				V145.594z"/>
			<path fill="#D1D1D1" d="M51.884,161.966c-0.451,0-0.818,0.366-0.818,0.818c0,0.452,0.367,0.818,0.818,0.818h10.872
				c0.451,0,0.818-0.366,0.818-0.818c0-0.451-0.367-0.818-0.818-0.818H51.884z"/>
			<path fill="#FFFFFF" d="M51.884,161.426c-0.748,0-1.357,0.609-1.357,1.357s0.609,1.357,1.357,1.357h10.872
				c0.748,0,1.357-0.609,1.357-1.357s-0.609-1.357-1.357-1.357H51.884z M63.574,162.783c0,0.452-0.367,0.818-0.818,0.818H51.884
				c-0.451,0-0.818-0.366-0.818-0.818c0-0.451,0.367-0.818,0.818-0.818h10.872C63.207,161.966,63.574,162.332,63.574,162.783z"/>
		</g>
		<g>
			<g>
				<path fill="#D1D1D1" d="M67.786,183.141h0.983C68.433,183.138,68.102,183.138,67.786,183.141z"/>
			</g>
			<path fill="#4383F2" d="M90.625,163.904c-3.812-0.145-6.948,2.903-6.948,6.683c0,1.505,0.497,2.894,1.337,4.012
				c0,0,1.512,1.756,2.138,2.676c0.583,0.857,2.308,3.496,2.665,5.306c0.083,0.323,0.367,0.551,0.698,0.559l0,0.002
				c0.003,0,0.006-0.001,0.009-0.001c0.003,0,0.006,0.001,0.009,0.001l0-0.002c0.332-0.009,0.616-0.236,0.698-0.559
				c0.357-1.81,2.082-4.449,2.665-5.306c0.626-0.92,2.138-2.676,2.138-2.676c0.839-1.118,1.337-2.507,1.337-4.012
				C97.37,166.806,94.437,163.759,90.625,163.904z M90.523,172.638c-1.33,0-2.408-1.078-2.408-2.408s1.078-2.408,2.408-2.408
				s2.408,1.078,2.408,2.408S91.853,172.638,90.523,172.638z"/>
		</g>
	</g>
	<g>
		<g>
			<path fill="#7F7F7F" d="M180.857,173.077c-0.882-1.043-2.019-1.559-3.127-1.534v-0.001c-0.012-0.001-0.025,0.001-0.037,0.001
				c-0.012,0-0.025-0.001-0.037-0.001v0.001c-1.108-0.025-2.245,0.491-3.127,1.534c-1.882,2.227-1.877,6.116,0.011,8.338
				c0.875,1.03,2.009,1.541,3.116,1.516v0.001c0.012,0.001,0.025-0.001,0.037-0.001c0.012,0,0.025,0.001,0.037,0.001v-0.001
				c1.106,0.025,2.241-0.487,3.116-1.516C182.734,179.193,182.739,175.304,180.857,173.077z"/>
			<path fill="#4383F2" d="M196.924,180.431c-7.742,0-15.484-0.003-23.226,0.002c-2.431,0.002-3.92-1.025-4.406-3.397
				c-0.889-4.341-0.702-8.642,0.904-12.826c2.832-7.373,7.671-12.958,14.763-16.514c2.33-1.168,4.817-1.689,7.434-1.674
				c5.002,0.03,10.004,0.01,15.005,0.014c8.714,0.008,14.532,4.863,15.838,13.55c0.984,6.543,0.813,13.082-1.06,19.51
				c-0.294,1.008-0.681,1.363-1.767,1.356c-7.829-0.053-15.658-0.028-23.487-0.028C196.924,180.427,196.924,180.429,196.924,180.431
				z"/>
			<g>
				
					<line fill="none" stroke="#1B73E6" stroke-width="0.5225" stroke-miterlimit="10" x1="201.843" y1="177.043" x2="208.427" y2="175.945"/>
			</g>
			<path fill="none" stroke="#1B73E6" stroke-width="0.5225" stroke-miterlimit="10" d="M181.936,176.129h-8.185
				c-0.814,0-1.474-0.66-1.474-1.474l0,0c0-0.814,0.66-1.474,1.474-1.474h8.185c0.814,0,1.474,0.66,1.474,1.474l0,0
				C183.41,175.468,182.75,176.129,181.936,176.129z"/>
			
				<line fill="none" stroke="#1B73E6" stroke-width="0.5225" stroke-miterlimit="10" x1="208.35" y1="164.321" x2="211.913" y2="162.491"/>
			<g>
				<path fill="#4383F2" d="M220.651,162.58v4.333c0,1.618,1.316,2.933,2.933,2.933c0.055,0,0.107-0.013,0.162-0.016
					c0.193-3.372,0.008-6.76-0.496-10.15C221.791,159.849,220.651,161.077,220.651,162.58z"/>
				<path fill="#FFFFFF" d="M200.187,171.564c-1.093-1.293-2.562-2.028-4.044-2.028c-0.034,0-0.068,0.001-0.101,0.001v0.008
					c-0.017-0.005-0.034-0.007-0.05-0.008l-0.017,0.186l-0.021-0.112l0.001-0.075c-0.005,0-0.01,0-0.016,0v-0.001
					c-0.028,0.002-0.056,0-0.085,0c-1.482,0-2.951,0.735-4.044,2.028c-1.951,2.309-2.342,5.995-1.189,8.868c0.144,0,0.287,0,0.431,0
					c-1.185-2.768-0.856-6.375,1.045-8.625c1.045-1.235,2.453-1.935,3.85-1.893c0.01,0.002,0.034-0.002,0.05-0.007
					c0.017,0.006,0.042,0.008,0.052,0.007c1.395-0.039,2.805,0.658,3.85,1.893c1.899,2.248,2.23,5.849,1.049,8.616
					c0.144,0,0.287,0,0.43,0C202.529,177.551,202.136,173.87,200.187,171.564z"/>
				<path fill="#FFFFFF" d="M218.401,171.564c-1.093-1.293-2.562-2.028-4.044-2.028c-0.028,0-0.061-0.001-0.085,0c0,0,0,0-0.001,0
					c-0.011,0-0.063,0.003-0.064,0.001l-0.017,0.186l-0.02-0.111l0.001-0.076c-0.005,0-0.01,0-0.016,0v-0.001
					c-0.028,0.002-0.056,0-0.085,0c-1.482,0-2.951,0.735-4.044,2.028c-1.948,2.306-2.341,5.984-1.193,8.856
					c0.144,0,0.287,0.001,0.431,0.001c-1.18-2.767-0.849-6.367,1.05-8.614c1.045-1.235,2.444-1.935,3.85-1.893
					c0.001,0,0.002,0,0.004,0c0.019-0.001,0.044-0.002,0.066-0.003c0.01,0.002,0.02,0,0.032,0.003
					c1.409-0.039,2.805,0.658,3.85,1.893c1.906,2.255,2.232,5.873,1.038,8.643c0.144,0.001,0.287,0,0.431,0.001
					C220.745,177.574,220.356,173.877,218.401,171.564z"/>
				<path fill="#1B73E6" d="M223.585,169.847c-1.618,0-2.933-1.316-2.933-2.933v-4.333c0-1.503,1.14-2.731,2.599-2.899
					c-0.005-0.031-0.007-0.062-0.012-0.094c-0.022-0.144-0.055-0.278-0.079-0.42c-1.703,0.212-3.03,1.653-3.03,3.413v4.333
					c0,1.905,1.551,3.456,3.456,3.456c0.042,0,0.081-0.011,0.122-0.012c0.012-0.176,0.029-0.351,0.04-0.526
					C223.692,169.834,223.64,169.847,223.585,169.847z"/>
			</g>
			<path fill="none" d="M196.924,180.431c-7.742,0-15.484-0.003-23.226,0.002c-2.431,0.002-3.92-1.025-4.406-3.397
				c-0.889-4.341-0.702-8.642,0.904-12.826c2.832-7.373,7.671-12.958,14.763-16.514c2.33-1.168,4.817-1.689,7.434-1.674
				c5.002,0.03,10.004,0.01,15.005,0.014c8.714,0.008,14.532,4.863,15.838,13.55c0.984,6.543,0.813,13.082-1.06,19.51
				c-0.294,1.008-0.681,1.363-1.767,1.356c-7.829-0.053-15.658-0.028-23.487-0.028C196.924,180.427,196.924,180.429,196.924,180.431
				z"/>
			<g>
				<path fill="#D1D1D1" d="M199.163,173.077c-0.882-1.043-2.019-1.559-3.127-1.534v-0.001c-0.012-0.001-0.025,0.001-0.037,0.001
					c-0.012,0-0.025-0.001-0.037-0.001v0.001c-1.108-0.025-2.245,0.491-3.127,1.534c-1.882,2.227-1.877,6.116,0.011,8.338
					c0.875,1.03,2.009,1.541,3.116,1.516v0.001c0.012,0.001,0.025-0.001,0.037-0.001c0.012,0,0.025,0.001,0.037,0.001v-0.001
					c1.106,0.025,2.241-0.487,3.116-1.516C201.04,179.193,201.045,175.304,199.163,173.077z"/>
				<path fill="#D1D1D1" d="M217.376,173.077c-0.882-1.043-2.019-1.559-3.127-1.534v-0.001c-0.012-0.001-0.025,0.001-0.037,0.001
					c-0.012,0-0.025-0.001-0.037-0.001v0.001c-1.108-0.025-2.245,0.491-3.127,1.534c-1.882,2.227-1.877,6.116,0.011,8.338
					c0.875,1.03,2.009,1.541,3.116,1.516v0.001c0.012,0.001,0.025-0.001,0.037-0.001c0.012,0,0.025,0.001,0.037,0.001v-0.001
					c1.106,0.025,2.241-0.487,3.116-1.516C219.253,179.193,219.258,175.304,217.376,173.077z"/>
			</g>
			<g>
				<path fill="#E8E8E8" d="M190.419,164.193c1.669,0,3.171,0.014,4.673-0.005c1.115-0.014,1.941-0.499,2.228-1.63
					c0.307-1.212-0.63-2.3-2.073-2.413c-0.691-0.054-1.39-0.022-2.085-0.025c-0.642-0.003-1.283-0.001-2.073-0.001
					c0.122-0.496,0.153-0.838,0.287-1.133c2.56-5.642,6.565-9.752,12.76-11.081c3.828-0.822,7.469-0.106,10.161,3.153
					c2.567,3.108,1.81,7.477-1.778,9.334c-5.054,2.616-10.177,5.104-15.32,7.541C194.379,169.268,191.688,167.81,190.419,164.193z"
					/>
				<path fill="#E8E8E8" d="M198.527,148.508c-0.331,0.251-0.666,0.497-0.993,0.753c-4.405,3.443-7.828,7.623-9.729,12.947
					c-0.534,1.497-1.299,2.081-2.919,2.091c-3.868,0.022-7.737,0.035-11.605,0.001c-2.088-0.018-2.84-1.314-1.907-3.176
					c2.571-5.133,6.267-9.251,11.182-12.23c0.627-0.38,1.446-0.613,2.18-0.622c4.56-0.056,9.12-0.028,13.68-0.028
					C198.454,148.332,198.49,148.42,198.527,148.508z"/>
			</g>
			<g>
				<path fill="#FFFFFF" d="M189.068,168.571c0,1.249-0.895,2.392-1.9,2.428c-1.06,0.037-1.995-1.111-2.002-2.459
					c-0.007-1.36,0.879-2.48,1.969-2.489C188.18,166.041,189.068,167.198,189.068,168.571z"/>
				<g>
					<path fill="#FFFFFF" d="M171.015,168.544c-0.013-1.077-0.661-2.066-1.459-2.355c-0.435,1.568-0.683,3.151-0.758,4.744
						c0.12,0.037,0.243,0.059,0.368,0.06C170.142,171.002,171.031,169.825,171.015,168.544z"/>
				</g>
			</g>
		</g>
		<g>
			<path fill="#EA4335" d="M145.275,140.868l-9.42-7.904c-2.908,3.462-4.662,7.926-4.662,12.8c0,3.751,0.757,6.793,1.999,9.516
				l11.939-14.229C145.179,140.99,145.225,140.928,145.275,140.868z"/>
			<path fill="#1A73E8" d="M151.111,125.846c-6.127,0-11.605,2.768-15.258,7.12l9.42,7.904c0.027-0.033,0.059-0.063,0.087-0.096
				l11.752-14.007C155.218,126.17,153.202,125.846,151.111,125.846z"/>
			<g>
				<path fill="#4688F1" d="M156.969,150.598c-0.014,0.017-0.03,0.033-0.045,0.05l0.002,0.002L156.969,150.598z"/>
				<path fill="#4285F4" d="M156.989,150.574l11.774-14.033c-2.421-4.624-6.602-8.182-11.657-9.775l-11.833,14.103l0,0
					c1.395-1.669,3.492-2.733,5.838-2.733c4.202,0,7.608,3.406,7.608,7.608C158.719,147.579,158.07,149.261,156.989,150.574z"/>
			</g>
			<path fill="#FBBC04" d="M133.19,155.277c2.084,4.568,5.536,8.236,9.087,12.83l14.649-17.458l-0.002-0.002
				c-1.395,1.654-3.481,2.707-5.814,2.707c-4.202,0-7.608-3.406-7.608-7.608c0-1.795,0.625-3.441,1.665-4.742L133.19,155.277z"/>
			<path fill="#34A853" d="M171.029,145.764c0-3.33-0.822-6.465-2.265-9.224l-11.755,14.009c-0.022,0.028-0.047,0.055-0.07,0.083
				l-14.662,17.473c1.153,1.492,2.317,3.08,3.448,4.831c4.04,6.256,2.83,9.997,5.386,9.997c2.618,0,1.451-3.741,5.491-9.997
				C163.286,162.582,171.029,157.851,171.029,145.764z"/>
		</g>
	</g>
	<g>
		<path fill="#D1D1D1" d="M314.056,91.051h-2.749V90.23c0-1.438-1.165-2.603-2.603-2.603H289.59c-1.438,0-2.603,1.165-2.603,2.603
			v0.821h-2.749c-0.161,0-0.291,0.13-0.291,0.291v3.338c0,0.161,0.13,0.291,0.291,0.291h0.844l0.008,1.888h1.404l2.149,42.98h21.008
			l2.149-42.98h1.404l0.008-1.888h0.844c0.161,0,0.291-0.13,0.291-0.291v-3.338C314.347,91.181,314.217,91.051,314.056,91.051z"/>
		<g>
			<path fill="#F9BA05" d="M313.204,96.859l0.008-1.888h0.844c0.161,0,0.291-0.13,0.291-0.291v-3.338
				c0-0.161-0.13-0.291-0.291-0.291h-2.749V90.23c0-1.438-1.165-2.603-2.603-2.603H289.59c-1.438,0-2.603,1.165-2.603,2.603v0.821
				h-2.749c-0.161,0-0.291,0.13-0.291,0.291v3.338c0,0.161,0.13,0.291,0.291,0.291h0.844l0.008,1.888h1.404l0.001,0.022h25.304
				l0.001-0.022H313.204z"/>
		</g>
		<g>
			<defs>
				<polygon id="SVGID_15_" points="309.651,139.692 288.643,139.692 286.48,96.44 311.813,96.44 				"/>
			</defs>
			<clipPath id="SVGID_16_">
				<use xlink:href="#SVGID_15_"  overflow="visible"/>
			</clipPath>
			<polygon clip-path="url(#SVGID_16_)" fill="#E8E8E8" points="310.335,125.998 288.074,125.998 286.996,106.758 311.307,106.758 
							"/>
		</g>
		
			<line fill="none" stroke="#FFFFFF" stroke-width="0.3993" stroke-miterlimit="10" x1="311.307" y1="90.841" x2="286.986" y2="90.841"/>
		<polygon fill="#FFFFFF" points="311.78,97.254 286.514,97.254 286.494,96.859 311.8,96.859 		"/>
		<path fill="none" d="M314.056,91.051h-2.749V90.23c0-1.438-1.165-2.603-2.603-2.603H289.59c-1.438,0-2.603,1.165-2.603,2.603
			v0.821h-2.749c-0.161,0-0.291,0.13-0.291,0.291v3.338c0,0.161,0.13,0.291,0.291,0.291h0.844l0.008,1.888h1.404l2.149,42.98h21.008
			l2.149-42.98h1.404l0.008-1.888h0.844c0.161,0,0.291-0.13,0.291-0.291v-3.338C314.347,91.181,314.217,91.051,314.056,91.051z"/>
		<g>
			<linearGradient id="SVGID_17_" gradientUnits="userSpaceOnUse" x1="313.8911" y1="127.0413" x2="297.9062" y2="141.8651">
				<stop  offset="0.1288" style="stop-color:#1F2125"/>
				<stop  offset="0.8661" style="stop-color:#1F2125;stop-opacity:0"/>
			</linearGradient>
			<path opacity="0.1" fill="url(#SVGID_17_)" d="M309.984,133.028l-0.333,6.811c0,0-10.862-0.092-18.326,0l18.059-17.483
				C311.34,127.829,308.028,127.554,309.984,133.028z"/>
			<linearGradient id="SVGID_18_" gradientUnits="userSpaceOnUse" x1="290.9165" y1="124.1216" x2="288.3215" y2="134.5203">
				<stop  offset="0.201" style="stop-color:#1F2125"/>
				<stop  offset="1" style="stop-color:#1F2125;stop-opacity:0"/>
			</linearGradient>
			<polygon opacity="0.1" fill="url(#SVGID_18_)" points="292.591,124.64 288.403,135.051 288.074,128.283 			"/>
			<path fill="#F9BA05" d="M314.164,120.601c-3.812-0.145-6.948,2.903-6.948,6.683c0,1.505,0.497,2.894,1.337,4.012
				c0,0,1.512,1.756,2.138,2.676c0.583,0.857,2.308,3.496,2.665,5.306c0.083,0.323,0.367,0.551,0.698,0.559l0,0.002
				c0.003,0,0.006-0.001,0.009-0.001c0.003,0,0.006,0.001,0.009,0.001l0-0.002c0.332-0.009,0.616-0.236,0.698-0.559
				c0.357-1.81,2.082-4.449,2.665-5.306c0.626-0.92,2.138-2.676,2.138-2.676c0.839-1.118,1.337-2.507,1.337-4.012
				C320.909,123.504,317.976,120.456,314.164,120.601z M314.062,129.335c-1.33,0-2.408-1.078-2.408-2.408s1.078-2.408,2.408-2.408
				c1.33,0,2.408,1.078,2.408,2.408S315.392,129.335,314.062,129.335z"/>
		</g>
		<path fill="none" stroke="#FFFFFF" stroke-width="0.5391" stroke-miterlimit="10" d="M311.307,126.11"/>
		<path fill="none" stroke="#FFFFFF" stroke-width="0.5391" stroke-miterlimit="10" d="M286.922,126.11"/>
		<g>
			<circle fill="#D1D1D1" cx="281.499" cy="120.596" r="11.803"/>
			<g>
				
					<line fill="none" stroke="#7F7F7F" stroke-width="0.5391" stroke-linecap="round" stroke-miterlimit="10" x1="281.486" y1="122.327" x2="281.486" y2="139.452"/>
				
					<line fill="none" stroke="#7F7F7F" stroke-width="0.5391" stroke-linecap="round" stroke-miterlimit="10" x1="281.499" y1="125.422" x2="276.292" y2="120.515"/>
				
					<line fill="none" stroke="#7F7F7F" stroke-width="0.5391" stroke-linecap="round" stroke-miterlimit="10" x1="281.68" y1="128.865" x2="286.922" y2="125.83"/>
			</g>
		</g>
	</g>
</g>
</svg>
