<svg xmlns="http://www.w3.org/2000/svg" width="220" height="220"><radialGradient id="a" cx="145.1919" cy="135.8896" r="70.8556" gradientUnits="userSpaceOnUse"><stop offset="0" style="stop-color:#3C4043"/><stop offset="1" style="stop-color:#3C4043;stop-opacity:0"/></radialGradient><path fill="url(#a)" d="M213.229 157.823v28.827H129.4l6.427-13.415c4.044-.27 8.512-3.162 10.206-6.698 1.694-3.536-.003-6.428-3.787-6.697l.937-1.957h-4.089l-70.82-.03c-.44.919.958 1.467 2.807 1.467.961 0 1.923-.203 2.689-.526.456.323 1.224.526 2.185.526.961 0 1.923-.203 2.689-.526.399.282 1.05.462 1.851.504l-1.24 2.587c-.165-.011-.33-.021-.501-.026l.006-.006h-6.434c-.186 0-.374.002-.56.007-1.233-.753-3.258-1.223-5.754-1.223-4.831 0-9.587 1.757-10.626 3.924-.686 1.43.422 2.682 2.644 3.368l-.266.556c-1.144 2.386 1.82 4.321 6.619 4.321 3.819 0 7.648-1.226 9.629-2.929.152.004.305.007.46.007.323 0 .645-.017.967-.036L67.39 186.65H10.66v-28.827h202.569z"/><linearGradient id="b" gradientUnits="userSpaceOnUse" x1="-2606.658" y1="12.2487" x2="-2606.658" y2="90.1018" gradientTransform="matrix(-1 0 0 1 -2536.9829 42)"><stop offset="0" style="stop-color:#5F6368"/><stop offset="1" style="stop-color:#202124;stop-opacity:0"/></linearGradient><path fill="url(#b)" d="M137.299 129.882l-21.024-32.646c-6.598-9.102-17.589-13.146-27.722-9.754-.422.143-.852.293-1.288.458-14.541 5.481-24.237-24.066-40.381-26.649-19.615-3.141-25.555 14.305-25.555 14.305L2.051 129.889l135.248-.007z"/><path fill="#202124" d="M34.131 69.385c5.99-.458 12.366 1.882 16.251 5.968 2.118 2.233 2.991 4.1 2.648 5.725-.522 2.533-3.907 4.444-8.816 6.526-2.147.909-3.599 2.555-4 4.515-.336 1.667.136 3.313 1.31 4.515 1.016 1.052 2.998 1.503 5.159 1.503 1.703 0 3.506-.279 5.045-.773l31.565-8.766c-.479-.021-.952-.079-1.417-.165l-30.306 8.43c-3.356 1.066-8.036 1.088-9.661-.594-1.045-1.081-1.467-2.548-1.166-4.036.365-1.782 1.703-3.292 3.685-4.129 5.066-2.154 8.559-4.15 9.131-6.913.372-1.81-.537-3.836-2.791-6.204-3.993-4.193-10.534-6.605-16.681-6.133-3.65.279-8.687 1.682-12.695 6.576-.043.107-.064.172-.064.172l-.522 1.467c.007-.007.021-.014.029-.029 4.022-5.795 9.453-7.362 13.296-7.655z"/><radialGradient id="c" cx="224.1397" cy="1562.8132" r="106.5261" gradientTransform="matrix(.9879 .155 -.0736 .4691 .4245 -584.7809)" gradientUnits="userSpaceOnUse"><stop offset=".0061" style="stop-color:#5F6368"/><stop offset=".3552" style="stop-color:#5F6368"/><stop offset=".6531" style="stop-color:#3C4043"/><stop offset=".9313" style="stop-color:#3C4043;stop-opacity:0.6"/><stop offset="1" style="stop-color:#202124;stop-opacity:0"/></radialGradient><path fill="url(#c)" d="M211.16 215.518h-5.147c0-6.242-5.08-11.322-11.322-11.322h-80.228c-9.081 0-16.469-7.388-16.469-16.469 0-6.242-5.079-11.322-11.322-11.322H6.816v-5.147h79.858c9.081 0 16.468 7.388 16.468 16.468 0 6.243 5.08 11.323 11.323 11.323h80.228c9.079.001 16.467 7.39 16.467 16.469z"/><path fill="#669DF6" d="M112.424 10.25c-8.95-.34-16.313 6.814-16.313 15.688 0 3.534 1.168 6.796 3.138 9.419 0 0 3.548 4.122 5.018 6.282 1.369 2.011 5.417 8.208 6.256 12.458.194.758.861 1.294 1.639 1.313v.004c.007 0 .014-.001.022-.001.007 0 .014.001.022.001v-.004c.779-.02 1.445-.555 1.639-1.313.837-4.25 4.887-10.445 6.256-12.458 1.469-2.161 5.018-6.282 5.018-6.282 1.97-2.624 3.138-5.885 3.138-9.419 0-8.874-6.883-16.028-15.833-15.688zm-.239 20.504c-3.122 0-5.654-2.531-5.654-5.654 0-3.122 2.531-5.654 5.654-5.654 3.122 0 5.654 2.531 5.654 5.654-.001 3.123-2.532 5.654-5.654 5.654z"/><path fill="#3C4043" d="M175.898 61.762c-5.25 0-9.5-4.25-9.5-9.5s4.25-9.5 9.5-9.5 9.5 4.25 9.5 9.5-4.25 9.5-9.5 9.5z"/><linearGradient id="d" gradientUnits="userSpaceOnUse" x1="175.7977" y1="18.9312" x2="175.7977" y2="71.6245" gradientTransform="translate(0 42)"><stop offset="0" style="stop-color:#3C4043"/><stop offset=".3864" style="stop-color:#35383B;stop-opacity:0.6136"/><stop offset=".9935" style="stop-color:#202124;stop-opacity:0.0065"/><stop offset="1" style="stop-color:#202124;stop-opacity:0"/></linearGradient><path fill="url(#d)" d="M206.698 89.862h-61.8c2.337-7.919 10.087-6.877 15.566-4.98 4.243 1.465 8.664.949 12.746-1.355l.627-.356c1.795-1.016 3.557-2.16 5.319-3.337 8.503-5.708 14.084-.61 16.837 3.354 1.347 1.939 3.167 2.803 4.98 2.371 2.193-.516 4.946-.186 5.725 4.303z"/><linearGradient id="e" gradientUnits="userSpaceOnUse" x1="-466.9204" y1="97.447" x2="-466.9204" y2="36.2696" gradientTransform="matrix(-1 0 1.3549 -1 -487.9874 220)"><stop offset="0" style="stop-color:#202124"/><stop offset="1" style="stop-color:#202124;stop-opacity:0"/></linearGradient><path fill="url(#e)" d="M17.473 176.863l2.073 6.729c.07.224.345.358.74.358h9.565c.665 0 1.465-.374 1.786-.834l3.453-4.957c.321-.461 1.121-.834 1.786-.834h7.099c.665 0 .945.374.624.834l-5.536 7.95c-.321.461-1.121.834-1.786.834h-2.228c-.665 0-1.465.374-1.786.834-.321.461-.042.834.624.834v.001h4.099c.96 0 2.114-.476 2.738-1.131l6.539-6.766c.406-.398 1.127-.677 1.696-.649.139.006.279.01.424.01 3.111 0 6.763-1.505 8.824-3.522.525-.513.276-1-.485-1h-.015l.001-.001c1.378-1.978.177-3.582-2.68-3.582-2.858 0-6.292 1.604-7.669 3.582v.001H34.623l.001-.001h-1.54c1.378-1.978.177-3.582-2.68-3.582s-6.292 1.604-7.669 3.582h-1.327v.001h-2.032c-.975-.002-2.074.755-1.903 1.309z"/><path fill="#DADCE0" d="M32.379 138.895l-3.351 6.347-1.613 8.502 4.148.787 1.611-8.503z"/><linearGradient id="f" gradientUnits="userSpaceOnUse" x1="-682.0491" y1="812.2042" x2="-682.0491" y2="834.6633" gradientTransform="rotate(10.735 3257.20462 4276.93837)"><stop offset="0" style="stop-color:#3C4043"/><stop offset="1" style="stop-color:#3C4043;stop-opacity:0"/></linearGradient><path fill="url(#f)" d="M32.379 138.895l-3.351 6.347-1.613 8.502 4.148.787 1.611-8.503z"/><path fill="#5F6368" d="M19.903 143.511l9.125 1.731 3.351-6.347-9.124-1.73z"/><linearGradient id="g" gradientUnits="userSpaceOnUse" x1="-688.7504" y1="819.8099" x2="-687.5785" y2="814.8578" gradientTransform="rotate(10.735 3257.20462 4276.93837)"><stop offset="0" style="stop-color:#3C4043"/><stop offset="1" style="stop-color:#3C4043;stop-opacity:0"/></linearGradient><path fill="url(#g)" d="M19.903 143.511l9.125 1.731 3.351-6.347-9.124-1.73z"/><path fill="#5F6368" d="M23.255 137.165l-1.284 1.117c-.153.133-.085.383.114.42l9.45 1.792.844-1.598-9.124-1.731z"/><linearGradient id="h" gradientUnits="userSpaceOnUse" x1="-687.329" y1="819.6866" x2="-687.2438" y2="812.7688" gradientTransform="rotate(10.735 3257.20462 4276.93837)"><stop offset="0" style="stop-color:#DADCE0"/><stop offset="1" style="stop-color:#DADCE0;stop-opacity:0"/></linearGradient><path fill="url(#h)" d="M23.255 137.165l-1.284 1.117c-.153.133-.085.383.114.42l9.45 1.792.844-1.598-9.124-1.731z"/><path fill="#669DF6" d="M24.516 143.098l1.258 1.031 3.135-5.892-3.06-.579-3.135 5.89z"/><linearGradient id="i" gradientUnits="userSpaceOnUse" x1="-687.5269" y1="810.9746" x2="-687.8955" y2="813.6396" gradientTransform="rotate(10.735 3257.20462 4276.93837)"><stop offset="0" style="stop-color:#FFFFFF;stop-opacity:0.936"/><stop offset="1" style="stop-color:#FFFFFF;stop-opacity:0"/></linearGradient><path opacity=".4" fill="url(#i)" d="M24.516 143.098l1.258 1.031 3.135-5.892-3.06-.579-3.135 5.89z"/><path fill="#5F6368" d="M18.29222 152.01355l1.61224-8.50256 9.12448 1.73017-1.61224 8.50255z"/><linearGradient id="j" gradientUnits="userSpaceOnUse" x1="-688.8034" y1="833.0994" x2="-688.8034" y2="820.528" gradientTransform="rotate(10.735 3257.20462 4276.93837)"><stop offset="0" style="stop-color:#3C4043"/><stop offset="1" style="stop-color:#3C4043;stop-opacity:0"/></linearGradient><path fill="url(#j)" d="M19.903 143.511l9.125 1.731-1.613 8.502-9.125-1.73z"/><linearGradient id="k" gradientUnits="userSpaceOnUse" x1="-648.4434" y1="774.6172" x2="-687.9651" y2="826.5283" gradientTransform="rotate(10.735 3257.20462 4276.93837)"><stop offset="0" style="stop-color:#202124"/><stop offset="1" style="stop-color:#202124;stop-opacity:0"/></linearGradient><path fill="url(#k)" d="M32.379 138.895l-3.351 6.347-1.613 8.502 2.5-1.853z"/><linearGradient id="l" gradientUnits="userSpaceOnUse" x1="-676.3523" y1="815.3608" x2="-682.3405" y2="828.2869" gradientTransform="rotate(10.735 3257.20462 4276.93837)"><stop offset="0" style="stop-color:#202124"/><stop offset="1" style="stop-color:#202124;stop-opacity:0"/></linearGradient><path fill="url(#l)" d="M29.953 151.862l-.038.029-2.5 1.853 2.074.393 2.074.394z"/><linearGradient id="m" gradientUnits="userSpaceOnUse" x1="28.7172" y1="1074.87" x2="31.9269" y2="1070.6727" gradientTransform="translate(0 -931.6149)"><stop offset="0" style="stop-color:#202124"/><stop offset="1" style="stop-color:#202124;stop-opacity:0"/></linearGradient><path fill="url(#m)" d="M32.071 139.002l-.657 1.241-.145-.027c-.17-.032-.26-.22-.179-.372l.342-.646c.09-.171.282-.264.473-.228l.166.032z"/><linearGradient id="n" gradientUnits="userSpaceOnUse" x1="-693.7635" y1="820.0015" x2="-688.147" y2="817.4455" gradientTransform="rotate(10.735 3257.20462 4276.93837)"><stop offset="0" style="stop-color:#202124"/><stop offset="1" style="stop-color:#202124;stop-opacity:0"/></linearGradient><path fill="url(#n)" d="M22.714 143.548l1.964-.318-.162-.132z"/><linearGradient id="o" gradientUnits="userSpaceOnUse" x1="-695.986" y1="819.6144" x2="-682.6555" y2="813.5479" gradientTransform="rotate(10.735 3257.20462 4276.93837)"><stop offset="0" style="stop-color:#202124"/><stop offset="1" style="stop-color:#202124;stop-opacity:0"/></linearGradient><path fill="url(#o)" d="M25.774 144.129l3.418-5.84-.283-.052z"/><linearGradient id="p" gradientUnits="userSpaceOnUse" x1="-689.4048" y1="802.3622" x2="-687.0233" y2="815.3285" gradientTransform="rotate(10.735 3257.20462 4276.93837)"><stop offset="0" style="stop-color:#202124"/><stop offset="1" style="stop-color:#202124;stop-opacity:0"/></linearGradient><path fill="url(#p)" d="M22.411 138.763l-.133.25 8.593 2.735.663-1.255z"/><path fill="#3C4043" d="M33.174 150.814v-4.587l11.668 5.676c1.198.508 1.84 1.843 1.436 3.108l-2.33 7.301c-.174.546-.558 1.018-1.085 1.242-1.263.538-2.417-.443-2.299-1.603l.595-5.864c.039-.385-.193-.746-.56-.872l-1.815-.619-1.825.003c-2.089.001-3.785-1.694-3.785-3.785z"/><path fill="#5BB974" d="M41.635 150.342l-1.698-7.955c-.287-1.346-1.477-2.308-2.854-2.308-2.159 0-3.909 1.75-3.909 3.909v7.17"/><linearGradient id="q" gradientUnits="userSpaceOnUse" x1="37.6282" y1="1060.4878" x2="37.6282" y2="1083.1119" gradientTransform="translate(0 -931.6149)"><stop offset="0" style="stop-color:#202124"/><stop offset="1" style="stop-color:#202124;stop-opacity:0"/></linearGradient><path fill="url(#q)" d="M37.027 144.307l-3.405 6.85 8.013-.815-.307-1.435z"/><circle fill="#9AA0A6" cx="30.055" cy="166.709" r="5.175"/><linearGradient id="r" gradientUnits="userSpaceOnUse" x1="30.0551" y1="1089.4651" x2="30.0551" y2="1102.2284" gradientTransform="translate(0 -931.6149)"><stop offset="0" style="stop-color:#202124"/><stop offset="1" style="stop-color:#202124;stop-opacity:0"/></linearGradient><circle fill="url(#r)" cx="30.055" cy="166.709" r="5.175"/><circle fill="#9AA0A6" cx="54.677" cy="166.709" r="5.175"/><linearGradient id="s" gradientUnits="userSpaceOnUse" x1="54.677" y1="1086.708" x2="54.677" y2="1102.8806" gradientTransform="translate(0 -931.6149)"><stop offset="0" style="stop-color:#202124"/><stop offset="1" style="stop-color:#202124;stop-opacity:0"/></linearGradient><circle fill="url(#s)" cx="54.677" cy="166.709" r="5.175"/><path fill="#5F6368" d="M45.126 147.845c-.665 0-1.205.54-1.205 1.205s.54 1.205 1.205 1.205h2.228c.665 0 1.205.54 1.205 1.205v11.486c0 .665-.54 1.205-1.205 1.205h-7.098c-.665 0-1.205-.54-1.205-1.205v-7.162c0-.665-.54-1.205-1.205-1.205h-9.564c-.395 0-.764.193-.989.517l-6.759 9.721c-.556.799.016 1.893.989 1.893H59.867c.761 0 1.349-.703 1.182-1.445-.658-2.912-3.261-5.088-6.372-5.088-.145 0-.288.005-.431.014-.588.04-1.115-.363-1.244-.938l-1.827-9.775c-.169-.945-.991-1.633-1.951-1.633h-4.098z"/><linearGradient id="t" gradientUnits="userSpaceOnUse" x1="40.6968" y1="1036.957" x2="40.6968" y2="1099.2614" gradientTransform="translate(0 -931.6149)"><stop offset="0" style="stop-color:#202124"/><stop offset="1" style="stop-color:#202124;stop-opacity:0"/></linearGradient><path fill="url(#t)" d="M45.126 147.845c-.665 0-1.205.54-1.205 1.205s.54 1.205 1.205 1.205h2.228c.665 0 1.205.54 1.205 1.205v11.486c0 .665-.54 1.205-1.205 1.205h-7.098c-.665 0-1.205-.54-1.205-1.205v-7.162c0-.665-.54-1.205-1.205-1.205h-9.564c-.395 0-.764.193-.989.517l-6.759 9.721c-.556.799.016 1.893.989 1.893H59.867c.761 0 1.349-.703 1.182-1.445-.658-2.912-3.261-5.088-6.372-5.088-.145 0-.288.005-.431.014-.588.04-1.115-.363-1.244-.938l-1.827-9.775c-.169-.945-.991-1.633-1.951-1.633h-4.098z"/><path fill="#FCC934" d="M52.577 150.801c0 1.161.751 2.146 1.793 2.497.414.139.841-.174.841-.611v-3.774c0-.436-.428-.75-.841-.611-1.042.353-1.793 1.338-1.793 2.499z"/><ellipse fill="#5F6368" cx="37.846" cy="136.214" rx="3.034" ry="3.153"/><path fill="#5F6368" d="M39.769 141.852l1.175 2.742c.109.255.297.47.536.612l4.385 2.613c.499.297.744.886.603 1.45-.19.762-1.003 1.189-1.738.913l-4.834-1.813c-.895-.335-1.615-1.021-1.993-1.899l-1.561-3.619"/><path fill="#EE675C" d="M42.581 135.473h-3.288c-.193 0-.351-.158-.351-.351 0-.193.158-.351.351-.351h3.288c.193 0 .351.158.351.351 0 .192-.158.351-.351.351z"/><path fill="#EE675C" d="M37.782 137.374c-.671-.048-.996-.383-1.115-.774-.001-.004-.003-.008-.004-.012-.163-.562.323-1.112.909-1.109l2.769.01-.027-.061.743-.046c-.177-1.801-1.675-3.208-3.498-3.208-1.931 0-3.503 1.655-3.514 3.566-.011 1.931 1.574 3.576 3.566 3.627.019 0 .039-.001.06-.005"/><circle fill="#EE675C" cx="37.722" cy="138.367" r=".995"/><path fill="#5BB974" d="M40.755 144.155s-2.128-.6-3.306 1.264l-.677-1.445-1.196-1.937 4.138-.302 1.041 2.42z"/><path fill="#5F6368" d="M23.553 166.709c0-3.649 2.959-6.608 6.608-6.608s6.608 2.959 6.608 6.608"/><path fill="#DADCE0" d="M35.584 155.907c-.14 0-.363-.027-.736-.072-2.877-.346-4.487-.436-4.788-.268l-.176.099-.171-.113-10.795-7.559c-.146-.102-.181-.302-.079-.448.103-.145.303-.18.448-.079l10.657 7.462c.583-.158 1.906-.094 4.53.213l-14.766-11.377c-.141-.108-.167-.31-.059-.451.109-.141.311-.167.451-.059l15.87 12.227-.095.229c-.059.14-.089.196-.291.196z"/><path fill="#5F6368" d="M26.24 156.608h13.179c.574 0 1.038-.465 1.038-1.038 0-.574-.465-1.038-1.038-1.038H27.685l-1.445 2.076z"/><linearGradient id="u" gradientUnits="userSpaceOnUse" x1="40.8528" y1="1070.7192" x2="28.2449" y2="1085.3652" gradientTransform="translate(0 -931.6149)"><stop offset="0" style="stop-color:#202124"/><stop offset="1" style="stop-color:#202124;stop-opacity:0"/></linearGradient><path fill="url(#u)" d="M33.174 146.059l-.26-2.367-5.499 10.052 4.148.787z"/><radialGradient id="v" cx="86.8755" cy="115.8896" r="285.7686" gradientTransform="matrix(1 0 0 .9508 0 45.2029)" gradientUnits="userSpaceOnUse"><stop offset="0" style="stop-color:#5F6368"/><stop offset="1" style="stop-color:#DADCE0"/></radialGradient><path fill="url(#v)" d="M143.189 61.293v96.576H81.179V61.293h62.01z"/><path fill="#202124" d="M124.207 157.529h-.583v-15.697c0-5.679-4.619-10.298-10.298-10.298h-.241c-5.679 0-10.298 4.619-10.298 10.298v15.697h-.583v-15.697c0-6 4.881-10.881 10.881-10.881h.241c6 0 10.881 4.881 10.881 10.881v15.697zM107.549 89.767h-21.42c-.161 0-.292-.131-.292-.292v-6.088c0-6 4.881-10.881 10.881-10.881h.241c6 0 10.88 4.881 10.88 10.881v6.088c.001.161-.129.292-.29.292zm-21.128-.583h20.836v-5.796c0-5.678-4.619-10.298-10.297-10.298h-.241c-5.679 0-10.298 4.62-10.298 10.298v5.796zM138.765 89.767h-21.42c-.161 0-.292-.131-.292-.292v-6.088c0-6 4.881-10.881 10.881-10.881h.241c6 0 10.881 4.881 10.881 10.881v6.088c.001.161-.13.292-.291.292zm-21.128-.583h20.836v-5.796c0-5.678-4.619-10.298-10.298-10.298h-.241c-5.679 0-10.298 4.62-10.298 10.298v5.796zM107.58 123.468H86.16c-.161 0-.292-.131-.292-.292v-6.088c0-6 4.881-10.881 10.881-10.881h.241c6 0 10.88 4.881 10.88 10.881v6.088c.002.161-.129.292-.29.292zm-21.128-.584h20.836v-5.796c0-5.679-4.619-10.298-10.297-10.298h-.241c-5.679 0-10.298 4.619-10.298 10.298v5.796zM138.796 123.468h-21.42c-.161 0-.292-.131-.292-.292v-6.088c0-6 4.881-10.881 10.881-10.881h.241c6 0 10.881 4.881 10.881 10.881v6.088c.001.161-.13.292-.291.292zm-21.128-.584h20.836v-5.796c0-5.679-4.619-10.298-10.298-10.298h-.241c-5.679 0-10.298 4.619-10.298 10.298v5.796zM81.161 95.801h62.01v.584h-62.01zM81.161 100.324h62.01v.584h-62.01zM81.161 65.828h62.01v.583h-62.01z"/><ellipse fill="#5BB974" cx="143.22" cy="140.061" rx="7.576" ry="13.503"/><path fill="#5F6368" d="M143.22 157.818c-.215 0-.389-.174-.389-.389v-6.907c0-.215.174-.389.389-.389.215 0 .389.174.389.389v6.907c0 .216-.174.389-.389.389z"/><path fill="#3C4043" d="M180.678 172.841h11.074v9.513h-11.074z"/><path fill="#3C4043" d="M180.112 170.86h12.205v3.601h-12.205z"/><path fill="#3C4043" d="M184.94 182.448l-4.897-10.596.077 3.049.582.038-.024 7.415z"/><path fill="#3C4043" d="M180.306 178.625v-4.589l-11.674 5.679c-1.198.508-1.841 1.844-1.437 3.109l2.331 7.304c.174.546.559 1.019 1.086 1.243 1.264.538 2.418-.443 2.3-1.603l-.595-5.867c-.04-.385.193-.747.56-.873l1.816-.619 1.826.003c2.09.001 3.787-1.695 3.787-3.787z"/><path fill="#3C4043" d="M171.842 178.154l1.699-7.959c.287-1.347 1.477-2.309 2.855-2.309 2.16 0 3.91 1.751 3.91 3.91V178.97"/><path fill="#3C4043" d="M176.452 172.115l3.406 6.854-8.016-.815.306-1.437z"/><circle fill="#3C4043" cx="183.427" cy="194.529" r="5.177"/><circle fill="#3C4043" cx="183.427" cy="194.529" r="5.177"/><circle fill="#3C4043" cx="158.794" cy="194.529" r="5.177"/><circle fill="#3C4043" cx="158.794" cy="194.529" r="5.177"/><path fill="#3C4043" d="M168.349 175.655c.666 0 1.205.54 1.205 1.205 0 .666-.54 1.205-1.205 1.205h-2.229c-.666 0-1.205.54-1.205 1.205v11.491c0 .666.54 1.205 1.205 1.205h7.102c.666 0 1.205-.54 1.205-1.205v-7.166c0-.666.54-1.205 1.205-1.205h9.569c.395 0 .764.193.99.517l6.762 9.725c.556.8-.016 1.894-.99 1.894H153.6c-.761 0-1.35-.703-1.183-1.445.658-2.914 3.263-5.09 6.375-5.09.145 0 .288.005.431.014.589.04 1.115-.364 1.244-.938l1.828-9.779c.169-.946.991-1.634 1.952-1.634h4.102v.001z"/><path fill="#3C4043" d="M168.349 175.655c.666 0 1.205.54 1.205 1.205 0 .666-.54 1.205-1.205 1.205h-2.229c-.666 0-1.205.54-1.205 1.205v11.491c0 .666.54 1.205 1.205 1.205h7.102c.666 0 1.205-.54 1.205-1.205v-7.166c0-.666.54-1.205 1.205-1.205h9.569c.395 0 .764.193.99.517l6.762 9.725c.556.8-.016 1.894-.99 1.894H153.6c-.761 0-1.35-.703-1.183-1.445.658-2.914 3.263-5.09 6.375-5.09.145 0 .288.005.431.014.589.04 1.115-.364 1.244-.938l1.828-9.779c.169-.946.991-1.634 1.952-1.634h4.102v.001z"/><path fill="#3C4043" d="M160.894 178.613c0 1.161-.751 2.147-1.794 2.499-.414.139-.841-.174-.841-.611v-3.776c0-.436.428-.75.841-.611 1.043.352 1.794 1.337 1.794 2.499z"/><ellipse fill="#3C4043" cx="175.632" cy="164.019" rx="3.036" ry="3.155"/><path fill="#3C4043" d="M173.709 169.659l-1.176 2.744c-.109.255-.297.47-.536.612l-4.387 2.614c-.499.297-.744.887-.603 1.451.19.763 1.003 1.189 1.739.913l4.837-1.814c.895-.336 1.615-1.021 1.994-1.9l1.562-3.621M170.895 163.276h3.29c.193 0 .351-.158.351-.351 0-.193-.158-.351-.351-.351h-3.29c-.193 0-.351.158-.351.351 0 .193.158.351.351.351z"/><circle fill="#3C4043" cx="175.757" cy="166.173" r=".996"/><path fill="#3C4043" d="M172.721 171.963s2.129-.6 3.308 1.265l.677-1.445 1.197-1.937-4.14-.302-1.042 2.419zM189.932 194.529c0-3.651-2.96-6.611-6.611-6.611s-6.611 2.96-6.611 6.611M187.245 184.422H174.06c-.574 0-1.039-.465-1.039-1.039 0-.574.465-1.039 1.039-1.039h11.739l1.446 2.078z"/><path fill="#FCC934" d="M180.678 172.841h11.074v9.513h-11.074z"/><path fill="#FCC934" d="M180.112 170.86h12.205v3.601h-12.205z"/><path fill="#202124" d="M180.113 174.294h12.204v.335h-12.204z"/><linearGradient id="w" gradientUnits="userSpaceOnUse" x1="-251.4237" y1="1093.0413" x2="-263.7278" y2="1113.248" gradientTransform="matrix(-1 0 0 1 -80.6092 -931.6149)"><stop offset="0" style="stop-color:#202124"/><stop offset="1" style="stop-color:#202124;stop-opacity:0"/></linearGradient><path fill="url(#w)" d="M184.94 182.448l-4.897-10.596.077 3.049.582.038-.024 7.415z"/><path fill="#3C4043" d="M180.306 178.625v-4.589l-11.674 5.679c-1.198.508-1.841 1.844-1.437 3.109l2.331 7.304c.174.546.559 1.019 1.086 1.243 1.264.538 2.418-.443 2.3-1.603l-.595-5.867c-.04-.385.193-.747.56-.873l1.816-.619 1.826.003c2.09.001 3.787-1.695 3.787-3.787z"/><path fill="#5BB974" d="M171.842 178.154l1.699-7.959c.287-1.347 1.477-2.309 2.855-2.309 2.16 0 3.91 1.751 3.91 3.91V178.97"/><linearGradient id="x" gradientUnits="userSpaceOnUse" x1="-256.4595" y1="1088.2892" x2="-256.4595" y2="1110.9242" gradientTransform="matrix(-1 0 0 1 -80.6092 -931.6149)"><stop offset="0" style="stop-color:#202124"/><stop offset="1" style="stop-color:#202124;stop-opacity:0"/></linearGradient><path fill="url(#x)" d="M176.452 172.115l3.406 6.854-8.016-.815.306-1.437z"/><circle fill="#9AA0A6" cx="183.427" cy="194.529" r="5.177"/><linearGradient id="y" gradientUnits="userSpaceOnUse" x1="-264.0366" y1="1117.2803" x2="-264.0366" y2="1130.0497" gradientTransform="matrix(-1 0 0 1 -80.6092 -931.6149)"><stop offset="0" style="stop-color:#202124"/><stop offset="1" style="stop-color:#202124;stop-opacity:0"/></linearGradient><circle fill="url(#y)" cx="183.427" cy="194.529" r="5.177"/><circle fill="#9AA0A6" cx="158.794" cy="194.529" r="5.177"/><linearGradient id="z" gradientUnits="userSpaceOnUse" x1="-239.4028" y1="1114.522" x2="-239.4028" y2="1130.7024" gradientTransform="matrix(-1 0 0 1 -80.6092 -931.6149)"><stop offset="0" style="stop-color:#202124"/><stop offset="1" style="stop-color:#202124;stop-opacity:0"/></linearGradient><circle fill="url(#z)" cx="158.794" cy="194.529" r="5.177"/><path fill="#5F6368" d="M168.349 175.655c.666 0 1.205.54 1.205 1.205 0 .666-.54 1.205-1.205 1.205h-2.229c-.666 0-1.205.54-1.205 1.205v11.491c0 .666.54 1.205 1.205 1.205h7.102c.666 0 1.205-.54 1.205-1.205v-7.166c0-.666.54-1.205 1.205-1.205h9.569c.395 0 .764.193.99.517l6.762 9.725c.556.8-.016 1.894-.99 1.894H153.6c-.761 0-1.35-.703-1.183-1.445.658-2.914 3.263-5.09 6.375-5.09.145 0 .288.005.431.014.589.04 1.115-.364 1.244-.938l1.828-9.779c.169-.946.991-1.634 1.952-1.634h4.102v.001z"/><linearGradient id="A" gradientUnits="userSpaceOnUse" x1="-253.3901" y1="1064.7471" x2="-253.3901" y2="1127.0812" gradientTransform="matrix(-1 0 0 1 -80.6092 -931.6149)"><stop offset="0" style="stop-color:#202124"/><stop offset="1" style="stop-color:#202124;stop-opacity:0"/></linearGradient><path fill="url(#A)" d="M168.349 175.655c.666 0 1.205.54 1.205 1.205 0 .666-.54 1.205-1.205 1.205h-2.229c-.666 0-1.205.54-1.205 1.205v11.491c0 .666.54 1.205 1.205 1.205h7.102c.666 0 1.205-.54 1.205-1.205v-7.166c0-.666.54-1.205 1.205-1.205h9.569c.395 0 .764.193.99.517l6.762 9.725c.556.8-.016 1.894-.99 1.894H153.6c-.761 0-1.35-.703-1.183-1.445.658-2.914 3.263-5.09 6.375-5.09.145 0 .288.005.431.014.589.04 1.115-.364 1.244-.938l1.828-9.779c.169-.946.991-1.634 1.952-1.634h4.102v.001z"/><path fill="#FCC934" d="M160.894 178.613c0 1.161-.751 2.147-1.794 2.499-.414.139-.841-.174-.841-.611v-3.776c0-.436.428-.75.841-.611 1.043.352 1.794 1.337 1.794 2.499z"/><ellipse fill="#5F6368" cx="175.632" cy="164.019" rx="3.036" ry="3.155"/><path fill="#5F6368" d="M173.709 169.659l-1.176 2.744c-.109.255-.297.47-.536.612l-4.387 2.614c-.499.297-.744.887-.603 1.451.19.763 1.003 1.189 1.739.913l4.837-1.814c.895-.336 1.615-1.021 1.994-1.9l1.562-3.621"/><path fill="#EE675C" d="M170.895 163.276h3.29c.193 0 .351-.158.351-.351 0-.193-.158-.351-.351-.351h-3.29c-.193 0-.351.158-.351.351 0 .193.158.351.351.351z"/><circle fill="#EE675C" cx="175.757" cy="166.173" r=".996"/><path fill="#5BB974" d="M172.721 171.963s2.129-.6 3.308 1.265l.677-1.445 1.197-1.937-4.14-.302-1.042 2.419z"/><path fill="#5F6368" d="M189.932 194.529c0-3.651-2.96-6.611-6.611-6.611s-6.611 2.96-6.611 6.611"/><linearGradient id="B" gradientUnits="userSpaceOnUse" x1="168.9318" y1="69.8141" x2="168.9318" y2="8.6074" gradientTransform="matrix(1 0 0 -1 0 220)"><stop offset="0" style="stop-color:#202124"/><stop offset="1" style="stop-color:#202124;stop-opacity:0"/></linearGradient><path fill="url(#B)" d="M188.849 204.522l-11.195 6.732c-.374.224-.831.358-1.226.358h-9.57c-.666 0-.96-.374-.656-.834l3.266-4.96c.303-.461.01-.834-.656-.834h-7.102c-.666 0-1.451.374-1.755.834l-5.238 7.954c-.303.461-.01.834.656.834h2.229c.666 0 .96.374.656.834s-1.089.834-1.755.834v.001h-4.101c-.96 0-1.469-.476-1.207-1.131l2.63-6.769c.133-.398-.21-.677-.816-.65-.147.006-.293.01-.437.01-3.112 0-4.725-1.506-4.055-3.523.171-.514 1.08-1.001 1.841-1.001h.015v-.001c1.303-1.979 4.678-3.584 7.537-3.584 2.86 0 4.121 1.605 2.817 3.584l-.001.001H173.465v-.001h1.541c1.303-1.979 4.678-3.584 7.537-3.584s4.121 1.605 2.817 3.584h1.327l-.001.001h2.033c.977-.001 1.05.757.13 1.311z"/><path fill="#5F6368" d="M187.245 184.422H174.06c-.574 0-1.039-.465-1.039-1.039 0-.574.465-1.039 1.039-1.039h11.739l1.446 2.078z"/><path fill="#EE675C" d="M175.717 165.193c.677-.048 1.005-.386 1.125-.781.001-.004.003-.008.004-.012.165-.567-.326-1.122-.917-1.119l-2.794.01.028-.061-.75-.046c.179-1.818 1.69-3.237 3.529-3.237 1.948 0 3.535 1.67 3.546 3.598.011 1.949-1.589 3.608-3.599 3.659-.019 0-.039-.001-.061-.005"/><path fill="#5BB974" d="M62.871 137.426v-1.111c0-4.787 3.877-8.664 8.664-8.664 3.808 0 7.04 2.455 8.206 5.875.155-.008.311-.016.466-.016 4.445 0 8.058 3.606 8.058 8.058 0 4.305-3.372 7.817-7.623 8.042v.016h-6.418c-.186 0-.373-.008-.559-.016-1.593 1.507-3.831 2.455-6.325 2.455-4.818 0-8.726-3.528-8.726-7.872.006-2.882 1.716-5.392 4.257-6.767z"/><path fill="#5F6368" d="M75.132 156.915c-.183 0-.346-.13-.381-.316l-3.543-18.711c-.04-.211.099-.414.309-.454.213-.038.415.099.454.31l3.543 18.711c.04.211-.099.414-.309.454-.025.003-.049.006-.073.006z"/><path fill="#5F6368" d="M73.058 145.989c-.164 0-.316-.104-.37-.268-.066-.204.045-.423.249-.49l8.889-2.898c.205-.065.423.045.49.249.066.204-.045.423-.249.49l-8.889 2.898c-.04.013-.08.019-.12.019zM72.433 143.11c-.02 0-.04-.002-.06-.005l-4.395-.686c-.212-.033-.357-.232-.324-.444s.229-.357.444-.324l4.395.686c.212.033.357.232.324.444-.03.192-.195.329-.384.329z"/><path fill="#5BB974" d="M68.271 157.785c0-1.842 1.655-3.085 3.497-3.085.956 0 1.818.404 2.432 1.057.606-.645 1.469-1.057 2.432-1.057.956 0 1.818.404 2.432 1.057.606-.645 1.469-1.057 2.432-1.057.078 0 .148.008.218.008v-.008c0-3.606 2.922-6.527 6.527-6.527 3.349 0 6.1 2.518 6.481 5.766.14-.016.28-.023.427-.023 2.137 0 3.87 1.733 3.87 3.87H68.271z"/><path fill="#202124" d="M79.857 155.143l3.116 2.634h.901l-3.427-2.898c-.209.069-.403.163-.59.264zM77.619 157.785h.8c-1.103-1.096-1.539-2.3-1.71-3.077-.023 0-.047-.008-.078-.008-.179 0-.35.031-.521.054.157.762.546 1.912 1.509 3.031zM85.895 148.615c-.194.078-.389.163-.567.249.901.94 3.1 3.745 3.077 8.656l-5.587-6.45c-.117.171-.218.342-.319.528l5.354 6.185h1.111c.101-5.072-2.005-8.017-3.069-9.168zM72.033 154.693l-1.57 3.063h.655l1.521-2.968c-.195-.051-.397-.08-.606-.095z"/></svg>