<svg width="232" height="132" fill="none" xmlns="http://www.w3.org/2000/svg"><g clip-path="url(#clip0)"><path d="M219.42 132H12.58C5.63 132 0 126.37 0 119.42V12.58C0 5.63 5.63 0 12.58 0h206.84C226.37 0 232 5.63 232 12.58v106.84c0 6.95-5.63 12.58-12.58 12.58z" fill="#F0F6FF"/><path d="M67.6601 63.1799c17.71 0 32.06 14.37 32.06 32.06 0 7.6401-2.67 14.6501-7.15 20.1601l-.08.08c-.1.13-.21.23-.31.36l-.03.03c-.03.03-.03.03-.03.05-5.89 6.97-14.68 11.42-24.5 11.42-17.71 0-32.06-14.37-32.06-32.0601 0-7.46 2.54-14.29 6.81-19.72l.05-.05c.21-.26.39-.51.59-.77.1-.13.26-.26.36-.41l.31-.36c5.91-6.63 14.47-10.79 23.98-10.79zM178.73 29.9501c-4.89-9.34-13.32-16.51-23.52-19.73h-.01c-3.82-1.20999-7.88-1.85999-12.1-1.85999-12.36 0-23.42 5.58999-30.8 14.36999-5.87 6.99-9.41 16.01-9.41 25.85 0 7.57 1.53 13.71 4.04 19.21 4.21 9.22 11.18 16.62 18.35 25.91 2.33 3.02 4.68 6.22 6.96 9.7499 8.15 12.64 5.71 20.18 10.87 20.18 5.28 0 2.93-7.55 11.08-20.18 13.5-20.9099 29.14-30.4499 29.14-54.8599-.02-6.74-1.68-13.08-4.6-18.64zM198.17 90.2801l-.6.71c-.2.3-.5.55-.71.81-.4.5-.76 1.01-1.16 1.51l-.1.1c-8.35 10.6199-13.34 24.0099-13.35 38.5999h37.16c6.95 0 12.58-5.63 12.58-12.58V70.5601c-13.3 2.84-25.07 9.9-33.82 19.72zM0 12.58v45.29l35.82.01c0-8.99 3.07-17.24 8.22-23.79l.06-.06c.25-.31.47-.62.71-.93.12-.15.31-.31.43-.5l.37-.43c7.1-7.97 17.43-12.99 28.9-12.99L74.52 0H12.58C5.63 0 0 5.63 0 12.58z" fill="#F8FBFF"/></g><defs><clipPath id="clip0"><path fill="#fff" d="M0 0h232v132H0z"/></clipPath></defs></svg>