<svg xmlns="http://www.w3.org/2000/svg" width="360" height="200"><path fill="#DADCE0" d="M0,0h360v200H0V0z"/><linearGradient id="a" gradientUnits="userSpaceOnUse" x1="239.897" y1="176.775" x2="289.903" y2="176.775"><stop offset="0" style="stop-color:#6E767F"/><stop offset="1" style="stop-color:#BABFC5"/></linearGradient><path fill="url(#a)" d="M278.4,162.39c-0.7,1.32-1.6,2.5-2.64,3.49c0.11,0.2,0.19,0.42,0.19,0.64c0,0.35-0.13,0.7-0.4,0.97	c-0.13,0.13-0.29,0.23-0.45,0.3l-0.29,0.06l-0.22,0.04c-0.15,0-0.29-0.04-0.43-0.08l-0.09-0.02c-0.17-0.07-0.32-0.17-0.45-0.3	c-0.54-0.54-0.54-1.4,0-1.93c0.13-0.13,0.29-0.23,0.45-0.3l0.31-0.06l0.2-0.04c0.15,0,0.3,0.04,0.45,0.09h0.01	c0.83-0.78,1.56-1.72,2.17-2.75l-6.08,0.51l-0.77,12.4l16.18,16.18l13.4-13.4l-16.23-16.23L278.4,162.39L278.4,162.39z"/><path fill="#DADCE0" d="M26.29,26.21c-2.42,0-4.83,0.92-6.67,2.76c-1.78,1.78-2.76,4.15-2.76,6.67s0.98,4.89,2.76,6.67	c0.15,0.15,0.32,0.29,0.48,0.43l13.3-13.3l-0.43-0.48C31.19,27.2,28.79,26.21,26.29,26.21z"/><path fill="#7F8791" d="M19.62,42.31c-1.78-1.78-2.76-4.15-2.76-6.67s0.98-4.89,2.76-6.67c1.77-1.77,4.17-2.76,6.67-2.76	c2.42,0,4.83,0.92,6.67,2.76c0.15,0.15,0.29,0.32,0.43,0.48l1.41-1.41l-0.43-0.48c-2.23-2.23-5.16-3.34-8.09-3.34	s-5.86,1.11-8.08,3.34c-2.16,2.16-3.35,5.03-3.35,8.08s1.19,5.92,3.35,8.08c0.15,0.15,0.32,0.29,0.48,0.43l1.41-1.41	C19.93,42.6,19.77,42.47,19.62,42.31z"/><path fill="#FFF" d="M53.97,33.82c1.34-1.34,1.34-3.52,0-4.86l-3.68-3.68c-0.39-0.39-0.6-0.91-0.6-1.46s0.21-1.07,0.61-1.46	l0.1-0.1c0.8-0.8,2.11-0.8,2.91,0l12.78,12.78c1.27,1.27,3.48,1.3,4.78,0.07l0.07-0.07c1.27-1.35,1.24-3.47-0.07-4.78L55.43,14.83	c-0.8-0.8-0.8-2.11,0-2.91s2.11-0.8,2.91,0l3.93,3.93c0.27,0.27,0.71,0.27,0.97,0c0.27-0.27,0.27-0.7,0-0.97l-3.93-3.93	c-1.34-1.34-3.52-1.34-4.86,0s-1.34,3.52,0,4.86l15.44,15.44c0.79,0.79,0.8,2.07,0.04,2.87c-0.78,0.74-2.11,0.73-2.87-0.04	L54.27,21.3c-1.34-1.34-3.52-1.34-4.86,0l-0.1,0.1c-0.65,0.65-1.01,1.51-1.01,2.43s0.36,1.78,1.01,2.43L53,29.94	c0.8,0.8,0.8,2.11,0,2.91l-2.23,2.23l0.97,0.97C51.74,36.05,53.97,33.82,53.97,33.82z"/><path fill="#959CA5" d="M34.03,74.03l27.84-27.84L51.74,36.06l-0.98-0.97l-11.5-11.51l-4.46,4.45l-1.41,1.42l-13.3,13.29l-1.41,1.42	l-7.26,7.26C11.42,51.42,34.03,74.03,34.03,74.03z"/><path fill="#FFF" d="M233.83,31.5l-16.07,0.01l-11.15,12.48l6.45,6.45l25.74-20.65c-1.5,0.92-3.19,1.48-4.94,1.64L233.83,31.5	L233.83,31.5z"/><linearGradient id="b" gradientUnits="userSpaceOnUse" x1="-3115.058" y1="2270.583" x2="-3114.058" y2="2270.583" gradientTransform="matrix(-24.9623 24.9623 -24.9623 -24.9623 -20845.4062 134462.2812)"><stop offset="0" style="stop-color:#DCDFE2"/><stop offset="1" style="stop-color:#FFFFFF"/></linearGradient><path fill="url(#b)" d="M233.83,31.5l-16.07,0.01l-11.15,12.48l6.45,6.45l25.74-20.65c-1.5,0.92-3.19,1.48-4.94,1.64	L233.83,31.5L233.83,31.5z"/><path fill="#FFF" d="M175.53,12.86c0.19-0.23,0.39-0.44,0.59-0.65C175.91,12.42,175.71,12.63,175.53,12.86z M182.14,9.79	c0.26,0,0.52,0.02,0.78,0.05C182.66,9.81,182.4,9.8,182.14,9.79z M180.32,9.96c0.21-0.04,0.41-0.08,0.62-0.1L180.32,9.96z M183.17,9.87c0.31,0.04,0.61,0.1,0.92,0.18C183.79,9.97,183.48,9.92,183.17,9.87z M179.48,10.18l0.56-0.16L179.48,10.18z M177.71,10.98c0.24-0.14,0.49-0.28,0.74-0.4C178.2,10.7,177.95,10.83,177.71,10.98z M177,11.46l0.51-0.35	C177.34,11.22,177.17,11.33,177,11.46z"/><linearGradient id="c" gradientUnits="userSpaceOnUse" x1="-3204.686" y1="2383.374" x2="-3203.686" y2="2383.374" gradientTransform="matrix(11.4179 -10.2159 10.2159 11.4179 12412.3076 -59930.2109)"><stop offset="0" style="stop-color:#DCDFE2"/><stop offset="1" style="stop-color:#FFFFFF"/></linearGradient><path fill="url(#c)" d="M182.92,9.84l0.25,0.03L182.92,9.84z"/><linearGradient id="d" gradientUnits="userSpaceOnUse" x1="-3204.686" y1="2383.189" x2="-3203.686" y2="2383.189" gradientTransform="matrix(11.4179 -10.2159 10.2159 11.4179 12412.3076 -59930.2109)"><stop offset="0" style="stop-color:#DCDFE2"/><stop offset="1" style="stop-color:#FFFFFF"/></linearGradient><path fill="url(#d)" d="M176.77,11.64l0.23-0.18L176.77,11.64z"/><linearGradient id="e" gradientUnits="userSpaceOnUse" x1="-3204.686" y1="2383.196" x2="-3203.686" y2="2383.196" gradientTransform="matrix(11.4179 -10.2159 10.2159 11.4179 12412.3076 -59930.2109)"><stop offset="0" style="stop-color:#DCDFE2"/><stop offset="1" style="stop-color:#FFFFFF"/></linearGradient><path fill="url(#e)" d="M177.51,11.11l0.2-0.13L177.51,11.11z"/><linearGradient id="f" gradientUnits="userSpaceOnUse" x1="-3204.686" y1="2383.232" x2="-3203.686" y2="2383.232" gradientTransform="matrix(11.4179 -10.2159 10.2159 11.4179 12412.3076 -59930.2109)"><stop offset="0" style="stop-color:#DCDFE2"/><stop offset="1" style="stop-color:#FFFFFF"/></linearGradient><path fill="url(#f)" d="M179.23,10.27l0.26-0.08L179.23,10.27z"/><linearGradient id="g" gradientUnits="userSpaceOnUse" x1="-3204.686" y1="2383.257" x2="-3203.686" y2="2383.257" gradientTransform="matrix(11.4179 -10.2159 10.2159 11.4179 12412.3076 -59930.2109)"><stop offset="0" style="stop-color:#DCDFE2"/><stop offset="1" style="stop-color:#FFFFFF"/></linearGradient><path fill="url(#g)" d="M180.04,10.03l0.28-0.06L180.04,10.03z"/><linearGradient id="h" gradientUnits="userSpaceOnUse" x1="-3204.686" y1="2383.287" x2="-3203.686" y2="2383.287" gradientTransform="matrix(11.4179 -10.2159 10.2159 11.4179 12412.3076 -59930.2109)"><stop offset="0" style="stop-color:#DCDFE2"/><stop offset="1" style="stop-color:#FFFFFF"/></linearGradient><path fill="url(#h)" d="M180.94,9.86l0.2-0.03L180.94,9.86z"/><linearGradient id="i" gradientUnits="userSpaceOnUse" x1="-3204.686" y1="2383.211" x2="-3203.686" y2="2383.211" gradientTransform="matrix(11.4179 -10.2159 10.2159 11.4179 12412.3076 -59930.2109)"><stop offset="0" style="stop-color:#DCDFE2"/><stop offset="1" style="stop-color:#FFFFFF"/></linearGradient><path fill="url(#i)" d="M178.45,10.58l0.12-0.05L178.45,10.58z"/><linearGradient id="j" gradientUnits="userSpaceOnUse" x1="-3204.686" y1="2383.328" x2="-3203.686" y2="2383.328" gradientTransform="matrix(11.4179 -10.2159 10.2159 11.4179 12412.3076 -59930.2109)"><stop offset="0" style="stop-color:#DCDFE2"/><stop offset="1" style="stop-color:#FFFFFF"/></linearGradient><path fill="url(#j)" d="M182.01,9.78h-0.05l0.19,0.01L182.01,9.78z"/><linearGradient id="k" gradientUnits="userSpaceOnUse" x1="-3204.686" y1="2383.188" x2="-3203.686" y2="2383.188" gradientTransform="matrix(11.4179 -10.2159 10.2159 11.4179 12412.3076 -59930.2109)"><stop offset="0" style="stop-color:#DCDFE2"/><stop offset="1" style="stop-color:#FFFFFF"/></linearGradient><path fill="url(#k)" d="M176.12,12.22l0.2-0.18L176.12,12.22z"/><linearGradient id="l" gradientUnits="userSpaceOnUse" x1="-3204.686" y1="2383.432" x2="-3203.686" y2="2383.432" gradientTransform="matrix(11.4179 -10.2159 10.2159 11.4179 12412.3076 -59930.2109)"><stop offset="0" style="stop-color:#DCDFE2"/><stop offset="1" style="stop-color:#FFFFFF"/></linearGradient><path fill="url(#l)" d="M184.09,10.05l0.11,0.03L184.09,10.05z"/><linearGradient id="m" gradientUnits="userSpaceOnUse" x1="-3204.686" y1="2383.492" x2="-3203.686" y2="2383.492" gradientTransform="matrix(11.4179 -10.2159 10.2159 11.4179 12412.3076 -59930.2109)"><stop offset="0" style="stop-color:#DCDFE2"/><stop offset="1" style="stop-color:#FFFFFF"/></linearGradient><path fill="url(#m)" d="M185.01,10.35l0.24,0.1L185.01,10.35z"/><path fill="#FFF" d="M193.84,18.71l0.22,0.27c-0.8-1.05-1.38-2.3-1.63-3.69l-0.01-0.05c-0.05-0.26-0.07-0.53-0.08-0.8l-6.2-3.56	c-0.29-0.16-0.58-0.3-0.88-0.43l-0.24-0.1c-0.27-0.1-0.54-0.2-0.81-0.27l-0.11-0.03c-0.3-0.08-0.61-0.13-0.92-0.18l-0.25-0.03	c-0.26-0.03-0.52-0.05-0.78-0.05l-0.19-0.01c-0.27,0-0.55,0.02-0.82,0.04l-0.2,0.03l-0.62,0.1l-0.28,0.06l-0.56,0.16l-0.26,0.08	c-0.22,0.08-0.44,0.17-0.65,0.26l-0.12,0.05c-0.25,0.12-0.5,0.25-0.74,0.4l-0.2,0.13L177,11.44l-0.23,0.18	c-0.16,0.13-0.31,0.26-0.46,0.4l-0.2,0.18c-0.21,0.2-0.41,0.42-0.59,0.65l18.58,18.58L193.84,18.71L193.84,18.71z"/><linearGradient id="n" gradientUnits="userSpaceOnUse" x1="-3204.686" y1="2384.046" x2="-3203.686" y2="2384.046" gradientTransform="matrix(11.4179 -10.2159 10.2159 11.4179 12412.3076 -59930.2109)"><stop offset="0" style="stop-color:#DCDFE2"/><stop offset="1" style="stop-color:#FFFFFF"/></linearGradient><path fill="url(#n)" d="M193.84,18.71l0.22,0.27c-0.8-1.05-1.38-2.3-1.63-3.69l-0.01-0.05c-0.05-0.26-0.07-0.53-0.08-0.8	l-6.2-3.56c-0.29-0.16-0.58-0.3-0.88-0.43l-0.24-0.1c-0.27-0.1-0.54-0.2-0.81-0.27l-0.11-0.03c-0.3-0.08-0.61-0.13-0.92-0.18	l-0.25-0.03c-0.26-0.03-0.52-0.05-0.78-0.05l-0.19-0.01c-0.27,0-0.55,0.02-0.82,0.04l-0.2,0.03l-0.62,0.1l-0.28,0.06l-0.56,0.16	l-0.26,0.08c-0.22,0.08-0.44,0.17-0.65,0.26l-0.12,0.05c-0.25,0.12-0.5,0.25-0.74,0.4l-0.2,0.13L177,11.44l-0.23,0.18	c-0.16,0.13-0.31,0.26-0.46,0.4l-0.2,0.18c-0.21,0.2-0.41,0.42-0.59,0.65l18.58,18.58L193.84,18.71L193.84,18.71z"/><path fill="#FFF" d="M195.38,20.38l0.39,0.29L195.38,20.38z"/><linearGradient id="o" gradientUnits="userSpaceOnUse" x1="-3204.686" y1="2384.439" x2="-3203.686" y2="2384.439" gradientTransform="matrix(11.4179 -10.2159 10.2159 11.4179 12412.3076 -59930.2109)"><stop offset="0" style="stop-color:#DCDFE2"/><stop offset="1" style="stop-color:#FFFFFF"/></linearGradient><path fill="url(#o)" d="M195.38,20.38l0.39,0.29L195.38,20.38z"/><path fill="#FFF" d="M197.34,21.6l0.5,0.2C197.68,21.74,197.51,21.68,197.34,21.6z"/><linearGradient id="p" gradientUnits="userSpaceOnUse" x1="-3204.686" y1="2384.584" x2="-3203.686" y2="2384.584" gradientTransform="matrix(11.4179 -10.2159 10.2159 11.4179 12412.3076 -59930.2109)"><stop offset="0" style="stop-color:#DCDFE2"/><stop offset="1" style="stop-color:#FFFFFF"/></linearGradient><path fill="url(#p)" d="M197.34,21.6l0.5,0.2C197.68,21.74,197.51,21.68,197.34,21.6z"/><path fill="#FFF" d="M194.86,19.89l-0.33-0.32L194.86,19.89z"/><linearGradient id="q" gradientUnits="userSpaceOnUse" x1="-3204.686" y1="2384.362" x2="-3203.686" y2="2384.362" gradientTransform="matrix(11.4179 -10.2159 10.2159 11.4179 12412.3076 -59930.2109)"><stop offset="0" style="stop-color:#DCDFE2"/><stop offset="1" style="stop-color:#FFFFFF"/></linearGradient><path fill="url(#q)" d="M194.86,19.89l-0.33-0.32L194.86,19.89z"/><path fill="#FFF" d="M196.32,21.06l0.45,0.25L196.32,21.06z"/><linearGradient id="r" gradientUnits="userSpaceOnUse" x1="-3204.686" y1="2384.513" x2="-3203.686" y2="2384.513" gradientTransform="matrix(11.4179 -10.2159 10.2159 11.4179 12412.3076 -59930.2109)"><stop offset="0" style="stop-color:#DCDFE2"/><stop offset="1" style="stop-color:#FFFFFF"/></linearGradient><path fill="url(#r)" d="M196.32,21.06l0.45,0.25L196.32,21.06z"/><path fill="#FFF" d="M194.11,31.44v0.08l23.66-0.01l16.07-0.01l0.03-0.08c1.72-0.16,3.41-0.71,4.94-1.64	c0.77-0.47,1.5-1.03,2.17-1.69c3.57-3.57,4.31-8.89,2.23-13.17l-6.12,1.1l-34.72,6.22c-1.58,0.28-3.12,0.1-4.52-0.43l-0.5-0.2	c-0.2-0.09-0.39-0.19-0.57-0.29l-0.45-0.25c-0.19-0.12-0.37-0.25-0.55-0.39l-0.39-0.29c-0.18-0.15-0.35-0.32-0.52-0.48l-0.33-0.32	c-0.17-0.19-0.32-0.39-0.48-0.59l-0.22-0.27L194.11,31.44L194.11,31.44z M238.35,69.97l19.83-19.84l-3.69-3.69l-19.84,19.83	L238.35,69.97L238.35,69.97z"/><path fill="#BABFC5" d="M238.35,69.97l-1.45,1.45l20.37,20.37l22.7-22.7c1.56-1.56,1.56-4.1,0-5.66l-4.35-4.35l-4.32,4.32	c-1.31,1.32-3.44,1.32-4.76,0.01l0,0l-0.01-0.01l-1-1c-1.32-1.31-1.32-3.44-0.01-4.76l0,0l0.01-0.01l4.32-4.32l-4.59-4.59	c-0.49-0.49-1.08-0.81-1.69-0.99c-1.36-0.4-2.89-0.09-3.96,0.99l-1.41,1.41L238.35,69.97z M277.4,66.13l0.09,0.01	c0.21,0.05,0.33,0.26,0.28,0.47c-0.15,0.58-0.45,1.12-0.88,1.54l-0.27,0.27c-0.08,0.08-0.18,0.11-0.28,0.11s-0.2-0.04-0.27-0.11	c-0.15-0.15-0.15-0.4,0-0.55l0.27-0.27c0.33-0.33,0.56-0.74,0.67-1.18C277.07,66.25,277.23,66.13,277.4,66.13L277.4,66.13z M275.01,62.1c0.08-0.08,0.17-0.11,0.27-0.11s0.2,0.04,0.27,0.11l1.34,1.34l-0.22,0.33l-0.28,0.27l0.28-0.27l-0.3,0.24l-1.36-1.37	C274.86,62.5,274.86,62.26,275.01,62.1z M272.61,71.38l1.39-1.4c0.08-0.08,0.18-0.11,0.28-0.11s0.2,0.04,0.27,0.11	c0.15,0.15,0.15,0.4,0,0.55l-1.39,1.4c-0.08,0.08-0.18,0.11-0.28,0.11s-0.2-0.04-0.27-0.11C272.46,71.78,272.46,71.53,272.61,71.38z M269.14,74.89l1.39-1.4c0.08-0.08,0.18-0.11,0.28-0.11s0.2,0.04,0.27,0.11c0.15,0.15,0.15,0.4,0,0.55l-1.39,1.4	c-0.08,0.07-0.18,0.11-0.28,0.11s-0.2-0.04-0.27-0.11C268.99,75.29,268.99,75.04,269.14,74.89z M265.67,78.39l1.39-1.4	c0.08-0.08,0.18-0.11,0.28-0.11s0.2,0.04,0.27,0.11c0.15,0.15,0.15,0.4,0,0.55l-1.39,1.4c-0.08,0.08-0.18,0.11-0.28,0.11	s-0.2-0.04-0.27-0.11C265.52,78.79,265.52,78.54,265.67,78.39z M256.68,56.01l1.39-1.39c0.08-0.08,0.17-0.11,0.27-0.11	s0.2,0.04,0.27,0.11c0.15,0.15,0.15,0.4,0,0.55l-1.4,1.39c-0.07,0.08-0.17,0.11-0.27,0.11s-0.2-0.04-0.27-0.11	C256.53,56.41,256.53,56.16,256.68,56.01L256.68,56.01z M253.2,59.5l1.39-1.4c0.08-0.08,0.17-0.12,0.27-0.12s0.2,0.04,0.27,0.12	c0.15,0.15,0.15,0.4,0,0.55l-1.39,1.4c-0.08,0.07-0.17,0.11-0.27,0.11s-0.2-0.04-0.27-0.11C253.05,59.9,253.05,59.65,253.2,59.5z M249.71,62.99l1.39-1.4c0.08-0.08,0.17-0.11,0.27-0.11s0.2,0.04,0.27,0.11c0.15,0.15,0.15,0.4,0,0.55l-1.39,1.4	c-0.08,0.07-0.17,0.11-0.27,0.11s-0.2-0.04-0.27-0.11C249.56,63.39,249.56,63.14,249.71,62.99z M246.22,66.47l1.39-1.4	c0.08-0.08,0.17-0.11,0.27-0.11s0.2,0.04,0.27,0.11c0.15,0.15,0.15,0.4,0,0.55l-1.39,1.39c-0.08,0.08-0.17,0.11-0.27,0.11	s-0.2-0.04-0.27-0.11C246.07,66.86,246.07,66.62,246.22,66.47L246.22,66.47z M242.74,69.96l1.4-1.4c0.08-0.08,0.17-0.11,0.27-0.11	s0.2,0.04,0.27,0.11c0.15,0.15,0.15,0.4,0,0.55l-1.4,1.4c-0.08,0.08-0.17,0.11-0.27,0.11s-0.2-0.04-0.27-0.11	c-0.15-0.14-0.16-0.38-0.02-0.53L242.74,69.96z M240.22,73.41c-0.1,0-0.2-0.04-0.27-0.11c-0.15-0.15-0.15-0.4,0-0.55l0.68-0.68	c0.08-0.08,0.17-0.11,0.27-0.11s0.2,0.04,0.27,0.11c0.15,0.15,0.15,0.4,0,0.55l-0.68,0.68C240.42,73.37,240.32,73.41,240.22,73.41z M257.2,88.04l-0.68,0.69c-0.08,0.08-0.18,0.11-0.28,0.11s-0.2-0.04-0.27-0.11c-0.15-0.15-0.15-0.4,0-0.55l0.68-0.69	c0.08-0.08,0.18-0.11,0.28-0.11s0.2,0.04,0.27,0.11C257.34,87.64,257.35,87.89,257.2,88.04z M260.67,84.54l-1.39,1.4	c-0.08,0.08-0.18,0.11-0.28,0.11s-0.2-0.04-0.27-0.11c-0.15-0.15-0.15-0.4,0-0.55l1.39-1.4c0.08-0.08,0.18-0.11,0.28-0.11	s0.2,0.04,0.27,0.11C260.81,84.14,260.82,84.39,260.67,84.54z M264.14,81.04l-1.39,1.4c-0.08,0.08-0.18,0.11-0.28,0.11	s-0.2-0.04-0.27-0.11c-0.15-0.15-0.15-0.4,0-0.55l1.39-1.4c0.08-0.08,0.18-0.11,0.28-0.11s0.2,0.04,0.27,0.11	C264.29,80.64,264.29,80.89,264.14,81.04z M260.72,53.07c-0.07,0.08-0.17,0.11-0.27,0.11s-0.2-0.04-0.27-0.11	c-0.15-0.15-0.15-0.4,0-0.55l0.55-0.55c0.32-0.32,0.7-0.57,1.12-0.74l0.14-0.03c0.15,0,0.3,0.09,0.36,0.24	c0.08,0.2-0.02,0.42-0.22,0.5c-0.32,0.13-0.61,0.32-0.86,0.57L260.72,53.07L260.72,53.07z M264.48,51.72	c0.08-0.11,0.2-0.16,0.32-0.16l0.22,0.07c0.14,0.1,0.28,0.22,0.4,0.34l1.06,1.06c0.15,0.15,0.15,0.4,0,0.55	c-0.08,0.08-0.17,0.11-0.27,0.11s-0.2-0.04-0.27-0.11l-1.06-1.06c-0.1-0.1-0.2-0.18-0.31-0.26	C264.4,52.13,264.36,51.89,264.48,51.72L264.48,51.72z"/><path fill="#A4A9B2" d="M256.92,87.38c-0.1,0-0.2,0.04-0.28,0.11l-0.68,0.69c-0.15,0.15-0.15,0.4,0,0.55	c0.08,0.07,0.17,0.11,0.27,0.11s0.2-0.04,0.28-0.11l0.68-0.69c0.15-0.15,0.15-0.4,0-0.55C257.12,87.42,257.02,87.38,256.92,87.38z"/><path fill="none" d="M276.68,63.77l-0.28,0.27"/><path fill="#A4A9B2" d="M265.94,79.05c0.1,0,0.2-0.04,0.28-0.11l1.39-1.4c0.15-0.15,0.15-0.4,0-0.55c-0.08-0.07-0.17-0.11-0.27-0.11	s-0.2,0.04-0.28,0.11l-1.39,1.4c-0.15,0.15-0.15,0.4,0,0.55C265.75,79.01,265.84,79.05,265.94,79.05z M269.41,75.55	c0.1,0,0.2-0.04,0.28-0.11l1.39-1.4c0.15-0.15,0.15-0.4,0-0.55c-0.08-0.07-0.17-0.11-0.27-0.11s-0.2,0.04-0.28,0.11l-1.39,1.4	c-0.15,0.15-0.15,0.4,0,0.55C269.22,75.51,269.31,75.55,269.41,75.55z M263.86,80.38c-0.1,0-0.2,0.04-0.28,0.11l-1.39,1.4	c-0.15,0.15-0.15,0.4,0,0.55c0.08,0.07,0.17,0.11,0.27,0.11s0.2-0.04,0.28-0.11l1.39-1.4c0.15-0.15,0.15-0.4,0-0.55	C264.06,80.42,263.96,80.38,263.86,80.38z M260.39,83.88c-0.1,0-0.2,0.04-0.28,0.11l-1.39,1.4c-0.15,0.15-0.15,0.4,0,0.55	c0.08,0.07,0.17,0.11,0.27,0.11s0.2-0.04,0.28-0.11l1.39-1.4c0.15-0.15,0.15-0.4,0-0.55C260.59,83.92,260.49,83.88,260.39,83.88z M276.08,67.88c-0.15,0.15-0.15,0.4,0,0.55c0.08,0.07,0.17,0.11,0.27,0.11s0.2-0.04,0.28-0.11l0.27-0.27	c0.43-0.43,0.73-0.96,0.88-1.54c0.05-0.2-0.07-0.41-0.27-0.47h-0.01l-0.09-0.01c-0.17,0-0.33,0.12-0.38,0.29	c-0.11,0.45-0.34,0.86-0.67,1.18L276.08,67.88L276.08,67.88z M272.88,72.04c0.1,0,0.2-0.04,0.28-0.11l1.39-1.4	c0.15-0.15,0.15-0.4,0-0.55c-0.08-0.07-0.17-0.11-0.27-0.11s-0.2,0.04-0.28,0.11l-1.39,1.4c-0.15,0.15-0.15,0.4,0,0.55	C272.69,72.01,272.78,72.04,272.88,72.04z M264.88,52.52l1.06,1.06c0.08,0.08,0.17,0.11,0.27,0.11s0.2-0.04,0.27-0.11	c0.15-0.15,0.15-0.4,0-0.55l-1.06-1.06c-0.13-0.13-0.26-0.24-0.4-0.34l-0.22-0.07c-0.12,0-0.24,0.06-0.32,0.16	c-0.12,0.17-0.08,0.42,0.09,0.54L264.88,52.52L264.88,52.52z M276.37,64.02l0.3-0.24l0.22-0.33l-1.34-1.34	c-0.08-0.08-0.17-0.11-0.27-0.11s-0.2,0.04-0.27,0.11c-0.15,0.15-0.15,0.4,0,0.55C275.01,62.66,276.37,64.02,276.37,64.02z M262.13,51.96c0.2-0.08,0.29-0.3,0.22-0.5c-0.06-0.15-0.2-0.24-0.36-0.24l-0.14,0.03c-0.42,0.17-0.79,0.42-1.12,0.74l-0.55,0.55	c-0.15,0.15-0.15,0.4,0,0.55c0.08,0.08,0.17,0.11,0.27,0.11s0.2-0.04,0.27-0.11l0.55-0.55C261.52,52.28,261.81,52.08,262.13,51.96	L262.13,51.96z M246.5,67.13c0.1,0,0.2-0.04,0.27-0.11l1.39-1.39c0.15-0.15,0.15-0.4,0-0.55c-0.08-0.08-0.17-0.11-0.27-0.11	s-0.2,0.04-0.27,0.11l-1.39,1.4c-0.15,0.15-0.15,0.4,0,0.55C246.3,67.1,246.4,67.13,246.5,67.13z M249.98,63.65	c0.1,0,0.2-0.04,0.27-0.11l1.39-1.4c0.15-0.15,0.15-0.4,0-0.55c-0.08-0.08-0.17-0.11-0.27-0.11s-0.2,0.04-0.27,0.11l-1.39,1.4	c-0.15,0.15-0.15,0.4,0,0.55C249.79,63.61,249.89,63.65,249.98,63.65z M253.47,60.16c0.1,0,0.2-0.04,0.27-0.11l1.39-1.4	c0.15-0.15,0.15-0.4,0-0.55c-0.08-0.08-0.17-0.12-0.27-0.12s-0.2,0.04-0.27,0.12l-1.39,1.4c-0.15,0.15-0.15,0.4,0,0.55	C253.27,60.12,253.37,60.16,253.47,60.16z M256.96,56.67c0.1,0,0.2-0.04,0.27-0.11l1.4-1.39c0.15-0.15,0.15-0.4,0-0.55	c-0.08-0.08-0.17-0.11-0.27-0.11s-0.2,0.04-0.27,0.11l-1.39,1.39c-0.15,0.15-0.15,0.4,0,0.55	C256.76,56.64,256.86,56.67,256.96,56.67z M243.01,70.62c0.1,0,0.2-0.04,0.27-0.11l1.4-1.4c0.15-0.15,0.15-0.4,0-0.55	c-0.08-0.08-0.17-0.11-0.27-0.11s-0.2,0.04-0.27,0.11l-1.4,1.4c-0.15,0.15-0.15,0.4,0,0.55C242.81,70.58,242.91,70.62,243.01,70.62z M241.18,72.61c0.15-0.15,0.15-0.4,0-0.55c-0.08-0.08-0.17-0.11-0.27-0.11s-0.2,0.04-0.27,0.11l-0.68,0.68	c-0.15,0.15-0.15,0.4,0,0.55c0.08,0.08,0.17,0.11,0.27,0.11s0.2-0.04,0.27-0.11L241.18,72.61z"/><path fill="#FFF" d="M265.51,57.63c-1.32,1.31-1.32,3.44-0.01,4.76l0,0l0.01,0.01l1,1c1.31,1.32,3.44,1.32,4.76,0.01l0,0	l0.01-0.01l4.32-4.32l1.05-1.05l-5.77-5.77l-1.05,1.05L265.51,57.63L265.51,57.63z M269.85,59.12c0.62,0.62,0.64,1.61,0.03,2.21	s-1.59,0.59-2.21-0.03s-0.64-1.61-0.03-2.21C268.24,58.48,269.23,58.5,269.85,59.12z"/><ellipse transform="matrix(0.7071 -0.7071 0.7071 0.7071 36.0987 207.6531)" fill="#BABFC5" cx="268.71" cy="60.25" rx="1.54" ry="1.59"/><path fill="none" d="M79.74,70.49l-0.01,0.01L79.74,70.49z"/><path fill="#BABFC5" d="M74.7,75.53l70.98,70.98l5.03-5.03l-27.5-27.5l-1.09-1.1l-4.39-4.38l-0.97-0.98l-4.39-4.38l-1.09-1.1	l-4.33-4.32l-1.09-1.1L79.74,70.5v4.85L74.7,75.53z"/><path fill="#979DA5" d="M96.18,25.65c0.66-1.09,1.44-2.1,2.34-3c3.18-3.18,7.51-4.86,12.15-4.69c4.68,0.15,9.15,2.12,12.57,5.55	l1.1,1.1l1.39-0.14l0.11-1.06l-1.24-1.24c-3.77-3.77-8.69-5.94-13.86-6.11c-5.18-0.19-10.01,1.69-13.56,5.25	c-1.33,1.33-2.44,2.86-3.28,4.54C94.65,25.73,95.41,25.67,96.18,25.65z M93.83,34.8c-0.08-2.54,0.39-4.97,1.34-7.18	c-0.73,0.06-1.45,0.16-2.16,0.31c-2.43,6.85-0.73,15.04,5.02,20.79l0.29,0.29l0.1-1.03l1.43-0.14l-0.47-0.47	C95.95,43.95,93.98,39.49,93.83,34.8L93.83,34.8z M88.88,60.19l-3.35-3.56c-6.84-7.26-6.89-18.36-0.11-24.74	c2.18-2.05,4.8-3.36,7.58-3.96c0.71-0.15,1.44-0.25,2.16-0.31c5.28-0.44,10.86,1.54,14.94,5.87l2.02,2.15l0.15-1.52l0.95-0.09	l-1.73-1.84c-4.19-4.45-9.83-6.66-15.31-6.54c-0.77,0.02-1.54,0.08-2.29,0.19c-3.58,0.52-7,2.05-9.77,4.66	c-7.54,7.1-7.53,19.41,0.03,27.43l3.41,3.62l1.21-0.12L88.88,60.19z"/><path fill="#FFF" d="M79.74,70.5l26.12,26.12l59.83-59.83l1.09,1.1l-59.83,59.83l4.33,4.32l59.83-59.83l1.09,1.1l-59.83,59.83	l4.39,4.38l59.83-59.83l0.97,0.98l-59.83,59.83l4.39,4.38l59.83-59.83l1.09,1.1l-59.83,59.83l27.5,27.5l54.8-54.8l5.03-5.03	l-32.98-32.98l-0.97-0.98l-35.15-35.15L82.06,71.93L79.74,70.5v-0.01l-0.01,0.01C79.73,70.5,79.74,70.5,79.74,70.5z M79.74,70.49	v0.01l2.32,1.43l59.38-59.39l-1.93-1.93l-4.12,0.41l-0.42,4.21l-4.21,0.41l-0.41,4.21l-4.2,0.41l-0.32,3.15l-0.1,1.06l-1.39,0.14	l-2.81,0.27l-0.42,4.21l-4.2,0.41l-0.42,4.21l-3.26,0.32l-0.94,0.09l-0.16,1.53l-0.26,2.68l-4.21,0.41l-0.41,4.21l-4.21,0.42	l-0.41,4.2l-2.78,0.28l-1.43,0.14l-0.1,1.02L98,52.19l-4.2,0.42l-0.42,4.2l-4.2,0.42l-0.3,2.96l-0.12,1.25l-1.21,0.12l-3,0.29	l-0.41,4.21l-4.4,0.42C79.74,66.48,79.74,70.49,79.74,70.49z M166.78,37.89l-1.09-1.1l-59.83,59.83l1.09,1.1L166.78,37.89z"/><path fill="#BABFC5" d="M172.2,43.31l-1.09-1.1l-59.83,59.83l1.09,1.1C112.37,103.14,172.2,43.31,172.2,43.31z"/><path fill="#959CA5" d="M116.75,107.53l59.83-59.83l0.98,0.98l-59.83,59.83C117.73,108.51,116.75,107.53,116.75,107.53z"/><path fill="#BABFC5" d="M183.04,54.15l-1.09-1.1l-59.83,59.83l1.09,1.1L183.04,54.15z"/><path fill="none" d="M174.04,168.96l2.7,2.63L174.04,168.96z M175.55,168.45l0.27,0.26L175.55,168.45z M176.12,168.6l-0.06-0.03	l-0.17-0.05l-0.19-0.05l-0.11-0.01C175.77,168.48,175.95,168.53,176.12,168.6z M176.7,168.98c-0.09-0.09-0.2-0.17-0.3-0.24	l-0.11-0.06l-0.08-0.04C176.38,168.73,176.55,168.84,176.7,168.98z M158.32,162.77l-0.28,0.19l0.29-0.17L158.32,162.77z M158.31,164.47l0.23-0.15v-0.02L158.31,164.47z M183.07,187.39l0.22-0.34h-0.01L183.07,187.39z M176.7,168.98	c0.14,0.14,0.25,0.3,0.35,0.48C176.95,169.29,176.84,169.12,176.7,168.98z M182.87,187.69c-0.13,0.19-0.28,0.38-0.43,0.57	L182.87,187.69z M157.17,165.43c-0.08,0.08-0.17,0.13-0.26,0.16C157,165.55,157.09,165.51,157.17,165.43z M180.58,188.26	c0.28-0.28,0.53-0.58,0.77-0.88C181.11,187.69,180.86,187.99,180.58,188.26z M181.72,186.87l-0.16,0.24l0.18-0.24H181.72	L181.72,186.87z"/><path fill="#DADCE0" d="M176.12,168.6c-0.17-0.07-0.35-0.12-0.53-0.14h-0.04l0.27,0.26l1.43,1.4v-0.04	c-0.03-0.19-0.08-0.37-0.16-0.53l-0.04-0.08c-0.09-0.17-0.2-0.33-0.35-0.48c-0.15-0.14-0.32-0.25-0.49-0.34L176.12,168.6z"/><path fill="#979DA5" d="M190.09,184.52l1.14,1.11L190.09,184.52z M190.09,184.52l1.14,1.12c0.14,0.13,0.31,0.2,0.49,0.2	s0.36-0.07,0.5-0.21c0.27-0.28,0.26-0.72-0.01-0.99l-1.18-1.15c-0.23,0.29-0.47,0.57-0.73,0.84L190.09,184.52L190.09,184.52z"/><linearGradient id="s" gradientUnits="userSpaceOnUse" x1="-2818.751" y1="2022.305" x2="-2817.751" y2="2022.305" gradientTransform="matrix(2.5577 2.5249 2.5249 -2.5577 2294.1809 12473.7256)"><stop offset="0" style="stop-color:#71767D"/><stop offset="1" style="stop-color:#979DA5"/></linearGradient><path fill="url(#s)" d="M190.09,184.52l1.14,1.12c0.14,0.13,0.31,0.2,0.49,0.2s0.36-0.07,0.5-0.21	c0.27-0.28,0.26-0.72-0.01-0.99l-1.18-1.15c-0.23,0.29-0.47,0.57-0.73,0.84L190.09,184.52L190.09,184.52z"/><path fill="#979DA5" d="M159.86,153.63l0.18-0.04L159.86,153.63z M160.2,153.63l0.1,0.02L160.2,153.63z M159.54,153.81	c0.07-0.07,0.15-0.12,0.23-0.16C159.69,153.68,159.61,153.74,159.54,153.81z M159.55,154.79c-0.07-0.07-0.12-0.15-0.16-0.23	C159.43,154.65,159.48,154.73,159.55,154.79z M159.38,154.47l-0.03-0.18L159.38,154.47z M159.37,154.12l0.02-0.09L159.37,154.12z"/><linearGradient id="t" gradientUnits="userSpaceOnUse" x1="-2818.74" y1="2021.79" x2="-2817.74" y2="2021.79" gradientTransform="matrix(2.558 2.525 2.525 -2.558 2264.0452 12442.2529)"><stop offset="0" style="stop-color:#979DA5"/><stop offset="1" style="stop-color:#71767D"/></linearGradient><path fill="url(#t)" d="M159.39,154.04c0.03-0.08,0.08-0.16,0.15-0.23C159.47,153.87,159.42,153.95,159.39,154.04z"/><linearGradient id="u" gradientUnits="userSpaceOnUse" x1="-2818.74" y1="2021.979" x2="-2817.74" y2="2021.979" gradientTransform="matrix(2.558 2.525 2.525 -2.558 2264.0452 12442.2529)"><stop offset="0" style="stop-color:#979DA5"/><stop offset="1" style="stop-color:#71767D"/></linearGradient><path fill="url(#u)" d="M160.04,153.6l0.16,0.03L160.04,153.6z"/><linearGradient id="v" gradientUnits="userSpaceOnUse" x1="-2818.74" y1="2021.656" x2="-2817.74" y2="2021.656" gradientTransform="matrix(2.558 2.525 2.525 -2.558 2264.0452 12442.2529)"><stop offset="0" style="stop-color:#979DA5"/><stop offset="1" style="stop-color:#71767D"/></linearGradient><path fill="url(#v)" d="M159.39,154.56l-0.02-0.09L159.39,154.56z"/><linearGradient id="w" gradientUnits="userSpaceOnUse" x1="-2818.74" y1="2022.017" x2="-2817.74" y2="2022.017" gradientTransform="matrix(2.558 2.525 2.525 -2.558 2264.0452 12442.2529)"><stop offset="0" style="stop-color:#979DA5"/><stop offset="1" style="stop-color:#71767D"/></linearGradient><path fill="url(#w)" d="M160.3,153.64c0.08,0.03,0.16,0.08,0.23,0.15L160.3,153.64z"/><linearGradient id="x" gradientUnits="userSpaceOnUse" x1="-2818.74" y1="2021.914" x2="-2817.74" y2="2021.914" gradientTransform="matrix(2.558 2.525 2.525 -2.558 2264.0452 12442.2529)"><stop offset="0" style="stop-color:#979DA5"/><stop offset="1" style="stop-color:#71767D"/></linearGradient><path fill="url(#x)" d="M159.77,153.65l0.09-0.02L159.77,153.65z"/><linearGradient id="y" gradientUnits="userSpaceOnUse" x1="-2818.74" y1="2021.711" x2="-2817.74" y2="2021.711" gradientTransform="matrix(2.558 2.525 2.525 -2.558 2264.0452 12442.2529)"><stop offset="0" style="stop-color:#979DA5"/><stop offset="1" style="stop-color:#71767D"/></linearGradient><path fill="url(#y)" d="M159.34,154.29l0.03-0.16L159.34,154.29z"/><path fill="#979DA5" d="M161.77,155.01l-1.25-1.22c-0.06-0.07-0.14-0.12-0.23-0.15l-0.1-0.02l-0.17-0.03l-0.18,0.04l-0.09,0.02	c-0.08,0.04-0.16,0.09-0.23,0.16s-0.12,0.15-0.15,0.23l-0.02,0.09l-0.03,0.17l0.03,0.18l0.02,0.09c0.04,0.09,0.09,0.17,0.16,0.23	l1.2,1.17l0.24-0.26C161.24,155.46,161.5,155.23,161.77,155.01L161.77,155.01z"/><linearGradient id="z" gradientUnits="userSpaceOnUse" x1="-2818.74" y1="2021.827" x2="-2817.74" y2="2021.827" gradientTransform="matrix(2.558 2.525 2.525 -2.558 2264.0452 12442.2529)"><stop offset="0" style="stop-color:#979DA5"/><stop offset="1" style="stop-color:#71767D"/></linearGradient><path fill="url(#z)" d="M161.77,155.01l-1.25-1.22c-0.06-0.07-0.14-0.12-0.23-0.15l-0.1-0.02l-0.17-0.03l-0.18,0.04	l-0.09,0.02c-0.08,0.04-0.16,0.09-0.23,0.16s-0.12,0.15-0.15,0.23l-0.02,0.09l-0.03,0.17l0.03,0.18l0.02,0.09	c0.04,0.09,0.09,0.17,0.16,0.23l1.2,1.17l0.24-0.26C161.24,155.46,161.5,155.23,161.77,155.01L161.77,155.01z"/><path fill="#979DA5" d="M181.74,186.87l-0.18,0.24l-0.21,0.28c-0.24,0.3-0.49,0.6-0.77,0.88c-0.27,0.28-0.27,0.73,0.01,1	c0.26,0.27,0.69,0.27,0.95,0.01c0.01-0.01,0.01-0.01,0.02-0.02c0.24-0.24,0.47-0.5,0.69-0.76l0.18-0.23l0.43-0.57l0.2-0.3l0.21-0.34	C182.76,187.03,182.24,186.97,181.74,186.87L181.74,186.87z M174.04,168.96l2.7,2.63l0.01-0.01L174.04,168.96L174.04,168.96z M158.32,162.78l-0.29,0.17l-0.32,0.21c-0.18,0.12-0.35,0.26-0.52,0.39l-0.27,0.21c-0.25,0.21-0.5,0.44-0.74,0.68	c-0.27,0.27-0.27,0.72,0,0.99c0.2,0.2,0.48,0.25,0.73,0.16c0.1-0.03,0.19-0.08,0.26-0.16c0.28-0.28,0.57-0.53,0.87-0.77l0.26-0.2	l0.23-0.17C158.42,163.8,158.35,163.29,158.32,162.78L158.32,162.78z M177.13,171.06l0.04-0.14l0.06-0.22l0.02-0.16l0.02-0.23	l-0.02-0.22l-1.43-1.4l-0.27-0.26h-0.05l-0.17-0.01l-0.26,0.02l-0.11,0.01l-0.25,0.08l-0.11,0.03l-0.23,0.12l-0.1,0.05l-0.22,0.2	l2.7,2.63l0.24-0.26l0.01-0.01l0.02-0.03L177.13,171.06L177.13,171.06z M175.7,168.47l0.19,0.05L175.7,168.47z M177.03,167.5	l0.12,0.06L177.03,167.5z M175.72,167.07l0.24,0.02L175.72,167.07z M176.38,167.21l0.2,0.06L176.38,167.21z M176.2,168.64l0.08,0.04	l-0.23-0.12l0.06,0.03L176.2,168.64z M174.27,168.75l0.1-0.05L174.27,168.75z M177.13,171.06l-0.11,0.21L177.13,171.06z M177.23,170.71l-0.06,0.22L177.23,170.71z M174.6,168.58l0.11-0.03L174.6,168.58z M175.34,168.43l0.16,0.02L175.34,168.43z M177.27,170.35v-0.02l-0.02,0.23L177.27,170.35L177.27,170.35z M174.96,168.47l0.11-0.01L174.96,168.47z"/><linearGradient id="A" gradientUnits="userSpaceOnUse" x1="-2967.65" y1="2151.731" x2="-2966.65" y2="2151.731" gradientTransform="matrix(4.7241 4.6618 4.6618 -4.7241 4161.5918 24165.0527)"><stop offset="0" style="stop-color:#979DA5"/><stop offset="1" style="stop-color:#71767D"/></linearGradient><path fill="url(#A)" d="M176.28,168.68l0.11,0.06L176.28,168.68z"/><linearGradient id="B" gradientUnits="userSpaceOnUse" x1="-2967.65" y1="2151.71" x2="-2966.65" y2="2151.71" gradientTransform="matrix(4.7241 4.6618 4.6618 -4.7241 4161.5918 24165.0527)"><stop offset="0" style="stop-color:#979DA5"/><stop offset="1" style="stop-color:#71767D"/></linearGradient><path fill="url(#B)" d="M175.89,168.52l0.17,0.05L175.89,168.52z"/><linearGradient id="C" gradientUnits="userSpaceOnUse" x1="-2967.65" y1="2151.944" x2="-2966.65" y2="2151.944" gradientTransform="matrix(4.7241 4.6618 4.6618 -4.7241 4161.5918 24165.0527)"><stop offset="0" style="stop-color:#979DA5"/><stop offset="1" style="stop-color:#71767D"/></linearGradient><path fill="url(#C)" d="M177.15,167.57c0.18,0.12,0.36,0.26,0.52,0.42C177.51,167.82,177.34,167.68,177.15,167.57z"/><linearGradient id="D" gradientUnits="userSpaceOnUse" x1="-2967.65" y1="2151.922" x2="-2966.65" y2="2151.922" gradientTransform="matrix(4.7241 4.6618 4.6618 -4.7241 4161.5918 24165.0527)"><stop offset="0" style="stop-color:#979DA5"/><stop offset="1" style="stop-color:#71767D"/></linearGradient><path fill="url(#D)" d="M176.57,167.27c0.16,0.06,0.31,0.15,0.46,0.23C176.88,167.42,176.73,167.33,176.57,167.27z"/><linearGradient id="E" gradientUnits="userSpaceOnUse" x1="-2967.65" y1="2151.684" x2="-2966.65" y2="2151.684" gradientTransform="matrix(4.7241 4.6618 4.6618 -4.7241 4161.5918 24165.0527)"><stop offset="0" style="stop-color:#979DA5"/><stop offset="1" style="stop-color:#71767D"/></linearGradient><path fill="url(#E)" d="M175.7,168.47l-0.11-0.01L175.7,168.47z"/><linearGradient id="F" gradientUnits="userSpaceOnUse" x1="-2967.65" y1="2151.836" x2="-2966.65" y2="2151.836" gradientTransform="matrix(4.7241 4.6618 4.6618 -4.7241 4161.5918 24165.0527)"><stop offset="0" style="stop-color:#979DA5"/><stop offset="1" style="stop-color:#71767D"/></linearGradient><path fill="url(#F)" d="M175.72,167.07l-0.11-0.01L175.72,167.07z"/><linearGradient id="G" gradientUnits="userSpaceOnUse" x1="-2967.65" y1="2151.88" x2="-2966.65" y2="2151.88" gradientTransform="matrix(4.7241 4.6618 4.6618 -4.7241 4161.5918 24165.0527)"><stop offset="0" style="stop-color:#979DA5"/><stop offset="1" style="stop-color:#71767D"/></linearGradient><path fill="url(#G)" d="M175.96,167.09c0.14,0.03,0.28,0.07,0.42,0.12L175.96,167.09z"/><path fill="#979DA5" d="M174.3,168.72l-0.03,0.03l0.1-0.05l0.23-0.12l0.11-0.03l0.25-0.08l0.11-0.01l0.26-0.02l0.16,0.02h0.09	l0.11,0.01l0.19,0.05l0.17,0.05l0.23,0.12l0.11,0.06c0.11,0.07,0.21,0.15,0.3,0.24c0.14,0.14,0.25,0.3,0.35,0.48l0.04,0.08	c0.08,0.17,0.13,0.35,0.16,0.53v0.04l0.02,0.22v0.02l-0.02,0.2l-0.02,0.16l-0.06,0.22l-0.04,0.14l-0.11,0.21l-0.02,0.03	c0.5-0.5,1.06-0.93,1.64-1.3c-0.08-0.77-0.4-1.48-0.96-2.02c-0.16-0.16-0.34-0.3-0.52-0.42l-0.12-0.06	c-0.15-0.09-0.3-0.17-0.46-0.23l-0.2-0.06c-0.14-0.05-0.28-0.09-0.42-0.12l-0.24-0.02l-0.11-0.01	C175.24,167.65,174.81,168.21,174.3,168.72L174.3,168.72z"/><linearGradient id="H" gradientUnits="userSpaceOnUse" x1="-2967.65" y1="2151.728" x2="-2966.65" y2="2151.728" gradientTransform="matrix(4.7241 4.6618 4.6618 -4.7241 4161.5918 24165.0527)"><stop offset="0" style="stop-color:#979DA5"/><stop offset="1" style="stop-color:#71767D"/></linearGradient><path fill="url(#H)" d="M174.3,168.72l-0.03,0.03l0.1-0.05l0.23-0.12l0.11-0.03l0.25-0.08l0.11-0.01l0.26-0.02l0.16,0.02	h0.09l0.11,0.01l0.19,0.05l0.17,0.05l0.23,0.12l0.11,0.06c0.11,0.07,0.21,0.15,0.3,0.24c0.14,0.14,0.25,0.3,0.35,0.48l0.04,0.08	c0.08,0.17,0.13,0.35,0.16,0.53v0.04l0.02,0.22v0.02l-0.02,0.2l-0.02,0.16l-0.06,0.22l-0.04,0.14l-0.11,0.21l-0.02,0.03	c0.5-0.5,1.06-0.93,1.64-1.3c-0.08-0.77-0.4-1.48-0.96-2.02c-0.16-0.16-0.34-0.3-0.52-0.42l-0.12-0.06	c-0.15-0.09-0.3-0.17-0.46-0.23l-0.2-0.06c-0.14-0.05-0.28-0.09-0.42-0.12l-0.24-0.02l-0.11-0.01	C175.24,167.65,174.81,168.21,174.3,168.72L174.3,168.72z"/><path fill="#ABB0B7" d="M163.97,161.17c0.8,0,1.59,0.09,2.36,0.27l-4.54-4.43c-1.26,1.37-1.98,3.16-2.02,5.02	C161.13,161.47,162.56,161.17,163.97,161.17L163.97,161.17z M172.98,167.92l-3.42-3.34c-1.58-1.35-3.56-2.01-5.58-2.01	c-1.39,0-2.78,0.33-4.09,0.96c0.27,1.61,1.05,3.09,2.22,4.22C165.11,170.67,169.91,170.72,172.98,167.92L172.98,167.92z M170.93,163.95l3,2.93c1.04-1.35,1.6-3.01,1.59-4.72c-0.01-2.07-0.85-4.05-2.34-5.48c-1.48-1.44-3.46-2.25-5.53-2.24	c-1.71,0-3.4,0.55-4.82,1.63l7.67,7.48C170.65,163.68,170.79,163.81,170.93,163.95L170.93,163.95z"/><path fill="#767E87" d="M170.5,163.55l-7.67-7.48c-0.27,0.21-0.54,0.43-0.79,0.68l-0.24,0.26l4.54,4.43	C167.85,161.8,169.28,162.5,170.5,163.55L170.5,163.55z M169.55,164.58l3.42,3.34l0.01-0.01l-3.03-2.96	C169.83,164.82,169.69,164.7,169.55,164.58z M163.97,162.57c2.02,0,4,0.67,5.58,2.01c0.14,0.12,0.27,0.24,0.4,0.37l3.03,2.96	l0.26-0.24c0.25-0.25,0.47-0.52,0.68-0.79l-3-2.93l-0.43-0.4c-1.2-1.03-2.62-1.75-4.16-2.11c-0.77-0.18-1.57-0.27-2.36-0.27	c-1.42,0-2.85,0.3-4.2,0.87l-0.01,0.22c0,0.43,0.05,0.85,0.12,1.26C161.19,162.9,162.59,162.57,163.97,162.57L163.97,162.57z"/><path fill="#ABB0B7" d="M183.39,181.58c-0.01-2.27-0.9-4.38-2.49-5.93l-3.1-3.02c-1.32,1.43-2.04,3.31-2.03,5.25	c0.01,2.08,0.84,4.02,2.34,5.48c1.2,1.17,2.74,1.92,4.4,2.15C183.08,184.27,183.39,182.94,183.39,181.58L183.39,181.58z M188.99,183.51l-4.53-4.42c0.21,0.79,0.32,1.62,0.32,2.47c0.01,1.39-0.27,2.74-0.78,4.01C185.8,185.49,187.58,184.81,188.99,183.51	L188.99,183.51z M191.52,177.76c-0.01-2.07-0.85-4.05-2.34-5.48c-1.53-1.5-3.54-2.24-5.54-2.24c-1.7,0-3.39,0.55-4.8,1.62	l11.09,10.82C190.97,181.13,191.53,179.47,191.52,177.76L191.52,177.76z"/><path fill="#767E87" d="M184.78,181.57c-0.01-0.85-0.12-1.68-0.32-2.47l-6.65-6.49l-0.01,0.01l3.1,3.02	c1.59,1.55,2.47,3.66,2.49,5.93c0.01,1.37-0.31,2.7-0.88,3.92c0.5,0.07,1,0.1,1.49,0.07C184.51,184.3,184.79,182.95,184.78,181.57	L184.78,181.57z M184.46,179.1l4.53,4.42l0.26-0.24c0.25-0.25,0.47-0.52,0.68-0.79l-11.09-10.82c-0.28,0.21-0.55,0.44-0.81,0.69	l-0.23,0.25L184.46,179.1L184.46,179.1z"/><path fill="#979DA5" d="M174.05,168.94l0.22-0.2l0.03-0.03c0.51-0.51,0.94-1.06,1.31-1.66c0.92-1.47,1.41-3.17,1.39-4.91	c-0.02-2.46-1.02-4.82-2.79-6.53c-3.42-3.33-8.79-3.53-12.44-0.61c-0.27,0.22-0.53,0.45-0.79,0.7l-0.24,0.26	c-1.6,1.73-2.48,3.95-2.46,6.31l0.03,0.49v0.01c0.03,0.52,0.1,1.02,0.22,1.52v0.02c0.4,1.71,1.28,3.27,2.54,4.49	c1.76,1.71,4.12,2.66,6.57,2.66c2.3,0,4.6-0.84,6.39-2.51L174.05,168.94L174.05,168.94z M159.77,162.26l0.01-0.22	c0.04-1.86,0.76-3.65,2.02-5.02l0.24-0.26c0.25-0.25,0.52-0.47,0.79-0.68c1.38-1.06,3.08-1.63,4.82-1.63c2,0,4,0.75,5.53,2.24	c1.5,1.46,2.33,3.4,2.34,5.48c0.01,1.73-0.55,3.36-1.59,4.72c-0.21,0.27-0.43,0.54-0.68,0.79l-0.26,0.24l-0.01,0.01	c-3.07,2.8-7.86,2.75-10.87-0.18c-1.17-1.13-1.95-2.61-2.22-4.22C159.82,163.11,159.77,162.69,159.77,162.26L159.77,162.26z M190.22,171.22c-3.16-3.08-7.98-3.47-11.58-1.22c-0.58,0.36-1.13,0.79-1.64,1.3l-0.01,0.01l-0.24,0.26l-0.01,0.01	c-1.59,1.73-2.47,3.94-2.45,6.29c0.02,2.46,1.02,4.82,2.79,6.53c1.28,1.25,2.9,2.1,4.65,2.46h0.02c0.51,0.1,1.02,0.16,1.53,0.18	h0.01l0.36,0.02c2.39,0,4.7-0.91,6.44-2.55l0.21-0.19c0.26-0.26,0.5-0.55,0.73-0.84c1.29-1.63,1.99-3.65,1.97-5.73	C192.99,175.28,192,172.96,190.22,171.22L190.22,171.22z M184,185.57c-0.5,0.02-1,0-1.49-0.07c-1.66-0.23-3.2-0.98-4.4-2.15	c-1.49-1.43-2.33-3.41-2.34-5.48c-0.01-1.96,0.71-3.8,2.03-5.25l0.01-0.01l0.23-0.25c0.25-0.25,0.53-0.48,0.81-0.69	c3.13-2.38,7.52-2.11,10.34,0.62c1.5,1.46,2.33,3.4,2.34,5.48c0.01,1.73-0.55,3.36-1.59,4.72c-0.21,0.27-0.43,0.54-0.68,0.79	l-0.26,0.24C187.62,184.77,185.85,185.49,184,185.57z"/><path fill="#FFF" d="M29.53,153.44c-1.17-1.17-3.07-1.17-4.24,0l-1.6,1.6l23.68,23.68l1.6-1.6c1.17-1.17,1.17-3.07,0-4.24	L29.53,153.44L29.53,153.44z M14.47,164.26c-1.17,1.17-1.17,3.07,0,4.24l19.44,19.44c1.17,1.17,3.07,1.17,4.24,0l6.09-6.09	l-23.68-23.68C20.56,158.17,14.47,164.26,14.47,164.26z"/><path fill="#979DA5" d="M23.68,155.04l-3.12,3.13l23.68,23.68l3.13-3.13L23.68,155.04L23.68,155.04z"/><path fill="#FFF" d="M336.12,169.55l-0.64,0.64c-0.49,0.49-0.49,1.28,0,1.77l0,0l1.5,1.5l2.41-2.41l-1.51-1.5	C337.41,169.06,336.61,169.06,336.12,169.55L336.12,169.55z M337.64,179.42l0.79-0.79c0.49-0.49,0.49-1.29,0-1.77l-1.44-1.44	l-2.57,2.57l1.44,1.44C336.35,179.91,337.15,179.91,337.64,179.42L337.64,179.42z M343.85,164.15l-1.25-3.24l-3.17,1.41l-2.4-2.51	l-2.4,2.51l-3.17-1.41l-1.25,3.24l-3.47-0.08l0.08,3.47l-3.24,1.25l1.41,3.17l-2.51,2.4l2.51,2.4l-1.41,3.17l3.24,1.25l-0.08,3.47	l3.47-0.08l1.25,3.24l3.17-1.41l2.4,2.51l2.4-2.51l3.17,1.41l1.25-3.24l3.47,0.08l-0.08-3.47l3.24-1.25l-1.41-3.17l2.51-2.4	l-2.51-2.4l1.41-3.17l-3.24-1.25l0.08-3.47L343.85,164.15z M344.16,174.83c-0.27,0.27-0.7,0.27-0.97,0l-2.81-2.81l-2.41,2.41	l1.44,1.44c1.03,1.02,1.03,2.68,0.01,3.71l0,0l-0.01,0.01l-0.79,0.79c-0.5,0.5-1.16,0.77-1.86,0.77c-0.7,0-1.36-0.27-1.86-0.77	l-1.44-1.44l-0.78,0.78c-0.27,0.27-0.71,0.27-0.98,0c-0.27-0.26-0.27-0.69-0.01-0.96l0.01-0.01l0.78-0.78l-2.88-2.88	c-0.27-0.27-0.27-0.7,0-0.97s0.71-0.27,0.97,0l2.88,2.88l2.57-2.57l-1.5-1.5c-1.03-1.02-1.03-2.68-0.01-3.71l0,0l0.01-0.01	l0.64-0.64c1.03-1.02,2.69-1.02,3.72,0l1.51,1.5l0.58-0.58c0.27-0.27,0.71-0.27,0.97,0c0.27,0.27,0.27,0.7,0,0.97l-0.58,0.58	l2.81,2.81C344.43,174.13,344.43,174.56,344.16,174.83L344.16,174.83z"/><path fill="#959CA5" d="M330.57,174.13c-0.26-0.27-0.69-0.27-0.96-0.01l-0.01,0.01c-0.27,0.27-0.27,0.7,0,0.97l2.88,2.88l0.97-0.97	L330.57,174.13z M338.43,176.85c0.49,0.49,0.49,1.29,0,1.77l-0.79,0.79c-0.49,0.49-1.28,0.49-1.77,0l-1.44-1.44l-0.97,0.97	l1.44,1.44c0.5,0.5,1.16,0.77,1.86,0.77c0.7,0,1.36-0.27,1.86-0.77l0.79-0.79c1.03-1.02,1.03-2.68,0.01-3.71l0,0l-0.01-0.01	l-1.44-1.44L337,175.4L338.43,176.85L338.43,176.85z M335.49,171.96c-0.49-0.49-0.49-1.28,0-1.77l0,0l0.64-0.64	c0.49-0.49,1.28-0.49,1.77,0l0,0l1.51,1.5l0.97-0.97l-1.51-1.5c-1.03-1.02-2.69-1.02-3.72,0l-0.64,0.64	c-1.03,1.02-1.03,2.68-0.01,3.71l0,0l0.01,0.01l1.5,1.5l0.97-0.97L335.49,171.96z M341.35,171.05l-0.97,0.97l2.81,2.81	c0.27,0.27,0.71,0.27,0.97,0c0.27-0.27,0.27-0.7,0-0.97L341.35,171.05z M341.92,170.48c0.27-0.27,0.27-0.7,0-0.97s-0.71-0.27-0.97,0	l-0.58,0.58l-0.97,0.97l-2.41,2.41l-0.97,0.97l-2.57,2.57l-0.97,0.97l-0.78,0.78c-0.27,0.27-0.27,0.7,0,0.97s0.71,0.27,0.98,0	l0.78-0.78l0.97-0.97l2.57-2.57l0.97-0.97l2.41-2.41l0.97-0.97L341.92,170.48L341.92,170.48z"/><path fill="#FFF" d="M87.93,135.98l-0.99,0.99c-1.3,1.3-1.3,3.41,0,4.71l16.59,16.59c0.11,0.11,0.29,0.11,0.41,0l5.29-5.29	c0.11-0.11,0.11-0.29,0-0.41l-16.59-16.59C91.34,134.68,89.24,134.68,87.93,135.98C87.94,135.98,87.93,135.98,87.93,135.98	L87.93,135.98z M139.85,189.87l0.99-0.99c1.3-1.3,1.3-3.41,0-4.71l-22.35-22.35c-0.11-0.11-0.3-0.11-0.41,0l-5.29,5.29	c-0.11,0.11-0.11,0.29,0,0.41l22.35,22.35C136.44,191.17,138.55,191.17,139.85,189.87L139.85,189.87z"/><path fill="#686C71" d="M117.4,152.51l1.15-1.15l1.73,1.73l-1.15,1.15L117.4,152.51z"/><ellipse transform="matrix(0.7071 -0.7071 0.7071 0.7071 -80.8176 125.53)" fill="#979DA5" cx="111.12" cy="160.32" rx="10.51" ry="10.51"/><circle fill="#FFF" cx="111.13" cy="160.31" r="8.49"/><linearGradient id="I" gradientUnits="userSpaceOnUse" x1="513.339" y1="-17.817" x2="524.043" y2="-7.114" gradientTransform="matrix(-1 0 0 1 633.382 169.226)"><stop offset="0" style="stop-color:#979DA5"/><stop offset="1" style="stop-color:#FFFFFF"/></linearGradient><path opacity=".3" fill="url(#I)" d="M109.78,153.17c4.69,0,8.49,3.8,8.49,8.5	c0,1.92-0.65,3.78-1.85,5.29c3.68-2.91,4.29-8.26,1.38-11.93s-8.26-4.29-11.93-1.38c-0.51,0.4-0.97,0.87-1.38,1.38	C105.99,153.82,107.86,153.17,109.78,153.17z"/><path fill="none" stroke="#686C71" stroke-width="1.482" stroke-linecap="round" stroke-miterlimit="10" d="M105.87,161.94	l5.94-0.96 M113.6,156.57l-1.8,4.41"/><ellipse transform="matrix(0.7071 -0.7071 0.7071 0.7071 -84.8566 135.4117)" fill="#FFF" cx="121.03" cy="170.14" rx=".72" ry=".72"/><ellipse transform="matrix(0.7071 -0.7071 0.7071 0.7071 -86.1733 138.592)" fill="#FFF" cx="124.21" cy="173.32" rx=".72" ry=".72"/><ellipse transform="matrix(0.7071 -0.7071 0.7071 0.7071 -87.49 141.7723)" fill="#FFF" cx="127.39" cy="176.5" rx=".72" ry=".72"/><path fill="#DADCE0" d="M275.55,167.49c-0.53,0.53-1.4,0.53-1.93,0s-0.54-1.4,0-1.93c0.53-0.53,1.4-0.53,1.93,0	S276.08,166.95,275.55,167.49z"/><path fill="#BABFC5" d="M293.38,58.41c-10.32-10.32-10.34-27.1-0.06-37.45l0.02-0.02l0.01-0.01l0.01-0.01l0.02-0.02 c10.35-10.28,27.13-10.26,37.45,0.06c4.36,4.35,7.06,10.08,7.63,16.21h0.01L342.42,70l-32.83-3.95v-0.01 C303.67,65.48,297.91,62.94,293.38,58.41L293.38,58.41z"/><path fill="#959CA5" d="M312.08,54.22c-3.87,0-7.51-1.51-10.25-4.25c-2.73-2.71-4.26-6.4-4.25-10.25c0-3.87,1.51-7.52,4.25-10.25 c2.74-2.74,6.38-4.25,10.25-4.25c0.41,0,0.75,0.34,0.75,0.75s-0.34,0.75-0.75,0.75c-3.47,0-6.74,1.35-9.19,3.81 c-2.45,2.43-3.82,5.74-3.81,9.19c0,3.47,1.35,6.74,3.81,9.19s5.72,3.81,9.19,3.81s6.74-1.35,9.19-3.81 c5.07-5.07,5.07-13.32,0-18.39c-1.24-1.24-2.69-2.2-4.3-2.86c-0.38-0.16-0.57-0.59-0.41-0.98s0.59-0.57,0.98-0.41 c1.8,0.73,3.41,1.8,4.8,3.19c5.65,5.65,5.65,14.85,0,20.51C319.59,52.71,315.95,54.22,312.08,54.22z"/><path fill="#FFF" d="M309.54,88.69l-32.75,32.75l0.09-1.18c0.61-8.01,4.16-15.64,10-21.48s13.47-9.39,21.48-10L309.54,88.69z"/><path fill="none" d="M312.9,92.05l-3.35-3.35L312.9,92.05z"/><path fill="#7F8791" d="M277.2,128.52c-0.46,0.46-0.46,1.22,0,1.68c0.23,0.23,0.54,0.35,0.84,0.35s0.61-0.12,0.84-0.35l3.34-3.34 l-1.68-1.68L277.2,128.52z M318.03,91c0.46-0.46,0.46-1.22,0-1.68c-0.23-0.23-0.54-0.35-0.84-0.35s-0.61,0.12-0.84,0.35l-3.08,3.08 l1.68,1.68L318.03,91z"/><path fill="#BABFC5" d="M313.26,92.41l1.68,1.68l29.54,29.53l-29.54-29.53L313.26,92.41l-0.36-0.36l-3.35-3.35L313.26,92.41z M309.55,88.7l-0.01-0.01L309.55,88.7z M344.48,130.95c2.02-2.03,2.02-5.3,0-7.33C346.5,125.64,346.5,128.92,344.48,130.95 L344.48,130.95z M276.81,121.42l-0.02,0.02l3.75,3.75l1.68,1.68l29.51,29.51c0.97,0.97,2.29,1.52,3.67,1.52 c0.5,0,0.99-0.09,1.47-0.24c0.8-0.24,1.56-0.65,2.19-1.28l25.42-25.42c0.97-0.97,1.52-2.29,1.52-3.67c0-1.33-0.51-2.65-1.52-3.67 l-29.53-29.53l-1.68-1.68l-3.71-3.71l-0.01-0.01l-0.01,0.01L276.81,121.42L276.81,121.42z M312.68,94.54 c0.21,0.21,0.21,0.54,0,0.75l-29.07,29.06c-0.1,0.1-0.24,0.16-0.38,0.16s-0.27-0.05-0.38-0.16c-0.21-0.2-0.21-0.53-0.01-0.74l0,0 c0,0,0.01,0,0.01-0.01l29.07-29.06C312.13,94.33,312.47,94.33,312.68,94.54z"/><linearGradient id="J" gradientUnits="userSpaceOnUse" x1="217.878" y1="-58.23" x2="304.749" y2="-58.23" gradientTransform="matrix(1 0 0 1 3.155 181.525)"><stop offset="0" style="stop-color:#6E767F"/><stop offset="1" style="stop-color:#BABFC5"/></linearGradient><path fill="url(#J)" d="M276.81,121.42l-0.02,0.02l3.75,3.75l1.68,1.68l29.51,29.51c0.97,0.97,2.29,1.52,3.67,1.52 c0.5,0,0.99-0.09,1.47-0.24c0.8-0.24,1.56-0.65,2.19-1.28l25.42-25.42c0.97-0.97,1.52-2.29,1.52-3.67c0-1.33-0.51-2.65-1.52-3.67 l-29.53-29.53l-1.68-1.68l-3.71-3.71l-0.01-0.01l-0.01,0.01L276.81,121.42L276.81,121.42z M312.68,94.54 c0.21,0.21,0.21,0.54,0,0.75l-29.07,29.06c-0.1,0.1-0.24,0.16-0.38,0.16s-0.27-0.05-0.38-0.16c-0.21-0.2-0.21-0.53-0.01-0.74l0,0 c0,0,0.01,0,0.01-0.01l29.07-29.06C312.13,94.33,312.47,94.33,312.68,94.54z"/><path fill="#E1E2E6" d="M282.86,124.35c0.1,0.1,0.24,0.16,0.38,0.16s0.27-0.05,0.38-0.16l29.07-29.06c0.21-0.21,0.21-0.54,0-0.75 s-0.54-0.21-0.75,0l-29.07,29.06C282.65,123.81,282.65,124.15,282.86,124.35z"/><ellipse transform="matrix(0.7071 -0.7071 0.7071 0.7071 14.6719 230.2299)" fill="#7F8791" cx="285.25" cy="97.4" rx="2.12" ry="2.12"/><g><path fill="#BABFC5" d="M50.09,95.31c1.86,0,4.05,1.05,5.48,2.45L43.13,85.29L19.62,108.8l6.96,6.96l18.29-18.29 C46.25,96.08,48.13,95.31,50.09,95.31z M43.41,93.87c-1.03,0.02-1.88-0.8-1.91-1.83s0.8-1.88,1.83-1.91s1.88,0.8,1.91,1.83 S44.44,93.85,43.41,93.87z"/><linearGradient id="K" gradientUnits="userSpaceOnUse" x1="-3108.606" y1="2343.374" x2="-3107.606" y2="2343.374" gradientTransform="matrix(-21.2083 21.2083 21.2083 21.2083 -115554.6875 16328.25)"><stop offset="0" style="stop-color:#BABFC5"/><stop offset="1" style="stop-color:#95999F"/></linearGradient><path fill="url(#K)" d="M58.21,100.37l-5.66,4.6h0.18c3.61,0,7.03,1.38,9.63,3.87c2.68,2.57,4.2,6.04,4.28,9.75v0.26 l8.88-11.25L63.77,95.85L58.21,100.37z"/><path fill="#979DA5" d="M58.56,112.72c-2.14-2.06-5-3.21-7.98-3.21c-2.47,0-4.94,0.79-7,2.36l0.28-0.33 c-3.83,4.61-3.5,11.46,0.89,15.68c2.24,2.14,5.11,3.21,7.98,3.21c2.49,0,4.97-0.81,7.03-2.41 C63.26,123.41,62.83,116.81,58.56,112.72z"/><path fill="#9198A2" d="M62.58,109.01c-5.44-5.44-14.26-5.44-19.7,0s-5.44,14.26,0,19.7s14.26,5.44,19.7,0 S68.02,114.45,62.58,109.01z M44.6,126.99c-4.49-4.49-4.49-11.78,0-16.27s11.78-4.49,16.27,0s4.49,11.78,0,16.27 S49.09,131.48,44.6,126.99z"/><linearGradient id="L" gradientUnits="userSpaceOnUse" x1="47.291" y1="300.78" x2="47.291" y2="287.734" gradientTransform="matrix(0.7071 0.7071 -0.7071 0.7071 230.8875 -126.1758)"><stop offset="0" style="stop-color:#979DA5"/><stop offset="1" style="stop-color:#797E85"/></linearGradient><path fill="url(#L)" d="M58.69,112.9c4.12,4.12,4.45,10.59,1.01,15.1c0.41-0.31,0.8-0.64,1.17-1.01 c4.49-4.49,4.49-11.78,0-16.27s-11.78-4.49-16.27,0c-0.37,0.37-0.7,0.77-1.01,1.17C48.1,108.45,54.57,108.78,58.69,112.9z"/><linearGradient id="M" gradientUnits="userSpaceOnUse" x1="-3167.784" y1="2325.348" x2="-3166.784" y2="2325.348" gradientTransform="matrix(-34.5153 -34.5153 -34.5153 34.5153 -29008.8828 -189463.3906)"><stop offset="0" style="stop-color:#BABFC5"/><stop offset="1" style="stop-color:#A7ACB2"/></linearGradient><path fill="url(#M)" d="M71.06,113.25l-1.97,2.51l-2.39,3.02c0.03,3.6-1.32,7.22-4.07,9.96c-5.44,5.44-14.26,5.44-19.7,0 s-5.44-14.26,0-19.7c2.66-2.66,6.12-4.01,9.6-4.07l5.66-4.6l-2.96-2.96c-1.43-1.4-3.3-2.1-5.16-2.1c-1.89,0-3.78,0.72-5.22,2.16 l-18.29,18.29l31.43,31.43l23.51-23.51L71.06,113.25L71.06,113.25z"/><path fill="#FFF" d="M43.41,93.87c-1.03,0.02-1.88-0.8-1.91-1.83s0.8-1.88,1.83-1.91s1.88,0.8,1.91,1.83 S44.44,93.85,43.41,93.87z"/></g><g><ellipse transform="matrix(0.7071 -0.7071 0.7071 0.7071 -50.7719 196.4796)" fill="#FFF" cx="211.79" cy="159.53" rx=".97" ry=".97"/><path fill="#FFF" d="M256.94,138.42l-30.18-30.18c-5.8-5.8-15.21-5.8-21.01,0l-15.82,15.82c-5.8,5.8-5.8,15.21,0,21.01 l30.18,30.18c5.8,5.8,15.21,5.8,21.01,0l15.82-15.82C262.74,153.63,262.74,144.22,256.94,138.42z"/><linearGradient id="N" gradientUnits="userSpaceOnUse" x1="1738.43" y1="-1597.455" x2="1738.43" y2="-1511.276" gradientTransform="matrix(0.7071 0.7071 -0.7071 0.7071 -2124.2537 30.9455)"><stop offset="0" style="stop-color:#E7EBED"/><stop offset="1" style="stop-color:#FFFFFF"/></linearGradient><path fill="url(#N)" d="M256.92,138.44l-30.18-30.18c-5.8-5.8-15.21-5.8-21.01,0l-15.82,15.82c-5.8,5.8-5.8,15.21,0,21.01 l30.18,30.18c5.8,5.8,15.21,5.8,21.01,0l15.82-15.82C262.72,153.65,262.72,144.24,256.92,138.44L256.92,138.44z"/><path fill="#FFF" d="M204.82,159.99l20.6-20.6l0.77,0.77l-20.6,20.6L204.82,159.99z"/><ellipse transform="matrix(0.7071 -0.7071 0.7071 0.7071 -43.7116 199.7082)" fill="#FFF" cx="219.21" cy="152.62" rx=".97" ry=".97"/><ellipse transform="matrix(0.7071 -0.7071 0.7071 0.7071 -50.0928 196.1924)" fill="#FFF" cx="211.78" cy="158.56" rx=".94" ry=".94"/><path fill="#FFF" d="M234.02,108.03l-0.64-0.04c-9.22-0.52-17.12,6.53-17.65,15.75l-0.87,15.29l17.34,0.99L234.02,108.03 L234.02,108.03z"/><path fill="#FFF" d="M257.5,131.51l0.04,0.64c0.52,9.22-6.53,17.12-15.75,17.65l-15.29,0.87l-0.99-17.34L257.5,131.51 L257.5,131.51z"/><path fill="#E1E2E6" d="M241.1,139.54l-15.15-15.15c-3.68-3.68-3.68-9.65,0-13.33l0.51-0.51c3.68-3.68,9.65-3.68,13.33,0 l15.15,15.15c3.68,3.68,3.68,9.65,0,13.33l-0.51,0.51C250.75,143.22,244.78,143.22,241.1,139.54L241.1,139.54z"/><linearGradient id="O" gradientUnits="userSpaceOnUse" x1="224.06" y1="1026.678" x2="257.545" y2="1026.678" gradientTransform="matrix(1 0 0 1 0 -902)"><stop offset="0" style="stop-color:#E1E2E6"/><stop offset="1" style="stop-color:#BFC0C5"/></linearGradient><path fill="url(#O)" d="M234.69,116.15l14.64,14.64c2.79,2.79,3.63,6.98,2.14,10.63 c1.2-0.49,2.29-1.22,3.21-2.14c3.82-3.82,3.82-10.02,0-13.84l-14.64-14.64c-3.82-3.82-10.02-3.82-13.84,0 c-0.95,0.95-1.66,2.04-2.14,3.21C227.6,112.57,231.82,113.28,234.69,116.15L234.69,116.15z"/><path fill="#E1E2E6" d="M223.33,117.8l0.01,15.85c0,4.75,3.87,8.58,8.61,8.56l16.13-0.09C248.08,142.12,223.33,117.8,223.33,117.8z"/><path fill="#FFF" d="M240.32,131.11c-0.14,0-0.28-0.05-0.39-0.16l-5.44-5.44c-0.21-0.22-0.21-0.56,0-0.78l3.93-3.93 c0.21-0.21,0.56-0.21,0.77,0l5.44,5.44c0.21,0.21,0.21,0.56,0,0.77l-3.93,3.93C240.6,131.05,240.46,131.11,240.32,131.11 L240.32,131.11z"/><path transform="matrix(0.7071 -0.7071 0.7071 0.7071 -18.8432 206.2567)" fill="#E1E2E6" d="M237.32 122.57H241.79V129.17H237.32z"/><path fill="#979DA5" d="M275.23,166.22c-0.27,0-0.48-0.21-0.48-0.48c0-0.14,0.06-0.27,0.16-0.36c2.78-2.51,4.49-6.75,4.24-10.56 c-0.24-3.75-2.43-7.23-5.73-9.06c-3.56-1.98-8.4-2.12-13.3-0.37c-0.94,0.33-1.65,0.8-2.33,1.25c-0.86,0.56-1.75,1.14-3.04,1.46 c-1.46,0.4-3.02-0.11-3.97-1.29c-0.16-0.22-0.11-0.52,0.1-0.68c0.21-0.16,0.51-0.12,0.68,0.1c0.05,0.06,1.09,1.39,2.97,0.93 c1.14-0.28,1.92-0.79,2.74-1.33c0.73-0.48,1.49-0.97,2.54-1.35c5.16-1.84,10.3-1.68,14.1,0.44c3.58,2,5.96,5.77,6.22,9.85 c0.26,4.15-1.53,8.6-4.56,11.34C275.47,166.18,275.35,166.22,275.23,166.22L275.23,166.22z"/><path fill="#FFF" d="M280.95,179.48c-1.18,0-2.18-0.88-2.33-2.05c-0.08-0.62,0.08-1.24,0.47-1.73c0.78-1.04,2.26-1.24,3.3-0.46 c0.99,0.75,1.23,2.14,0.54,3.18c-0.04,0.05-0.07,0.1-0.11,0.15c-0.38,0.5-0.94,0.82-1.56,0.9 C281.15,179.47,281.05,179.48,280.95,179.48L280.95,179.48z M280.95,175.75c-0.06,0-0.12,0-0.18,0.01 c-0.37,0.05-0.69,0.24-0.92,0.53c-0.44,0.62-0.29,1.49,0.33,1.93c0.59,0.42,1.41,0.31,1.87-0.25c0.22-0.29,0.32-0.65,0.28-1.02 C282.23,176.25,281.63,175.75,280.95,175.75L280.95,175.75z M288.68,178.06c-1.18,0-2.18-0.88-2.33-2.05 c-0.08-0.62,0.08-1.24,0.47-1.74c0.38-0.5,0.94-0.82,1.56-0.9c1.27-0.18,2.47,0.74,2.64,2.03c0.08,0.62-0.08,1.24-0.47,1.73 c-0.38,0.5-0.94,0.82-1.56,0.9C288.88,178.05,288.78,178.06,288.68,178.06L288.68,178.06z M287.31,175.89 c0.1,0.75,0.8,1.29,1.55,1.19c0.37-0.05,0.69-0.24,0.92-0.53c0.22-0.29,0.32-0.65,0.27-1.02c-0.1-0.75-0.8-1.28-1.55-1.19 c-0.37,0.05-0.69,0.24-0.92,0.53C287.36,175.16,287.26,175.52,287.31,175.89z M286.08,183.96c-0.23,0-0.43-0.16-0.47-0.4 l-2.57-14.01c-0.05-0.26,0.12-0.51,0.39-0.56c0.26-0.05,0.52,0.12,0.56,0.39l2.57,14.01c0.05,0.26-0.12,0.51-0.39,0.56 C286.14,183.96,286.11,183.96,286.08,183.96z"/></g></svg>
