<svg xmlns="http://www.w3.org/2000/svg" xml:space="preserve" width="320" height="150"><linearGradient id="a" x1="193.616" x2="162.646" y1="63.113" y2="51.499" gradientUnits="userSpaceOnUse"><stop offset="0" style="stop-color:#3C4043;stop-opacity:0.48"/><stop offset="1" style="stop-color:#E8EAED;stop-opacity:0"/></linearGradient><path fill="url(#a)" d="M216.2 57.31 138.42 57.31 133.07 52.14 204.07 52.14z"/><linearGradient id="b" x1="227.717" x2="296.251" y1="54.457" y2="54.457" gradientUnits="userSpaceOnUse"><stop offset=".006" style="stop-color:#3C4043;stop-opacity:0.48"/><stop offset="1" style="stop-color:#E8EAED;stop-opacity:0"/></linearGradient><path fill="url(#b)" d="M307.82 57.04 230.04 57.04 224.7 51.87 295.69 51.87z"/><radialGradient id="c" cx="219.289" cy="57.011" r="47.221" gradientTransform="matrix(1 0 0 .4485 0 31.442)" gradientUnits="userSpaceOnUse"><stop offset=".224" style="stop-color:#5F6368"/><stop offset=".556" style="stop-color:#3D3F43;stop-opacity:0.5711"/><stop offset=".829" style="stop-color:#28292C;stop-opacity:0.2208"/><stop offset="1" style="stop-color:#202124;stop-opacity:0"/></radialGradient><path fill="url(#c)" d="M171.03,57.11V82.6h100.59V57.11H171.03z M251.57,66.33h-6.73l0.32-0.52h-2.11l-2.48,3.99l-0.49,0.79	h-50.34l0.49-0.79l2.65-4.27l2.34-3.77c-0.06-0.01-0.11-0.01-0.17-0.02c-3.49-0.46-4.7-1.61-4.86-1.77c-2.4,0.49-5.37,0.44-7.6-0.13	c-2.16-0.55-3.37-1.57-2.97-2.52l18.22-0.01l0.39,0.01l20.7,0.07l0-0.01h8.91l0,0.01h20.43l-3.26,5.24h2.11l0.45-0.73h6.73	L251.57,66.33z"/><path fill="#5F6368" d="M179.64,57.31c-0.4-2.47,0.77-4.96,2.93-6.5c2.23-1.59,5.21-1.74,7.6-0.37c0.16-0.44,1.36-3.65,4.86-4.92	c3.85-1.39,7.1,0.81,7.41,1.02c3.15-2.99,7.76-3.75,11.49-1.91c3.21,1.57,5.32,4.84,5.56,8.51c1.71-2.12,4.35-3.17,6.88-2.7	c2.71,0.5,4.18,2.54,4.49,3c0.26-0.13,2.71-1.37,5.35-0.09c2.54,1.24,3.11,3.91,3.18,4.06L179.64,57.31z"/><linearGradient id="d" x1="138.899" x2="161.815" y1="138.132" y2="48.089" gradientTransform="matrix(-1 0 0 1 368.965 0)" gradientUnits="userSpaceOnUse"><stop offset="0" style="stop-color:#202124"/><stop offset="1" style="stop-color:#202124;stop-opacity:0"/></linearGradient><path fill="url(#d)" d="M179.64,57.32c-0.4-2.64,0.77-4.96,2.93-6.5c2.23-1.59,5.21-1.74,7.6-0.37	c0.16-0.44,1.36-3.65,4.86-4.92c3.85-1.39,7.1,0.81,7.41,1.02c3.15-2.99,7.76-3.75,11.49-1.91c3.21,1.57,5.32,4.84,5.56,8.51	c1.71-2.12,4.35-3.17,6.88-2.7c2.71,0.5,4.18,2.54,4.49,3c0.26-0.13,2.71-1.37,5.35-0.09c2.37,1.15,3.11,3.73,3.17,4.04	L179.64,57.32z"/><path fill="#9AA0A6" d="M250.7 26.05 250.7 27.88 248.27 27.88 248.27 28.43 250.7 28.43 250.7 38.46 247.65 38.46 247.65 39.01 250.7 39.01 250.7 41.56 257.43 41.56 257.43 26.05z"/><path fill="#9AA0A6" d="M198.25 11.13H248.59V57.38H198.25z"/><path fill="none" stroke="#202124" stroke-miterlimit="10" stroke-width=".5" d="M198.25 13.19c16.78 0 33.56 0 50.34 0M198.25 29.73c16.78 0 33.56 0 50.34 0"/><path fill="#8AB4F8" d="M198.25 13.91H248.59V28.86H198.25z"/><path fill="none" stroke="#202124" stroke-miterlimit="10" stroke-width=".5" d="M198.25 52.07 219.23 52.07M228.13 52.07 248.59 52.07M232.7 33.65H244.82V51.95H232.7zM202.56 33.71H214.68V52.01H202.56zM219.25 57.4V37.53c0-2.41 1.99-4.37 4.45-4.37l0 0c2.46 0 4.45 1.96 4.45 4.37V57.4"/><radialGradient id="e" cx="255.584" cy="-71.343" r="115.279" gradientUnits="userSpaceOnUse"><stop offset="0" style="stop-color:#3C4043"/><stop offset=".59" style="stop-color:#ADAFB0;stop-opacity:0.4105"/><stop offset="1" style="stop-color:#FFFFFF;stop-opacity:0"/></radialGradient><path fill="url(#e)" d="M250.7,26.04v1.83h-2.11V13.9v-2.78h-50.34v2.78v14.95v28.51h21v0.02h8.91v-0.02	h20.43V39.01h2.11v2.55h6.73V26.04H250.7z M248.59,38.45v-9.6v-0.43h2.11v10.03H248.59z" opacity=".24"/><linearGradient id="f" x1="679.296" x2="672.228" y1="-1042.719" y2="-1025.358" gradientTransform="rotate(-41.043 1845.435 137.042)" gradientUnits="userSpaceOnUse"><stop offset="0" style="stop-color:#202124"/><stop offset="1" style="stop-color:#202124;stop-opacity:0"/></linearGradient><path fill="url(#f)" d="M190.68,34.54c0.27-0.39,1.2-4.41,1.2-4.41l5.46-6.89l6.9,4.32l1.27,7.36L190.68,34.54z"/><path fill="#3C4043" d="M157.36 43.48 161.83 51.41 164.13 43.3z"/><path fill="#FDD663" d="M166.92 43 172.74 50 173.53 41.6z"/><path fill="#8AB4F8" d="M186.77 34.5 194.95 38.48 191.88 30.13z"/><path fill="#F28B82" d="M177.86 39.94 184.86 45.76 184.06 36.94z"/><path fill="#3C4043" d="M150.4,42.67c6.71,0.9,22.2,1.73,34.79-7.03c10.32-7.19,19.04-24.33,19.12-24.5l0.55,0	c-0.09,0.17-8.97,17.65-19.39,24.9c-8.91,6.2-19.25,7.65-26.98,7.65c-3.37,0-6.25-0.28-8.29-0.55L150.4,42.67z"/><path fill="#81C995" d="M195.3 25.88 204.25 27.56 199.5 20.58z"/><linearGradient id="g" x1="2534.97" x2="2527.903" y1="572.784" y2="590.145" gradientTransform="scale(-1 1) rotate(-41.043 391.774 4020.637)" gradientUnits="userSpaceOnUse"><stop offset="0" style="stop-color:#202124"/><stop offset="1" style="stop-color:#202124;stop-opacity:0"/></linearGradient><path fill="url(#g)" d="M256.19,34.54c-0.27-0.39-1.2-4.41-1.2-4.41l-5.46-6.89l-6.9,4.32l-1.27,7.36L256.19,34.54z"/><path fill="#3C4043" d="M289.51 43.48 285.05 51.41 282.74 43.3z"/><path fill="#81C995" d="M279.96 43 274.14 50 273.34 41.6z"/><path fill="#F28B82" d="M260.11 34.5 251.92 38.48 254.99 30.13z"/><path fill="#8AB4F8" d="M269.01 39.94 262.02 45.76 262.81 36.94z"/><path fill="#3C4043" d="M288.38,43.69c-7.73,0-18.07-1.45-26.98-7.65c-10.43-7.26-19.3-24.73-19.39-24.9h0.57	c0.09,0.17,8.78,17.32,19.1,24.5c16.48,11.47,37.94,6.51,38.15,6.46l0.11,0.48C299.84,42.59,295.1,43.69,288.38,43.69z"/><path fill="#FDD663" d="M251.57 25.88 242.63 27.56 247.37 20.58z"/><ellipse cx="223.91" cy="108.85" fill="#3C4043" rx="9.56" ry="9.87"/><linearGradient id="h" x1="245.727" x2="226.1" y1="83.158" y2="117.016" gradientUnits="userSpaceOnUse"><stop offset="0" style="stop-color:#202124"/><stop offset="1" style="stop-color:#202124;stop-opacity:0"/></linearGradient><path fill="url(#h)" d="M233.47,108.85c0-0.17-0.02-0.34-0.03-0.51c-0.1-0.34-0.18-0.55-0.18-0.55l-12.12,10.51	c0.88,0.27,1.8,0.42,2.77,0.42C229.19,118.72,233.47,114.3,233.47,108.85z"/><path fill="none" stroke="#71757A" stroke-linecap="round" stroke-miterlimit="10" stroke-width=".47" d="M223.52 108.53 223.52 123.29M225.83 110.88 223.56 113.15"/><path fill="#3C4043" d="M101.27 112.6 95.02 109.22 95.02 96.14 95.05 96.14 83.24 82.75 47.49 82.81 36.57 96.11 36.57 118.81 101.27 118.79z"/><linearGradient id="i" x1="48.276" x2="47.871" y1="78.578" y2="119.465" gradientUnits="userSpaceOnUse"><stop offset="0" style="stop-color:#202124"/><stop offset="1" style="stop-color:#202124;stop-opacity:0"/></linearGradient><path fill="url(#i)" d="M56.47 118.8 36.57 118.81 36.57 96.23 59.63 96.23 59.3 97.62"/><path fill="#202124" d="M59.83 118.8 59.31 118.8 59.31 96.39 47.32 83.01 47.49 82.81 47.84 82.81 59.83 96.19z"/><path fill="#202124" d="M59.69 96.1H95.02V96.62H59.69z"/><path fill="#202124" d="M68.36 96.49c-.07 0-.14-.03-.19-.08l-9.58-10.49c-.1-.11-.09-.27.02-.37.11-.1.27-.09.37.02l9.58 10.49c.1.11.09.27-.02.37C68.48 96.47 68.42 96.49 68.36 96.49zM68.31 82.77l6.03 6.32c.1.1.09.27-.01.37-.05.05-.11.07-.18.07-.07 0-.14-.03-.19-.08l-6.37-6.68L68.31 82.77zM87.15 93.68c-.07 0-.14-.03-.2-.09l-4.15-4.82c-.09-.11-.08-.27.03-.36.11-.09.27-.08.36.03l4.15 4.82c.09.11.08.27-.03.36C87.27 93.66 87.21 93.68 87.15 93.68zM62.82 118.81 62.3 118.81 62.3 100.43 95.02 100.43 95.02 100.94 62.82 100.94z"/><path fill="#202124" d="M72.68 118.8v-18.05c0-.14.12-.26.26-.26s.26.12.26.26v18.05M80.25 110.13c-.14 0-.26-.11-.26-.26l-.06-9.19c0-.14.11-.26.26-.26 0 0 0 0 0 0 .14 0 .26.11.26.26l.06 9.19C80.51 110.02 80.4 110.13 80.25 110.13 80.26 110.13 80.26 110.13 80.25 110.13zM87.88 110.2c-.14 0-.26-.12-.26-.26v-9.14c0-.14.12-.26.26-.26s.26.12.26.26v9.14C88.14 110.09 88.02 110.2 87.88 110.2zM78.35 118.79v-6.46c0-.14.12-.26.26-.26s.26.12.26.26v6.46M90.25 118.79v-6.05c0-.14.12-.26.26-.26s.26.12.26.26v6.05"/><path fill="none" d="M101.27 112.6 95.02 109.21 95.02 96.14 95.05 96.14 83.24 82.75 47.49 82.81 36.57 96.11 36.57 118.81 101.27 118.79z"/><path fill="#F28B82" d="M44.47 96.23 40.57 111.06 43.95 111.06 47.85 96.23zM40.26 96.23 36.36 111.06 40.11 111.06 44.01 96.23zM36.57 96.23 32.3 111.06 35.9 111.06 39.8 96.23zM48.31 96.23 44.42 111.06 48.22 111.06 52.12 96.23zM52.59 96.23 48.69 111.06 52.37 111.06 56.27 96.23zM59.63 96.23 56.73 96.23 52.84 111.06 56.09 111.06z"/><path fill="#202124" d="M39.8 96.23 35.9 111.06 36.36 111.06 40.26 96.23zM44.01 96.23 40.11 111.06 40.57 111.06 44.47 96.23zM47.85 96.23 43.95 111.06 44.42 111.06 48.31 96.23zM52.12 96.23 48.22 111.06 48.69 111.06 52.59 96.23zM56.27 96.23 52.37 111.06 52.84 111.06 56.73 96.23z"/><path fill="#3C4043" fill-rule="evenodd" d="M44.27,118.81H15.2c0,0,2.33-6.24,9.22-3.71	c0,0,2.24-3.52,5.89-3.32c3.6,0.19,4.65,3.71,4.65,3.71S41.69,112.36,44.27,118.81z" clip-rule="evenodd" opacity=".48"/><radialGradient id="j" cx="48.761" cy="118.689" r="47.401" gradientTransform="matrix(1 0 0 .4485 0 65.457)" gradientUnits="userSpaceOnUse"><stop offset="0" style="stop-color:#5F6368"/><stop offset=".275" style="stop-color:#4A4D52;stop-opacity:0.7249"/><stop offset=".743" style="stop-color:#2C2D31;stop-opacity:0.2566"/><stop offset="1" style="stop-color:#202124;stop-opacity:0"/></radialGradient><path fill="url(#j)" d="M100.92,144.41H0.34V118.8l100.59,0.01V144.41z M99.27,122.01l2-3.22l-64.7,0.02l0,0l0,0l-21.36,0	c0,0,0.37,3.25,8.08,1.95c0,0,1.09,1.81,4.81,1.71c3.66-0.1,5.86-1.91,5.86-1.91s0.52,0.14,1.36,0.26l-1.26,1.99h-4.15l-0.55,7.42	l-0.01,0.46l6.41,6.68l35.73,0.03l16.18-6.9h-0.03l4.27-6.74L99.27,122.01z"/><linearGradient id="k" x1="113.682" x2="161.569" y1="90.325" y2="134.435" gradientUnits="userSpaceOnUse"><stop offset="0" style="stop-color:#3C4043;stop-opacity:0.48"/><stop offset="1" style="stop-color:#E8E9EB;stop-opacity:0"/></linearGradient><path fill="url(#k)" d="M159.67 138.97 40.19 23.38 43.79 19.66 167.11 138.97z"/><linearGradient id="l" x1="71.644" x2="140.178" y1="46.274" y2="46.274" gradientUnits="userSpaceOnUse"><stop offset=".006" style="stop-color:#3C4043;stop-opacity:0.48"/><stop offset="1" style="stop-color:#E8E9EB;stop-opacity:0"/></linearGradient><path fill="url(#l)" d="M151.75 48.86 73.97 48.86 68.62 43.69 139.61 43.69z"/><linearGradient id="m" x1="117.804" x2="262.3" y1="93.854" y2="93.854" gradientUnits="userSpaceOnUse"><stop offset="0" style="stop-color:#3C4043;stop-opacity:0.48"/><stop offset="1" style="stop-color:#E8E9EB;stop-opacity:0"/></linearGradient><path fill="url(#m)" d="M262.3 96.44 123.15 96.44 117.8 91.27 262.3 91.27z"/><g fill="none" stroke="#202124" stroke-linecap="round" stroke-miterlimit="10" stroke-width=".941"><path d="M56.86 35.87 57.87 36.85"/><path stroke-dasharray="2.8622,2.8622" d="M59.93 38.85 116.68 93.85 173.6 93.85"/><path d="M175.03 93.85 176.44 93.85"/></g><linearGradient id="n" x1="89.72" x2="12.423" y1="72.166" y2="72.166" gradientUnits="userSpaceOnUse"><stop offset="0" style="stop-color:#3C4043;stop-opacity:0.48"/><stop offset="1" style="stop-color:#E8E9EB;stop-opacity:0"/></linearGradient><path fill="url(#n)" d="M93.29 74.75 8.9 74.75 2 69.58 87.95 69.58z"/><path fill="#3C4043" d="M9.71 25.77 27.89 12.9 44.89 12.9 63.38 25.77 61.02 31.62 61.02 59.58 67.39 59.58 70.58 62.58 61.02 62.58 11.84 62.58 11.71 62.58 11.71 31.57 11.74 31.57z"/><radialGradient id="o" cx="37.287" cy="62.495" r="36.743" gradientTransform="matrix(1 0 0 .4485 0 34.466)" gradientUnits="userSpaceOnUse"><stop offset=".257" style="stop-color:#5F6368"/><stop offset=".379" style="stop-color:#54585C;stop-opacity:0.8362"/><stop offset="1" style="stop-color:#202124;stop-opacity:0"/></radialGradient><path fill="url(#o)" d="M77.36,83.68H0.34V62.58h77.02V83.68z M4.86,71.87L20.1,77.5h17l21.43-5.63l-0.27-4l1.69-3.25h6.37	l4.26-2.05h-9.56H11.84h-0.14L8.93,67.9h0.03L4.86,71.87z"/><path fill="#FDD663" d="M31.99 31.77H55.22V59.25H31.99z"/><linearGradient id="p" x1="59.562" x2="33.42" y1="-74.955" y2="45.146" gradientUnits="userSpaceOnUse"><stop offset="0" style="stop-color:#202124"/><stop offset="1" style="stop-color:#202124;stop-opacity:0"/></linearGradient><path fill="url(#p)" d="M61.02 31.62 11.71 31.62 11.71 58.09 51.14 58.09z"/><path fill="#FDD663" d="M18.58 48.36H25.66V58.68H18.58z"/><path fill="#202124" d="M11.71 31.83 11.65 31.32 61.16 31.25 61.02 31.76z"/><path fill="#202124" d="M28.38 31.54 27.54 25.4 44.9 12.9 45.35 13.22 28.1 25.64 28.89 31.47z"/><path fill="#202124" d="M63.29 25.99 9.78 25.98 9.71 25.77 10.14 25.47 62.94 25.47 63.38 25.77zM18.04 31.51H18.56V62.58H18.04zM25.66 31.44H26.18V62.58H25.66zM31.7 59.11H61.02V59.63H31.7z"/><path fill="#202124" d="M53.1 59.58h-9.15V45.27c0-2.82 1.96-5.11 4.36-5.11h.43c2.41 0 4.36 2.29 4.36 5.11V59.58zM44.46 59.07h8.12v-13.8c0-2.53-1.72-4.6-3.84-4.6h-.43c-2.12 0-3.84 2.06-3.84 4.6V59.07zM42.58 59.62h-9.15V45.47c0-2.82 1.96-5.11 4.36-5.11h.43c2.41 0 4.36 2.29 4.36 5.11V59.62zM33.95 59.11h8.12V45.47c0-2.53-1.72-4.6-3.84-4.6h-.43c-2.12 0-3.84 2.06-3.84 4.6V59.11zM18.33 47.81H25.94V48.33H18.33zM18.24 58.6H25.9V59.12H18.24z"/><path fill="none" d="M9.71 25.77 27.89 12.9 44.89 12.9 63.38 25.77 61.02 31.62 61.02 59.58 67.39 59.58 70.58 62.58 61.02 62.58 11.84 62.58 11.71 62.58 11.71 31.57 11.74 31.57z"/><path fill="#3C4043" d="M303.1,107.24V76.4h-19.6V76.4c-9.03,0-17.6,3.52-24.75,9.52h-25.52v37.66h80.45v-8.66h3.77L303.1,107.24z"/><linearGradient id="q" x1="275.346" x2="275.346" y1="27.456" y2="109.752" gradientUnits="userSpaceOnUse"><stop offset="0" style="stop-color:#FFFFFF"/><stop offset="1" style="stop-color:#FFFFFF;stop-opacity:0"/></linearGradient><path fill="url(#q)" d="M303.1,107.24V76.4h-19.6V76.4c-9.03,0-17.6,3.52-24.75,9.52h-25.52v37.66h80.45v-8.66h3.77	L303.1,107.24z"/><linearGradient id="r" x1="306.401" x2="296.79" y1="76.959" y2="123.194" gradientUnits="userSpaceOnUse"><stop offset="0" style="stop-color:#202124"/><stop offset="1" style="stop-color:#202124;stop-opacity:0"/></linearGradient><path fill="url(#r)" d="M313.69 115.21 310.19 123.58 283.75 123.58 283.41 114.26 285.47 115.2z"/><path fill="#3C4043" d="M237.87,123.58h-24.26c-0.16,0-0.29-0.13-0.29-0.29c0-0.16,0.13-0.29,0.29-0.29h24.26	c0.16,0,0.29,0.13,0.29,0.29C238.16,123.45,238.03,123.58,237.87,123.58z"/><radialGradient id="s" cx="259.357" cy="123.498" r="51.327" gradientTransform="matrix(1 0 0 .4485 0 68.11)" gradientUnits="userSpaceOnUse"><stop offset=".145" style="stop-color:#5F6368"/><stop offset=".698" style="stop-color:#333539;stop-opacity:0.3529"/><stop offset="1" style="stop-color:#202124;stop-opacity:0"/></radialGradient><path fill="url(#s)" d="M223.53,123.58c0.03,0,0.04,0.01,0.06,0.01h14.28c0,0,0,0,0,0h75.82l-1.7,2.54l-12.09,2.25	l-6.05,9.02h-19.6l0,0c-9.03,0-16.91-1.03-22.88-2.79h-25.52l4.08-6.08c-1.82,1.29-6.28,2.26-10.84,2.26	c-5.28,0-8.69-1.29-7.62-2.89c1.03-1.53,5.8-2.78,10.85-2.88l0.85-1.26h-9.65c-0.16,0-0.27-0.04-0.24-0.09s0.19-0.09,0.35-0.09h9.85	C223.48,123.58,223.5,123.58,223.53,123.58h-19.28v20.83h114.87v-20.83H223.53z"/><path fill="#81C995" d="M244.5 111.59H264.34V123.58H244.5z"/><path fill="#202124" d="M286.02,115.47c-0.36,0-0.72-0.09-1.03-0.27l-53.67-29.83l32.2,0.03l55.73,29.99L286.02,115.47z M233.31,85.88l51.93,28.86c0.24,0.13,0.51,0.2,0.78,0.2l31.19-0.07l-53.88-28.99H233.31z"/><path fill="#202124" d="M283.23 123.58 282.9 113.97 283.41 113.95 283.75 123.58zM283.25 76.4H283.77V96.31H283.25z"/><circle cx="293.64" cy="86.09" r="4.27" fill="#81C995"/><path fill="#202124" d="M280.4 89.92H280.92V123.92H280.4z" transform="rotate(-60.836 280.675 106.925)"/><path fill="#202124" d="M298.2 101.96H298.72V119.72H298.2z" transform="rotate(-61.782 298.467 110.852)"/><path fill="#202124" d="M264.65 79.14H265.17V104.8H264.65z" transform="rotate(-60.384 264.901 91.96)"/><path fill="#202124" d="M252.58 88.59H253.1V94.08H252.58z" transform="rotate(-60.172 252.833 91.338)"/><path fill="none" d="M303.1,107.24V76.4h-19.6V76.4c-9.03,0-17.6,3.52-24.75,9.52h-25.52v37.66h80.45v-8.66h3.77L303.1,107.24z"/><path fill="#F28B82" fill-rule="evenodd" d="M101.26 112.65 95.29 109.36 73.24 109.36 78.36 112.65 101.26 112.65z" clip-rule="evenodd"/><linearGradient id="t" x1="37.908" x2="21.466" y1="7.053" y2="26.056" gradientUnits="userSpaceOnUse"><stop offset="0" style="stop-color:#5F6368"/><stop offset=".716" style="stop-color:#D1D2D3;stop-opacity:0.284"/><stop offset="1" style="stop-color:#FFFFFF;stop-opacity:0"/></linearGradient><path fill="url(#t)" d="M44.89 12.9 27.5 25.46 9.71 25.73 27.89 12.9z" opacity=".5"/><linearGradient id="u" x1="80.249" x2="65.503" y1="68.341" y2="103.73" gradientUnits="userSpaceOnUse"><stop offset="0" style="stop-color:#5F6368"/><stop offset=".716" style="stop-color:#D1D2D3;stop-opacity:0.284"/><stop offset="1" style="stop-color:#FFFFFF;stop-opacity:0"/></linearGradient><path fill="url(#u)" d="M47.83 82.81 83.24 82.75 95.05 96.14 59.73 96.09z"/><path fill="#5F6368" d="M212.56,91.27c0.4-2.64-0.79-5.05-2.95-6.59c-2.23-1.59-5.21-1.74-7.6-0.37c-0.16-0.44-1.36-3.65-4.86-4.92	c-3.85-1.39-7.1,0.81-7.41,1.02c-3.15-2.99-7.76-3.75-11.49-1.91c-3.21,1.57-5.32,4.84-5.56,8.51c-1.71-2.12-4.35-3.17-6.88-2.7	c-2.71,0.5-4.18,2.54-4.49,3c-0.26-0.13-2.71-1.37-5.35-0.09c-2.54,1.24-3.11,3.75-3.18,4.06H212.56z"/><linearGradient id="v" x1="162.115" x2="185.047" y1="172.067" y2="81.959" gradientUnits="userSpaceOnUse"><stop offset="0" style="stop-color:#202124"/><stop offset="1" style="stop-color:#202124;stop-opacity:0"/></linearGradient><path fill="url(#v)" d="M212.56,91.27c0.4-2.64-0.79-5.05-2.95-6.59c-2.23-1.59-5.21-1.74-7.6-0.37	c-0.16-0.44-1.36-3.65-4.86-4.92c-3.85-1.39-7.1,0.81-7.41,1.02c-3.15-2.99-7.76-3.75-11.49-1.91c-3.21,1.57-5.32,4.84-5.56,8.51	c-1.71-2.12-4.35-3.17-6.88-2.7c-2.71,0.5-4.18,2.54-4.49,3c-0.26-0.13-2.71-1.37-5.35-0.09c-2.54,1.24-3.11,3.75-3.18,4.06H212.56z"/><linearGradient id="w" x1="105.771" x2="102.437" y1="1.987" y2="55.755" gradientUnits="userSpaceOnUse"><stop offset="0" style="stop-color:#202124"/><stop offset="1" style="stop-color:#202124;stop-opacity:0"/></linearGradient><path fill="url(#w)" d="M117.22,50.23c-0.3,0.08-0.6,0.15-0.92,0.22c-0.04,0.01-0.07,0.01-0.11,0.02	c-0.26,0.05-0.52,0.09-0.79,0.13c-0.09,0.01-0.18,0.02-0.28,0.03c-0.21,0.02-0.41,0.05-0.62,0.06c-0.13,0.01-0.25,0.02-0.38,0.03	c-0.17,0.01-0.33,0.01-0.49,0.02c-0.16,0-0.31,0.01-0.47,0.01c-0.11,0-0.21-0.01-0.32-0.01c-0.74-0.02-1.45-0.09-2.08-0.22	l-3.17,1.48l-0.43,0.97l2.25-0.12c0.49-0.04,0.94,0.02,1.18,0.12h2c0.08,0,0.15,0,0.22,0.01c0.19,0.02,0.31,0.08,0.28,0.15	c-0.04,0.09-0.32,0.16-0.64,0.16h-1.79c-0.15,0.1-0.42,0.19-0.79,0.23l-5.67,0.66l-0.53,0.23l0.98,0.16l-2.91,1.19	c-1.27,0.72-6.13,0.67-6.13,0.67c-1.69-0.06-2.46-0.41-2.8-0.68l-1.38-0.62c-0.02-0.01-0.03-0.02-0.05-0.03	c-0.49-0.24-0.64-0.53-0.43-0.82l0.94-1.01l-0.09-0.31c0.24-0.07,0.49-0.12,0.73-0.18c-0.05-0.05-0.07-0.1-0.03-0.15	c0.11-0.14,0.57-0.25,1.07-0.25h0.79l0.92-0.49l-1.71-1.42c-0.28,0.05-0.56,0.1-0.85,0.14c-0.1,0.01-0.21,0.02-0.31,0.03	c-0.2,0.02-0.41,0.05-0.62,0.06c-0.13,0.01-0.27,0.01-0.4,0.02c-0.18,0.01-0.35,0.02-0.53,0.02c-0.14,0-0.27,0-0.41,0	c-0.17,0-0.34-0.01-0.51-0.01c-0.13-0.01-0.26-0.01-0.39-0.02c-0.17-0.01-0.33-0.03-0.49-0.05c-0.12-0.01-0.24-0.03-0.36-0.04	c-0.17-0.02-0.32-0.06-0.48-0.09c-0.1-0.02-0.21-0.04-0.31-0.06c-0.18-0.04-0.35-0.1-0.52-0.15c-0.06-0.02-0.13-0.03-0.18-0.05	c-1.3-0.46-1.59-1.03-1.4-1.63c0.37-0.64,1.18-1.2,2.82-1.65c1.84-0.51,4.08-0.63,5.85-0.37c0.59,0.09,1.13,0.22,1.58,0.39	c0.55,0.21,0.91,0.47,1.11,0.74c0.02,0.03,0.02,0.06,0.04,0.08c0.07,0.11,0.12,0.22,0.13,0.34c0.01,0.06-0.02,0.12-0.03,0.18	c-0.01,0.08,0,0.16-0.03,0.24h2.46c0.18-0.26,0.58-0.51,1.19-0.7c0.72-0.23,1.61-0.34,2.42-0.34c0.41,0,0.81,0.02,1.18,0.08	c0.37,0.06,0.7,0.14,0.96,0.26c0.23,0.1,0.38,0.22,0.48,0.34c0.01,0.02,0.02,0.04,0.03,0.05c0.03,0.04,0.05,0.09,0.06,0.13	c0.01,0.03,0,0.06,0.01,0.09c0,0.03,0.01,0.05,0.01,0.08h2.36c0.38-0.62,1.19-1.16,2.79-1.6c1.84-0.51,4.08-0.63,5.85-0.37	c0.59,0.09,1.13,0.22,1.58,0.39C120.89,47.86,120.2,49.39,117.22,50.23z M106.75,52.1h-1.49l-2.56,0.61l-0.39,0.26h1.75	c0.08,0,0.15,0,0.22,0.01c0.07,0.01,0.12,0.02,0.17,0.04h1.68l0.23-0.01L106.75,52.1z M103.02,53.3h-1.21l-0.99,0.66L103.02,53.3z"/><path fill="#FDD663" d="M95.24,18.46l-1.11-1.39c0.03-0.03,0.04-0.08,0.07-0.12l2.4-3.09"/><path fill="#7F7F7F" d="M94.14,17.07l1.14,1.19l-1.38,5.45l-0.55-3.83C93.26,18.88,93.54,17.88,94.14,17.07z"/><linearGradient id="x" x1="2560.186" x2="2576.289" y1="18.787" y2="18.787" gradientTransform="matrix(-1 0 0 1 2667.941 0)" gradientUnits="userSpaceOnUse"><stop offset="0" style="stop-color:#202124"/><stop offset="1" style="stop-color:#202124;stop-opacity:0"/></linearGradient><path fill="url(#x)" d="M96.61,13.86l-2.4,3.09c-0.03,0.03-0.04,0.08-0.07,0.12c-0.59,0.82-0.88,1.82-0.79,2.82l0.55,3.83	l1.33-5.27l0.01,0.02L96.61,13.86z"/><path fill="#6E7379" d="M96.51,25.96l4.45,15.05c0.25,0.82,1.14,1.25,1.94,0.95l0,0c0.65-0.24,1.05-0.91,0.95-1.6l-2.01-13.91"/><path fill="#71757A" d="M96.51,25.96l4.45,15.05c0.25,0.82,1.14,1.25,1.94,0.95l0,0c0.65-0.24,1.05-0.91,0.95-1.6l-2.01-13.91"/><path fill="#9AA0A6" d="M96.5,26l4.45,15.05c0.25,0.82,1.14,1.25,1.94,0.95l0,0c0.65-0.24,1.05-0.91,0.95-1.6l-2.01-13.91"/><path fill="#DADBDF" d="M101.03 25.64 103.57 31.16 97.88 31.07 95.52 25.47z"/><path fill="#5F6368" d="M101.03 25.64 103.57 31.16 97.88 31.07 95.52 25.47z"/><path fill="#202124" d="M109.38 39.24c.08 1.85.53 3.49 1.71 4.82 1.75 1.99 4.35 1.95 6.06-.07 2.11-2.49 2.09-6.94-.04-9.4-1.72-1.98-4.25-2.03-6.01-.1C109.88 35.84 109.44 37.51 109.38 39.24zM86.79 39.24c.08 1.85.53 3.49 1.71 4.82 1.75 1.99 4.35 1.95 6.06-.07 2.11-2.49 2.09-6.94-.04-9.4-1.72-1.98-4.25-2.03-6.01-.1C87.28 35.84 86.84 37.51 86.79 39.24z"/><path fill="none" stroke="#DADBDF" stroke-linecap="round" stroke-linejoin="round" stroke-miterlimit="10" stroke-width=".727" d="M97.22 25.79 97.22 27.76"/><path fill="#3C4043" d="M117.82,33.88c-1.79-1.98-4.29-2.3-6.33-0.96l-2.52-5.08v-3.5h1.53c0.1,0.1,0.24,0.16,0.4,0.16h3.52	c0.31,0,0.56-0.25,0.56-0.56c0-0.31-0.25-0.56-0.56-0.56h-3.52c-0.16,0-0.3,0.06-0.4,0.16h-4.23c-0.1-0.1-0.24-0.16-0.4-0.16h-3.52	c-0.31,0-0.56,0.25-0.56,0.56c0,0.31,0.25,0.56,0.56,0.56h3.52c0.16,0,0.3-0.06,0.4-0.16h1.9v3.12H97.63v-0.94h3.97	c0.39,0,0.69-0.35,0.62-0.75c-0.05-0.31-0.35-0.52-0.66-0.52h-2.1c-0.61,0-1.23-0.1-1.81-0.3l-0.5-0.17	c-0.35-0.12-0.7-0.22-1.06-0.29c-0.49-0.1-1-0.01-1.43,0.24v0c-0.32,0.19-0.51,0.55-0.47,0.92c0.05,0.49,0.46,0.87,0.96,0.87h1.69	v1.25l-2.54,5.28c-2.02-1.46-4.57-1.24-6.44,0.71c-1.5,1.58-2.04,3.53-2.11,5.57c0.09,2.18,0.66,4.09,2.1,5.66	c2.15,2.34,5.33,2.29,7.43-0.09c1.27-1.43,1.9-3.41,1.92-5.4h2.47c0.07,0.88,0.36,1.73,0.89,2.39c0.62,0.79,1.46,1.18,2.28,1.15	c0.82,0.03,1.65-0.36,2.28-1.15c0.52-0.66,0.81-1.51,0.89-2.39h2.37c0.12,2.1,0.68,3.96,2.09,5.49c2.15,2.34,5.33,2.29,7.43-0.09	C120.45,41.98,120.43,36.76,117.82,33.88z M111.33,34.4l2.14,4.31h-4.04c0.14-1.5,0.61-2.93,1.68-4.11	C111.18,34.52,111.26,34.47,111.33,34.4z M110.45,33.76c-1.35,1.42-1.92,3.13-2.07,4.94h-2.39c-0.06-0.74-0.27-1.46-0.66-2.07	c-0.64-1.01-1.59-1.5-2.51-1.46c-0.42-0.01-0.84,0.09-1.23,0.29l-3.61-7.2h10.31l2.56,5.16C110.71,33.53,110.57,33.63,110.45,33.76z M97.29,28.66l3.63,7.26c-0.22,0.2-0.43,0.43-0.61,0.72c-0.39,0.61-0.6,1.33-0.66,2.07h-2.51c-0.14-1.8-0.76-3.55-1.92-4.83	c-0.1-0.11-0.21-0.18-0.31-0.28L97.29,28.66z M94.53,34.69c0.93,1.07,1.43,2.52,1.56,4.01h-3.63l1.97-4.11	C94.46,34.63,94.5,34.66,94.53,34.69z M94.57,44.09c-1.72,2.02-4.31,2.06-6.06,0.07c-1.18-1.34-1.64-2.97-1.71-4.82	c0.06-1.73,0.5-3.4,1.72-4.74c1.54-1.69,3.65-1.86,5.3-0.58l-2.36,4.91c-0.06,0.12-0.05,0.27,0.02,0.39s0.2,0.19,0.34,0.19h4.31	C96.11,41.19,95.6,42.88,94.57,44.09z M117.16,44.09c-1.72,2.02-4.31,2.06-6.06,0.07c-1.14-1.3-1.6-2.88-1.7-4.66h4.71	c0.14,0,0.27-0.07,0.34-0.19c0.07-0.12,0.08-0.26,0.02-0.39l-2.51-5.06c1.66-1.14,3.7-0.86,5.16,0.82	C119.26,37.15,119.28,41.6,117.16,44.09z"/><circle cx="101.51" cy="9.55" r="3" fill="#9AA0A6"/><path fill="#9AA0A6" d="M102.8,24.42l4.66,4.1c1.14,1,1.5,2.62,0.9,4.01l-3.74,8.63c-0.45,0.66-1.35,0.87-2.04,0.45l0,0	c-0.65-0.39-0.92-1.2-0.63-1.91l2.08-7.67l-5.69-4.99L102.8,24.42z"/><path fill="#5F6368" d="M106.84 27.5 102.9 32.03 102.32 31.49 95.19 25.73 99.13 24.25 102.98 24z"/><path fill="#FDD663" d="M98.95,12.52c0,0,4.88-0.16,5.84,2.31l2.39,4.08l-4.11,2.1l1.49,4.81c0,0-6.04,3.85-10.94-1.4l1.84-8.58	C95.46,15.85,96.15,12.87,98.95,12.52z"/><path fill="#9AA0A6" d="M106.13,19.43l0.44,0.79l5.37,2.27c0.63,0.26,0.93,0.99,0.66,1.62l0,0c-0.23,0.55-0.84,0.86-1.43,0.71	l-4.96-0.9l-0.82-0.15l-2.33-2.76L106.13,19.43z"/><linearGradient id="y" x1="2555.06" x2="2570.158" y1="13.563" y2="24.862" gradientTransform="matrix(-1 0 0 1 2667.941 0)" gradientUnits="userSpaceOnUse"><stop offset="0" style="stop-color:#202124"/><stop offset="1" style="stop-color:#202124;stop-opacity:0"/></linearGradient><path fill="url(#y)" d="M103.06,21.01l-1.31,0.44l-2.19-3.94l-2.8,8.93c0.88,0.79,2.92,0.73,4.38,0.61	c1.14-0.09,1.93-0.44,3.41-1.23C104.06,24.22,103.56,22.61,103.06,21.01z"/><linearGradient id="z" x1="102.062" x2="102.062" y1="87.577" y2="121.989" gradientTransform="matrix(-1 0 0 1 254.348 0)" gradientUnits="userSpaceOnUse"><stop offset="0" style="stop-color:#202124"/><stop offset="1" style="stop-color:#202124;stop-opacity:0"/></linearGradient><path fill="url(#z)" d="M138.24,104.75h0.02c0,0,0,0,0,0h3.36c-0.11-0.44-0.22-0.86-0.3-1.23	c0,0,2.07-0.47,5.38-0.81l1.87-2l-6.11-2.95l2.71-2.65c-0.99-0.16-1.98-0.31-2.98-0.47c0.06-1.13,0.56-1.66,1.03-1.94	c0.33-0.19,0.87-0.39,1.29-0.88c0.21-0.24,0.32-0.47,0.37-0.63l3.79,2.18l4.39,2.52l0.88-0.94c0,0,1.73-0.1,4.14,0.24	c-0.05-0.01-0.11-0.02-0.16-0.03l3.18-2.18c0.51-0.36,1.49-0.48,2.3-0.28c0.78,0.19,1.16,0.63,0.89,1.03l-1.76,2.51l-3.59,5.24	l0.29,1.14c1.98,0.18,4.03,0.47,6.11,0.9l-0.39,1.46c0.17-0.03,0.35-0.05,0.53-0.05c0.95,0,1.73,0.37,1.73,0.82	c0,0.04-0.01,0.09-0.02,0.13l0,0l-0.01,0.02c0,0.01-0.01,0.02-0.01,0.02l-0.42,1.02c-0.05-0.01-0.1-0.02-0.15-0.03	c0.8,0.15,1.69,0.36,2.38,0.64c0,0-4.18,5.69-5.61,7.57c-0.49,0.64-0.97,1.2-4,1.96c-1.76,0.35-3.6,0.47-5.3,0.47	c2.44,0.1,4.36,1.07,4.36,2.26c0,1.26-2.14,2.28-4.78,2.28c-2.64,0-4.78-1.02-4.78-2.28c0-1.22,2.01-2.21,4.53-2.27	c-3.55-0.07-6.35-0.62-6.35-0.62c-2.23-0.56-3.68-1.53-4.61-2.26l-4.26-3.53h-2.6v-3.69v-1.44v-0.01	C135.57,105.32,136.77,104.75,138.24,104.75z" opacity=".3"/><circle cx="154.14" cy="37.3" r="4.78" fill="#DADCE0"/><path fill="#BEC3C8" d="M163.03,86.7l-5.95-18.2h-11.97l9.34,20.9C154.45,89.4,158.59,89.91,163.03,86.7z"/><path fill="#9AA0A6" d="M163.03,86.7l-5.95-18.2h-11.97l9.34,20.9C154.45,89.4,158.59,89.91,163.03,86.7z"/><path fill="#3C4043" d="M163.03,86.7l-5.95-18.2h-11.97l9.34,20.9C154.45,89.4,158.6,89.91,163.03,86.7z" opacity=".48"/><path fill="#DADCE0" d="M164.79,91.95l-1.76-5.25c-1.64,1.19-3.24,1.86-4.6,2.25l3.18,4.57c0.51,0.75,1.49,0.99,2.3,0.58h0	C164.68,93.7,165.06,92.79,164.79,91.95z"/><path fill="#9AA0A6" d="M149.17,92.72l8.37-10.07c0.8-0.96,1.3-2.13,1.46-3.36l1.33-10.78h-9.08l-2,8.7l-8.63,6.64L149.17,92.72z"/><path fill="#5F6368" d="M148.8,68.88h-10.3c-1.35,0-2.45-1.1-2.45-2.45V55.46h15.19v10.98C151.25,67.79,150.15,68.88,148.8,68.88z"/><path fill="#81C995" d="M136.06,63.18v3.04c0,1.47,1.19,2.67,2.67,2.67h8.11c2.44,0,4.42-1.98,4.42-4.42v-1.28H136.06z"/><path fill="none" d="M148.8,68.88h-10.3c-1.35,0-2.45-1.1-2.45-2.45V55.46h15.19v10.98C151.25,67.79,150.15,68.88,148.8,68.88z"/><path fill="#81C995" d="M142.71,55.46h-4.05l4.26-7.39c0.94-1.51,2.39-3.55,4.61-4.72c0,0,0.26-0.11,0.71-0.26	c1.84-0.61,6.99-1.99,11.62-0.07c3.03,1.59,3.51,2.76,4,4.11c1.43,3.94,5.61,15.86,5.61,15.86c-1.66,1.41-4.46,1.98-4.46,1.98	l0.83,6.49c-12.51,5.51-24.04,0-24.04,0c0.6-5.56,2.13-16,2.13-16H142.71z"/><linearGradient id="A" x1="186.192" x2="126.51" y1="18.716" y2="63.881" gradientUnits="userSpaceOnUse"><stop offset="0" style="stop-color:#202124"/><stop offset="1" style="stop-color:#202124;stop-opacity:0"/></linearGradient><path fill="url(#A)" d="M147.54,43.35c0,0,0.26-0.11,0.71-0.26c-1.12,0.86-1.92,2.17-2.47,3.38	c-0.59,1.31-0.97,2.71-1.17,4.14l-0.67,4.84h-1.23h-4.05l4.26-7.39C143.86,46.56,145.31,44.52,147.54,43.35z"/><linearGradient id="B" x1="183.337" x2="151.219" y1="33.308" y2="71.16" gradientUnits="userSpaceOnUse"><stop offset="0" style="stop-color:#202124"/><stop offset="1" style="stop-color:#202124;stop-opacity:0"/></linearGradient><path fill="url(#B)" d="M165.02,64.97c-1.78,0.36-3.9,0.22-3.9,0.22l-2.98-16.97L142.8,63.54	c-0.38,2.77-0.76,5.72-0.99,7.92c0,0,11.53,5.51,24.04,0L165.02,64.97"/><path fill="none" stroke="#5F6368" stroke-linecap="round" stroke-miterlimit="10" stroke-width=".5" d="M140.2 55.46 147.87 43.33"/><path fill="none" d="M159.87,43.02c3.03,1.59,3.51,2.76,4,4.11c1.43,3.94,5.61,15.86,5.61,15.86c-1.66,1.41-4.46,1.98-4.46,1.98	l0.83,6.49c-12.51,5.51-24.04,0-24.04,0c0.6-5.56,2.13-16,2.13-16h-1.23h-4.05l4.26-7.39c0.94-1.51,2.39-3.55,4.61-4.72	C147.54,43.35,154.1,40.63,159.87,43.02z"/><path fill="#DADCE0" d="m145.66 89.07-3.86 5.44c-.67.94-.52 2.24.35 3.01l0 0c.96.85 2.42.74 3.24-.25l3.79-4.56L145.66 89.07zM167.69 66.5l-.01-.04c0-.02-.01-.03-.01-.05l-.42-2.14c-1.19.49-2.24.7-2.24.7-.42.08-.87.14-1.3.18l.57 1.95 0 0c.15.8.85 1.41 1.7 1.41.95 0 1.73-.77 1.73-1.73C167.72 66.68 167.71 66.59 167.69 66.5L167.69 66.5z"/><linearGradient id="C" x1="156.076" x2="138.762" y1="30.752" y2="66.884" gradientUnits="userSpaceOnUse"><stop offset="0" style="stop-color:#202124"/><stop offset="1" style="stop-color:#202124;stop-opacity:0"/></linearGradient><path fill="url(#C)" d="M136.46 63.06 143.94 55.46 141.95 68.87 138.5 68.87z"/></svg>