<?xml version="1.0" encoding="utf-8"?>
<!-- Generator: Adobe Illustrator 24.0.2, SVG Export Plug-In . SVG Version: 6.00 Build 0)  -->
<svg version="1.1" id="Layer_1" xmlns="http://www.w3.org/2000/svg" xmlns:xlink="http://www.w3.org/1999/xlink" x="0px" y="0px"
	 width="2900px" height="1700px" viewBox="0 0 2900 1700" enable-background="new 0 0 2900 1700" xml:space="preserve">
<linearGradient id="SVGID_1_" gradientUnits="userSpaceOnUse" x1="1990.5354" y1="935.8812" x2="1990.5354" y2="751.0901">
	<stop  offset="0" style="stop-color:#FFFFFF;stop-opacity:0"/>
	<stop  offset="1" style="stop-color:#E6EBF0"/>
</linearGradient>
<path fill="url(#SVGID_1_)" d="M1727.44,935.881h714.049c-12.628-52.751-86.151-134.135-213.453-134.135
	c-102.636,0-161.817,68.574-285.822,59.514c-117.811-8.607-261.739-100.963-402.631-110.17
	C1617.068,802.177,1681.23,864.944,1727.44,935.881z"/>
<g>
	<linearGradient id="SVGID_2_" gradientUnits="userSpaceOnUse" x1="1046.577" y1="995.4491" x2="1012.6774" y2="607.975">
		<stop  offset="0" style="stop-color:#FFFFFF;stop-opacity:0"/>
		<stop  offset="1" style="stop-color:#E6EBF0"/>
	</linearGradient>
	<path fill="url(#SVGID_2_)" d="M1727.44,935.881c-126.164-193.671-385.999-326.568-686.075-326.568S481.454,742.21,355.291,935.881
		H1727.44z"/>
</g>
<radialGradient id="SVGID_3_" cx="1444.0785" cy="909.1786" r="1343.8132" gradientTransform="matrix(1 0 0 0.1058 0 812.9961)" gradientUnits="userSpaceOnUse">
	<stop  offset="0" style="stop-color:#E6EBF0"/>
	<stop  offset="0.4731" style="stop-color:#E9EDF2;stop-opacity:0.5269"/>
	<stop  offset="0.7643" style="stop-color:#F1F4F7;stop-opacity:0.2357"/>
	<stop  offset="1" style="stop-color:#FFFFFF;stop-opacity:0"/>
</radialGradient>
<rect x="32.561" y="935.881" fill="url(#SVGID_3_)" width="2836.878" height="130.692"/>
<linearGradient id="SVGID_4_" gradientUnits="userSpaceOnUse" x1="5779.3076" y1="6952.8921" x2="5779.3076" y2="6745.6509" gradientTransform="matrix(0 1 -1 0 7179.1899 -4637.5742)">
	<stop  offset="0" style="stop-color:#FFFFFF;stop-opacity:0"/>
	<stop  offset="0.3956" style="stop-color:#FBFBFC;stop-opacity:0.3956"/>
	<stop  offset="0.8251" style="stop-color:#EEF1F5;stop-opacity:0.8251"/>
	<stop  offset="1" style="stop-color:#E6EBF0"/>
</linearGradient>
<polygon fill="url(#SVGID_4_)" points="433.539,1162.228 433.539,1121.238 226.298,1121.238 226.298,1162.228 "/>
<circle fill="#FFBA00" cx="1873.098" cy="605.764" r="78.01"/>
<path fill="#E6EBF0" d="M433.479,1121.378l1787.08,0.218c18.479-0.054,33.513-15.132,33.513-33.611v-50.151
	c0-22.305,8.744-43.216,24.622-58.882c15.877-15.665,36.914-24.234,59.207-23.955l12.781,0v40.996h-13.332
	c-11.287-0.122-21.852,4.244-29.86,12.144c-8.008,7.901-12.418,18.447-12.418,29.696v50.151c0,41.021-33.373,74.492-74.394,74.611
	l-1787.08-0.218L433.479,1121.378z"/>
<linearGradient id="SVGID_5_" gradientUnits="userSpaceOnUse" x1="5550.7227" y1="-1333.0847" x2="5550.7227" y2="-1540.3257" gradientTransform="matrix(0 -1 1 0 3891.0144 6526.208)">
	<stop  offset="0" style="stop-color:#FFFFFF;stop-opacity:0"/>
	<stop  offset="0.3956" style="stop-color:#FBFBFC;stop-opacity:0.3956"/>
	<stop  offset="0.8251" style="stop-color:#EEF1F5;stop-opacity:0.8251"/>
	<stop  offset="1" style="stop-color:#E6EBF0"/>
</linearGradient>
<polygon fill="url(#SVGID_5_)" points="2350.689,954.991 2350.689,995.98 2557.93,995.98 2557.93,954.991 "/>
<linearGradient id="SVGID_6_" gradientUnits="userSpaceOnUse" x1="-9450.6055" y1="1058.614" x2="-7132.8296" y2="1058.614" gradientTransform="matrix(-1 0 0 1 -6892.6816 0)">
	<stop  offset="0" style="stop-color:#FFFFFF;stop-opacity:0"/>
	<stop  offset="0.0707" style="stop-color:#FFFFFF;stop-opacity:0.1413"/>
	<stop  offset="0.5" style="stop-color:#FFFFFF"/>
	<stop  offset="0.9293" style="stop-color:#FFFFFF;stop-opacity:0.1413"/>
	<stop  offset="1" style="stop-color:#FFFFFF;stop-opacity:0"/>
</linearGradient>
<path fill="url(#SVGID_6_)" d="M2219.396,1144.233l-22.75-0.007l0.001-5l22.75,0.007L2219.396,1144.233z M2173.897,1144.22
	l-22.75-0.006l0.001-5l22.75,0.006L2173.897,1144.22z M2128.397,1144.209l-22.75-0.006l0.001-5l22.75,0.006L2128.397,1144.209z
	 M2082.897,1144.196l-22.75-0.006l0.001-5l22.75,0.006L2082.897,1144.196z M2037.397,1144.184l-22.75-0.006l0.001-5l22.75,0.006
	L2037.397,1144.184z M1991.896,1144.173l-22.75-0.007l0.001-5l22.75,0.007L1991.896,1144.173z M1946.397,1144.16l-22.75-0.006
	l0.001-5l22.75,0.006L1946.397,1144.16z M1900.897,1144.148l-22.75-0.006l0.001-5l22.75,0.006L1900.897,1144.148z
	 M1855.397,1144.135l-22.75-0.006l0.001-5l22.75,0.006L1855.397,1144.135z M1809.897,1144.124l-22.75-0.006l0.001-5l22.75,0.006
	L1809.897,1144.124z M1764.396,1144.112l-22.75-0.007l0.001-5l22.75,0.007L1764.396,1144.112z M1718.897,1144.099l-22.75-0.006
	l0.001-5l22.75,0.006L1718.897,1144.099z M1673.397,1144.088l-22.75-0.006l0.001-5l22.75,0.006L1673.397,1144.088z
	 M1627.897,1144.075l-22.75-0.006l0.001-5l22.75,0.006L1627.897,1144.075z M1582.397,1144.063l-22.75-0.006l0.001-5l22.75,0.006
	L1582.397,1144.063z M1536.897,1144.051l-22.75-0.006l0.001-5l22.75,0.006L1536.897,1144.051z M1491.397,1144.039l-22.75-0.006
	l0.001-5l22.75,0.006L1491.397,1144.039z M1445.897,1144.027l-22.75-0.007l0.001-5l22.75,0.007L1445.897,1144.027z
	 M1400.397,1144.014l-22.75-0.006l0.001-5l22.75,0.006L1400.397,1144.014z M1354.897,1144.003l-22.75-0.006l0.001-5l22.75,0.006
	L1354.897,1144.003z M1309.397,1143.99l-22.75-0.006l0.001-5l22.75,0.006L1309.397,1143.99z M1263.897,1143.978l-22.75-0.006
	l0.001-5l22.75,0.006L1263.897,1143.978z M1218.397,1143.967l-22.75-0.007l0.001-5l22.75,0.007L1218.397,1143.967z
	 M1172.897,1143.954l-22.75-0.006l0.001-5l22.75,0.006L1172.897,1143.954z M1127.397,1143.942l-22.75-0.006l0.001-5l22.75,0.006
	L1127.397,1143.942z M1081.897,1143.929l-22.75-0.006l0.001-5l22.75,0.006L1081.897,1143.929z M1036.397,1143.918l-22.75-0.006
	l0.001-5l22.75,0.006L1036.397,1143.918z M990.897,1143.906l-22.75-0.007l0.001-5l22.75,0.007L990.897,1143.906z M945.398,1143.893
	l-22.75-0.006l0.001-5l22.75,0.006L945.398,1143.893z M899.898,1143.882l-22.75-0.006l0.001-5l22.75,0.006L899.898,1143.882z
	 M854.398,1143.869l-22.75-0.006l0.001-5l22.75,0.006L854.398,1143.869z M808.898,1143.857l-22.75-0.006l0.001-5l22.75,0.006
	L808.898,1143.857z M763.398,1143.845l-22.75-0.007l0.001-5l22.75,0.007L763.398,1143.845z M717.898,1143.833l-22.75-0.006l0.001-5
	l22.75,0.006L717.898,1143.833z M672.398,1143.821l-22.75-0.007l0.001-5l22.75,0.007L672.398,1143.821z M626.898,1143.808
	l-22.75-0.006l0.001-5l22.75,0.006L626.898,1143.808z M581.398,1143.797l-22.75-0.006l0.001-5l22.75,0.006L581.398,1143.797z
	 M535.898,1143.784l-22.75-0.006l0.001-5l22.75,0.006L535.898,1143.784z M490.398,1143.772l-22.75-0.006l0.001-5l22.75,0.006
	L490.398,1143.772z M444.898,1143.76l-22.75-0.007l0.001-5l22.75,0.007L444.898,1143.76z M399.398,1143.748l-22.75-0.006l0.001-5
	l22.75,0.006L399.398,1143.748z M353.898,1143.736l-22.75-0.006l0.001-5l22.75,0.006L353.898,1143.736z M308.398,1143.723
	l-22.75-0.006l0.001-5l22.75,0.006L308.398,1143.723z M262.898,1143.712l-22.75-0.006l0.001-5l22.75,0.006L262.898,1143.712z
	 M2242.547,1139.819l-1.932-4.611c6.737-2.822,12.685-6.955,17.678-12.284l3.648,3.42
	C2256.463,1132.188,2249.938,1136.722,2242.547,1139.819z M2274.104,1106.083l-4.734-1.607c1.794-5.284,2.704-10.833,2.704-16.491
	v-5.139h5v5.139C2277.073,1094.19,2276.074,1100.279,2274.104,1106.083z M2277.073,1060.095h-5l0.001-22.772l5,0.045l-0.001,0.458
	V1060.095z M2281.164,1016.045l-4.656-1.822c2.884-7.373,7.057-14.098,12.4-19.985l3.703,3.36
	C2287.677,1003.033,2283.825,1009.24,2281.164,1016.045z M2309.869,984.415l-2.264-4.458c7.081-3.598,14.678-5.829,22.58-6.634
	l0.507,4.975C2323.405,979.04,2316.399,981.097,2309.869,984.415z M2557.924,977.995h-22.75v-5h22.75V977.995z M2512.424,977.995
	h-22.75v-5h22.75V977.995z M2466.924,977.995h-22.75v-5h22.75V977.995z M2421.424,977.995h-22.75v-5h22.75V977.995z
	 M2375.924,977.995h-22.75v-5h22.75V977.995z"/>
<path fill="#BEC3C8" d="M875.813,522.868h-47.355c-1.311,0-2.375,1.063-2.375,2.375v26.855h-92.249
	c-4.149,0-7.512,3.363-7.512,7.512v76.999L693.9,700.839c-0.826,1.636-1.256,3.443-1.256,5.276V934.59h33.677h40.667h111.199
	V561.628v-9.531v-26.855C878.188,523.931,877.125,522.868,875.813,522.868z"/>
<path fill="#FFFFFF" d="M878.188,706.781v-5h-48.016v-64.262h48.016v-5h-48.016v-79.511h48.016v-0.912v-4.088h-52.105v4.088h-0.912
	v80.422h-47.74v-80.422h-5v80.422h-46.11v4.089l-0.46,0.911h46.57v64.262h-78.94c-0.55,1.377-0.848,2.845-0.848,4.334v0.666h79.787
	v71.886h-79.787v5h79.787V934.59h5V783.667h47.74V934.59h5V783.667h48.016v-5h-48.016v-71.886H878.188z M825.172,778.667h-47.74
	v-71.886h47.74V778.667z M825.172,701.781h-47.74v-64.262h47.74V701.781z"/>
<radialGradient id="SVGID_7_" cx="730.739" cy="551.8968" r="237.2802" gradientUnits="userSpaceOnUse">
	<stop  offset="0" style="stop-color:#FFFFFF;stop-opacity:0.4"/>
	<stop  offset="0.9327" style="stop-color:#FFFFFF;stop-opacity:0.0269"/>
	<stop  offset="1" style="stop-color:#FFFFFF;stop-opacity:0"/>
</radialGradient>
<path fill="url(#SVGID_7_)" d="M875.813,522.867h-47.355c-1.312,0-2.375,1.063-2.375,2.375v26.855h-92.249
	c-4.149,0-7.512,3.364-7.512,7.512v76.999L693.9,700.839c-0.826,1.636-1.256,3.443-1.256,5.276v82.812
	c15.641,4.057,32.046,6.22,48.956,6.22c53.239,0,101.473-21.405,136.587-56.069V561.628v-9.531v-26.855
	C878.188,523.931,877.125,522.867,875.813,522.867z"/>
<path fill="none" d="M875.813,522.868h-47.355c-1.311,0-2.375,1.063-2.375,2.375v26.855h-92.249c-4.149,0-7.512,3.363-7.512,7.512
	v76.999L693.9,700.839c-0.826,1.636-1.256,3.443-1.256,5.276V934.59h33.677h40.667h111.199V561.628v-9.531v-26.855
	C878.188,523.931,877.125,522.868,875.813,522.868z"/>
<path fill="#34A853" d="M1899.731,1058.602c-17.38-28.659-46.706-47.489-79.961-47.489c-29.388,0-55.692,14.721-73.411,37.918
	c-24.879-37.735-64.85-62.219-109.937-62.219c-48.79,0-91.578,28.679-115.742,71.789H1899.731z"/>
<path fill="#E6EBF0" d="M1591.532,1032.317c-11.741-12.394-20.744-19.151-26.702-22.789c-0.908,0.628-1.814,1.258-2.708,1.909
	c5.658,3.295,14.897,9.923,27.232,22.943c9.495,10.022,15.647,18.197,19.565,24.223h3.589
	C1608.573,1052.307,1602.078,1043.448,1591.532,1032.317z"/>
<path fill="#E6EBF0" d="M1671.763,1058.602h3.188c2.087-6.386,4.557-16.237,5.861-29.708c1.441-14.892,0.609-26.622-0.37-33.952
	c-1.066-0.407-2.139-0.798-3.217-1.176c1.031,7.003,2.111,19.228,0.6,34.839C1676.488,1042.435,1673.853,1052.427,1671.763,1058.602
	z"/>
<linearGradient id="SVGID_8_" gradientUnits="userSpaceOnUse" x1="1708.9524" y1="1041.9114" x2="1700.1361" y2="1142.6823">
	<stop  offset="0" style="stop-color:#202124;stop-opacity:0.1"/>
	<stop  offset="1" style="stop-color:#202124;stop-opacity:0"/>
</linearGradient>
<path fill="url(#SVGID_8_)" d="M1899.731,1058.602c-46.038,28.659-94.195,47.489-127.45,47.489
	c-29.388,0-40.971-14.721-35.492-37.918c-62.614,37.735-127.069,62.219-172.155,62.219c-48.79,0-62.899-28.679-43.952-71.79
	H1899.731z"/>
<linearGradient id="SVGID_9_" gradientUnits="userSpaceOnUse" x1="-1468.184" y1="1132.5353" x2="-1468.184" y2="1273.4796" gradientTransform="matrix(-1 0 0 1 -502.0875 0)">
	<stop  offset="0" style="stop-color:#202124;stop-opacity:0.1"/>
	<stop  offset="1" style="stop-color:#202124;stop-opacity:0"/>
</linearGradient>
<path fill="url(#SVGID_9_)" d="M781.691,1155.052c12.765-9.055,28.056-12.976,46.616-12.97c0.463,0,0.927,0,1.39,0
	c2.765-1.344,5.701-2.607,8.789-3.751c10.611-3.932,21.231-5.886,29.586-5.79l0.005-0.005c0.096-0.002,0.185,0.004,0.28,0.003
	c0.092,0.002,0.193-0.005,0.285-0.003l-0.005,0.005c8.545-0.095,15.258,1.859,18.005,5.79c0.801,1.146,1.212,2.411,1.288,3.759
	c27.182,0.002,54.365,0.003,81.55,0.001c2.771-1.348,5.713-2.613,8.807-3.76c10.611-3.932,21.231-5.886,29.586-5.79l0.005-0.005
	c0.096-0.002,0.185,0.004,0.28,0.003c0.093,0.002,0.193-0.005,0.286-0.003l-0.005,0.005c8.545-0.095,15.258,1.859,18.005,5.79
	c0.807,1.154,1.217,2.429,1.289,3.786c26.918,0.008,53.829,0.023,80.764,0.014c2.794-1.363,5.764-2.642,8.889-3.8
	c10.612-3.932,21.231-5.886,29.586-5.79l0.005-0.005c0.096-0.002,0.185,0.004,0.28,0.003c0.093,0.002,0.193-0.005,0.286-0.003
	l-0.005,0.005c8.545-0.095,15.257,1.859,18.005,5.79c0.795,1.137,1.205,2.39,1.286,3.725c6.097-0.015,12.194-0.031,18.297-0.051
	c8.327-0.028,9.925,1.327,8.32,5.176c-10.237,24.547-33.902,49.516-66.402,74.501c-43.151,33.173-106.119,51.712-172.7,51.742
	c-38.216,0.017-76.339-0.06-114.651,0.055c-20.044,0.06-37.047-1.93-50.383-6.391c-40.59-13.578-56.218-34.903-49.689-63.058
	C743.327,1188.052,758.322,1171.63,781.691,1155.052z"/>
<path fill="#EA4335" d="M1449.976,559.547c-124.682,0-225.756,101.074-225.756,225.755c0,38.221,9.511,74.214,26.275,105.767
	c0.036,0.072,0.056,0.143,0.097,0.216c0.101,0.183,0.205,0.362,0.306,0.546c1.281,2.388,2.603,4.749,3.966,7.084
	c22.034,38.754,47.191,73.728,75.471,107.956c45.236,54.749,76.301,116.47,94.44,184.935c3.164,11.94,12.94,19.201,25.222,19.112
	c12.279,0.09,22.057-7.171,25.221-19.112c18.138-68.465,49.204-130.186,94.44-184.935c30.125-36.46,56.706-73.766,79.742-115.586
	c0.13-0.236,0.231-0.47,0.314-0.703c16.604-31.436,26.018-67.255,26.018-105.279
	C1675.733,660.621,1574.658,559.547,1449.976,559.547z M1449.681,860.739c-41.379-0.175-75.187-34.089-75.178-75.413
	c0.009-41.545,34.312-75.704,75.776-75.46c41.416,0.244,75.175,34.131,75.171,75.457
	C1525.446,826.908,1491.281,860.915,1449.681,860.739z"/>
<linearGradient id="SVGID_10_" gradientUnits="userSpaceOnUse" x1="-1683.9608" y1="1210.9178" x2="-1683.9608" y2="1659.1326" gradientTransform="matrix(-1 0 0 1 -502.0875 0)">
	<stop  offset="0" style="stop-color:#202124;stop-opacity:0.15"/>
	<stop  offset="1" style="stop-color:#202124;stop-opacity:0"/>
</linearGradient>
<path fill="url(#SVGID_10_)" d="M946.425,1503.788c24.399-26.165,56.798-50.812,93.573-72.444c0.233-0.161,0.484-0.322,0.766-0.484
	c49.871-28.776,100.39-54.447,153.911-79.536c80.367-37.673,151.038-80.144,213.108-127.255
	c10.825-8.216,25.263-13.213,37.484-13.151c12.339-0.062,17.456,4.935,12.958,13.151c-25.793,47.111-34.332,89.582-24.228,127.255
	c6.317,23.553,9.032,47.619,6.199,74.286c-0.136,1.607-0.328,3.231-0.58,4.875c-0.016,0.126-0.027,0.249-0.044,0.375
	c-0.006,0.05-0.032,0.099-0.042,0.149c-3.482,21.711-17.067,46.479-41.592,72.779c-80.005,85.794-245.935,155.344-370.617,155.344
	C902.639,1659.133,866.42,1589.583,946.425,1503.788z M1096.721,1503.774c-26.521,28.437-14.507,51.755,26.752,51.923
	c41.308,0.168,97.529-23.338,124.197-51.925c26.526-28.436,14.479-51.772-26.787-51.892
	C1179.396,1451.758,1123.409,1475.159,1096.721,1503.774z"/>
<path fill="#8C9196" d="M1136.092,1057.368c6.734-7.966,15.421-11.904,23.88-11.714v-0.01c0.094-0.004,0.189,0.008,0.283,0.005
	c0.094,0.003,0.189-0.01,0.283-0.005v0.01c8.46-0.19,17.147,3.748,23.88,11.714c14.374,17.006,14.335,46.705-0.085,63.68
	c-6.679,7.864-15.345,11.771-23.796,11.581v0.01c-0.094,0.004-0.189-0.008-0.283-0.005c-0.094-0.003-0.189,0.009-0.283,0.005v-0.01
	c-8.45,0.191-17.116-3.717-23.796-11.581C1121.758,1104.073,1121.719,1074.374,1136.092,1057.368z"/>
<path fill="#4285F4" d="M1013.387,1113.531c59.125,0,118.251-0.026,177.376,0.015c18.565,0.013,29.935-7.83,33.645-25.94
	c6.792-33.155,5.365-65.999-6.908-97.954c-21.627-56.311-58.58-98.961-112.747-126.117c-17.798-8.923-36.791-12.902-56.774-12.782
	c-38.198,0.23-76.398,0.076-114.596,0.11c-66.552,0.059-110.98,37.137-120.958,103.484c-7.515,49.97-6.212,99.907,8.098,149.001
	c2.244,7.699,5.197,10.409,13.496,10.353c59.787-0.406,119.578-0.218,179.368-0.218
	C1013.387,1113.499,1013.387,1113.515,1013.387,1113.531z"/>
<path fill="#1A73E8" d="M1195.975,1083.172h-73.737c-4.492,0-8.147-3.655-8.147-8.147v-11.224c0-4.492,3.655-8.147,8.147-8.147
	h73.737c4.492,0,8.147,3.655,8.147,8.147v11.224C1204.122,1079.516,1200.467,1083.172,1195.975,1083.172z M1122.238,1060.653
	c-1.735,0-3.147,1.412-3.147,3.147v11.224c0,1.735,1.412,3.147,3.147,3.147h73.737c1.735,0,3.147-1.412,3.147-3.147v-11.224
	c0-1.735-1.412-3.147-3.147-3.147H1122.238z"/>
<path fill="#1A73E8" d="M926.12,992.996c-0.384,0-0.774-0.09-1.14-0.277l-27.21-13.972c-1.228-0.63-1.712-2.138-1.082-3.365
	c0.631-1.229,2.136-1.714,3.366-1.082l27.21,13.972c1.228,0.63,1.712,2.138,1.082,3.365
	C927.903,992.5,927.027,992.996,926.12,992.996z"/>
<path fill="#1A73E8" d="M976.792,1096.307c-0.136,0-0.275-0.011-0.414-0.034l-50.667-8.444c-1.362-0.227-2.282-1.515-2.055-2.877
	c0.227-1.361,1.509-2.282,2.877-2.055l50.667,8.444c1.362,0.227,2.282,1.515,2.055,2.877
	C979.051,1095.441,977.992,1096.307,976.792,1096.307z"/>
<path fill="none" d="M1013.387,1113.531c59.125,0,118.251-0.026,177.376,0.015c18.565,0.013,29.935-7.83,33.645-25.94
	c6.792-33.155,5.365-65.999-6.908-97.954c-21.627-56.311-58.58-98.961-112.747-126.117c-17.798-8.923-36.791-12.902-56.774-12.782
	c-38.198,0.23-76.398,0.076-114.596,0.11c-66.552,0.059-110.98,37.137-120.958,103.484c-7.515,49.97-6.212,99.907,8.098,149.001
	c2.244,7.699,5.197,10.409,13.496,10.353c59.787-0.406,119.578-0.218,179.368-0.218
	C1013.387,1113.499,1013.387,1113.515,1013.387,1113.531z"/>
<g>
	<path fill="#BEC3C8" d="M996.29,1057.368c6.734-7.966,15.42-11.904,23.88-11.714v-0.01c0.094-0.004,0.189,0.008,0.283,0.005
		c0.094,0.003,0.189-0.01,0.283-0.005v0.01c8.46-0.19,17.147,3.748,23.88,11.714c14.373,17.006,14.334,46.705-0.085,63.68
		c-6.68,7.864-15.346,11.771-23.796,11.581v0.01c-0.094,0.004-0.189-0.008-0.283-0.005c-0.094-0.003-0.189,0.009-0.283,0.005v-0.01
		c-8.45,0.191-17.116-3.717-23.796-11.581C981.955,1104.073,981.916,1074.374,996.29,1057.368z"/>
	<path fill="#BEC3C8" d="M857.191,1057.368c6.734-7.966,15.421-11.904,23.88-11.714v-0.01c0.094-0.004,0.189,0.008,0.283,0.005
		c0.094,0.003,0.189-0.01,0.283-0.005v0.01c8.46-0.19,17.147,3.748,23.88,11.714c14.373,17.006,14.335,46.705-0.085,63.68
		c-6.68,7.864-15.346,11.771-23.796,11.581v0.01c-0.094,0.004-0.189-0.008-0.283-0.005c-0.094-0.003-0.189,0.009-0.283,0.005v-0.01
		c-8.45,0.191-17.116-3.717-23.796-11.581C842.856,1104.073,842.817,1074.374,857.191,1057.368z"/>
</g>
<g>
	<path fill="#E6EBF0" d="M1063.063,989.517c-12.75,0-24.219,0.111-35.684-0.036c-8.515-0.109-14.823-3.812-17.012-12.451
		c-2.345-9.255,4.812-17.568,15.83-18.43c5.281-0.413,10.614-0.167,15.923-0.191c4.899-0.022,9.799-0.005,15.833-0.005
		c-0.934-3.789-1.171-6.399-2.193-8.653c-19.552-43.09-50.14-74.474-97.446-84.626c-29.236-6.274-57.041-0.81-77.601,24.08
		c-19.606,23.735-13.827,57.098,13.58,71.282c38.598,19.975,77.719,38.976,116.998,57.589
		C1032.824,1028.281,1053.377,1017.14,1063.063,989.517z"/>
	<path fill="#E6EBF0" d="M1001.141,869.731c2.53,1.915,5.087,3.797,7.586,5.751c33.64,26.291,59.785,58.218,74.301,98.88
		c4.08,11.43,9.919,15.894,22.29,15.966c29.542,0.171,59.086,0.265,88.627,0.008c15.949-0.139,21.685-10.033,14.563-24.254
		c-19.634-39.202-47.863-70.649-85.395-93.401c-4.792-2.905-11.047-4.683-16.651-4.752c-34.821-0.426-69.651-0.214-104.478-0.214
		C1001.703,868.387,1001.422,869.059,1001.141,869.731z"/>
</g>
<rect x="922.622" y="859.474" fill="#4285F4" width="7" height="122.752"/>
<path fill="#FFFFFF" d="M1073.382,1022.955c-0.002,9.538,6.834,18.269,14.514,18.539c8.098,0.284,15.238-8.486,15.29-18.779
	c0.052-10.384-6.715-18.938-15.04-19.012C1080.161,1003.633,1073.384,1012.47,1073.382,1022.955z"/>
<path fill="#FFFFFF" d="M1225.372,1041.45c0.977-0.009,1.943-0.181,2.885-0.479c-0.574-12.181-2.456-24.282-5.786-36.272
	c-6.136,2.17-11.115,9.782-11.219,18.05C1211.13,1032.529,1217.919,1041.521,1225.372,1041.45z"/>
<path fill="#E6EBF0" d="M1697.758,1058.602c3.893-3.532,8.49-8.26,13.612-14.556c6.083-7.477,10.577-14.569,13.819-20.497
	c-0.753-0.722-1.519-1.428-2.286-2.132c-3.201,5.951-7.712,13.179-13.86,20.736c-6.191,7.61-11.613,12.876-15.87,16.448H1697.758z"
	/>
<path fill="#E6EBF0" d="M1790.897,1058.602h3.739l-24.091-32.372c-0.832,0.554-1.657,1.12-2.473,1.701L1790.897,1058.602z"/>
<path fill="#E6EBF0" d="M1821.101,1058.602c0.464-5.008,0.725-11.299,0.546-19.13c-0.306-13.448-2.88-22.494-5.475-28.276
	c-1.09,0.045-2.175,0.111-3.255,0.196c2.586,5.348,5.416,14.297,5.731,28.148c0.179,7.871-0.097,14.135-0.57,19.062H1821.101z"/>
<path fill="#E6EBF0" d="M1842.062,1058.602h4.06l26.932-29.543c-0.809-0.601-1.627-1.188-2.453-1.762L1842.062,1058.602z"/>
<path fill="#E6EBF0" d="M1615.819,988.563l28.178,70.039h3.234l-28.375-70.528C1617.839,988.221,1616.829,988.392,1615.819,988.563z
	"/>
<path fill="#FFFFFF" d="M983.746,1113.914c-9.272-20.863-6.709-48.478,7.728-65.559c7.766-9.188,18.174-14.325,28.562-14.09
	c0.081,0.005,0.165-0.001,0.248-0.007c0.057,0.003,0.114,0.001,0.171,0.002c0.055,0.001,0.108-0.001,0.153-0.003
	c0.087,0.008,0.176,0.014,0.263,0.008c10.387-0.219,20.796,4.902,28.562,14.09c14.425,17.066,16.996,44.649,7.753,65.505
	c1.792,0,3.585,0,5.377,0c8.895-22.292,5.807-50.847-9.312-68.734c-8.681-10.271-20.433-16.064-32.231-15.864
	c-0.028-0.003-0.056-0.005-0.084-0.006c-0.143-0.008-0.288-0.004-0.402,0.005c-0.054-0.001-0.077-0.001-0.132-0.002
	c-0.143-0.007-0.287-0.009-0.432-0.003c-0.028,0.001-0.056,0.003-0.083,0.006c-11.822-0.204-23.55,5.593-32.231,15.864
	c-15.131,17.903-18.211,46.491-9.288,68.791C980.16,1113.915,981.953,1113.915,983.746,1113.914z"/>
<path fill="#FFFFFF" d="M844.569,1113.746c-9.183-20.843-6.593-48.357,7.805-65.391c7.766-9.188,18.185-14.325,28.562-14.09
	c0.081,0.005,0.166-0.001,0.248-0.007c0.058,0.003,0.114,0.001,0.172,0.002c0.056-0.002,0.107-0.001,0.153-0.003
	c0.087,0.008,0.176,0.014,0.263,0.008c10.398-0.224,20.796,4.902,28.562,14.09c14.442,17.086,17.001,44.714,7.719,65.579
	c1.793,0.001,3.586,0.006,5.379,0.006c8.934-22.303,5.857-50.904-9.279-68.813c-8.682-10.271-20.421-16.052-32.231-15.864
	c-0.028-0.003-0.056-0.005-0.084-0.006c-0.143-0.008-0.288-0.004-0.402,0.005c-0.054-0.001-0.076-0.001-0.132-0.002
	c-0.143-0.007-0.288-0.009-0.432-0.003c-0.028,0.001-0.056,0.003-0.083,0.006c-11.805-0.204-23.549,5.594-32.231,15.864
	c-15.088,17.851-18.195,46.326-9.367,68.598C840.983,1113.733,842.776,1113.737,844.569,1113.746z"/>
<path fill="#1A73E8" d="M836.672,1022.461v-57.417c0-8.125-6.61-14.735-14.735-14.735h-8.83c-0.234,1.34-0.477,2.673-0.682,4.038
	c-0.048,0.321-0.092,0.641-0.139,0.962h9.651c5.368,0,9.735,4.367,9.735,9.735v57.417c0,5.368-4.367,9.735-9.735,9.735h-13.484
	c0.094,1.667,0.199,3.334,0.318,5h13.166C830.061,1037.196,836.672,1030.586,836.672,1022.461z"/>
</svg>
