<svg xmlns="http://www.w3.org/2000/svg" width="260" height="260"><linearGradient id="a" gradientUnits="userSpaceOnUse" x1="185.9075" y1="53.1674" x2="185.9075" y2="115.384" gradientTransform="translate(0 42)"><stop offset="0" style="stop-color:#3C4043"/><stop offset=".3864" style="stop-color:#35383B;stop-opacity:0.6136"/><stop offset=".9935" style="stop-color:#202124;stop-opacity:0.0065"/><stop offset="1" style="stop-color:#202124;stop-opacity:0"/></linearGradient><path fill="url(#a)" d="M222.392 129.327h-72.969c2.76-9.35 11.91-8.12 18.38-5.88 5.01 1.73 10.23 1.12 15.05-1.6l.74-.42c2.12-1.2 4.2-2.55 6.28-3.94 10.04-6.74 16.63-.72 19.88 3.96 1.59 2.29 3.74 3.31 5.88 2.8 2.589-.61 5.839-.22 6.759 5.08z"/><linearGradient id="b" gradientUnits="userSpaceOnUse" x1="-2651.5332" y1="53.7788" x2="-2651.5332" y2="143.5374" gradientTransform="matrix(-1 0 0 1 -2559.7351 42)"><stop offset="0" style="stop-color:#5F6368"/><stop offset="1" style="stop-color:#202124;stop-opacity:0"/></linearGradient><path fill="url(#b)" d="M169.763 182.978l-24.239-37.638c-7.607-10.494-20.279-15.156-31.962-11.245-.487.165-.982.338-1.485.528-16.765 6.32-27.944-27.746-46.556-30.724-22.614-3.622-29.462 16.492-29.462 16.492l-22.226 62.595 155.93-.008z"/><path fill="#202124" d="M50.819 113.23c6.905-.528 14.257 2.17 18.736 6.881 2.442 2.574 3.449 4.727 3.053 6.6-.602 2.921-4.505 5.123-10.164 7.524-2.475 1.048-4.15 2.945-4.612 5.206-.388 1.922.157 3.82 1.51 5.206 1.172 1.213 3.457 1.733 5.948 1.733 1.964 0 4.043-.322 5.816-.891l36.392-10.107c-.553-.025-1.097-.091-1.634-.19l-34.94 9.719c-3.869 1.229-9.265 1.254-11.138-.685-1.205-1.246-1.691-2.937-1.345-4.653.421-2.054 1.964-3.795 4.249-4.76 5.841-2.483 9.867-4.785 10.527-7.97.429-2.087-.619-4.422-3.218-7.153-4.604-4.835-12.144-7.615-19.231-7.071-4.208.322-10.016 1.939-14.636 7.582-.05.124-.074.198-.074.198l-.602 1.691c.008-.008.025-.017.033-.033 4.637-6.682 10.899-8.489 15.33-8.827z"/><radialGradient id="c" cx="97.8239" cy="176.1469" r="366.783" gradientTransform="translate(0 42)" gradientUnits="userSpaceOnUse"><stop offset="0" style="stop-color:#5F6368"/><stop offset="1" style="stop-color:#DADCE0"/></radialGradient><path fill="url(#c)" d="M170.103 91.124v130.37h-79.59V91.124h79.59z"/><path fill="#202124" d="M145.878 221.184h-.75v-20.189c0-7.304-5.941-13.245-13.245-13.245h-.311c-7.304 0-13.245 5.941-13.245 13.245v20.189h-.75v-20.189c0-7.717 6.278-13.995 13.995-13.995h.311c7.717 0 13.995 6.278 13.995 13.995v20.189zM124.452 127.67h-27.55c-.207 0-.375-.168-.375-.375v-7.83c0-7.717 6.278-13.995 13.995-13.995h.311c7.717 0 13.994 6.278 13.994 13.995v7.83c0 .207-.168.375-.375.375zm-27.175-.75h26.8v-7.455c0-7.303-5.941-13.245-13.244-13.245h-.311c-7.304 0-13.245 5.942-13.245 13.245v7.455zM164.602 127.67h-27.55c-.207 0-.375-.168-.375-.375v-7.83c0-7.717 6.278-13.995 13.995-13.995h.31c7.717 0 13.995 6.278 13.995 13.995v7.83c0 .207-.167.375-.375.375zm-27.174-.75h26.8v-7.455c0-7.303-5.941-13.245-13.245-13.245h-.31c-7.304 0-13.245 5.942-13.245 13.245v7.455zM124.492 177.343h-27.55c-.207 0-.375-.168-.375-.375v-7.83c0-7.717 6.278-13.995 13.995-13.995h.311c7.717 0 13.994 6.278 13.994 13.995v7.83c0 .207-.168.375-.375.375zm-27.175-.75h26.8v-7.455c0-7.304-5.941-13.245-13.244-13.245h-.311c-7.304 0-13.245 5.941-13.245 13.245v7.455zM164.643 177.343h-27.55c-.207 0-.375-.168-.375-.375v-7.83c0-7.717 6.278-13.995 13.995-13.995h.31c7.717 0 13.995 6.278 13.995 13.995v7.83c0 .207-.168.375-.375.375zm-27.175-.75h26.8v-7.455c0-7.304-5.941-13.245-13.245-13.245h-.31c-7.304 0-13.245 5.941-13.245 13.245v7.455zM90.513 141.791h79.59v.75h-79.59zM90.513 147.608h79.59v.75h-79.59zM90.513 97.304h79.59v.75h-79.59z"/><radialGradient id="d" cx="183.055" cy="187.2542" r="79.867" gradientUnits="userSpaceOnUse"><stop offset="0" style="stop-color:#3C4043"/><stop offset="1" style="stop-color:#3C4043;stop-opacity:0"/></radialGradient><path fill="url(#d)" d="M0 221.435l-1 39h72.814l11.331-23.565c-.413.025-.826.046-1.241.046-.2 0-.396-.004-.591-.009-2.543 2.186-7.457 3.76-12.359 3.76-6.16 0-9.964-2.483-8.496-5.546l.342-.714c-2.852-.88-4.274-2.487-3.394-4.323 1.333-2.782 7.438-5.037 13.638-5.037 3.203 0 5.803.603 7.385 1.57.239-.006.48-.009.719-.009h8.258l-.008.008c.22.006.431.02.643.034l1.591-3.321c-1.027-.054-1.863-.284-2.375-.647-.983.414-2.217.675-3.451.675s-2.22-.26-2.805-.675c-.983.414-2.217.675-3.451.675-2.374 0-4.168-.703-3.603-1.883l90.899.038h5.248l-1.203 2.512c4.857.345 7.035 4.058 4.861 8.596-2.174 4.538-7.909 8.25-13.099 8.597l-9.249 19.218H259l1-39H0z"/><path fill="#669DF6" d="M178.388 25.928h-96.17c-1.83 0-3.3 1.48-3.3 3.3v44.44c0 1.82 1.48 3.3 3.3 3.3h41.07l5.9 7.29c.57.71 1.66.71 2.23 0l5.9-7.29h41.07c1.82 0 3.3-1.48 3.3-3.3v-44.44c.01-1.82-1.47-3.3-3.3-3.3z"/><path fill="#202124" d="M92.768 46.578h2.22l2.25 6.54.4 1.4h.12l.43-1.4 2.34-6.54h2.22l-3.96 10.87h-2.16l-3.86-10.87zM104.018 56.758l4.33-7.73-.05-.09h-4.78l.03-1.88h7.04v1.97l-4.9 8.65-1.67-.92zM115.348 57.688c-.39 0-.79-.06-1.18-.17s-.75-.28-1.09-.52-.62-.52-.87-.87-.43-.77-.56-1.25l1.81-.7c.11.51.33.91.65 1.21.32.3.72.46 1.22.46.24 0 .47-.04.68-.13s.39-.21.55-.36.28-.33.36-.54c.09-.21.13-.44.13-.69 0-.24-.04-.47-.13-.68s-.21-.39-.36-.55-.33-.28-.54-.36-.44-.13-.69-.13c-.32 0-.59.07-.84.21-.24.14-.45.31-.62.51l-1.93-.88.61-5.19h5.85v1.75h-4.19l-.39 2.43.12.03c.2-.17.45-.32.74-.44s.65-.18 1.06-.18c.43 0 .85.08 1.24.25s.75.4 1.05.71c.3.3.55.67.73 1.1s.27.91.27 1.43-.09.99-.27 1.43-.44.81-.77 1.12c-.33.31-.72.56-1.17.74-.44.17-.94.26-1.47.26zM119.948 46.578h2.22l2.25 6.54.39 1.4h.12l.43-1.4 2.34-6.54h2.22l-3.96 10.87h-2.16l-3.85-10.87zM135.278 52.448h2.6v1.76h-2.6v2.58h-1.76v-2.58h-2.58v-1.76h2.58v-2.58h1.76v2.58zM143.098 57.688c-.56 0-1.07-.08-1.53-.24-.46-.16-.86-.38-1.19-.66-.33-.28-.59-.61-.78-.99-.18-.38-.27-.79-.27-1.24 0-.3.04-.59.13-.85s.2-.5.35-.71c.15-.21.32-.4.51-.56.19-.16.39-.3.61-.41v-.12c-.33-.22-.63-.52-.87-.88-.25-.36-.37-.79-.37-1.28 0-.42.09-.8.26-1.16s.41-.67.71-.93.66-.47 1.08-.61c.41-.15.87-.22 1.37-.22s.95.07 1.37.22c.42.15.77.35 1.08.61.31.26.54.57.71.93s.26.75.26 1.16c0 .49-.12.91-.37 1.28s-.54.66-.87.88v.12c.21.11.42.25.61.41s.36.35.51.56c.15.21.26.45.35.71s.13.55.13.85c0 .45-.09.86-.27 1.24-.18.38-.44.71-.77.99s-.73.5-1.19.66c-.49.16-1 .24-1.56.24zm0-1.84c.52 0 .94-.13 1.28-.4.33-.27.5-.63.5-1.09 0-.21-.05-.41-.14-.58s-.21-.33-.37-.46-.34-.23-.56-.3-.45-.11-.71-.11c-.26 0-.49.04-.71.11s-.4.17-.56.3c-.16.13-.28.29-.37.46-.09.17-.14.37-.14.58 0 .46.17.82.5 1.09.34.27.76.4 1.28.4zm0-4.69c.43 0 .78-.12 1.06-.36s.43-.55.43-.93c0-.39-.14-.71-.43-.93-.28-.23-.64-.34-1.06-.34-.43 0-.78.11-1.06.34-.28.23-.43.54-.43.93 0 .38.14.7.43.93.28.24.64.36 1.06.36zM156.068 57.198c-.35.15-.73.27-1.12.36-.39.09-.8.13-1.23.13-.81 0-1.56-.15-2.25-.44s-1.29-.7-1.8-1.21-.9-1.11-1.19-1.81c-.29-.7-.43-1.43-.43-2.22s.14-1.53.43-2.22c.29-.69.68-1.3 1.19-1.81.51-.51 1.11-.91 1.8-1.21.69-.29 1.44-.44 2.25-.44s1.56.15 2.25.44 1.29.7 1.8 1.21.9 1.11 1.19 1.81c.29.69.43 1.43.43 2.22 0 .84-.16 1.62-.47 2.34-.31.72-.75 1.34-1.32 1.85l.84 1.25-1.52 1.02-.85-1.27zm-2.31-3.46l1.52-1.03 1.18 1.79c.27-.31.49-.68.64-1.1.15-.42.24-.88.24-1.39 0-.56-.09-1.07-.28-1.53s-.44-.85-.77-1.18c-.33-.32-.71-.58-1.15-.76s-.91-.27-1.42-.27-.98.09-1.42.27-.82.43-1.15.76c-.33.32-.59.72-.77 1.18-.18.46-.28.97-.28 1.53s.09 1.07.28 1.53.44.85.77 1.18c.33.32.71.58 1.15.76s.91.27 1.42.27c.22 0 .43-.02.64-.06.2-.04.4-.1.59-.17l-1.19-1.78zM164.218 57.688c-.43 0-.83-.06-1.22-.17s-.75-.28-1.07-.51c-.32-.23-.61-.51-.86-.86-.25-.34-.44-.74-.57-1.2l1.87-.74c.13.51.36.89.67 1.15.31.26.71.39 1.18.39.21 0 .41-.03.61-.1.19-.07.36-.16.5-.28.14-.12.26-.27.34-.43.09-.17.13-.36.13-.57 0-.44-.16-.79-.49-1.05-.33-.25-.78-.38-1.36-.38h-.89v-1.81h.82c.2 0 .4-.03.59-.08s.36-.13.51-.24.26-.24.35-.41c.09-.17.13-.36.13-.58 0-.34-.12-.62-.36-.84-.24-.22-.57-.33-.99-.33-.45 0-.79.12-1.02.36-.24.24-.4.5-.49.8l-1.82-.74c.09-.25.23-.51.41-.78.18-.27.41-.51.69-.73s.61-.39.98-.53.81-.21 1.29-.21c.5 0 .95.07 1.36.21s.76.34 1.06.58.52.54.68.88.24.71.24 1.1c0 .3-.04.58-.11.82-.08.24-.18.46-.3.65s-.26.36-.42.49c-.16.14-.32.25-.48.33v.12c.49.19.89.5 1.21.93s.48.96.48 1.61c0 .46-.09.87-.26 1.25s-.42.71-.74.99-.7.5-1.15.66c-.46.17-.95.25-1.5.25z"/><ellipse fill="#5BB974" cx="170.332" cy="198.716" rx="9.744" ry="17.367"/><path fill="#5F6368" d="M170.333 221.556c-.276 0-.5-.224-.5-.5v-8.884c0-.276.224-.5.5-.5s.5.224.5.5v8.884c0 .276-.224.5-.5.5z"/><path fill="#5BB974" d="M66.987 195.327v-1.429c0-6.157 4.987-11.144 11.144-11.144 4.897 0 9.055 3.158 10.554 7.556.2-.01.4-.02.6-.02 5.717 0 10.364 4.637 10.364 10.364 0 5.537-4.338 10.054-9.805 10.344v.02h-8.255c-.24 0-.48-.01-.72-.02-2.049 1.939-4.927 3.158-8.135 3.158-6.197 0-11.224-4.537-11.224-10.124.01-3.708 2.209-6.936 5.477-8.705z"/><path fill="#5F6368" d="M82.758 220.393c-.236 0-.445-.167-.49-.407L77.71 195.92c-.051-.271.127-.532.398-.584.274-.049.533.127.584.398l4.558 24.067c.051.271-.127.532-.398.584-.032.005-.063.008-.094.008z"/><path fill="#5F6368" d="M80.09 206.341c-.21 0-.407-.134-.475-.345-.085-.263.058-.545.321-.631l11.434-3.727c.264-.083.545.058.63.32.085.263-.058.545-.321.631l-11.434 3.727c-.052.017-.104.025-.155.025zM79.287 202.638c-.025 0-.051-.002-.078-.006l-5.652-.883c-.273-.043-.46-.299-.417-.571.042-.272.295-.459.571-.417l5.652.883c.273.043.46.299.417.571-.038.247-.251.423-.493.423z"/><path fill="#5BB974" d="M73.933 221.512c0-2.369 2.129-3.968 4.497-3.968 1.229 0 2.339.52 3.128 1.359.78-.83 1.889-1.359 3.128-1.359 1.229 0 2.339.52 3.128 1.359.78-.83 1.889-1.359 3.128-1.359.1 0 .19.01.28.01v-.01c0-4.637 3.758-8.395 8.395-8.395 4.308 0 7.846 3.238 8.335 7.416.18-.02.36-.03.55-.03 2.748 0 4.977 2.229 4.977 4.977H73.933z"/><path fill="#202124" d="M88.835 218.114l4.008 3.388h1.159l-4.408-3.728c-.269.09-.519.21-.759.34zM85.956 221.512h1.029c-1.419-1.409-1.979-2.958-2.199-3.958-.03 0-.06-.01-.1-.01-.23 0-.45.04-.67.07.201.98.701 2.459 1.94 3.898zM96.601 209.719c-.25.1-.5.21-.73.32 1.159 1.209 3.988 4.817 3.958 11.134l-7.186-8.295c-.15.22-.28.44-.41.68l6.886 7.956h1.429c.13-6.528-2.578-10.316-3.947-11.795zM78.772 217.536l-2.019 3.94h.843l1.956-3.817c-.252-.067-.512-.104-.78-.123z"/></svg>