<svg xmlns="http://www.w3.org/2000/svg" width="600" height="200"><radialGradient id="a" cx="294.0435" cy="119.087" r="209.2408" gradientTransform="matrix(.9999 .015 -.0075 .4985 .9212 55.3216)" gradientUnits="userSpaceOnUse"><stop offset="0" style="stop-color:#3c4043"/><stop offset=".8631" style="stop-color:#3c4043;stop-opacity:0"/></radialGradient><path fill="url(#a)" d="M116.5 160v100h367V160h-367zm189.06 44.86c-2.47 5.28-8.06 9.86-15.36 13.16-10.232 4.486-21.41 6.389-32.55 5.54-3.688-.254-7.342-.87-10.91-1.84-8.78-2.44-14.9-6.88-17.15-12.23-1.385-3.323-1.25-7.085.37-10.3 6.15-13.08 23.22-17.11 41.15-27.37 10.83-6.16 10.63-10.36 15.48-10 4.85.36.66 4.24 5.15 11.58 1.239 1.989 2.606 3.896 4.09 5.71 4.4 5.48 9.1 9.94 10.73 15.18 1 3.12.9 6.52-1 10.57z"/><linearGradient id="b" gradientUnits="userSpaceOnUse" x1="394.5" y1="-986.13" x2="394.5" y2="-1068.1" gradientTransform="matrix(1 0 0 -1 0 -930)"><stop offset="0" style="stop-color:#3c4043"/><stop offset="1" style="stop-color:#3c4043;stop-opacity:0"/></linearGradient><path fill="url(#b)" d="M290.72 117.85L265 147.24l259-1.31v-10.776c0-6.602-2.807-12.894-7.72-17.304L454.63 60c-4.403-4.132-11.233-4.219-15.74-.2-8.09 7.2-20.38 18.12-42.09 27.88-41.63 18.72-85.67 11.24-106.08 30.17z"/><path fill="#202124" d="M434.85 81.58c2.45 2.17 4.76 4.22 8.36 4.22 4.27 0 6.52-2.36 8.7-4.64s4.44-4.65 8.79-4.65c6.1 0 10.59 2.54 14.95 5 1.48.84 2.92 1.65 4.4 2.34l-1.18-1.1c-1-.52-2-1.08-3-1.65-4.41-2.49-9-5.06-15.18-5.06-4.55 0-6.88 2.44-9.13 4.79s-4.29 4.5-8.36 4.5c-3.42 0-5.67-2-8-4.1-2.77-2.45-5.91-5.23-11.43-5.23-2.32 0-6.12 1.25-9.93 2.8-1.06.667-2.15 1.307-3.27 1.92 4.78-2.13 10.27-4.26 13.2-4.26 5.31 0 8.23 2.6 11.08 5.12z"/><linearGradient id="c" gradientUnits="userSpaceOnUse" x1="84.36" y1="-985.49" x2="84.36" y2="-1093.3301" gradientTransform="matrix(1 0 0 -1 0 -930)"><stop offset="0" style="stop-color:#3c4043"/><stop offset="1" style="stop-color:#3c4043;stop-opacity:0"/></linearGradient><path fill="url(#c)" d="M92.72 166l-4.49-64.88 3.66-10.32h-5.26l-.39-10.41c1.17-.16 2-.5 2-.91s-.83-.75-2-.91c1.2-.15 2-.5 2-.91s-.88-.78-2.13-.93l-.72-19.08c.977-.318 1.511-1.367 1.194-2.344-.318-.977-1.367-1.511-2.344-1.194-.977.318-1.511 1.367-1.194 2.344.184.566.628 1.01 1.194 1.194l-.76 19.06c-1.25.15-2.14.51-2.14.93s.84.76 2 .91c-1.2.16-2 .51-2 .91s.82.75 2 .91l-.41 10.41h-5l3.41 10.27L76 166h16.72z"/><linearGradient id="d" gradientUnits="userSpaceOnUse" x1="162.31" y1="-980.08" x2="162.31" y2="-1087.14" gradientTransform="matrix(1 0 0 -1 0 -930)"><stop offset="0" style="stop-color:#3c4043"/><stop offset="1" style="stop-color:#3c4043;stop-opacity:0"/></linearGradient><path fill="url(#d)" d="M146.88 109.63V48.69h-12c-9.615 0-17.41 7.795-17.41 17.41v96.84h89.68V142.8h-26.47v-6.41c0-14.779-11.981-26.76-26.76-26.76h-7.04z"/><linearGradient id="e" gradientUnits="userSpaceOnUse" x1="387.17" y1="-1060.5" x2="387.17" y2="-1074.74" gradientTransform="matrix(1 0 0 -1 0 -930)"><stop offset="0" style="stop-color:#3c4043"/><stop offset="1" style="stop-color:#3c4043;stop-opacity:0"/></linearGradient><path fill="url(#e)" d="M372.35 111.14v25l.51.45c4.385-4.184 11.285-4.184 15.67 0 4.389-4.185 11.291-4.185 15.68 0 4.534-4.328 11.719-4.161 16.047.373.021.022.042.044.063.067 4.473-3.836 11.136-3.619 15.35.5 4.619-4.263 11.818-3.974 16.081.645 1.79 1.939 2.85 4.441 2.999 7.075H319.59v-8.56c0-.983.797-1.78 1.78-1.78h.7c.005-6.155 4.985-11.148 11.14-11.17h13.36V78h7.89c9.88 0 17.89 8.01 17.89 17.89v15.25z"/><linearGradient id="f" gradientUnits="userSpaceOnUse" x1="207.19" y1="-1033.9399" x2="207.19" y2="-1082.0601" gradientTransform="matrix(1 0 0 -1 0 -930)"><stop offset="0" style="stop-color:#3c4043"/><stop offset="1" style="stop-color:#3c4043;stop-opacity:0"/></linearGradient><path fill="url(#f)" d="M234.53 127.12H216v-24.23h-52.54v49.54h87.46v-8.92c0-9.052-7.338-16.39-16.39-16.39z"/><path fill="#3C4043" d="M454.53 145.2h39.9c-.01-3.333-2.668-6.053-6-6.14-2.272.01-4.252 1.55-4.82 3.75-.5-2.556-2.746-4.395-5.35-4.38-2.346.001-4.389 1.602-4.95 3.88-.785-2.573-3.506-4.022-6.079-3.237-1.579.482-2.807 1.73-3.261 3.317-.658-1.884-2.434-3.147-4.43-3.15 0 0-5.06.12-5.01 5.96z"/><path fill="#8AB4F8" d="M286.93 32.65c-24.52-.936-45.156 18.183-46.092 42.703-.388 10.163 2.723 20.151 8.812 28.297 0 0 10 11.66 14.2 17.77 3.87 5.69 15.33 23.22 17.7 35.24.537 2.14 2.434 3.661 4.64 3.72h.12c2.212-.035 4.129-1.54 4.69-3.68 2.37-12 13.83-29.55 17.7-35.24 4.16-6.11 14.2-17.77 14.2-17.77 5.762-7.702 8.858-17.071 8.82-26.69 0-25.07-19.47-45.31-44.79-44.35z"/><path fill="#5F6368" d="M182.67 36.7c-2.423-4.635-6.583-8.123-11.57-9.7-7.63-2.414-15.962.015-21.1 6.15-2.996 3.557-4.636 8.06-4.63 12.71-.036 3.259.647 6.485 2 9.45 2.07 4.53 5.5 8.18 9 12.74 1.15 1.48 2.3 3 3.43 4.79 4 6.21 2.81 9.93 5.34 9.93s1.44-3.72 5.46-9.93c6.63-10.28 14.32-15 14.32-27 .002-3.184-.77-6.321-2.25-9.14zM203.87 138.64l-9.71-12.19v-34.1h-54.47c-3.294.027-5.95 2.706-5.95 6v68.28h60.42v-27.17h9.3c.282.003.512-.223.515-.505.001-.114-.036-.225-.105-.315z"/><linearGradient id="g" gradientUnits="userSpaceOnUse" x1="204.4457" y1="-949.5457" x2="158.1857" y2="-1077.9657" gradientTransform="matrix(1 0 0 -1 0 -930)"><stop offset="0" style="stop-color:#3c4043"/><stop offset="1" style="stop-color:#3c4043;stop-opacity:0"/></linearGradient><path fill="url(#g)" d="M203.87 138.64l-9.71-12.19v-34.1h-54.47c-3.294.027-5.95 2.706-5.95 6v68.28h60.42v-27.17h9.3c.282.003.512-.223.515-.505.001-.114-.036-.225-.105-.315z"/><path fill="#202124" d="M194.16 125.71H149V92.35h-.66v74.23h.66v-40l10 13.47c.062.081.158.129.26.13h2.37v26.36h.66v-19.78h10.28v19.82h.66v-19.82H184v19.82h.66v-26.36h9.5v-.66h-34.72l-9.82-13.19h44.54v-.66zM184 146.1h-21.7v-5.88H184v5.88z"/><path fill="#202124" d="M155.39 146c-2.209 0-4 1.791-4 4s1.791 4 4 4 4-1.791 4-4-1.791-4-4-4zm0 7.29c-1.834.006-3.324-1.476-3.33-3.31s1.476-3.324 3.31-3.33 3.324 1.476 3.33 3.31v.01c-.027 1.81-1.5 3.265-3.31 3.27v.05zM153.17 122.74h37.58c.182 0 .33-.148.33-.33v-17c0-.182-.148-.33-.33-.33h-37.58c-.182 0-.33.148-.33.33v17c0 .182.148.33.33.33zm.33-17h36.92v16.39H153.5v-16.39z"/><path fill="#5F6368" d="M215.14 166.52l.79-.21-5-18.95c-.045-.18-.205-.307-.39-.31h-9.36c-.193.005-.359.141-.4.33l-3.89 19 .81.17.86-4.19h6.3l1.17 4.22.79-.22-1.11-4H214l1.14 4.16zm-16.45-5l2.51-12.27 3.39 12.27h-5.9zm6.75 0l-3.76-13.61h8.5l3.62 13.61h-8.36zM93.63 166.58h53.29c-.35-5.35-4.27-8.2-8-8.2-3.03.018-5.671 2.069-6.44 5-.672-3.413-3.672-5.867-7.15-5.85-3.132.001-5.86 2.139-6.61 5.18-1.057-3.436-4.7-5.365-8.137-4.308-2.103.647-3.737 2.313-4.343 4.428-.873-2.518-3.245-4.208-5.91-4.21 0 0-6.78.16-6.7 7.96z"/><path fill="#3C4043" d="M99 166.58c-.31-2.32-.9-5.26-1.33-7.27-.206.095-.406.202-.6.32.47 2.23 1 4.89 1.27 7l.66-.05zM102.54 166.58l-3-7.87c-.22.036-.437.086-.65.15l2.94 7.72h.71zM112.87 166.58l4.6-6.11c-.147-.166-.304-.323-.47-.47l-5 6.6.87-.02zM110.13 166.58h.67c-.187-2.833.128-5.677.93-8.4-.25 0-.49.08-.72.13-.767 2.686-1.065 5.483-.88 8.27zM121.37 166.58h.8c2.085-3.075 5.104-5.4 8.61-6.63-.17-.18-.35-.35-.53-.52-3.645 1.378-6.756 3.883-8.88 7.15z"/><path fill="#202124" d="M163 52c-.701.004-1.375-.273-1.87-.77L157 47.05c-.716-.841-.614-2.104.228-2.819.751-.639 1.856-.635 2.602.009l3.15 3.18 7.5-8.2c.672-.877 1.928-1.042 2.804-.37.877.672 1.042 1.928.37 2.804-.07.092-.149.178-.234.256L165 51.08c-.524.546-1.243.863-2 .88V52z"/><path fill="#5F6368" d="M424.94 62.23c-2.36-4.512-6.407-7.909-11.26-9.45-7.43-2.337-15.536.031-20.54 6-2.92 3.463-4.518 7.85-4.51 12.38-.041 3.168.618 6.306 1.93 9.19 2 4.41 5.35 8 8.79 12.4 1.11 1.44 2.24 3 3.33 4.67 3.9 6 2.73 9.66 5.21 9.66s1.4-3.61 5.3-9.66c6.47-10 13.95-14.59 13.95-26.27.002-3.108-.753-6.169-2.2-8.92zM442 139.15c-23.94-8.32-31.37-16.14-33.51-19.27 1.177-.362 1.838-1.609 1.477-2.787-.362-1.177-1.609-1.838-2.787-1.477s-1.838 1.609-1.477 2.787c.217.707.77 1.26 1.477 1.477-2.14 3.13-9.56 11-33.5 19.27-.266.109-.393.412-.284.678.075.183.247.308.444.322h8V166h52v-25.84h8c.287-.016.507-.261.491-.547-.011-.2-.136-.376-.321-.453l-.01-.01z"/><path fill="#202124" d="M418.47 138.16h-21.18c-.171.006-.314-.129-.32-.3v-6.67c0-.171.139-.31.31-.31h21.19c.171 0 .31.139.31.31v6.66c0 .171-.139.31-.31.31zm-20.87-.62h20.55v-6H397.6v6zM430.11 143.58h-44.47c-.177 0-.32.143-.32.32V166h.68v-15.55h21.61V166h.63v-15.55h21.56V166h.63v-22.1c0-.177-.143-.32-.32-.32zm-22.55 6.24H386v-5.61h21.61l-.05 5.61zm22.24 0h-21.61v-5.61h21.61v5.61zM406.59 78c-.665.007-1.303-.257-1.77-.73l-3.92-3.94c-.684-.796-.592-1.996.204-2.679.716-.615 1.775-.611 2.486.009l3 3 7.12-7.8c.663-.813 1.86-.935 2.673-.272s.935 1.86.272 2.673c-.045.056-.094.109-.145.159l-8 8.71c-.501.525-1.194.825-1.92.83V78zM279.37 92.93a6.5721 6.5721 0 01-4.7-1.94L264.3 80.55c-1.952-1.963-1.943-5.138.02-7.09s5.138-1.943 7.09.02l7.95 8 18.86-20.63c1.869-2.046 5.044-2.189 7.09-.32s2.189 5.044.32 7.09l-21.1 23.06c-1.326 1.384-3.153 2.177-5.07 2.2l-.09.05z"/></svg>