<svg xmlns="http://www.w3.org/2000/svg" width="600" height="200"><linearGradient id="a" gradientUnits="userSpaceOnUse" x1="87.29" y1="-358.46" x2="87.29" y2="-385.53" gradientTransform="matrix(1 0 0 -1 0 -264)"><stop offset="0" style="stop-color:#D5D5D5"/><stop offset=".3" style="stop-color:#DBDBDB;stop-opacity:0.7"/><stop offset=".71" style="stop-color:#EEEEEE;stop-opacity:0.29"/><stop offset="1" style="stop-color:#FFFFFF;stop-opacity:0"/></linearGradient><path opacity=".5" fill="url(#a)" d="M147.35,122.14c1.469,0.018,2.674-1.159,2.692-2.628 c0.005-0.447-0.102-0.888-0.312-1.282c-2.106-4.296-5.472-7.848-9.65-10.18c-12.2-6.39-20.26,6-35,0.67 C95.39,105.19,90,96.6,74.77,94.58l-1.22-0.14c-10.646-0.896-20.757,4.812-25.49,14.39c-0.457,0.914-1.409,1.475-2.43,1.43 c-7.127-0.324-14.16,1.723-20,5.82c-1.193,0.867-1.458,2.536-0.591,3.729c0.494,0.68,1.28,1.088,2.121,1.101L147.35,122.14z"/><linearGradient id="b" gradientUnits="userSpaceOnUse" x1="485.05" y1="-303.25" x2="486.33" y2="-341.71" gradientTransform="matrix(1 0 0 -1 0 -264)"><stop offset="0" style="stop-color:#D5D5D5"/><stop offset=".3" style="stop-color:#DBDBDB;stop-opacity:0.7"/><stop offset=".71" style="stop-color:#EEEEEE;stop-opacity:0.29"/><stop offset="1" style="stop-color:#FFFFFF;stop-opacity:0"/></linearGradient><path opacity=".5" fill="url(#b)" d="M553.43,77.39c-12-17.52-33.75-13.25-33.75-13.25 s-6.84-23.07-29.06-19.23s-17.09,22.65-40.11,16.67S419.27,79.1,419.27,79.1L553.43,77.39z"/><path fill="#EAEAEA" d="M371.772,241.328l-0.004-204.159c0-10.642-8.627-19.269-19.269-19.269H243.308 c-10.642,0-19.269,8.627-19.269,19.269l0.011,204.17L371.772,241.328z"/><linearGradient id="c" gradientUnits="userSpaceOnUse" x1="297.92" y1="479.87" x2="297.92" y2="745.62" gradientTransform="translate(0 -466)"><stop offset="0" style="stop-color:#FFFFFF;stop-opacity:0"/><stop offset=".63" style="stop-color:#D7DADD;stop-opacity:0.6316"/><stop offset="1" style="stop-color:#BEC3C8"/></linearGradient><path fill="url(#c)" d="M355.603,241.332l16.183-0.006V37.168c0-10.642-8.627-19.269-19.269-19.269H243.326 c-10.642,0-19.269,8.627-19.269,19.269l-0.003,204.159C267.904,241.326,311.752,241.335,355.603,241.332z"/><path fill="#8C9196" d="M370.039,37.168v204.158h3.457V37.168c0-11.578-9.419-20.997-20.997-20.997H243.308 c-11.578,0-20.998,9.419-20.998,20.997v204.158h1.12h0.069l2.269,0.002V37.168c0-9.672,7.868-17.54,17.541-17.54H352.5 C362.171,19.628,370.039,27.497,370.039,37.168z"/><linearGradient id="d" gradientUnits="userSpaceOnUse" x1="222.31" y1="594.75" x2="373.5" y2="594.75" gradientTransform="translate(0 -466)"><stop offset=".51" style="stop-color:#8C9196;stop-opacity:0"/><stop offset=".58" style="stop-color:#8C9196;stop-opacity:0.1312"/><stop offset="1" style="stop-color:#8C9196"/></linearGradient><path fill="url(#d)" d="M371.765,241.328l1.731-0.002V37.169c0-11.578-9.419-20.998-20.998-20.998h-109.19 c-11.578,0-20.998,9.419-20.998,20.998l0.005,204.161h1.717l0.007-204.161c0-10.642,8.627-19.269,19.269-19.269h109.191 c10.642,0,19.269,8.627,19.266,19.271V241.328L371.765,241.328L371.765,241.328z"/><path fill="#FFFFFF" d="M224.554,241.328l0.002-204.159c0-10.338,8.412-18.75,18.751-18.75h109.191 c10.338,0,18.75,8.412,18.75,18.75l0.017,204.16l1.025-0.002l-0.006-204.158c0-10.91-8.876-19.786-19.786-19.786h-109.19 c-10.911,0-19.787,8.876-19.787,19.786l-0.001,204.16L224.554,241.328z"/><linearGradient id="e" gradientUnits="userSpaceOnUse" x1="207.59" y1="510.83" x2="388.22" y2="691.46" gradientTransform="translate(0 -466)"><stop offset="0" style="stop-color:#FFFFFF;stop-opacity:0"/><stop offset=".11" style="stop-color:#EDEEF0;stop-opacity:0.1056"/><stop offset=".27" style="stop-color:#D8DBDE;stop-opacity:0.2674"/><stop offset=".45" style="stop-color:#C9CDD2;stop-opacity:0.4489"/><stop offset=".66" style="stop-color:#C1C5CA;stop-opacity:0.6643"/><stop offset="1" style="stop-color:#BEC3C8"/></linearGradient><path fill="url(#e)" d="M371.184,241.326h1.166V37.168c0-10.946-8.905-19.851-19.851-19.851H243.308 c-10.946,0-19.852,8.905-19.852,19.851l0.003,204.159l1.161,0.001l0.002-204.16c0-10.303,8.383-18.685,18.686-18.685h109.191 c10.303,0,18.685,8.382,18.685,18.685V241.326L371.184,241.326z"/><linearGradient id="f" gradientUnits="userSpaceOnUse" x1="297.9" y1="707.33" x2="297.9" y2="485.39" gradientTransform="translate(0 -466)"><stop offset="0" style="stop-color:#FFFFFF;stop-opacity:0"/><stop offset="1" style="stop-color:#FFFFFF"/></linearGradient><path fill="url(#f)" d="M243.511,19.977L243.511,19.977l108.841,0.179c9.422,0,17.088,7.665,17.088,17.087l-0.014,203.506 l-143.065-0.005l0.064-203.68C226.423,27.642,234.089,19.977,243.511,19.977 M243.511,19.394c-9.759,0-17.67,7.912-17.67,17.67 l-0.065,204.264l144.232,0.005l0.014-204.089c0-9.759-7.912-17.67-17.671-17.67L243.511,19.394L243.511,19.394z"/><path fill="#FFFFFF" d="M367.09 241.339L367.065 48.15c0-7.328-5.941-13.27-13.27-13.27H242.151c-7.328 0-13.27 5.941-13.27 13.27l-.006 193.179L367.09 241.339zM306.655 29.354h-12.489c-.904 0-1.64-.735-1.64-1.64s.735-1.64 1.64-1.64h12.489c.904 0 1.64.735 1.64 1.64S307.56 29.354 306.655 29.354zM294.166 26.678c-.571 0-1.037.465-1.037 1.037s.465 1.037 1.037 1.037h12.489c.571 0 1.037-.465 1.037-1.037s-.465-1.037-1.037-1.037H294.166zM266.613 30.692c-1.642 0-2.978-1.336-2.978-2.978s1.336-2.978 2.978-2.978 2.978 1.336 2.978 2.978S268.256 30.692 266.613 30.692zM266.613 25.34c-1.31 0-2.374 1.066-2.374 2.374s1.066 2.374 2.374 2.374 2.374-1.066 2.374-2.374S267.922 25.34 266.613 25.34z"/><path fill="#FFFFFF" d="M266.613,28.977c-0.697,0-1.263-0.566-1.263-1.263s0.566-1.264,1.263-1.264s1.264,0.567,1.264,1.264 S267.31,28.977,266.613,28.977z M266.613,27.054c-0.364,0-0.66,0.296-0.66,0.661c0,0.364,0.296,0.66,0.66,0.66 s0.661-0.296,0.661-0.66C267.274,27.351,266.977,27.054,266.613,27.054z"/><path fill="#EAEAEA" d="M357.97 241.33L358.59 241.33 358.58 84.58 237.58 84.58 237.58 241.33 238.18 241.33 238.18 85.19 357.97 85.19z"/><path fill="#FBBC04" d="M273.95 108.63L271.86 108.93 273.37 110.41 273 112.48 274.87 111.51 274.89 106.74z"/><path fill="#E6EBF0" d="M276.39 110.41L277.9 108.95 275.81 108.64 274.89 106.74 274.87 111.51 276.74 112.49z"/><path fill="#FBBC04" d="M246.93 106.66L247.86 108.56 249.94 108.86 248.43 110.33 248.78 112.41 246.92 111.43 245.05 112.4 245.41 110.32 243.9 108.85 245.99 108.55zM253.92 106.68L254.85 108.58 256.93 108.89 255.42 110.35 255.77 112.43 253.91 111.45 252.04 112.42 252.4 110.34 250.89 108.87 252.98 108.57zM260.91 106.7L261.84 108.6 263.92 108.91 262.41 110.37 262.76 112.45 260.89 111.47 259.02 112.44 259.39 110.36 257.88 108.89 259.97 108.59zM267.9 106.72L268.83 108.62 270.91 108.93 269.4 110.39 269.75 112.47 267.88 111.49 266.01 112.46 266.38 110.39 264.87 108.91 266.96 108.61z"/><path transform="rotate(-89.83 297.96 130.43)" fill="#EAEAEA" d="M297.66 70.13H298.26000000000005V190.74H297.66z"/><path transform="rotate(-89.83 298.13 147.14)" fill="#EAEAEA" d="M297.82 87H298.42V207.29000000000002H297.82z"/><path fill="#EAEAEA" d="M291.27 140.458c-.002 0-.002 0-.004 0l-17.896-.052c-.763-.002-1.38-.622-1.378-1.385.002-.762.621-1.378 1.382-1.378.002 0 .002 0 .004 0l17.896.052c.763.002 1.38.622 1.378 1.385C292.649 139.842 292.031 140.458 291.27 140.458zM320.3 140.458c-.002 0-.002 0-.004 0l-17.896-.052c-.763-.002-1.38-.622-1.378-1.385.002-.762.621-1.378 1.382-1.378.002 0 .002 0 .004 0l17.896.052c.763.002 1.38.622 1.378 1.385C321.679 139.842 321.06 140.458 320.3 140.458zM349.33 140.458c-.002 0-.002 0-.004 0l-17.896-.052c-.763-.002-1.38-.622-1.378-1.385.002-.762.621-1.378 1.382-1.378.002 0 .002 0 .004 0l17.896.052c.763.002 1.38.622 1.378 1.385C350.709 139.842 350.091 140.458 349.33 140.458zM348.51 195.949l-102.814-.052h-.001c-.762 0-1.381.618-1.382 1.381 0 .763.618 1.382 1.381 1.382l102.814.052h.001c.762 0 1.381-.618 1.382-1.381C349.89 196.568 349.274 195.95 348.51 195.949zM316.946 206.995l-71.25-.052h-.001c-.762 0-1.381.618-1.382 1.381-.001.762.618 1.382 1.381 1.382l71.25.052h.001c.763 0 1.381-.618 1.382-1.381S317.708 206.995 316.946 206.995z"/><path transform="rotate(-89.85 298.1 188.14)" fill="#EAEAEA" d="M297.79 127.94H298.39000000000004V248.32999999999998H297.79z"/><path fill="#EAEAEA" d="M297.597 224.028l-36.324-.052c0 0-.001 0-.002 0-.763 0-1.38.618-1.382 1.38-.001.762.617 1.382 1.38 1.382l36.324.052c0 0 .001 0 .002 0 .762 0 1.38-.618 1.382-1.38C298.977 224.649 298.36 224.03 297.597 224.028zM279.438 233.589l-18.162-.052c-.002 0-.002 0-.004 0-.761 0-1.379.616-1.382 1.378-.002.763.614 1.382 1.378 1.385l18.162.052c.002 0 .002 0 .004 0 .761 0 1.379-.616 1.382-1.378C280.818 234.21 280.202 233.59 279.438 233.589z"/><path transform="rotate(-89.85 298.1 217.12)" fill="#EAEAEA" d="M297.79 156.92H298.39000000000004V277.31H297.79z"/><path fill="#8C9196" d="M288.635,100.368H245.58c-1.072,0-1.94-0.869-1.94-1.94s0.869-1.94,1.94-1.94h43.055 c1.072,0,1.94,0.869,1.94,1.94S289.707,100.368,288.635,100.368z"/><path fill="#EAEAEA" d="M289.791,121.482h-44.79c-0.763,0-1.382-0.618-1.382-1.382s0.618-1.382,1.382-1.382h44.79 c0.763,0,1.382,0.618,1.382,1.382S290.554,121.482,289.791,121.482z"/><path fill="#D9E4F9" d="M264.236 140.24c-.001 0-.002 0-.003 0l-17.897-.052c-.643-.002-1.162-.525-1.161-1.167.002-.641.523-1.161 1.164-1.161.001 0 .002 0 .003 0l17.897.052c.643.002 1.162.525 1.161 1.167C265.397 139.721 264.877 140.24 264.236 140.24zM283.669 171.911c-.009 0-.017-.001-.025-.001-2.122-.006-4.114-.837-5.61-2.342-1.496-1.505-2.316-3.501-2.31-5.623s.837-4.114 2.342-5.61c1.499-1.49 3.487-2.31 5.599-2.31.009 0 .017 0 .025 0 2.122.006 4.113.837 5.61 2.342 1.495 1.505 2.316 3.501 2.31 5.623s-.837 4.114-2.342 5.61C287.769 171.091 285.782 171.911 283.669 171.911zM283.665 156.56c-1.97 0-3.823.765-5.221 2.155-1.403 1.396-2.179 3.254-2.185 5.233s.76 3.841 2.155 5.244c1.396 1.403 3.254 2.179 5.233 2.185.007 0 .016 0 .023 0 1.97 0 3.823-.765 5.221-2.155 1.403-1.396 2.179-3.254 2.185-5.233.011-4.084-3.302-7.418-7.387-7.429C283.682 156.56 283.673 156.56 283.665 156.56zM291.035 177.849c-.001 0-.002 0-.003 0l-14.81-.043c-.645-.002-1.165-.526-1.163-1.17.002-.643.524-1.163 1.166-1.163.001 0 .002 0 .003 0l14.81.043c.645.002 1.165.526 1.163 1.17C292.2 177.329 291.678 177.849 291.035 177.849zM254.409 171.825c-.008 0-.016 0-.023 0-2.122-.006-4.114-.837-5.611-2.342-1.496-1.505-2.315-3.501-2.309-5.623s.837-4.114 2.342-5.611c1.499-1.49 3.487-2.31 5.599-2.31.009 0 .017.001.025.001 2.122.006 4.113.837 5.61 2.342 1.496 1.505 2.316 3.501 2.31 5.623s-.837 4.113-2.342 5.61C258.51 171.006 256.522 171.825 254.409 171.825zM254.407 156.475c-1.97 0-3.823.765-5.221 2.155-1.403 1.395-2.179 3.254-2.185 5.233s.759 3.841 2.155 5.244c1.395 1.403 3.254 2.179 5.233 2.185.007 0 .015 0 .021 0 4.075 0 7.396-3.31 7.408-7.387.006-1.979-.76-3.841-2.156-5.244-1.395-1.403-3.253-2.179-5.232-2.185C254.423 156.475 254.415 156.475 254.407 156.475zM312.912 172.135c-.008 0-.016 0-.023 0-2.122-.006-4.114-.837-5.611-2.342-1.496-1.505-2.315-3.502-2.309-5.624s.837-4.113 2.342-5.61c1.5-1.49 3.487-2.31 5.6-2.31.008 0 .016 0 .023 0 4.38.013 7.933 3.586 7.92 7.967-.006 2.122-.837 4.113-2.342 5.61C317.013 171.315 315.025 172.135 312.912 172.135zM312.911 156.784c-1.971 0-3.825.766-5.223 2.156-1.403 1.395-2.179 3.253-2.185 5.232-.006 1.979.76 3.841 2.155 5.245 1.395 1.403 3.253 2.179 5.233 2.185.007 0 .015 0 .021 0 4.075 0 7.396-3.31 7.408-7.387.011-4.084-3.302-7.418-7.387-7.43C312.926 156.784 312.919 156.784 312.911 156.784z"/><path fill="#D9E4F9" d="M316.368 166.171l-1.257-.658c-.3-.209-.709-.152-.941.13l-.637.892c-1.553-.862-2.409-2.025-2.879-3.1l.994-.474c.334-.16.49-.549.357-.894l-.524-1.557c-.127-.33-.477-.517-.821-.437l-1.488.342.009.032-.018-.002c-.005.063-.454 6.328 6.722 7.955l.002-.011.026.016.68-1.344C316.75 166.75 316.654 166.371 316.368 166.171zM254.462 168.616h-.143c-.069 0-.135-.026-.185-.075l-4.029-3.866c-.105-.1-.111-.265-.013-.373l4.052-4.446c.051-.056.122-.087.197-.087.001 0 .001 0 .002 0l.143.001c.075 0 .147.032.197.088l4.027 4.469c.097.108.091.274-.015.373l-4.051 3.842C254.596 168.589 254.531 168.616 254.462 168.616zM250.663 164.47l3.727 3.577 3.749-3.555-3.726-4.135L250.663 164.47z"/><path fill="#D9E4F9" d="M253.08 165.53L252.31 165.52 252.31 164.05 256.22 164.06 256.22 164.83 253.08 164.82z"/><path fill="#D9E4F9" d="M254.88 166.25L254.34 165.71 255.6 164.44 254.34 163.07 254.9 162.55 256.66 164.45zM262.048 177.764c-.001 0-.002 0-.003 0l-14.81-.043c-.645-.002-1.165-.526-1.163-1.17.002-.643.523-1.163 1.166-1.163.001 0 .002 0 .003 0l14.81.043c.645.002 1.165.526 1.163 1.17C263.212 177.245 262.691 177.764 262.048 177.764zM320.085 177.932c-.001 0-.002 0-.003 0l-14.81-.043c-.645-.002-1.165-.526-1.163-1.17.002-.643.523-1.163 1.166-1.163.001 0 .002 0 .003 0l14.81.043c.645.002 1.165.526 1.163 1.17C321.25 177.413 320.728 177.932 320.085 177.932z"/><path fill="#D3D3D3" d="M373.499 135.728h1.858c.472 0 .853.382.853.853v37.544c0 .472-.382.853-.853.853h-1.858V135.728zM373.491 98.63h1.858c.472 0 .853.382.853.853v18.303c0 .472-.383.853-.853.853h-1.858V98.63z"/><path fill="#D9E4F9" d="M280.38 167L283.63 159.69 286.93 167 283.67 165.5z"/><path fill="#E6EBF0" d="M304.4,43.158h-58.48c-4.609,0-8.344,3.736-8.344,8.344v33.664H304.4V43.158L304.4,43.158z"/><path fill="#DADCE0" d="M358.566,66.245H304.4V43.158h47.643c3.602,0,6.523,2.921,6.523,6.523V66.245L358.566,66.245z"/><path fill="#F1F3F4" d="M304.4 66.25H331.78999999999996V85.17H304.4z"/><path fill="#E6EBF0" d="M331.79 66.25H358.57000000000005V85.17H331.79zM357.89 241.33L308.22 241.33 308.22 217.44 357.98 217.59z"/><path fill="#D9E4F9" d="M252.276,223.466L252.276,223.466c-0.487-0.969-1.33-1.716-2.351-2.052l0,0l0,0h-0.001l0,0 c-0.382-0.126-0.79-0.195-1.212-0.197c-1.239-0.003-2.35,0.572-3.092,1.481l0,0c-0.591,0.723-0.948,1.657-0.951,2.677 c-0.002,0.785,0.149,1.422,0.399,1.993l0,0c0.419,0.957,1.115,1.727,1.831,2.691l0,0c0.233,0.313,0.467,0.646,0.695,1.013 c0.813,1.312,0.567,2.095,1.084,2.096c0.53,0.002,0.296-0.782,1.117-2.09c1.359-2.164,2.929-3.15,2.936-5.681 C252.73,224.702,252.567,224.045,252.276,223.466z M248.703,223.791c0.85,0.002,1.537,0.717,1.535,1.597 c-0.001,0.379-0.13,0.727-0.346,1l-0.003,0.004c-0.005,0.006-0.01,0.011-0.014,0.017l-0.001,0.001 c-0.001,0.001-0.001,0.002-0.002,0.002l0,0c-0.283,0.346-0.706,0.564-1.178,0.563c-0.85-0.002-1.537-0.717-1.535-1.597 c0.001-0.37,0.124-0.709,0.33-0.979l0.002-0.003c0.01-0.012,0.019-0.025,0.029-0.038l0,0c0.006-0.007,0.012-0.013,0.018-0.02 l0.015-0.018C247.835,223.995,248.246,223.789,248.703,223.791z"/><path fill="#BEC3C8" d="M339.23 222.5L342.24 217.53 338.12 217.53 331.17 229 308.22 229 308.22 232.52 329.04 232.52 323.73 241.33 327.87 241.33 337.09 226.02 358.29 226.02 358.29 222.5z"/><path fill="#70757A" d="M349.107,122.909h-27.664V90.651h21.623c3.389,0.01,6.05,2.761,6.04,6.149v26.109 C349.106,122.909,349.107,122.909,349.107,122.909z"/><path fill="none" stroke="#FFFFFF" stroke-width=".23" stroke-miterlimit="10" d="M344.95 122.91L345.04 90.99M323.48 92.18H342.03000000000003V95.31H323.48zM325.38 110.38H329.28V114.07H325.38z"/><path fill="none" stroke="#FFFFFF" stroke-width=".23" stroke-miterlimit="10" d="M330.36 122.91L330.36 109.43 324.33 109.43 324.33 121.46 322.86 121.46 322.86 122.91M332.94 109.43H342.14V116.42H332.94z"/><linearGradient id="g" gradientUnits="userSpaceOnUse" x1="328.33" y1="-481.91" x2="328.33" y2="-492.45" gradientTransform="matrix(1 0 0 -1 0 -364)"><stop offset="0" style="stop-color:#202124"/><stop offset="1" style="stop-color:#202124;stop-opacity:0"/></linearGradient><path opacity=".3" fill-rule="evenodd" clip-rule="evenodd" fill="url(#g)" d="M335.423,128.486c-9.291-0.027-18.582,0.027-27.872,0l13.893-5.577h27.664L335.423,128.486z"/><path fill="none" stroke="#FFFFFF" stroke-width=".23" stroke-miterlimit="10" d="M324.33 121.46L330.36 121.46M321.49 107.98L345.04 107.98"/><path fill="#FBBC04" d="M338.306,104.844l4.631-8.205h-21.411l-4.632,8.143l-0.003,1.07c-0.002,0.591,0.476,1.072,1.067,1.074 c0.591,0.002,1.072-0.476,1.074-1.067c-0.002,0.591,0.476,1.072,1.067,1.074c0.591,0.002,1.072-0.476,1.074-1.067 c-0.002,0.591,0.476,1.072,1.067,1.074c0.591,0.002,1.072-0.476,1.074-1.067c-0.002,0.591,0.476,1.072,1.067,1.074 c0.591,0.002,1.072-0.476,1.074-1.067c-0.002,0.591,0.476,1.072,1.067,1.074c0.591,0.002,1.072-0.476,1.074-1.067 c-0.002,0.591,0.476,1.072,1.067,1.074c0.591,0.002,1.072-0.476,1.074-1.067c-0.002,0.591,0.476,1.072,1.067,1.074 c0.591,0.002,1.072-0.476,1.074-1.067c-0.002,0.591,0.476,1.072,1.067,1.074c0.591,0.002,1.072-0.476,1.074-1.067 c-0.002,0.591,0.476,1.072,1.067,1.074c0.591,0.002,1.072-0.476,1.074-1.067c-0.002,0.591,0.476,1.072,1.067,1.074 c0.591,0.002,1.072-0.476,1.074-1.067L338.306,104.844"/><linearGradient id="h" gradientUnits="userSpaceOnUse" x1="307.88" y1="-344.04" x2="365.99" y2="-448.73" gradientTransform="matrix(1 0 0 -1 0 -264)"><stop offset="0" style="stop-color:#202124"/><stop offset="1" style="stop-color:#202124;stop-opacity:0"/></linearGradient><path fill="url(#h)" d="M338.19 159.39L367.06 195.93 367.56 162.82z"/><linearGradient id="i" gradientUnits="userSpaceOnUse" x1="208.8" y1="138" x2="232.05" y2="96.11" gradientTransform="matrix(1 0 0 -1 0 202)"><stop offset="0" style="stop-color:#202124"/><stop offset="1" style="stop-color:#202124;stop-opacity:0"/></linearGradient><path fill="url(#i)" d="M222.3 94.99L222.37 115.99 240.27 93.15z"/><path fill="#00AC4D" d="M162,24.35c26.173-8.804,54.528,5.277,63.332,31.45c2.488,7.397,3.21,15.274,2.108,23l12.83,14.35 l-19.14,3.76c-13.897,23.862-44.508,31.941-68.37,18.043s-31.941-44.508-18.043-68.37C140.816,36.111,150.512,28.21,162,24.35z"/><path fill="none" stroke="#FFFFFF" stroke-width="10" stroke-linecap="round" stroke-linejoin="round" d="M160.49 70.67L173.06 83.23 194.42 60.25"/><path fill="#FDBA12" d="M416.45,90.6c-26.173-8.806-54.528,5.273-63.334,31.446c-2.484,7.382-3.208,15.242-2.116,22.954 l-12.83,14.35l19.15,3.77c13.87,23.878,44.471,31.992,68.349,18.122c23.878-13.87,31.992-44.471,18.122-68.349 C437.688,102.387,427.969,94.462,416.45,90.6z"/><path fill="none" stroke="#FFFFFF" stroke-width="10" stroke-linecap="round" stroke-linejoin="round" d="M383.05 121.41L417.37 155.83M417.42 121.46L383 155.78"/></svg>
