<svg xmlns="http://www.w3.org/2000/svg" xml:space="preserve" width="320" height="150"><linearGradient id="a" x1="193.622" x2="162.654" y1="88.886" y2="100.499" gradientTransform="matrix(1 0 0 -1 0 152)" gradientUnits="userSpaceOnUse"><stop offset="0" style="stop-color:#E8EAED"/><stop offset="1" style="stop-color:#E8EAED;stop-opacity:0"/></linearGradient><path fill="url(#a)" d="M216.2 57.3h-77.8l-5.3-5.2h71z"/><linearGradient id="b" x1="227.719" x2="296.248" y1="97.535" y2="97.535" gradientTransform="matrix(1 0 0 -1 0 152)" gradientUnits="userSpaceOnUse"><stop offset="0" style="stop-color:#E8EAED"/><stop offset="1" style="stop-color:#E8EAED;stop-opacity:0"/></linearGradient><path fill="url(#b)" d="M307.8 57H230l-5.3-5.1h71z"/><linearGradient id="c" x1="219.014" x2="216.72" y1="155.09" y2="84.982" gradientTransform="matrix(1 0 0 -1 0 152)" gradientUnits="userSpaceOnUse"><stop offset="0" style="stop-color:#202124"/><stop offset="1" style="stop-color:#202124;stop-opacity:0"/></linearGradient><path fill="url(#c)" d="m247.6 61.9-.4.7H245l3.3-5.2H219l-20.7-.1H179.7c-.4 1 .8 2 3 2.5 2.2.6 5.2.6 7.6.1.2.2 1.4 1.3 4.9 1.8h.2l-2.3 3.8-2.6 4.3-.5.8h50.3l.5-.8 2.5-4h2.1l-.3.5h6.7l2.8-4.4h-7zm-2.3 3.8h-2.1l.1-.1 1.7-2.7h2.1l-1.8 2.8z"/><path fill="#DADCE0" d="M179.6 57.3c-.4-2.5.8-5 2.9-6.5 2.2-1.6 5.2-1.7 7.6-.4.2-.4 1.4-3.7 4.9-4.9 3.9-1.4 7.1.8 7.4 1 3.1-3 7.8-3.8 11.5-1.9 3.2 1.6 5.3 4.8 5.6 8.5 1.7-2.1 4.4-3.2 6.9-2.7 2.7.5 4.2 2.5 4.5 3 .3-.1 2.7-1.4 5.4-.1 2.5 1.2 3.1 3.9 3.2 4.1l-59.9-.1z"/><linearGradient id="d" x1="-905.102" x2="-882.189" y1="13.877" y2="103.914" gradientTransform="rotate(180 -337.518 76)" gradientUnits="userSpaceOnUse"><stop offset="0" style="stop-color:#202124"/><stop offset="1" style="stop-color:#202124;stop-opacity:0"/></linearGradient><path fill="url(#d)" d="M179.6 57.3c-.4-2.6.8-5 2.9-6.5 2.2-1.6 5.2-1.7 7.6-.4.2-.4 1.4-3.7 4.9-4.9 3.9-1.4 7.1.8 7.4 1 3.1-3 7.8-3.8 11.5-1.9 3.2 1.6 5.3 4.8 5.6 8.5 1.7-2.1 4.4-3.2 6.9-2.7 2.7.5 4.2 2.5 4.5 3 .3-.1 2.7-1.4 5.4-.1 2.4 1.2 3.1 3.7 3.2 4h-59.9z"/><path fill="#DADCE0" d="M250.7 26.1h6.7v15.5h-6.7z"/><path fill="#DADCE0" d="M248.3 27.9h3.2v.5h-3.2zM247.6 38.5h3.2v.5h-3.2z"/><path fill="#DADCE0" d="M198.3 11.1h50.3v46.2h-50.3z"/><path fill="none" stroke="#FFF" stroke-miterlimit="10" stroke-width=".5" d="M198.3 13.2h50.3M198.3 29.7h50.3"/><path fill="#1A73E8" d="M198.3 13.9h50.3v14.9h-50.3z"/><path fill="none" stroke="#FFF" stroke-miterlimit="10" stroke-width=".5" d="M198.3 52.1h20.9M228.1 52.1h20.5M232.7 33.7h12.1V52h-12.1zM202.6 33.7h12.1V52h-12.1zM219.3 57.4V37.5c0-2.4 2-4.4 4.4-4.4 2.5 0 4.4 2 4.4 4.4v19.9"/><radialGradient id="e" cx="255.584" cy="223.321" r="115.271" gradientTransform="matrix(1 0 0 -1 0 152)" gradientUnits="userSpaceOnUse"><stop offset="0" style="stop-color:#FFFFFF"/><stop offset="1" style="stop-color:#FFFFFF;stop-opacity:0"/></radialGradient><path fill="url(#e)" d="M250.7 26.1v1.8h-2.1V11.1h-50.3v46.2h50.3V39h2.1v2.5h6.7V26.1h-6.7zm-2.1 12.4v-10h2.1v10h-2.1z"/><linearGradient id="f" x1="348.776" x2="341.709" y1="927.633" y2="910.273" gradientTransform="scale(1 -1) rotate(41.043 1526.456 246.942)" gradientUnits="userSpaceOnUse"><stop offset="0" style="stop-color:#202124"/><stop offset="1" style="stop-color:#202124;stop-opacity:0"/></linearGradient><path fill="url(#f)" d="M190.7 34.5c.3-.4 1.2-4.4 1.2-4.4l5.5-6.9 6.9 4.3 1.3 7.4-14.9-.4z"/><path fill="#F1F3F4" d="m157.4 43.5 4.4 7.9 2.3-8.1z"/><path fill="#F9BC15" d="m166.9 43 5.8 7 .8-8.4z"/><path fill="#1A73E8" d="m186.8 34.5 8.2 4-3.1-8.4z"/><path fill="#EA4435" d="m177.9 40 7 5.8-.8-8.8z"/><path fill="#F1F3F4" d="M150.4 42.7c6.7.9 22.2 1.7 34.8-7 10.3-7.2 19-24.3 19.1-24.5h.6c-.1.2-9 17.6-19.4 24.9-8.9 6.2-19.2 7.7-27 7.7-3.4 0-6.2-.3-8.3-.5l.2-.6z"/><path fill="#34A853" d="m195.3 25.9 8.9 1.7-4.7-7z"/><linearGradient id="g" x1="1417.08" x2="1410.013" y1="-2.363" y2="-19.723" gradientTransform="scale(-1) rotate(41.043 594.811 -2242.038)" gradientUnits="userSpaceOnUse"><stop offset="0" style="stop-color:#202124"/><stop offset="1" style="stop-color:#202124;stop-opacity:0"/></linearGradient><path fill="url(#g)" d="M256.2 34.5c-.3-.4-1.2-4.4-1.2-4.4l-5.5-6.9-6.9 4.3-1.3 7.4 14.9-.4z"/><path fill="#F1F3F4" d="m289.5 43.5-4.5 7.9-2.3-8.1z"/><path fill="#34A853" d="m280 43-5.9 7-.8-8.4z"/><path fill="#EA4435" d="m260.1 34.5-8.2 4 3.1-8.4z"/><path fill="#1A73E8" d="m269 40-7 5.8.8-8.8z"/><path fill="#F1F3F4" d="M288.4 43.7c-7.7 0-18.1-1.5-27-7.7-10.4-7.2-19.3-24.7-19.4-24.9h.6c.1.2 8.8 17.3 19.1 24.5 16.5 11.5 37.9 6.5 38.1 6.5l.1.5c-.1 0-4.8 1.1-11.5 1.1z"/><path fill="#F9BC15" d="m251.6 25.9-9 1.7 4.8-7z"/><ellipse cx="223.9" cy="108.8" fill="#DADBDF" rx="9.6" ry="9.9"/><linearGradient id="h" x1="245.727" x2="226.102" y1="68.84" y2="34.984" gradientTransform="matrix(1 0 0 -1 0 152)" gradientUnits="userSpaceOnUse"><stop offset="0" style="stop-color:#202124"/><stop offset="1" style="stop-color:#202124;stop-opacity:0"/></linearGradient><path fill="url(#h)" d="M233.5 108.8v-.5l-.2-.6-12.1 10.5c.9.3 1.8.4 2.8.4 5.2.1 9.5-4.3 9.5-9.8z"/><path fill="none" stroke="#71757A" stroke-linecap="round" stroke-miterlimit="10" stroke-width=".47" d="M223.5 108.5v14.8M225.8 110.9l-2.2 2.3"/><path fill="#DADBDF" d="m101.3 112.6-6.3-3.4V96.1h.1L83.3 82.8H47.5L36.6 96.1v22.7h64.7z"/><linearGradient id="i" x1="48.295" x2="47.89" y1="73.419" y2="32.535" gradientTransform="matrix(1 0 0 -1 0 152)" gradientUnits="userSpaceOnUse"><stop offset="0" style="stop-color:#202124"/><stop offset="1" style="stop-color:#202124;stop-opacity:0"/></linearGradient><path fill="url(#i)" d="M56.5 118.8H36.6V96.2h23.1l-.4 1.4"/><path fill="#FFF" d="M59.8 118.8h-.5V96.4L47.3 83l.2-.2h.3l12 13.4z"/><path fill="#FFF" d="M59.7 96.1H95v.5H59.7z"/><path fill="#FFF" d="M68.4 96.5c-.1 0-.1 0-.2-.1l-9.6-10.5c-.1-.1-.1-.3 0-.4.1-.1.3-.1.4 0L68.6 96c.1.1.1.3 0 .4-.1.1-.2.1-.2.1zM68.3 82.8l6 6.3c.1.1.1.3 0 .4-.1.1-.1.1-.2.1s-.1 0-.2-.1l-6.4-6.7h.8zM87.2 93.7c-.1 0-.1 0-.2-.1l-4.2-4.8c-.1-.1-.1-.3 0-.4.1-.1.3-.1.4 0l4.2 4.8c.1.1.1.3 0 .4-.1.1-.2.1-.2.1zM62.8 118.8h-.5v-18.4H95v.5H62.8z"/><path fill="#FFF" d="M72.7 118.8v-18.1c0-.1.1-.3.3-.3s.3.1.3.3v18.1M80.3 110.1c-.1 0-.3-.1-.3-.3l-.1-9.2c0-.1.1-.3.3-.3.1 0 .3.1.3.3l.1 9.2c-.1.2-.2.3-.3.3zM87.9 110.2c-.1 0-.3-.1-.3-.3v-9.1c0-.1.1-.3.3-.3s.3.1.3.3v9.1c0 .2-.2.3-.3.3zM78.4 118.8v-6.5c0-.1.1-.3.3-.3s.3.1.3.3v6.5M90.3 118.8v-6.1c0-.1.1-.3.3-.3s.3.1.3.3v6.1"/><path fill="none" d="m101.3 112.6-6.3-3.4V96.1h.1L83.3 82.8H47.5L36.6 96.1v22.7h64.7z"/><path fill="#EA4435" d="m44.5 96.2-3.9 14.9H44l3.9-14.9zM40.3 96.2l-3.9 14.9h3.7L44 96.2zM36.6 96.2l-4.3 14.9h3.6l3.9-14.9zM48.3 96.2l-3.9 14.9h3.8l3.9-14.9zM52.6 96.2l-3.9 14.9h3.7l3.9-14.9zM59.7 96.2h-2.9l-4 14.9h3.3z"/><path fill="#FFF" d="m39.8 96.2-3.9 14.9h.5l3.9-14.9zM44 96.2l-3.9 14.9h.5l3.9-14.9zM47.9 96.2 44 111.1h.4l3.9-14.9zM52.1 96.2l-3.9 14.9h.5l3.9-14.9zM56.3 96.2l-3.9 14.9h.4l4-14.9z"/><path fill="#E8E9EB" fill-rule="evenodd" d="M44.3 118.8H15.2s2.3-6.2 9.2-3.7c0 0 2.2-3.5 5.9-3.3 3.6.2 4.6 3.7 4.6 3.7s6.8-3.1 9.4 3.3z" clip-rule="evenodd"/><linearGradient id="j" x1="58.25" x2="58.25" y1="130.355" y2="16.091" gradientTransform="matrix(1 0 0 -1 0 152)" gradientUnits="userSpaceOnUse"><stop offset="0" style="stop-color:#202124"/><stop offset="1" style="stop-color:#202124;stop-opacity:0"/></linearGradient><path fill="url(#j)" fill-rule="evenodd" d="m91.9 123.8-4.3 6.7-16.2 6.9H35.7l-6.4-6.7v-.5l.5-7.4h4.1l1.3-2c-.8-.1-1.4-.3-1.4-.3s-2.2 1.8-5.9 1.9c-3.7.1-4.8-1.7-4.8-1.7-7.7 1.3-8.1-1.9-8.1-1.9h86.1l-2 3.2-7.2 1.8z" clip-rule="evenodd"/><linearGradient id="k" x1="113.691" x2="161.575" y1="61.671" y2="17.564" gradientTransform="matrix(1 0 0 -1 0 152)" gradientUnits="userSpaceOnUse"><stop offset="0" style="stop-color:#E8E9EB"/><stop offset="1" style="stop-color:#E8E9EB;stop-opacity:0"/></linearGradient><path fill="url(#k)" d="M159.7 139 40.2 23.4l3.6-3.7L167.1 139z"/><linearGradient id="l" x1="71.657" x2="140.186" y1="105.725" y2="105.725" gradientTransform="matrix(1 0 0 -1 0 152)" gradientUnits="userSpaceOnUse"><stop offset="0" style="stop-color:#E8E9EB"/><stop offset="1" style="stop-color:#E8E9EB;stop-opacity:0"/></linearGradient><path fill="url(#l)" d="M151.8 48.9H74l-5.4-5.2h71z"/><linearGradient id="m" x1="117.81" x2="262.3" y1="58.145" y2="58.145" gradientTransform="matrix(1 0 0 -1 0 152)" gradientUnits="userSpaceOnUse"><stop offset="0" style="stop-color:#DBDDE0"/><stop offset="1" style="stop-color:#E8E9EB;stop-opacity:0"/></linearGradient><path fill="url(#m)" d="M262.3 96.4H123.2l-5.4-5.1h144.5z"/><g fill="none" stroke="#FFF" stroke-linecap="round" stroke-miterlimit="10" stroke-width=".941"><path d="m56.9 35.9 1 1"/><path stroke-dasharray="2.862,2.862" d="m59.9 38.8 56.8 55.1h56.9"/><path d="M175 93.9h1.4"/></g><linearGradient id="n" x1="89.731" x2="12.44" y1="79.835" y2="79.835" gradientTransform="matrix(1 0 0 -1 0 152)" gradientUnits="userSpaceOnUse"><stop offset="0" style="stop-color:#E8E9EB"/><stop offset="1" style="stop-color:#E8E9EB;stop-opacity:0"/></linearGradient><path fill="url(#n)" d="M93.3 74.8H8.9L2 69.6h86z"/><path fill="#DADBDF" d="m9.7 25.8 18.2-12.9h17l18.5 12.9-2.4 5.8v28h6.4l3.2 3H11.7v-31h.1z"/><linearGradient id="o" x1="67.392" x2="67.392" y1="198.453" y2="76.754" gradientTransform="matrix(1 0 .3572 -1 -59.934 152)" gradientUnits="userSpaceOnUse"><stop offset="0" style="stop-color:#202124"/><stop offset="1" style="stop-color:#202124;stop-opacity:0"/></linearGradient><path fill="url(#o)" d="m4.9 71.9 15.2 5.6h17l21.4-5.6-.2-4 1.7-3.3h6.3l4.3-2H11.7l-2.8 5.3H9z"/><path fill="#F9BC15" d="M32 31.8h23.2v27.5H32z"/><linearGradient id="p" x1="59.576" x2="33.437" y1="226.941" y2="106.848" gradientTransform="matrix(1 0 0 -1 0 152)" gradientUnits="userSpaceOnUse"><stop offset="0" style="stop-color:#202124"/><stop offset="1" style="stop-color:#202124;stop-opacity:0"/></linearGradient><path fill="url(#p)" d="M61 31.6H11.7v26.5h39.5z"/><path fill="#F9BC15" d="M18.6 48.4h7.1v10.3h-7.1z"/><path fill="#FFF" d="M11.7 31.8v-.5l49.5-.1-.2.6z"/><path fill="#FFF" d="m28.4 31.5-.8-6.1 17.3-12.5.5.3-17.3 12.4.8 5.9z"/><path fill="#FFF" d="M63.3 26H9.8l-.1-.2.5-.3H63l.4.3zM18.1 31.5h.5v31.1h-.5zM25.7 31.5h.5v31.1h-.5zM31.7 59.1H61v.5H31.7z"/><path fill="#FFF" d="M53.1 59.6H44V45.3c0-2.8 2-5.1 4.4-5.1h.4c2.4 0 4.4 2.3 4.4 5.1v14.3zm-8.6-.5h8.1V45.3c0-2.5-1.7-4.6-3.8-4.6h-.4c-2.1 0-3.8 2.1-3.8 4.6l-.1 13.8zM42.6 59.6h-9.2V45.5c0-2.8 2-5.1 4.4-5.1h.4c2.4 0 4.4 2.3 4.4 5.1v14.1zm-8.6-.5h8.1V45.5c0-2.5-1.7-4.6-3.8-4.6h-.4c-2.1 0-3.8 2.1-3.8 4.6L34 59.1zM18.3 47.8h7.6v.5h-7.6zM18.2 58.6h7.7v.5h-7.7z"/><path fill="none" d="m9.7 25.8 18.2-12.9h17l18.5 12.9-2.4 5.8v28h6.4l3.2 3H11.7v-31h.1z"/><path fill="#DADBDF" d="M303.1 107.2V76.4h-19.6c-9 0-17.6 3.5-24.8 9.5h-25.5v37.7h80.4v-8.7h3.8l-14.3-7.7z"/><linearGradient id="q" x1="275.34" x2="275.34" y1="124.537" y2="42.247" gradientTransform="matrix(1 0 0 -1 0 152)" gradientUnits="userSpaceOnUse"><stop offset="0" style="stop-color:#FFFFFF"/><stop offset="1" style="stop-color:#FFFFFF;stop-opacity:0"/></linearGradient><path fill="url(#q)" d="M303.1 107.2V76.4h-19.6c-9 0-17.6 3.5-24.8 9.5h-25.5v37.7h80.4v-8.7h3.8l-14.3-7.7z"/><linearGradient id="r" x1="306.397" x2="296.787" y1="75.038" y2="28.806" gradientTransform="matrix(1 0 0 -1 0 152)" gradientUnits="userSpaceOnUse"><stop offset="0" style="stop-color:#202124"/><stop offset="1" style="stop-color:#202124;stop-opacity:0"/></linearGradient><path fill="url(#r)" d="m313.7 115.2-3.5 8.4h-26.4l-.4-9.3 2.1.9z"/><path fill="none" stroke="#DADBDF" stroke-linecap="round" stroke-linejoin="round" stroke-miterlimit="10" stroke-width=".533" d="M213.6 123.3h24.3"/><linearGradient id="s" x1="263.502" x2="263.502" y1="124.267" y2="16.117" gradientTransform="matrix(1 0 0 -1 0 152)" gradientUnits="userSpaceOnUse"><stop offset="0" style="stop-color:#202124"/><stop offset="1" style="stop-color:#202124;stop-opacity:0"/></linearGradient><path fill="url(#s)" d="M315.8 126.1H312l1.7-2.5H213.5c-.2 0-.3 0-.4.1 0 .1.1.1.2.1h9.6l-.9 1.3c-5.1.1-9.8 1.3-10.9 2.9-1.1 1.6 2.3 2.9 7.6 2.9 4.6 0 9-1 10.8-2.3l-4.1 6.1h25.5c6 1.8 13.8 2.8 22.9 2.8h19.6l6-9 16.4-2.4zm-92.1-2.3h9.4l-2.4 3.5c-.1-1.3-3.2-2.3-7.8-2.3h-.1l.9-1.2z"/><path fill="#34A751" d="M244.5 111.6h19.8v12h-19.8z"/><path fill="none" stroke="#FFF" stroke-miterlimit="10" stroke-width=".47" d="m318.2 115.1-32.2.1c-.3 0-.6-.1-.9-.2l-52.8-29.3h31.1l54.8 29.4z"/><path fill="#FFF" d="m283.2 123.6-.3-9.6.5-.1.4 9.7zM283.2 76.4h.5v19.9h-.5z"/><circle cx="293.6" cy="86.1" r="4.3" fill="#34A751"/><path fill="none" stroke="#FFF" stroke-miterlimit="10" stroke-width=".47" d="m265.8 98.6 29.7 16.6M290.6 106.7l15.7 8.3M253.8 85.6l22.3 12.7M250.5 90l4.7 2.7"/><path fill="none" d="M303.1 107.2V76.4h-19.6c-9 0-17.6 3.5-24.8 9.5h-25.5v37.7h80.4v-8.7h3.8l-14.3-7.7z"/><path fill="#EA4435" fill-rule="evenodd" d="m101.3 112.7-6-3.3H73.2l5.2 3.3z" clip-rule="evenodd"/><linearGradient id="t" x1="38.047" x2="21.591" y1="144.87" y2="125.852" gradientTransform="matrix(1 0 0 -1 0 152)" gradientUnits="userSpaceOnUse"><stop offset="0" style="stop-color:#FFFFFF"/><stop offset="1" style="stop-color:#FFFFFF;stop-opacity:0"/></linearGradient><path fill="url(#t)" d="M45.1 13.1 27.7 25.7h-18l18.2-12.8z" opacity=".5"/><linearGradient id="u" x1="80.145" x2="65.308" y1="83.788" y2="48.179" gradientTransform="matrix(1 0 0 -1 0 152)" gradientUnits="userSpaceOnUse"><stop offset="0" style="stop-color:#FFFFFF"/><stop offset="1" style="stop-color:#FFFFFF;stop-opacity:0"/></linearGradient><path fill="url(#u)" d="M47.5 82.8h35.8l11.8 13.3H59.4z"/><path fill="#DADBDF" d="M212.6 91.3c.4-2.6-.8-5.1-2.9-6.6-2.2-1.6-5.2-1.7-7.6-.4-.2-.4-1.4-3.7-4.9-4.9-3.9-1.4-7.1.8-7.4 1-3.1-3-7.8-3.8-11.5-1.9-3.2 1.6-5.3 4.8-5.6 8.5-1.7-2.1-4.4-3.2-6.9-2.7-2.7.5-4.2 2.5-4.5 3-.3-.1-2.7-1.4-5.4-.1-2.5 1.2-3.1 3.8-3.2 4.1h59.9z"/><linearGradient id="v" x1="162.119" x2="185.049" y1="-20.063" y2="70.039" gradientTransform="matrix(1 0 0 -1 0 152)" gradientUnits="userSpaceOnUse"><stop offset="0" style="stop-color:#202124"/><stop offset="1" style="stop-color:#202124;stop-opacity:0"/></linearGradient><path fill="url(#v)" d="M212.6 91.3c.4-2.6-.8-5.1-2.9-6.6-2.2-1.6-5.2-1.7-7.6-.4-.2-.4-1.4-3.7-4.9-4.9-3.9-1.4-7.1.8-7.4 1-3.1-3-7.8-3.8-11.5-1.9-3.2 1.6-5.3 4.8-5.6 8.5-1.7-2.1-4.4-3.2-6.9-2.7-2.7.5-4.2 2.5-4.5 3-.3-.1-2.7-1.4-5.4-.1-2.5 1.2-3.1 3.8-3.2 4.1h59.9z"/><linearGradient id="w" x1="105.77" x2="102.437" y1="150.005" y2="96.241" gradientTransform="matrix(1 0 0 -1 0 152)" gradientUnits="userSpaceOnUse"><stop offset="0" style="stop-color:#202124"/><stop offset="1" style="stop-color:#202124;stop-opacity:0"/></linearGradient><path fill="url(#w)" d="M117.2 50.2c-.3.1-.6.2-.9.2h-.1c-.3 0-.5.1-.8.1h-.3c-.2 0-.4 0-.6.1h-1.7c-.7 0-1.4-.1-2.1-.2l-3.2 1.5-.4 1 2.2-.1c.5 0 .9 0 1.2.1h2.2c.2 0 .3.1.3.2s-.3.2-.6.2h-1.8c-.2.1-.4.2-.8.2l-5.7.7-.5.2 1 .2-2.9 1.2c-1.3.7-6.1.7-6.1.7-1.7-.1-2.5-.4-2.8-.7l-1.4-.6h-.1c-.5-.2-.6-.5-.4-.8l.9-1V53c.2-.1.5-.1.7-.2-.1 0-.1-.1 0-.2s.6-.2 1.1-.2h.8l.9-.5-1.7-1.4c-.3 0-.6.1-.8.1h-.3c-.2 0-.4 0-.6.1h-3.1c-.2 0-.3-.1-.5-.1-.1 0-.2 0-.3-.1-.2 0-.3-.1-.5-.2h-.2c-1.3-.5-1.6-1-1.4-1.6.4-.6 1.2-1.2 2.8-1.7 1.8-.5 4.1-.6 5.8-.4.6.1 1.1.2 1.6.4.6.2.9.5 1.1.7v.1c.1.1.1.2.1.3v.4h2.5c.2-.3.6-.5 1.2-.7.7-.2 1.6-.3 2.4-.3.4 0 .8 0 1.2.1s.7.1 1 .3c.2.1.4.2.5.3l.1.1v.2h2.4c.4-.6 1.2-1.2 2.8-1.6 1.8-.5 4.1-.6 5.8-.4.6.1 1.1.2 1.6.4 2.1 1 1.4 2.5-1.6 3.3zm-10.4 1.9h-1.5l-2.6.6-.4.3H106.4l.4-.9zm-3.8 1.2h-1.2l-1 .7 2.2-.7z"/><path fill="#F8BB15" d="m95.2 18.5-1.1-1.4s0-.1.1-.1l2.4-3.1"/><path fill="#7F7F7F" d="m94.2 17.1 1.1 1.2-1.4 5.4-.6-3.8c0-1 .3-2 .9-2.8z"/><linearGradient id="x" x1="1516.176" x2="1532.277" y1="133.2" y2="133.2" gradientTransform="rotate(180 811.97 76)" gradientUnits="userSpaceOnUse"><stop offset="0" style="stop-color:#202124"/><stop offset="1" style="stop-color:#202124;stop-opacity:0"/></linearGradient><path fill="url(#x)" d="M96.6 13.9 94.2 17s0 .1-.1.1c-.6.8-.9 1.8-.8 2.8l.6 3.8 1.3-5.3 1.4-4.5z"/><path fill="#6E7379" d="m96.5 26 4.5 15c.2.8 1.1 1.2 1.9 1 .7-.2 1.1-.9.9-1.6l-2-13.9"/><path fill="#71757A" d="m96.5 26 4.5 15c.2.8 1.1 1.2 1.9 1 .7-.2 1.1-.9.9-1.6l-2-13.9"/><linearGradient id="y" x1="-6555.099" x2="-6596.467" y1="172.359" y2="152.652" gradientTransform="rotate(180 -3241.968 96)" gradientUnits="userSpaceOnUse"><stop offset="0" style="stop-color:#202124"/><stop offset="1" style="stop-color:#202124;stop-opacity:0"/></linearGradient><path fill="url(#y)" d="m96.5 26 4.4 15.1c.2.8 1.1 1.2 1.9 1 .7-.2 1.1-.9.9-1.6l-2-13.9"/><path fill="#DADBDF" d="m101 25.6 2.6 5.6-5.7-.1-2.4-5.6z"/><linearGradient id="z" x1="1502.861" x2="1531.302" y1="148.317" y2="115.764" gradientTransform="rotate(180 811.97 76)" gradientUnits="userSpaceOnUse"><stop offset="0" style="stop-color:#202124"/><stop offset="1" style="stop-color:#202124;stop-opacity:0"/></linearGradient><path fill="url(#z)" d="m101 25.6 2.6 5.6-5.7-.1-2.4-5.6z"/><path fill="#DADBDF" d="M108.3 39.2c.1 2.2.7 4.1 2.1 5.7 2.2 2.3 5.3 2.3 7.4-.1 2.6-2.9 2.6-8.1-.1-11-2.1-2.3-5.2-2.4-7.4-.1-1.4 1.5-1.9 3.5-2 5.5z"/><path fill="#FFF" d="M109.4 39.2c.1 1.8.5 3.5 1.7 4.8 1.8 2 4.3 2 6.1-.1 2.1-2.5 2.1-6.9 0-9.4-1.7-2-4.2-2-6-.1-1.3 1.4-1.8 3.1-1.8 4.8z"/><path fill="#DADBDF" d="M85.7 39.2c.1 2.2.7 4.1 2.1 5.7 2.2 2.3 5.3 2.3 7.4-.1 2.6-2.9 2.6-8.1-.1-11-2.1-2.3-5.2-2.4-7.4-.1-1.4 1.5-1.9 3.5-2 5.5z"/><path fill="#FFF" d="M86.8 39.2c.1 1.8.5 3.5 1.7 4.8 1.8 2 4.3 2 6.1-.1 2.1-2.5 2.1-6.9 0-9.4-1.7-2-4.2-2-6-.1-1.3 1.4-1.8 3.1-1.8 4.8z"/><path fill="none" stroke="#DADBDF" stroke-linecap="round" stroke-linejoin="round" stroke-miterlimit="10" stroke-width=".727" d="M110.9 23.8h-5M114.1 39H91.8l5.4-11.2h11.3zM108.6 23.8v4M97.2 25.8v2M97.3 27.8 103 39"/><path fill="#DADBDF" d="M100.3 36.5c.6-1 1.6-1.5 2.5-1.5.9 0 1.9.5 2.5 1.5 1 1.5.9 3.8-.2 5.3-.6.8-1.5 1.2-2.3 1.2-.8 0-1.7-.4-2.3-1.2-1.1-1.4-1.2-3.7-.2-5.3zM110.8 24.4h3.6c.3 0 .5-.2.5-.5v-.1c0-.3-.2-.5-.5-.5h-3.6c-.3 0-.5.2-.5.5v.1c0 .3.3.5.5.5zM102.3 24.4h3.6c.3 0 .5-.2.5-.5v-.1c0-.3-.2-.5-.5-.5h-3.6c-.3 0-.5.2-.5.5v.1c0 .3.2.5.5.5z"/><path fill="#6F7479" d="M94.2 25.5c.1.5.5.9 1 .9h6.4c.4 0 .7-.4.6-.8-.1-.3-.3-.5-.7-.5h-2.1c-.6 0-1.2-.1-1.8-.3l-.5-.2c-.3-.1-.7-.2-1.1-.3-.5-.1-1 0-1.4.2-.3.3-.4.7-.4 1z"/><linearGradient id="A" x1="13.876" x2="121.748" y1="178.941" y2="103.478" gradientTransform="matrix(1 0 0 -1 0 152)" gradientUnits="userSpaceOnUse"><stop offset="0" style="stop-color:#202124"/><stop offset="1" style="stop-color:#202124;stop-opacity:0"/></linearGradient><path fill="url(#A)" d="M117.8 33.8c-1.8-2-4.3-2.3-6.3-1l-2.5-5.1v-3.5h1.5c.1.1.2.2.4.2h3.5c.3 0 .6-.2.6-.6s-.2-.6-.6-.6h-3.5c-.2 0-.3.1-.4.2h-4.2c-.1-.1-.2-.2-.4-.2h-3.5c-.3 0-.6.2-.6.6s.2.6.6.6h3.5c.2 0 .3-.1.4-.2h1.9v3.1H97.6v-.9h4c.4 0 .7-.4.6-.8-.1-.3-.3-.5-.7-.5h-2.1c-.6 0-1.2-.1-1.8-.3l-.5-.2c-.3-.1-.7-.2-1.1-.3-.5-.1-1 0-1.4.2-.3.2-.5.5-.5.9.1.5.5.9 1 .9h1.7v1.2L94.3 33c-2-1.5-4.6-1.2-6.4.7-1.5 1.6-2 3.5-2.1 5.6.1 2.2.7 4.1 2.1 5.7 2.2 2.3 5.3 2.3 7.4-.1 1.3-1.4 1.9-3.4 1.9-5.4h2.5c.1.9.4 1.7.9 2.4.6.8 1.5 1.2 2.3 1.2.8 0 1.7-.4 2.3-1.2.5-.7.8-1.5.9-2.4h2.4c.1 2.1.7 4 2.1 5.5 2.2 2.3 5.3 2.3 7.4-.1 2.5-3 2.4-8.2-.2-11.1zm-6.5.5 2.1 4.3h-4c.1-1.5.6-2.9 1.7-4.1.1-.1.2-.1.2-.2zm-.8-.6c-1.3 1.4-1.9 3.1-2.1 4.9H106c-.1-.7-.3-1.5-.7-2.1-.6-1-1.6-1.5-2.5-1.5-.4 0-.8.1-1.2.3L98 28.2h10.3l2.6 5.2c-.2 0-.3.1-.4.3zm-13.2-5.1 3.6 7.3c-.2.2-.4.4-.6.7-.4.6-.6 1.3-.7 2.1h-2.5c-.1-1.8-.8-3.5-1.9-4.8l-.3-.3 2.4-5zm-2.8 6c.9 1.1 1.4 2.5 1.6 4h-3.6l2-4c0-.1 0 0 0 0zm.1 9.4c-1.7 2-4.3 2.1-6.1.1-1.2-1.3-1.6-3-1.7-4.8.1-1.7.5-3.4 1.7-4.7 1.5-1.7 3.7-1.9 5.3-.6l-2.4 4.9c-.1.1-.1.3 0 .4s.2.2.3.2H96c.1 1.6-.4 3.3-1.4 4.5zm22.6 0c-1.7 2-4.3 2.1-6.1.1-1.1-1.3-1.6-2.9-1.7-4.7h4.7c.1 0 .3-.1.3-.2s.1-.3 0-.4l-2.5-5c1.7-1.1 3.7-.9 5.2.8 2.2 2.4 2.2 6.9.1 9.4z"/><circle cx="101.5" cy="9.6" r="3" fill="#7F7F7F"/><path fill="#71757A" d="m102.8 24.4 4.7 4.1c1.1 1 1.5 2.6.9 4l-3.7 8.6c-.4.7-1.3.9-2 .5s-.9-1.2-.6-1.9L104 32l-5.7-5 4.5-2.6z"/><path fill="#DADBDF" d="m106.8 27.5-3.9 4.5-.6-.5-7.1-5.8 3.9-1.4 3.9-.3z"/><path fill="#F8BB15" d="M99 12.5s4.9-.2 5.8 2.3l2.4 4.1-4.1 2.1 1.5 4.8s-6 3.9-10.9-1.4l1.8-8.6c0 .1.7-2.9 3.5-3.3z"/><path fill="#7F7F7F" d="m106.1 19.4.4.8 5.4 2.3c.6.3.9 1 .7 1.6-.2.5-.8.9-1.4.7l-5-.9-.8-.1-2.3-2.8 3-1.6z"/><linearGradient id="B" x1="1511.05" x2="1526.147" y1="138.429" y2="127.132" gradientTransform="rotate(180 811.97 76)" gradientUnits="userSpaceOnUse"><stop offset="0" style="stop-color:#202124"/><stop offset="1" style="stop-color:#202124;stop-opacity:0"/></linearGradient><path fill="url(#B)" d="m103.1 21-1.3.4-2.2-3.9-2.8 8.9c.9.8 2.9.7 4.4.6 1.1-.1 1.9-.4 3.4-1.2l-1.5-4.8z"/><circle cx="154.1" cy="37.3" r="4.8" fill="#7F7F7F"/><path fill="#BEC3C8" d="m163 86.7-5.9-18.2h-12l9.3 20.9c.1 0 4.2.5 8.6-2.7z"/><path fill="#E9E9E9" d="m163 86.7-5.9-18.2h-12l9.3 20.9c.1 0 4.2.5 8.6-2.7z"/><path fill="#BEC3C8" d="m163 86.7-5.9-18.2h-12l9.3 20.9c.1 0 4.2.5 8.6-2.7z"/><path fill="#7F7F7F" d="m164.8 91.9-1.8-5.2c-1.6 1.2-3.2 1.9-4.6 2.2l3.2 4.6c.5.8 1.5 1 2.3.6.8-.4 1.2-1.3.9-2.2z"/><path fill="#E9E9E9" d="m149.2 92.7 8.4-10.1c.8-1 1.3-2.1 1.5-3.4l1.3-10.8h-9.1l-2 8.7-8.6 6.6 8.5 9zM148.8 68.9h-10.3c-1.4 0-2.4-1.1-2.4-2.4v-11h15.2v11c0 1.3-1.1 2.4-2.5 2.4z"/><path fill="#34A751" d="M136.1 63.2v3c0 1.5 1.2 2.7 2.7 2.7h8.1c2.4 0 4.4-2 4.4-4.4v-1.3h-15.2z"/><path fill="none" d="M148.8 68.9h-10.3c-1.4 0-2.4-1.1-2.4-2.4v-11h15.2v11c0 1.3-1.1 2.4-2.5 2.4z"/><path fill="#34A751" d="M142.7 55.5h-4.1l4.3-7.4c.9-1.5 2.4-3.5 4.6-4.7 0 0 .3-.1.7-.3 1.8-.6 7-2 11.6-.1 3 1.6 3.5 2.8 4 4.1 1.4 3.9 5.6 15.9 5.6 15.9-1.7 1.4-4.5 2-4.5 2l.8 6.5c-12.5 5.5-24 0-24 0 .6-5.6 2.1-16 2.1-16h-1.1z"/><linearGradient id="C" x1="186.194" x2="126.516" y1="133.281" y2="88.119" gradientTransform="matrix(1 0 0 -1 0 152)" gradientUnits="userSpaceOnUse"><stop offset="0" style="stop-color:#202124"/><stop offset="1" style="stop-color:#202124;stop-opacity:0"/></linearGradient><path fill="url(#C)" d="M147.6 43.3s.3-.1.7-.3c-1.1.9-1.9 2.2-2.5 3.4-.6 1.3-1 2.7-1.2 4.1l-.7 4.8h-5.3l4.3-7.4c1-1.3 2.4-3.4 4.7-4.6z"/><linearGradient id="D" x1="183.346" x2="151.231" y1="118.682" y2="80.832" gradientTransform="matrix(1 0 0 -1 0 152)" gradientUnits="userSpaceOnUse"><stop offset="0" style="stop-color:#202124"/><stop offset="1" style="stop-color:#202124;stop-opacity:0"/></linearGradient><path fill="url(#D)" d="M165 65c-1.8.4-3.9.2-3.9.2l-3-17-15.3 15.3c-.4 2.8-.8 5.7-1 7.9 0 0 11.5 5.5 24 0L165 65"/><path fill="none" stroke="#E9E9E9" stroke-linecap="round" stroke-miterlimit="10" stroke-width=".5" d="m140.2 55.5 7.7-12.2"/><path fill="none" d="M159.9 43c3 1.6 3.5 2.8 4 4.1 1.4 3.9 5.6 15.9 5.6 15.9-1.7 1.4-4.5 2-4.5 2l.8 6.5c-12.5 5.5-24 0-24 0 .6-5.6 2.1-16 2.1-16h-5.3l4.3-7.4c.9-1.5 2.4-3.5 4.6-4.7.1-.1 6.6-2.8 12.4-.4z"/><path fill="#7F7F7F" d="m145.7 89.1-3.9 5.4c-.7.9-.5 2.2.4 3 1 .8 2.4.7 3.2-.2l3.8-4.6-3.5-3.6zM167.7 66.5s0-.1 0 0l-.4-2.2c-1.2.5-2.2.7-2.2.7-.4.1-.9.1-1.3.2l.6 1.9c.1.8.9 1.4 1.7 1.4.9 0 1.7-.8 1.7-1.7-.1-.1-.1-.2-.1-.3z"/><linearGradient id="E" x1="156.08" x2="138.768" y1="121.243" y2="85.113" gradientTransform="matrix(1 0 0 -1 0 152)" gradientUnits="userSpaceOnUse"><stop offset="0" style="stop-color:#202124"/><stop offset="1" style="stop-color:#202124;stop-opacity:0"/></linearGradient><path fill="url(#E)" d="m136.5 63.1 7.4-7.6-2 13.4h-3.4z"/><linearGradient id="F" x1="152.263" x2="152.263" y1="89.529" y2="121.996" gradientUnits="userSpaceOnUse"><stop offset="0" style="stop-color:#C2C2C2"/><stop offset="1" style="stop-color:#FFFFFF;stop-opacity:0"/></linearGradient><path fill="url(#F)" d="M142.5 97.8zm24.3 9.1c.9-1.5 0-2.2-1.8-2l.4-1.5c-2.1-.4-4.1-.7-6.1-.9l-.3-1.1c1.1-1.6 4.1-6 5.2-7.5-1.1.8-2.4.1-2.9-1-.1 0-3.2 2.2-3.3 2.2-2.3-.3-4-.2-4-.2l-.9.9-4.4-2.5c-1.3 1.1-3.6 5.8-5.9 4.6l5.8 2.8-1.9 2c-3.3.3-5.4.8-5.4.8l.3 1.2c-7.1-.2-6 .1-6 6.4h2.6c5.1 4.3 6.7 6.3 15.2 6.4-6.1.1-5.8 4.6.3 4.5 5.9.1 6.4-4.3.4-4.5 9.7.6 10.9-5 14.9-10-.7-.2-1.4-.4-2.2-.6z"/></svg>