<svg width="24" height="24" viewBox="0 0 24 24" fill="none" xmlns="http://www.w3.org/2000/svg">
<path d="M19.145 5.72C18.48 5.38 17.725 5 16.5 5C15.275 5 14.52 5.38 13.855 5.72L13.8528 5.72111C13.2688 6.01559 12.804 6.25 12 6.25C11.196 6.25 10.7312 6.01559 10.1472 5.72111L10.145 5.72C9.48 5.38 8.725 5 7.5 5C6.275 5 5.52 5.38 4.855 5.72L4.85279 5.72111C4.26883 6.01559 3.80399 6.25 3 6.25V8C4.225 8 4.98 7.62 5.645 7.28L5.64721 7.27888C6.23117 6.98441 6.69602 6.75 7.5 6.75C8.30399 6.75 8.76883 6.98441 9.35279 7.27888L9.36985 7.28748C10.0313 7.6207 10.7841 8 12 8C13.225 8 13.98 7.62 14.645 7.28L14.6472 7.27888C15.2312 6.98441 15.696 6.75 16.5 6.75C17.304 6.75 17.7688 6.98441 18.3528 7.27888L18.3699 7.28748C19.0313 7.6207 19.7841 8 21 8V6.25C20.196 6.25 19.7312 6.01559 19.1472 5.72112L19.145 5.72Z" fill="#5F6368"/>
<path d="M16.5 15.6667C15.275 15.6667 14.52 16.0467 13.855 16.3867L13.8528 16.3878C13.2688 16.6823 12.804 16.9167 12 16.9167C11.196 16.9167 10.7312 16.6823 10.1472 16.3878L10.145 16.3867C9.48 16.0467 8.725 15.6667 7.5 15.6667C6.275 15.6667 5.52 16.0467 4.855 16.3867L4.85279 16.3878C4.26883 16.6823 3.80399 16.9167 3 16.9167V18.6667C4.225 18.6667 4.98 18.2867 5.645 17.9467L5.64721 17.9456C6.23117 17.6511 6.69601 17.4167 7.5 17.4167C8.30399 17.4167 8.76883 17.6511 9.35279 17.9456L9.36985 17.9541C10.0313 18.2874 10.7841 18.6667 12 18.6667C13.225 18.6667 13.98 18.2867 14.645 17.9467L14.6472 17.9455C15.2312 17.6511 15.696 17.4167 16.5 17.4167C17.304 17.4167 17.7688 17.6511 18.3528 17.9456L18.3699 17.9541C19.0313 18.2874 19.7841 18.6667 21 18.6667V16.9167C20.196 16.9167 19.7312 16.6823 19.1472 16.3878L19.145 16.3867C18.48 16.0467 17.725 15.6667 16.5 15.6667Z" fill="#5F6368"/>
<path d="M13.855 11.0533C14.52 10.7133 15.275 10.3333 16.5 10.3333C17.725 10.3333 18.48 10.7133 19.145 11.0533L19.1472 11.0545C19.7312 11.3489 20.196 11.5833 21 11.5833V13.3333C19.7841 13.3333 19.0313 12.954 18.3699 12.6208L18.3528 12.6122C17.7688 12.3177 17.304 12.0833 16.5 12.0833C15.696 12.0833 15.2312 12.3177 14.6472 12.6122L14.645 12.6133C13.98 12.9533 13.225 13.3333 12 13.3333C10.7841 13.3333 10.0313 12.954 9.36985 12.6208L9.35279 12.6122C8.76883 12.3177 8.30399 12.0833 7.5 12.0833C6.69602 12.0833 6.23117 12.3177 5.64721 12.6122L5.645 12.6133C4.98 12.9533 4.225 13.3333 3 13.3333V11.5833C3.80398 11.5833 4.26883 11.3489 4.85279 11.0544L4.855 11.0533C5.52 10.7133 6.275 10.3333 7.5 10.3333C8.725 10.3333 9.48 10.7133 10.145 11.0533L10.1472 11.0545C10.7312 11.3489 11.196 11.5833 12 11.5833C12.804 11.5833 13.2688 11.3489 13.8528 11.0544L13.855 11.0533Z" fill="#5F6368"/>
</svg>
