<svg xmlns="http://www.w3.org/2000/svg" width="220" height="220"><radialGradient id="a" cx="237.776" cy="1652.7708" r="96.3293" gradientTransform="matrix(.9879 .155 -.0736 .4691 3.6735 -626.4005)" gradientUnits="userSpaceOnUse"><stop offset=".0061" style="stop-color:#DADCE0"/><stop offset=".3552" style="stop-color:#DDDFE3"/><stop offset=".6531" style="stop-color:#E8E9EC"/><stop offset=".9313" style="stop-color:#F9FAFA"/><stop offset="1" style="stop-color:#FFFFFF"/></radialGradient><path fill="url(#a)" d="M211.16 215.518h-5.147c0-6.242-5.08-11.322-11.322-11.322h-80.228c-9.081 0-16.469-7.388-16.469-16.469 0-6.242-5.079-11.322-11.322-11.322H6.816v-5.147h79.858c9.081 0 16.468 7.388 16.468 16.468 0 6.243 5.08 11.323 11.323 11.323h80.228c9.079.001 16.467 7.39 16.467 16.469z"/><path fill="#4285F4" d="M112.424 10.25c-8.95-.34-16.313 6.814-16.313 15.688 0 3.534 1.168 6.796 3.138 9.419 0 0 3.548 4.122 5.018 6.282 1.369 2.011 5.417 8.208 6.256 12.458.194.758.861 1.294 1.639 1.313v.004c.007 0 .014-.001.022-.001.007 0 .014.001.022.001v-.004c.779-.02 1.445-.555 1.639-1.313.837-4.25 4.887-10.445 6.256-12.458 1.469-2.161 5.018-6.282 5.018-6.282 1.97-2.624 3.138-5.885 3.138-9.419 0-8.874-6.883-16.028-15.833-15.688zm-.239 20.504c-3.122 0-5.654-2.531-5.654-5.654 0-3.122 2.531-5.654 5.654-5.654 3.122 0 5.654 2.531 5.654 5.654-.001 3.123-2.532 5.654-5.654 5.654z"/><linearGradient id="b" gradientUnits="userSpaceOnUse" x1="-411.6314" y1="165.7488" x2="-411.6314" y2="87.8954" gradientTransform="rotate(180 -170.97825 110)"><stop offset="0" style="stop-color:#DADCE0"/><stop offset="1" style="stop-color:#FFFFFF;stop-opacity:0"/></linearGradient><path fill="url(#b)" d="M137.299 129.884l-21.021-32.645c-6.601-9.102-17.592-13.143-27.726-9.751-.424.142-.852.294-1.287.458-14.54 5.479-24.236-24.064-40.383-26.65C27.266 58.153 21.33 75.603 21.33 75.603L2.051 129.889l135.248-.005z"/><path fill="#FFF" d="M34.132 69.387c5.99-.46 12.366 1.881 16.252 5.965 2.12 2.229 2.988 4.102 2.651 5.726-.525 2.535-3.905 4.443-8.818 6.529-2.145.91-3.603 2.557-4.002 4.518-.338 1.664.139 3.31 1.307 4.518 1.02 1.053 3.001 1.506 5.158 1.506 1.7 0 3.508-.281 5.042-.77l31.567-8.764c-.477-.019-.949-.077-1.417-.164l-30.304 8.413c-3.353 1.069-8.035 1.085-9.661-.595-1.043-1.078-1.468-2.55-1.166-4.037.362-1.785 1.705-3.29 3.685-4.13 5.069-2.151 8.562-4.15 9.135-6.914.375-1.809-.537-3.838-2.788-6.204-3.992-4.197-10.535-6.603-16.682-6.131-3.652.281-8.689 1.685-12.698 6.577-.041.109-.064.173-.064.173l-.522 1.468c.01-.01.022-.017.031-.029 4.022-5.791 9.45-7.358 13.294-7.655z"/><radialGradient id="c" cx="112.2661" cy="373.6136" r="98.2067" gradientTransform="matrix(1.0191 0 0 -.1487 -2.4648 214.2678)" gradientUnits="userSpaceOnUse"><stop offset="0" style="stop-color:#F1F3F4"/><stop offset=".8587" style="stop-color:#F1F3F4;stop-opacity:0.1413"/><stop offset="1" style="stop-color:#F1F3F4;stop-opacity:0"/></radialGradient><path fill="url(#c)" d="M10.66 157.823h202.569v28.827H10.66z"/><radialGradient id="d" cx="88.9117" cy="194.2546" r="257.5912" gradientTransform="matrix(1 0 0 -1.0961 0 247.4219)" gradientUnits="userSpaceOnUse"><stop offset="0" style="stop-color:#DADCE0"/><stop offset="1" style="stop-color:#6E7378"/></radialGradient><path fill="url(#d)" d="M143.189 61.293v96.576h-62.01V61.293h62.01z"/><path fill="#FFF" d="M124.023 157.917c-.161 0-.292-.131-.292-.292v-15.731c0-5.689-4.628-10.317-10.317-10.317h-.244c-5.688 0-10.316 4.628-10.316 10.317v15.731c0 .161-.131.292-.292.292s-.292-.131-.292-.292v-15.731c0-6.011 4.89-10.901 10.901-10.901h.244c6.011 0 10.901 4.891 10.901 10.901v15.731c0 .162-.131.292-.293.292zM107.626 89.767H86.163c-.161 0-.292-.131-.292-.292v-6.097c0-6.011 4.891-10.901 10.901-10.901h.244c6.011 0 10.901 4.89 10.901 10.901v6.097c.001.161-.13.292-.291.292zm-21.171-.584h20.879v-5.805c0-5.689-4.628-10.317-10.317-10.317h-.244c-5.689 0-10.317 4.628-10.317 10.317v5.805zM138.902 89.767H117.44c-.161 0-.292-.131-.292-.292v-6.097c0-6.011 4.891-10.901 10.901-10.901h.243c6.011 0 10.901 4.89 10.901 10.901v6.097c.001.161-.13.292-.291.292zm-21.17-.584h20.878v-5.805c0-5.689-4.628-10.317-10.317-10.317h-.243c-5.689 0-10.317 4.628-10.317 10.317v5.805zM107.654 123.468H86.192c-.161 0-.292-.131-.292-.292v-6.097c0-6.011 4.891-10.901 10.901-10.901h.244c6.011 0 10.901 4.89 10.901 10.901v6.097c0 .161-.131.292-.292.292zm-21.17-.585h20.878v-5.805c0-5.688-4.628-10.316-10.316-10.316h-.244c-5.689 0-10.317 4.628-10.317 10.316v5.805zM138.931 123.468h-21.462c-.161 0-.292-.131-.292-.292v-6.097c0-6.011 4.891-10.901 10.901-10.901h.243c6.011 0 10.901 4.89 10.901 10.901v6.097c.001.161-.13.292-.291.292zm-21.17-.585h20.878v-5.805c0-5.688-4.628-10.316-10.317-10.316h-.243c-5.689 0-10.317 4.628-10.317 10.316v5.805zM81.18 95.801h62.01v.584H81.18zM81.18 65.827h62.01v.584H81.18zM81.18 100.324h62.01v.584H81.18z"/><path fill="#34A853" d="M62.87 137.447v-1.118c0-4.799 3.89-8.689 8.689-8.689 3.819 0 7.061 2.465 8.226 5.891.153-.009.308-.014.464-.014 4.46 0 8.075 3.616 8.075 8.076 0 4.314-3.383 7.837-7.639 8.064l.003.012h-6.434c-.186 0-.372-.005-.557-.014-1.593 1.514-3.844 2.459-6.34 2.459-4.83 0-8.746-3.533-8.746-7.892.001-2.88 1.709-5.396 4.259-6.775z"/><path fill="#70757A" d="M75.163 156.989c-.184 0-.347-.13-.382-.317l-3.548-18.763c-.04-.212.099-.415.31-.455.211-.04.415.099.455.31l3.548 18.763c.04.212-.099.415-.31.455-.025.005-.049.007-.073.007z"/><path fill="#70757A" d="M73.089 146.033c-.164 0-.317-.104-.371-.269-.067-.205.045-.425.25-.492l8.908-2.903c.205-.066.425.045.491.25.067.205-.045.425-.25.492l-8.908 2.903c-.039.013-.08.019-.12.019zM72.461 143.129c-.02 0-.04-.002-.06-.005l-4.403-.688c-.213-.033-.358-.233-.325-.445.033-.212.23-.358.445-.325l4.403.688c.213.033.358.233.325.445-.03.194-.196.33-.385.33z"/><ellipse fill="#34A853" cx="143.204" cy="140.567" rx="7.592" ry="13.522"/><path fill="#70757A" d="M143.205 158.361c-.215 0-.39-.174-.39-.39v-6.922c0-.215.174-.39.39-.39.215 0 .39.174.39.39v6.922c-.001.216-.175.39-.39.39z"/><linearGradient id="e" gradientUnits="userSpaceOnUse" x1="100.9367" y1="170.9441" x2="100.9367" y2="89.8718"><stop offset="0" style="stop-color:#202124;stop-opacity:0"/><stop offset="1" style="stop-color:#202124"/></linearGradient><path fill="url(#e)" d="M142.245 159.84l.937-1.957h-4.089l.049-.101H81.366l-.019.041-13.073.03c-.44.919.958 1.467 2.807 1.467.961 0 1.923-.203 2.689-.526.456.323 1.224.526 2.185.526.961 0 1.923-.203 2.689-.526.399.282 1.05.462 1.851.504l-1.24 2.587c-.165-.011-.33-.021-.501-.026l.006-.006h-6.434c-.186 0-.374.002-.56.007-1.233-.753-3.258-1.223-5.754-1.223-4.831 0-9.587 1.757-10.626 3.924-.686 1.43.422 2.682 2.644 3.368l-.266.556c-1.144 2.386 1.82 4.321 6.619 4.321 3.819 0 7.648-1.226 9.629-2.929.152.004.305.007.46.007.323 0 .645-.017.967-.036l-8.114 16.936h62.01l6.491-13.549c4.044-.27 8.512-3.162 10.206-6.698 1.694-3.535-.003-6.428-3.787-6.697z"/><linearGradient id="f" gradientUnits="userSpaceOnUse" x1="175.7977" y1="159.0692" x2="175.7977" y2="106.3751" gradientTransform="matrix(1 0 0 -1 0 220)"><stop offset="0" style="stop-color:#E6EBEF"/><stop offset=".4509" style="stop-color:#EEF2F4;stop-opacity:0.5491"/><stop offset="1" style="stop-color:#FFFFFF;stop-opacity:0"/></linearGradient><path fill="url(#f)" d="M206.698 89.862h-61.8c2.341-7.915 10.087-6.874 15.568-4.979 4.239 1.465 8.66.945 12.743-1.358l.628-.354c1.796-1.013 3.561-2.157 5.315-3.335 8.505-5.709 14.088-.613 16.84 3.356 1.342 1.936 3.17 2.802 4.976 2.371 2.201-.525 4.953-.187 5.73 4.299z"/><path fill="#E8EAED" d="M175.898 61.762c-5.247 0-9.5-4.253-9.5-9.5s4.253-9.5 9.5-9.5 9.5 4.253 9.5 9.5-4.253 9.5-9.5 9.5z"/><path fill="#F1F3F4" d="M180.678 172.892h11.074v9.513h-11.074z"/><path fill="#F1F3F4" d="M180.112 170.911h12.205v3.601h-12.205z"/><path fill="#F1F3F4" d="M184.94 182.499l-4.897-10.596.077 3.049.582.039-.024 7.414z"/><path fill="#F1F3F4" d="M180.306 178.677v-4.589l-11.674 5.679c-1.198.508-1.841 1.844-1.437 3.109l2.331 7.304c.174.546.559 1.019 1.086 1.243 1.264.538 2.418-.443 2.3-1.603l-.595-5.867c-.04-.385.193-.747.56-.873l1.816-.619 1.826.003c2.09 0 3.787-1.696 3.787-3.787z"/><path fill="#F1F3F4" d="M171.842 178.205l1.699-7.959c.287-1.347 1.477-2.309 2.855-2.309 2.16 0 3.91 1.751 3.91 3.91V179.021"/><path fill="#F1F3F4" d="M176.452 172.166l3.407 6.854-8.017-.815.306-1.436z"/><circle fill="#F1F3F4" cx="183.427" cy="194.58" r="5.177"/><circle fill="#F1F3F4" cx="183.427" cy="194.58" r="5.177"/><circle fill="#F1F3F4" cx="158.794" cy="194.58" r="5.177"/><circle fill="#F1F3F4" cx="158.794" cy="194.58" r="5.177"/><path fill="#F1F3F4" d="M168.349 175.706c.666 0 1.205.54 1.205 1.205 0 .666-.54 1.205-1.205 1.205h-2.229c-.666 0-1.205.54-1.205 1.205v11.491c0 .666.54 1.205 1.205 1.205h7.102c.666 0 1.205-.54 1.205-1.205v-7.166c0-.666.54-1.205 1.205-1.205h9.569c.395 0 .764.193.99.517l6.762 9.725c.556.8-.016 1.894-.99 1.894H153.6c-.761 0-1.35-.703-1.183-1.445.658-2.914 3.263-5.09 6.375-5.09.145 0 .288.005.431.014.589.04 1.115-.364 1.244-.938l1.828-9.779c.169-.946.991-1.634 1.952-1.634h4.102v.001z"/><path fill="#F1F3F4" d="M168.349 175.706c.666 0 1.205.54 1.205 1.205 0 .666-.54 1.205-1.205 1.205h-2.229c-.666 0-1.205.54-1.205 1.205v11.491c0 .666.54 1.205 1.205 1.205h7.102c.666 0 1.205-.54 1.205-1.205v-7.166c0-.666.54-1.205 1.205-1.205h9.569c.395 0 .764.193.99.517l6.762 9.725c.556.8-.016 1.894-.99 1.894H153.6c-.761 0-1.35-.703-1.183-1.445.658-2.914 3.263-5.09 6.375-5.09.145 0 .288.005.431.014.589.04 1.115-.364 1.244-.938l1.828-9.779c.169-.946.991-1.634 1.952-1.634h4.102v.001z"/><path fill="#F1F3F4" d="M160.894 178.664c0 1.161-.751 2.147-1.794 2.499-.414.139-.841-.174-.841-.611v-3.776c0-.436.428-.75.841-.611 1.043.352 1.794 1.338 1.794 2.499z"/><ellipse fill="#F1F3F4" cx="175.632" cy="164.07" rx="3.036" ry="3.155"/><path fill="#F1F3F4" d="M173.709 169.711l-1.176 2.744c-.109.255-.297.47-.536.612l-4.387 2.614c-.499.297-.744.887-.603 1.451.19.763 1.003 1.189 1.739.913l4.837-1.814c.895-.336 1.615-1.021 1.994-1.9l1.562-3.621M170.895 163.328h3.29c.193 0 .351-.158.351-.351 0-.193-.158-.351-.351-.351h-3.29c-.193 0-.351.158-.351.351 0 .193.158.351.351.351z"/><path fill="#F1F3F4" d="M175.697 165.231c.671-.048.997-.383 1.116-.775.001-.004.003-.008.004-.012.163-.563-.323-1.112-.909-1.11l-2.771.01.027-.061-.743-.046c.177-1.802 1.676-3.209 3.499-3.209 1.931 0 3.505 1.656 3.516 3.568.011 1.932-1.575 3.578-3.568 3.628-.019 0-.039-.001-.06-.005"/><circle fill="#F1F3F4" cx="175.757" cy="166.224" r=".996"/><path fill="#F1F3F4" d="M172.721 172.014s2.129-.6 3.308 1.265l.677-1.445 1.197-1.937-4.14-.302-1.042 2.419zM189.932 194.58c0-3.651-2.96-6.611-6.611-6.611s-6.611 2.96-6.611 6.611M187.245 184.474H174.06c-.574 0-1.039-.465-1.039-1.039 0-.574.465-1.039 1.039-1.039h11.739l1.446 2.078z"/><path fill="#F8C229" d="M180.678 172.892h11.074v9.513h-11.074z"/><path fill="#F8C229" d="M180.112 170.911h12.205v3.601h-12.205z"/><path fill="#FFF" d="M180.112 174.345h12.204v.335h-12.204z"/><linearGradient id="g" gradientUnits="userSpaceOnUse" x1="285.6028" y1="1093.0924" x2="273.2986" y2="1113.2992" gradientTransform="matrix(-1 0 0 1 456.4172 -931.6149)"><stop offset="0" style="stop-color:#202124"/><stop offset="1" style="stop-color:#202124;stop-opacity:0"/></linearGradient><path fill="url(#g)" d="M184.94 182.499l-4.897-10.596.077 3.049.582.039-.024 7.414z"/><path fill="#70757A" d="M180.306 178.677v-4.589l-11.674 5.679c-1.198.508-1.841 1.844-1.437 3.109l2.331 7.304c.174.546.559 1.019 1.086 1.243 1.264.538 2.418-.443 2.3-1.603l-.595-5.867c-.04-.385.193-.747.56-.873l1.816-.619 1.826.003c2.09 0 3.787-1.696 3.787-3.787z"/><path fill="#34A853" d="M171.842 178.205l1.699-7.959c.287-1.347 1.477-2.309 2.855-2.309 2.16 0 3.91 1.751 3.91 3.91V179.021"/><linearGradient id="h" gradientUnits="userSpaceOnUse" x1="280.5669" y1="1088.3403" x2="280.5669" y2="1110.9753" gradientTransform="matrix(-1 0 0 1 456.4172 -931.6149)"><stop offset="0" style="stop-color:#202124"/><stop offset="1" style="stop-color:#202124;stop-opacity:0"/></linearGradient><path fill="url(#h)" d="M176.452 172.166l3.407 6.854-8.017-.815.306-1.436z"/><circle fill="#9AA0A6" cx="183.427" cy="194.58" r="5.177"/><linearGradient id="i" gradientUnits="userSpaceOnUse" x1="272.9898" y1="1117.3314" x2="272.9898" y2="1130.1008" gradientTransform="matrix(-1 0 0 1 456.4172 -931.6149)"><stop offset="0" style="stop-color:#202124"/><stop offset="1" style="stop-color:#202124;stop-opacity:0"/></linearGradient><circle fill="url(#i)" cx="183.427" cy="194.58" r="5.177"/><circle fill="#9AA0A6" cx="158.794" cy="194.58" r="5.177"/><linearGradient id="j" gradientUnits="userSpaceOnUse" x1="297.6236" y1="1114.5731" x2="297.6236" y2="1130.7535" gradientTransform="matrix(-1 0 0 1 456.4172 -931.6149)"><stop offset="0" style="stop-color:#202124"/><stop offset="1" style="stop-color:#202124;stop-opacity:0"/></linearGradient><circle fill="url(#j)" cx="158.794" cy="194.58" r="5.177"/><path fill="#DADCE0" d="M168.349 175.706c.666 0 1.205.54 1.205 1.205 0 .666-.54 1.205-1.205 1.205h-2.229c-.666 0-1.205.54-1.205 1.205v11.491c0 .666.54 1.205 1.205 1.205h7.102c.666 0 1.205-.54 1.205-1.205v-7.166c0-.666.54-1.205 1.205-1.205h9.569c.395 0 .764.193.99.517l6.762 9.725c.556.8-.016 1.894-.99 1.894H153.6c-.761 0-1.35-.703-1.183-1.445.658-2.914 3.263-5.09 6.375-5.09.145 0 .288.005.431.014.589.04 1.115-.364 1.244-.938l1.828-9.779c.169-.946.991-1.634 1.952-1.634h4.102v.001z"/><linearGradient id="k" gradientUnits="userSpaceOnUse" x1="283.6363" y1="1064.7981" x2="283.6363" y2="1127.1324" gradientTransform="matrix(-1 0 0 1 456.4172 -931.6149)"><stop offset="0" style="stop-color:#202124"/><stop offset="1" style="stop-color:#202124;stop-opacity:0"/></linearGradient><path fill="url(#k)" d="M168.349 175.706c.666 0 1.205.54 1.205 1.205 0 .666-.54 1.205-1.205 1.205h-2.229c-.666 0-1.205.54-1.205 1.205v11.491c0 .666.54 1.205 1.205 1.205h7.102c.666 0 1.205-.54 1.205-1.205v-7.166c0-.666.54-1.205 1.205-1.205h9.569c.395 0 .764.193.99.517l6.762 9.725c.556.8-.016 1.894-.99 1.894H153.6c-.761 0-1.35-.703-1.183-1.445.658-2.914 3.263-5.09 6.375-5.09.145 0 .288.005.431.014.589.04 1.115-.364 1.244-.938l1.828-9.779c.169-.946.991-1.634 1.952-1.634h4.102v.001z"/><path fill="#F8C229" d="M160.894 178.664c0 1.161-.751 2.147-1.794 2.499-.414.139-.841-.174-.841-.611v-3.776c0-.436.428-.75.841-.611 1.043.352 1.794 1.338 1.794 2.499z"/><ellipse fill="#DADCE0" cx="175.632" cy="164.07" rx="3.036" ry="3.155"/><path fill="#DADCE0" d="M173.709 169.711l-1.176 2.744c-.109.255-.297.47-.536.612l-4.387 2.614c-.499.297-.744.887-.603 1.451.19.763 1.003 1.189 1.739.913l4.837-1.814c.895-.336 1.615-1.021 1.994-1.9l1.562-3.621"/><path fill="#ED594E" d="M170.895 163.328h3.29c.193 0 .351-.158.351-.351 0-.193-.158-.351-.351-.351h-3.29c-.193 0-.351.158-.351.351 0 .193.158.351.351.351z"/><path fill="#ED594E" d="M175.697 165.231c.671-.048.997-.383 1.116-.775.001-.004.003-.008.004-.012.163-.563-.323-1.112-.909-1.11l-2.771.01.027-.061-.743-.046c.177-1.802 1.676-3.209 3.499-3.209 1.931 0 3.505 1.656 3.516 3.568.011 1.932-1.575 3.578-3.568 3.628-.019 0-.039-.001-.06-.005"/><circle fill="#ED594E" cx="175.757" cy="166.224" r=".996"/><path fill="#34A853" d="M172.721 172.014s2.129-.6 3.308 1.265l.677-1.445 1.197-1.937-4.14-.302-1.042 2.419z"/><path fill="#DADCE0" d="M189.932 194.58c0-3.651-2.96-6.611-6.611-6.611s-6.611 2.96-6.611 6.611"/><linearGradient id="l" gradientUnits="userSpaceOnUse" x1="168.9318" y1="69.763" x2="168.9318" y2="8.5562" gradientTransform="matrix(1 0 0 -1 0 220)"><stop offset="0" style="stop-color:#202124"/><stop offset="1" style="stop-color:#202124;stop-opacity:0"/></linearGradient><path fill="url(#l)" d="M188.849 204.573l-11.195 6.732c-.374.224-.831.358-1.226.358h-9.57c-.666 0-.96-.374-.656-.834l3.266-4.96c.303-.461.01-.834-.656-.834h-7.102c-.666 0-1.451.374-1.755.834l-5.238 7.954c-.303.461-.01.834.656.834h2.229c.666 0 .96.374.656.834-.303.461-1.089.834-1.755.834v.001h-4.101c-.96 0-1.469-.476-1.207-1.131l2.63-6.769c.133-.398-.21-.677-.816-.65-.147.006-.293.01-.437.01-3.112 0-4.725-1.506-4.055-3.523.171-.514 1.08-1.001 1.841-1.001h.015v-.001c1.303-1.979 4.678-3.584 7.537-3.584 2.86 0 4.121 1.605 2.817 3.584l-.001.001H173.465v-.001h1.541c1.303-1.979 4.678-3.584 7.537-3.584s4.121 1.605 2.817 3.584h1.327l-.001.001h2.033c.977 0 1.05.757.13 1.311z"/><path fill="#70757A" d="M187.245 184.474H174.06c-.574 0-1.039-.465-1.039-1.039 0-.574.465-1.039 1.039-1.039h11.739l1.446 2.078z"/><path fill="#ED594E" d="M42.61 135.447h-3.29c-.193 0-.351-.158-.351-.351 0-.193.158-.351.351-.351h3.29c.193 0 .351.158.351.351 0 .192-.158.351-.351.351z"/><linearGradient id="m" gradientUnits="userSpaceOnUse" x1="70.0877" y1="97.4788" x2="70.0877" y2="36.272" gradientTransform="matrix(-1 0 1.3549 -1 49.039 220)"><stop offset="0" style="stop-color:#202124"/><stop offset="1" style="stop-color:#202124;stop-opacity:0"/></linearGradient><path fill="url(#m)" d="M17.489 176.857l2.074 6.732c.07.224.346.358.741.358h9.569c.666 0 1.466-.374 1.787-.834l3.454-4.96c.321-.461 1.121-.834 1.787-.834h7.102c.666 0 .946.374.624.834l-5.539 7.954c-.321.461-1.121.834-1.787.834h-2.229c-.666 0-1.466.374-1.787.834-.321.461-.042.834.624.834v.001h4.101c.96 0 2.115-.476 2.739-1.131l6.542-6.769c.407-.398 1.127-.677 1.696-.65.139.006.279.01.424.01 3.112 0 6.766-1.506 8.829-3.523.526-.514.276-1.001-.486-1.001h-.014l.001-.001c1.378-1.979.177-3.584-2.681-3.584-2.86 0-6.295 1.605-7.673 3.584v.001h-12.74l.001-.001h-1.541c1.378-1.979.177-3.584-2.682-3.584s-6.295 1.605-7.673 3.584h-1.327v.001h-2.033c-.974 0-2.074.757-1.903 1.311z"/><path fill="#70757A" d="M32.403 138.871l-3.353 6.35-1.614 8.506 4.15.787 1.612-8.507z"/><linearGradient id="n" gradientUnits="userSpaceOnUse" x1="-677.3277" y1="862.1996" x2="-677.3277" y2="884.6696" gradientTransform="rotate(10.735 3525.71779 4276.93848)"><stop offset="0" style="stop-color:#F1F3F4"/><stop offset="1" style="stop-color:#F1F3F4;stop-opacity:0"/></linearGradient><path fill="url(#n)" d="M32.403 138.871l-3.353 6.35-1.614 8.506 4.15.787 1.612-8.507z"/><path fill="#DADCE0" d="M19.92 143.49l9.13 1.731 3.353-6.35-9.129-1.731z"/><linearGradient id="o" gradientUnits="userSpaceOnUse" x1="-684.0322" y1="869.809" x2="-682.8597" y2="864.8545" gradientTransform="rotate(10.735 3525.71779 4276.93848)"><stop offset="0" style="stop-color:#F1F3F4"/><stop offset="1" style="stop-color:#F1F3F4;stop-opacity:0"/></linearGradient><path fill="url(#o)" d="M19.92 143.49l9.13 1.731 3.353-6.35-9.129-1.731z"/><path fill="#DADCE0" d="M23.274 137.14l-1.284 1.117c-.153.133-.085.383.114.421l9.455 1.793.844-1.599-9.129-1.732z"/><linearGradient id="p" gradientUnits="userSpaceOnUse" x1="-682.6101" y1="869.6856" x2="-682.525" y2="862.7645" gradientTransform="rotate(10.735 3525.71779 4276.93848)"><stop offset="0" style="stop-color:#70757A"/><stop offset="1" style="stop-color:#70757A;stop-opacity:0"/></linearGradient><path fill="url(#p)" d="M23.274 137.14l-1.284 1.117c-.153.133-.085.383.114.421l9.455 1.793.844-1.599-9.129-1.732z"/><path fill="#4285F4" d="M24.536 143.076l1.258 1.031 3.137-5.894-3.061-.58-3.137 5.893z"/><linearGradient id="q" gradientUnits="userSpaceOnUse" x1="-682.8082" y1="860.9694" x2="-683.1769" y2="863.6357" gradientTransform="rotate(10.735 3525.71779 4276.93848)"><stop offset="0" style="stop-color:#FFFFFF;stop-opacity:0.936"/><stop offset="1" style="stop-color:#FFFFFF;stop-opacity:0"/></linearGradient><path opacity=".4" fill="url(#q)" d="M24.536 143.076l1.258 1.031 3.137-5.894-3.061-.58-3.137 5.893z"/><path fill="#DADCE0" d="M18.30945 151.99633l1.61299-8.50648 9.12939 1.7311-1.61299 8.50648z"/><linearGradient id="r" gradientUnits="userSpaceOnUse" x1="-684.0853" y1="883.1049" x2="-684.0853" y2="870.5274" gradientTransform="rotate(10.735 3525.71779 4276.93848)"><stop offset="0" style="stop-color:#F1F3F4"/><stop offset="1" style="stop-color:#F1F3F4;stop-opacity:0"/></linearGradient><path fill="url(#r)" d="M19.92 143.49l9.13 1.731-1.614 8.506-9.129-1.731z"/><linearGradient id="s" gradientUnits="userSpaceOnUse" x1="-643.7057" y1="824.5945" x2="-683.2466" y2="876.5306" gradientTransform="rotate(10.735 3525.71779 4276.93848)"><stop offset="0" style="stop-color:#202124"/><stop offset="1" style="stop-color:#202124;stop-opacity:0"/></linearGradient><path fill="url(#s)" d="M32.403 138.871l-3.353 6.35-1.614 8.506 2.501-1.854z"/><linearGradient id="t" gradientUnits="userSpaceOnUse" x1="-671.6282" y1="865.3577" x2="-677.6192" y2="878.2901" gradientTransform="rotate(10.735 3525.71779 4276.93848)"><stop offset="0" style="stop-color:#202124"/><stop offset="1" style="stop-color:#202124;stop-opacity:0"/></linearGradient><path fill="url(#t)" d="M29.976 151.844l-.039.029-2.501 1.854 2.075.394 2.075.393z"/><linearGradient id="u" gradientUnits="userSpaceOnUse" x1="28.739" y1="1074.8481" x2="31.9502" y2="1070.6489" gradientTransform="translate(0 -931.6149)"><stop offset="0" style="stop-color:#202124"/><stop offset="1" style="stop-color:#202124;stop-opacity:0"/></linearGradient><path fill="url(#u)" d="M32.095 138.978l-.657 1.242-.145-.027c-.17-.032-.26-.22-.179-.372l.342-.646c.09-.171.283-.264.473-.228l.166.031z"/><linearGradient id="v" gradientUnits="userSpaceOnUse" x1="-689.0478" y1="870.0007" x2="-683.4286" y2="867.4434" gradientTransform="rotate(10.735 3525.71779 4276.93848)"><stop offset="0" style="stop-color:#202124"/><stop offset="1" style="stop-color:#202124;stop-opacity:0"/></linearGradient><path fill="url(#v)" d="M22.733 143.526l1.965-.318-.162-.132z"/><linearGradient id="w" gradientUnits="userSpaceOnUse" x1="-691.2714" y1="869.6134" x2="-677.9344" y2="863.5439" gradientTransform="rotate(10.735 3525.71779 4276.93848)"><stop offset="0" style="stop-color:#202124"/><stop offset="1" style="stop-color:#202124;stop-opacity:0"/></linearGradient><path fill="url(#w)" d="M25.794 144.107l3.42-5.842-.283-.052z"/><linearGradient id="x" gradientUnits="userSpaceOnUse" x1="-684.687" y1="852.3529" x2="-682.3043" y2="865.3254" gradientTransform="rotate(10.735 3525.71779 4276.93848)"><stop offset="0" style="stop-color:#202124"/><stop offset="1" style="stop-color:#202124;stop-opacity:0"/></linearGradient><path fill="url(#x)" d="M22.43 138.739l-.133.25 8.597 2.736.664-1.255z"/><path fill="#70757A" d="M33.198 150.795v-4.589l11.674 5.679c1.198.508 1.841 1.844 1.437 3.109l-2.331 7.304c-.174.546-.559 1.019-1.086 1.243-1.264.538-2.418-.443-2.3-1.603l.595-5.867c.04-.385-.193-.747-.56-.873l-1.816-.619-1.826.003c-2.09.001-3.787-1.694-3.787-3.787z"/><path fill="#34A853" d="M41.663 150.324l-1.699-7.959c-.287-1.347-1.477-2.309-2.855-2.309-2.16 0-3.91 1.751-3.91 3.91V151.14"/><linearGradient id="y" gradientUnits="userSpaceOnUse" x1="37.6543" y1="1060.459" x2="37.6543" y2="1083.094" gradientTransform="translate(0 -931.6149)"><stop offset="0" style="stop-color:#202124"/><stop offset="1" style="stop-color:#202124;stop-opacity:0"/></linearGradient><path fill="url(#y)" d="M37.053 144.285l-3.407 6.854 8.017-.815-.307-1.437z"/><circle fill="#9AA0A6" cx="30.078" cy="166.699" r="5.177"/><linearGradient id="z" gradientUnits="userSpaceOnUse" x1="30.0776" y1="1089.4503" x2="30.0776" y2="1102.2197" gradientTransform="translate(0 -931.6149)"><stop offset="0" style="stop-color:#202124"/><stop offset="1" style="stop-color:#202124;stop-opacity:0"/></linearGradient><circle fill="url(#z)" cx="30.078" cy="166.699" r="5.177"/><circle fill="#9AA0A6" cx="54.711" cy="166.699" r="5.177"/><linearGradient id="A" gradientUnits="userSpaceOnUse" x1="54.7114" y1="1086.6919" x2="54.7114" y2="1102.8722" gradientTransform="translate(0 -931.6149)"><stop offset="0" style="stop-color:#202124"/><stop offset="1" style="stop-color:#202124;stop-opacity:0"/></linearGradient><circle fill="url(#A)" cx="54.711" cy="166.699" r="5.177"/><path fill="#DADCE0" d="M45.155 147.825c-.666 0-1.205.54-1.205 1.205 0 .666.54 1.205 1.205 1.205h2.229c.666 0 1.205.54 1.205 1.205v11.491c0 .666-.54 1.205-1.205 1.205h-7.102c-.666 0-1.205-.54-1.205-1.205v-7.165c0-.666-.54-1.205-1.205-1.205h-9.569c-.395 0-.764.193-.99.517l-6.762 9.725c-.556.8.016 1.894.99 1.894h38.363c.761 0 1.35-.703 1.183-1.445-.658-2.914-3.263-5.09-6.375-5.09-.145 0-.288.005-.431.014-.589.04-1.115-.364-1.244-.938l-1.828-9.78c-.169-.946-.991-1.634-1.952-1.634h-4.102v.001z"/><linearGradient id="B" gradientUnits="userSpaceOnUse" x1="40.7244" y1="1036.917" x2="40.7244" y2="1099.2512" gradientTransform="translate(0 -931.6149)"><stop offset="0" style="stop-color:#202124"/><stop offset="1" style="stop-color:#202124;stop-opacity:0"/></linearGradient><path fill="url(#B)" d="M45.155 147.825c-.666 0-1.205.54-1.205 1.205 0 .666.54 1.205 1.205 1.205h2.229c.666 0 1.205.54 1.205 1.205v11.491c0 .666-.54 1.205-1.205 1.205h-7.102c-.666 0-1.205-.54-1.205-1.205v-7.165c0-.666-.54-1.205-1.205-1.205h-9.569c-.395 0-.764.193-.99.517l-6.762 9.725c-.556.8.016 1.894.99 1.894h38.363c.761 0 1.35-.703 1.183-1.445-.658-2.914-3.263-5.09-6.375-5.09-.145 0-.288.005-.431.014-.589.04-1.115-.364-1.244-.938l-1.828-9.78c-.169-.946-.991-1.634-1.952-1.634h-4.102v.001z"/><path fill="#F8C229" d="M52.611 150.783c0 1.161.751 2.147 1.794 2.499.414.139.841-.174.841-.611v-3.776c0-.436-.428-.75-.841-.611-1.044.352-1.794 1.337-1.794 2.499z"/><ellipse fill="#DADCE0" cx="37.872" cy="136.188" rx="3.036" ry="3.155"/><path fill="#DADCE0" d="M39.796 141.829l1.176 2.744c.109.255.297.47.536.612l4.387 2.614c.499.297.744.887.603 1.451-.19.763-1.003 1.189-1.739.913l-4.837-1.814c-.895-.336-1.615-1.021-1.994-1.9l-1.562-3.621"/><path fill="#ED594E" d="M37.808 137.35c-.671-.048-.997-.383-1.116-.775-.001-.004-.003-.008-.004-.012-.163-.563.323-1.112.909-1.11l2.771.01-.027-.061.743-.046c-.177-1.802-1.676-3.209-3.499-3.209-1.931 0-3.505 1.656-3.516 3.568-.011 1.932 1.575 3.578 3.568 3.628.019 0 .039-.001.06-.005"/><circle fill="#ED594E" cx="37.748" cy="138.343" r=".996"/><path fill="#34A853" d="M40.783 144.133s-2.129-.6-3.308 1.265l-.677-1.445-1.197-1.937 4.14-.302 1.042 2.419z"/><path fill="#DADCE0" d="M23.573 166.699c0-3.651 2.96-6.611 6.611-6.611s6.611 2.96 6.611 6.611"/><path fill="#70757A" d="M35.609 155.891c-.14 0-.363-.027-.736-.072-2.877-.347-4.49-.437-4.79-.268l-.177.099-.171-.113-10.8-7.562c-.146-.102-.181-.302-.079-.448.103-.145.303-.18.448-.079l10.662 7.466c.583-.159 1.907-.094 4.532.213l-14.773-11.382c-.141-.108-.167-.31-.059-.451.109-.142.311-.167.451-.059l15.877 12.233-.095.23c-.058.137-.088.193-.29.193z"/><path fill="#70757A" d="M26.26 156.592h13.185c.574 0 1.039-.465 1.039-1.039 0-.574-.465-1.039-1.039-1.039H27.706l-1.446 2.078z"/><linearGradient id="C" gradientUnits="userSpaceOnUse" x1="40.8805" y1="1070.6954" x2="28.2665" y2="1085.3485" gradientTransform="translate(0 -931.6149)"><stop offset="0" style="stop-color:#202124"/><stop offset="1" style="stop-color:#202124;stop-opacity:0"/></linearGradient><path fill="url(#C)" d="M33.198 146.039l-.26-2.369-5.502 10.057 4.15.787z"/><path fill="#34A853" d="M68.286 157.855c0-1.849 1.66-3.095 3.51-3.095.961 0 1.825.408 2.437 1.056.611-.649 1.476-1.056 2.437-1.056s1.825.408 2.437 1.056c.611-.649 1.476-1.056 2.437-1.056.074 0 .146.007.22.012v-.012c0-3.613 2.929-6.541 6.541-6.541 3.356 0 6.12 2.528 6.496 5.783.14-.016.281-.024.425-.024 2.142 0 3.877 1.735 3.877 3.877H68.286z"/><path fill="#FFF" d="M85.954 148.662c-.196.076-.386.16-.573.253.904.944 3.106 3.751 3.087 8.682l-5.603-6.467c-.114.17-.22.345-.318.526l5.371 6.199h1.12c.103-5.088-2.016-8.039-3.084-9.193zM72.032 154.786l-1.573 3.07h.657l1.524-2.974c-.197-.053-.399-.082-.608-.096zM77.664 157.855h.806c-1.108-1.101-1.55-2.308-1.724-3.087-.026-.001-.049-.008-.075-.008-.178 0-.349.028-.52.055.155.766.547 1.922 1.513 3.04zM79.903 155.212l3.124 2.643h.905l-3.437-2.907c-.208.069-.405.157-.592.264z"/></svg>