<svg version="1.1" id="Layer_1" xmlns="http://www.w3.org/2000/svg" xmlns:xlink="http://www.w3.org/1999/xlink" x="0px" y="0px" width="600px" height="200px" viewBox="0 0 600 200" enable-background="new 0 0 600 200" xml:space="preserve"><linearGradient id="SVGID_1_" gradientUnits="userSpaceOnUse" x1="648.8384" y1="394.5968" x2="272.1428" y2="76.8577" gradientTransform="matrix(1 0 0 -1 0 202)"><stop offset="0" style="stop-color:#202124"></stop><stop offset="0.9483" style="stop-color:#202124;stop-opacity:0"></stop></linearGradient><path fill="url(#SVGID_1_)" d="M301.88,3.2l-95.52,98.18l95.53,95.53c33.407-33.687,66.81-67.373,100.21-101.06L301.88,3.2z"></path><path fill="#E6E8EB" d="M198.2,71.55h82.66c0.392,0,0.71,0.318,0.71,0.71v76.1c0,0.392-0.318,0.71-0.71,0.71H198.2 c-0.392,0-0.71-0.318-0.71-0.71v-76.1C197.49,71.868,197.808,71.55,198.2,71.55z"></path><path fill="#E6E8EB" d="M290.48,108.06h82.66c0.392,0,0.71,0.318,0.71,0.71v76.1c0,0.392-0.318,0.71-0.71,0.71h-82.66 c-0.392,0-0.71-0.318-0.71-0.71v-76.1C289.77,108.378,290.088,108.06,290.48,108.06z"></path><path fill="#FFFFFF" d="M203.5,76.63h72.05c0.641,0,1.16,0.519,1.16,1.16v56.58c0,0.641-0.519,1.16-1.16,1.16H203.5 c-0.641,0-1.16-0.519-1.16-1.16V77.79C202.34,77.149,202.859,76.63,203.5,76.63z"></path><path fill="#FFFFFF" d="M295.79,113.15h72.05c0.641,0,1.16,0.519,1.16,1.16v56.58c0,0.641-0.519,1.16-1.16,1.16h-72.05 c-0.641,0-1.16-0.519-1.16-1.16v-56.58C294.63,113.669,295.149,113.15,295.79,113.15z"></path><linearGradient id="SVGID_2_" gradientUnits="userSpaceOnUse" x1="348.2087" y1="3496.645" x2="369" y2="3496.645" gradientTransform="matrix(1 0 0 1 0 -3364)"><stop offset="0" style="stop-color:#D4D4D4"></stop><stop offset="0.1" style="stop-color:#D5D5D5;stop-opacity:0.97"></stop><stop offset="0.25" style="stop-color:#D9D9D9;stop-opacity:0.87"></stop><stop offset="0.42" style="stop-color:#E0E0E0;stop-opacity:0.72"></stop><stop offset="0.62" style="stop-color:#E9E9E9;stop-opacity:0.51"></stop><stop offset="0.83" style="stop-color:#F5F5F5;stop-opacity:0.24"></stop><stop offset="1" style="stop-color:#FFFFFF;stop-opacity:0"></stop></linearGradient><path opacity="0.5" fill="url(#SVGID_2_)" enable-background="new    " d="M349.81,128.6c2.947,10.081,9.812,18.56,19.06,23.54 l0.13-0.23v-19.39c-4.359-5.443-6.123-12.518-4.83-19.37h-15.71C347.867,118.338,348.326,123.593,349.81,128.6z"></path><path fill="#F9BA08" d="M318,116.58l-2.64-3.43h-19.9c-0.475,0-0.86,0.385-0.86,0.86v13l3.53,4.58L318,116.58z"></path><path fill="#4282F2" d="M342.94,163.83L342.94,163.83c-2.105,2.209-3.233,5.171-3.13,8.22h28.33c0.113-0.001,0.224-0.022,0.33-0.06 l-9.28-8.67C354.544,159.02,347.307,159.247,342.94,163.83z"></path><path fill="#E6E8EB" d="M302.47,3.09h99.18c0.475,0,0.86,0.385,0.86,0.86v91.3c0,0.475-0.385,0.86-0.86,0.86h-99.18 c-0.475,0-0.86-0.385-0.86-0.86V3.95C301.61,3.475,301.995,3.09,302.47,3.09z"></path><path fill="#FFFFFF" d="M308.84,9.19h86.45c0.773,0,1.4,0.627,1.4,1.4v67.88c0,0.773-0.627,1.4-1.4,1.4h-86.45 c-0.773,0-1.4-0.627-1.4-1.4V10.59C307.44,9.817,308.067,9.19,308.84,9.19z"></path><linearGradient id="SVGID_3_" gradientUnits="userSpaceOnUse" x1="307.44" y1="3393.8596" x2="324.35" y2="3393.8596" gradientTransform="matrix(1 0 0 1 0 -3364)"><stop offset="0" style="stop-color:#D4D4D4"></stop><stop offset="0.1" style="stop-color:#D5D5D5;stop-opacity:0.97"></stop><stop offset="0.25" style="stop-color:#D9D9D9;stop-opacity:0.87"></stop><stop offset="0.42" style="stop-color:#E0E0E0;stop-opacity:0.72"></stop><stop offset="0.62" style="stop-color:#E9E9E9;stop-opacity:0.51"></stop><stop offset="0.83" style="stop-color:#F5F5F5;stop-opacity:0.24"></stop><stop offset="1" style="stop-color:#FFFFFF;stop-opacity:0"></stop></linearGradient><path opacity="0.5" fill="url(#SVGID_3_)" enable-background="new    " d="M319.56,35.73l4.79-8.63 c-5.162-2.807-11.133-3.753-16.91-2.68v10.13C311.473,33.285,315.847,33.711,319.56,35.73z"></path><path fill="#F9BA08" d="M373.27,79.88h22.39c0.552,0,1-0.448,1-1V59.7L372,78.24L373.27,79.88z"></path><path fill="#4282F2" d="M323.69,73.29L323.69,73.29c-1.689,1.769-2.594,4.145-2.51,6.59h23l-7.49-7 C332.976,69.433,327.18,69.616,323.69,73.29z"></path><linearGradient id="SVGID_4_" gradientUnits="userSpaceOnUse" x1="386.85" y1="3378.8201" x2="396.69" y2="3378.8201" gradientTransform="matrix(1 0 0 1 0 -3364)"><stop offset="0" style="stop-color:#D4D4D4"></stop><stop offset="0.1" style="stop-color:#D5D5D5;stop-opacity:0.97"></stop><stop offset="0.25" style="stop-color:#D9D9D9;stop-opacity:0.87"></stop><stop offset="0.42" style="stop-color:#E0E0E0;stop-opacity:0.72"></stop><stop offset="0.62" style="stop-color:#E9E9E9;stop-opacity:0.51"></stop><stop offset="0.83" style="stop-color:#F5F5F5;stop-opacity:0.24"></stop><stop offset="1" style="stop-color:#FFFFFF;stop-opacity:0"></stop></linearGradient><path opacity="0.5" fill="url(#SVGID_4_)" enable-background="new    " d="M396.69,20.42v-10.2c0-0.552-0.448-1-1-1h-0.91l-7.9,9.65 L396.69,20.42z"></path><rect x="361.705" y="16.18" transform="matrix(0.9396 -0.3423 0.3423 0.9396 13.6618 128.5734)" fill="#4282F2" width="18.8" height="18.8"></rect><circle fill="#F9BA08" cx="353.58" cy="55.64" r="9.22"></circle><path fill="none" stroke="#4282F2" stroke-width="1.49" stroke-miterlimit="10" d="M348,154.12c0,0-12.67-2.71-12.54-12.79 c0-2.4,3.87-3.45,4.16,0.39c0.33,4.26-5.44,11.8-13.05,6c-8.12-6.22-6.5-11.87-4.45-11.84c3.58,0,2.71,14.21-14.08,5.62"></path><linearGradient id="SVGID_5_" gradientUnits="userSpaceOnUse" x1="213.5438" y1="3473.522" x2="239.11" y2="3473.522" gradientTransform="matrix(1 0 0 1 0 -3364)"><stop offset="0" style="stop-color:#D4D4D4"></stop><stop offset="0.1" style="stop-color:#D5D5D5;stop-opacity:0.97"></stop><stop offset="0.25" style="stop-color:#D9D9D9;stop-opacity:0.87"></stop><stop offset="0.42" style="stop-color:#E0E0E0;stop-opacity:0.72"></stop><stop offset="0.62" style="stop-color:#E9E9E9;stop-opacity:0.51"></stop><stop offset="0.83" style="stop-color:#F5F5F5;stop-opacity:0.24"></stop><stop offset="1" style="stop-color:#FFFFFF;stop-opacity:0"></stop></linearGradient><path opacity="0.5" fill="url(#SVGID_5_)" enable-background="new    " d="M222.49,125.71c-8.351-4.589-11.399-15.079-6.81-23.43 s15.079-11.399,23.43-6.81l0,0l-3.24,5.9c-5.092-2.8-11.49-0.942-14.29,4.15c-2.8,5.092-0.942,11.49,4.15,14.29l0,0L222.49,125.71z"></path><polygon fill="#4282F2" points="225.765,135.53 246.357,135.53 240.44,126.81 234.34,117.82 229.6,127.6 "></polygon><polygon fill="#F9BA08" points="238.216,86.565 249.991,102.084 265.51,90.309 255.131,76.63 251.31,76.63 "></polygon></svg>