<svg version="1.1" id="Layer_1" xmlns="http://www.w3.org/2000/svg" x="0" y="0" width="200" height="150" style="enable-background:new 0 0 200 150" xml:space="preserve"><style>.st2{fill:#5F6368}</style><linearGradient id="SVGID_1_" gradientUnits="userSpaceOnUse" x1="109.4895" y1="701.03" x2="109.4895" y2="833.2983" gradientTransform="translate(0 -692)"><stop offset="0" style="stop-color:#3C4043"/><stop offset="1" style="stop-color:#3C4043;stop-opacity:0"/></linearGradient><path d="M165.9 75c0-36.5-29.5-66-65.9-66-18.3 0-35 7.5-46.9 19.6l102.8 81.3c6.3-10.1 10-22.1 10-34.9z" style="fill:url(#SVGID_1_)"/><linearGradient id="SVGID_2_" gradientUnits="userSpaceOnUse" x1="91.747" y1="701.0291" x2="91.747" y2="833.298" gradientTransform="translate(0 -692)"><stop offset="0" style="stop-color:#3C4043"/><stop offset="1" style="stop-color:#3C4043;stop-opacity:0"/></linearGradient><path d="M34 75c0 36.4 29.5 65.9 65.9 65.9 19.8 0 37.5-8.7 49.6-22.5L46.2 36.6C38.5 47.5 34 60.7 34 75z" style="fill:url(#SVGID_2_)"/><path class="st2" d="M100.1 105.8c4.3 0 7.7-3.5 7.7-7.7s-3.5-7.7-7.7-7.7c-4.3 0-7.7 3.5-7.7 7.7 0 4.3 3.4 7.7 7.7 7.7z"/><path class="st2" d="M100 0C58.6 0 25 33.6 25 75s33.6 75 75 75 75-33.6 75-75-33.6-75-75-75zm0 5.6c38.3 0 69.4 31.1 69.4 69.4 0 14.5-4.5 28-12.1 39.2L48.7 28.3C61.4 14.4 79.7 5.6 100 5.6zm0 138.8c-38.3 0-69.4-31.1-69.4-69.4 0-16 5.4-30.7 14.6-42.4L154 118.7c-12.8 15.7-32.3 25.7-54 25.7z"/><path class="st2" d="M77.5 87.6c-.8 1.4-.3 3.1 1.1 3.8.4.2.9.3 1.4.3 1 0 1.9-.5 2.4-1.5 3.6-6.4 10.4-10.4 17.7-10.4h.9l-6.4-5c-7.2 1.7-13.4 6.2-17.1 12.8zM62.7 79.8c-.7 1.4-.2 3.1 1.1 3.8.4.2.9.3 1.4.3 1 0 1.9-.5 2.5-1.5 3.8-7 9.7-12.4 16.7-15.7l-4.8-3.8c-7.1 3.8-12.9 9.6-16.9 16.9zM100.1 63.2c13.4 0 25.8 7.3 32.3 19 .8 1.4 2.5 1.8 3.8 1.1 1.4-.8 1.8-2.5 1.1-3.8-7.5-13.4-21.8-21.8-37.2-21.8-3.1 0-6.2.3-9.1 1l6 4.8c1-.3 2-.3 3.1-.3z"/><path class="st2" d="M100.1 47c19.4 0 37.2 10.6 46.6 27.6.7 1.4 2.4 1.8 3.8 1.1s1.8-2.4 1.1-3.8c-10.3-18.8-30.1-30.5-51.5-30.5-8.5 0-16.7 1.8-24.2 5.2l5 4c6-2.3 12.5-3.6 19.2-3.6zM48.3 72.2c-.7 1.4-.2 3.1 1.1 3.8.4.2.9.3 1.3.3 1 0 1.9-.5 2.5-1.5 4.2-7.8 10.2-14.2 17.3-19L66 52.3c-7.2 5.1-13.3 11.9-17.7 19.9z"/></svg>