<svg width="62" height="72" fill="none" xmlns="http://www.w3.org/2000/svg"><g clip-path="url(#clip0)"><path d="M30.8571 0L0 13.2632v20.8421C2.05714 62.5263 26.7429 72 30.8571 72c24.6858-7.5789 30.8572-28.4211 30.8572-37.8947V13.2632L30.8571 0z" fill="#fff"/><path d="M31 3L3 15.1579v19.1053C4.86667 60.3158 27.2667 69 31 69c22.4-6.9474 28-26.0526 28-34.7368V15.1579L31 3z" fill="#1A73E8"/><path d="M15.4285 36.4987l3.6257-3.4154 6.66 6.2494 8.4728-7.9813 8.4729-7.9813 3.6257 3.4396-10.2857 9.689-10.2857 9.689-10.2857-9.689z" fill="#fff"/></g><defs><clipPath id="clip0"><path fill="#fff" d="M0 0h61.7143v72H0z"/></clipPath></defs></svg>