<?xml version="1.0" encoding="utf-8"?>
<!-- Generator: Adobe Illustrator 23.0.1, SVG Export Plug-In . SVG Version: 6.00 Build 0)  -->
<svg version="1.1" id="Layer_1" xmlns="http://www.w3.org/2000/svg" xmlns:xlink="http://www.w3.org/1999/xlink" x="0px" y="0px"
	 width="360px" height="180px" viewBox="0 0 360 180" enable-background="new 0 0 360 180" xml:space="preserve">
<linearGradient id="SVGID_1_" gradientUnits="userSpaceOnUse" x1="2308.4087" y1="72.537" x2="2308.4087" y2="49.7905" gradientTransform="matrix(-1 0 0 1 2615.7209 0)">
	<stop  offset="0" style="stop-color:#FFFFFF"/>
	<stop  offset="0.1253" style="stop-color:#FBFBFB"/>
	<stop  offset="1" style="stop-color:#DFE1E5"/>
</linearGradient>
<path fill="url(#SVGID_1_)" d="M342.293,72.537c-12.217,0-27.626-22.747-37.941-22.747c-10.461,0-23.025,22.747-32.021,22.747"/>
<linearGradient id="SVGID_2_" gradientUnits="userSpaceOnUse" x1="2346.1135" y1="84.1346" x2="2348.6475" y2="69.7639" gradientTransform="matrix(-1 0 0 1 2615.7209 0)">
	<stop  offset="0.3079" style="stop-color:#FEFEFE"/>
	<stop  offset="0.6586" style="stop-color:#F1F1F3"/>
	<stop  offset="1" style="stop-color:#DFE1E5"/>
</linearGradient>
<path fill="url(#SVGID_2_)" d="M287.531,80.974c-6.671,0-11.69-11.189-19.813-11.189c-8.039,0-13.252,11.189-17.148,11.189"/>
<linearGradient id="SVGID_3_" gradientUnits="userSpaceOnUse" x1="49.738" y1="159.2947" x2="52.2478" y2="145.0605">
	<stop  offset="0.3079" style="stop-color:#FEFEFE"/>
	<stop  offset="0.6586" style="stop-color:#F1F1F3"/>
	<stop  offset="1" style="stop-color:#DFE1E5"/>
</linearGradient>
<path fill="url(#SVGID_3_)" d="M31.985,156.164c6.607,0,11.579-11.083,19.625-11.083c7.963,0,13.126,11.083,16.986,11.083"/>
<linearGradient id="SVGID_4_" gradientUnits="userSpaceOnUse" x1="77.4209" y1="177.9229" x2="77.4209" y2="160.0432">
	<stop  offset="0.0522" style="stop-color:#FFFFFF"/>
	<stop  offset="0.6631" style="stop-color:#ECEDEF"/>
	<stop  offset="1" style="stop-color:#DFE1E5"/>
</linearGradient>
<path fill="url(#SVGID_4_)" d="M38.322,177.923c10.783,0,31.09-17.88,43.154-17.88c7.649,0,19.315,17.88,35.043,17.88"/>
<g>
	<linearGradient id="SVGID_5_" gradientUnits="userSpaceOnUse" x1="0" y1="137.5623" x2="360" y2="137.5623">
		<stop  offset="0" style="stop-color:#FFFFFF"/>
		<stop  offset="0.2593" style="stop-color:#EFF0F2"/>
		<stop  offset="0.7857" style="stop-color:#F0F1F3"/>
		<stop  offset="1" style="stop-color:#FFFFFF"/>
	</linearGradient>
	<path fill="url(#SVGID_5_)" d="M360,158.799l-224.262-0.14c-7.169,0-13.001-5.832-13.001-13.001c0-7.168,5.832-13,13.001-13h95.688
		c3.501,0,6.35-2.849,6.35-6.35c0-3.501-2.849-6.35-6.35-6.35L0,119.928v-3.481l231.426-0.121c5.504,0,9.983,4.478,9.983,9.983
		c0,5.504-4.478,9.983-9.983,9.983h-95.688c-5.166,0-9.368,4.203-9.368,9.368c0,5.166,4.203,9.368,9.368,9.368L360,155.028V158.799z
		"/>
</g>
<g>
	<path fill="#4285F4" d="M248.684,156.844c0-0.482,0.389-0.87,0.87-0.87l0,0c0.479,0,0.87,0.389,0.87,0.87l0,0
		c0,0.479-0.392,0.87-0.87,0.87l0,0C249.073,157.714,248.684,157.323,248.684,156.844z M243.463,156.844
		c0-0.482,0.389-0.87,0.87-0.87l0,0c0.479,0,0.87,0.389,0.87,0.87l0,0c0,0.479-0.392,0.87-0.87,0.87l0,0
		C243.851,157.714,243.463,157.323,243.463,156.844z M238.241,156.844c0-0.482,0.389-0.87,0.87-0.87l0,0
		c0.479,0,0.87,0.389,0.87,0.87l0,0c0,0.479-0.392,0.87-0.87,0.87l0,0C238.63,157.714,238.241,157.323,238.241,156.844z
		 M233.019,156.844c0-0.482,0.389-0.87,0.87-0.87l0,0c0.479,0,0.87,0.389,0.87,0.87l0,0c0,0.479-0.392,0.87-0.87,0.87l0,0
		C233.408,157.714,233.019,157.323,233.019,156.844z M227.798,156.844c0-0.482,0.389-0.87,0.87-0.87l0,0
		c0.479,0,0.87,0.389,0.87,0.87l0,0c0,0.479-0.392,0.87-0.87,0.87l0,0C228.186,157.714,227.798,157.323,227.798,156.844z
		 M222.576,156.844c0-0.482,0.389-0.87,0.87-0.87l0,0c0.479,0,0.87,0.389,0.87,0.87l0,0c0,0.479-0.392,0.87-0.87,0.87l0,0
		C222.965,157.714,222.576,157.323,222.576,156.844z M217.355,156.844c0-0.482,0.389-0.87,0.87-0.87l0,0
		c0.479,0,0.87,0.389,0.87,0.87l0,0c0,0.479-0.392,0.87-0.87,0.87l0,0C217.743,157.714,217.355,157.323,217.355,156.844z
		 M212.133,156.844c0-0.482,0.389-0.87,0.87-0.87l0,0c0.479,0,0.87,0.389,0.87,0.87l0,0c0,0.479-0.392,0.87-0.87,0.87l0,0
		C212.522,157.714,212.133,157.323,212.133,156.844z M206.911,156.844c0-0.482,0.389-0.87,0.87-0.87l0,0
		c0.479,0,0.87,0.389,0.87,0.87l0,0c0,0.479-0.392,0.87-0.87,0.87l0,0C207.3,157.714,206.911,157.323,206.911,156.844z
		 M201.69,156.844c0-0.482,0.389-0.87,0.87-0.87l0,0c0.479,0,0.87,0.389,0.87,0.87l0,0c0,0.479-0.392,0.87-0.87,0.87l0,0
		C202.078,157.714,201.69,157.323,201.69,156.844z M196.468,156.844c0-0.482,0.389-0.87,0.87-0.87l0,0c0.479,0,0.87,0.389,0.87,0.87
		l0,0c0,0.479-0.392,0.87-0.87,0.87l0,0C196.857,157.714,196.468,157.323,196.468,156.844z M191.247,156.844
		c0-0.482,0.389-0.87,0.87-0.87l0,0c0.479,0,0.87,0.389,0.87,0.87l0,0c0,0.479-0.392,0.87-0.87,0.87l0,0
		C191.635,157.714,191.247,157.323,191.247,156.844z M186.025,156.844c0-0.482,0.389-0.87,0.87-0.87l0,0
		c0.479,0,0.87,0.389,0.87,0.87l0,0c0,0.479-0.392,0.87-0.87,0.87l0,0C186.414,157.714,186.025,157.323,186.025,156.844z
		 M180.803,156.844c0-0.482,0.389-0.87,0.87-0.87l0,0c0.479,0,0.87,0.389,0.87,0.87l0,0c0,0.479-0.392,0.87-0.87,0.87l0,0
		C181.192,157.714,180.803,157.323,180.803,156.844z M175.582,156.844c0-0.482,0.389-0.87,0.87-0.87l0,0
		c0.479,0,0.87,0.389,0.87,0.87l0,0c0,0.479-0.392,0.87-0.87,0.87l0,0C175.971,157.714,175.582,157.323,175.582,156.844z
		 M170.36,156.844c0-0.482,0.389-0.87,0.87-0.87l0,0c0.481,0,0.87,0.389,0.87,0.87l0,0c0,0.479-0.389,0.87-0.87,0.87l0,0
		C170.749,157.714,170.36,157.323,170.36,156.844z M165.139,156.844c0-0.482,0.389-0.87,0.87-0.87l0,0c0.479,0,0.87,0.389,0.87,0.87
		l0,0c0,0.479-0.392,0.87-0.87,0.87l0,0C165.527,157.714,165.139,157.323,165.139,156.844z M159.917,156.844
		c0-0.482,0.389-0.87,0.87-0.87l0,0c0.479,0,0.87,0.389,0.87,0.87l0,0c0,0.479-0.392,0.87-0.87,0.87l0,0
		C160.306,157.714,159.917,157.323,159.917,156.844z M154.696,156.844c0-0.482,0.389-0.87,0.87-0.87l0,0
		c0.481,0,0.87,0.389,0.87,0.87l0,0c0,0.479-0.389,0.87-0.87,0.87l0,0C155.084,157.714,154.696,157.323,154.696,156.844z
		 M149.474,156.844c0-0.482,0.389-0.87,0.87-0.87l0,0c0.479,0,0.87,0.389,0.87,0.87l0,0c0,0.479-0.392,0.87-0.87,0.87l0,0
		C149.863,157.714,149.474,157.323,149.474,156.844z M144.252,156.844c0-0.482,0.389-0.87,0.87-0.87l0,0
		c0.481,0,0.87,0.389,0.87,0.87l0,0c0,0.479-0.389,0.87-0.87,0.87l0,0C144.641,157.714,144.252,157.323,144.252,156.844z
		 M139.031,156.844c0-0.482,0.389-0.87,0.87-0.87l0,0c0.481,0,0.87,0.389,0.87,0.87l0,0c0,0.479-0.389,0.87-0.87,0.87l0,0
		C139.419,157.714,139.031,157.323,139.031,156.844z M134.598,157.659c-0.476-0.043-0.83-0.47-0.783-0.948l0,0
		c0.043-0.479,0.467-0.83,0.946-0.783l0,0l0,0l0,0c0.479,0.044,0.833,0.467,0.786,0.946l0,0c-0.041,0.453-0.421,0.792-0.864,0.792
		l0,0C134.653,157.665,134.627,157.662,134.598,157.659z M129.319,155.864L129.319,155.864c-0.406-0.255-0.528-0.792-0.27-1.198l0,0
		c0.255-0.409,0.792-0.531,1.198-0.273l0,0c0.409,0.255,0.531,0.792,0.273,1.198l0,0c-0.165,0.264-0.447,0.406-0.737,0.406l0,0
		C129.623,155.997,129.464,155.954,129.319,155.864z M125.414,151.887c-0.246-0.412-0.116-0.946,0.296-1.195l0,0
		c0.412-0.25,0.946-0.116,1.195,0.293l0,0c0.247,0.412,0.116,0.949-0.296,1.198l0,0c-0.139,0.084-0.296,0.125-0.45,0.125l0,0
		C125.866,152.307,125.579,152.156,125.414,151.887z M123.717,146.575v-0.003c-0.035-0.478,0.325-0.896,0.804-0.931l0,0
		c0.479-0.035,0.896,0.322,0.934,0.804l0,0c0,0,0,0,0-0.003l0,0c0.035,0.482-0.325,0.899-0.804,0.934l0,0
		c-0.023,0.003-0.046,0.003-0.067,0.003l0,0C124.135,147.379,123.752,147.03,123.717,146.575z M125.06,142.203
		c-0.444-0.183-0.656-0.69-0.473-1.134v-0.003c0.186-0.444,0.693-0.656,1.137-0.47l0,0c0.444,0.183,0.656,0.69,0.473,1.134l0,0l0,0
		l0,0c-0.139,0.336-0.461,0.539-0.804,0.539l0,0C125.283,142.27,125.17,142.25,125.06,142.203z M127.761,137.774
		c-0.316-0.365-0.278-0.914,0.087-1.23l0,0c0.363-0.313,0.914-0.276,1.227,0.09l0,0c0.313,0.363,0.276,0.911-0.087,1.227l0,0
		c-0.165,0.142-0.368,0.212-0.572,0.212l0,0C128.173,138.073,127.932,137.971,127.761,137.774z M132.158,135.024
		c-0.116-0.467,0.168-0.94,0.632-1.056l0,0c0.467-0.119,0.94,0.165,1.059,0.629l0,0c0.116,0.467-0.168,0.94-0.632,1.056l0,0
		c-0.073,0.02-0.142,0.029-0.215,0.029l0,0C132.614,135.679,132.26,135.418,132.158,135.024z M226.095,134.475
		c0-0.481,0.389-0.87,0.87-0.87l0,0c0.479,0,0.87,0.389,0.87,0.87l0,0c0,0.479-0.392,0.87-0.87,0.87l0,0
		C226.484,135.346,226.095,134.954,226.095,134.475z M220.873,134.475c0-0.481,0.389-0.87,0.87-0.87l0,0
		c0.479,0,0.87,0.389,0.87,0.87l0,0c0,0.479-0.391,0.87-0.87,0.87l0,0C221.262,135.346,220.873,134.954,220.873,134.475z
		 M215.652,134.475c0-0.481,0.389-0.87,0.87-0.87l0,0c0.479,0,0.87,0.389,0.87,0.87l0,0c0,0.479-0.392,0.87-0.87,0.87l0,0
		C216.041,135.346,215.652,134.954,215.652,134.475z M210.43,134.475c0-0.481,0.389-0.87,0.87-0.87l0,0
		c0.479,0,0.87,0.389,0.87,0.87l0,0c0,0.479-0.391,0.87-0.87,0.87l0,0C210.819,135.346,210.43,134.954,210.43,134.475z
		 M205.209,134.475c0-0.481,0.389-0.87,0.87-0.87l0,0c0.479,0,0.87,0.389,0.87,0.87l0,0c0,0.479-0.392,0.87-0.87,0.87l0,0
		C205.597,135.346,205.209,134.954,205.209,134.475z M199.987,134.475c0-0.481,0.389-0.87,0.87-0.87l0,0
		c0.479,0,0.87,0.389,0.87,0.87l0,0c0,0.479-0.391,0.87-0.87,0.87l0,0C200.376,135.346,199.987,134.954,199.987,134.475z
		 M194.765,134.475c0-0.481,0.389-0.87,0.87-0.87l0,0c0.479,0,0.87,0.389,0.87,0.87l0,0c0,0.479-0.392,0.87-0.87,0.87l0,0
		C195.154,135.346,194.765,134.954,194.765,134.475z M189.544,134.475c0-0.481,0.389-0.87,0.87-0.87l0,0
		c0.479,0,0.87,0.389,0.87,0.87l0,0c0,0.479-0.391,0.87-0.87,0.87l0,0C189.933,135.346,189.544,134.954,189.544,134.475z
		 M184.322,134.475c0-0.481,0.389-0.87,0.87-0.87l0,0c0.479,0,0.87,0.389,0.87,0.87l0,0c0,0.479-0.392,0.87-0.87,0.87l0,0
		C184.711,135.346,184.322,134.954,184.322,134.475z M179.101,134.475c0-0.481,0.389-0.87,0.87-0.87l0,0
		c0.479,0,0.87,0.389,0.87,0.87l0,0c0,0.479-0.391,0.87-0.87,0.87l0,0C179.489,135.346,179.101,134.954,179.101,134.475z
		 M173.879,134.475c0-0.481,0.389-0.87,0.87-0.87l0,0c0.479,0,0.87,0.389,0.87,0.87l0,0c0,0.479-0.392,0.87-0.87,0.87l0,0
		C174.268,135.346,173.879,134.954,173.879,134.475z M168.658,134.475c0-0.481,0.389-0.87,0.87-0.87l0,0
		c0.479,0,0.87,0.389,0.87,0.87l0,0c0,0.479-0.392,0.87-0.87,0.87l0,0C169.046,135.346,168.658,134.954,168.658,134.475z
		 M163.436,134.475c0-0.481,0.389-0.87,0.87-0.87l0,0c0.479,0,0.87,0.389,0.87,0.87l0,0c0,0.479-0.392,0.87-0.87,0.87l0,0
		C163.825,135.346,163.436,134.954,163.436,134.475z M158.214,134.475c0-0.481,0.389-0.87,0.87-0.87l0,0
		c0.479,0,0.87,0.389,0.87,0.87l0,0c0,0.479-0.392,0.87-0.87,0.87l0,0C158.603,135.346,158.214,134.954,158.214,134.475z
		 M152.993,134.475c0-0.481,0.389-0.87,0.87-0.87l0,0c0.479,0,0.87,0.389,0.87,0.87l0,0c0,0.479-0.392,0.87-0.87,0.87l0,0
		C153.381,135.346,152.993,134.954,152.993,134.475z M147.771,134.475c0-0.481,0.389-0.87,0.87-0.87l0,0
		c0.479,0,0.87,0.389,0.87,0.87l0,0c0,0.479-0.392,0.87-0.87,0.87l0,0C148.16,135.346,147.771,134.954,147.771,134.475z
		 M142.55,134.475c0-0.481,0.389-0.87,0.87-0.87l0,0c0.479,0,0.87,0.389,0.87,0.87l0,0c0,0.479-0.392,0.87-0.87,0.87l0,0
		C142.938,135.346,142.55,134.954,142.55,134.475z M137.328,134.475c0-0.481,0.389-0.87,0.87-0.87l0,0c0.479,0,0.87,0.389,0.87,0.87
		l0,0c0,0.479-0.392,0.87-0.87,0.87l0,0C137.717,135.346,137.328,134.954,137.328,134.475z M231.317,134.519
		c-0.043-0.479,0.31-0.902,0.789-0.946h-0.003c0.479-0.044,0.905,0.307,0.949,0.786l0,0c0.044,0.478-0.308,0.902-0.786,0.946l0,0
		c-0.029,0.003-0.055,0.006-0.081,0.006l0,0C231.737,135.311,231.36,134.971,231.317,134.519z M236.236,132.964
		c-0.319-0.357-0.29-0.908,0.067-1.23l0,0c0.357-0.322,0.908-0.293,1.23,0.067l0,0c0.319,0.357,0.29,0.908-0.067,1.227l0,0
		c-0.165,0.151-0.374,0.223-0.58,0.223l0,0C236.645,133.251,236.411,133.155,236.236,132.964z M239.259,128.781
		c-0.47-0.096-0.775-0.554-0.679-1.027l0,0c0.093-0.47,0.551-0.775,1.024-0.682l0,0c0.47,0.096,0.775,0.554,0.682,1.027l0,0
		c-0.084,0.412-0.446,0.699-0.853,0.699l0,0C239.375,128.798,239.317,128.793,239.259,128.781z M238.032,123.203
		c-0.206-0.435-0.02-0.954,0.415-1.158l0,0c0.435-0.206,0.954-0.02,1.158,0.415l0,0c0.206,0.435,0.02,0.954-0.415,1.16l0,0
		c-0.119,0.055-0.247,0.081-0.371,0.081l0,0C238.493,123.702,238.18,123.519,238.032,123.203z M234.873,119.875
		c-0.424-0.229-0.583-0.754-0.354-1.178l0,0c0.226-0.424,0.754-0.583,1.178-0.357l0,0c0.424,0.229,0.583,0.757,0.354,1.18l0,0
		c-0.157,0.29-0.456,0.458-0.766,0.458l0,0C235.146,119.98,235.004,119.945,234.873,119.875z M229.356,118.141
		c0-0.479,0.389-0.87,0.87-0.87l0,0c0.479,0,0.87,0.392,0.87,0.87l0,0c0,0.482-0.392,0.87-0.87,0.87l0,0
		C229.744,119.011,229.356,118.622,229.356,118.141z M224.134,118.141c0-0.479,0.389-0.87,0.87-0.87l0,0
		c0.479,0,0.87,0.392,0.87,0.87l0,0c0,0.482-0.392,0.87-0.87,0.87l0,0C224.523,119.011,224.134,118.622,224.134,118.141z
		 M218.912,118.141c0-0.479,0.389-0.87,0.87-0.87l0,0c0.479,0,0.87,0.392,0.87,0.87l0,0c0,0.482-0.392,0.87-0.87,0.87l0,0
		C219.301,119.011,218.912,118.622,218.912,118.141z M213.691,118.141c0-0.479,0.389-0.87,0.87-0.87l0,0
		c0.479,0,0.87,0.392,0.87,0.87l0,0c0,0.482-0.391,0.87-0.87,0.87l0,0C214.079,119.011,213.691,118.622,213.691,118.141z
		 M208.469,118.141c0-0.479,0.389-0.87,0.87-0.87l0,0c0.479,0,0.87,0.392,0.87,0.87l0,0c0,0.482-0.392,0.87-0.87,0.87l0,0
		C208.858,119.011,208.469,118.622,208.469,118.141z M203.248,118.141c0-0.479,0.389-0.87,0.87-0.87l0,0
		c0.479,0,0.87,0.392,0.87,0.87l0,0c0,0.482-0.391,0.87-0.87,0.87l0,0C203.636,119.011,203.248,118.622,203.248,118.141z
		 M198.026,118.141c0-0.479,0.389-0.87,0.87-0.87l0,0c0.479,0,0.87,0.392,0.87,0.87l0,0c0,0.482-0.392,0.87-0.87,0.87l0,0
		C198.415,119.011,198.026,118.622,198.026,118.141z M192.804,118.141c0-0.479,0.389-0.87,0.87-0.87l0,0
		c0.479,0,0.87,0.392,0.87,0.87l0,0c0,0.482-0.391,0.87-0.87,0.87l0,0C193.193,119.011,192.804,118.622,192.804,118.141z
		 M187.583,118.141c0-0.479,0.389-0.87,0.87-0.87l0,0c0.479,0,0.87,0.392,0.87,0.87l0,0c0,0.482-0.392,0.87-0.87,0.87l0,0
		C187.971,119.011,187.583,118.622,187.583,118.141z M182.361,118.141c0-0.479,0.389-0.87,0.87-0.87l0,0
		c0.479,0,0.87,0.392,0.87,0.87l0,0c0,0.482-0.391,0.87-0.87,0.87l0,0C182.75,119.011,182.361,118.622,182.361,118.141z
		 M177.14,118.141c0-0.479,0.389-0.87,0.87-0.87l0,0c0.482,0,0.87,0.392,0.87,0.87l0,0c0,0.482-0.389,0.87-0.87,0.87l0,0
		C177.528,119.011,177.14,118.622,177.14,118.141z M171.918,118.141c0-0.479,0.389-0.87,0.87-0.87l0,0c0.479,0,0.87,0.392,0.87,0.87
		l0,0c0,0.482-0.391,0.87-0.87,0.87l0,0C172.307,119.011,171.918,118.622,171.918,118.141z M166.696,118.141
		c0-0.479,0.389-0.87,0.87-0.87l0,0c0.479,0,0.87,0.392,0.87,0.87l0,0c0,0.482-0.392,0.87-0.87,0.87l0,0
		C167.085,119.011,166.696,118.622,166.696,118.141z M161.475,118.141c0-0.479,0.389-0.87,0.87-0.87l0,0
		c0.482,0,0.87,0.392,0.87,0.87l0,0c0,0.482-0.389,0.87-0.87,0.87l0,0C161.864,119.011,161.475,118.622,161.475,118.141z
		 M156.253,118.141c0-0.479,0.389-0.87,0.87-0.87l0,0c0.479,0,0.87,0.392,0.87,0.87l0,0c0,0.482-0.392,0.87-0.87,0.87l0,0
		C156.642,119.011,156.253,118.622,156.253,118.141z M151.032,118.141c0-0.479,0.389-0.87,0.87-0.87l0,0
		c0.479,0,0.87,0.392,0.87,0.87l0,0c0,0.482-0.391,0.87-0.87,0.87l0,0C151.42,119.011,151.032,118.622,151.032,118.141z
		 M145.81,118.141c0-0.479,0.389-0.87,0.87-0.87l0,0c0.479,0,0.87,0.392,0.87,0.87l0,0c0,0.482-0.392,0.87-0.87,0.87l0,0
		C146.199,119.011,145.81,118.622,145.81,118.141z M140.588,118.141c0-0.479,0.389-0.87,0.87-0.87l0,0c0.479,0,0.87,0.392,0.87,0.87
		l0,0c0,0.482-0.392,0.87-0.87,0.87l0,0C140.977,119.011,140.588,118.622,140.588,118.141z M135.367,118.141
		c0-0.479,0.389-0.87,0.87-0.87l0,0c0.482,0,0.87,0.392,0.87,0.87l0,0c0,0.482-0.389,0.87-0.87,0.87l0,0
		C135.756,119.011,135.367,118.622,135.367,118.141z M130.145,118.141c0-0.479,0.389-0.87,0.87-0.87l0,0
		c0.479,0,0.87,0.392,0.87,0.87l0,0c0,0.482-0.392,0.87-0.87,0.87l0,0C130.534,119.011,130.145,118.622,130.145,118.141z
		 M124.924,118.141c0-0.479,0.389-0.87,0.87-0.87l0,0c0.479,0,0.87,0.392,0.87,0.87l0,0c0,0.482-0.392,0.87-0.87,0.87l0,0
		C125.312,119.011,124.924,118.622,124.924,118.141z M119.702,118.141c0-0.479,0.389-0.87,0.87-0.87l0,0
		c0.482,0,0.87,0.392,0.87,0.87l0,0c0,0.482-0.389,0.87-0.87,0.87l0,0C120.091,119.011,119.702,118.622,119.702,118.141z
		 M114.48,118.141c0-0.479,0.389-0.87,0.87-0.87l0,0c0.479,0,0.87,0.392,0.87,0.87l0,0c0,0.482-0.392,0.87-0.87,0.87l0,0
		C114.869,119.011,114.48,118.622,114.48,118.141z M109.259,118.141c0-0.479,0.389-0.87,0.87-0.87l0,0c0.479,0,0.87,0.392,0.87,0.87
		l0,0c0,0.482-0.392,0.87-0.87,0.87l0,0C109.648,119.011,109.259,118.622,109.259,118.141z M104.037,118.141
		c0-0.479,0.389-0.87,0.87-0.87l0,0c0.479,0,0.87,0.392,0.87,0.87l0,0c0,0.482-0.392,0.87-0.87,0.87l0,0
		C104.426,119.011,104.037,118.622,104.037,118.141z M98.816,118.141c0-0.479,0.389-0.87,0.87-0.87l0,0
		c0.479,0,0.87,0.392,0.87,0.87l0,0c0,0.482-0.392,0.87-0.87,0.87l0,0C99.205,119.011,98.816,118.622,98.816,118.141z"/>
</g>
<ellipse transform="matrix(0.2442 -0.9697 0.9697 0.2442 -45.6452 177.6456)" fill="#9FC1F9" cx="91.138" cy="118.104" rx="11.397" ry="11.398"/>
<ellipse transform="matrix(0.2442 -0.9697 0.9697 0.2442 -45.6452 177.6456)" fill="#FFFFFF" cx="91.138" cy="118.104" rx="8.548" ry="8.548"/>
<polygon fill="#4285F4" points="96.883,118.104 86.667,114.115 88.35,117.978 86.667,122.093 "/>
<path id="XMLID_12_" fill="#DF382B" d="M261.368,134.859c-1.314-4.784-6.133-7.653-11.115-6.645
	c-6.005,1.216-9.227,7.791-6.433,13.161c0.565,1.086,1.191,2.144,1.833,3.187c0.8,1.3,1.662,2.561,2.468,3.857
	c1.731,2.781,3.102,5.721,3.852,8.927c0.082,0.351,0.167,0.701,0.253,1.06c0.444-1.446,0.822-2.869,1.317-4.25
	c1.018-2.842,2.613-5.382,4.233-7.909c0.991-1.546,1.935-3.127,2.823-4.736C261.756,139.413,262.003,137.169,261.368,134.859z"/>
<circle id="XMLID_11_" fill="#90130E" cx="252.234" cy="136.811" r="3.384"/>
<linearGradient id="SVGID_6_" gradientUnits="userSpaceOnUse" x1="125.4276" y1="108.3131" x2="125.4276" y2="75.61">
	<stop  offset="0" style="stop-color:#CDD0D5;stop-opacity:0"/>
	<stop  offset="0.0398" style="stop-color:#CED1D6;stop-opacity:0.0398"/>
	<stop  offset="0.529" style="stop-color:#DBDDE1;stop-opacity:0.529"/>
	<stop  offset="1" style="stop-color:#DFE1E5"/>
</linearGradient>
<polygon fill="url(#SVGID_6_)" points="125.736,75.61 119.765,94.968 122.052,94.968 119.765,102.381 124.732,102.381 
	124.732,108.313 126.405,108.313 126.405,102.381 131.091,102.381 129.04,94.967 131.091,94.967 "/>
<g>
	<g>
		<path fill="#FABB05" d="M246.807,29.09c-0.334,0-0.635-0.232-0.708-0.572c-0.74-3.429-2.171-6.674-4.252-9.648
			c-2.066-2.951-4.605-5.391-7.546-7.255c-0.338-0.214-0.439-0.662-0.225-1.001c0.215-0.339,0.663-0.439,1.001-0.225
			c3.104,1.966,5.782,4.539,7.958,7.648c2.193,3.132,3.701,6.555,4.482,10.174c0.085,0.392-0.164,0.777-0.556,0.862
			C246.909,29.084,246.857,29.09,246.807,29.09z"/>
	</g>
	<g>
		<path fill="#FABB05" d="M254.527,30.713c-0.335,0-0.636-0.233-0.709-0.574c-1.182-5.541-3.443-10.723-6.72-15.403
			c-3.288-4.696-7.401-8.603-12.223-11.613c-0.34-0.212-0.443-0.659-0.231-0.999c0.212-0.34,0.66-0.443,0.999-0.231
			c4.989,3.114,9.243,7.155,12.643,12.011c3.389,4.84,5.728,10.201,6.951,15.933c0.084,0.392-0.166,0.777-0.558,0.86
			C254.628,30.708,254.577,30.713,254.527,30.713z"/>
	</g>
</g>
<g>
	<g>
		<path fill="#FABB05" d="M119.865,29.09c-0.051,0-0.102-0.005-0.154-0.016c-0.392-0.084-0.64-0.47-0.556-0.862
			c0.781-3.618,2.289-7.041,4.482-10.174c2.177-3.109,4.854-5.682,7.958-7.648c0.338-0.215,0.786-0.114,1.001,0.225
			c0.214,0.338,0.114,0.786-0.225,1.001c-2.941,1.863-5.48,4.304-7.546,7.255c-2.082,2.973-3.513,6.219-4.252,9.648
			C120.5,28.857,120.199,29.09,119.865,29.09z"/>
	</g>
	<g>
		<path fill="#FABB05" d="M112.145,30.713c-0.05,0-0.101-0.005-0.152-0.016c-0.392-0.084-0.642-0.469-0.558-0.86
			c1.223-5.732,3.562-11.092,6.951-15.933c3.401-4.856,7.654-8.898,12.643-12.011c0.34-0.213,0.787-0.109,0.999,0.231
			c0.212,0.34,0.109,0.787-0.231,0.999c-4.822,3.01-8.935,6.917-12.223,11.613c-3.277,4.68-5.538,9.862-6.72,15.403
			C112.781,30.48,112.48,30.713,112.145,30.713z"/>
	</g>
</g>
<path fill="#FABB05" d="M235.178,55.874c0-28.474-23.165-51.639-51.639-51.639c-28.474,0-51.64,23.165-51.64,51.639
	c0,26.201,19.614,47.905,44.93,51.204l6.1,23.683c0.192,1.732,2.72,1.703,2.872-0.034l4.683-23.683
	C215.685,103.642,235.177,81.993,235.178,55.874z M183.538,104.612c-26.874,0-48.738-21.864-48.738-48.739
	s21.864-48.739,48.739-48.739s48.739,21.864,48.739,48.739C232.277,82.748,210.412,104.612,183.538,104.612z"/>
<path fill="#F57F17" d="M176.308,84.876c0,3.744,3.032,6.776,6.776,6.776c3.744,0,6.776-3.032,6.776-6.776
	c0-1.237-0.335-2.389-0.915-3.388h-11.723C176.643,82.487,176.308,83.639,176.308,84.876z"/>
<path fill="#F2A600" d="M178.002,24.441c-10.656,2.329-18.635,11.812-18.635,23.166v22.023l-8.47,8.47v3.388h32.187V23.89
	C181.339,23.89,179.641,24.085,178.002,24.441z"/>
<path fill="#F6BF26" d="M206.801,69.629V47.607c0-11.354-7.979-20.837-18.635-23.166c-1.639-0.356-3.337-0.551-5.082-0.551v57.598
	h32.187V78.1L206.801,69.629z"/>
<path fill="#F6BF26" d="M188.167,24.441v-2.245c0-2.812-2.27-5.082-5.082-5.082s-5.082,2.27-5.082,5.082v2.245
	c1.639-0.356,3.337-0.551,5.082-0.551S186.528,24.085,188.167,24.441z"/>
<path fill="#BF360C" fill-opacity="0.2" d="M183.084,91.228c-3.685,0-6.675-2.943-6.768-6.607c-0.004,0.085-0.008,0.169-0.008,0.254
	c0,3.744,3.032,6.776,6.776,6.776c3.744,0,6.776-3.032,6.776-6.776c0-0.085-0.004-0.169-0.008-0.254
	C189.759,88.285,186.769,91.228,183.084,91.228L183.084,91.228z"/>
<path fill="#FFFFFF" fill-opacity="0.2" d="M159.368,69.629l-8.47,8.47v0.424l8.47-8.47V69.629z M206.801,69.629v0.424l8.47,8.47
	V78.1L206.801,69.629z"/>
<path fill="#BF360C" fill-opacity="0.2" d="M188.946,81.064h-38.048v0.424h64.374v-0.424h-8.47H188.946z"/>
<path opacity="0.2" fill="#FFFFFF" enable-background="new    " d="M183.084,17.537c2.812,0,5.082,2.27,5.082,5.082v-0.424
	c0-2.812-2.27-5.082-5.082-5.082s-5.082,2.27-5.082,5.082v0.424C178.002,19.807,180.272,17.537,183.084,17.537z"/>
<path opacity="0.2" fill="#BF360C" fill-opacity="0.2" enable-background="new    " d="M182.661,23.903v57.585h0.424V23.89
	C182.94,23.89,182.801,23.898,182.661,23.903z"/>
<path fill="#FFFFFF" fill-opacity="0.05" d="M183.508,23.903v57.585h-0.424V23.89C183.228,23.89,183.368,23.898,183.508,23.903z"/>
<path fill="#FFFFFF" fill-opacity="0.2" d="M178.002,24.864c1.639-0.356,3.337-0.551,5.082-0.551s3.443,0.195,5.082,0.551
	c10.656,2.329,18.635,11.812,18.635,23.166v-0.424c0-11.354-7.979-20.837-18.635-23.166c-1.639-0.356-3.337-0.551-5.082-0.551
	s-3.443,0.195-5.082,0.551c-10.656,2.329-18.635,11.812-18.635,23.166v0.424C159.368,36.676,167.347,27.193,178.002,24.864z"/>
</svg>
