<svg version="1.1" id="Layer_1" xmlns="http://www.w3.org/2000/svg" xmlns:xlink="http://www.w3.org/1999/xlink" x="0px" y="0px" width="600px" height="200px" viewBox="0 0 600 200" enable-background="new 0 0 600 200" xml:space="preserve"><radialGradient id="Horizon_Line_1_" cx="-372.8796" cy="1967.96" r="174.26" gradientTransform="matrix(1.82 0 0 0.25 973.46 -361.39)" gradientUnits="userSpaceOnUse"><stop offset="0" style="stop-color:#3C4043"></stop><stop offset="1" style="stop-color:#202124;stop-opacity:0"></stop></radialGradient><path id="Horizon_Line" fill="url(#Horizon_Line_1_)" d="M0,136v72.55h600V136H0z"></path><path fill="#8B9297" d="M346.63,146.41c-0.397,0.019-0.735-0.287-0.754-0.684c-0.004-0.087,0.007-0.173,0.034-0.256l23.63-83.77 c0.11-0.395,0.52-0.625,0.915-0.515c0.395,0.11,0.625,0.52,0.515,0.915l0,0l-23.63,83.77 C347.251,146.188,346.961,146.409,346.63,146.41z"></path><path fill="#8B9297" d="M348.8,142.83c-0.114-0.003-0.227-0.03-0.33-0.08c-0.363-0.162-0.526-0.588-0.364-0.951 c0.007-0.017,0.016-0.033,0.024-0.049l36.7-76.1c0.17-0.366,0.604-0.525,0.969-0.355c0.01,0.005,0.021,0.01,0.031,0.015 c0.363,0.162,0.526,0.588,0.364,0.951c-0.007,0.017-0.016,0.033-0.024,0.049l-36.69,76.1 C349.351,142.668,349.088,142.83,348.8,142.83z"></path><path fill="#FDD663" d="M306.26,119.91v15c0.006,13.429,7.811,25.633,20,31.27v8.44h29.21v-8.44c12.191-5.635,19.996-17.84,20-31.27 v-15H306.26z"></path><rect x="306.26" y="130.86" fill="#202124" width="69.3" height="0.74"></rect><path fill="#9AA0A6" d="M233.31,173.12H222.6v-52.38c0-0.431-0.349-0.78-0.78-0.78c-0.425,0-0.77,0.345-0.77,0.77 c0,0.003,0,0.007,0,0.01v52.38h-10.24c-0.428,0.049-0.736,0.435-0.687,0.863c0.041,0.361,0.326,0.646,0.687,0.687h22.5 c0.428,0.049,0.814-0.259,0.863-0.687s-0.259-0.814-0.687-0.863C233.428,173.113,233.369,173.113,233.31,173.12z"></path><path fill="#9AA0A6" d="M207.46,85.13h28.73l0,0v36.62c0,3.573-2.897,6.47-6.47,6.47l0,0h-15.79c-3.573,0-6.47-2.897-6.47-6.47l0,0 V85.13L207.46,85.13z"></path><path fill="#9AA0A6" d="M267.34,60.5V19.59h-9.29V60.5c-7.185,2.069-12.132,8.643-12.13,16.12v97.79h33.55V76.62 C279.472,69.143,274.525,62.569,267.34,60.5z"></path><rect x="258.05" y="19.1" fill="#5F6368" width="9.29" height="22.28"></rect><rect x="258.05" y="41.81" fill="#202124" width="9.29" height="0.43"></rect><rect x="245.92" y="153.45" fill="#202124" width="33.55" height="0.64"></rect><rect x="245.92" y="88.59" fill="#202124" width="33.55" height="0.64"></rect><rect x="207.46" y="106.35" fill="#202124" width="28.73" height="0.64"></rect><path fill="none" stroke="#8AB4F8" stroke-width="2.99" stroke-miterlimit="10" d="M343.31,72.45c0,0-23.31,11.55-35.68-4.45 c-2.94-3.8,1.79-10.25,7.05-4.57c5.82,6.29,6.15,25.33-13.07,25.68c-20.52,0.36-25-10.54-21.77-13.06c5.69-4.39,22,19-15.11,26.4"></path><path fill="none" stroke="#8AB4F8" stroke-width="2.16" stroke-miterlimit="10" d="M363.64,145.84c0,0,17.59-6.65,15.21-21.08 c-0.57-3.43-6.31-4.11-5.89,1.47c0.46,6.18,10.37,15.74,20,5.74c10.31-10.68,6.75-18.44,3.82-18c-5.13,0.84-0.81,21,21.41,5"></path></svg>