<?xml version="1.0" encoding="utf-8"?>
<!-- Generator: Adobe Illustrator 27.1.1, SVG Export Plug-In . SVG Version: 6.00 Build 0)  -->
<svg version="1.1" id="Layer_1" xmlns="http://www.w3.org/2000/svg" xmlns:xlink="http://www.w3.org/1999/xlink" x="0px" y="0px"
 width="144px" height="124px" viewBox="0 0 144 124" enable-background="new 0 0 144 124" xml:space="preserve">
<linearGradient id="SVGID_1_" gradientUnits="userSpaceOnUse" x1="2" y1="1051.5" x2="38" y2="1051.5" gradientTransform="matrix(1 0 0 1 0 -954)">
 <stop  offset="0" style="stop-color:#3C4043;stop-opacity:0.2"/>
 <stop  offset="0.9957" style="stop-color:#576368;stop-opacity:0.8"/>
</linearGradient>
<path fill="url(#SVGID_1_)" d="M38,96H2v3h36V96z"/>
<linearGradient id="SVGID_00000155140071086472442480000017233893484630954395_" gradientUnits="userSpaceOnUse" x1="144" y1="1051.5" x2="38" y2="1051.5" gradientTransform="matrix(1 0 0 1 0 -954)">
 <stop  offset="0" style="stop-color:#3C4043;stop-opacity:0.2"/>
 <stop  offset="0.9957" style="stop-color:#576368;stop-opacity:0.8"/>
</linearGradient>
<path fill="url(#SVGID_00000155140071086472442480000017233893484630954395_)" d="M38,99h106v-3H38V99z"/>
<path fill="#81C995" d="M59.37,67.99c-8.24,0-15.41-4.62-19.05-11.41H27.4c-8.44,0-15.29,6.84-15.29,15.29
 c0,8.44,6.84,15.29,15.29,15.29h4.7l6.88,9.26l6.88-9.26h31.57c8.44,0,15.29-6.84,15.29-15.29c0-1.34-0.19-2.64-0.51-3.87H59.37
 V67.99z"/>
<linearGradient id="SVGID_00000048478699480857741580000006995373100046674574_" gradientUnits="userSpaceOnUse" x1="43.2984" y1="986.8124" x2="84.6218" y2="1034.1001" gradientTransform="matrix(1 0 0 1 0 -954)">
 <stop  offset="0" style="stop-color:#4F4F4F"/>
 <stop  offset="0.1531" style="stop-color:#424343;stop-opacity:0.7477"/>
 <stop  offset="1" style="stop-color:#202124;stop-opacity:0"/>
</linearGradient>
<path fill="url(#SVGID_00000048478699480857741580000006995373100046674574_)" d="M92.21,67.99c0,0-31.83-0.02-33.28,0
 c-1.45,0.01-3.35-0.33-3.35-0.33l36.19,9.53c0.62-1.66,0.98-3.66,0.95-5.32C92.69,70.16,92.58,69.59,92.21,67.99z"/>
<linearGradient id="SVGID_00000171694220935539822600000004685677004770719920_" gradientUnits="userSpaceOnUse" x1="92.8825" y1="1030.8243" x2="76.2061" y2="971.067" gradientTransform="matrix(1 0 0 1 0 -954)">
 <stop  offset="0" style="stop-color:#5F6368"/>
 <stop  offset="1" style="stop-color:#80868B"/>
</linearGradient>
<path fill-rule="evenodd" clip-rule="evenodd" fill="url(#SVGID_00000171694220935539822600000004685677004770719920_)" d="
 M59.37,28.78c-9.72,0-17.6,7.88-17.6,17.6s7.88,17.6,17.6,17.6h38.52l6.88,9.26l6.99-9.42c8.6-1.15,15.24-8.52,15.24-17.45
 c0-9.72-7.88-17.6-17.6-17.6H59.37V28.78z"/>
<path fill="#202124" d="M80.95,50.64V49.6c0-0.5,0.05-0.98,0.16-1.41s0.28-0.85,0.5-1.25s0.53-0.8,0.91-1.2
 c0.38-0.4,0.84-0.83,1.41-1.3c0.58-0.5,1.03-0.97,1.36-1.39c0.32-0.42,0.48-0.94,0.48-1.55c0-0.63-0.24-1.19-0.73-1.68
 c-0.48-0.48-1.15-0.73-1.99-0.73c-0.45,0-0.86,0.07-1.23,0.22s-0.69,0.35-0.97,0.6s-0.51,0.54-0.69,0.85
 c-0.18,0.32-0.32,0.64-0.4,0.98l-3.72-1.52c0.17-0.59,0.45-1.18,0.83-1.77c0.38-0.59,0.85-1.12,1.42-1.6
 c0.57-0.47,1.24-0.86,2.02-1.16s1.65-0.44,2.62-0.44c1.03,0,1.98,0.15,2.84,0.46s1.6,0.73,2.21,1.27c0.62,0.54,1.09,1.18,1.44,1.92
 c0.34,0.74,0.52,1.53,0.52,2.37c0,0.61-0.08,1.16-0.22,1.65c-0.15,0.48-0.36,0.94-0.62,1.36c-0.26,0.42-0.56,0.82-0.91,1.19
 c-0.34,0.37-0.71,0.73-1.1,1.09c-0.37,0.34-0.68,0.64-0.92,0.92c-0.25,0.28-0.44,0.54-0.58,0.81s-0.24,0.54-0.31,0.84
 c-0.07,0.29-0.1,0.63-0.1,1.01v0.5L80.95,50.64L80.95,50.64z M83.02,58.43c-0.78,0-1.43-0.27-1.97-0.81s-0.81-1.19-0.81-1.95
 s0.27-1.4,0.81-1.93s1.2-0.79,1.97-0.79c0.78,0,1.44,0.27,1.99,0.79c0.55,0.53,0.83,1.17,0.83,1.93c0,0.76-0.28,1.41-0.83,1.95
 C84.46,58.16,83.8,58.43,83.02,58.43z"/>
<path fill="#8AB4F8" d="M124.06,76.53c0.32-0.87,1.55-0.87,1.88,0L127,79.4c0.1,0.27,0.32,0.49,0.59,0.59l2.87,1.06
 c0.87,0.32,0.87,1.55,0,1.88L127.59,84c-0.27,0.1-0.49,0.32-0.59,0.59l-1.06,2.87c-0.32,0.87-1.55,0.87-1.88,0L123,84.59
 c-0.1-0.27-0.32-0.49-0.59-0.59l-2.87-1.06c-0.87-0.32-0.87-1.55,0-1.88l2.87-1.06c0.27-0.1,0.49-0.32,0.59-0.59L124.06,76.53z"/>
<path fill="#FDD663" d="M11.12,30.07c0.64-1.74,3.11-1.74,3.75,0l1.32,3.56c0.2,0.55,0.63,0.98,1.18,1.18l3.56,1.32
 c1.74,0.64,1.74,3.11,0,3.75l-3.56,1.32c-0.55,0.2-0.98,0.63-1.18,1.18l-1.32,3.56c-0.64,1.74-3.11,1.74-3.75,0L9.8,42.38
 c-0.2-0.55-0.63-0.98-1.18-1.18l-3.56-1.32c-1.74-0.64-1.74-3.11,0-3.75l3.56-1.32c0.55-0.2,0.98-0.63,1.18-1.18L11.12,30.07z"/>
</svg>
