<?xml version="1.0" encoding="utf-8"?>
<!-- Generator: Adobe Illustrator 23.0.4, SVG Export Plug-In . SVG Version: 6.00 Build 0)  -->
<svg version="1.1" id="Layer_1" xmlns="http://www.w3.org/2000/svg" xmlns:xlink="http://www.w3.org/1999/xlink" x="0px" y="0px"
	 width="36px" height="36px" viewBox="0 0 36 36" enable-background="new 0 0 36 36" xml:space="preserve">
<path d="M25.95,27c-2.1-1.8-4.8-3-7.95-3s-5.85,1.2-7.95,3C7.65,24.75,6,21.6,6,18c0-6.6,5.4-12,12-12s12,5.4,12,12
	C30,21.6,28.35,24.75,25.95,27z M18,3C9.75,3,3,9.75,3,18s6.75,15,15,15s15-6.75,15-15S26.25,3,18,3z M25.5,13.5
	c-0.9,0-1.5,0.6-1.5,1.5s0.6,1.5,1.5,1.5S27,15.9,27,15S26.4,13.5,25.5,13.5z M16.5,10.5C16.5,9.6,15.9,9,15,9s-1.5,0.6-1.5,1.5
	S14.1,12,15,12S16.5,11.4,16.5,10.5z M10.5,13.5C9.6,13.5,9,14.1,9,15s0.6,1.5,1.5,1.5S12,15.9,12,15S11.4,13.5,10.5,13.5z
	 M21.6,9.15c-0.75-0.3-1.65,0-1.95,0.9L17.55,15c-1.5,0.15-2.55,1.5-2.55,3c0,1.65,1.35,3,3,3s3-1.35,3-3c0-0.75-0.3-1.35-0.6-1.8
	l2.1-5.1C22.65,10.35,22.35,9.45,21.6,9.15z"/>
</svg>
