<svg xmlns="http://www.w3.org/2000/svg" width="120" height="120" viewBox="0 0 120 120"><linearGradient id="a" gradientUnits="userSpaceOnUse" x1="-1115.0989" y1="-2504.2671" x2="-1086.1028" y2="-2504.2671" gradientTransform="rotate(180 -498.7694 -1217.5222)"><stop offset="0" style="stop-color:#FFFFFF;stop-opacity:0"/><stop offset=".2932" style="stop-color:#B8B9BB;stop-opacity:0.0352"/><stop offset=".6347" style="stop-color:#6C6E72;stop-opacity:0.0762"/><stop offset=".879" style="stop-color:#3B3F45;stop-opacity:0.1055"/><stop offset="1" style="stop-color:#292D33;stop-opacity:0.12"/></linearGradient><path fill="url(#a)" d="M117.57 108.71h-29V29.73h29z"/><linearGradient id="b" gradientUnits="userSpaceOnUse" x1="-1057.5225" y1="-2504.2671" x2="-1028.939" y2="-2504.2671" gradientTransform="rotate(180 -498.7694 -1217.5222)"><stop offset="0" style="stop-color:#FFFFFF;stop-opacity:0"/><stop offset=".1205" style="stop-color:#EDEDEE;stop-opacity:0.0145"/><stop offset=".3633" style="stop-color:#BDBEC0;stop-opacity:0.0436"/><stop offset=".7025" style="stop-color:#717478;stop-opacity:0.0843"/><stop offset="1" style="stop-color:#292D33;stop-opacity:0.12"/></linearGradient><path fill="url(#b)" d="M59.99 108.71H31.41V29.73h28.58z"/><linearGradient id="c" gradientUnits="userSpaceOnUse" x1="-2" y1="69.2228" x2="30.6345" y2="69.2228"><stop offset="0" style="stop-color:#FFFFFF;stop-opacity:0"/><stop offset=".099" style="stop-color:#CFD0D2;stop-opacity:0.0119"/><stop offset=".2065" style="stop-color:#A4A5A8;stop-opacity:0.0248"/><stop offset=".3191" style="stop-color:#7E8084;stop-opacity:0.0383"/><stop offset=".4354" style="stop-color:#5F6266;stop-opacity:0.0522"/><stop offset=".5567" style="stop-color:#474B50;stop-opacity:0.0668"/><stop offset=".6851" style="stop-color:#363A40;stop-opacity:0.0822"/><stop offset=".8254" style="stop-color:#2C3036;stop-opacity:0.099"/><stop offset="1" style="stop-color:#292D33;stop-opacity:0.12"/></linearGradient><path fill="url(#c)" d="M-2 29.73h32.63v78.98H-2z"/><linearGradient id="d" gradientUnits="userSpaceOnUse" x1="59.5749" y1="69.2228" x2="88.5712" y2="69.2228"><stop offset="0" style="stop-color:#FFFFFF;stop-opacity:0"/><stop offset=".099" style="stop-color:#CFD0D2;stop-opacity:0.0119"/><stop offset=".2065" style="stop-color:#A4A5A8;stop-opacity:0.0248"/><stop offset=".3191" style="stop-color:#7E8084;stop-opacity:0.0383"/><stop offset=".4354" style="stop-color:#5F6266;stop-opacity:0.0522"/><stop offset=".5567" style="stop-color:#474B50;stop-opacity:0.0668"/><stop offset=".6851" style="stop-color:#363A40;stop-opacity:0.0822"/><stop offset=".8254" style="stop-color:#2C3036;stop-opacity:0.099"/><stop offset="1" style="stop-color:#292D33;stop-opacity:0.12"/></linearGradient><path fill="url(#d)" d="M59.57 29.73h29v78.98h-29z"/><path fill="#EFF0F2" d="M31.08 108.71l-29.03-7.06V22.5l29.03 7.07z"/><path fill="#DFE1E5" d="M60.06 101.65l-29.04 7.06V29.57l29.04-7.07z"/><path fill="#EFF0F2" d="M89.03 108.71L60 101.65V22.5l29.03 7.07z"/><path fill="#DFE1E5" d="M118 101.65l-29.03 7.06V29.57L118 22.5z"/><g><path fill="#DF382B" d="M71.63 39.74c-1.74-6.34-8.12-10.14-14.72-8.8-7.95 1.61-12.22 10.32-8.52 17.43.75 1.44 1.58 2.84 2.43 4.22 1.06 1.72 2.2 3.39 3.27 5.11 2.29 3.68 4.11 7.58 5.1 11.82.11.46.22.93.34 1.4.59-1.92 1.09-3.8 1.74-5.63 1.35-3.76 3.46-7.13 5.61-10.48 1.31-2.05 2.56-4.14 3.74-6.27 1.53-2.77 1.86-5.74 1.01-8.8z"/><circle fill="#90130E" cx="59.54" cy="42.32" r="4.48"/></g><g fill="none" stroke-width="4.1739" stroke-miterlimit="10"><path stroke="#90130E" d="M38.13 20.95c5.42-5.94 13.22-9.66 21.89-9.66s16.47 3.73 21.89 9.66"/><path stroke="#4285F4" d="M81.91 20.95c-5.42-5.94-13.22-9.66-21.89-9.66s-16.47 3.73-21.89 9.66M45.62 28.44c3.5-4.03 8.65-6.59 14.4-6.59s10.9 2.56 14.4 6.59"/></g></svg>