<svg width="232" height="132" fill="none" xmlns="http://www.w3.org/2000/svg"><path d="M219.42 0C226.37 0 232 5.63 232 12.58v106.84c0 6.95-5.63 12.58-12.58 12.58H12.58C5.63 132 0 126.37 0 119.42V12.58C0 5.63 5.63 0 12.58 0" fill="#F8FBFF"/><path d="M209.85 22.1c-12.19 0-22.09-9.88-22.09-22.09L151.8 0c0 32.06 25.99 58.06 58.06 58.06M86.85 24.72C81.25 14.03 71.59 5.81 59.92 2.13h-.01C55.53.75 50.88 0 46.04 0 31.88 0 19.22 6.4 10.77 16.46 4.05 24.47 0 34.79 0 46.05c0 8.67 1.75 15.69 4.62 22 4.82 10.56 12.8 19.04 21.01 29.67 2.66 3.46 5.36 7.12 7.97 11.17C42.94 123.36 40.15 132 46.05 132c6.05 0 3.36-8.64 12.69-23.11C74.2 84.94 92.11 74.02 92.11 46.07c-.02-7.73-1.92-14.98-5.26-21.35zM133.96 110.3c15.779 0 28.57-12.7913 28.57-28.5701s-12.791-28.57-28.57-28.57-28.57 12.7912-28.57 28.57S118.181 110.3 133.96 110.3zM211.74 127.48c0-5.31 1.81-10.18 4.85-14.04l.04-.04c.15-.18.27-.37.42-.55.07-.09.18-.18.26-.29l.22-.26c3.65-4.1 8.74-6.87 14.47-7.52V67.52c-31.95 1.36-57.43 27.67-57.43 59.95 0 1.52.08 3.03.19 4.53h37.44c-.3-1.46-.46-2.97-.46-4.52z" fill="#F0F6FF"/></svg>