<svg width="104" height="177" viewBox="0 0 104 177" fill="none" xmlns="http://www.w3.org/2000/svg"><path opacity="0.5" d="M0 88.4406C0 137.297 39.5577 177 88.5 177C137.323 177 177 137.297 177 88.4406C177 59.9114 163.577 34.5917 142.55 18.3063C142.432 18.1874 142.313 18.0685 142.194 18.0685C141.362 17.4741 140.531 16.7609 139.581 16.1666C139.343 15.9288 139.105 15.8099 138.749 15.5722C137.917 14.9778 137.205 14.5024 136.373 14.0269C136.017 13.7891 135.66 13.5514 135.304 13.3136C134.591 12.8381 133.76 12.3627 133.047 11.8872C132.572 11.6494 132.215 11.4117 131.74 11.174C131.028 10.8173 130.315 10.3419 129.602 9.98524C129.127 9.74749 128.652 9.50973 128.058 9.15312C127.345 8.7965 126.632 8.4399 125.919 8.08328C125.326 7.84554 124.85 7.60779 124.256 7.37004C123.544 7.01343 122.831 6.7757 122.118 6.41908C121.524 6.18134 120.93 5.94359 120.336 5.70585C119.624 5.4681 119.03 5.23035 118.317 4.99261C117.604 4.75487 117.01 4.51713 116.297 4.27939C115.585 4.04165 114.991 3.8039 114.278 3.68503C113.565 3.44729 112.852 3.32842 112.14 3.09067C111.546 2.9718 110.833 2.73405 110.239 2.61517C109.526 2.37743 108.695 2.25856 107.863 2.02082C107.269 1.90194 106.675 1.78309 106.081 1.66421C105.25 1.54534 104.299 1.30759 103.468 1.18872C102.993 1.06985 102.399 0.950977 101.924 0.950977C100.617 0.713234 99.3101 0.59437 98.0034 0.475498C97.8846 0.475498 97.7658 0.475498 97.647 0.475498C94.6772 0.237754 91.7074 0 88.6188 0C87.0745 0 85.5302 7.25358e-06 84.1047 0.118879C37.1819 2.37744 0 41.1296 0 88.4406ZM88.5 54.5621C107.15 54.5621 122.356 69.7777 122.356 88.4406C122.356 107.103 107.15 122.319 88.5 122.319C69.8497 122.319 54.6443 107.103 54.6443 88.4406C54.6443 69.7777 69.8497 54.5621 88.5 54.5621Z" fill="#E8F0FE"/></svg>
