<svg xmlns="http://www.w3.org/2000/svg" xml:space="preserve" width="320" height="150"><ellipse cx="223.21" cy="118.32" fill="#DADCE0" rx="9.25" ry="9.54"/><linearGradient id="a" x1="244.311" x2="225.333" y1="93.474" y2="126.213" gradientUnits="userSpaceOnUse"><stop offset="0" style="stop-color:#202124"/><stop offset="1" style="stop-color:#202124;stop-opacity:0"/></linearGradient><path fill="url(#a)" d="M232.46,118.32c0-0.17-0.02-0.33-0.02-0.49c-0.1-0.33-0.17-0.54-0.17-0.54l-11.72,10.17 c0.85,0.26,1.74,0.41,2.68,0.41C228.32,127.86,232.46,123.59,232.46,118.32z"/><path fill="none" stroke="#70757A" stroke-linecap="round" stroke-miterlimit="10" stroke-width=".5" d="M222.84 118.01 222.84 132.28M225.07 120.28 222.87 122.47"/><path fill="#DADCE0" fill-rule="evenodd" d="M123.98,37.1c0.05-1.26,0.08-2.55,0.08-3.87	c0-15.38-3.57-27.86-7.97-27.86c-1.07,0-2.1,0.74-3.03,2.09c-1.81-3.74-4.06-5.97-6.51-5.97c-5.94,0-10.75,13.08-10.75,29.22	c0,2.19,0.09,4.33,0.26,6.38H123.98z" clip-rule="evenodd"/><radialGradient id="b" cx="123.054" cy="-14.647" r="50.564" gradientUnits="userSpaceOnUse"><stop offset="0" style="stop-color:#FFFFFF"/><stop offset="1" style="stop-color:#FFFFFF;stop-opacity:0"/></radialGradient><path fill="url(#b)" fill-rule="evenodd" d="M123.98,37.1c0.05-1.26,0.08-2.55,0.08-3.87	c0-15.38-3.57-27.86-7.97-27.86c-1.07,0-2.1,0.74-3.03,2.09c-1.81-3.74-4.06-5.97-6.51-5.97c-5.94,0-10.75,13.08-10.75,29.22	c0,2.19,0.09,4.33,0.26,6.38H123.98z" clip-rule="evenodd"/><path fill="none" stroke="#70757A" stroke-linecap="round" stroke-miterlimit="10" stroke-width=".5" d="M110.73 42.76 110.73 26.69M108.11 29.39 110.73 32.93" clip-rule="evenodd"/><g fill="#FFF"><path d="m122.36 13.92.09-.49c-.28-.05-.55-.13-.82-.2.05.18.11.37.16.55C121.98 13.83 122.16 13.88 122.36 13.92zM98.93 10.09c-.07.2-.14.4-.21.6 3.45 5.52 11.52 15.47 25.13 16.19-.01-.17-.02-.34-.03-.5C110.18 25.64 102.2 15.44 98.93 10.09zM95.83 28.6c-.01.25-.01.5-.02.76 2.09 2.47 5.45 5.58 10.31 7.75h1.28C101.74 34.85 97.99 31.25 95.83 28.6zM121.79 13.79c-.05-.19-.11-.37-.16-.55-4.92-1.28-7.46-5.02-8.19-6.29-.11.14-.23.29-.34.44C114.07 9.02 116.89 12.62 121.79 13.79z"/></g><path fill="#DADCE0" d="M134.43,45.54c0.22-1.41-0.38-2.73-1.54-3.55c-1.2-0.85-2.79-0.93-4.08-0.2c-0.08-0.24-0.73-1.96-2.6-2.64 c-2.07-0.75-3.81,0.43-3.97,0.55c-1.69-1.61-4.16-2.01-6.16-1.03c-1.72,0.84-2.85,2.6-2.98,4.56c-0.92-1.14-2.33-1.7-3.69-1.45 c-1.45,0.27-2.24,1.36-2.41,1.61c-0.14-0.07-1.46-0.74-2.87-0.05c-1.36,0.66-1.68,2.03-1.72,2.2H134.43z"/><linearGradient id="c" x1="93.52" x2="123.846" y1="98.313" y2="33.943" gradientUnits="userSpaceOnUse"><stop offset="0" style="stop-color:#202124"/><stop offset="1" style="stop-color:#202124;stop-opacity:0"/></linearGradient><path fill="url(#c)" d="M134.43,45.54c0.22-1.41-0.38-2.73-1.54-3.55c-1.2-0.85-2.79-0.93-4.08-0.2 c-0.08-0.24-0.73-1.96-2.6-2.64c-2.07-0.75-3.81,0.43-3.97,0.55c-1.69-1.61-4.16-2.01-6.16-1.03c-1.72,0.84-2.85,2.6-2.98,4.56 c-0.92-1.14-2.33-1.7-3.69-1.45c-1.45,0.27-2.24,1.36-2.41,1.61c-0.14-0.07-1.46-0.74-2.87-0.05c-1.36,0.66-1.68,2.03-1.72,2.2 H134.43z"/><path fill="none" stroke="#70757A" stroke-miterlimit="10" stroke-width=".5" d="M179.29 48.38 179.29 98.88"/><path fill="#DADCE0" d="M220.14,101.32c0.39-2.55-0.76-4.88-2.85-6.37c-2.16-1.54-5.03-1.68-7.35-0.36 c-0.15-0.43-1.32-3.53-4.7-4.75c-3.73-1.35-6.87,0.78-7.16,0.99c-3.04-2.9-7.5-3.62-11.11-1.85c-3.1,1.52-5.15,4.68-5.37,8.23 c-1.65-2.05-4.21-3.06-6.65-2.61c-2.62,0.49-4.04,2.46-4.34,2.9c-0.25-0.13-2.62-1.33-5.17-0.09c-2.46,1.19-3.01,3.63-3.07,3.92 H220.14z"/><linearGradient id="d" x1="171.365" x2="193.539" y1="179.445" y2="92.314" gradientUnits="userSpaceOnUse"><stop offset="0" style="stop-color:#202124"/><stop offset="1" style="stop-color:#202124;stop-opacity:0"/></linearGradient><path fill="url(#d)" d="M220.14,101.32c0.39-2.55-0.76-4.88-2.85-6.37c-2.16-1.54-5.03-1.68-7.35-0.36 c-0.15-0.43-1.32-3.53-4.7-4.75c-3.73-1.35-6.87,0.78-7.16,0.99c-3.04-2.9-7.5-3.62-11.11-1.85c-3.1,1.52-5.15,4.68-5.37,8.23 c-1.65-2.05-4.21-3.06-6.65-2.61c-2.62,0.49-4.04,2.46-4.34,2.9c-0.25-0.13-2.62-1.33-5.17-0.09c-2.46,1.19-3.01,3.63-3.07,3.92 H220.14z"/><linearGradient id="e" x1="278.966" x2="223.988" y1="33.119" y2="35.075" gradientUnits="userSpaceOnUse"><stop offset="0" style="stop-color:#4285F4;stop-opacity:0"/><stop offset="1" style="stop-color:#4285F4"/></linearGradient><path fill="url(#e)" d="M202.03,32.04l-1.19,6.55c-0.61,3.37,1.4,6.61,4.61,7.62l-16.64,6.8c-1.66,0.67-2.65,2.4-2.39,4.18 c0.28,1.97,2.04,3.42,4.03,3.33l37.73-1.69c10.93-1.05,18.07-8.97,18.07-8.97l34.11-2.01l-2.87-38.92l-65.6,4.25 c-5.76,0.37-11.15,3.07-14.89,7.46l-21.38,25.04c-1.28,1.51-1.14,3.77,0.31,5.12c1.4,1.29,3.56,1.33,4.98,0.04l20.06-17.93 L202.03,32.04z"/><g fill="#FFF"><path d="M197.79,58.28c-0.18-1.1-1.13-1.89-2.22-1.89c-0.04,0-0.08,0-0.12,0l-4.34,0.19 c-0.65,0.03-1.26,0.34-1.67,0.84c-0.41,0.51-0.58,1.17-0.47,1.82c0.08,0.45,0.3,0.87,0.63,1.2c0.28,0.05,0.56,0.08,0.86,0.07 l0.5-0.02l-0.29-0.1c-0.56-0.2-0.96-0.68-1.06-1.25c-0.08-0.47,0.05-0.94,0.34-1.31c0.29-0.36,0.73-0.58,1.19-0.6l4.34-0.19 c0.03,0,0.06,0,0.08,0c0.77,0,1.45,0.58,1.58,1.35c0.08,0.47-0.05,0.94-0.34,1.31c-0.15,0.19-0.35,0.34-0.59,0.45l-0.28,0.13 l1.27-0.06c0.04-0.04,0.07-0.07,0.11-0.11C197.73,59.59,197.9,58.93,197.79,58.28z"/><path d="M197.79 58.28c-.18-1.1-1.13-1.89-2.22-1.89-.04 0-.08 0-.12 0l-4.34.19c-.65.03-1.26.34-1.67.84-.41.51-.58 1.17-.47 1.82.08.45.3.87.63 1.2.28.05.56.08.86.07l.5-.02-.29-.1c-.56-.2-.96-.68-1.06-1.25-.08-.47.05-.94.34-1.31.29-.36.73-.58 1.19-.6l4.34-.19c.03 0 .06 0 .08 0 .77 0 1.45.58 1.58 1.35.08.47-.05.94-.34 1.31-.15.19-.35.34-.59.45l-.28.13 1.27-.06c.04-.04.07-.07.11-.11C197.73 59.59 197.9 58.93 197.79 58.28zM177.33 47.87c.48 0 .96-.17 1.34-.5.05-.04.1-.09.14-.13l3.1-3.28c.39-.4.59-.93.57-1.48-.02-.54-.24-1.04-.64-1.4l-.2-.2c-.38-.37-.88-.57-1.42-.57-.01 0-.02 0-.03 0l-.72.84.22-.09c.15-.06.3-.09.45-.1.41-.02.76.12 1.03.38l.21.21c.27.25.42.58.43.95.01.38-.13.74-.39 1.01l-3.1 3.28c-.52.54-1.39.57-1.94.07-.41-.37-.56-.95-.39-1.48l.09-.29-.49.58c-.11.13-.2.28-.29.43.06.48.28.92.64 1.25C176.35 47.7 176.84 47.87 177.33 47.87z"/><path d="M177.33,47.87c0.48,0,0.96-0.17,1.34-0.5c0.05-0.04,0.1-0.09,0.14-0.13l3.1-3.28 c0.39-0.4,0.59-0.93,0.57-1.48c-0.02-0.54-0.24-1.04-0.64-1.4l-0.2-0.2c-0.38-0.37-0.88-0.57-1.42-0.57c-0.01,0-0.02,0-0.03,0 l-0.72,0.84l0.22-0.09c0.15-0.06,0.3-0.09,0.45-0.1c0.41-0.02,0.76,0.12,1.03,0.38l0.21,0.21c0.27,0.25,0.42,0.58,0.43,0.95 c0.01,0.38-0.13,0.74-0.39,1.01l-3.1,3.28c-0.52,0.54-1.39,0.57-1.94,0.07c-0.41-0.37-0.56-0.95-0.39-1.48l0.09-0.29l-0.49,0.58 c-0.11,0.13-0.2,0.28-0.29,0.43c0.06,0.48,0.28,0.92,0.64,1.25C176.35,47.7,176.84,47.87,177.33,47.87z"/></g><linearGradient id="f" x1="91.084" x2="57.892" y1="-98.704" y2="-76.72" gradientTransform="rotate(-40.767 315.4 -201.665)" gradientUnits="userSpaceOnUse"><stop offset="0" style="stop-color:#202124"/><stop offset="1" style="stop-color:#DADCE0;stop-opacity:0"/></linearGradient><path fill="url(#f)" d="M214.75,41.05c1.46-1.61,2.66-3.8,1.61-6.1c-1.98-4.29-8.92-6.77-14.33-2.92l-1.19,6.55 c-0.61,3.38,1.4,6.62,4.62,7.62l4.53-1.84C211.78,43.61,213.43,42.49,214.75,41.05z"/><path fill="#FBBC04" d="M186.42,57.19c-0.14-0.95,0.09-1.88,0.57-2.64l-3.66-3.66h-2.49h-4.79h-1.2l-6,6v8.48l6,6h8.48l6-6v-4.98	C187.83,60,186.64,58.77,186.42,57.19z"/><linearGradient id="g" x1="187.773" x2="181.903" y1="5.999" y2="70.369" gradientUnits="userSpaceOnUse"><stop offset="0" style="stop-color:#202124"/><stop offset="1" style="stop-color:#202124;stop-opacity:0"/></linearGradient><path fill="url(#g)" d="M186.42,57.19c-0.14-0.95,0.09-1.88,0.57-2.64l-12.14,16.81h8.48l6-6v-4.98 C187.83,60,186.64,58.77,186.42,57.19z"/><path fill="#DADCE0" d="M104.63 121.95 98.59 118.67 98.59 106.03 98.61 106.03 87.2 93.08 52.63 93.14 42.07 106 42.07 127.95 104.63 127.93z"/><linearGradient id="h" x1="53.386" x2="52.995" y1="89.045" y2="128.581" gradientUnits="userSpaceOnUse"><stop offset="0" style="stop-color:#202124"/><stop offset="1" style="stop-color:#202124;stop-opacity:0"/></linearGradient><path fill="url(#h)" d="M61.31 127.94 42.07 127.95 42.07 106.12 64.37 106.12 64.05 107.46"/><path fill="#EA4335" d="M37.94 120.45 60.95 120.45 64.37 106.12 42.07 106.12z"/><g fill="#FFF"><path d="M98.58 105.98H73c-.01-.01 0-.03-.01-.04L63.73 95.8c-.09-.1-.25-.11-.35-.02-.1.09-.11.25-.02.35l8.99 9.85h-7.87L52.96 93.14l-.33 0-.16.2 11.59 12.94v21.67l.5 0v-21.45h34.03v-.46h.03L98.58 105.98zM78.41 99.64c.06 0 .12-.02.17-.07.1-.09.1-.25.01-.35l-5.83-6.11-.69 0 6.16 6.46C78.28 99.61 78.34 99.64 78.41 99.64zM90.79 103.56c.05.06.12.09.19.09.06 0 .12-.02.16-.06.1-.09.12-.25.03-.35l-4.01-4.66c-.09-.1-.25-.12-.35-.03-.1.09-.12.25-.03.35L90.79 103.56z"/><path d="M84.25,110.17h-17.3v17.76l0.5,0v-17.26h9.54v17.26l0.5,0v-17.26H84l0.06,8.64c0,0.14,0.11,0.25,0.25,0.25 c0,0,0,0,0,0c0.14,0,0.25-0.11,0.25-0.25l-0.06-8.63h6.93v8.7c0,0.14,0.11,0.25,0.25,0.25s0.25-0.11,0.25-0.25v-8.7h6.65v-0.5 H84.25L84.25,110.17z"/><path d="M82.71 121.44c-.14 0-.25.11-.25.25v6.24l.5 0v-6.24C82.96 121.55 82.85 121.44 82.71 121.44zM94.22 121.83c-.14 0-.25.11-.25.25v5.85l.5 0v-5.85C94.47 121.94 94.36 121.83 94.22 121.83z"/></g><path fill="none" d="M61.6 106.12 57.83 120.45 60.95 120.45 64.37 106.12z"/><path fill="#FFF" d="M45.16 106.12 41.39 120.45 41.9 120.45 45.67 106.12zM49.22 106.12 45.45 120.45 45.97 120.45 49.74 106.12zM52.94 106.12 49.17 120.45 49.69 120.45 53.46 106.12zM57.07 106.12 53.3 120.45 53.82 120.45 57.59 106.12zM61.08 106.12 57.31 120.45 57.83 120.45 61.6 106.12z"/><path fill="#E8EAED" fill-rule="evenodd" d="M49.51,127.95H21.41c0,0,2.25-6.03,8.92-3.59	c0,0,2.17-3.4,5.7-3.21c3.48,0.18,4.5,3.59,4.5,3.59S47.02,121.71,49.51,127.95z" clip-rule="evenodd"/><linearGradient id="i" x1="63.02" x2="63.02" y1="33.988" y2="144.482" gradientUnits="userSpaceOnUse"><stop offset="0" style="stop-color:#202124"/><stop offset="1" style="stop-color:#202124;stop-opacity:0"/></linearGradient><path fill="url(#i)" fill-rule="evenodd" d="M95.58,132.73l-4.13,6.52h0.03l-15.64,6.67l-34.55-0.03	l-6.2-6.46l0.01-0.44l0.53-7.18h4.01l1.22-1.92c-0.82-0.11-1.32-0.25-1.32-0.25s-2.13,1.75-5.67,1.85c-3.59,0.1-4.65-1.66-4.65-1.66	c-7.46,1.26-7.82-1.88-7.82-1.88l20.66,0l0,0l0,0l62.57-0.02l-1.94,3.12L95.58,132.73z" clip-rule="evenodd"/><linearGradient id="j" x1="116.63" x2="162.935" y1="100.404" y2="143.057" gradientUnits="userSpaceOnUse"><stop offset="0" style="stop-color:#E8EAED"/><stop offset="1" style="stop-color:#E8EAED;stop-opacity:0"/></linearGradient><path fill="url(#j)" d="M161.1 147.44 45.57 35.67 49.05 32.08 168.29 147.44z"/><linearGradient id="k" x1="75.982" x2="142.251" y1="57.809" y2="57.809" gradientUnits="userSpaceOnUse"><stop offset="0" style="stop-color:#E8EAED"/><stop offset="1" style="stop-color:#E8EAED;stop-opacity:0"/></linearGradient><path fill="url(#k)" d="M153.44 60.31 78.23 60.31 73.06 55.31 141.71 55.31z"/><linearGradient id="l" x1="120.616" x2="260.336" y1="103.817" y2="103.817" gradientUnits="userSpaceOnUse"><stop offset="0" style="stop-color:#DCDEE1"/><stop offset="1" style="stop-color:#E8EAED;stop-opacity:0"/></linearGradient><path fill="url(#l)" d="M260.34 106.32 125.78 106.32 120.62 101.32 260.34 101.32z"/><g fill="#FFF"><path d="M62.76 49.29c-.13 0-.25-.05-.35-.14l-1.08-1.04c-.2-.19-.2-.51-.01-.71.19-.2.51-.2.71-.01l1.08 1.04c.2.19.2.51.01.71C63.02 49.24 62.89 49.29 62.76 49.29zM172.81 104.32h-3.01c-.28 0-.5-.22-.5-.5s.22-.5.5-.5h3.01c.28 0 .5.22.5.5S173.08 104.32 172.81 104.32zM166.79 104.32h-3.01c-.28 0-.5-.22-.5-.5s.22-.5.5-.5h3.01c.28 0 .5.22.5.5S167.07 104.32 166.79 104.32zM160.78 104.32h-3.01c-.28 0-.5-.22-.5-.5s.22-.5.5-.5h3.01c.28 0 .5.22.5.5S161.05 104.32 160.78 104.32zM154.76 104.32h-3.01c-.28 0-.5-.22-.5-.5s.22-.5.5-.5h3.01c.28 0 .5.22.5.5S155.04 104.32 154.76 104.32zM148.75 104.32h-3.01c-.28 0-.5-.22-.5-.5s.22-.5.5-.5h3.01c.28 0 .5.22.5.5S149.02 104.32 148.75 104.32zM142.73 104.32h-3.01c-.28 0-.5-.22-.5-.5s.22-.5.5-.5h3.01c.28 0 .5.22.5.5S143.01 104.32 142.73 104.32zM136.72 104.32h-3.01c-.28 0-.5-.22-.5-.5s.22-.5.5-.5h3.01c.28 0 .5.22.5.5S136.99 104.32 136.72 104.32zM130.7 104.32h-3.01c-.28 0-.5-.22-.5-.5s.22-.5.5-.5h3.01c.28 0 .5.22.5.5S130.98 104.32 130.7 104.32zM124.69 104.32h-3.01c-.28 0-.5-.22-.5-.5s.22-.5.5-.5h3.01c.28 0 .5.22.5.5S124.96 104.32 124.69 104.32zM118.91 103.72c-.13 0-.25-.05-.35-.14l-2.16-2.09c-.2-.19-.2-.51-.01-.71.19-.2.51-.2.71-.01l2.16 2.09c.2.19.2.51.01.71C119.17 103.67 119.04 103.72 118.91 103.72zM114.59 99.53c-.13 0-.25-.05-.35-.14l-2.16-2.09c-.2-.19-.2-.51-.01-.71.19-.2.51-.2.71-.01l2.16 2.09c.2.19.2.51.01.71C114.85 99.48 114.72 99.53 114.59 99.53zM110.27 95.34c-.13 0-.25-.05-.35-.14l-2.16-2.09c-.2-.19-.2-.51-.01-.71.19-.2.51-.2.71-.01l2.16 2.09c.2.19.2.51.01.71C110.54 95.29 110.4 95.34 110.27 95.34zM105.96 91.16c-.13 0-.25-.05-.35-.14l-2.16-2.09c-.2-.19-.2-.51-.01-.71.19-.2.51-.2.71-.01l2.16 2.09c.2.19.2.51.01.71C106.22 91.11 106.09 91.16 105.96 91.16zM101.64 86.97c-.13 0-.25-.05-.35-.14l-2.16-2.09c-.2-.19-.2-.51-.01-.71.19-.2.51-.2.71-.01l2.16 2.09c.2.19.2.51.01.71C101.9 86.92 101.77 86.97 101.64 86.97zM97.32 82.79c-.13 0-.25-.05-.35-.14l-2.16-2.09c-.2-.19-.2-.51-.01-.71.19-.2.51-.2.71-.01l2.16 2.09c.2.19.2.51.01.71C97.58 82.73 97.45 82.79 97.32 82.79zM93 78.6c-.13 0-.25-.05-.35-.14l-2.16-2.09c-.2-.19-.2-.51-.01-.71.19-.2.51-.2.71-.01l2.16 2.09c.2.19.2.51.01.71C93.26 78.55 93.13 78.6 93 78.6zM88.68 74.41c-.13 0-.25-.05-.35-.14l-2.16-2.09c-.2-.19-.2-.51-.01-.71.19-.2.51-.2.71-.01l2.16 2.09c.2.19.2.51.01.71C88.94 74.36 88.81 74.41 88.68 74.41zM84.36 70.23c-.13 0-.25-.05-.35-.14l-2.16-2.09c-.2-.19-.2-.51-.01-.71.19-.2.51-.2.71-.01l2.16 2.09c.2.19.2.51.01.71C84.62 70.18 84.49 70.23 84.36 70.23zM80.04 66.04c-.13 0-.25-.05-.35-.14l-2.16-2.09c-.2-.19-.2-.51-.01-.71.19-.2.51-.2.71-.01l2.16 2.09c.2.19.2.51.01.71C80.3 65.99 80.17 66.04 80.04 66.04zM75.72 61.85c-.13 0-.25-.05-.35-.14l-2.16-2.09c-.2-.19-.2-.51-.01-.71.19-.2.51-.2.71-.01l2.16 2.09c.2.19.2.51.01.71C75.98 61.8 75.85 61.85 75.72 61.85zM71.4 57.67c-.13 0-.25-.05-.35-.14l-2.16-2.09c-.2-.19-.2-.51-.01-.71.19-.2.51-.2.71-.01l2.16 2.09c.2.19.2.51.01.71C71.66 57.62 71.53 57.67 71.4 57.67zM67.08 53.48c-.13 0-.25-.05-.35-.14l-2.16-2.09c-.2-.19-.2-.51-.01-.71.19-.2.51-.2.71-.01l2.16 2.09c.2.19.2.51.01.71C67.34 53.43 67.21 53.48 67.08 53.48zM177.31 104.32h-1.5c-.28 0-.5-.22-.5-.5s.22-.5.5-.5h1.5c.28 0 .5.22.5.5S177.59 104.32 177.31 104.32z"/></g><linearGradient id="m" x1="167.04" x2="167.04" y1="1.743" y2="124.928" gradientUnits="userSpaceOnUse"><stop offset="0" style="stop-color:#202124"/><stop offset="1" style="stop-color:#202124;stop-opacity:0"/></linearGradient><path fill="url(#m)" d="M220.14,101.32v1c-0.19,1.67-1.76,3.19-4.15,4.16c-2.46,1-5.32,1.1-7.31,0.23	c-0.24,0.28-2.08,2.31-5.68,3.1c-3.96,0.88-6.58-0.51-6.82-0.64c-3.64,1.89-8.18,2.36-11.34,1.21c-2.71-0.99-4.02-3.06-3.45-5.37	c-1.49,0.96-3.31,1.56-5.07,1.72l-5.17,15.15h3.72l4.56,3.91l-1.11,3.25l-0.78,2.29l-7.24,3.92h-2.45h-1.28l-0.56,1.63h-0.49	l0.56-1.63h-2.94h-1.18l-4.56-3.91l1.89-5.54l7.23-3.91h4.12l5.16-15.11c-0.53,0.02-1.05,0.01-1.55-0.05	c-2.47-0.32-3.42-1.61-3.62-1.89c-0.18,0.06-1.38,0.42-2.82,0.42c-0.07,1.17-0.33,2.34-0.81,3.49c0,0,0.01,0,0.01,0	c-0.02,0.04-0.04,0.09-0.06,0.13c-0.04,0.09-0.08,0.18-0.12,0.26c-0.1,0.22-0.21,0.44-0.32,0.66c-0.05,0.09-0.09,0.18-0.14,0.27	c-0.16,0.29-0.34,0.58-0.53,0.87c0,0.01-0.01,0.01-0.01,0.02c-0.16,0.24-0.34,0.49-0.52,0.73c0,0-0.01,0-0.01,0	c-0.31,0.41-0.64,0.82-1.01,1.22c-0.36,0.39-0.75,0.76-1.13,1.14c-0.11,0.23-0.31,0.49-0.62,0.77c-3.48,3.17-7.78,5.72-12.99,7.56	c-0.34,0.12-0.72,0.22-1.1,0.28c-0.46,0.15-0.91,0.32-1.39,0.46c-2.42,0.72-4.84,1.04-7.27,1.03c-4.65-0.02-9.31-0.01-13.96-0.01	c-7.99,0-12.36-2.93-11.89-8.15c0,0-0.01,0-0.01,0c0.01-0.06,0.02-0.12,0.02-0.17c0-0.02,0-0.03,0-0.05	c0.25-2.13,0.8-4.26,1.71-6.39c0,0,0,0-0.01,0l0.09-0.22c0,0,0.01,0,0.01,0c0.81-1.83,1.88-3.64,3.29-5.45	c0.49-0.62,0.92-0.84,1.93-0.84c0.74,0,1.49,0,2.23,0c0.24-0.21,0.51-0.42,0.81-0.6c1.03-0.64,2.2-0.95,3.22-0.94l0,0	c0.01,0,0.02,0,0.03,0c0.01,0,0.02,0,0.03,0l0,0c1.03-0.02,1.98,0.3,2.58,0.94c0.17,0.19,0.3,0.39,0.4,0.61c2.77,0,5.55,0,8.32,0	c0,0,0,0,0.01-0.01h0.52c0,0,0,0-0.01,0.01c0.34,0,0.68,0,1.02,0c0.25-0.22,0.52-0.43,0.82-0.61c1.03-0.64,2.19-0.95,3.22-0.94l0,0	c0.01,0,0.02,0,0.03,0c0.01,0,0.02,0,0.03,0l0,0c1.03-0.02,1.98,0.3,2.58,0.94c0.17,0.18,0.3,0.39,0.4,0.61c0.34,0,0.68,0,1.02,0	c0,0,0,0,0,0h0.52c0,0,0,0,0,0c2.8,0,5.61,0,8.41,0c0.25-0.22,0.52-0.42,0.82-0.61c1.03-0.64,2.2-0.95,3.22-0.94L220.14,101.32z"/><linearGradient id="n" x1="93.46" x2="18.718" y1="82.845" y2="82.845" gradientUnits="userSpaceOnUse"><stop offset="0" style="stop-color:#E8EAED"/><stop offset="1" style="stop-color:#E8EAED;stop-opacity:0"/></linearGradient><path fill="url(#n)" d="M96.92 85.35 15.31 85.35 8.64 80.35 91.75 80.35z"/><path fill="#70757A" d="M159.36,91.99c0.83-0.99,1.91-1.48,2.96-1.45v0c0.01,0,0.02,0,0.04,0c0.01,0,0.02,0,0.04,0v0 c1.05-0.02,2.13,0.46,2.96,1.45c1.78,2.11,1.78,5.79-0.01,7.89c-0.83,0.97-1.9,1.46-2.95,1.44v0c-0.01,0-0.02,0-0.04,0 c-0.01,0-0.02,0-0.04,0v0c-1.05,0.02-2.12-0.46-2.95-1.44C157.59,97.78,157.58,94.1,159.36,91.99z"/><path fill="#34A853" d="M144.15,98.95c7.33,0,14.66,0,21.98,0c2.3,0,3.71-0.97,4.17-3.22c0.84-4.11,0.66-8.18-0.86-12.14 c-2.68-6.98-7.26-12.27-13.97-15.63c-2.21-1.11-4.56-1.6-7.04-1.58c-4.73,0.03-9.47,0.01-14.2,0.01 c-8.25,0.01-13.76,4.6-14.99,12.83c-0.93,6.19-0.77,12.38,1,18.47c0.28,0.95,0.64,1.29,1.67,1.28 C129.33,98.92,136.74,98.94,144.15,98.95C144.15,98.94,144.15,98.95,144.15,98.95z"/><path fill="#0C9143" d="M156.78 93.48c0-.86.7-1.56 1.56-1.56h7.75c.86 0 1.56.7 1.56 1.56 0 .86-.7 1.56-1.56 1.56h-7.75C157.48 95.04 156.78 94.34 156.78 93.48zM158.34 92.25c-.68 0-1.23.55-1.23 1.23 0 .68.55 1.23 1.23 1.23h7.75c.68 0 1.23-.55 1.23-1.23 0-.68-.55-1.23-1.23-1.23H158.34zM133.34 83.87c.06 0 .12-.03.15-.09.04-.08.01-.18-.07-.23l-3.37-1.73c-.08-.04-.18-.01-.23.07-.04.08-.01.18.07.23l3.37 1.73C133.29 83.86 133.31 83.87 133.34 83.87zM139.62 96.67c.08 0 .15-.06.17-.14.02-.09-.05-.18-.14-.19l-6.28-1.05c-.09-.02-.18.05-.19.14-.02.09.05.18.14.19l6.28 1.05C139.6 96.67 139.61 96.67 139.62 96.67zM118.77 89c.07.01.14.01.21.01 1.57 0 2.85-1.28 2.85-2.85v-4.1c0-1.48-1.14-2.7-2.58-2.84.02-.11.03-.22.05-.33 1.61.16 2.87 1.52 2.87 3.18v4.1c0 1.76-1.43 3.19-3.19 3.19-.07 0-.13 0-.19-.01L118.77 89z"/><path fill="#E8EAED" d="M142.04 91.99c.83-.99 1.91-1.48 2.96-1.45v0c.01 0 .02 0 .04 0 .01 0 .02 0 .04 0v0c1.05-.02 2.13.46 2.96 1.45 1.78 2.11 1.78 5.79-.01 7.89-.83.97-1.9 1.46-2.95 1.44v0c-.01 0-.02 0-.04 0-.01 0-.02 0-.04 0v0c-1.05.02-2.12-.46-2.95-1.44C140.26 97.78 140.25 94.1 142.04 91.99zM124.8 91.99c.83-.99 1.91-1.48 2.96-1.45v0c.01 0 .02 0 .04 0 .01 0 .02 0 .04 0v0c1.05-.02 2.13.46 2.96 1.45 1.78 2.11 1.78 5.79-.01 7.89-.83.97-1.9 1.46-2.95 1.44v0c-.01 0-.02 0-.04 0-.01 0-.02 0-.04 0v0c-1.05.02-2.12-.46-2.95-1.44C123.02 97.78 123.01 94.1 124.8 91.99z"/><path fill="#F1F3F4" d="M150.31,83.58c-1.58,0-3,0.01-4.42,0c-1.06-0.01-1.84-0.47-2.11-1.54c-0.29-1.15,0.6-2.18,1.96-2.28 c0.65-0.05,1.32-0.02,1.97-0.02c0.61,0,1.21,0,1.96,0c-0.12-0.47-0.15-0.79-0.27-1.07c-2.42-5.34-6.21-9.23-12.08-10.49 c-3.62-0.78-7.07-0.1-9.62,2.98c-2.43,2.94-1.71,7.08,1.68,8.83c4.78,2.48,9.63,4.83,14.5,7.14 C146.56,88.38,149.11,87,150.31,83.58z"/><path fill="#F1F3F4" d="M142.64,68.73c0.31,0.24,0.63,0.47,0.94,0.71c4.17,3.26,7.41,7.22,9.21,12.26 c0.51,1.42,1.23,1.97,2.76,1.98c3.66,0.02,7.32,0.03,10.98,0c1.98-0.02,2.69-1.24,1.8-3.01c-2.43-4.86-5.93-8.76-10.58-11.58 c-0.59-0.36-1.37-0.58-2.06-0.59c-4.32-0.05-8.63-0.03-12.95-0.03C142.71,68.56,142.67,68.65,142.64,68.73z"/><path fill="#34A853" d="M133.34,82.84c0.09,0,0.17-0.08,0.17-0.17V67.46c0-0.09-0.08-0.17-0.17-0.17s-0.17,0.08-0.17,0.17v15.21 C133.17,82.77,133.25,82.84,133.34,82.84z"/><path fill="#FFF" d="M123.78 90.5c1.06-1.26 2.5-1.97 3.95-1.94 0 0 .01 0 .01 0 .02 0 .03 0 .05 0 0 0 .01 0 .02 0 .02 0 .03 0 .05 0 0 0 .01 0 .01 0 1.45-.02 2.88.68 3.95 1.94 1.86 2.2 2.24 5.7 1.15 8.44h-.53c1.12-2.6.79-6.01-1-8.12-.97-1.15-2.28-1.8-3.59-1.77-.01 0-.02 0-.03 0-.01 0-.01 0-.02 0-.01 0-.01 0-.02 0-.01 0-.02 0-.03 0-1.31-.03-2.61.62-3.59 1.77-1.78 2.11-2.12 5.5-1.01 8.09 0 0 0 .01.01.01h0c.01.01.01.03.02.04-.18 0-.35 0-.53 0l-.01-.03C121.54 96.2 121.92 92.69 123.78 90.5zM151.59 87.72c0 1.18.85 2.26 1.8 2.3 1 .04 1.89-1.05 1.9-2.33.01-1.29-.83-2.35-1.86-2.36C152.43 85.33 151.59 86.42 151.59 87.72zM149.67 98.95c1.12-2.6.79-6.01-1-8.12-.97-1.15-2.28-1.8-3.59-1.77-.01 0-.02 0-.03 0-.01 0-.01 0-.02 0-.01 0-.01 0-.02 0-.01 0-.02 0-.03 0-1.31-.03-2.61.62-3.59 1.77-1.79 2.12-2.12 5.52-1 8.12h-.53c-1.09-2.74-.71-6.24 1.15-8.44 1.06-1.26 2.5-1.97 3.95-1.94 0 0 .01 0 .01 0 .02 0 .03 0 .05 0 0 0 .01 0 .02 0 .02 0 .03 0 .05 0 0 0 .01 0 .01 0 1.45-.02 2.88.68 3.95 1.94 1.86 2.2 2.24 5.7 1.15 8.44H149.67zM170.43 90.01c-.92.01-1.77-1.11-1.75-2.32.01-1.02.63-1.97 1.39-2.24.41 1.49.65 2.99.72 4.5C170.67 89.99 170.55 90.01 170.43 90.01z"/><path fill="#4285F4" d="M166.69 51.38c-.12 0-.24-.04-.34-.13l-13.96-12.89c-.2-.19-.22-.5-.03-.71.19-.21.5-.22.71-.03l13.96 12.89c.2.19.22.5.03.71C166.95 51.33 166.82 51.38 166.69 51.38zM170.08 48.45c-.19 0-.38-.11-.46-.3l-4.7-10.82c-.11-.25.01-.55.26-.66.25-.11.55.01.66.26l4.7 10.82c.11.25-.01.55-.26.66C170.22 48.43 170.15 48.45 170.08 48.45zM164.94 55.55c-.04 0-.09 0-.13-.02l-4.91-1.31c-.27-.07-.43-.35-.35-.61s.35-.42.61-.35l4.91 1.31c.27.07.43.35.35.61C165.37 55.4 165.17 55.55 164.94 55.55z"/><path fill="#DADCE0" d="M16.1 37.99 33.67 25.54 50.11 25.54 67.99 37.99 65.71 43.64 65.71 70.68 71.87 70.68 74.96 73.57 65.71 73.57 18.16 73.57 18.03 73.57 18.03 43.6 18.06 43.6z"/><linearGradient id="o" x1="40.108" x2="40.108" y1="-31.865" y2="85.82" gradientTransform="matrix(1 0 -.3572 1 30.958 0)" gradientUnits="userSpaceOnUse"><stop offset="0" style="stop-color:#202124"/><stop offset="1" style="stop-color:#202124;stop-opacity:0"/></linearGradient><path fill="url(#o)" d="M11.41 82.56 26.14 88.01 42.58 88.01 63.3 82.56 63.04 78.69 64.68 75.55 70.83 75.55 74.96 73.57 65.71 73.57 18.16 73.57 18.03 73.57 15.34 78.72 15.37 78.72z"/><path fill="#FBBC04" d="M37.64 43.79H60.11V70.37H37.64z"/><linearGradient id="p" x1="64.299" x2="39.022" y1="-59.413" y2="56.719" gradientUnits="userSpaceOnUse"><stop offset="0" style="stop-color:#202124"/><stop offset="1" style="stop-color:#202124;stop-opacity:0"/></linearGradient><path fill="url(#p)" d="M65.71 43.64 18.03 43.64 18.03 69.23 56.16 69.23z"/><path fill="#FBBC04" d="M24.67 59.83H31.52V69.81H24.67z"/><path fill="none" d="M33.42 38.19 16.17 38.19 17.97 43.34 34.12 43.32zM34.62 43.32 65.85 43.28 67.91 38.19 33.92 38.19zM24.65 59.3 31.52 59.3 31.52 43.83 24.65 43.84zM53.83 52.39h-.41c-2.05 0-3.72 1.99-3.72 4.44v13.34h7.85V56.84C57.55 54.38 55.88 52.39 53.83 52.39zM24.65 59.8H31.51V69.73H24.65zM43.66 52.59h-.41c-2.05 0-3.72 1.99-3.72 4.44v13.14h7.85V57.03C47.38 54.58 45.71 52.59 43.66 52.59z"/><path fill="none" d="m68.64 67.06-2.93 3.62h-7.66v0H49.2v0h-1.32v.04h-8.85v-.04h-1.68v-.5h1.68V57.03c0-2.73 1.89-4.94 4.22-4.94h.41c2.33 0 4.22 2.22 4.22 4.94v13.14h1.32V56.84c0-2.73 1.89-4.94 4.22-4.94h.41c2.33 0 4.22 2.22 4.22 4.94v13.34h7.66V43.78l-33.69.04v29.75h33.69 9.25l-.15-6.51M24.65 70.23H31.51V73.57H24.65z"/><path fill="#FFF" d="M58.05,70.18V56.84c0-2.73-1.89-4.94-4.22-4.94h-0.41c-2.33,0-4.22,2.22-4.22,4.94v13.34h-1.32V57.03 c0-2.73-1.89-4.94-4.22-4.94h-0.41c-2.33,0-4.22,2.22-4.22,4.94v13.14h-1.68v0.5h1.68h8.85h1.32h8.85h7.66v-0.5H58.05z M47.38,70.18h-7.85V57.03c0-2.45,1.67-4.44,3.72-4.44h0.41c2.05,0,3.72,1.99,3.72,4.44V70.18z M57.55,70.18L57.55,70.18l-7.85,0v0 V56.84c0-2.45,1.67-4.44,3.72-4.44h0.41c2.05,0,3.72,1.99,3.72,4.44V70.18z"/><path fill="#FFF" d="M67.99,37.99l-0.42-0.29H34.11l16.44-11.85l-0.44-0.3L33.34,37.63l0.01,0.06H16.51l-0.42,0.29l0.07,0.21 h17.25l0.7,5.13l-16.15,0.02l0.09,0.25h-0.03v0.25l6.13-0.01v29.74h0.5v-3.34h6.86v3.34h0.5V43.83l33.69-0.04v-0.14l0.14-0.36 l-31.23,0.04l-0.7-5.13h33.99L67.99,37.99z M24.65,43.84l6.86-0.01V59.3h-6.86V43.84z M24.65,69.73V59.8h6.86v9.93H24.65z"/><path fill="#DADCE0" d="M299.79,116.76V86.94h-18.95v-0.01c-8.73,0-17.02,3.41-23.94,9.2h-24.68v36.42h77.79v-8.38h3.65	L299.79,116.76z"/><linearGradient id="q" x1="272.952" x2="272.952" y1="39.614" y2="119.189" gradientUnits="userSpaceOnUse"><stop offset="0" style="stop-color:#FFFFFF"/><stop offset="1" style="stop-color:#FFFFFF;stop-opacity:0"/></linearGradient><path fill="url(#q)" d="M299.79,116.76V86.94h-18.95v-0.01c-8.73,0-17.02,3.41-23.94,9.2h-24.68v36.42h77.79v-8.38h3.65	L299.79,116.76z"/><linearGradient id="r" x1="302.98" x2="293.687" y1="87.48" y2="132.187" gradientUnits="userSpaceOnUse"><stop offset="0" style="stop-color:#202124"/><stop offset="1" style="stop-color:#202124;stop-opacity:0"/></linearGradient><path fill="url(#r)" d="M310.02 124.46 306.64 132.56 281.08 132.56 280.75 123.55 282.74 124.45z"/><path fill="#DADCE0" d="M236.71,132.56h-23.46c-0.16,0-0.28-0.13-0.28-0.28s0.13-0.28,0.28-0.28h23.46c0.16,0,0.28,0.13,0.28,0.28	S236.87,132.56,236.71,132.56z"/><linearGradient id="s" x1="261.505" x2="261.505" y1="39.874" y2="144.458" gradientUnits="userSpaceOnUse"><stop offset="0" style="stop-color:#202124"/><stop offset="1" style="stop-color:#202124;stop-opacity:0"/></linearGradient><path fill="url(#s)" d="M312.03,135.02h-3.65l1.65-2.45h-73.31c0,0,0,0,0,0H222.9c-0.02,0-0.03-0.01-0.06-0.01	s-0.04,0.01-0.07,0.01h-9.52c-0.16,0-0.31,0.04-0.34,0.08c-0.03,0.05,0.07,0.08,0.23,0.08h9.33l-0.82,1.22	c-4.88,0.1-9.5,1.3-10.49,2.78c-1.03,1.54,2.27,2.79,7.37,2.79c4.41,0,8.72-0.93,10.48-2.18l-3.95,5.88h24.68	c5.78,1.7,13.4,2.69,22.13,2.69l0,0h18.95l5.85-8.73L312.03,135.02z M222.98,132.73h9.14l-2.28,3.39c-0.08-1.25-3.14-2.18-7.55-2.18	c-0.04,0-0.08,0-0.12,0L222.98,132.73z"/><path fill="none" d="m253.37 102.91-4.6-2.64.25-.43 4.6 2.64L253.37 102.91zM290.64 92.18c2.28 0 4.13 1.85 4.13 4.13 0 2.28-1.85 4.13-4.13 4.13s-4.13-1.85-4.13-4.13C286.52 94.03 288.37 92.18 290.64 92.18zM283.27 124.71c-.35 0-.69-.09-1-.26l-1.51-.84.3 8.94h28.96v-7.85H283.27z"/><path fill="#34A853" d="M243.12 120.96H262.31V132.55H243.12z"/><circle cx="290.64" cy="96.31" r="4.13" fill="#34A853"/><path fill="#FFF" d="M282.27 124.46c.3.17.65.26 1 .26h26.76v-.5h-6.77l-15.4-8.25-.24.44 14.55 7.81h-9.65l-28.65-15.99-.24.44 27.87 15.55h-8.22c-.26 0-.52-.07-.75-.2l-50.16-27.88h-.12v.5l48.02 26.69.31 9.23h.5l-.3-8.94L282.27 124.46zM273.77 107.9 253.07 96.14 252.05 96.14 273.52 108.34zM299.79 116.72v-.57l-18.7-10.02V86.94h-.25v-.01c-.08 0-.17.01-.25.01v18.92l-19.08-10.22-3.98 0c-.2.16-.39.31-.59.47h4.39L299.79 116.72zM248.77 100.27 253.37 102.91 253.62 102.48 249.02 99.84z"/><path fill="#EA4335" fill-rule="evenodd" d="M104.62 121.99 98.84 118.81 77.52 118.81 82.48 121.99 104.62 121.99z" clip-rule="evenodd"/><linearGradient id="t" x1="43.481" x2="27.568" y1="19.951" y2="38.343" gradientUnits="userSpaceOnUse"><stop offset="0" style="stop-color:#FFFFFF"/><stop offset="1" style="stop-color:#FFFFFF;stop-opacity:0"/></linearGradient><path fill="url(#t)" d="M50.33 25.69 33.48 37.94 16.1 37.94 33.67 25.54z" opacity=".5"/><linearGradient id="u" x1="84.189" x2="69.841" y1="79.018" y2="113.453" gradientUnits="userSpaceOnUse"><stop offset="0" style="stop-color:#FFFFFF"/><stop offset="1" style="stop-color:#FFFFFF;stop-opacity:0"/></linearGradient><path fill="url(#u)" d="M52.63 93.14 87.2 93.08 98.61 106.03 64.13 105.97z"/><linearGradient id="v" x1="113.819" x2="113.819" y1="-25.539" y2="58.683" gradientUnits="userSpaceOnUse"><stop offset="0" style="stop-color:#202124"/><stop offset="1" style="stop-color:#202124;stop-opacity:0"/></linearGradient><path fill="url(#v)" d="M134.43,45.54c0.03,0.62-0.75,1.2-2.01,1.56c-1.31,0.37-2.91,0.41-4.1,0.09	c-0.12,0.1-0.99,0.86-2.95,1.16c-2.16,0.33-3.75-0.19-3.9-0.24c-1.89,0.71-4.42,0.88-6.3,0.45c-1.61-0.37-2.52-1.14-2.39-2	c-0.66,0.31-1.47,0.52-2.31,0.61l-0.62,2.08h13.02c-0.11,0.55-0.25,1.12-0.42,1.7c-2,6.76-7.18,12.23-11.59,12.23	c-1.07,0-2-0.33-2.76-0.92c-2.29,1.64-4.84,2.62-7.28,2.62c-5.94,0-9.05-5.75-6.96-12.83c0.28-0.96,0.65-1.9,1.09-2.8h14.44	l0.6-2.04c-0.36,0.02-0.73,0.02-1.08-0.01c-1.42-0.12-2.06-0.6-2.2-0.71c-0.15,0.03-1.55,0.32-2.88,0.02	c-1.28-0.29-1.42-0.89-1.43-0.96H134.43z"/></svg>