<svg version="1.1" xmlns="http://www.w3.org/2000/svg" width="300" height="200"><path fill="none" stroke="#3C4043" stroke-width=".7041" stroke-miterlimit="10" d="M278.5 46.6h-10.7c-1.8 0-3.2-1.4-3.2-3.2v-.1c0-1.8 1.4-3.2 3.2-3.2h10.7c1.8 0 3.2 1.4 3.2 3.2v.1c0 1.7-1.4 3.2-3.2 3.2z"/><linearGradient id="a" gradientUnits="userSpaceOnUse" x1="273.1" y1="1263.6509" x2="273.1" y2="1332.6455" gradientTransform="translate(0 -1216)"><stop offset="0" style="stop-color:#3C4043"/><stop offset="1" style="stop-color:#3C4043;stop-opacity:0"/></linearGradient><path fill="url(#a)" d="M286.3 117.6V52.4c0-2.2-1.8-4-4-4h-18.4c-2.2 0-4 1.8-4 4v65.2h26.4z"/><path fill="none" stroke="#202124" stroke-width=".5" stroke-miterlimit="10" d="M267.4 117.6V54.9c0-.7-.6-1.2-1.2-1.2s-1.2.6-1.2 1.2v62.8M274.3 117.6V54.9c0-.7-.6-1.2-1.2-1.2s-1.2.6-1.2 1.2v62.8M281.3 117.6V54.9c0-.7-.6-1.2-1.2-1.2s-1.2.6-1.2 1.2v62.8"/><linearGradient id="b" gradientUnits="userSpaceOnUse" x1="146.9" y1="1273.1051" x2="146.9" y2="1332.9448" gradientTransform="translate(0 -1216)"><stop offset="0" style="stop-color:#3C4043"/><stop offset="1" style="stop-color:#3C4043;stop-opacity:0"/></linearGradient><path fill="url(#b)" d="M160.9 117.6l.2-64c0-.5-.5-.9-1-.8l-26.6 7.6c-.4.1-.7.5-.7 1l-.1 56.3 28.2-.1z"/><linearGradient id="c" gradientUnits="userSpaceOnUse" x1="250.7937" y1="1280.0725" x2="245.7561" y2="1317.8545" gradientTransform="translate(0 -1216)"><stop offset="0" style="stop-color:#3C4043"/><stop offset="1" style="stop-color:#3C4043;stop-opacity:0"/></linearGradient><path fill="url(#c)" d="M235.3 76h22.3v41.3h-22.3z"/><linearGradient id="d" gradientUnits="userSpaceOnUse" x1="207.8463" y1="1287.252" x2="203.2696" y2="1321.578" gradientTransform="translate(0 -1216)"><stop offset="0" style="stop-color:#3C4043"/><stop offset="1" style="stop-color:#3C4043;stop-opacity:0"/></linearGradient><path fill="url(#d)" d="M178.6 84.1h50.6v33.5h-50.6z"/><linearGradient id="e" gradientUnits="userSpaceOnUse" x1="1553.7166" y1="1252.2473" x2="1552.8593" y2="1313.1132" gradientTransform="translate(-1406.9292 -1216)"><stop offset="0" style="stop-color:#3C4043"/><stop offset="1" style="stop-color:#3C4043;stop-opacity:0"/></linearGradient><path fill="url(#e)" d="M154.6 51.2l-16.1 4.6c-.2.1-.3-.1-.3-.3v-7.1c0-.2.2-.4.4-.5l16.1-4.6c.2-.1.3.1.3.3v7.1c0 .3-.2.5-.4.5z"/><linearGradient id="f" gradientUnits="userSpaceOnUse" x1="146.9" y1="1273.1051" x2="146.9" y2="1332.9448" gradientTransform="translate(0 -1216)"><stop offset="0" style="stop-color:#3C4043"/><stop offset="1" style="stop-color:#3C4043;stop-opacity:0"/></linearGradient><path fill="url(#f)" d="M160.9 117.6l.2-64c0-.5-.5-.9-1-.8l-26.6 7.6c-.4.1-.7.5-.7 1l-.1 56.3 28.2-.1z"/><path fill="none" stroke="#202124" stroke-width=".5" stroke-linejoin="round" stroke-miterlimit="10" d="M138.9 63.9v53.7M147 61.9v55.7M154.6 59.7v57.9M132.8 65.8l28.3-8.1M139.6 53.6s4.6-.9 4.6-4.6c0-.9-1.4-1.3-1.5.1-.1 1.6 1.9 4.4 4.7 2.3 3-2.2 2.4-4.3 1.7-4.3-1.3 0-1.1 5.2 5.1 2.1"/><linearGradient id="g" gradientUnits="userSpaceOnUse" x1="249.9" y1="1326.1" x2="249.9" y2="1326.1" gradientTransform="translate(0 -1216)"><stop offset="0" style="stop-color:#3C4043"/><stop offset=".1951" style="stop-color:#6C6F71;stop-opacity:0.8049"/><stop offset=".4752" style="stop-color:#ABACAE;stop-opacity:0.5248"/><stop offset=".7125" style="stop-color:#D8D9DA;stop-opacity:0.2875"/><stop offset=".8948" style="stop-color:#F5F5F5;stop-opacity:0.1052"/><stop offset="1" style="stop-color:#FFFFFF;stop-opacity:0"/></linearGradient><radialGradient id="h" cx="182.9225" cy="-144.9893" r="88.2426" gradientTransform="matrix(1 -.0054 -.0022 -.4142 .5854 46.183)" gradientUnits="userSpaceOnUse"><stop offset="0" style="stop-color:#3C4043;stop-opacity:0.8"/><stop offset=".6008" style="stop-color:#3C4043;stop-opacity:0.3992"/><stop offset="1" style="stop-color:#3C4043;stop-opacity:0"/></radialGradient><path fill="url(#h)" d="M206.9 117.6H96v32.8h23.4c106.1 0 93.2-25.6 87.5-32.8zm-38.7 13.5c-2.2 0-4-.4-5.5-.9-3.3 1.8-8.5 3.7-15.5 3.7-13.6 0-10.3-6.9-10.3-6.9h30.4l14.002.103c-.213.128-5.602 3.997-13.102 3.997z"/><linearGradient id="i" gradientUnits="userSpaceOnUse" x1="208.1433" y1="1050.6614" x2="228.4121" y2="1531.7061" gradientTransform="translate(0 -1216)"><stop offset="0" style="stop-color:#9AA0A6"/><stop offset=".5222" style="stop-color:#797E83"/><stop offset="1" style="stop-color:#5F6368"/></linearGradient><path fill="url(#i)" d="M218.2 29.6c-18.2-.7-33.2 13.9-33.2 32 0 7.2 2.4 13.9 6.4 19.2 0 0 7.2 8.4 10.2 12.8 2.8 4.1 11 16.7 12.8 25.4.4 1.5 1.8 2.6 3.3 2.7 1.6 0 2.9-1.1 3.3-2.7 1.7-8.7 10-21.3 12.8-25.4 3-4.4 10.2-12.8 10.2-12.8 4-5.3 6.4-12 6.4-19.2.1-18.1-13.9-32.7-32.2-32zm-.5 41.8c-6.4 0-11.5-5.2-11.5-11.5s5.2-11.5 11.5-11.5c6.4 0 11.5 5.2 11.5 11.5s-5.1 11.5-11.5 11.5z"/><radialGradient id="j" cx="236.6686" cy="96.8758" r="68.323" gradientTransform="matrix(.9994 .0344 .0319 -.927 -8.6434 181.4517)" gradientUnits="userSpaceOnUse"><stop offset="0" style="stop-color:#3C4043;stop-opacity:0.8"/><stop offset=".6391" style="stop-color:#3C4043;stop-opacity:0.3992"/><stop offset="1" style="stop-color:#3C4043;stop-opacity:0"/></radialGradient><path fill="url(#j)" d="M226.8 117.6c5.207 2.013 22.552 9.186 31.505 17.8H295.4c-13.2 5.6-18.5 3.6-18.5 3.6s-6.4 4-12.1 3.6c-.608-.043-1.111-.117-1.554-.208.562 1.628.688 3.271.254 4.908-2.1 7.9-9.9 14.1-19.4 18.8h56.3v-48.5h-73.6z"/><path fill-rule="evenodd" clip-rule="evenodd" fill="#7F7F7F" d="M282.9 126.9c-.4-1-1.4-1.6-2.5-1.3l-11.1 3.1 8.8-6c1.6-1.1 1.8-3.4.4-4.8s-3.7-1.1-4.8.6l-6.2 10-6.2-10c-1-1.7-3.4-2-4.8-.6s-1.2 3.7.4 4.8l8.8 6-11.1-3.1c-1-.3-2.1.3-2.5 1.3-.5 1.3.5 2.7 1.9 2.7h27c1.4 0 2.4-1.4 1.9-2.7z"/><path fill="none" stroke="#3C4043" stroke-width=".5" stroke-linecap="round" stroke-linejoin="round" stroke-miterlimit="10" d="M267.4 113.5v15.8"/><path fill-rule="evenodd" clip-rule="evenodd" fill="#3C4043" d="M269.9 110.4c-.8-2-1.4-3.8-1.9-4.9-.2-.4-.7-.4-.9 0-.4 1.1-1.1 2.9-1.9 4.9-.9 2.5 2.3 3.9 2.3 3.9s3.3-1.4 2.4-3.9z"/><path fill="none" stroke="#3C4043" stroke-width=".5" stroke-linecap="round" stroke-linejoin="round" stroke-miterlimit="10" d="M259.7 120.8l7.9 8.8-10.4-1.7M275.5 120.8l-7.9 8.8 10.4-1.7"/><path fill-rule="evenodd" clip-rule="evenodd" fill="#202124" d="M268.2 108.7c.2-.3.5-.5.8-.7-.1-.2-.2-.5-.3-.7-.2.2-.6.5-.9.8-.5-.6-.9-1.1-1.1-1.3-.1.2-.2.5-.3.7.8.9 2.59 2.933 2.79 5.633l.018-.018c.2-.2.411-.47.58-.789-.299-1.4-.888-2.626-1.588-3.626z"/><path fill-rule="evenodd" clip-rule="evenodd" fill="#5F6368" d="M295.4 135.4h-41.9s3.4-10.3 13.3-6.1c0 0 3.2-5.8 8.5-5.5 5.2.3 6.7 6.1 6.7 6.1s9.7-5.1 13.4 5.5z"/><path fill="#5F6368" d="M157.4 127.1h23.9s-2.6-7.9-10.1-7.9-13.8 7.9-13.8 7.9z"/><path fill="#5F6368" d="M136.6 127.1H167s-1-13.3-14.6-13.3-15.8 13.3-15.8 13.3z"/><linearGradient id="k" gradientUnits="userSpaceOnUse" x1="16.7377" y1="1366.8164" x2="48.6968" y2="1341.4695" gradientTransform="translate(0 -1216)"><stop offset=".0803" style="stop-color:#FFFFFF;stop-opacity:0"/><stop offset=".1813" style="stop-color:#ECEEEF;stop-opacity:0.1153"/><stop offset=".4058" style="stop-color:#C9CCCF;stop-opacity:0.3714"/><stop offset=".6165" style="stop-color:#AFB4B9;stop-opacity:0.6119"/><stop offset=".8063" style="stop-color:#9FA5AB;stop-opacity:0.8284"/><stop offset=".9567" style="stop-color:#9AA0A6"/></linearGradient><path fill="url(#k)" d="M92.6 81.4l3.1 44.3-9.1 8.7c-4.6 4.2-11.3 7.4-18.4 4.8l-32 27.2L.4 124.7l38.3-14.5L49.3 90c3-5.9 8.5-11.1 15.3-12.5l18.3-3.8c2.1-.4 4.3.6 5.3 2.5 1.3 2.4.4 5.3-1.9 6.6l-16.1 9c-.8.4-1.1 1.5-.6 2.3.4.8 1.4 1.1 2.2.7L83.6 89"/><path fill="#9AA0A6" d="M127.1 100.5l7.5.7c1 .1 2.1 0 3.1-.4 2.8-1.2 4.1-4.3 3-6.8-1.1-2.6-4.3-3.7-7-2.5l-6.6 9zM127.2 102.7c-.7-2.7-3.7-4.2-6.6-3.5l-3.1 7.8c-1-.3-2.1-.3-3.2 0l-3.1 7.8c-1-.3-2.1-.3-3.2 0l-5 8.5 4.5 1.3c1 .3 2 .3 3.1 0 2.9-.8 4.7-3.6 3.9-6.3-.1-.5-.4-1-.6-1.4.9.2 2 .3 3 0 2.9-.8 4.7-3.6 3.9-6.3-.1-.5-.4-1-.6-1.4.9.2 2 .3 3 0 3-1 4.7-3.8 4-6.5z"/><linearGradient id="l" gradientUnits="userSpaceOnUse" x1="113.9214" y1="1315.4333" x2="110.2541" y2="1337.7704" gradientTransform="translate(0 -1216)"><stop offset="0" style="stop-color:#202124"/><stop offset="1" style="stop-color:#202124;stop-opacity:0"/></linearGradient><path fill="url(#l)" d="M119.6 107.5c-1-.3-4.2-.8-5.3-.5l-3.1 7.8c-1-.3-2.1-.3-3.2 0l-5 8.5 3.9 1.1c3.1-6.7 7.1-7.5 7.1-7.5 1.9-3.2 3.8-6.3 5.6-9.4z"/><linearGradient id="m" gradientUnits="userSpaceOnUse" x1="133.2201" y1="1299.9315" x2="132.2492" y2="1316.338" gradientTransform="translate(0 -1216)"><stop offset="0" style="stop-color:#202124"/><stop offset="1" style="stop-color:#202124;stop-opacity:0"/></linearGradient><path fill="url(#m)" d="M138.9 91.9s-4.2 3.5-4.3 9.4l-8.5-1 10.4-9.8 2.4 1.4"/><path fill="#9AA0A6" d="M140 83.1l-24.7-16c-2.5-1.6-5.8-1.4-8.1.6l-51.5 45.7c-1.8 1.6-1.5 4.4.4 5.7l27.8 18c1.9 1.2 4.3 1 6-.5l50.7-46.5c2.2-1.8 1.9-5.4-.6-7z"/><path fill="none" stroke="#202124" stroke-width=".5" stroke-linecap="round" stroke-miterlimit="10" d="M54.6 116l30.7 19.5c1.1.7 2.5.6 3.5-.3L142 86.7"/><linearGradient id="n" gradientUnits="userSpaceOnUse" x1="-58.5" y1="1415.804" x2="102.653" y2="1314.4521" gradientTransform="translate(0 -1216)"><stop offset="0" style="stop-color:#3C4043"/><stop offset="1" style="stop-color:#3C4043;stop-opacity:0"/></linearGradient><path fill="url(#n)" d="M140 83.1l-24.7-16c-2.5-1.6-5.8-1.4-8.1.6l-51.5 45.7c-.7.6-1.1 1.5-1.2 2.4l30.8 19.6c1.1.7 2.5.6 3.5-.3l53.3-48.6c-.1-1.3-.8-2.6-2.1-3.4z"/><path fill="none" stroke="#202124" stroke-width=".5" stroke-linecap="round" stroke-miterlimit="10" d="M117.5 110.2h0c.3.3.8.3 1.2 0l5.5-5.1c.3-.3.3-.8 0-1.2h0c-.3-.3-.8-.3-1.1 0l-5.5 5c-.4.4-.4 1-.1 1.3zM125.6 102.8h0c.3.3.8.3 1.2 0l5.5-5c.3-.3.3-.8 0-1.2h0c-.3-.3-.8-.3-1.1 0l-5.5 5c-.4.3-.5.8-.1 1.2z"/><path fill="#202124" d="M60.5 116.3L85.1 132c.8.5 1.9.4 2.6-.2l47-42.8c1.7-1.5 1.4-4.1-.4-5.3l-20.8-13.1c-2.1-1.3-4.7-1.1-6.5.6L60.3 113c-1.1.8-1 2.5.2 3.3z"/><linearGradient id="o" gradientUnits="userSpaceOnUse" x1="49.5649" y1="1314.1763" x2="71.1825" y2="1346.2495" gradientTransform="translate(0 -1216)"><stop offset="0" style="stop-color:#202124"/><stop offset="1" style="stop-color:#202124;stop-opacity:0"/></linearGradient><path fill="url(#o)" d="M55.9 119.1l14.6 20.8s5.6 1.8 13-2.9l-27.6-17.9z"/><path fill="none" stroke="#202124" stroke-width=".5" stroke-linecap="round" stroke-miterlimit="10" d="M123.9 75.1l5.3 3.5"/><ellipse fill="#202124" cx="122.3" cy="74.1" rx=".6" ry=".5"/><linearGradient id="p" gradientUnits="userSpaceOnUse" x1="96.6322" y1="1306.9402" x2="69.6924" y2="1315.0223" gradientTransform="translate(0 -1216)"><stop offset="0" style="stop-color:#202124"/><stop offset="1" style="stop-color:#202124;stop-opacity:0"/></linearGradient><path fill="url(#p)" d="M69.6 93.9l-7 13.4 21-18.6-11.8 5.8c0 .1-1.4.8-2.2-.6z"/><linearGradient id="q" gradientUnits="userSpaceOnUse" x1="107.0359" y1="1307.5308" x2="96.2603" y2="1318.796" gradientTransform="translate(0 -1216)"><stop offset="0" style="stop-color:#3C4043"/><stop offset=".253" style="stop-color:#393C3F;stop-opacity:0.747"/><stop offset=".4924" style="stop-color:#2E3234;stop-opacity:0.5076"/><stop offset=".7263" style="stop-color:#1D1F21;stop-opacity:0.2737"/><stop offset=".9556" style="stop-color:#050606;stop-opacity:0.0444"/><stop offset="1" style="stop-color:#000000;stop-opacity:0"/></linearGradient><path fill="url(#q)" d="M108.6 108.8c-4.9 5.8-13.4 6.7-19 2-5.5-4.7-6-13.2-1-18.9 4.9-5.8 13.4-6.7 19-2 5.5 4.6 6 13.1 1 18.9z"/><path fill="#9AA0A6" d="M95.8 103.6c-1.5-1.3-1.6-3.6-.3-5.1l5.7-6.7c1.3-1.6 3.6-1.8 5.1-.5 1.5 1.3 1.6 3.6.3 5.1l-5.7 6.7c-1.3 1.5-3.6 1.7-5.1.5z"/><linearGradient id="r" gradientUnits="userSpaceOnUse" x1="548.0635" y1="447.8657" x2="548.0635" y2="406.3068" gradientTransform="matrix(.7435 .6296 -.6668 .7804 -31.6402 -569.2223)"><stop offset="0" style="stop-color:#3C4043"/><stop offset="1" style="stop-color:#3C4043;stop-opacity:0"/></linearGradient><path fill="url(#r)" d="M95.8 103.6c-1.5-1.3-1.6-3.6-.3-5.1l5.7-6.7c1.3-1.6 3.6-1.8 5.1-.5 1.5 1.3 1.6 3.6.3 5.1l-5.7 6.7c-1.3 1.5-3.6 1.7-5.1.5z"/><path fill="#9AA0A6" d="M91.6 109.5l-1-.8 2.5-3 1 .8z"/><linearGradient id="s" gradientUnits="userSpaceOnUse" x1="548.0426" y1="420.4136" x2="548.0426" y2="424.8427" gradientTransform="matrix(.7435 .6296 -.6668 .7804 -31.6402 -569.2223)"><stop offset="0" style="stop-color:#4F4F4F"/><stop offset="1" style="stop-color:#202124;stop-opacity:0"/></linearGradient><path fill="url(#s)" d="M91.6 109.5l-1-.8 2.5-3 1 .8z"/><path fill="#5F6368" d="M103.3 103.7l-.6.7c-2.2 2.5-5.9 2.9-8.3.9-1.2-1-1.8-2.4-1.9-3.8-.1-1.5.4-3.1 1.5-4.4l.8-.9-1-.8-.8.8c-1.3 1.5-1.9 3.4-1.8 5.2.1 1.8.9 3.6 2.4 4.9 2.9 2.5 7.5 2 10.1-1.1l.6-.7-1-.8z"/><path fill="#9AA0A6" d="M103.3 103.7l-.6.7c-2.2 2.5-5.9 2.9-8.3.9-1.2-1-1.8-2.4-1.9-3.8-.1-1.5.4-3.1 1.5-4.4l.8-.9-1-.8-.8.8c-1.3 1.5-1.9 3.4-1.8 5.2.1 1.8.9 3.6 2.4 4.9 2.9 2.5 7.5 2 10.1-1.1l.6-.7-1-.8z"/><path fill="none" stroke="#202124" stroke-width=".7041" stroke-miterlimit="10" d="M100 93.2l1.9 1.6M98.5 94.9l1.9 1.7M97 96.7l1.9 1.6M103.5 96.1l1.9 1.6M102 97.9l1.9 1.6M100.5 99.7l1.9 1.6"/><linearGradient id="t" gradientUnits="userSpaceOnUse" x1="169.8" y1="1280.6498" x2="169.8" y2="1331.6931" gradientTransform="translate(0 -1216)"><stop offset="0" style="stop-color:#3C4043"/><stop offset="1" style="stop-color:#3C4043;stop-opacity:0"/></linearGradient><path fill="url(#t)" d="M178.6 117.6V79.3c0-7.3-5.9-13.3-13.3-13.3H161v51.5l17.6.1z"/><path fill="#9AA0A6" d="M143.3 116.5l7.5 10.5h.6l-7.7-10.8c-.2.1-.3.2-.4.3zM138.3 122.4l7 4.7h.9l-7.7-5.1c0 .1-.1.2-.2.4zM157.6 114.6l-1.8 6.9-5.1-7.5c-.2 0-.4 0-.6.1l5.5 8.1-1.3 5h.5l3.2-12.4c-.1-.1-.3-.2-.4-.2zM164.6 120.1l-6.3 6.9h.7l5.9-6.5c-.1-.1-.2-.2-.3-.4zM169 119.4l2.8 7.7h.5l-2.9-7.7c-.1-.1-.2 0-.4 0zM178 122c-.1-.1-.2-.2-.4-.3l-3.6 5.4h.6l3.4-5.1z"/><path fill="none" stroke="#202124" stroke-width=".5" stroke-miterlimit="10" d="M73.4 78h0c-.2-1.2.6-2.3 1.8-2.5l6.1-1.3c1.2-.2 2.3.6 2.5 1.8h0c.2 1.2-.6 2.3-1.8 2.5l-6 1.3c-1.2.2-2.3-.6-2.6-1.8z"/><path fill="#202124" d="M260.664 128.456l3.636 4.944-7.8-2.7-.4.4 8.5 2.9h.1l1.044 1.402.62-.006-5.131-7.027c-.15.016-.412.048-.569.087zM267.272 128.54l2.628 6.86h.5l-2.8-7.3c-.156.163-.279.323-.328.44zM292.6 130.8l-3.7 4.6h.6l3.4-4.3-.3-.3zM271.672 135.391h.502L276.2 124.1c-.2-.2-.4-.2-.5-.2l-2 5.6-3.795-3.802c-.104.086-.299.225-.399.325l3.994 4.077-1.828 5.291zM287.3 128.7l-3.1 3.9-.3-3.4c-.2.1-.3.1-.5.2l.4 3.8-1.689 2.159h.597l1.492-1.959 3.7-4.7h-.6z"/></svg>