<svg version="1.1" xmlns="http://www.w3.org/2000/svg" xmlns:xlink="http://www.w3.org/1999/xlink" x="0px" y="0px" width="277px" height="96px" viewBox="0 0 277 96" enable-background="new 0 0 277 96" xml:space="preserve"><path fill="#2C9C43" d="M115.95,25.88H89.16c-3.02,0-5.49-2.47-5.49-5.49v0c0-3.02,2.47-5.49,5.49-5.49h21.3 c3.02,0,5.49,2.47,5.49,5.49V25.88z"/><line fill="none" stroke="#FFFFFF" stroke-width="0.3364" stroke-miterlimit="10" x1="87.94" y1="18.76" x2="111.62" y2="18.76"/><line fill="none" stroke="#FFFFFF" stroke-width="0.3364" stroke-miterlimit="10" x1="87.94" y1="22.09" x2="111.62" y2="22.09"/><path fill="#689C66" d="M84.69,48.98c0,0-1.1,3.9-4.32,3.56c0,0-1.86-0.59-2.29-2.12l-1.53,0.35c0,0,0.25,2.96,4.07,2.53 c0,0,4.24-0.25,5.34-4.83L84.69,48.98z"/><path fill="#E4BC4E" d="M40.52,43.09c0,0,8.03,12.15,1.52,13.1l0.04,2.24c0,0,4.08,0.49,4.62-3c0,0,0.58-6.32-5.38-12.74 L40.52,43.09z"/><path fill="#346CF2" d="M34.29,63.72c0,0,1.39,2.06,2.11,1.97c0.72-0.09,3.09-1.93,4.13-3.36c1.03-1.44,2.06-3.81,1.08-7.89 c0,0-0.94-4.53-3.01-4.31c-1,0.11-0.47,1.14-0.15,1.67c0.48,0.78,1.28,1.39,1.59,2.27c0.34,0.99,0.12,2.19-0.23,3.14 c-0.59,1.58-1.61,3.11-2.78,4.31c-0.4,0.41-0.82,0.79-1.26,1.14C35.47,62.9,34.66,63.72,34.29,63.72z"/><path fill="#E4BC4E" d="M180.06,38.85c0,0,1.26-2.96,1.35-4.93c0.09-1.97,0-2.78,0.72-2.96c0.72-0.18,1.7-0.45,1.61,1.61 s-1.25,5.83-1.84,6.28C181.32,39.3,180.06,38.85,180.06,38.85z"/><path fill="#E4BC4E" d="M99.37,63.05c0,0-0.09,5.95,1.37,5.33c1.46-0.62,1.71-0.28,1.37-1.47c-0.34-1.2-0.6-3.34-0.6-3.85 S99.37,63.05,99.37,63.05z"/><path fill="#E4BC4E" d="M201.67,29.44c0,0,4.13-2.42,4.57-6.1c0,0,1.7-0.54,2.24,0c0.54,0.54-3.32,7.27-5.29,7 S201.67,29.44,201.67,29.44z"/><path fill="#346CF2" d="M170.44,9.67c0,0-3.41-1.28-1.44-2.17s5.02-2.52,5.92-1.93s1.88,1.87,0.9,1.99 C174.84,7.67,170.44,9.67,170.44,9.67z"/><path fill="#E32B29" d="M214.91,45.41c0,0,0,2.22-3.57,2.15c0,0-3.36-0.27-2.76-3.43c0,0,1.21-1.88,1.88-0.54 C211.14,44.94,210.27,46.82,214.91,45.41z"/><path fill="#E4BC4E" d="M189.15,83.87c0,0,10.98,5.71,12.74,3.22s-6.37-2.64-6.37-2.64l-5.2-1.61L189.15,83.87z"/><path fill="#69A25F" d="M231.05,56.08c0,0,2.47,5.25,0,8.79c0,0-0.9,1.28-2.45,2.15c-1.31,0.73-3.08,1.18-5.17,0.31 c0,0-2.69-1.66-2.15-4.62c0.54-2.96,6.55,1.21,6.55,1.21l-0.66,0.79c0,0-2.43-2.52-4.27-1.78c-0.54,0.22,0.09,3.54,2.15,2.92 c2.06-0.63,6.86-4.26,5.43-8.3C229.03,53.52,231.05,56.08,231.05,56.08z"/><path fill="#69A25F" d="M228.81,67.56c0,0,1.39,5.43-7.4,7.09c0,0-1.17,2.69,2.74,2.06c3.9-0.63,6.14-4.71,6.05-6.28 c-0.09-1.57-1.03-3.32-1.03-3.32L228.81,67.56z"/><g><path fill="#E4BC4E" d="M244.81,37.84c0,0-0.33-5.79,3.28-8.15c0,0,1.31-0.85,3.08-1.08c1.49-0.19,3.3,0.06,4.92,1.64 c0,0,1.88,2.54,0.27,5.09c-1.6,2.54-5.62-3.57-5.62-3.57l0.91-0.49c0,0,1.31,3.24,3.3,3.25c0.58,0,1.24-3.32-0.91-3.51 c-2.15-0.19-7.96,1.39-8.13,5.67S244.81,37.84,244.81,37.84z"/><path fill="#E4BC4E" d="M251.18,28.03c0,0,0.74-5.55,9.51-3.81c0,0,2.09-2.06-1.77-2.94c-3.85-0.87-7.46,2.07-7.96,3.56 c-0.5,1.49-0.28,3.46-0.28,3.46L251.18,28.03z"/></g><g><path fill="#E4BC4E" d="M10.85,80.98c0,0-0.33-5.79,3.28-8.15c0,0,1.31-0.85,3.08-1.08c1.49-0.19,3.3,0.06,4.92,1.64 c0,0,1.88,2.54,0.27,5.09c-1.6,2.54-5.62-3.57-5.62-3.57l0.91-0.49c0,0,1.31,3.24,3.3,3.25c0.58,0,1.24-3.32-0.91-3.51 c-2.15-0.19-7.96,1.39-8.13,5.67C11.76,84.1,10.85,80.98,10.85,80.98z"/><path fill="#E4BC4E" d="M17.21,71.16c0,0,0.74-5.55,9.51-3.81c0,0,2.09-2.06-1.77-2.94c-3.85-0.87-7.46,2.07-7.96,3.56 s-0.28,3.46-0.28,3.46L17.21,71.16z"/></g><path fill="#E32B29" d="M52.7,78.25c0,0,0,2.95,4.74,2.86c0,0,4.47-0.36,3.67-4.56c0,0-1.61-2.5-2.5-0.72S58.87,80.12,52.7,78.25z" /><path fill="#346CF2" d="M31.68,16.66c0,0,6.52,3.18,6.59,1.25s0.58-2.03-0.92-2.28s-4-1.07-4.57-1.34 C32.22,14.03,31.68,16.66,31.68,16.66z"/><path fill="#E4BC4E" d="M257.9,66.38c0,0,4.41-2.59,4.89-6.53c0,0,1.82-0.58,2.4,0c0.58,0.58-3.55,7.77-5.66,7.49 S257.9,66.38,257.9,66.38z"/><linearGradient id="grad1" gradientUnits="userSpaceOnUse" x1="138.0625" y1="93" x2="138.0625" y2="26.75"><stop offset="0" style="stop-color:#FFFFFF"/><stop offset="0.1024" style="stop-color:#EDEEF0"/><stop offset="0.2621" style="stop-color:#D9DBDE"/><stop offset="0.4421" style="stop-color:#CACDD1"/><stop offset="0.6573" style="stop-color:#C2C5C9"/><stop offset="1" style="stop-color:#BFC3C7"/></linearGradient><path fill="url(#grad1)" d="M100.96,93l16.5-24.5c0,0-2.25-4.75-1.25-11.75l7.25-26.5c0,0,0.5-3.25,3.25-3.5 c0,0,2.5,0.25,2.5,1.75l-6.5,38.75h33L157.96,55h1.92h1.08l10.5-4.5c0,0,1.25-1,3,0.5c0,0,2.25,2.5-1.25,4.5 c0,0-23.25,16.75-24.5,16.75l-8,20.75H100.96z"/><linearGradient id="grad2" gradientUnits="userSpaceOnUse" x1="159.4124" y1="67.375" x2="159.4124" y2="52.7369"><stop offset="0" style="stop-color:#BFC3C7"/><stop offset="0.237" style="stop-color:#B9BDC1"/><stop offset="0.5615" style="stop-color:#A7ABB0"/><stop offset="0.9062" style="stop-color:#8D9197"/></linearGradient><path fill="url(#grad2)" d="M158.08,55.12c0,0,3.07-0.28,4.91-2.39l-2.41,2.64l-4.75,12L158.08,55.12z"/><linearGradient id="grad3" gradientUnits="userSpaceOnUse" x1="128.3315" y1="93.125" x2="128.3315" y2="57.4536"><stop offset="0" style="stop-color:#FFFFFF"/><stop offset="0.6556" style="stop-color:#8D9197"/></linearGradient><path fill="url(#grad3)" d="M116.12,57.45c0,0,1.97,8.17,6.72,9.92h33c0,0-4.25,3.5-7.25,5l-37.25,20.75h-10.5l16.5-24.75 C117.33,68.38,115.58,65.12,116.12,57.45z"/><polygon fill="#F7B00C" points="131.33,13.88 165.58,13.88 155.83,67.38 122.83,67.38 "/><polygon fill="none" stroke="#FFFFFF" stroke-width="0.25" stroke-miterlimit="10" points="132.83,18.62 126.08,59.12 152.08,59.12  159.33,18.62 "/><line fill="#FFFFFF" stroke="#FFFFFF" stroke-width="0.248" stroke-miterlimit="10" x1="162.5" y1="13.88" x2="159.02" y2="36.89"/><g><path fill="#BFC3C7" d="M164.23,42.95l-2.19,1.84c-1.72,1.45-4.32,1.22-5.76-0.51v0c-1.45-1.72-1.22-4.32,0.51-5.76l2.19-1.84 c1.72-1.45,4.32-1.22,5.76,0.51v0C166.18,38.91,165.96,41.51,164.23,42.95z"/><path fill="#BFC3C7" d="M164.79,51.24l-3.48,2.92c-1.78,1.49-4.45,1.26-5.95-0.52v0c-1.49-1.78-1.26-4.45,0.52-5.95l3.48-2.92 c1.78-1.49,4.45-1.26,5.95,0.52v0C166.8,47.07,166.57,49.75,164.79,51.24z"/></g><path fill="#BFC3C7" d="M164.23,42.95l-2.19,1.84c-1.72,1.45-4.32,1.22-5.76-0.51v0c-1.45-1.72-1.22-4.32,0.51-5.76l2.19-1.84 c1.72-1.45,4.32-1.22,5.76,0.51v0C166.18,38.91,165.96,41.51,164.23,42.95z"/><path fill="#BFC3C7" d="M164.79,51.24l-3.48,2.92c-1.78,1.49-4.45,1.26-5.95-0.52v0c-1.49-1.78-1.26-4.45,0.52-5.95l3.48-2.92 c1.78-1.49,4.45-1.26,5.95,0.52v0C166.8,47.07,166.57,49.75,164.79,51.24z"/><path fill="#8D9197" d="M162.33,29.12h2c0,0,2.5,1.25,1.75,4.25c0,0-1.85,2.87-2.8,2.93l-2.2-0.18L162.33,29.12z"/><line fill="#FFFFFF" stroke="#FFFFFF" stroke-width="0.248" stroke-miterlimit="10" x1="155.58" y1="53.88" x2="153.52" y2="67.39"/><path fill="none" stroke="#FFFFFF" stroke-width="0.1829" stroke-miterlimit="10" d="M158.06,43.71l-0.76-0.76 c-0.74-0.74-0.74-1.94,0-2.68v0c0.74-0.74,1.94-0.74,2.68,0l0.76,0.76c0.74,0.74,0.74,1.94,0,2.68v0 C160.01,44.45,158.8,44.45,158.06,43.71z"/><path fill="none" stroke="#FFFFFF" stroke-width="0.1829" stroke-miterlimit="10" d="M157.31,52.46l-0.76-0.76 c-0.74-0.74-0.74-1.94,0-2.68v0c0.74-0.74,1.94-0.74,2.68,0l0.76,0.76c0.74,0.74,0.74,1.94,0,2.68v0 C159.26,53.2,158.05,53.2,157.31,52.46z"/><path fill="none" stroke="#FFFFFF" stroke-width="0.2409" stroke-miterlimit="10" d="M125.41,27.23l0.15,0.05 c0.74,0.24,1.17,1.01,0.94,1.7L125.17,33c-0.23,0.69-1.02,1.06-1.76,0.81l-0.15-0.05c-0.26-0.08-0.48-0.23-0.64-0.42"/><path fill="#FFFFFF" d="M135.61,41.37l1.84-8.31c0,0,1.78-3.56,4.51-4.15h4.93c0,0,3.26,0.71,3.09,4.04c0,0,0.53,7.12-5.93,8.37H136 "/><path fill="#F7B00C" d="M140.39,35.88h-0.12c-0.39,0-0.71-0.32-0.71-0.71v-0.12c0-0.39,0.32-0.71,0.71-0.71h0.12 c0.39,0,0.71,0.32,0.71,0.71v0.12C141.1,35.56,140.78,35.88,140.39,35.88z"/><path fill="#F7B00C" d="M143.36,35.88h-0.12c-0.39,0-0.71-0.32-0.71-0.71v-0.12c0-0.39,0.32-0.71,0.71-0.71h0.12 c0.39,0,0.71,0.32,0.71,0.71v0.12C144.07,35.56,143.75,35.88,143.36,35.88z"/><path fill="#F7B00C" d="M146.21,35.88h-0.12c-0.39,0-0.71-0.32-0.71-0.71v-0.12c0-0.39,0.32-0.71,0.71-0.71h0.12 c0.39,0,0.71,0.32,0.71,0.71v0.12C146.92,35.56,146.6,35.88,146.21,35.88z"/><polygon fill="#FFFFFF" points="136.77,44.6 137.41,45.89 138.82,46.09 137.8,47.09 138.04,48.5 136.77,47.84 135.51,48.5  135.75,47.09 134.72,46.09 136.14,45.89 "/><polygon fill="#FFFFFF" points="141.67,44.6 142.3,45.89 143.72,46.09 142.69,47.09 142.94,48.5 141.67,47.84 140.4,48.5  140.65,47.09 139.62,46.09 141.04,45.89 "/><polygon fill="#FFFFFF" points="146.71,44.6 147.35,45.89 148.76,46.09 147.74,47.09 147.98,48.5 146.71,47.84 145.45,48.5  145.69,47.09 144.66,46.09 146.08,45.89 "/></svg>
