<?xml version="1.0" encoding="utf-8"?><!--Generator: Adobe Illustrator 23.0.3, SVG Export Plug-In . SVG Version: 6.00 Build 0)--><svg version="1.1" id="Layer_2" xmlns="http://www.w3.org/2000/svg" xmlns:xlink="http://www.w3.org/1999/xlink" x="0px" y="0px" width="410px" height="176px" viewBox="0 0 410 176" enable-background="new 0 0 410 176" xml:space="preserve"><linearGradient id="Path_4_" gradientUnits="userSpaceOnUse" x1="1.0389" y1="176.4369" x2="1.0389" y2="177.4333" gradientTransform="matrix(225.2339 0 0 -136.941 98.4852 24296.8359)"><stop offset="0" style="stop-color:#DADCE0;stop-opacity:0"/><stop offset="1" style="stop-color:#DADCE0"/></linearGradient><path id="Path" fill="url(#Path_4_)" d="M384.83,42.48c-17.04-0.66-33.62,5.64-45.91,17.47c-12.29,11.82-19.24,28.15-19.24,45.2	c0,0.49,0,1,0,1.45c-3.33-0.95-6.77-1.44-10.23-1.45h-0.07c-3.61,0.08-7.04-1.53-9.29-4.35c-14.33-18.56-40.55-22.92-60.12-10	c-19.57,12.92-25.86,38.74-14.43,59.22c11.43,20.47,36.72,28.66,57.98,18.78c9.01,8.81,21.88,12.44,34.17,9.65	c12.29-2.8,22.32-11.64,26.63-23.49c21.49,16.42,51.09,17.2,73.43,1.94c22.33-15.26,32.37-43.11,24.89-69.11	S411.86,43.53,384.83,42.48z"/><linearGradient id="SVGID_1_" gradientUnits="userSpaceOnUse" x1="1.2189" y1="176.2811" x2="1.2189" y2="177.2779" gradientTransform="matrix(226.4437 0 0 -137.4667 -180.4587 24333.041)"><stop offset="0" style="stop-color:#DADCE0;stop-opacity:0"/><stop offset="1" style="stop-color:#DADCE0"/></linearGradient><path fill="url(#SVGID_1_)" d="M43.04,6.95c17.11-0.66,33.75,5.68,46.09,17.55s19.32,28.25,19.33,45.37c0,0.49,0,1,0,1.46	c3.35-0.97,6.83-1.46,10.32-1.46h0.06c3.61,0.05,7.05-1.57,9.3-4.4c14.4-18.65,40.75-23.04,60.41-10.06s25.99,38.94,14.49,59.51	c-11.5,20.57-36.91,28.79-58.28,18.84c-9.05,8.84-21.97,12.49-34.31,9.68c-12.34-2.81-22.41-11.69-26.74-23.58	c-21.58,16.59-51.38,17.44-73.87,2.11s-32.6-43.37-25.05-69.53S15.84,7.93,43.04,6.95z"/><g id="Page-1_1_"><g id="Services_Illustration" transform="translate(-107.000000, -31.000000)"><g id="Group" transform="translate(-56.000000, -12.000000)"><g id="paint-roller-copy" transform="translate(160.000000, 43.000000)"><linearGradient id="Fill-1-Copy_1_" gradientUnits="userSpaceOnUse" x1="4.8629" y1="170.0473" x2="5.8028" y2="170.0473" gradientTransform="matrix(134 0 0 -4 -535 841)"><stop offset="0" style="stop-color:#202124;stop-opacity:0"/><stop offset="0.7901" style="stop-color:#202124"/><stop offset="1" style="stop-color:#202124;stop-opacity:0"/></linearGradient><polygon id="Fill-1-Copy" fill-rule="evenodd" clip-rule="evenodd" fill="url(#Fill-1-Copy_1_)" fill-opacity="0.2" points="113.4,162.78 245.49,162.78 245.49,158.84 113.4,158.84"/><g id="paint-roller" transform="translate(38.000000, 0.000000)"><g><path id="Path_2_" fill-rule="evenodd" clip-rule="evenodd" fill="#DADCE0" d="M175.64,112.86V95.65 c0-3.19,1.88-6.07,4.78-7.34l36.81-16.12c1.18-0.52,1.94-1.69,1.94-2.98V47.5c0-1.79-1.45-3.25-3.23-3.25h-4.24V39.5h4.24 c4.4,0,7.96,3.58,7.96,8v21.71c0,3.18-1.88,6.07-4.78,7.34l-36.81,16.13c-1.18,0.51-1.94,1.69-1.94,2.98v17.21H175.64z"/><path fill-rule="evenodd" clip-rule="evenodd" fill="#BDC1C6" d="M177.03,95.99c0-3.18,1.88-6.07,4.78-7.34l36.81-16.12 c1.18-0.52,1.94-1.69,1.94-2.98V47.84c0.01-0.86-0.33-1.68-0.93-2.3c-0.6-0.61-1.42-0.96-2.27-0.96 c1.1,0.54,1.79,1.66,1.8,2.88v21.75c0,1.29-0.76,2.46-1.94,2.98l-36.81,16.12c-2.9,1.27-4.78,4.16-4.78,7.34v17.21h1.39 L177.03,95.99z"/><linearGradient id="SVGID_2_" gradientUnits="userSpaceOnUse" x1="-26.9214" y1="176.078" x2="-27.6715" y2="176.078" gradientTransform="matrix(17.8133 0 0 -62.1556 663.8785 11076.3428)"><stop offset="0" style="stop-color:#34A853"/><stop offset="1" style="stop-color:#1E8E3E"/></linearGradient><path fill-rule="evenodd" clip-rule="evenodd" fill="url(#SVGID_2_)" d="M186.83,160.74v-3.84l-1.21-10.26v-34.49 c0-0.64-0.1-1.28-0.3-1.89l-2.47-7.65c-0.22-0.68-0.84-1.13-1.55-1.13h-6.51c-0.71,0-1.33,0.46-1.55,1.13l-2.46,7.65 c-0.2,0.61-0.3,1.25-0.3,1.89v34.47l-1.22,10.26v3.84c0,1.11,0.9,2.02,2.01,2.02h13.52c0.53,0.01,1.05-0.2,1.43-0.58 C186.61,161.79,186.82,161.28,186.83,160.74z"/><linearGradient id="Rectangle_3_" gradientUnits="userSpaceOnUse" x1="-32.408" y1="175.5681" x2="-32.408" y2="175.0004" gradientTransform="matrix(101.7679 0 0 -26.8734 3461.1086 4757.5928)"><stop offset="0" style="stop-color:#FDE293"/><stop offset="1" style="stop-color:#FDD663"/></linearGradient><path id="Rectangle_1_" fill-rule="evenodd" clip-rule="evenodd" fill="url(#Rectangle_3_)" d="M122.55,28.73h80.93 c5.35,0,9.69,4.34,9.69,9.69v7.11c0,5.35-4.34,9.69-9.69,9.69h-80.93c-5.35,0-9.69-4.34-9.69-9.69v-7.11 C112.86,33.06,117.2,28.73,122.55,28.73z"/></g></g></g></g></g></g><g id="Page-1"><g id="pipe-wrench" transform="translate(-7.000000, 0.000000)"><linearGradient id="Fill-1_2_" gradientUnits="userSpaceOnUse" x1="8.4065" y1="208.2656" x2="8.7076" y2="208.2656" gradientTransform="matrix(248.4537 -128.1299 -3.6668 -7.1102 -1219.3781 2753.0288)"><stop offset="0" style="stop-color:#202124;stop-opacity:0"/><stop offset="1" style="stop-color:#202124"/></linearGradient><polygon id="Fill-1" fill-rule="evenodd" clip-rule="evenodd" fill="url(#Fill-1_2_)" fill-opacity="0.2" points="104.29,197.21 180.99,157.65 179.81,155.38 103.11,194.93"/><g transform="translate(184.000000, 0.200000)"><g><polygon id="Path_1_" fill-rule="evenodd" clip-rule="evenodd" fill="#DADCE0" points="-51.15,111.27 -49.03,111.4 -50.03,109.47"/><polygon fill-rule="evenodd" clip-rule="evenodd" fill="#DADCE0" points="-51.81,109.98 -49.7,110.12 -50.7,108.18"/><polygon fill-rule="evenodd" clip-rule="evenodd" fill="#DADCE0" points="-52.48,108.69 -50.37,108.82 -51.36,106.89"/><polygon fill-rule="evenodd" clip-rule="evenodd" fill="#DADCE0" points="-53.14,107.4 -51.03,107.54 -52.03,105.6"/><polygon fill-rule="evenodd" clip-rule="evenodd" fill="#DADCE0" points="-53.81,106.11 -51.7,106.25 -52.69,104.32"/><polygon fill-rule="evenodd" clip-rule="evenodd" fill="#DADCE0" points="-54.47,104.82 -52.36,104.96 -53.36,103.02"/><polygon fill-rule="evenodd" clip-rule="evenodd" fill="#DADCE0" points="-55.14,103.53 -53.02,103.67 -54.02,101.74"/><polygon fill-rule="evenodd" clip-rule="evenodd" fill="#DADCE0" points="-55.8,102.25 -53.69,102.38 -54.69,100.45"/><polygon fill-rule="evenodd" clip-rule="evenodd" fill="#DADCE0" points="-56.47,100.95 -54.35,101.09 -55.35,99.16"/><polygon fill-rule="evenodd" clip-rule="evenodd" fill="#DADCE0" points="-57.13,99.67 -55.02,99.8 -56.02,97.87"/><polygon fill-rule="evenodd" clip-rule="evenodd" fill="#DADCE0" points="-57.8,98.38 -55.68,98.51 -56.68,96.58"/><polygon fill-rule="evenodd" clip-rule="evenodd" fill="#DADCE0" points="-58.46,97.09 -56.35,97.22 -57.35,95.29"/><polygon fill-rule="evenodd" clip-rule="evenodd" fill="#DADCE0" points="-48.87,92.15 -50.99,92.01 -49.99,93.94"/><polygon fill-rule="evenodd" clip-rule="evenodd" fill="#DADCE0" points="-48.21,93.43 -50.32,93.3 -49.33,95.23"/><polygon fill-rule="evenodd" clip-rule="evenodd" fill="#DADCE0" points="-47.54,94.72 -49.66,94.59 -48.66,96.52"/><polygon fill-rule="evenodd" clip-rule="evenodd" fill="#DADCE0" points="-46.88,96.01 -48.99,95.88 -47.99,97.81"/><polygon fill-rule="evenodd" clip-rule="evenodd" fill="#DADCE0" points="-46.22,97.3 -48.33,97.17 -47.33,99.1"/><polygon fill-rule="evenodd" clip-rule="evenodd" fill="#DADCE0" points="-45.55,98.59 -47.66,98.46 -46.67,100.39"/><polygon fill-rule="evenodd" clip-rule="evenodd" fill="#DADCE0" points="-44.88,99.88 -47,99.74 -46,101.68"/><polygon fill-rule="evenodd" clip-rule="evenodd" fill="#DADCE0" points="-44.22,101.17 -46.33,101.03 -45.34,102.97"/><polygon fill-rule="evenodd" clip-rule="evenodd" fill="#DADCE0" points="-43.55,102.45 -45.67,102.32 -44.67,104.26"/><polygon fill-rule="evenodd" clip-rule="evenodd" fill="#DADCE0" points="-42.89,103.74 -45,103.61 -44,105.54"/><polygon fill-rule="evenodd" clip-rule="evenodd" fill="#DADCE0" points="-42.22,105.03 -44.34,104.9 -43.34,106.83"/><polygon fill-rule="evenodd" clip-rule="evenodd" fill="#DADCE0" points="-41.56,106.32 -43.67,106.19 -42.67,108.12"/><path fill-rule="evenodd" clip-rule="evenodd" fill="#DADCE0" d="M-77.67,57.88l28.09,54.48c1.18,2.28,3.92,3.21,6.12,2.08l0,0 c2.2-1.14,3.03-3.91,1.85-6.19l-27.5-53.32l13.72-7.07l-1.76-3.41l-13.83,0.92c-1.12,0.07-2.22,0.38-3.21,0.89l0,0 C-78.32,48.37-79.88,53.58-77.67,57.88z"/><path id="Rectangle" fill-rule="evenodd" clip-rule="evenodd" fill="#BDC1C6" d="M-68.6,65.84L-68.6,65.84 c1.35-0.69,3.02-0.13,3.74,1.27l21.3,41.31c0.72,1.39,0.21,3.09-1.13,3.78l0,0c-1.35,0.69-3.02,0.13-3.74-1.27l-21.3-41.31 C-70.45,68.23-69.95,66.53-68.6,65.84z"/><path id="Shape" fill="#E94235" d="M-46.21,59.84l45.81,88.84c1.67,3.24,0.5,7.17-2.63,8.79l0,0c-1.5,0.77-3.26,0.9-4.89,0.35 c-1.63-0.55-3-1.74-3.8-3.3l-25.38-49.21c-1.15-2.23-3.29-3.75-5.71-4.07l-6.14-0.8c-1.12-0.14-2.11-0.85-2.65-1.88l0,0 c-0.43-0.82-0.53-1.77-0.27-2.65s0.85-1.6,1.65-2.01l3.67-1.89c1.13-0.59,1.56-2.01,0.95-3.18l-2.18-4.24 c-0.29-0.56-0.79-0.99-1.38-1.19c-0.59-0.2-1.23-0.15-1.77,0.13L-61.3,88.9c-4.47,2.31-10.04,0.42-12.43-4.22l0,0 c-2.39-4.64-0.7-10.27,3.77-12.58L-46.21,59.84z M-9.81,144.31c-2.66,1.37,0.19,6.89,0.97,8.41c0.79,1.52,2.61,2.14,4.08,1.39 s2.02-2.61,1.24-4.13C-4.3,148.46-7.15,142.93-9.81,144.31L-9.81,144.31z"/><rect x="-69.25" y="50.56" transform="matrix(0.8888 -0.4583 0.4583 0.8888 -30.728 -21.7635)" fill-rule="evenodd" clip-rule="evenodd" fill="#BDC1C6" width="18.08" height="3.73"/><rect x="-64.14" y="60.46" transform="matrix(0.8888 -0.4583 0.4583 0.8888 -34.6982 -18.3219)" fill-rule="evenodd" clip-rule="evenodd" fill="#BDC1C6" width="18.08" height="3.73"/><path fill-rule="evenodd" clip-rule="evenodd" fill="#80868B" d="M-62.28,90.68l10.61-5.47c0.8-0.41,1.79-0.07,2.22,0.75 l1.85,3.58c0.43,0.83,0.13,1.83-0.67,2.24l-10.61,5.47c-0.8,0.41-1.79,0.07-2.22-0.75l-1.85-3.58 C-63.38,92.1-63.08,91.09-62.28,90.68z"/><rect x="-62.87" y="90.2" transform="matrix(0.8888 -0.4583 0.4583 0.8888 -47.9658 -15.1885)" fill-rule="evenodd" clip-rule="evenodd" fill="#5F6368" width="15.19" height="2.07"/><polygon fill-rule="evenodd" clip-rule="evenodd" fill="#BDC1C6" points="-52.08,51.4 -52.01,49.24 -53.88,50.2"/><polygon fill-rule="evenodd" clip-rule="evenodd" fill="#BDC1C6" points="-53.33,52.04 -53.26,49.88 -55.12,50.85"/><polygon fill-rule="evenodd" clip-rule="evenodd" fill="#BDC1C6" points="-54.57,52.68 -54.5,50.53 -56.36,51.49"/><polygon fill-rule="evenodd" clip-rule="evenodd" fill="#BDC1C6" points="-55.81,53.32 -55.74,51.17 -57.61,52.13"/><polygon fill-rule="evenodd" clip-rule="evenodd" fill="#BDC1C6" points="-57.05,53.96 -56.99,51.81 -58.85,52.77"/><polygon fill-rule="evenodd" clip-rule="evenodd" fill="#BDC1C6" points="-58.3,54.61 -58.23,52.45 -60.09,53.41"/><polygon fill-rule="evenodd" clip-rule="evenodd" fill="#BDC1C6" points="-59.54,55.25 -59.47,53.09 -61.34,54.05"/><polygon fill-rule="evenodd" clip-rule="evenodd" fill="#BDC1C6" points="-60.78,55.89 -60.72,53.73 -62.58,54.7"/><polygon fill-rule="evenodd" clip-rule="evenodd" fill="#BDC1C6" points="-62.03,56.53 -61.96,54.38 -63.82,55.34"/><polygon fill-rule="evenodd" clip-rule="evenodd" fill="#BDC1C6" points="-63.27,57.17 -63.2,55.02 -65.07,55.98"/><polygon fill-rule="evenodd" clip-rule="evenodd" fill="#BDC1C6" points="-64.52,57.81 -64.45,55.66 -66.31,56.62"/><polygon fill-rule="evenodd" clip-rule="evenodd" fill="#BDC1C6" points="-65.76,58.45 -65.69,56.3 -67.55,57.26"/><polygon fill-rule="evenodd" clip-rule="evenodd" fill="#BDC1C6" points="-63.18,63.44 -63.25,65.6 -61.39,64.64"/><polygon fill-rule="evenodd" clip-rule="evenodd" fill="#BDC1C6" points="-61.94,62.8 -62.01,64.96 -60.15,64"/><polygon fill-rule="evenodd" clip-rule="evenodd" fill="#BDC1C6" points="-60.7,62.16 -60.77,64.32 -58.9,63.35"/><polygon fill-rule="evenodd" clip-rule="evenodd" fill="#BDC1C6" points="-59.45,61.52 -59.52,63.67 -57.66,62.71"/><polygon fill-rule="evenodd" clip-rule="evenodd" fill="#BDC1C6" points="-58.21,60.88 -58.28,63.03 -56.41,62.07"/><polygon fill-rule="evenodd" clip-rule="evenodd" fill="#BDC1C6" points="-56.96,60.24 -57.03,62.39 -55.17,61.43"/><polygon fill-rule="evenodd" clip-rule="evenodd" fill="#BDC1C6" points="-55.72,59.6 -55.79,61.75 -53.93,60.79"/><polygon fill-rule="evenodd" clip-rule="evenodd" fill="#BDC1C6" points="-54.48,58.96 -54.55,61.11 -52.68,60.15"/><polygon fill-rule="evenodd" clip-rule="evenodd" fill="#BDC1C6" points="-53.24,58.32 -53.3,60.47 -51.44,59.51"/><polygon fill-rule="evenodd" clip-rule="evenodd" fill="#BDC1C6" points="-51.99,57.67 -52.06,59.83 -50.2,58.87"/><polygon fill-rule="evenodd" clip-rule="evenodd" fill="#BDC1C6" points="-50.75,57.03 -50.82,59.19 -48.95,58.22"/><polygon fill-rule="evenodd" clip-rule="evenodd" fill="#BDC1C6" points="-49.5,56.39 -49.57,58.54 -47.71,57.58"/><path fill-rule="evenodd" clip-rule="evenodd" fill="#D93025" d="M-47.12,72L-47.12,72c1.83-0.94,4.1-0.17,5.08,1.72 l31.63,61.34c0.98,1.9,0.29,4.2-1.54,5.14h0c-1.83,0.94-4.1,0.17-5.08-1.72l-31.63-61.34C-49.63,75.25-48.94,72.95-47.12,72z"/></g></g></g></g><g id="Page-1_2_"><g id="Services_Illustration_1_" transform="translate(-214.000000, -29.000000)"><g id="Group_1_" transform="translate(-56.000000, -12.000000)"><g id="hammer-copy" transform="translate(268.000000, 41.000000)"><linearGradient id="Fill-1_5_" gradientUnits="userSpaceOnUse" x1="5.5327" y1="172.0093" x2="6.4284" y2="172.0093" gradientTransform="matrix(87 0 0 -5 -260 1021)"><stop offset="0" style="stop-color:#202124;stop-opacity:0"/><stop offset="0.5984" style="stop-color:#202124"/><stop offset="1" style="stop-color:#202124;stop-opacity:0"/></linearGradient><polygon id="Fill-1_1_" fill-rule="evenodd" clip-rule="evenodd" fill="url(#Fill-1_5_)" fill-opacity="0.2" points="219.34,163.3 301.07,163.3 301.07,158.61 219.34,158.61"/><g id="hammer" transform="translate(43.000000, 0.000000)"><linearGradient id="Rectangle_4_" gradientUnits="userSpaceOnUse" x1="-21.1271" y1="177.9806" x2="-21.127" y2="177.2313" gradientTransform="matrix(10.5945 4.1011 20.0486 -51.7923 -3076.0393 9356.5381)"><stop offset="0" style="stop-color:#BDC1C6"/><stop offset="1" style="stop-color:#E8EAED"/></linearGradient><polygon id="Rectangle_2_" fill-rule="evenodd" clip-rule="evenodd" fill="url(#Rectangle_4_)" points="261.63,54.58 271.58,58.43 252.75,107.08 242.8,103.23"/><polygon fill-rule="evenodd" clip-rule="evenodd" fill="#BDC1C6" points="258.26,54.57 268.21,58.42 249.38,107.07 239.43,103.22"/><polygon id="Path_3_" opacity="0.2" fill-rule="evenodd" clip-rule="evenodd" fill="#202124" enable-background="new" points="261.81,54.7 261.44,55.66 258.68,54.61 258.2,55.3 256.21,60.53 266.51,63.52 269.81,63.74 271.78,58.58"/><linearGradient id="SVGID_3_" gradientUnits="userSpaceOnUse" x1="-36.2079" y1="175.5155" x2="-36.1264" y2="175.6034" gradientTransform="matrix(63.2785 0 0 -32.5845 2549.0537 5768.959)"><stop offset="0" style="stop-color:#BDC1C6"/><stop offset="1" style="stop-color:#E8EAED"/></linearGradient><path fill-rule="evenodd" clip-rule="evenodd" fill="url(#SVGID_3_)" d="M233.75,36.04l9.67-2.58c2.75-0.73,5.58-1.14,8.43-1.2 l0,0c4.59-0.1,9.17,0.69,13.46,2.33L279.52,40l2.37,3.58c1.92,2.89,4.69,5.1,7.92,6.34l2.26,0.86l-3.57,9.38l-5.53-2.09 c-2.06-0.78-4.34-0.72-6.35,0.18c-2.01,0.9-3.58,2.56-4.36,4.62h-3.38l-9.77-5.01v-3.22c0.03-7.25-5.4-13.36-12.6-14.19 l-12.53-1.42c-0.78-0.09-1.36-0.76-1.34-1.54l0,0C232.63,36.81,233.09,36.21,233.75,36.04z"/><linearGradient id="SVGID_4_" gradientUnits="userSpaceOnUse" x1="-22.4539" y1="174.4877" x2="-22.2981" y2="175.0734" gradientTransform="matrix(12.226 0 0 -18.0457 565.4935 3212.2517)"><stop offset="0.03" style="stop-color:#9AA0A6"/><stop offset="0.37" style="stop-color:#BDC1C6"/><stop offset="1" style="stop-color:#E8EAED"/></linearGradient><path fill-rule="evenodd" clip-rule="evenodd" fill="url(#SVGID_4_)" d="M290.85,47.93c0.36-0.04,0.73,0.01,1.07,0.14 l5.73,2.19c1.16,0.44,1.75,1.74,1.31,2.9l-3.91,10.27c-0.34,0.87-1.18,1.45-2.11,1.45h-3.51l-1.82-16.95L290.85,47.93z"/><path fill-rule="evenodd" clip-rule="evenodd" fill="#BDC1C6" d="M230.37,36.04l9.67-2.58c2.75-0.73,5.58-1.14,8.43-1.2l0,0 c4.6-0.1,9.17,0.7,13.46,2.34l14.21,5.4l2.37,3.58c1.92,2.89,4.69,5.1,7.92,6.34l2.26,0.86l-3.57,9.38l-5.53-2.09 c-2.06-0.78-4.34-0.72-6.35,0.18c-2.01,0.9-3.58,2.56-4.36,4.62l0,0l-13.15-5.01v-3.22c0.03-7.25-5.4-13.36-12.6-14.19 l-12.53-1.42c-0.78-0.09-1.36-0.76-1.34-1.54l0,0C229.25,36.81,229.71,36.21,230.37,36.04z"/><linearGradient id="SVGID_5_" gradientUnits="userSpaceOnUse" x1="-34.5376" y1="176.1967" x2="-34.4328" y2="176.1302" gradientTransform="matrix(42.7852 0 0 -71.7955 1712.4104 12776.9189)"><stop offset="0.68" style="stop-color:#E94235"/><stop offset="0.82" style="stop-color:#EE675C"/></linearGradient><path fill-rule="evenodd" clip-rule="evenodd" fill="url(#SVGID_5_)" d="M232.31,162.99l-13.51-5.15 c-1.61-0.62-2.46-2.32-1.87-3.77l22.95-56.63c0.57-1.41,2.29-2.06,3.87-1.45l11.12,4.24c1.57,0.6,2.42,2.23,1.93,3.67 l-20.56,57.54C235.68,162.91,233.92,163.61,232.31,162.99z"/><path fill-rule="evenodd" clip-rule="evenodd" fill="#BDC1C6" d="M290.53,48.82l1.76,0.67c2.26,0.86,3.4,3.4,2.54,5.66 l-2.39,6.27c-0.86,2.26-3.4,3.4-5.66,2.54c0,0,0,0,0,0l-1.76-0.67c-2.26-0.86-3.4-3.4-2.54-5.66l2.39-6.27 C285.73,49.09,288.26,47.95,290.53,48.82C290.53,48.82,290.53,48.82,290.53,48.82z"/><linearGradient id="SVGID_6_" gradientUnits="userSpaceOnUse" x1="-12.4735" y1="173.3518" x2="-12.182" y2="174.5261" gradientTransform="matrix(7.7605 0 0 -10.9118 391.1848 1955.1426)"><stop offset="0" style="stop-color:#BDC1C6"/><stop offset="1" style="stop-color:#E8EAED"/></linearGradient><polygon fill-rule="evenodd" clip-rule="evenodd" fill="url(#SVGID_6_)" points="295.58,53.16 298.96,53.16 295.06,63.41 291.67,63.41"/></g></g></g></g></g></svg>