<svg xmlns="http://www.w3.org/2000/svg" width="260" height="260"><linearGradient id="a" gradientUnits="userSpaceOnUse" x1="-437.035" y1="5.7282" x2="-437.035" y2="114.5226" gradientTransform="matrix(-1 0 0 1 -341.9565 0)"><stop offset="0" style="stop-color:#DADCE0"/><stop offset="1" style="stop-color:#FFFFFF;stop-opacity:0"/></linearGradient><path fill="url(#a)" d="M189.578 111.42l-29.375-45.619c-9.224-12.72-24.583-18.367-38.745-13.626-.592.198-1.191.411-1.798.64-20.319 7.656-33.868-33.627-56.432-37.242C35.815 11.18 27.52 35.566 27.52 35.566L.579 111.426l188.999-.006z"/><path fill="#FFF" d="M45.41 26.88c8.371-.643 17.281 2.628 22.711 8.336 2.963 3.115 4.175 5.732 3.704 8.001-.734 3.542-5.457 6.209-12.323 9.124-2.997 1.272-5.035 3.573-5.592 6.313-.472 2.325.194 4.626 1.826 6.313 1.425 1.472 4.193 2.104 7.208 2.104 2.375 0 4.902-.393 7.046-1.076l44.113-12.247c-.666-.027-1.326-.107-1.98-.229L69.776 65.276c-4.686 1.494-11.229 1.516-13.5-.831-1.458-1.506-2.052-3.563-1.63-5.642.506-2.494 2.383-4.598 5.149-5.772 7.083-3.006 11.965-5.8 12.765-9.662.524-2.528-.75-5.364-3.896-8.67-5.579-5.865-14.722-9.227-23.312-8.567-5.103.393-12.142 2.355-17.744 9.191-.057.153-.089.242-.089.242l-.729 2.052c.014-.014.031-.024.043-.041 5.62-8.092 13.205-10.282 18.577-10.696z"/><radialGradient id="b" cx="131.8563" cy="161.5366" r="126.0492" gradientTransform="matrix(1 0 0 .2994 0 161.4137)" gradientUnits="userSpaceOnUse"><stop offset="0" style="stop-color:#F1F3F4"/><stop offset=".8587" style="stop-color:#F1F3F4;stop-opacity:0.1413"/><stop offset="1" style="stop-color:#F1F3F4;stop-opacity:0"/></radialGradient><path fill="url(#b)" d="M4.291 207.435h255.13v74.522H4.291z"/><path fill="#4285F4" d="M143.325 76.606H47.153c-1.825 0-3.304 1.479-3.304 3.304v44.44c0 1.825 1.479 3.304 3.304 3.304h41.069l5.901 7.285c.575.71 1.657.71 2.232 0l5.901-7.285h41.069c1.825 0 3.304-1.479 3.304-3.304V79.91c.001-1.824-1.479-3.304-3.304-3.304z"/><path fill="#FFF" d="M57.7 97.256h2.217l2.247 6.544.395 1.397h.121l.426-1.397 2.337-6.544h2.217l-3.962 10.871h-2.156L57.7 97.256zM68.951 107.444l4.326-7.728-.046-.091h-4.783l.031-1.883h7.045v1.974l-4.905 8.654-1.668-.926zM80.277 108.37c-.395 0-.787-.056-1.177-.167-.39-.111-.752-.283-1.086-.516-.334-.233-.625-.524-.873-.873-.249-.35-.433-.767-.555-1.253l1.807-.698c.111.506.327.911.646 1.214.319.304.725.455 1.222.455.243 0 .468-.043.676-.129.207-.086.39-.205.546-.357s.279-.331.364-.539c.086-.207.129-.437.129-.691 0-.243-.043-.468-.129-.676s-.205-.39-.357-.547c-.151-.157-.331-.278-.539-.364-.208-.086-.437-.129-.691-.129-.315 0-.592.068-.836.205-.243.137-.45.306-.623.508l-1.928-.881.607-5.193h5.846v1.746h-4.191l-.395 2.429.122.03c.202-.172.45-.319.743-.44s.648-.182 1.063-.182c.435 0 .85.084 1.244.25.395.167.745.402 1.048.706.303.304.546.671.729 1.101.182.431.273.909.273 1.435 0 .516-.091.992-.273 1.427s-.438.81-.767 1.123c-.329.314-.719.56-1.169.737-.447.18-.939.269-1.476.269zM84.877 97.256h2.217l2.247 6.544.395 1.397h.121l.426-1.397 2.337-6.544h2.217l-3.962 10.871h-2.156l-3.842-10.871zM100.212 103.132h2.596v1.761h-2.596v2.581h-1.761v-2.581H95.87v-1.761h2.581v-2.581h1.761v2.581zM108.031 108.37c-.557 0-1.065-.081-1.526-.243-.461-.162-.858-.382-1.191-.66-.335-.279-.592-.607-.775-.987-.182-.38-.273-.792-.273-1.238 0-.303.043-.587.129-.85.086-.263.202-.501.35-.714.146-.212.317-.4.508-.562.193-.162.395-.298.608-.41v-.121c-.335-.223-.626-.516-.874-.881-.248-.364-.372-.79-.372-1.276 0-.415.086-.802.258-1.161.172-.359.41-.67.714-.934.303-.263.663-.468 1.078-.615.414-.147.869-.22 1.366-.22.496 0 .951.073 1.366.22.415.147.774.352 1.078.615.304.263.541.575.714.934.172.36.257.747.257 1.161 0 .486-.124.911-.372 1.276s-.539.658-.873.881v.121c.213.112.415.248.607.41.193.162.362.35.509.562.146.213.263.451.348.714s.129.546.129.85c0 .446-.091.858-.273 1.238-.182.38-.441.709-.774.987-.334.279-.732.498-1.191.66-.46.162-.969.243-1.525.243zm0-1.838c.516 0 .942-.134 1.275-.402.334-.268.501-.63.501-1.086 0-.213-.046-.408-.137-.585s-.215-.331-.372-.463c-.157-.131-.344-.232-.562-.303-.217-.071-.452-.106-.705-.106s-.488.035-.706.106c-.217.071-.405.172-.561.303-.158.132-.282.286-.373.463s-.137.372-.137.585c0 .455.167.817.502 1.086.333.268.758.402 1.275.402zm0-4.691c.425 0 .779-.119 1.062-.357.284-.238.426-.549.426-.934 0-.395-.142-.706-.426-.934-.283-.228-.638-.342-1.062-.342-.426 0-.779.114-1.063.342-.283.228-.425.539-.425.934 0 .384.142.696.425.934.284.238.637.357 1.063.357zM120.996 107.884c-.354.152-.729.271-1.124.357-.394.086-.804.129-1.23.129-.81 0-1.561-.147-2.255-.441s-1.293-.696-1.799-1.207c-.506-.511-.903-1.114-1.191-1.807s-.433-1.435-.433-2.225.145-1.531.433-2.224.685-1.296 1.191-1.807c.506-.511 1.106-.913 1.799-1.207.694-.294 1.445-.441 2.255-.441s1.561.147 2.255.441c.694.293 1.293.696 1.799 1.207.506.511.903 1.114 1.191 1.807.289.693.433 1.435.433 2.224 0 .84-.158 1.62-.471 2.338-.313.719-.754 1.336-1.321 1.852l.836 1.245-1.519 1.017-.849-1.258zm-2.307-3.462l1.519-1.033 1.184 1.792c.273-.314.488-.681.645-1.101.157-.42.235-.883.235-1.39 0-.557-.093-1.065-.281-1.526-.187-.461-.445-.853-.774-1.177-.329-.324-.714-.577-1.153-.759-.441-.182-.914-.273-1.42-.273s-.98.091-1.419.273c-.441.182-.825.435-1.154.759-.329.324-.587.716-.774 1.177s-.281.969-.281 1.526.093 1.065.281 1.526c.187.461.445.853.774 1.177.329.324.714.577 1.154.759.44.182.913.273 1.419.273.222 0 .435-.02.638-.061.202-.04.4-.096.592-.167l-1.185-1.775zM129.149 108.37c-.425 0-.832-.056-1.222-.167-.39-.111-.747-.281-1.07-.508-.324-.228-.61-.514-.858-.858-.249-.344-.438-.744-.57-1.199l1.867-.744c.132.506.355.888.668 1.146.313.258.709.387 1.184.387.213 0 .415-.033.608-.099.192-.066.359-.159.501-.281.142-.121.255-.266.342-.433.086-.167.128-.357.128-.569 0-.445-.164-.795-.494-1.048-.328-.253-.782-.38-1.359-.38h-.895v-1.807h.82c.202 0 .399-.025.592-.076.192-.05.361-.129.508-.235.146-.106.263-.243.35-.41.086-.167.129-.362.129-.585 0-.344-.122-.625-.364-.843-.244-.217-.572-.326-.987-.326-.446 0-.788.119-1.025.357-.238.238-.402.504-.494.797l-1.822-.744c.091-.253.228-.514.41-.782.182-.268.412-.511.691-.729.279-.218.605-.395.98-.531.374-.137.805-.205 1.29-.205.497 0 .949.071 1.359.212.411.142.763.337 1.056.585s.521.542.683.881c.162.339.243.706.243 1.101 0 .303-.038.577-.113.82-.076.243-.175.461-.297.653-.121.192-.261.357-.417.494-.157.137-.317.245-.479.326v.121c.486.193.889.501 1.207.926.319.425.479.962.479 1.61 0 .455-.087.873-.258 1.252-.173.38-.417.711-.736.994-.319.283-.701.504-1.147.66-.445.158-.94.237-1.488.237z"/><linearGradient id="c" gradientUnits="userSpaceOnUse" x1="215.9628" y1="13.1304" x2="215.9628" y2="75.3478"><stop offset="0" style="stop-color:#E6EBEF"/><stop offset=".4509" style="stop-color:#EEF2F4;stop-opacity:0.5491"/><stop offset="1" style="stop-color:#FFFFFF;stop-opacity:0"/></linearGradient><path fill="url(#c)" d="M252.447 47.29h-72.969c2.764-9.346 11.91-8.116 18.381-5.879 5.005 1.73 10.225 1.116 15.046-1.604l.741-.418c2.121-1.196 4.204-2.547 6.276-3.938 10.042-6.741 16.634-.724 19.884 3.963 1.585 2.286 3.743 3.308 5.875 2.8 2.6-.619 5.849-.22 6.766 5.076z"/><path fill="#E8EAED" d="M139.769 37.243c-6.186 0-11.2-5.014-11.2-11.2 0-6.186 5.014-11.2 11.2-11.2 6.186 0 11.2 5.014 11.2 11.2 0 6.186-5.014 11.2-11.2 11.2z"/><linearGradient id="d" gradientUnits="userSpaceOnUse" x1="77.5032" y1="129.7287" x2="77.7641" y2="225.7287"><stop offset="0" style="stop-color:#202124"/><stop offset="1" style="stop-color:#202124;stop-opacity:0"/></linearGradient><path fill="url(#d)" d="M138.231 239.944H19.628l8.183-17.081c-.475.031-.952.053-1.43.053-.2 0-.396-.004-.591-.009-2.543 2.186-7.457 3.76-12.359 3.76-6.16 0-9.964-2.483-8.496-5.546l.342-.714c-2.852-.88-4.274-2.487-3.394-4.323 1.333-2.782 7.438-5.037 13.638-5.037 3.203 0 5.803.603 7.385 1.57.239-.006.48-.009.719-.009h8.258l-.008.008c.282.008.555.024.825.043l1.588-3.316c-1.113-.034-2.011-.277-2.554-.661-.983.414-2.217.675-3.451.675s-2.22-.26-2.805-.675c-.983.414-2.217.675-3.451.675-2.374 0-4.168-.703-3.603-1.883l16.779-.039.025-.053H153.83l-10.618 22.163c.238.063.454.145.623.255h-.745l-4.859 10.144z"/><linearGradient id="e" gradientUnits="userSpaceOnUse" x1="197.9895" y1="26.0411" x2="195.6417" y2="238.9107"><stop offset="0" style="stop-color:#202124"/><stop offset="1" style="stop-color:#202124;stop-opacity:0"/></linearGradient><path fill="url(#e)" d="M252.32 218.62c-2.174 4.538-7.909 8.25-13.099 8.597l-21.618 45.125h-79.591l31.059-64.83H248.662l-1.203 2.512c4.857.345 7.035 4.058 4.861 8.596z"/><radialGradient id="f" cx="179.0049" cy="31.6296" r="333.5695" gradientTransform="matrix(1 0 0 1.0961 0 6.2799)" gradientUnits="userSpaceOnUse"><stop offset="0" style="stop-color:#DADCE0"/><stop offset="1" style="stop-color:#6E7378"/></radialGradient><path fill="url(#f)" d="M248.671 77.12v130.374H169.08V77.12h79.591z"/><path fill="none" stroke="#FFF" stroke-width=".75" stroke-linecap="round" stroke-linejoin="round" stroke-miterlimit="10" d="M196.524 207.181V186.99c0-7.521 6.097-13.617 13.617-13.617h.313c7.521 0 13.617 6.097 13.617 13.617v20.191M203.024 115.273v-7.826c0-7.521-6.097-13.617-13.617-13.617h-.313c-7.521 0-13.617 6.097-13.617 13.617v7.826h27.547zM243.168 115.273v-7.826c0-7.521-6.097-13.617-13.617-13.617h-.313c-7.521 0-13.617 6.097-13.617 13.617v7.826h27.547zM203.061 162.964v-7.826c0-7.521-6.097-13.617-13.617-13.617h-.313c-7.521 0-13.617 6.097-13.617 13.617v7.826h27.547zM243.205 162.964v-7.826c0-7.521-6.097-13.617-13.617-13.617h-.313c-7.521 0-13.617 6.097-13.617 13.617v7.826h27.547z"/><path fill="#FFF" d="M169.081 127.791h79.591v.75h-79.591zM169.081 133.608h79.591v.75h-79.591zM169.081 83.3h79.591v.75h-79.591z"/><radialGradient id="g" cx="171.1739" cy="111.9255" r="280.5205" gradientUnits="userSpaceOnUse"><stop offset="0" style="stop-color:#DADCE0"/><stop offset="1" style="stop-color:#6E7378"/></radialGradient><path fill="url(#g)" d="M35.238 141.935h118.603v65.485H35.238z"/><path fill="none" stroke="#FFF" stroke-width=".75" stroke-linecap="round" stroke-linejoin="round" stroke-miterlimit="10" d="M158.319 162.337h0c-1.031-1.031-2.703-1.031-3.734 0h0c-1.031 1.031-2.703 1.031-3.734 0h0c-1.031-1.031-2.703-1.031-3.734 0h0c-1.031 1.031-2.703 1.031-3.734 0h0c-1.031-1.031-2.703-1.031-3.734 0h0c-1.031 1.031-2.703 1.031-3.734 0h0c-1.031-1.031-2.703-1.031-3.734 0h0c-1.031 1.031-2.703 1.031-3.734 0h0c-1.031-1.031-2.703-1.031-3.734 0h0c-1.031 1.031-2.703 1.031-3.734 0h0c-1.031-1.031-2.703-1.031-3.734 0h0c-1.031 1.031-2.703 1.031-3.734 0h0c-1.031-1.031-2.703-1.031-3.734 0h0c-1.031 1.031-2.703 1.031-3.734 0h0c-1.031-1.031-2.703-1.031-3.734 0h0c-1.031 1.031-2.703 1.031-3.734 0h0c-1.031-1.031-2.703-1.031-3.734 0h0c-1.031 1.031-2.703 1.031-3.734 0h0c-1.031-1.031-2.703-1.031-3.734 0h0c-1.031 1.031-2.703 1.031-3.734 0h0c-1.031-1.031-2.703-1.031-3.734 0h0c-1.031 1.031-2.703 1.031-3.734 0h0c-1.031-1.031-2.703-1.031-3.734 0h0c-1.031 1.031-2.703 1.031-3.734 0h0M98.474 194.491v-7.026c0-6.752-5.474-12.226-12.226-12.226h-.281c-6.752 0-12.226 5.474-12.226 12.226v7.026h24.733zM63.062 194.491v-7.026c0-6.752-5.474-12.226-12.226-12.226h-.281c-6.752 0-12.226 5.474-12.226 12.226v7.026h24.733zM153.841 168.635H68.402"/><path fill="none" stroke="#FFF" stroke-width=".75" stroke-linecap="round" stroke-linejoin="round" stroke-miterlimit="10" d="M97.912 142.216l-29.791 19.955v45.811M91.729 146.151H34.957"/><path fill="none" stroke="#FFF" stroke-width=".75" stroke-linejoin="round" stroke-miterlimit="10" d="M110.278 207.42v-18.128c0-6.752 5.474-12.226 12.226-12.226h.281c6.752 0 12.226 5.474 12.226 12.226v18.128"/><path fill="#34A853" d="M11.489 181.281v-1.435c0-6.16 4.993-11.153 11.153-11.153 4.902 0 9.063 3.164 10.558 7.561.197-.011.395-.018.595-.018 5.725 0 10.365 4.641 10.365 10.365 0 5.537-4.342 10.059-9.805 10.35l.004.016h-8.258c-.239 0-.478-.006-.715-.018-2.045 1.943-4.934 3.156-8.137 3.156-6.199 0-11.225-4.535-11.225-10.13 0-3.694 2.192-6.924 5.465-8.694z"/><path fill="none" stroke="#70757A" stroke-linecap="round" stroke-miterlimit="10" d="M22.713 181.782l4.554 24.082M24.605 191.802l11.434-3.727M23.799 188.075l-5.652-.883"/><path fill="#34A853" d="M18.44 207.476c0-2.373 2.131-3.972 4.505-3.972 1.234 0 2.343.524 3.128 1.356.784-.833 1.894-1.356 3.128-1.356 1.234 0 2.343.524 3.128 1.356.784-.833 1.894-1.356 3.128-1.356.095 0 .188.009.282.015v-.015c0-4.637 3.759-8.396 8.396-8.396 4.307 0 7.855 3.245 8.338 7.423.18-.02.361-.031.546-.031 2.749 0 4.976 2.227 4.976 4.976H18.44z"/><ellipse fill="#34A853" cx="248.69" cy="185.286" rx="9.744" ry="17.356"/><path fill="none" stroke="#70757A" stroke-linecap="round" stroke-linejoin="round" stroke-miterlimit="10" d="M248.69 198.74v8.885"/><path fill="#FFF" d="M41.117 195.676c-.251.097-.496.205-.735.325 1.16 1.212 3.987 4.815 3.962 11.144l-7.192-8.3c-.146.218-.282.443-.408.675l6.894 7.956h1.438c.132-6.531-2.588-10.318-3.959-11.8zM23.248 203.536l-2.019 3.94h.843l1.956-3.817c-.252-.067-.512-.104-.78-.123zM30.477 207.476h1.034c-1.422-1.413-1.99-2.962-2.213-3.962-.033-.001-.063-.01-.096-.01-.229 0-.448.036-.667.07.199.983.702 2.466 1.942 3.902zM33.35 204.083l4.01 3.392h1.161l-4.411-3.731c-.267.089-.52.202-.76.339z"/></svg>