<svg xmlns="http://www.w3.org/2000/svg" width="250" height="150"><path fill="#E8EAED" d="M123.027 125.805l-82.084 4.404c-2.032.113-3.754-1.44-3.867-3.472l-4.46-83.17c-.099-1.792 1.285-3.331 3.077-3.429l82.917-4.445c1.792-.099 3.331 1.285 3.429 3.077l4.46 83.156c.114 2.03-1.44 3.766-3.472 3.879z"/><path fill="#FFF" d="M36.166 43.569l81.25-4.361 3.104 57.827-81.25 4.361-3.104-57.827z"/><path fill="#4285F4" d="M107.601 77.495l-7.494-8.44-1.312-24.642-39.377 2.103c-2.371.127-4.192 2.159-4.065 4.53l2.639 49.355 43.681-2.328-1.045-19.604 6.718-.353c.284-.028.439-.381.255-.621z"/><radialGradient id="a" cx="21.5978" cy="142.3849" r="47.8793" gradientTransform="rotate(-3.032 -1860.35412 -466.4763)" gradientUnits="userSpaceOnUse"><stop offset="0" style="stop-color:#FFFFFF"/><stop offset=".9327" style="stop-color:#FFFFFF;stop-opacity:0.0673"/><stop offset="1" style="stop-color:#FFFFFF;stop-opacity:0"/></radialGradient><path opacity=".4" fill="url(#a)" d="M107.601 77.495l-7.494-8.44-1.312-24.642-39.377 2.103c-2.371.127-4.192 2.159-4.065 4.53l2.639 49.355 43.681-2.328-1.045-19.604 6.718-.353c.284-.028.439-.381.255-.621z"/><path fill="#FFF" d="M63.77303 46.28559l.35347-.01944 2.94956 53.64541-.35347.01944zM93.737 79.955l-.355.02.2 3.744-15.81.837-.21-3.98-.354.02.986 18.714.354-.018-.757-14.382 8.462-.448.768 14.395.316-.017-.767-14.394 7.031-.372.769 14.375.354-.02z"/><path fill="#EAEAEA" d="M110.472 78.259l.147 1.108c.078.699-.412 1.292-1.092 1.325h-.006c-.68.034-1.294-.505-1.37-1.204.078.699-.412 1.292-1.092 1.325h-.006c-.68.034-1.294-.505-1.37-1.204.078.699-.412 1.292-1.092 1.325h-.006c-.68.034-1.294-.505-1.37-1.204.078.699-.412 1.292-1.092 1.325h-.006c-.68.034-1.294-.505-1.37-1.204.078.699-.412 1.292-1.092 1.325h-.005c-.68.034-1.294-.505-1.37-1.204.078.699-.412 1.292-1.092 1.325h-.006c-.68.034-1.294-.505-1.37-1.204.078.699-.412 1.292-1.092 1.325h-.006c-.68.034-1.294-.505-1.37-1.204.078.699-.412 1.292-1.092 1.325h-.006c-.68.034-1.294-.505-1.37-1.204.078.699-.412 1.292-1.092 1.325h-.006c-.68.034-1.294-.505-1.37-1.204.078.699-.412 1.292-1.092 1.325h-.006c-.68.034-1.294-.505-1.37-1.204.078.699-.412 1.292-1.092 1.325h-.006c-.68.034-1.294-.505-1.37-1.204.078.699-.412 1.292-1.092 1.325h-.006c-.68.034-1.294-.505-1.37-1.204.078.699-.412 1.292-1.092 1.325h-.006c-.68.034-1.294-.505-1.37-1.204.078.699-.412 1.292-1.092 1.325h-.006c-.68.034-1.294-.505-1.37-1.204l-.121-1.108 34.525-1.694z"/><path fill="#EAEAEA" d="M110.499 78.281l-2.083.079-32.474 1.602L65.83 68.997c-.309-.444-.052-1.033.463-1.059l33.704-1.662 10.5 11.981"/><path fill="#DADCE0" d="M100.628 78.745L89.59 66.79l4.931-.243 11.038 11.954zM90.756 79.232L79.717 67.277l4.931-.243L95.687 78.99zM80.882 79.719l-11.04-11.954 4.933-.244 11.038 11.956zM80.882 79.719l.126 1.135c.09.684.696 1.209 1.366 1.177h.006c.68-.034 1.168-.626 1.092-1.325.078.699.69 1.238 1.37 1.204h.006c.661-.032 1.139-.594 1.095-1.267l-.128-1.166-4.933.242zM90.756 79.232l.126 1.135c.09.684.696 1.209 1.366 1.177h.006c.68-.034 1.169-.626 1.092-1.325.078.699.69 1.238 1.37 1.204h.006c.661-.032 1.139-.594 1.095-1.267l-.128-1.166-4.933.242z"/><path fill="#DADCE0" d="M100.626 78.745l.126 1.135c.09.684.696 1.209 1.366 1.177h.006c.68-.034 1.169-.626 1.092-1.325.078.699.69 1.238 1.37 1.204h.006c.661-.032 1.139-.594 1.095-1.267l-.128-1.166-4.933.242z"/><linearGradient id="b" gradientUnits="userSpaceOnUse" x1="85.5661" y1="172.7144" x2="86.9928" y2="187.3033" gradientTransform="matrix(1 0 .0609 1 -4.8602 -106)"><stop offset="0" style="stop-color:#202124"/><stop offset="1" style="stop-color:#202124;stop-opacity:0"/></linearGradient><path fill="url(#b)" d="M110.62 79.367c.078.699-.412 1.292-1.092 1.325h-.006c-.68.034-1.294-.505-1.37-1.204.078.699-.412 1.292-1.092 1.325h-.006c-.68.034-1.294-.505-1.37-1.204.078.699-.412 1.292-1.092 1.325h-.006c-.68.034-1.294-.505-1.37-1.204.078.699-.412 1.292-1.092 1.325h-.006c-.68.034-1.294-.505-1.37-1.204.078.699-.412 1.292-1.092 1.325h-.006c-.68.034-1.294-.505-1.37-1.204.078.699-.412 1.292-1.092 1.325h-.006c-.68.034-1.294-.505-1.37-1.204.078.699-.412 1.292-1.092 1.325h-.006c-.68.034-1.294-.505-1.37-1.204.078.699-.412 1.292-1.092 1.325h-.006c-.68.034-1.294-.505-1.37-1.204.078.699-.412 1.292-1.092 1.325h-.004c-.68.034-1.294-.505-1.37-1.204.078.699-.412 1.292-1.092 1.325h-.006c-.68.034-1.294-.505-1.37-1.204.078.699-.412 1.292-1.092 1.325h-.006c-.68.034-1.294-.505-1.37-1.204.078.699-.412 1.292-1.092 1.325h-.006c-.68.034-1.294-.505-1.37-1.204.078.699-.412 1.292-1.092 1.325h-.006c-.68.034-1.294-.505-1.37-1.204.078.699-.412 1.292-1.092 1.325h-.013c-.68.034-1.294-.505-1.37-1.204l-.121-1.108 34.554-1.705.124 1.119z"/><path fill="#DADCE0" d="M75.564 99.469s-1.99-4.954-7.466-4.658c-1.538.085-2.992.565-4.29 1.214-1.51-2.103-4.29-4.192-9.371-3.924-9.908.522-11.136 9.075-11.136 9.075l32.263-1.707z"/><path fill="#FFF" d="M93.954 57.849l-21.82 7.452c-.254.085-.48-.056-.494-.325l-.508-9.583c-.014-.268.184-.55.451-.635l21.82-7.438c.254-.085.48.056.494.325l.508 9.583c.014.254-.183.536-.451.621z"/><linearGradient id="c" gradientUnits="userSpaceOnUse" x1="52.3918" y1="165.2515" x2="52.3918" y2="151.9315" gradientTransform="rotate(-3.032 -1860.35412 -466.4763)"><stop offset=".1061" style="stop-color:#202124;stop-opacity:0.1"/><stop offset="1" style="stop-color:#202124;stop-opacity:0"/></linearGradient><path fill="url(#c)" d="M93.954 57.849l-21.82 7.452c-.254.085-.48-.056-.494-.325l-.508-9.583c-.014-.268.184-.55.451-.635l21.82-7.438c.254-.085.48.056.494.325l.508 9.583c.014.254-.183.536-.451.621z"/><path fill="#4285F4" d="M83.68064 90.24869l1.01458-.05365.17735 3.3543-1.01458.05365zM86.96857 90.06574l1.01458-.05365.17736 3.3543-1.01458.05365z"/><path fill="#EAEAEA" d="M70.878 99.695l2.251-3.342c-.113-.085-.226-.171-.333-.249l-2.44 3.633.522-.042zM69.17 99.78l-2.314-4.826c-.141.029-.282.056-.409.085l2.286 4.77c0-.001.437-.029.437-.029zM47.789 94.205c1.722 1.877 3.867 4.234 5.829 6.407l.536-.029c-1.835-2.047-4.135-4.573-6.012-6.62-.127.087-.241.158-.353.242zM58.162 92.385l-1.99 8.101.437-.029 1.948-7.974c-.127-.042-.254-.071-.395-.098zM63.539 95.659l-4.502 4.671.607-.028 4.15-4.304z"/><linearGradient id="d" gradientUnits="userSpaceOnUse" x1="273.0993" y1="26.6385" x2="88.473" y2="177.1659" gradientTransform="translate(0 -64)"><stop offset="0" style="stop-color:#202124"/><stop offset="1" style="stop-color:#202124;stop-opacity:0"/></linearGradient><path fill="url(#d)" d="M126.499 121.938l-3.698-68.916C90.862 75.519 70.455 89.915 36.428 113.88l64.936 13.083 21.65-1.157c2.045-.114 3.599-1.85 3.485-3.868z"/><path fill="#E8EAED" d="M189.008 129.884l-78.809-23.372c-1.948-.579-3.048-2.625-2.484-4.573l23.682-79.826c.508-1.722 2.328-2.709 4.05-2.188l79.614 23.612c1.722.508 2.709 2.328 2.188 4.05l-23.668 79.84c-.593 1.92-2.64 3.035-4.573 2.457z"/><path fill="#FFF" d="M134.723 23.302l78.003 23.132-16.463 55.515-78.003-23.132 16.463-55.515z"/><path fill="#4285F4" d="M75.296 61.155l-.086-.288c.038-.011 2.872-.881 4.165-2.985-.727-.687-1.139-1.612-1.139-2.333-.009-.912.476-1.265.931-1.289.489-.029 1.057.334 1.118.964.094 1.007-.128 1.868-.525 2.594.222.185.47.345.742.466.796.36 2.054.509 3.528-.8.836-.744 1.382-1.441 1.726-2.058-.825-.649-1.059-1.684-.859-2.379.117-.411.379-.664.715-.696.329-.029.638.195.812.592.237.543.226 1.383-.275 2.389.779.473 2.429.806 5.552-1.097l.157.257c-3.229 1.969-4.996 1.616-5.851 1.106-.37.652-.942 1.366-1.777 2.11-1.245 1.105-2.612 1.408-3.851.851-.282-.127-.542-.289-.774-.476-1.369 2.171-4.27 3.06-4.309 3.072zm3.922-6.596c-.011 0-.023 0-.034.002-.411.023-.652.391-.646.987 0 .621.364 1.438.994 2.062.35-.668.542-1.449.456-2.357-.043-.424-.426-.694-.77-.694zm6.455-1.911c-.011 0-.021 0-.031.002-.284.027-.408.312-.456.478-.164.57.034 1.46.711 2.024.457-.954.424-1.695.251-2.089-.114-.259-.293-.415-.475-.415z"/><path fill="#FBBC04" d="M185.889 98.877l12.801-43.399-47.238-13.93-12.801 43.399"/><path fill="#FBBC04" d="M195.641 73.572l-.339 1.186-2.202-.649-.155.508 2.202.649-3.288 11.136-2.456-.72-.141.508 2.456.72-.367 1.228 6.436 1.891 4.29-14.551-6.436-1.906z"/><path fill="none" stroke="#FFF" stroke-width=".3214" stroke-miterlimit="10" d="M177.535 72.433l11.113 3.279-5.075 17.205-11.113-3.279 5.075-17.205zM158.466 90.79l5.363-18.178c.635-2.146 2.964-3.345 5.194-2.682h0c2.244.664 3.543 2.936 2.907 5.081l-5.363 18.178M149.382 64.12l11.113 3.279-5.075 17.205-11.113-3.279 5.075-17.205zM197.956 57.948l-47.238-13.916M146.527 58.258l47.238 13.987"/><path fill="none" stroke="#FFF" stroke-width=".355" stroke-miterlimit="10" d="M140.147 80.049l19.73 5.942"/><path fill="none" stroke="#FFF" stroke-width=".3214" stroke-miterlimit="10" d="M167.993 88.32l19.335 5.702"/><path fill="#FFF" d="M150.684 44.148l47.242 13.934-4.141 14.037-47.242-13.934 4.141-14.037z"/><linearGradient id="e" gradientUnits="userSpaceOnUse" x1="177.192" y1="107.242" x2="170.188" y2="128.2536" gradientTransform="translate(0 -64)"><stop offset=".1061" style="stop-color:#202124;stop-opacity:0.1"/><stop offset="1" style="stop-color:#202124;stop-opacity:0"/></linearGradient><path fill="url(#e)" d="M193.778 72.118l-47.238-13.93 4.135-14.029 47.251 13.93-4.148 14.029z"/><path fill="none" stroke="#FBBC04" stroke-width=".3635" stroke-miterlimit="10" d="M149.716 53.813s12.377.917 13.294-2.964c.592-2.541-9.597 4.093-2.202 6.365 5.786 1.778 11.319-3.783 11.135.085-.211 4.361 8.369.903 7.988.014-.522-1.2-7.452 2.512-3.543 5.109 3.909 2.611 13.013-5.589 13.987-.72s3.119 3.853 3.119 3.853"/><ellipse transform="rotate(-73.68 135.7107 58.99811)" fill="#F1F3F4" cx="135.711" cy="58.997" rx="14.664" ry="8.228"/><path fill="none" stroke="#DADCE0" stroke-width=".6432" stroke-linecap="round" stroke-miterlimit="10" d="M135.941 58.244L129.04 81.8M132.977 68.392l-2.597-8.341"/></svg>