<?xml version="1.0" encoding="utf-8"?>
<!-- Generator: Adobe Illustrator 22.1.0, SVG Export Plug-In . SVG Version: 6.00 Build 0)  -->
<svg version="1.1" id="Layer_1" xmlns="http://www.w3.org/2000/svg"  x="0px" y="0px"
	 width="114px" height="114px" viewBox="0 0 114 114" enable-background="new 0 0 114 114" xml:space="preserve">
<linearGradient id="SVGID_1_" gradientUnits="userSpaceOnUse" x1="29.4857" y1="105.943" x2="57.9481" y2="105.943" gradientTransform="matrix(1 0 0 -1 0 116)">
	<stop  offset="0" style="stop-color:#9FC1F9"/>
	<stop  offset="1" style="stop-color:#9FC1F9;stop-opacity:0"/>
</linearGradient>
<path fill="url(#SVGID_1_)" d="M57.34,10.5C55.31,2.95,47.54-1.54,39.99,0.49s-12.04,9.79-10.02,17.35l0.62,2.28l27.35-7.6
	L57.34,10.5z"/>
<path fill="#9FC1F9" d="M44.78,16.84L44.78,16.84c-1.63,0.5-3.35-0.42-3.85-2.05l-0.99-3.25C39.45,9.91,40.37,8.19,42,7.7h0
	c1.63-0.5,3.35,0.42,3.84,2.05l0.99,3.25C47.33,14.62,46.41,16.34,44.78,16.84z"/>
<path fill="#2C66BF" d="M60.41,15.67l-4.48,0.7c-7.03,1.09-13.9,3.04-20.45,5.8l-5.1,2.15l-0.84-2.92
	c-0.19-0.64,0.14-1.32,0.76-1.58l3.84-1.62c6.55-2.77,13.41-4.73,20.43-5.83l3.54-0.56c0.66-0.1,1.29,0.3,1.48,0.94L60.41,15.67z"/>
<path fill="#6199F6" d="M6.82,37.93c-0.18-0.65,0.02-1.41,0.68-1.87l6.41-4.47c9.46-6.59,20-11.49,31.14-14.47l0,0
	c11.14-2.98,22.71-4.01,34.2-3.04l7.79,0.66c0.81,0.07,1.35,0.62,1.53,1.28l-40.9,9.8L6.82,37.93z"/>
<path fill="#80ADF7" d="M6.82,37.93c0.18,0.65,0.72,1.21,1.53,1.28l7.79,0.66c11.49,0.98,23.06-0.05,34.2-3.04l0,0
	c11.14-2.98,21.67-7.88,31.14-14.47l6.41-4.47c0.67-0.46,0.86-1.22,0.68-1.87L54.59,23.3c-5.11,1.09-10.16,2.45-15.12,4.06
	L6.82,37.93z"/>
<linearGradient id="SVGID_2_" gradientUnits="userSpaceOnUse" x1="-883.3064" y1="-307.7017" x2="-868.8289" y2="-225.5957" gradientTransform="matrix(0.9659 -0.2588 -0.2588 -0.9659 844.1403 -412.5055)">
	<stop  offset="0" style="stop-color:#FFFFFF;stop-opacity:0"/>
	<stop  offset="0.0594" style="stop-color:#F3F4F6;stop-opacity:0.0518"/>
	<stop  offset="0.1589" style="stop-color:#E8E9EC;stop-opacity:0.1385"/>
	<stop  offset="0.2991" style="stop-color:#E1E3E7;stop-opacity:0.2607"/>
	<stop  offset="0.6883" style="stop-color:#DFE1E5;stop-opacity:0.6"/>
	<stop  offset="0.8424" style="stop-color:#E1E3E7;stop-opacity:0.3034"/>
	<stop  offset="0.9163" style="stop-color:#E9EAED;stop-opacity:0.1611"/>
	<stop  offset="0.973" style="stop-color:#F6F6F7;stop-opacity:0.052"/>
	<stop  offset="1" style="stop-color:#FFFFFF;stop-opacity:0"/>
</linearGradient>
<path fill="url(#SVGID_2_)" d="M103.49,102.09l-4.72,2.38c-16.2,8.18-34.53,11.2-52.5,8.65l-6.44-0.91c-4.05-0.57-7-4.11-6.85-8.2
	l2.52-66.12l28.81-7.72l41.04,65.2C106.83,97.72,105.97,100.83,103.49,102.09z"/>
<linearGradient id="SVGID_3_" gradientUnits="userSpaceOnUse" x1="-882.7628" y1="-240.1056" x2="-882.7628" y2="-227.4726" gradientTransform="matrix(0.9659 -0.2588 -0.2588 -0.9659 844.1403 -412.5055)">
	<stop  offset="0.0498" style="stop-color:#FFFFFF;stop-opacity:0.4"/>
	<stop  offset="0.5648" style="stop-color:#F9F9FA;stop-opacity:0.1832"/>
	<stop  offset="1" style="stop-color:#EFF0F2;stop-opacity:0"/>
</linearGradient>
<path fill="url(#SVGID_3_)" d="M64.76,31.82c1.81,6.74-3.18,13.93-11.14,16.06c-7.96,2.13-15.87-1.6-17.68-8.34"/>
<linearGradient id="SVGID_4_" gradientUnits="userSpaceOnUse" x1="502.5748" y1="265.0923" x2="526.9503" y2="265.0923" gradientTransform="matrix(0.9909 0.1349 0.1349 -0.9909 -480.7085 294.1642)">
	<stop  offset="0" style="stop-color:#CDD0D5;stop-opacity:0"/>
	<stop  offset="1" style="stop-color:#BABFC5;stop-opacity:0.6"/>
</linearGradient>
<ellipse fill="url(#SVGID_4_)" cx="65.13" cy="100.93" rx="12.3" ry="1.11"/>
<circle opacity="0.5" fill="#FFFFFF" enable-background="new    " cx="47.67" cy="3.84" r="1.87"/>
<linearGradient id="SVGID_5_" gradientUnits="userSpaceOnUse" x1="367.244" y1="-1057.39" x2="365.5551" y2="-1052.75" gradientTransform="matrix(0.9829 -0.0617 0.0617 -0.7777 -244.2996 -763.9541)">
	<stop  offset="1.800000e-03" style="stop-color:#6199F6;stop-opacity:0"/>
	<stop  offset="1" style="stop-color:#6199F6"/>
</linearGradient>
<path fill="url(#SVGID_5_)" d="M67.5,29.3c0.23,0.84-7.09,3.6-16.35,6.17s-16.96,3.98-17.19,3.14c-0.23-0.84,7.09-3.6,16.35-6.17
	S67.27,28.46,67.5,29.3z"/>
<path fill="#F57F17" d="M61.59,77.15c0.57,1.22,2.03,1.75,3.25,1.18c1.22-0.57,1.75-2.03,1.18-3.25c-0.19-0.4-0.47-0.73-0.82-0.97
	l-3.84,1.79C61.33,76.32,61.4,76.75,61.59,77.15z"/>
<path fill="#F2A600" d="M52.92,57.12c-3.13,2.39-4.29,6.71-2.56,10.42l3.36,7.21l-1.48,4.06l0.52,1.11l10.53-4.91L54.5,56.16
	C53.93,56.43,53.4,56.75,52.92,57.12z"/>
<path fill="#F6BF26" d="M69.24,67.51l-3.36-7.21c-1.73-3.72-5.79-5.6-9.63-4.74c-0.59,0.13-1.18,0.33-1.75,0.6l8.79,18.85
	l10.53-4.91l-0.52-1.11L69.24,67.51z M56.25,55.57l-0.34-0.73c-0.43-0.92-1.52-1.32-2.44-0.89c-0.92,0.43-1.32,1.52-0.89,2.44
	l0.34,0.73c0.48-0.37,1.01-0.69,1.58-0.96C55.07,55.9,55.66,55.7,56.25,55.57z"/>
<path fill="#BF360C" fill-opacity="0.2" d="M64.78,78.2c-1.21,0.56-2.63,0.06-3.22-1.13c0.01,0.03,0.02,0.06,0.04,0.08
	c0.57,1.22,2.03,1.75,3.25,1.18c1.22-0.57,1.75-2.03,1.18-3.25C66.01,75.06,66,75.03,65.98,75C66.51,76.21,65.98,77.63,64.78,78.2
	L64.78,78.2z"/>
<path fill="#FFFFFF" fill-opacity="0.2" d="M53.72,74.75l-1.48,4.06l0.06,0.14l1.48-4.06L53.72,74.75z M69.24,67.51l0.06,0.14
	l4.06,1.48l-0.06-0.14L69.24,67.51z"/>
<path fill="#BF360C" fill-opacity="0.2" d="M65.14,73.98l-12.45,5.81l0.06,0.14l21.06-9.82l-0.06-0.14l-2.77,1.29L65.14,73.98z"/>
<path opacity="0.2" fill="#FFFFFF" enable-background="new    " d="M53.53,54.08c0.92-0.43,2.01-0.03,2.44,0.89l-0.06-0.14
	c-0.43-0.92-1.52-1.32-2.44-0.89c-0.92,0.43-1.32,1.52-0.89,2.44l0.06,0.14C52.22,55.6,52.61,54.51,53.53,54.08z"/>
<path opacity="0.2" fill="#BF360C" fill-opacity="0.2" enable-background="new    " d="M54.36,56.23l8.79,18.84l0.14-0.06
	L54.5,56.16C54.45,56.19,54.41,56.21,54.36,56.23z"/>
<path fill="#FFFFFF" fill-opacity="0.05" d="M54.64,56.1l8.79,18.84l-0.14,0.06L54.5,56.16C54.55,56.14,54.6,56.12,54.64,56.1z"/>
<path fill="#FFFFFF" fill-opacity="0.2" d="M52.99,57.26c0.48-0.37,1.01-0.69,1.58-0.96c0.57-0.27,1.16-0.46,1.75-0.6
	c3.84-0.86,7.9,1.02,9.63,4.74l-0.06-0.14c-1.73-3.72-5.79-5.6-9.63-4.74c-0.59,0.13-1.18,0.33-1.75,0.6
	c-0.57,0.27-1.1,0.59-1.58,0.96c-3.13,2.39-4.29,6.71-2.56,10.42l0.06,0.14C48.69,63.97,49.86,59.65,52.99,57.26z"/>
<path fill="none" d="M61.59,77.15c0.57,1.22,2.03,1.75,3.25,1.18c1.22-0.57,1.75-2.03,1.18-3.25c-0.19-0.4-0.47-0.73-0.82-0.97
	l-3.84,1.79C61.33,76.32,61.4,76.75,61.59,77.15z"/>
<path fill="none" d="M39.65,59.04l26.61-12.41l12.41,26.61L52.05,85.65L39.65,59.04z"/>
</svg>
