<svg xmlns="http://www.w3.org/2000/svg" width="260" height="260"><linearGradient id="a" gradientUnits="userSpaceOnUse" x1="-393.7545" y1="164.2184" x2="-393.7545" y2="74.4593" gradientTransform="rotate(180 -150.97825 130)"><stop offset="0" style="stop-color:#DADCE0"/><stop offset="1" style="stop-color:#FFFFFF;stop-opacity:0"/></linearGradient><path fill="url(#a)" d="M169.763 182.981l-24.235-37.637c-7.61-10.494-20.282-15.153-31.966-11.242-.488.163-.983.339-1.483.528-16.764 6.316-27.942-27.743-46.558-30.726-22.617-3.624-29.46 16.495-29.46 16.495l-22.227 62.587 155.929-.005z"/><path fill="#FFF" d="M50.82 113.233c6.906-.53 14.257 2.168 18.737 6.877 2.445 2.57 3.445 4.729 3.056 6.601-.606 2.922-4.502 5.123-10.167 7.528-2.473 1.049-4.154 2.948-4.614 5.208-.389 1.918.16 3.817 1.507 5.208 1.176 1.214 3.459 1.736 5.947 1.736 1.959 0 4.044-.324 5.813-.888l36.395-10.104c-.549-.022-1.094-.088-1.634-.189l-34.938 9.7c-3.866 1.233-9.264 1.251-11.138-.686-1.203-1.242-1.693-2.94-1.345-4.655.417-2.058 1.966-3.794 4.248-4.762 5.844-2.48 9.872-4.785 10.532-7.971.432-2.086-.619-4.425-3.214-7.153-4.603-4.839-12.146-7.613-19.233-7.068-4.21.324-10.018 1.943-14.639 7.583-.047.126-.073.2-.073.2l-.601 1.693c.012-.012.026-.02.035-.034 4.636-6.676 10.894-8.483 15.326-8.824z"/><radialGradient id="b" cx="130.5744" cy="98.2411" r="126.0495" gradientTransform="matrix(1.0191 0 0 -.1487 -2.8466 237.2408)" gradientUnits="userSpaceOnUse"><stop offset="0" style="stop-color:#F1F3F4"/><stop offset=".8587" style="stop-color:#F1F3F4;stop-opacity:0.1413"/><stop offset="1" style="stop-color:#F1F3F4;stop-opacity:0"/></radialGradient><path fill="url(#b)" d="M.22 221.474h260v37H.22z"/><linearGradient id="c" gradientUnits="userSpaceOnUse" x1="185.9075" y1="164.833" x2="185.9075" y2="102.6156" gradientTransform="matrix(1 0 0 -1 0 260)"><stop offset="0" style="stop-color:#E6EBEF"/><stop offset=".4509" style="stop-color:#EEF2F4;stop-opacity:0.5491"/><stop offset="1" style="stop-color:#FFFFFF;stop-opacity:0"/></linearGradient><path fill="url(#c)" d="M222.392 129.327h-72.969c2.764-9.346 11.91-8.116 18.381-5.879 5.005 1.73 10.225 1.116 15.046-1.604l.741-.418c2.121-1.196 4.204-2.547 6.276-3.938 10.042-6.741 16.634-.724 19.884 3.963 1.585 2.286 3.743 3.308 5.875 2.8 2.6-.619 5.849-.22 6.766 5.076z"/><radialGradient id="d" cx="100.4375" cy="213.8443" r="333.5695" gradientTransform="matrix(1 0 0 -1.0961 0 289.3439)" gradientUnits="userSpaceOnUse"><stop offset="0" style="stop-color:#DADCE0"/><stop offset="1" style="stop-color:#6E7378"/></radialGradient><path fill="url(#d)" d="M170.104 91.12v130.374H90.513V91.12h79.591z"/><path fill="#FFF" d="M145.504 221.556c-.207 0-.375-.168-.375-.375v-20.19c0-7.302-5.94-13.242-13.242-13.242h-.313c-7.301 0-13.241 5.94-13.241 13.242v20.19c0 .207-.168.375-.375.375s-.375-.168-.375-.375v-20.19c0-7.715 6.276-13.992 13.991-13.992h.313c7.715 0 13.992 6.277 13.992 13.992v20.19c0 .207-.168.375-.375.375zM124.457 127.666H96.909c-.207 0-.375-.168-.375-.375v-7.826c0-7.715 6.277-13.992 13.992-13.992h.313c7.715 0 13.992 6.277 13.992 13.992v7.826c.001.207-.167.375-.374.375zm-27.173-.75h26.798v-7.451c0-7.301-5.94-13.242-13.242-13.242h-.313c-7.302 0-13.242 5.94-13.242 13.242v7.451zM164.601 127.666h-27.547c-.207 0-.375-.168-.375-.375v-7.826c0-7.715 6.277-13.992 13.992-13.992h.312c7.715 0 13.992 6.277 13.992 13.992v7.826c.001.207-.167.375-.374.375zm-27.172-.75h26.797v-7.451c0-7.301-5.94-13.242-13.242-13.242h-.312c-7.302 0-13.242 5.94-13.242 13.242v7.451zM124.493 177.339H96.946c-.207 0-.375-.168-.375-.375v-7.826c0-7.715 6.277-13.991 13.992-13.991h.313c7.715 0 13.991 6.276 13.991 13.991v7.826c.001.207-.167.375-.374.375zm-27.172-.75h26.797v-7.451c0-7.301-5.94-13.241-13.241-13.241h-.313c-7.302 0-13.242 5.94-13.242 13.241v7.451zM164.638 177.339h-27.547c-.207 0-.375-.168-.375-.375v-7.826c0-7.715 6.277-13.991 13.992-13.991h.312c7.715 0 13.992 6.276 13.992 13.991v7.826c.001.207-.167.375-.374.375zm-27.172-.75h26.797v-7.451c0-7.301-5.94-13.241-13.242-13.241h-.312c-7.302 0-13.242 5.94-13.242 13.241v7.451zM90.514 141.791h79.591v.75H90.514zM90.514 147.608h79.591v.75H90.514zM90.514 97.3h79.591v.75H90.514zM78.772 217.536l-2.019 3.94h.843l1.956-3.817c-.252-.067-.512-.104-.78-.123zM86.001 221.476h1.034c-1.422-1.413-1.99-2.962-2.213-3.962-.033-.001-.063-.01-.096-.01-.229 0-.448.036-.667.07.199.983.702 2.466 1.942 3.902z"/><linearGradient id="e" gradientUnits="userSpaceOnUse" x1="115.8718" y1="238.3258" x2="115.8718" y2="134.5257"><stop offset="0" style="stop-color:#202124;stop-opacity:0"/><stop offset="1" style="stop-color:#202124"/></linearGradient><path fill="url(#e)" d="M168.892 224.024l1.203-2.512h-5.248l-90.899-.038c-.565 1.18 1.229 1.883 3.603 1.883 1.234 0 2.468-.261 3.451-.675.585.415 1.571.675 2.805.675s2.468-.261 3.451-.675c.512.362 1.348.592 2.375.647l-1.591 3.321c-.212-.014-.423-.027-.643-.034l.008-.008h-8.258c-.239 0-.48.003-.719.009-1.582-.967-4.182-1.57-7.385-1.57-6.2 0-12.305 2.255-13.638 5.037-.88 1.836.542 3.443 3.394 4.323l-.342.714c-1.468 3.063 2.336 5.546 8.496 5.546 4.902 0 9.816-1.574 12.359-3.76.195.005.391.009.591.009.415 0 .828-.021 1.241-.046l-10.414 21.737h79.591l8.331-17.39c5.19-.347 10.925-4.059 13.099-8.597 2.174-4.538-.004-8.251-4.861-8.596z"/><path fill="#4285F4" d="M178.394 25.928H82.222c-1.825 0-3.304 1.479-3.304 3.304v44.44c0 1.825 1.479 3.304 3.304 3.304h41.069l5.901 7.285c.575.71 1.657.71 2.232 0l5.901-7.285h41.069c1.825 0 3.304-1.479 3.304-3.304v-44.44c.001-1.824-1.479-3.304-3.304-3.304z"/><path fill="#FFF" d="M92.769 46.578h2.217l2.247 6.544.395 1.397h.121l.426-1.397 2.337-6.544h2.217l-3.962 10.871h-2.156l-3.842-10.871zM104.02 56.766l4.326-7.728-.046-.091h-4.783l.031-1.883h7.045v1.974l-4.905 8.654-1.668-.926zM115.346 57.692c-.395 0-.787-.056-1.177-.167s-.752-.283-1.086-.516-.625-.524-.873-.873c-.249-.35-.433-.767-.555-1.253l1.807-.698c.111.506.327.911.646 1.214.319.304.725.455 1.222.455.243 0 .468-.043.676-.129.207-.086.39-.205.546-.357s.279-.331.364-.539c.086-.207.129-.437.129-.691 0-.243-.043-.468-.129-.676s-.205-.39-.357-.547c-.151-.157-.331-.278-.539-.364s-.437-.129-.691-.129c-.315 0-.592.068-.836.205-.243.137-.45.306-.623.508l-1.928-.881.607-5.193h5.846v1.746h-4.191l-.395 2.429.122.03c.202-.172.45-.319.743-.44s.648-.182 1.063-.182c.435 0 .85.084 1.244.25.395.167.745.402 1.048.706.303.304.546.671.729 1.101.182.431.273.909.273 1.435 0 .516-.091.992-.273 1.427s-.438.81-.767 1.123c-.329.314-.719.56-1.169.737-.447.18-.939.269-1.476.269zM119.946 46.578h2.217l2.247 6.544.395 1.397h.121l.426-1.397 2.337-6.544h2.217l-3.962 10.871h-2.156l-3.842-10.871zM135.281 52.454h2.596v1.761h-2.596v2.581h-1.761v-2.581h-2.581v-1.761h2.581v-2.581h1.761v2.581zM143.1 57.692c-.557 0-1.065-.081-1.526-.243-.461-.162-.858-.382-1.191-.66-.335-.279-.592-.607-.775-.987-.182-.38-.273-.792-.273-1.238 0-.303.043-.587.129-.85s.202-.501.35-.714c.146-.212.317-.4.508-.562.193-.162.395-.298.608-.41v-.121c-.335-.223-.626-.516-.874-.881-.248-.364-.372-.79-.372-1.276 0-.415.086-.802.258-1.161s.41-.67.714-.934c.303-.263.663-.468 1.078-.615.414-.147.869-.22 1.366-.22.496 0 .951.073 1.366.22.415.147.774.352 1.078.615s.541.575.714.934c.172.36.257.747.257 1.161 0 .486-.124.911-.372 1.276s-.539.658-.873.881v.121c.213.112.415.248.607.41.193.162.362.35.509.562.146.213.263.451.348.714.085.263.129.546.129.85 0 .446-.091.858-.273 1.238-.182.38-.441.709-.774.987-.334.279-.732.498-1.191.66-.46.162-.969.243-1.525.243zm0-1.838c.516 0 .942-.134 1.275-.402.334-.268.501-.63.501-1.086 0-.213-.046-.408-.137-.585s-.215-.331-.372-.463c-.157-.131-.344-.232-.562-.303-.217-.071-.452-.106-.705-.106-.253 0-.488.035-.706.106-.217.071-.405.172-.561.303-.158.132-.282.286-.373.463s-.137.372-.137.585c0 .455.167.817.502 1.086.333.268.758.402 1.275.402zm0-4.691c.425 0 .779-.119 1.062-.357.284-.238.426-.549.426-.934 0-.395-.142-.706-.426-.934-.283-.228-.638-.342-1.062-.342-.426 0-.779.114-1.063.342-.283.228-.425.539-.425.934 0 .384.142.696.425.934.284.238.637.357 1.063.357zM156.065 57.206c-.354.152-.729.271-1.124.357-.394.086-.804.129-1.23.129-.81 0-1.561-.147-2.255-.441s-1.293-.696-1.799-1.207-.903-1.114-1.191-1.807c-.288-.693-.433-1.435-.433-2.225s.145-1.531.433-2.224c.288-.693.685-1.296 1.191-1.807.506-.511 1.106-.913 1.799-1.207.694-.294 1.445-.441 2.255-.441s1.561.147 2.255.441c.694.293 1.293.696 1.799 1.207.506.511.903 1.114 1.191 1.807.289.693.433 1.435.433 2.224 0 .84-.158 1.62-.471 2.338-.313.719-.754 1.336-1.321 1.852l.836 1.245-1.519 1.017-.849-1.258zm-2.307-3.462l1.519-1.033 1.184 1.792c.273-.314.488-.681.645-1.101s.235-.883.235-1.39c0-.557-.093-1.065-.281-1.526-.187-.461-.445-.853-.774-1.177-.329-.324-.714-.577-1.153-.759-.441-.182-.914-.273-1.42-.273s-.98.091-1.419.273c-.441.182-.825.435-1.154.759-.329.324-.587.716-.774 1.177-.187.461-.281.969-.281 1.526s.093 1.065.281 1.526c.187.461.445.853.774 1.177.329.324.714.577 1.154.759s.913.273 1.419.273c.222 0 .435-.02.638-.061.202-.04.4-.096.592-.167l-1.185-1.775zM164.218 57.692c-.425 0-.832-.056-1.222-.167s-.747-.281-1.07-.508c-.324-.228-.61-.514-.858-.858-.249-.344-.438-.744-.57-1.199l1.867-.744c.132.506.355.888.668 1.146.313.258.709.387 1.184.387.213 0 .415-.033.608-.099.192-.066.359-.159.501-.281.142-.121.255-.266.342-.433.086-.167.128-.357.128-.569 0-.445-.164-.795-.494-1.048-.328-.253-.782-.38-1.359-.38h-.895v-1.807h.82c.202 0 .399-.025.592-.076.192-.05.361-.129.508-.235.146-.106.263-.243.35-.41.086-.167.129-.362.129-.585 0-.344-.122-.625-.364-.843-.244-.217-.572-.326-.987-.326-.446 0-.788.119-1.025.357-.238.238-.402.504-.494.797l-1.822-.744c.091-.253.228-.514.41-.782s.412-.511.691-.729c.279-.218.605-.395.98-.531.374-.137.805-.205 1.29-.205.497 0 .949.071 1.359.212.411.142.763.337 1.056.585s.521.542.683.881.243.706.243 1.101c0 .303-.038.577-.113.82-.076.243-.175.461-.297.653-.121.192-.261.357-.417.494-.157.137-.317.245-.479.326v.121c.486.193.889.501 1.207.926.319.425.479.962.479 1.61 0 .455-.087.873-.258 1.252-.173.38-.417.711-.736.994-.319.283-.701.504-1.147.66-.445.158-.94.237-1.488.237z"/><path fill="#34A853" d="M66.975 195.317v-1.435c0-6.16 4.993-11.153 11.153-11.153 4.902 0 9.063 3.164 10.558 7.561.197-.011.395-.018.595-.018 5.725 0 10.365 4.641 10.365 10.365 0 5.537-4.342 10.059-9.805 10.35l.004.016h-8.258c-.239 0-.478-.006-.715-.018-2.045 1.943-4.934 3.156-8.137 3.156-6.199 0-11.225-4.535-11.225-10.13 0-3.694 2.192-6.924 5.465-8.694z"/><path fill="#70757A" d="M82.753 220.401c-.236 0-.445-.167-.491-.407l-4.554-24.082c-.051-.271.127-.533.398-.584.271-.051.533.127.584.398l4.554 24.082c.051.271-.127.533-.398.584-.031.006-.062.009-.093.009z"/><path fill="#70757A" d="M80.091 206.338c-.211 0-.407-.134-.476-.345-.085-.263.058-.545.321-.631l11.434-3.727c.263-.085.545.058.63.32s-.058.545-.321.631l-11.434 3.727c-.05.017-.103.025-.154.025zM79.285 202.612c-.025 0-.051-.002-.078-.006l-5.652-.883c-.273-.043-.459-.299-.417-.571s.295-.459.571-.417l5.652.883c.273.043.459.299.417.571-.037.247-.25.423-.493.423z"/><path fill="#34A853" d="M73.926 221.512c0-2.373 2.131-3.972 4.505-3.972 1.234 0 2.343.524 3.128 1.356.784-.833 1.894-1.356 3.128-1.356s2.343.524 3.128 1.356c.784-.833 1.894-1.356 3.128-1.356.095 0 .188.009.282.015v-.015c0-4.637 3.759-8.396 8.396-8.396 4.307 0 7.855 3.245 8.338 7.423.18-.02.361-.031.546-.031 2.749 0 4.976 2.227 4.976 4.976H73.926z"/><ellipse fill="#34A853" cx="170.332" cy="198.717" rx="9.744" ry="17.356"/><path fill="#70757A" d="M170.333 221.556c-.276 0-.5-.224-.5-.5v-8.885c0-.276.224-.5.5-.5s.5.224.5.5v8.885c0 .276-.224.5-.5.5z"/><path fill="#FFF" d="M96.603 209.712c-.251.097-.496.205-.735.325 1.16 1.212 3.987 4.815 3.962 11.144l-7.192-8.3c-.146.218-.282.443-.408.675l6.894 7.956h1.438c.132-6.531-2.588-10.318-3.959-11.8zM78.734 217.572l-2.019 3.94h.843l1.956-3.817c-.252-.067-.512-.104-.78-.123zM85.963 221.512h1.034c-1.422-1.413-1.99-2.962-2.213-3.962-.033-.001-.063-.01-.096-.01-.229 0-.448.036-.667.07.199.983.702 2.466 1.942 3.902zM88.836 218.119l4.01 3.392h1.161l-4.411-3.731c-.267.089-.52.202-.76.339z"/></svg>