<?xml version="1.0" encoding="utf-8"?>
<!-- Generator: Adobe Illustrator 23.0.3, SVG Export Plug-In . SVG Version: 6.00 Build 0)  -->
<svg version="1.1" id="Layer_1" xmlns="http://www.w3.org/2000/svg" xmlns:xlink="http://www.w3.org/1999/xlink" x="0px" y="0px"
	 width="80px" height="80px" viewBox="0 0 80 80" enable-background="new 0 0 80 80" xml:space="preserve">
<g>
	<g>
		<path fill="#FFFFFF" d="M57.13,43.25c-5.41,0-10.49-2.11-14.32-5.93c-7.9-7.9-7.9-20.74,0-28.64c3.82-3.82,8.91-5.93,14.32-5.93
			c5.41,0,10.5,2.11,14.32,5.93c7.9,7.9,7.9,20.74,0,28.64C67.63,41.14,62.54,43.25,57.13,43.25z"/>
		<path fill="#E0E1E5" d="M57.13,4C62,4,66.86,5.85,70.57,9.56c7.42,7.42,7.42,19.45,0,26.87C66.86,40.15,62,42,57.13,42
			s-9.73-1.85-13.44-5.56c-7.42-7.42-7.42-19.45,0-26.87C47.41,5.86,52.27,4,57.13,4 M57.13,1.5c-5.74,0-11.14,2.24-15.2,6.3
			c-8.38,8.38-8.38,22.02,0,30.41c4.06,4.06,9.46,6.3,15.2,6.3c5.74,0,11.14-2.24,15.2-6.3c8.38-8.38,8.38-22.02,0-30.41
			C68.28,3.74,62.88,1.5,57.13,1.5L57.13,1.5z"/>
	</g>
	
		<line fill="none" stroke="#E94435" stroke-width="2" stroke-linecap="round" stroke-linejoin="round" stroke-miterlimit="10" x1="56.31" y1="24.03" x2="65.82" y2="24.03"/>
	
		<line fill="none" stroke="#E94435" stroke-width="2" stroke-linecap="round" stroke-linejoin="round" stroke-miterlimit="10" x1="56.31" y1="24.03" x2="56.31" y2="11.84"/>
	<circle fill="#E0E1E5" cx="57.13" cy="7.22" r="1.29"/>
	<circle fill="#E0E1E5" cx="57.13" cy="38.78" r="1.29"/>
	<circle fill="#E0E1E5" cx="41.35" cy="23" r="1.29"/>
	
		<linearGradient id="SVGID_1_" gradientUnits="userSpaceOnUse" x1="-598.7603" y1="-511.427" x2="-580.4702" y2="-493.1369" gradientTransform="matrix(-0.3798 0.9251 -0.9251 -0.3798 -623.8654 374.5082)">
		<stop  offset="0" style="stop-color:#F1F3F4"/>
		<stop  offset="1" style="stop-color:#FFFFFF"/>
	</linearGradient>
	<path fill="url(#SVGID_1_)" d="M60.86,6.87c9.71,3.99,14.35,15.09,10.36,24.79c-1.74,4.23-4.83,7.5-8.57,9.51
		c5.25-1.61,9.76-5.47,12-10.95C78.64,20.52,74,9.42,64.29,5.43c-5.47-2.25-11.39-1.75-16.22,0.85C52.13,5.03,56.63,5.13,60.86,6.87
		z"/>
	<circle fill="#E0E1E5" cx="72.92" cy="23" r="1.29"/>
</g>
<path fill="#629FF9" d="M36.35,11.3l5.15,2.72c0.69,0.36,1.18,1.01,1.33,1.77l0.21,1c0.09,0.46,0.39,0.85,0.8,1.06L47,19.52
	c0.85,0.45,1.39,1.34,1.39,2.3v37.65c0,0.7-0.28,1.36-0.78,1.85l-3.41,3.36c-0.49,0.48-1.14,0.75-1.83,0.75h-10.9h-4.16h-10.9
	c-0.68,0-1.34-0.27-1.83-0.75l-3.41-3.36c-0.5-0.49-0.78-1.16-0.78-1.85V21.82c0-0.97,0.53-1.85,1.39-2.3l3.17-1.67
	c0.41-0.22,0.71-0.61,0.8-1.06l0.21-1c0.16-0.76,0.65-1.41,1.33-1.77l5.15-2.72c0.37-0.2,0.79-0.3,1.21-0.3h11.47
	C35.56,11,35.97,11.1,36.35,11.3z"/>
<rect x="10.56" y="42.45" fill="#4285F4" width="37.55" height="16.43"/>
<path fill="#1A73E8" d="M40.33,36.86h-4.05c-1.91,0-3.46-1.55-3.46-3.46v-5.52c0-1.91,1.55-3.46,3.46-3.46h4.05
	c1.91,0,3.46,1.55,3.46,3.46v5.52C43.79,35.31,42.24,36.86,40.33,36.86z"/>
<path fill="#1A73E8" d="M22.51,36.86h-4.05c-1.91,0-3.46-1.55-3.46-3.46v-5.52c0-1.91,1.55-3.46,3.46-3.46h4.05
	c1.91,0,3.46,1.55,3.46,3.46v5.52C25.97,35.31,24.42,36.86,22.51,36.86z"/>
<linearGradient id="SVGID_2_" gradientUnits="userSpaceOnUse" x1="20.4867" y1="24.416" x2="20.4867" y2="36.8614">
	<stop  offset="0" style="stop-color:#4285F4"/>
	<stop  offset="1" style="stop-color:#1967D2"/>
</linearGradient>
<path fill="url(#SVGID_2_)" d="M22.51,36.86h-4.05c-1.91,0-3.46-1.55-3.46-3.46v-5.52c0-1.91,1.55-3.46,3.46-3.46h4.05
	c1.91,0,3.46,1.55,3.46,3.46v5.52C25.97,35.31,24.42,36.86,22.51,36.86z"/>
<linearGradient id="SVGID_3_" gradientUnits="userSpaceOnUse" x1="38.3086" y1="24.416" x2="38.3086" y2="36.8614">
	<stop  offset="0" style="stop-color:#4285F4"/>
	<stop  offset="1" style="stop-color:#1967D2"/>
</linearGradient>
<path fill="url(#SVGID_3_)" d="M40.33,36.86h-4.05c-1.91,0-3.46-1.55-3.46-3.46v-5.52c0-1.91,1.55-3.46,3.46-3.46h4.05
	c1.91,0,3.46,1.55,3.46,3.46v5.52C43.79,35.31,42.24,36.86,40.33,36.86z"/>
<g>
	<circle fill="#FFFFFF" cx="27.47" cy="15.92" r="1.3"/>
	<circle fill="#FFFFFF" cx="31.33" cy="15.92" r="1.3"/>
</g>
<linearGradient id="SVGID_4_" gradientUnits="userSpaceOnUse" x1="16.4536" y1="54.8595" x2="16.4536" y2="48.962">
	<stop  offset="0" style="stop-color:#BDC1C6"/>
	<stop  offset="0.3223" style="stop-color:#D0D2D7"/>
	<stop  offset="0.6741" style="stop-color:#DDDEE2"/>
	<stop  offset="1" style="stop-color:#E1E2E6"/>
</linearGradient>
<circle fill="url(#SVGID_4_)" cx="16.45" cy="51.91" r="2.95"/>
<linearGradient id="SVGID_5_" gradientUnits="userSpaceOnUse" x1="42.3417" y1="54.8595" x2="42.3417" y2="48.962">
	<stop  offset="0" style="stop-color:#BDC1C6"/>
	<stop  offset="0.3223" style="stop-color:#D0D2D7"/>
	<stop  offset="0.6741" style="stop-color:#DDDEE2"/>
	<stop  offset="1" style="stop-color:#E1E2E6"/>
</linearGradient>
<circle fill="url(#SVGID_5_)" cx="42.34" cy="51.91" r="2.95"/>
<g>
	<linearGradient id="SVGID_6_" gradientUnits="userSpaceOnUse" x1="29.3976" y1="58.1727" x2="29.3976" y2="80">
		<stop  offset="0" style="stop-color:#DADCE0"/>
		<stop  offset="0.3163" style="stop-color:#DFE1E4"/>
		<stop  offset="0.6844" style="stop-color:#EDEEF0"/>
		<stop  offset="1" style="stop-color:#FFFFFF"/>
	</linearGradient>
	<polygon fill="url(#SVGID_6_)" points="44.26,58.17 14.53,58.17 0,80 58.8,80 	"/>
</g>
<path fill="#FFFFFF" d="M37.77,58.17l7.58,11.38H13.31l7.58-11.38h-2.1L4.25,80h2.1l2.5-3.75H49.8L52.3,80h2.1L39.86,58.17H37.77z
	 M48.75,74.66H9.9l2.35-3.53H46.4L48.75,74.66z"/>
<g>
	<path fill="#686C71" d="M10.4,58.17v1.3c0,0.7,0.28,1.36,0.78,1.85l3.41,3.36c0.49,0.48,1.14,0.75,1.83,0.75h10.9h4.16h10.9
		c0.68,0,1.34-0.27,1.83-0.75l3.41-3.36c0.5-0.49,0.78-1.16,0.78-1.85v-1.3H10.4z"/>
</g>
<rect x="10.4" y="39.86" fill="#FFFFFF" width="37.99" height="3.62"/>
<path fill="none" stroke="#E94435" stroke-width="23.9549" stroke-linecap="round" stroke-linejoin="round" stroke-miterlimit="10" d="
	M708-34"/>
<path fill="none" stroke="#E94435" stroke-width="23.9549" stroke-linecap="round" stroke-linejoin="round" stroke-miterlimit="10" d="
	M330-34"/>
</svg>
