<svg width="232" height="132" fill="none" xmlns="http://www.w3.org/2000/svg"><g clip-path="url(#clip0)"><path d="M219.42 0C226.368 0 232 5.632 232 12.58v106.84c0 6.948-5.632 12.58-12.58 12.58H12.58C5.632 132 0 126.368 0 119.42V12.58C0 5.632 5.632 0 12.58 0" fill="#E8F0FE"/><path d="M209.855 22.098c-12.187 0-22.089-9.884-22.089-22.089L151.805 0c0 32.065 25.994 58.059 58.059 58.059M86.848 24.719C81.25 14.031 71.591 5.81 59.915 2.129h-.014C55.53.747 50.877 0 46.04 0 31.882 0 19.22 6.402 10.773 16.456 4.047 24.465 0 34.787 0 46.054c0 8.672 1.749 15.694 4.625 21.998C9.448 78.613 17.429 87.088 25.636 97.72c2.665 3.455 5.358 7.121 7.967 11.168C42.938 123.356 40.146 132 46.054 132c6.049 0 3.356-8.644 12.691-23.112C74.2 84.945 92.108 74.016 92.108 46.068c-.014-7.727-1.918-14.975-5.26-21.349zM133.96 110.295c15.778 0 28.568-12.7903 28.568-28.5679 0-15.7777-12.79-28.568-28.568-28.568-15.778 0-28.568 12.7903-28.568 28.568 0 15.7776 12.79 28.5679 28.568 28.5679zM211.742 127.483c0-5.31 1.813-10.181 4.853-14.045l.037-.037c.146-.183.274-.366.421-.549.073-.092.183-.183.256-.293l.22-.256c3.65-4.096 8.744-6.873 14.471-7.524V67.522c-31.946 1.355-57.432 27.672-57.432 59.952 0 1.525.076 3.031.188 4.527h37.436c-.294-1.462-.45-2.972-.45-4.518z" fill="#D7ECFF"/></g><defs><clipPath id="clip0"><path fill="#fff" d="M0 0h232v132H0z"/></clipPath></defs></svg>