<svg version="1.1" xmlns="http://www.w3.org/2000/svg" xmlns:xlink="http://www.w3.org/1999/xlink" x="0" y="0" width="304" height="88" viewBox="0 0 304 89" fill="none">
<g>
  <linearGradient id="grad1" x1="35.7203" y1="127.284" x2="158.947" y2="49.7847" gradientUnits="userSpaceOnUse">
    <stop offset="0" style="stop-color:#F1F3F4"/>
    <stop offset="1" style="stop-color:#F1F3F4;stop-opacity:0"/>
  </linearGradient>
  <path d="M187.499 38.0385L168.601 25.8276C166.663 24.5678 164.143 24.7616 162.399 26.3122L122.988 61.2973C122.439 61.7819 122.148 62.428 122.083 63.1063L145.665 78.0631C146.505 78.5799 147.571 78.5154 148.314 77.837L189.082 40.6551C188.985 39.6214 188.436 38.6523 187.499 38.0385Z" fill="url(#grad1)"/>
  <path d="M150.349 46.3729C150.317 46.3729 150.252 46.3729 150.22 46.3406L146.925 44.2731C146.796 44.2085 146.764 44.047 146.86 43.9178C146.925 43.7885 147.087 43.7562 147.216 43.8531L150.511 45.9206C150.64 45.9852 150.672 46.1467 150.575 46.2759C150.511 46.3082 150.446 46.3729 150.349 46.3729Z" fill="#4285F4"/>
  <linearGradient id="grad2" x1="113.985" y1="85.7227" x2="123.421" y2="64.3099" gradientUnits="userSpaceOnUse">
    <stop offset="0" style="stop-color:#8AB4F8;stop-opacity:0"/>
    <stop offset="1" style="stop-color:#8AB4F8"/>
  </linearGradient>
  <path d="M151.545 36.5525L154 71.0854L146.925 77.8693C143.339 81.1643 138.106 83.6194 132.55 81.6488L107.579 102.905L79.6682 70.3101L109.517 59.0038L117.787 43.2394C120.145 38.6522 124.377 34.582 129.707 33.4836L144.018 30.4793C145.665 30.124 147.377 30.9316 148.185 32.4176C149.186 34.2589 148.508 36.5525 146.667 37.5862L134.1 44.5639C133.487 44.9192 133.26 45.6945 133.616 46.3406C133.939 46.9544 134.714 47.1805 135.328 46.8575L144.535 42.3026" fill="url(#grad2)"/>
  <path d="M178.486 51.4446L184.301 52.0261C185.076 52.123 185.916 52.0261 186.723 51.7031C188.888 50.7663 189.889 48.3758 189.017 46.3729C188.145 44.3701 185.69 43.4979 183.525 44.467L178.486 51.4446Z" fill="#8AB4F8"/>
  <path d="M178.518 53.1245C177.937 51.0247 175.643 49.7972 173.382 50.4109L170.992 56.4841C170.216 56.2579 169.376 56.2256 168.536 56.4518L166.146 62.5249C165.371 62.2988 164.531 62.2665 163.691 62.4926L159.814 69.1149L163.368 70.1164C164.111 70.3425 164.951 70.3748 165.791 70.1164C168.052 69.5026 169.409 67.2736 168.859 65.1738C168.763 64.7862 168.569 64.3985 168.343 64.0755C169.053 64.2693 169.861 64.2693 170.668 64.0755C172.93 63.4617 174.287 61.2328 173.737 59.133C173.64 58.7454 173.447 58.3577 173.22 58.0347C173.931 58.2285 174.739 58.2285 175.546 58.0347C177.743 57.4532 179.1 55.2565 178.518 53.1245Z" fill="#8AB4F8"/>
  <linearGradient id="grad3" x1="182.686" y1="46.7415" x2="182.486" y2="51.3151" gradientUnits="userSpaceOnUse">
    <stop offset="0" style="stop-color:#4285F4"/>
    <stop offset="1" style="stop-color:#4285F4;stop-opacity:0"/>
  </linearGradient>
  <path d="M187.66 44.693C187.66 44.693 184.398 47.3743 184.301 51.9938L177.711 51.2185L185.819 43.5947L187.66 44.693Z" fill="url(#grad3)"/>
  <path d="M144.987 31.61C144.89 31.1254 144.631 30.7055 144.244 30.447L143.533 30.5763C144.05 30.7378 144.438 31.1577 144.567 31.7069C144.728 32.5145 144.212 33.2898 143.404 33.4513L138.655 34.5173C138.268 34.5819 137.88 34.5173 137.525 34.2912C137.202 34.0651 136.975 33.742 136.879 33.3544C136.749 32.7406 137.008 32.1592 137.492 31.8361L136.749 31.9976C136.459 32.4176 136.362 32.9345 136.459 33.4513C136.555 33.9682 136.846 34.3881 137.266 34.6789C137.589 34.905 137.945 35.0019 138.332 35.0019C138.461 35.0019 138.591 35.0019 138.72 34.9696L143.469 33.9036C144.535 33.6775 145.213 32.676 144.987 31.61Z" fill="#FFFFFF"/>
  <path d="M188.565 37.9093L169.279 25.4722C167.309 24.2124 164.725 24.4062 162.948 25.9568L122.729 61.6204C121.34 62.8479 121.534 65.0446 123.052 66.046L144.761 80.0982C146.214 81.0351 148.153 80.8735 149.445 79.7106L188.985 43.4656C190.729 41.8827 190.503 39.1368 188.565 37.9093Z" fill="#70757A"/>
  <path d="M145.827 78.8061C146.214 79.0645 146.634 79.1614 147.087 79.1614C147.668 79.1614 148.217 78.9676 148.669 78.5476L190.18 40.6874C190.18 40.5905 190.18 40.4936 190.148 40.3967L148.508 78.3861C147.797 79.0322 146.764 79.1291 145.956 78.6122L121.889 63.3648H121.857C121.857 63.4294 121.825 63.5263 121.825 63.5909L145.827 78.8061Z" fill="#FFFFFF"/>
  <path d="M171.444 59.3268C171.25 59.3268 171.056 59.2622 170.895 59.1007C170.765 58.9392 170.668 58.7453 170.668 58.5515C170.668 58.3577 170.765 58.1639 170.927 58.0023L175.223 54.0936C175.514 53.8351 175.934 53.8351 176.225 54.0936C176.386 54.2228 176.451 54.4166 176.451 54.6427C176.451 54.8365 176.354 55.0304 176.225 55.1919L171.961 59.133C171.799 59.2622 171.638 59.3268 171.444 59.3268ZM171.056 58.9392C171.25 59.133 171.573 59.1653 171.799 58.9715L176.063 55.0304C176.16 54.9334 176.225 54.8042 176.225 54.6427C176.225 54.5135 176.16 54.352 176.063 54.2551C175.869 54.0613 175.579 54.0613 175.385 54.2551L171.088 58.1639C170.991 58.2608 170.927 58.39 170.927 58.5515C170.895 58.713 170.959 58.8423 171.056 58.9392Z" fill="#FFFFFF"/>
  <path d="M177.743 53.512C177.549 53.512 177.355 53.4474 177.194 53.2859C177.065 53.1244 176.968 52.9306 177 52.7367C177 52.5429 177.097 52.3491 177.258 52.1876L181.587 48.3111C181.878 48.0527 182.298 48.0527 182.589 48.3111C182.75 48.4403 182.815 48.6341 182.815 48.8603C182.815 49.0541 182.718 49.2479 182.589 49.4095L178.292 53.3182C178.098 53.4474 177.937 53.512 177.743 53.512ZM177.355 53.1244C177.549 53.3505 177.872 53.3505 178.098 53.1567L182.395 49.2479C182.492 49.151 182.556 49.0218 182.556 48.8926C182.556 48.7633 182.492 48.6018 182.395 48.5049C182.201 48.3111 181.91 48.3111 181.716 48.5049L177.388 52.3814C177.291 52.4783 177.226 52.6075 177.226 52.769C177.194 52.8982 177.258 53.0275 177.355 53.1244Z" fill="#FFFFFF"/>
  <path d="M126.574 63.7847L145.762 75.9956C146.408 76.4156 147.248 76.351 147.83 75.8341L184.43 42.4641C185.722 41.3012 185.561 39.2337 184.075 38.2969L167.858 28.0243C166.243 27.0228 164.175 27.1844 162.754 28.4442L126.347 61.0389C125.508 61.8465 125.604 63.171 126.574 63.7847Z" fill="#202124"/>
  <path d="M150.403 42.6692L150.273 43.0892L150.596 43.3476L150.08 43.4122L149.789 43.7676L149.627 43.3799L149.11 43.3153L149.53 43.0569L149.498 42.6692L149.918 42.8631L150.403 42.6692Z" fill="#FBBC04"/>
  <path d="M151.695 43.4769L151.533 43.8645L151.856 44.1552L151.339 44.2198L151.081 44.5752L150.887 44.1875L150.37 44.1229L150.79 43.8645L150.758 43.4769L151.21 43.6707L151.695 43.4769Z" fill="#FBBC04"/>
  <path d="M152.954 44.2845L152.793 44.6721L153.148 44.9628L152.631 45.0274L152.341 45.3505L152.147 44.9951L151.662 44.9305L152.082 44.6721L152.05 44.2845L152.47 44.4783L152.954 44.2845Z" fill="#FBBC04"/>
  <path d="M154.214 45.0919L154.085 45.4795L154.408 45.7703L153.891 45.8026L153.6 46.1579L153.439 45.8026L152.922 45.738L153.342 45.4795L153.31 45.0596L153.73 45.2534L154.214 45.0919Z" fill="#FBBC04"/>
  <path d="M155.022 46.061L154.57 45.8672L154.602 46.2872L154.214 46.5456L154.699 46.6102L155.507 45.8995L155.022 46.061Z" fill="#FBBC04"/>
  <path d="M155.151 46.6101L155.7 46.5778L155.345 46.2871L155.506 45.8995L154.699 46.6101L154.893 46.9655L155.151 46.6101Z" fill="#E6EBF0"/>
  <path d="M144.215 51.865L141.663 50.2821C141.405 50.1205 141.405 49.8298 141.631 49.636C141.857 49.4422 142.245 49.3775 142.503 49.539L145.055 51.122C145.313 51.2835 145.313 51.5742 145.087 51.768C144.829 51.9942 144.441 52.0265 144.215 51.865Z" fill="#E6EBF0"/>
  <path d="M148.23 54.3047L145.678 52.7218C145.42 52.5602 145.42 52.2695 145.646 52.0757C145.872 51.8819 146.26 51.8172 146.518 51.9787L149.07 53.5616C149.329 53.7232 149.329 54.0139 149.103 54.2077C148.844 54.4339 148.456 54.4662 148.23 54.3047Z" fill="#E6EBF0"/>
  <path d="M163.702 48.0696L152.205 40.8045C151.946 40.643 151.946 40.3522 152.172 40.1584C152.398 39.9646 152.786 39.9 153.045 40.0615L164.542 47.3266C164.8 47.4881 164.8 47.7789 164.574 47.9727C164.316 48.1988 163.928 48.2311 163.702 48.0696Z" fill="#E6EBF0"/>
  <path d="M142.107 67.0899L130.494 60.0119C130.233 59.8546 130.228 59.5639 130.451 59.3664C130.674 59.1689 131.061 59.0981 131.322 59.2554L142.935 66.3333C143.196 66.4907 143.201 66.7813 142.978 66.9788C142.723 67.2091 142.336 67.2477 142.107 67.0899Z" fill="#E6EBF0"/>
  <path d="M177.427 39.9971L165.93 32.732C165.671 32.5705 165.671 32.2797 165.897 32.0859C166.123 31.8921 166.511 31.8275 166.77 31.989L178.267 39.2541C178.525 39.4156 178.525 39.7064 178.299 39.9002C178.041 40.1263 177.653 40.1586 177.427 39.9971Z" fill="#E6EBF0"/>
  <path d="M154.261 44.2845C154.197 44.2845 154.164 44.2845 154.1 44.2522L150.74 42.1202C150.611 42.0233 150.546 41.8294 150.643 41.7002C150.74 41.571 150.934 41.5064 151.063 41.6033L154.423 43.7031C154.552 43.8 154.616 43.9938 154.52 44.123C154.455 44.2199 154.358 44.2845 154.261 44.2845Z" fill="#E6EBF0"/>
  <path d="M132.606 63.458C132.542 63.459 132.51 63.4595 132.444 63.4283L129.051 61.3509C128.92 61.2561 128.852 61.0633 128.947 60.9326C129.042 60.8018 129.235 60.7341 129.365 60.8289L132.758 62.874C132.889 62.9688 132.957 63.1615 132.862 63.2923C132.799 63.3902 132.703 63.4564 132.606 63.458Z" fill="#E6EBF0"/>
  <path d="M149.947 48.0782C149.883 48.0782 149.85 48.0782 149.786 48.0459L146.426 45.9139C146.297 45.817 146.232 45.6231 146.329 45.4939C146.426 45.3647 146.62 45.3001 146.749 45.397L150.109 47.4968C150.238 47.5937 150.303 47.7875 150.206 47.9167C150.141 48.0136 150.044 48.0782 149.947 48.0782Z" fill="#E6EBF0"/>
  <path d="M172.14 38.7256C172.076 38.7256 172.043 38.7256 171.979 38.6933L168.619 36.5613C168.49 36.4644 168.425 36.2705 168.522 36.1413C168.619 36.0121 168.813 35.9475 168.942 36.0444L172.302 38.1442C172.431 38.2411 172.496 38.4349 172.399 38.5641C172.334 38.661 172.237 38.7256 172.14 38.7256Z" fill="#E6EBF0"/>
  <path d="M166.36 55.785L148.119 44.0674L148.184 43.9705L166.425 55.6881L166.36 55.785Z" fill="#E6EBF0"/>
  <path d="M157.837 63.1602L139.352 51.8327L139.414 51.7344L157.899 63.0619L157.837 63.1602Z" fill="#E6EBF0"/>
  <path d="M156.26 54.2191C156.195 54.2191 156.163 54.2191 156.098 54.1868L145.018 47.2414C144.889 47.1445 144.856 46.983 144.921 46.8538C145.018 46.7246 145.179 46.6923 145.309 46.7569L156.389 53.7022C156.518 53.7991 156.55 53.9607 156.486 54.0899C156.421 54.1868 156.324 54.2191 156.26 54.2191Z" fill="#E6EBF0"/>
  <path d="M154.73 55.4501C154.665 55.4501 154.633 55.4501 154.569 55.4178L143.488 48.4725C143.359 48.3756 143.327 48.214 143.391 48.0848C143.488 47.9556 143.65 47.9233 143.779 47.9879L154.859 54.9333C154.989 55.0302 155.021 55.1917 154.956 55.3209C154.924 55.4178 154.827 55.4501 154.73 55.4501Z" fill="#E6EBF0"/>
  <linearGradient id="grad4" x1="122.923" y1="58.782" x2="135.133" y2="76.7328" gradientUnits="userSpaceOnUse">
    <stop offset="0" style="stop-color:#1967D2"/>
    <stop offset="1" style="stop-color:#4285F4;stop-opacity:0"/>
  </linearGradient>
  <path d="M122.923 65.9168L134.294 82.1011C134.294 82.1011 138.623 83.4579 144.405 79.8075L122.923 65.9168Z" fill="url(#grad4)"/>
  <path d="M180.133 34.4527C180.101 34.4527 180.101 34.4527 180.069 34.4204L175.934 31.7392C175.869 31.7069 175.869 31.6423 175.902 31.5776C175.934 31.513 175.999 31.513 176.063 31.5454L180.198 34.2266C180.263 34.2589 180.263 34.3235 180.23 34.3881C180.198 34.4204 180.166 34.4527 180.133 34.4527Z" fill="#FFFFFF"/>
  <path d="M174.739 31.2223C174.988 31.2223 175.191 31.0632 175.191 30.867C175.191 30.6707 174.988 30.5116 174.739 30.5116C174.489 30.5116 174.286 30.6707 174.286 30.867C174.286 31.0632 174.489 31.2223 174.739 31.2223Z" fill="#FFFFFF"/>
  <linearGradient id="grad5" x1="145.898" y1="46.1684" x2="133.538" y2="49.5548" gradientUnits="userSpaceOnUse">
    <stop offset="0" style="stop-color:#4285F4"/>
    <stop offset="1" style="stop-color:#4285F4;stop-opacity:0"/>
  </linearGradient>
  <path d="M133.584 46.3082L128.156 56.807L144.535 42.3026L135.328 46.8574C135.296 46.8574 134.294 47.3743 133.584 46.3082Z" fill="url(#grad5)"/>
  <path d="M158.469 34.4763L154.781 37.8315C154.295 38.2738 154.36 39.057 154.913 39.4124L171.99 50.387C172.376 50.6348 172.881 50.5887 173.215 50.2751L176.711 46.996C177.186 46.5508 177.116 45.778 176.568 45.4258L159.406 34.3794C159.115 34.2179 158.695 34.2825 158.469 34.4763Z" fill="#5F6368"/>
  <path d="M136.575 53.9263L132.902 57.2672C132.411 57.7139 132.484 58.5063 133.048 58.8565L150.572 69.7351C150.956 69.9738 151.453 69.9245 151.783 69.6149L155.273 66.342C155.752 65.8922 155.675 65.11 155.116 64.7631L137.511 53.8294C137.221 53.6679 136.801 53.7325 136.575 53.9263Z" fill="#5F6368"/>
  <linearGradient id="grad6" x1="115.218" y1="76.6269" x2="165.5" y2="45.8824" gradientUnits="userSpaceOnUse">
    <stop offset="0.352" style="stop-color:#70757A"/>
    <stop offset="1" style="stop-color:#70757A;stop-opacity:0"/>
  </linearGradient>
  <path d="M126.574 63.7847L145.762 75.9956C146.408 76.4156 147.248 76.351 147.83 75.8341L184.43 42.4641C185.722 41.3012 185.561 39.2337 184.075 38.2969L167.858 28.0243C166.243 27.0228 164.175 27.1844 162.754 28.4442L126.347 61.0389C125.508 61.8465 125.604 63.171 126.574 63.7847Z" fill="url(#grad6)"/>
  <path opacity="0.36" fill-rule="evenodd" clip-rule="evenodd" d="M213.371 11.5446C206.675 11.5446 201.247 16.9729 201.247 23.669C201.247 25.4032 201.611 27.0523 202.267 28.5441L199.987 31.6528C199.733 32.0001 200.007 32.4854 200.436 32.4465L204.626 32.0662C206.832 34.3635 209.935 35.7934 213.371 35.7934H243.143C249.839 35.7934 255.268 30.3651 255.268 23.669C255.268 16.9729 249.839 11.5446 243.143 11.5446H213.371Z" fill="#FDE293"/>
  <path d="M210.325 20.1423C210.416 19.946 210.695 19.946 210.785 20.1423L211.519 21.7336C211.581 21.867 211.707 21.9588 211.853 21.9761L213.593 22.1824C213.808 22.2079 213.894 22.4733 213.735 22.6201L212.449 23.8098C212.341 23.9096 212.293 24.0581 212.321 24.2022L212.663 25.921C212.705 26.133 212.479 26.297 212.29 26.1914L210.761 25.3355C210.633 25.2638 210.477 25.2638 210.349 25.3355L208.82 26.1914C208.631 26.297 208.405 26.133 208.447 25.921L208.789 24.2022C208.818 24.0581 208.769 23.9096 208.661 23.8098L207.375 22.6201C207.216 22.4733 207.302 22.2079 207.517 22.1824L209.257 21.9761C209.403 21.9588 209.529 21.867 209.591 21.7336L210.325 20.1423Z" fill="#FDD663"/>
  <path d="M219.175 20.1422C219.266 19.9458 219.545 19.9458 219.636 20.1422L220.37 21.7334C220.431 21.8668 220.557 21.9586 220.703 21.9759L222.443 22.1822C222.658 22.2077 222.744 22.4731 222.586 22.6199L221.299 23.8097C221.191 23.9094 221.143 24.0579 221.172 24.202L221.513 25.9208C221.555 26.1328 221.33 26.2969 221.141 26.1913L219.612 25.3353C219.484 25.2636 219.327 25.2636 219.199 25.3353L217.67 26.1913C217.481 26.2969 217.256 26.1328 217.298 25.9208L217.639 24.202C217.668 24.0579 217.62 23.9094 217.512 23.8097L216.225 22.6199C216.067 22.4731 216.153 22.2077 216.367 22.1822L218.108 21.9759C218.254 21.9586 218.38 21.8668 218.441 21.7334L219.175 20.1422Z" fill="#FDD663"/>
  <path d="M228.026 20.1422C228.117 19.9458 228.396 19.9458 228.486 20.1422L229.22 21.7334C229.282 21.8668 229.408 21.9586 229.554 21.9759L231.294 22.1822C231.509 22.2077 231.595 22.4731 231.436 22.6199L230.15 23.8097C230.042 23.9094 229.994 24.0579 230.022 24.202L230.364 25.9208C230.406 26.1328 230.18 26.2969 229.992 26.1913L228.462 25.3353C228.334 25.2636 228.178 25.2636 228.05 25.3353L226.521 26.1913C226.332 26.2969 226.106 26.1328 226.148 25.9208L226.49 24.202C226.519 24.0579 226.47 23.9094 226.363 23.8097L225.076 22.6199C224.917 22.4731 225.003 22.2077 225.218 22.1822L226.958 21.9759C227.104 21.9586 227.231 21.8668 227.292 21.7334L228.026 20.1422Z" fill="#FDD663"/>
  <path d="M236.877 20.1422C236.968 19.9458 237.247 19.9458 237.337 20.1422L238.071 21.7334C238.133 21.8668 238.259 21.9586 238.405 21.9759L240.145 22.1822C240.36 22.2077 240.446 22.4731 240.288 22.6199L239.001 23.8097C238.893 23.9094 238.845 24.0579 238.874 24.202L239.215 25.9208C239.257 26.1328 239.031 26.2969 238.843 26.1913L237.314 25.3353C237.186 25.2636 237.029 25.2636 236.901 25.3353L235.372 26.1913C235.183 26.2969 234.958 26.1328 235 25.9208L235.341 24.202C235.37 24.0579 235.322 23.9094 235.214 23.8097L233.927 22.6199C233.768 22.4731 233.855 22.2077 234.069 22.1822L235.81 21.9759C235.955 21.9586 236.082 21.8668 236.143 21.7334L236.877 20.1422Z" fill="#FDD663"/>
  <path d="M245.729 20.1422C245.819 19.9458 246.098 19.9458 246.189 20.1422L246.923 21.7334C246.984 21.8668 247.111 21.9586 247.256 21.9759L248.997 22.1822C249.211 22.2077 249.298 22.4731 249.139 22.6199L247.852 23.8097C247.744 23.9094 247.696 24.0579 247.725 24.202L248.066 25.9208C248.108 26.1328 247.883 26.2969 247.694 26.1913L246.165 25.3353C246.037 25.2636 245.881 25.2636 245.752 25.3353L244.223 26.1913C244.035 26.2969 243.809 26.1328 243.851 25.9208L244.193 24.202C244.221 24.0579 244.173 23.9094 244.065 23.8097L242.778 22.6199C242.62 22.4731 242.706 22.2077 242.921 22.1822L244.661 21.9759C244.807 21.9586 244.933 21.8668 244.995 21.7334L245.729 20.1422Z" fill="#FDD663"/>
  <path opacity="0.08" d="M244.373 63.8099C244.102 60.1038 240.891 57.3126 237.185 57.5839C235.143 57.7276 233.385 58.7719 232.247 60.3082L230.373 60.1028C230.03 60.0653 229.804 60.4494 230.002 60.731L231.203 62.4347C230.997 63.1694 230.911 63.9567 230.954 64.7519C231.225 68.458 234.436 71.2491 238.142 70.9779C241.853 70.7264 244.625 67.5213 244.373 63.8099Z" fill="#F1F3F4"/>
  <path opacity="0.16" fill-rule="evenodd" clip-rule="evenodd" d="M248.118 50.1525C248.117 50.1988 248.117 50.2452 248.117 50.2917C248.117 54.3188 251.382 57.5835 255.409 57.5835H267.127C271.154 57.5835 274.419 54.3189 274.419 50.2917C274.419 46.2646 271.154 43 267.127 43H255.409C252.308 43 249.659 44.9355 248.605 47.6644L246.551 47.9804C246.21 48.0328 246.091 48.4624 246.355 48.683L248.118 50.1525Z" fill="#F8F9FA"/>
  <g opacity="0.16">
    <path fill-rule="evenodd" clip-rule="evenodd" d="M64.4447 63.1072C64.4457 63.1605 64.4462 63.2139 64.4462 63.2675C64.4462 67.901 60.6899 71.6573 56.0564 71.6573H35.9323C31.2988 71.6573 27.5425 67.901 27.5425 63.2675C27.5425 58.6339 31.2988 54.8777 35.9323 54.8777H56.0564C59.6242 54.8777 62.6718 57.1047 63.885 60.2444L66.3802 60.6284C66.7207 60.6808 66.8401 61.1104 66.5755 61.331L64.4447 63.1072Z" fill="#F1F3F4"/>
  </g>
  <path opacity="0.36" d="M222.967 61.7297C222.5 55.3477 216.971 50.5413 210.589 51.0084C207.073 51.256 204.045 53.0543 202.086 55.6998L198.442 55.3006C198.014 55.2537 197.731 55.7338 197.979 56.0857L200.288 59.3616C199.933 60.6267 199.784 61.9826 199.859 63.3518C200.326 69.7338 205.854 74.5402 212.236 74.0731C218.627 73.6401 223.4 68.1208 222.967 61.7297Z" fill="#A8DAB5"/>
  <line x1="206.805" y1="60.5924" x2="215.834" y2="60.5924" stroke="#81C995" stroke-width="1.5" stroke-linecap="round"/>
  <line x1="206.805" y1="64.8422" x2="212.503" y2="64.8422" stroke="#81C995" stroke-width="1.5" stroke-linecap="round"/>
  <path opacity="0.36" d="M76.7377 11.9577C85.912 7.51994 96.9436 11.3177 101.381 20.492C103.84 25.5389 103.77 31.1467 101.682 35.9564L105.523 41.1938C105.778 41.541 105.503 42.0263 105.075 41.9874L98.0628 41.351C96.6011 42.8489 94.8493 44.1334 92.9015 45.1211C83.7272 49.5589 72.6956 45.7611 68.2579 36.5868C63.7658 27.4271 67.578 16.4498 76.7377 11.9577Z" fill="#A8DAB5"/>
  <path fill-rule="evenodd" clip-rule="evenodd" d="M84.8365 39.5481C85.1647 39.5465 85.4923 39.2727 85.5471 38.9444C85.9312 37.0236 87.7424 34.2246 88.3461 33.3465C89.0047 32.3586 90.596 30.4926 90.596 30.4926C91.4742 29.2852 92.023 27.8582 92.023 26.2667C92.1877 22.2603 89.0595 19.0222 84.9982 19.1869C84.9442 19.1847 84.8902 19.1831 84.8365 19.1821V23.3584C84.8537 23.3581 84.871 23.3579 84.8884 23.3579C86.3153 23.3579 87.413 24.5104 87.413 25.8825C87.4679 27.2545 86.3153 28.4071 84.8884 28.4071C84.871 28.4071 84.8537 28.4069 84.8365 28.4066V39.5481Z" fill="none" stroke="#A8DAB5" stroke-width="0.7" stroke-linecap="round" stroke-linejoin="round" stroke-dasharray="1 1.6"/>
  <path fill-rule="evenodd" clip-rule="evenodd" d="M84.8365 39.5481C84.5082 39.5465 84.1806 39.2727 84.1259 38.9444C83.7417 37.0236 81.9305 34.2246 81.3268 33.3465C80.6682 32.3586 79.0769 30.4926 79.0769 30.4926C78.1988 29.2852 77.6499 27.8582 77.6499 26.2667C77.4852 22.2603 80.6134 19.0222 84.6747 19.1869C84.7288 19.1847 84.7827 19.1831 84.8365 19.1821V23.3584C84.8192 23.3581 84.8019 23.3579 84.7846 23.3579C83.3576 23.3579 82.2599 24.5104 82.2599 25.8825C82.205 27.2545 83.3576 28.4071 84.7846 28.4071C84.8019 28.4071 84.8192 28.4069 84.8365 28.4066V39.5481Z" fill="#A8DAB5" stroke="#A8DAB5" stroke-width="0.7" stroke-dasharray="none"/>
  <g opacity="0.08">
    <path d="M45.9446 31.7829C50.219 29.7153 55.3588 31.4847 57.4264 35.7591C58.5718 38.1105 58.5395 40.7233 57.5666 42.9642L59.137 45.1057C59.3407 45.3835 59.1214 45.7717 58.7783 45.7406L55.8802 45.4776C55.1992 46.1755 54.383 46.7739 53.4755 47.2341C49.2011 49.3017 44.0614 47.5323 41.9938 43.2579C39.9009 38.9903 41.677 33.8758 45.9446 31.7829Z" fill="#F1F3F4"/>
  </g>
  <g opacity="0.08">
    <path d="M143.924 7.49272C147.759 6.76006 151.466 9.25972 152.198 13.0954C152.608 15.2072 152.026 17.2759 150.776 18.8489L151.511 20.7377C151.636 21.0588 151.323 21.377 151 21.2581L148.901 20.4866C148.212 20.8961 147.436 21.1977 146.617 21.3701C142.782 22.1028 139.075 19.6031 138.342 15.7674C137.588 11.9318 140.088 8.24693 143.924 7.49272Z" fill="#F1F3F4"/>
  </g>
</g>
</svg>
