<svg width="17" height="14" viewBox="0 0 17 14" fill="none" xmlns="http://www.w3.org/2000/svg">
<path d="M1.05197 13.25C0.991984 13.25 0.934709 13.2342 0.886531 13.2062C0.744122 13.1237 0.718225 12.9693 0.787021 12.8587L8.23513 0.888879C8.25784 0.852386 8.29127 0.819032 8.33464 0.793904C8.49202 0.702713 8.68591 0.761735 8.76503 0.888879L16.2131 12.8587C16.2381 12.8988 16.25 12.9424 16.25 12.985C16.25 13.1064 16.1403 13.25 15.9482 13.25H1.05197Z" stroke="white" stroke-width="1.5"/>
<path fill-rule="evenodd" clip-rule="evenodd" d="M7.87598 8.5H9.12598V5.5H7.87598V8.5ZM7.87598 11.2246H9.12598V9.97461H7.87598V11.2246Z" fill="white"/>
<path d="M9.12598 8.5V8.6H9.22598V8.5H9.12598ZM7.87598 8.5H7.77598V8.6H7.87598V8.5ZM9.12598 5.5H9.22598V5.4H9.12598V5.5ZM7.87598 5.5V5.4H7.77598V5.5H7.87598ZM9.12598 11.2246V11.3246H9.22598V11.2246H9.12598ZM7.87598 11.2246H7.77598V11.3246H7.87598V11.2246ZM9.12598 9.97461H9.22598V9.87461H9.12598V9.97461ZM7.87598 9.97461V9.87461H7.77598V9.97461H7.87598ZM9.12598 8.4H7.87598V8.6H9.12598V8.4ZM9.02598 5.5V8.5H9.22598V5.5H9.02598ZM7.87598 5.6H9.12598V5.4H7.87598V5.6ZM7.97598 8.5V5.5H7.77598V8.5H7.97598ZM9.12598 11.1246H7.87598V11.3246H9.12598V11.1246ZM9.02598 9.97461V11.2246H9.22598V9.97461H9.02598ZM7.87598 10.0746H9.12598V9.87461H7.87598V10.0746ZM7.97598 11.2246V9.97461H7.77598V11.2246H7.97598Z" fill="white"/>
</svg>
