<svg xmlns="http://www.w3.org/2000/svg" width="360" height="200" viewBox="0 0 360 200"><path fill="#DADCE0" d="M0,0h360v200H0V0z"/><linearGradient id="a" gradientUnits="userSpaceOnUse" x1="-3552.142" y1="2022.642" x2="-3552.142" y2="2022.642" gradientTransform="matrix(-31.6628 31.6628 -31.6628 -31.6628 -48184.9766 176581.2188)"><stop offset="0" style="stop-color:#FFFFFF"/><stop offset="1" style="stop-color:#E6E6E7"/></linearGradient><path fill="#FFF" d="M238.86,69.16c-1.37-0.13-2.7-0.73-3.75-1.79C236.11,68.39,237.44,69.03,238.86,69.16z M240.31,36.14	c-1.25,1.33-2.26,2.76-2.96,4.14l2.44,2.47l3.53-3.57L240.31,36.14z"/><linearGradient id="b" gradientUnits="userSpaceOnUse" x1="-3552.394" y1="2023.141" x2="-3551.394" y2="2023.141" gradientTransform="matrix(-31.6628 31.6628 -31.6628 -31.6628 -48184.9766 176581.2188)"><stop offset="0" style="stop-color:#FFFFFF"/><stop offset="1" style="stop-color:#E6E6E7"/></linearGradient><path fill="url(#b)" d="M240.31,36.14c-1.25,1.33-2.26,2.76-2.96,4.14l2.44,2.47l3.53-3.57L240.31,36.14z"/><path fill="#FFF" d="M244.16,47.18l2.26,2.29c1.74-0.39,3.34-1.23,4.65-2.44l-2.85-2.89C246.92,45.38,245.54,46.41,244.16,47.18	L244.16,47.18z"/><linearGradient id="c" gradientUnits="userSpaceOnUse" x1="-3552.394" y1="2022.901" x2="-3551.394" y2="2022.901" gradientTransform="matrix(-31.6628 31.6628 -31.6628 -31.6628 -48184.9766 176581.2188)"><stop offset="0" style="stop-color:#FFFFFF"/><stop offset="1" style="stop-color:#E6E6E7"/></linearGradient><path fill="url(#c)" d="M244.16,47.18l2.26,2.29c1.74-0.39,3.34-1.23,4.65-2.44l-2.85-2.89	C246.92,45.38,245.54,46.41,244.16,47.18L244.16,47.18z"/><path fill="#FFF" d="M236.79,41.51c-0.71,1.82-0.85,3.46-0.28,4.56l2.39-2.42C238.9,43.65,236.79,41.51,236.79,41.51z"/><linearGradient id="d" gradientUnits="userSpaceOnUse" x1="-3552.394" y1="2023.126" x2="-3551.394" y2="2023.126" gradientTransform="matrix(-31.6628 31.6628 -31.6628 -31.6628 -48184.9766 176581.2188)"><stop offset="0" style="stop-color:#FFFFFF"/><stop offset="1" style="stop-color:#E6E6E7"/></linearGradient><path fill="url(#d)" d="M236.79,41.51c-0.71,1.82-0.85,3.46-0.28,4.56l2.39-2.42C238.9,43.65,236.79,41.51,236.79,41.51z"/><path fill="#FFF" d="M245.18,32.36c-1.34,0.7-2.71,1.7-3.98,2.89l3,3.04l3.42-3.46L245.18,32.36z"/><linearGradient id="e" gradientUnits="userSpaceOnUse" x1="-3552.394" y1="2023.142" x2="-3551.394" y2="2023.142" gradientTransform="matrix(-31.6628 31.6628 -31.6628 -31.6628 -48184.9766 176581.2188)"><stop offset="0" style="stop-color:#FFFFFF"/><stop offset="1" style="stop-color:#E6E6E7"/></linearGradient><path fill="url(#e)" d="M245.18,32.36c-1.34,0.7-2.71,1.7-3.98,2.89l3,3.04l3.42-3.46L245.18,32.36z"/><path fill="#FFF" d="M237.35,47.01c0.47,0.3,1.08,0.46,1.8,0.46c0.87,0,1.85-0.24,2.88-0.65l-2.25-2.27L237.35,47.01	L237.35,47.01z"/><linearGradient id="f" gradientUnits="userSpaceOnUse" x1="-3552.394" y1="2023.029" x2="-3551.394" y2="2023.029" gradientTransform="matrix(-31.6628 31.6628 -31.6628 -31.6628 -48184.9766 176581.2188)"><stop offset="0" style="stop-color:#FFFFFF"/><stop offset="1" style="stop-color:#E6E6E7"/></linearGradient><path fill="url(#f)" d="M237.35,47.01c0.47,0.3,1.08,0.46,1.8,0.46c0.87,0,1.85-0.24,2.88-0.65l-2.25-2.27L237.35,47.01	L237.35,47.01z"/><path fill="#FFF" d="M244.2,40.07l-3.53,3.57l2.58,2.61c1.38-0.73,2.79-1.76,4.09-3.01L244.2,40.07z"/><linearGradient id="g" gradientUnits="userSpaceOnUse" x1="-3552.394" y1="2023.016" x2="-3551.394" y2="2023.016" gradientTransform="matrix(-31.6628 31.6628 -31.6628 -31.6628 -48184.9766 176581.2188)"><stop offset="0" style="stop-color:#FFFFFF"/><stop offset="1" style="stop-color:#E6E6E7"/></linearGradient><path fill="url(#g)" d="M244.2,40.07l-3.53,3.57l2.58,2.61c1.38-0.73,2.79-1.76,4.09-3.01L244.2,40.07z"/><path fill="#FFF" d="M251.61,37.09c0.74-1.9,0.85-3.61,0.18-4.7l-2.41,2.44L251.61,37.09L251.61,37.09z"/><linearGradient id="h" gradientUnits="userSpaceOnUse" x1="-3552.394" y1="2023.032" x2="-3551.394" y2="2023.032" gradientTransform="matrix(-31.6628 31.6628 -31.6628 -31.6628 -48184.9766 176581.2188)"><stop offset="0" style="stop-color:#FFFFFF"/><stop offset="1" style="stop-color:#E6E6E7"/></linearGradient><path fill="url(#h)" d="M251.61,37.09c0.74-1.9,0.85-3.61,0.18-4.7l-2.41,2.44L251.61,37.09L251.61,37.09z"/><path fill="#FFF" d="M244.26,31.43l-2.21-2.24l-0.03-0.04c-1.68,0.37-3.24,1.16-4.56,2.32l2.85,2.89	C241.57,33.16,242.92,32.17,244.26,31.43z"/><linearGradient id="i" gradientUnits="userSpaceOnUse" x1="-3552.394" y1="2023.255" x2="-3551.394" y2="2023.255" gradientTransform="matrix(-31.6628 31.6628 -31.6628 -31.6628 -48184.9766 176581.2188)"><stop offset="0" style="stop-color:#FFFFFF"/><stop offset="1" style="stop-color:#E6E6E7"/></linearGradient><path fill="url(#i)" d="M244.26,31.43l-2.21-2.24l-0.03-0.04c-1.68,0.37-3.24,1.16-4.56,2.32l2.85,2.89	C241.57,33.16,242.92,32.17,244.26,31.43z"/><path fill="#FFF" d="M248.5,35.72l-3.42,3.46l3.13,3.17c1.2-1.31,2.17-2.69,2.85-4.04L248.5,35.72L248.5,35.72z"/><linearGradient id="j" gradientUnits="userSpaceOnUse" x1="-3552.394" y1="2023.017" x2="-3551.394" y2="2023.017" gradientTransform="matrix(-31.6628 31.6628 -31.6628 -31.6628 -48184.9766 176581.2188)"><stop offset="0" style="stop-color:#FFFFFF"/><stop offset="1" style="stop-color:#E6E6E7"/></linearGradient><path fill="url(#j)" d="M248.5,35.72l-3.42,3.46l3.13,3.17c1.2-1.31,2.17-2.69,2.85-4.04L248.5,35.72L248.5,35.72z"/><path fill="#FFF" d="M249.09,43.25l2.85,2.88c1.17-1.36,1.93-2.95,2.28-4.61L252,39.27C251.28,40.6,250.29,41.95,249.09,43.25z"/><linearGradient id="k" gradientUnits="userSpaceOnUse" x1="-3552.394" y1="2022.902" x2="-3551.394" y2="2022.902" gradientTransform="matrix(-31.6628 31.6628 -31.6628 -31.6628 -48184.9766 176581.2188)"><stop offset="0" style="stop-color:#FFFFFF"/><stop offset="1" style="stop-color:#E6E6E7"/></linearGradient><path fill="url(#k)" d="M249.09,43.25l2.85,2.88c1.17-1.36,1.93-2.95,2.28-4.61L252,39.27	C251.28,40.6,250.29,41.95,249.09,43.25z"/><path fill="#FFF" d="M250.86,31.54c-0.45-0.24-0.99-0.37-1.63-0.37c-0.86,0-1.83,0.23-2.85,0.64l2.11,2.13L250.86,31.54	L250.86,31.54z"/><linearGradient id="l" gradientUnits="userSpaceOnUse" x1="-3552.394" y1="2023.128" x2="-3551.394" y2="2023.128" gradientTransform="matrix(-31.6628 31.6628 -31.6628 -31.6628 -48184.9766 176581.2188)"><stop offset="0" style="stop-color:#FFFFFF"/><stop offset="1" style="stop-color:#E6E6E7"/></linearGradient><path fill="url(#l)" d="M250.86,31.54c-0.45-0.24-0.99-0.37-1.63-0.37c-0.86,0-1.83,0.23-2.85,0.64l2.11,2.13L250.86,31.54	L250.86,31.54z"/><path fill="#FFF" d="M239.72,48.67c1.38,0.68,2.9,1.05,4.48,1.05l0.68-0.03l-1.89-1.91C241.84,48.28,240.74,48.59,239.72,48.67	L239.72,48.67z"/><linearGradient id="m" gradientUnits="userSpaceOnUse" x1="-3552.394" y1="2022.952" x2="-3551.394" y2="2022.952" gradientTransform="matrix(-31.6628 31.6628 -31.6628 -31.6628 -48184.9766 176581.2188)"><stop offset="0" style="stop-color:#FFFFFF"/><stop offset="1" style="stop-color:#E6E6E7"/></linearGradient><path fill="url(#m)" d="M239.72,48.67c1.38,0.68,2.9,1.05,4.48,1.05l0.68-0.03l-1.89-1.91	C241.84,48.28,240.74,48.59,239.72,48.67L239.72,48.67z"/><path fill="#FFF" d="M239.42,35.24l-2.85-2.88c-1.19,1.34-2.02,2.97-2.4,4.72l2.23,2.26C237.15,37.96,238.17,36.57,239.42,35.24z"/><linearGradient id="n" gradientUnits="userSpaceOnUse" x1="-3552.394" y1="2023.254" x2="-3551.394" y2="2023.254" gradientTransform="matrix(-31.6628 31.6628 -31.6628 -31.6628 -48184.9766 176581.2188)"><stop offset="0" style="stop-color:#FFFFFF"/><stop offset="1" style="stop-color:#E6E6E7"/></linearGradient><path fill="url(#n)" d="M239.42,35.24l-2.85-2.88c-1.19,1.34-2.02,2.97-2.4,4.72l2.23,2.26	C237.15,37.96,238.17,36.57,239.42,35.24z"/><path fill="#FFF" d="M238.86,69.16c0.39,0.04,0.79,0.04,1.18,0c0.39-0.04,0.78-0.11,1.16-0.23c0.32-0.1,0.63-0.22,0.93-0.37	c0.42-0.21,0.82-0.46,1.19-0.76c0.16-0.13,0.32-0.27,0.47-0.43L271.7,39.1c1.2-1.21,1.8-2.8,1.8-4.39s-0.6-3.18-1.8-4.39L248.6,6.93	L212,43.98l23.11,23.4C236.11,68.4,237.44,69.03,238.86,69.16z M250.38,19.21c0.25-0.25,0.64-0.25,0.89,0l12.54,12.69	c0.24,0.25,0.24,0.64,0,0.89c-0.25,0.24-0.65,0.24-0.89-0.01L250.38,20.1C250.14,19.85,250.14,19.46,250.38,19.21z M236.04,31.07	c2.18-2.2,5.07-3.42,8.15-3.42s5.98,1.21,8.15,3.42c4.49,4.54,4.49,11.94,0,16.48c-2.18,2.2-5.07,3.42-8.15,3.42	s-5.97-1.21-8.15-3.42C231.55,43.01,231.55,35.62,236.04,31.07z M223.8,46.12c0.25-0.25,0.64-0.25,0.89,0l12.54,12.69	c0.24,0.25,0.24,0.64,0,0.89c-0.25,0.24-0.65,0.24-0.89-0.01L223.8,47.01C223.55,46.76,223.55,46.37,223.8,46.12z"/><linearGradient id="o" gradientUnits="userSpaceOnUse" x1="-3552.394" y1="2023.08" x2="-3551.394" y2="2023.08" gradientTransform="matrix(-31.6628 31.6628 -31.6628 -31.6628 -48184.9766 176581.2188)"><stop offset="0" style="stop-color:#FFFFFF"/><stop offset="1" style="stop-color:#E6E6E7"/></linearGradient><path fill="url(#o)" d="M238.86,69.16c0.39,0.04,0.79,0.04,1.18,0c0.39-0.04,0.78-0.11,1.16-0.23	c0.32-0.1,0.63-0.22,0.93-0.37c0.42-0.21,0.82-0.46,1.19-0.76c0.16-0.13,0.32-0.27,0.47-0.43L271.7,39.1c1.2-1.21,1.8-2.8,1.8-4.39	s-0.6-3.18-1.8-4.39L248.6,6.93L212,43.98l23.11,23.4C236.11,68.4,237.44,69.03,238.86,69.16z M250.38,19.21	c0.25-0.25,0.64-0.25,0.89,0l12.54,12.69c0.24,0.25,0.24,0.64,0,0.89c-0.25,0.24-0.65,0.24-0.89-0.01L250.38,20.1	C250.14,19.85,250.14,19.46,250.38,19.21z M236.04,31.07c2.18-2.2,5.07-3.42,8.15-3.42s5.98,1.21,8.15,3.42	c4.49,4.54,4.49,11.94,0,16.48c-2.18,2.2-5.07,3.42-8.15,3.42s-5.97-1.21-8.15-3.42C231.55,43.01,231.55,35.62,236.04,31.07z M223.8,46.12c0.25-0.25,0.64-0.25,0.89,0l12.54,12.69c0.24,0.25,0.24,0.64,0,0.89c-0.25,0.24-0.65,0.24-0.89-0.01L223.8,47.01	C223.55,46.76,223.55,46.37,223.8,46.12z"/><path fill="#FFF" d="M233.96,38.64c-0.11,1.75,0.21,3.52,0.97,5.14c0.09-1.01,0.4-2.11,0.89-3.25L233.96,38.64z"/><linearGradient id="p" gradientUnits="userSpaceOnUse" x1="-3552.394" y1="2023.202" x2="-3551.394" y2="2023.202" gradientTransform="matrix(-31.6628 31.6628 -31.6628 -31.6628 -48184.9766 176581.2188)"><stop offset="0" style="stop-color:#FFFFFF"/><stop offset="1" style="stop-color:#E6E6E7"/></linearGradient><path fill="url(#p)" d="M233.96,38.64c-0.11,1.75,0.21,3.52,0.97,5.14c0.09-1.01,0.4-2.11,0.89-3.25L233.96,38.64z"/><path fill="#FFF" d="M248.67,29.96c-1.38-0.68-2.9-1.05-4.48-1.05l-0.63,0.03l1.88,1.9C246.57,30.34,247.66,30.04,248.67,29.96z"/><linearGradient id="q" gradientUnits="userSpaceOnUse" x1="-3552.394" y1="2023.203" x2="-3551.394" y2="2023.203" gradientTransform="matrix(-31.6628 31.6628 -31.6628 -31.6628 -48184.9766 176581.2188)"><stop offset="0" style="stop-color:#FFFFFF"/><stop offset="1" style="stop-color:#E6E6E7"/></linearGradient><path fill="url(#q)" d="M248.67,29.96c-1.38-0.68-2.9-1.05-4.48-1.05l-0.63,0.03l1.88,1.9	C246.57,30.34,247.66,30.04,248.67,29.96z"/><path fill="#FFF" d="M253.46,34.85c-0.09,1-0.39,2.09-0.88,3.22l1.85,1.87C254.53,38.2,254.21,36.45,253.46,34.85z"/><linearGradient id="r" gradientUnits="userSpaceOnUse" x1="-3552.394" y1="2022.954" x2="-3551.394" y2="2022.954" gradientTransform="matrix(-31.6628 31.6628 -31.6628 -31.6628 -48184.9766 176581.2188)"><stop offset="0" style="stop-color:#FFFFFF"/><stop offset="1" style="stop-color:#E6E6E7"/></linearGradient><path fill="url(#r)" d="M253.46,34.85c-0.09,1-0.39,2.09-0.88,3.22l1.85,1.87C254.53,38.2,254.21,36.45,253.46,34.85z"/><path fill="#BABFC5" d="M253.46,34.85c0.75,1.6,1.08,3.36,0.97,5.09l0.79,0.8c0.24,0.25,0.24,0.64,0,0.89	c-0.25,0.24-0.65,0.24-0.89-0.01l-0.1-0.1c-0.35,1.67-1.11,3.26-2.28,4.61l0.2,0.21c0.24,0.25,0.24,0.64,0,0.89	c-0.25,0.24-0.65,0.24-0.89-0.01l-0.19-0.19c-1.31,1.21-2.91,2.05-4.65,2.44l0.13,0.13c0.24,0.25,0.24,0.64,0,0.89	c-0.25,0.24-0.65,0.24-0.89-0.01l-0.78-0.79l-0.68,0.03c-1.58,0-3.1-0.37-4.48-1.05c-0.19,0.02-0.38,0.05-0.57,0.05	c-1.28,0-2.36-0.4-3.11-1.16c2.18,2.2,5.07,3.42,8.15,3.42s5.98-1.21,8.15-3.42c4.49-4.55,4.49-11.94,0-16.48	C253.25,31.98,253.59,33.31,253.46,34.85L253.46,34.85z M234.93,43.78c-0.75-1.6-1.08-3.37-0.97-5.14l-0.8-0.81	c-0.24-0.25-0.24-0.64,0-0.89c0.25-0.24,0.64-0.24,0.89,0l0.12,0.12c0.37-1.71,1.17-3.34,2.4-4.72l-0.33-0.33	c-0.24-0.25-0.24-0.64,0-0.89c0.25-0.25,0.64-0.25,0.89,0l0.32,0.33c1.3-1.15,2.87-1.95,4.56-2.32c-0.21-0.25-0.2-0.62,0.03-0.85	c0.25-0.25,0.64-0.25,0.89,0l0.63,0.63l0.63-0.03c1.58,0,3.1,0.37,4.48,1.05c0.19-0.02,0.39-0.05,0.57-0.05	c1.28,0,2.36,0.4,3.11,1.16c-2.18-2.2-5.07-3.42-8.15-3.42s-5.97,1.21-8.15,3.42c-4.49,4.54-4.49,11.94,0,16.48	C235.14,46.64,234.79,45.32,234.93,43.78L234.93,43.78z M244.26,31.43c-1.34,0.74-2.68,1.73-3.94,2.93l0.88,0.89	c1.27-1.2,2.64-2.19,3.98-2.89C245.18,32.36,244.26,31.43,244.26,31.43z M239.42,35.24c-1.25,1.33-2.27,2.72-3.02,4.09l0.94,0.95	c0.71-1.38,1.71-2.81,2.96-4.14L239.42,35.24z M251.06,38.32c-0.68,1.34-1.65,2.73-2.85,4.04l0.88,0.89c1.2-1.29,2.18-2.65,2.9-3.98	L251.06,38.32z M247.33,43.25c-1.3,1.25-2.7,2.28-4.09,3.01l0.92,0.93c1.38-0.77,2.76-1.8,4.05-3.04	C248.21,44.15,247.33,43.25,247.33,43.25z M239.72,48.67c1.02-0.09,2.13-0.39,3.26-0.9l-0.95-0.96c-1.03,0.41-2.01,0.65-2.88,0.65	c-0.72,0-1.33-0.15-1.8-0.46l-0.21,0.21c-0.12,0.12-0.28,0.19-0.45,0.19c-0.16,0-0.32-0.06-0.44-0.18	c-0.25-0.24-0.25-0.63-0.01-0.88c0,0,0.01-0.01,0.01-0.01l0.26-0.27c-0.57-1.1-0.44-2.74,0.28-4.56l-0.97-0.98	c-0.5,1.14-0.8,2.24-0.89,3.25c-0.14,1.54,0.21,2.86,1.11,3.78c0.75,0.76,1.83,1.16,3.11,1.16	C239.33,48.72,239.53,48.69,239.72,48.67L239.72,48.67z M248.67,29.96c-1.01,0.08-2.1,0.39-3.23,0.88l0.95,0.96	c1.01-0.4,1.99-0.64,2.85-0.64c0.64,0,1.18,0.13,1.63,0.37l0.39-0.39c0.24-0.25,0.64-0.25,0.89,0c0.25,0.24,0.25,0.64,0,0.89	l-0.36,0.36c0.67,1.09,0.56,2.8-0.18,4.7l0.97,0.98c0.49-1.13,0.79-2.22,0.88-3.22c0.14-1.54-0.21-2.86-1.11-3.77	c-0.75-0.76-1.82-1.16-3.11-1.16C249.05,29.91,248.86,29.94,248.67,29.96L248.67,29.96z M243.31,39.18l-3.52,3.57l0.88,0.9	l3.53-3.58L243.31,39.18z M249.38,34.83l2.41-2.44l0.36-0.36c0.24-0.25,0.24-0.64,0-0.89c-0.25-0.24-0.64-0.24-0.89,0l-0.39,0.39	l-2.37,2.4L249.38,34.83L249.38,34.83z M247.61,34.83l-3.41,3.46l0.88,0.89l3.42-3.46L247.61,34.83z M238.9,43.65l-2.39,2.42	l-0.26,0.27c-0.24,0.25-0.24,0.64,0,0.89c0.25,0.24,0.65,0.24,0.89-0.01l0.21-0.21l2.44-2.47L238.9,43.65L238.9,43.65z M240.31,36.14l3.01,3.05l0.88,0.89l3.13,3.17l0.88,0.89l2.85,2.89l0.19,0.19c0.12,0.12,0.28,0.19,0.45,0.19	c0.16,0,0.32-0.06,0.44-0.18c0.25-0.24,0.25-0.64,0-0.89l-0.2-0.21l-2.85-2.88l-0.88-0.89l-3.13-3.17l-0.88-0.89l-3-3.04l-0.88-0.89	l-2.85-2.89l-0.32-0.33c-0.24-0.25-0.63-0.25-0.88-0.01c0,0-0.01,0.01-0.01,0.01c-0.25,0.24-0.25,0.64,0,0.89l0.33,0.33l2.85,2.88	L240.31,36.14L240.31,36.14z M236.79,41.51l2.11,2.14l0.88,0.89l2.25,2.27l0.95,0.96l1.89,1.91l0.78,0.79	c0.12,0.12,0.28,0.19,0.45,0.19c0.16,0,0.32-0.06,0.44-0.18c0.25-0.24,0.25-0.64,0-0.89l-0.13-0.13l-2.26-2.29l-0.92-0.93	l-2.58-2.61l-0.88-0.89l-2.44-2.47l-0.94-0.95l-2.23-2.26l-0.12-0.12c-0.24-0.25-0.63-0.25-0.88-0.01c0,0-0.01,0.01-0.01,0.01	c-0.25,0.24-0.25,0.64,0,0.89l0.8,0.81l1.86,1.89C235.81,40.53,236.79,41.51,236.79,41.51z M244.26,31.43l0.92,0.93l2.44,2.47	l0.88,0.89l2.56,2.6l0.94,0.95l2.22,2.25l0.1,0.1c0.12,0.12,0.28,0.19,0.45,0.19c0.16,0,0.32-0.06,0.44-0.18	c0.25-0.24,0.25-0.64,0-0.89l-0.79-0.8l-1.85-1.87l-0.97-0.98l-2.23-2.26l-0.88-0.89l-2.11-2.13l-0.95-0.96l-1.88-1.9l-0.63-0.63	c-0.24-0.25-0.63-0.25-0.88-0.01c0,0-0.01,0.01-0.01,0.01c-0.23,0.23-0.24,0.6-0.03,0.85l0.03,0.04	C242.03,29.21,244.26,31.43,244.26,31.43z M262.92,32.79c0.12,0.12,0.28,0.19,0.45,0.19c0.16,0,0.32-0.06,0.44-0.18	c0.25-0.24,0.25-0.64,0-0.89l-12.54-12.69c-0.24-0.25-0.63-0.25-0.88-0.01c0,0-0.01,0.01-0.01,0.01c-0.25,0.24-0.25,0.64,0,0.89	L262.92,32.79L262.92,32.79z M236.78,59.89c0.16,0,0.32-0.06,0.44-0.18c0.25-0.24,0.25-0.64,0-0.89l-12.54-12.69	c-0.24-0.25-0.63-0.25-0.88-0.01c0,0-0.01,0.01-0.01,0.01c-0.25,0.24-0.25,0.64,0,0.89l12.54,12.69	C236.46,59.82,236.62,59.89,236.78,59.89z"/><path fill="#FFF" d="M334.22,92.69l7.37-7.38l5.2,5.2l-7.37,7.38L334.22,92.69z"/><path fill="#BABFC5" d="M299.19,109.27l-52.2,52.2l24.19,24.19l22.15-22.15l-12.55-12.55l13.07-13.07l9.54-9.54l3.61,3.61l8.94,8.94	l6.74-6.74c0.32-0.28,0.64-0.57,0.93-0.86c5.6-5.6,6.48-14.1,2.7-20.65l13.94-13.93l-0.81-0.81l-5.21-5.21l-0.68-0.68l-14.04,14.04	c-6.34-3.37-14.35-2.46-19.79,2.7L299.19,109.27L299.19,109.27z"/><path fill="#FFF" d="M315.98,140.93l-0.03-0.03l-8.94-8.94l-3.61-3.61l-9.54,9.54l-13.07,13.07l12.55,12.55l0.03,0.03	L315.98,140.93L315.98,140.93z M312.41,144.5l-0.99,0.99l-8.98-8.98c-0.27-0.27-0.27-0.72,0-0.99c0.27-0.28,0.72-0.28,0.99,0	L312.41,144.5z"/><path fill="#979DA5" d="M303.42,135.52c-0.26-0.27-0.7-0.28-0.97-0.02c-0.01,0.01-0.01,0.01-0.02,0.02c-0.27,0.27-0.27,0.72,0,0.99	l8.98,8.98l0.99-0.99L303.42,135.52z"/><path fill="#BABFC5" d="M294.55,17.82c13.16-13.16,34.55-13.18,47.75-0.07l0.03,0.03l0.01,0.01l0.01,0.01l0.03,0.03 c13.11,13.19,13.09,34.59-0.07,47.75c-5.77,5.77-13.12,9.01-20.67,9.73v0.01l-41.86,5.03l5.03-41.86h0.01 C285.54,30.94,288.78,23.59,294.55,17.82z"/><path fill="#959CA5" d="M299.89,41.66c0-4.94,1.92-9.58,5.42-13.07c3.49-3.49,8.14-5.42,13.07-5.42c4.94,0,9.58,1.92,13.07,5.42 c3.49,3.49,5.42,8.13,5.42,13.07c0,0.53-0.43,0.96-0.96,0.96c-0.53,0-0.96-0.43-0.96-0.96c0-4.43-1.72-8.59-4.86-11.72 c-3.1-3.12-7.32-4.87-11.72-4.86c-4.43,0-8.59,1.72-11.72,4.86c-3.13,3.13-4.86,7.29-4.86,11.72s1.72,8.59,4.86,11.72 c6.46,6.46,16.98,6.46,23.44,0c1.58-1.58,2.81-3.43,3.64-5.48c0.2-0.49,0.76-0.72,1.25-0.53c0.49,0.2,0.73,0.75,0.53,1.25 c-0.93,2.29-2.3,4.35-4.06,6.12c-7.21,7.21-18.94,7.21-26.15,0C301.82,51.24,299.89,46.6,299.89,41.66L299.89,41.66z"/><path fill="#FFF" d="M352.67,160.98l-16.11-16.11c0,0-14.56,9.32-16.63,11.43c-5.9,5.9-5.91,15.46-0.03,21.34 s15.44,5.87,21.34-0.03C342.44,176.75,352.67,160.98,352.67,160.98L352.67,160.98z M318.14,193.56c-0.16,0-0.32-0.06-0.44-0.18 l-13.35-13.35c-0.24-0.24-0.24-0.64,0-0.88c0.23-0.24,0.62-0.25,0.86-0.02c0.01,0.01,0.01,0.01,0.02,0.02l13.35,13.35 c0.24,0.24,0.24,0.64,0,0.88C318.46,193.5,318.3,193.56,318.14,193.56z"/><path fill="#FFF" d="M311.72,186.63c-0.16,0-0.32-0.06-0.44-0.18c-0.24-0.24-0.24-0.64,0-0.88l8.27-8.27 c0.25-0.25,0.64-0.24,0.88,0s0.24,0.64,0,0.88l-8.27,8.27C312.04,186.57,311.88,186.63,311.72,186.63z"/><path fill="#EA4335" d="M341.24,177.62c0.11-0.11,0.28-0.36,0.28-0.36l3.54-5.16l-19.63-19.63l-5.17,3.53 c-0.11,0.1-0.22,0.2-0.33,0.31c-5.9,5.9-5.91,15.46-0.03,21.34C325.78,183.53,335.34,183.52,341.24,177.62L341.24,177.62z"/><path fill="#959CA5" d="M341.24,177.62c0.11-0.11,0.28-0.36,0.28-0.36l3.54-5.16l-19.63-19.63l-5.17,3.53 c-0.11,0.1-0.22,0.2-0.33,0.31c-5.9,5.9-5.91,15.46-0.03,21.34C325.78,183.53,335.34,183.52,341.24,177.62L341.24,177.62z"/><ellipse transform="matrix(0.7071 -0.7071 0.7071 0.7071 -18.1169 280.7322)" fill="#E1E2E6" cx="329.81" cy="162.23" rx="1.62" ry="1.62"/><ellipse transform="matrix(0.7071 -0.7071 0.7071 0.7071 -15.9894 288.5266)" fill="#959CA5" cx="340.28" cy="163.56" rx="1.12" ry="1.12"/><path fill="none" stroke="#FFF" stroke-width="1.249" stroke-linecap="round" stroke-linejoin="round" stroke-miterlimit="10" d="M348.86,161.48l-7.08,10.83"/><g><path fill="#BABFC5" d="M77.45,52.95l14.93-10.46L55.61,5.58L40.68,16.04L77.45,52.95z"/><path fill="#FFF" d="M74.68,50.17l12.58-8.18L56.03,10.64l-12.58,8.18L74.68,50.17z"/><path fill="#F1F1F2" d="M14.9,41.05L4.05,55.6l36.78,36.91l10.84-14.55L14.9,41.05z"/><path fill="#BABFC5" d="M14.9,41.05L4.05,55.6l36.78,36.91l10.84-14.55L14.9,41.05z"/><path fill="#F1F1F2" d="M66.6,67.5l10.85-14.55L40.68,16.04L29.83,30.59L66.6,67.5z"/><path fill="#BABFC5" d="M66.6,67.5l10.85-14.55L40.68,16.04L29.83,30.59L66.6,67.5z"/><path fill="#BABFC5" d="M51.67,77.96L66.6,67.5L29.83,30.59L14.9,41.05L51.67,77.96z"/><path fill="#FFF" d="M48.9,75.18l14.93-10.46L32.6,33.37L17.67,43.83L48.9,75.18z"/><path fill="none" d="M37.94,52.2l-3.89-6.49l-11.61,2.82v0.09l6.49,6.51L37.94,52.2z M42.36,43.7l-7.01,1.7l9.13,15.21 c1.4-1.03,3.04-1.66,4.77-1.84L57.14,58L42.71,43.52l-0.14,0.09C42.5,43.65,42.44,43.68,42.36,43.7z M43.49,61.44l-4.87-8.11 l-8.67,2.82l9.25,9.29L43.49,61.44z"/><path fill="#EAECED" d="M33.82,74.55c-0.11,0.15-0.28,0.24-0.46,0.25h-0.05c-0.17,0-0.33-0.06-0.45-0.18l-6.09-5.86 c-3.37-2.76-5.35-6.85-5.44-11.2l-0.19-9.52c0-0.2,0.09-0.37,0.23-0.49l-3.69-3.71L9.26,56.03l31.22,31.34l8.42-12.19l-8.8-8.83 l-0.01,0.01C40.09,66.36,33.82,74.55,33.82,74.55z"/><path fill="#EAECED" d="M27.63,67.8l5.61,5.39l5.87-7.66c0.02-0.03,0.05-0.05,0.07-0.08l0.02-0.01l-9.25-9.28l-7.26,2.36 C23.03,62.12,24.78,65.47,27.63,67.8z M28.93,55.13l-6.49-6.51l0.17,8.57L28.93,55.13z M52.44,35.61l-3.26-0.88 c-3.78-1.02-6.18-4.67-5.6-8.49l0.23-1.53c0.05-0.35,0.38-0.59,0.73-0.54s0.59,0.38,0.54,0.73l-0.23,1.53 c-0.49,3.18,1.52,6.21,4.66,7.06l4.36,1.18l3.01-1.97l-0.05-0.44L43.45,18.82L32.6,33.37l9.13,9.16l0.23-0.06 C41.96,42.47,52.44,35.61,52.44,35.61z M57.3,57.98l1.17-3.84c-0.69-5.07-2.49-8.67-5.36-10.71c-3.09-2.19-6.67-1.88-7.61-1.75 l-2.8,1.83L57.14,58L57.3,57.98z M58.4,58.77c-0.04,0.12-0.11,0.22-0.2,0.3l5.63,5.65l10.85-14.55L64.27,39.72h-0.03L58.4,58.77z"/><path fill="#EAECED" d="M47.75,40.21c1.66,0.07,3.94,0.51,6.15,2.08c2.71,1.91,4.5,4.83,5.45,8.99l3.79-12.4 c0.02-0.07,0.06-0.13,0.1-0.19l-5.21-5.23c-0.03,0.03-0.06,0.07-0.1,0.09C57.93,33.55,47.75,40.21,47.75,40.21z"/><path fill="#DFE1E5" d="M58.22,32.93l-1.78-14.42c-0.04-0.35-0.37-0.6-0.72-0.56c-0.35,0.04-0.6,0.37-0.56,0.72l1.68,13.59 l1.2,1.2C58.17,33.32,58.24,33.13,58.22,32.93z M49.26,58.77c-1.73,0.18-3.37,0.81-4.77,1.84L35.35,45.4l7.01-1.7 c0.07-0.02,0.14-0.05,0.2-0.09l0.14-0.09l-0.98-0.99L21.64,47.4c-0.1,0.02-0.19,0.08-0.26,0.15l1.07,1.07v-0.09l11.61-2.81 l3.89,6.48l-9.01,2.93l1.02,1.02l8.67-2.82l4.87,8.11l-4.29,4l0.91,0.91l4.41-4.12c0.01-0.01,0.03-0.02,0.04-0.04 c0.03-0.01,0.07-0.02,0.1-0.04c0.09-0.06,0.16-0.14,0.21-0.23c1.28-1.06,2.85-1.71,4.5-1.88l8.47-0.82 c0.13-0.01,0.25-0.07,0.35-0.15L57.14,58L49.26,58.77z M75.33,38.58l-11.56-0.15h-0.01c-0.21,0-0.4,0.1-0.52,0.26l1.02,1.03 l11.05,0.14h0.01c0.35,0,0.64-0.28,0.64-0.63c0.01-0.35-0.26-0.64-0.61-0.65C75.34,38.58,75.34,38.58,75.33,38.58z"/><path fill="#D4D7DB" d="M39.18,65.45c-0.03,0.02-0.05,0.05-0.07,0.08l-5.87,7.66l-5.61-5.39c-2.85-2.33-4.6-5.68-4.93-9.28 l7.26-2.36l-1.02-1.02l-6.32,2.06l-0.17-8.57l-1.07-1.07c-0.14,0.12-0.23,0.3-0.23,0.49l0.19,9.52c0.09,4.36,2.08,8.45,5.44,11.2 l6.09,5.86c0.12,0.12,0.28,0.18,0.45,0.18h0.05c0.18-0.01,0.35-0.1,0.46-0.25l6.27-8.19l0.01-0.01l-0.91-0.91H39.18z M63.15,38.88 l-3.79,12.4c-0.95-4.15-2.74-7.08-5.45-8.99c-1.81-1.27-3.94-1.99-6.15-2.08l10.18-6.66c0.04-0.03,0.07-0.06,0.1-0.09l-1.2-1.2 l0.05,0.44l-3.01,1.97l-4.36-1.18c-3.14-0.85-5.15-3.88-4.66-7.06l0.23-1.53c0.05-0.35-0.19-0.68-0.54-0.73 c-0.35-0.05-0.68,0.19-0.73,0.54l-0.23,1.53c-0.59,3.82,1.82,7.48,5.6,8.49l3.26,0.88l-10.49,6.87l-0.23,0.06l0.98,0.99l2.8-1.83 c0.94-0.13,4.52-0.45,7.61,1.75c2.87,2.03,4.66,5.64,5.36,10.71L57.31,58h-0.17l1.07,1.07c0.09-0.08,0.16-0.18,0.2-0.3l5.83-19.05 h0.03l-1.02-1.03C63.2,38.74,63.17,38.81,63.15,38.88z"/><path fill="#979DA5" d="M78.3,38.54l-2.17-0.02l0.02-1.99c0.01-0.4-0.32-0.73-0.72-0.74c0,0-0.01,0-0.01,0h-0.01 c-0.4,0-0.73,0.33-0.74,0.73l-0.02,1.99l-1.99-0.02h-0.01c-0.4,0-0.73,0.33-0.74,0.73c0,0.41,0.32,0.74,0.73,0.74l1.99,0.02 l-0.02,2.17c0,0.41,0.32,0.74,0.73,0.74h0.01c0.4,0,0.73-0.33,0.74-0.73l0.02-2.17l2.17,0.02h0.01c0.4,0,0.73-0.33,0.74-0.73 c0.01-0.4-0.31-0.73-0.71-0.74C78.31,38.54,78.31,38.54,78.3,38.54z"/><path fill="#A2A7AF" d="M33.21,63.41l-1.99-0.02l0.02-1.99c0.01-0.4-0.32-0.73-0.72-0.74c0,0-0.01,0-0.01,0 c-0.44,0.01-0.74,0.32-0.74,0.73l-0.02,1.99l-2.17-0.02c-0.44-0.01-0.74,0.32-0.74,0.73c0,0.41,0.32,0.74,0.73,0.74l2.17,0.02 l-0.02,2.17c0,0.41,0.32,0.74,0.73,0.74h0.01c0.4,0,0.73-0.33,0.74-0.73l0.02-2.17l1.99,0.02h0.01c0.4,0,0.73-0.33,0.74-0.73 C33.95,63.74,33.62,63.42,33.21,63.41L33.21,63.41z"/></g><g><path fill="#9FA5AD" d="M91.87,70.8c-0.58-0.58-1.35-0.87-2.11-0.87c-0.77,0-1.54,0.3-2.13,0.89l-2.95,2.97 c-1.17,1.17-1.16,3.07,0.01,4.24l0.35,0.35l7.2-7.2L91.87,70.8z M145.54,17.88l-0.37-0.37c-0.58-0.58-1.35-0.87-2.11-0.87 c-0.77,0-1.54,0.3-2.13,0.89l-2.95,2.97c-1.17,1.17-1.16,3.07,0.01,4.24l0.35,0.35l3.6-3.6L145.54,17.88L145.54,17.88z"/><path fill="#959CA5" d="M102.9,60.52l3.87-3.87l-0.14-0.14c-2.45-2.43-2.46-6.41-0.03-8.86l8.16-8.21 c1.17-1.19,2.77-1.85,4.44-1.85c1.6,0,3.2,0.61,4.42,1.82l0.19,0.19l3.87-3.87l-0.2-0.2c-4.59-4.56-12.04-4.54-16.6,0.05 l-8.16,8.21c-4.56,4.59-4.54,12.04,0.05,16.6L102.9,60.52L102.9,60.52z"/><path fill="#BABFC5" d="M106.77,56.65l-3.87,3.87L92.25,71.17l-7.2,7.2l-3.67,3.67c-4.69,4.69-4.69,12.28,0,16.97l38.01,38.01 c2.25,2.25,5.31,3.52,8.49,3.51l0.1-0.01c3.04-0.03,6.06-1.19,8.38-3.51l57-57l-54.99-54.98l7.22-7.22l54.98,54.98l3.68-3.68 c4.69-4.69,4.69-12.29,0-16.97l-38.01-38.01c-4.69-4.69-12.28-4.69-16.97,0l-7.32,7.32l-3.6,3.6L127.7,35.7l-3.87,3.87 L106.77,56.65z M126.13,80c-3.46,3.48-9.07,3.49-12.55,0.04c-3.48-3.46-3.49-9.07-0.04-12.55s9.07-3.49,12.55-0.04 C129.57,70.9,129.59,76.52,126.13,80z M140.03,133.36L85.04,78.38l7.22-7.22l54.98,54.99L140.03,133.36z M159.22,57.25l7.95,13.65 l-13.65,7.95l-7.95-13.65C145.57,65.2,159.22,57.25,159.22,57.25z"/><ellipse transform="matrix(0.7051 -0.7091 0.7091 0.7051 -16.9775 106.7121)" fill="#FFF" cx="119.81" cy="73.77" rx="8.87" ry="8.87"/><path fill="#888F98" d="M145.57,65.21l13.65-7.95l7.95,13.65l-13.65,7.95C153.52,78.86,145.57,65.21,145.57,65.21z"/><path fill="#FFF" d="M85.04,78.38l7.22-7.22l54.98,54.98l-7.22,7.22C140.02,133.36,85.04,78.38,85.04,78.38z M138.36,25.06 l54.99,54.98l7.22-7.22l-54.99-54.98C145.58,17.84,138.36,25.06,138.36,25.06z"/></g><g><linearGradient id="s" gradientUnits="userSpaceOnUse" x1="-3577.161" y1="2040.083" x2="-3576.161" y2="2040.083" gradientTransform="matrix(-32.0885 -32.0885 32.0885 -32.0885 -180031.9375 -49162.8867)"><stop offset="0" style="stop-color:#E1E2E3"/><stop offset=".56" style="stop-color:#F5F5F5"/><stop offset="1" style="stop-color:#FFFFFF"/></linearGradient><path fill="url(#s)" d="M192.73,136.07c1.09,0.21,2.13,0.74,2.97,1.58C194.89,136.83,193.86,136.28,192.73,136.07z"/><linearGradient id="t" gradientUnits="userSpaceOnUse" x1="-3577.161" y1="2040.012" x2="-3576.161" y2="2040.012" gradientTransform="matrix(-32.0885 -32.0885 32.0885 -32.0885 -180031.9375 -49162.8867)"><stop offset="0" style="stop-color:#E1E2E3"/><stop offset=".56" style="stop-color:#F5F5F5"/><stop offset="1" style="stop-color:#FFFFFF"/></linearGradient><path fill="url(#t)" d="M188.47,136.91c0.54-0.36,1.14-0.59,1.75-0.75C189.61,136.32,189.01,136.55,188.47,136.91z"/><linearGradient id="u" gradientUnits="userSpaceOnUse" x1="-3577.161" y1="2040.055" x2="-3576.161" y2="2040.055" gradientTransform="matrix(-32.0885 -32.0885 32.0885 -32.0885 -180031.9375 -49162.8867)"><stop offset="0" style="stop-color:#E1E2E3"/><stop offset=".56" style="stop-color:#F5F5F5"/><stop offset="1" style="stop-color:#FFFFFF"/></linearGradient><path fill="url(#u)" d="M192.73,136.07c-0.36-0.07-0.73-0.11-1.1-0.11c-0.34,0-0.67,0.04-1,0.1 C191.33,135.93,192.04,135.93,192.73,136.07z"/><path fill="#DADCE0" d="M190.31,139.35c-0.81,0.81-0.81,2.12,0,2.92c0.4,0.4,0.93,0.61,1.46,0.61s1.06-0.2,1.46-0.61 c0.81-0.81,0.81-2.12,0-2.92c-0.4-0.4-0.93-0.61-1.46-0.61S190.71,138.94,190.31,139.35z"/><path fill="#979DA5" d="M228.57,128.45l-2.26-2.26l-2.61,2.61l2.26,2.25L228.57,128.45L228.57,128.45z M233.43,133.31l-2.26-2.26 l-2.6,2.61l2.25,2.25L233.43,133.31z"/><path fill="#BABFC5" d="M225.96,131.05l-18.42,18.43l2.61,2.61l18.42-18.43l2.61-2.61l25.32-25.34c0.72-0.72,0.72-1.89,0-2.61 c-0.12-0.12-0.25-0.21-0.38-0.29l-0.31-0.15c-0.41-0.14-0.87-0.14-1.28,0.02l-0.02,0.01c-0.22,0.09-0.43,0.23-0.61,0.41 l-25.32,25.34L225.96,131.05L225.96,131.05z"/><path fill="#FFF" d="M264,88.5l-88.41,22.67l32.87,32.87l15.24-15.24l2.61-2.61L264,88.5z M215.58,151.16l22.05,22.05l14.7-58.8 l-18.9,18.9l-2.61,2.6L215.58,151.16z"/><linearGradient id="v" gradientUnits="userSpaceOnUse" x1="-3577.161" y1="2040.094" x2="-3576.161" y2="2040.094" gradientTransform="matrix(-32.0885 -32.0885 32.0885 -32.0885 -180031.9375 -49162.8867)"><stop offset="0" style="stop-color:#E1E2E3"/><stop offset=".56" style="stop-color:#F5F5F5"/><stop offset="1" style="stop-color:#FFFFFF"/></linearGradient><path fill="url(#v)" d="M210.15,152.09l9.96,9.96L210.15,152.09z"/><linearGradient id="w" gradientUnits="userSpaceOnUse" x1="-3577.161" y1="2040.094" x2="-3576.161" y2="2040.094" gradientTransform="matrix(-32.0885 -32.0885 32.0885 -32.0885 -180031.9375 -49162.8867)"><stop offset="0" style="stop-color:#E1E2E3"/><stop offset=".56" style="stop-color:#F5F5F5"/><stop offset="1" style="stop-color:#FFFFFF"/></linearGradient><path fill="url(#w)" d="M207.54,149.48l-11.83-11.83L207.54,149.48z"/><linearGradient id="x" gradientUnits="userSpaceOnUse" x1="-3577.161" y1="2039.992" x2="-3576.161" y2="2039.992" gradientTransform="matrix(-32.0885 -32.0885 32.0885 -32.0885 -180031.9375 -49162.8867)"><stop offset="0" style="stop-color:#E1E2E3"/><stop offset=".56" style="stop-color:#F5F5F5"/><stop offset="1" style="stop-color:#FFFFFF"/></linearGradient><path fill="url(#x)" d="M217.93,172.95l2.18-10.9L217.93,172.95z"/><path fill="#BABFC5" d="M207.54,149.48l2.61,2.61L207.54,149.48z"/><linearGradient id="y" gradientUnits="userSpaceOnUse" x1="-3577.161" y1="2040.094" x2="-3576.161" y2="2040.094" gradientTransform="matrix(-32.0885 -32.0885 32.0885 -32.0885 -180031.9375 -49162.8867)"><stop offset="0" style="stop-color:#E1E2E3"/><stop offset=".56" style="stop-color:#F5F5F5"/><stop offset="1" style="stop-color:#FFFFFF"/></linearGradient><path fill="url(#y)" d="M207.54,149.48l2.61,2.61L207.54,149.48z"/><path fill="#FFF" d="M207.54,149.48l-11.84-11.84c-0.81-0.81-1.84-1.36-2.97-1.58c-0.69-0.13-1.41-0.13-2.1-0.01l-0.41,0.1 c-0.61,0.16-1.21,0.39-1.75,0.75c-0.32,0.21-0.62,0.46-0.9,0.74l-2.47,2.46l32.83,32.83l2.18-10.9l-9.96-9.96L207.54,149.48 L207.54,149.48z M193.88,142.92c-1.17,1.16-3.05,1.16-4.22,0c-1.17-1.16-1.17-3.04-0.01-4.21c0,0,0.01-0.01,0.01-0.01 c1.16-1.17,3.04-1.17,4.21-0.01c0,0,0.01,0.01,0.01,0.01c1.17,1.16,1.17,3.04,0.01,4.21C193.89,142.91,193.88,142.92,193.88,142.92 z M200.03,149.07c-0.19,0.19-0.41,0.34-0.63,0.47c-0.2,0.11-0.4,0.2-0.61,0.26c-1.05,0.33-2.2,0.05-2.98-0.73 c-1.16-1.16-1.17-3.04-0.01-4.21c0.28-0.29,0.62-0.51,1-0.66c0.64-0.26,1.34-0.27,1.99-0.07c0.45,0.14,0.88,0.37,1.24,0.73 c1.16,1.15,1.17,3.03,0.02,4.19C200.04,149.06,200.04,149.06,200.03,149.07L200.03,149.07z M201.97,151.01 c0.58-0.58,1.35-0.87,2.11-0.87c0.57,0,1.15,0.16,1.64,0.49c0.17,0.11,0.32,0.24,0.47,0.38c1.17,1.16,1.17,3.04,0.01,4.21 c0,0-0.01,0.01-0.01,0.01c-0.44,0.44-0.98,0.71-1.54,0.82c-0.19,0.04-0.38,0.05-0.57,0.05c-0.76,0-1.53-0.29-2.11-0.87 C200.81,154.06,200.81,152.18,201.97,151.01L201.97,151.01z M212.34,157.16c1.16,1.17,1.16,3.05,0,4.22 c-0.22,0.22-0.48,0.39-0.74,0.53c-0.2,0.11-0.42,0.19-0.64,0.24l-0.21,0.05c-0.17,0.03-0.35,0.05-0.53,0.05 c-0.15,0-0.31-0.02-0.46-0.04c-0.15-0.02-0.29-0.06-0.44-0.11l-0.23-0.07c-0.36-0.15-0.7-0.36-0.99-0.65 c-1.17-1.16-1.17-3.04-0.01-4.21c0,0,0.01-0.01,0.01-0.01c0.29-0.29,0.63-0.51,0.99-0.66c0.81-0.33,1.72-0.29,2.49,0.13 C211.87,156.77,212.12,156.94,212.34,157.16L212.34,157.16z"/><linearGradient id="z" gradientUnits="userSpaceOnUse" x1="-3577.161" y1="2039.992" x2="-3576.161" y2="2039.992" gradientTransform="matrix(-32.0885 -32.0885 32.0885 -32.0885 -180031.9375 -49162.8867)"><stop offset="0" style="stop-color:#E1E2E3"/><stop offset=".56" style="stop-color:#F5F5F5"/><stop offset="1" style="stop-color:#FFFFFF"/></linearGradient><path fill="url(#z)" d="M207.54,149.48l-11.84-11.84c-0.81-0.81-1.84-1.36-2.97-1.58c-0.69-0.13-1.41-0.13-2.1-0.01 l-0.41,0.1c-0.61,0.16-1.21,0.39-1.75,0.75c-0.32,0.21-0.62,0.46-0.9,0.74l-2.47,2.46l32.83,32.83l2.18-10.9l-9.96-9.96 L207.54,149.48L207.54,149.48z M193.88,142.92c-1.17,1.16-3.05,1.16-4.22,0c-1.17-1.16-1.17-3.04-0.01-4.21 c0,0,0.01-0.01,0.01-0.01c1.16-1.17,3.04-1.17,4.21-0.01c0,0,0.01,0.01,0.01,0.01c1.17,1.16,1.17,3.04,0.01,4.21 C193.89,142.91,193.88,142.92,193.88,142.92z M200.03,149.07c-0.19,0.19-0.41,0.34-0.63,0.47c-0.2,0.11-0.4,0.2-0.61,0.26 c-1.05,0.33-2.2,0.05-2.98-0.73c-1.16-1.16-1.17-3.04-0.01-4.21c0.28-0.29,0.62-0.51,1-0.66c0.64-0.26,1.34-0.27,1.99-0.07 c0.45,0.14,0.88,0.37,1.24,0.73c1.16,1.15,1.17,3.03,0.02,4.19C200.04,149.06,200.04,149.06,200.03,149.07L200.03,149.07z M201.97,151.01c0.58-0.58,1.35-0.87,2.11-0.87c0.57,0,1.15,0.16,1.64,0.49c0.17,0.11,0.32,0.24,0.47,0.38 c1.17,1.16,1.17,3.04,0.01,4.21c0,0-0.01,0.01-0.01,0.01c-0.44,0.44-0.98,0.71-1.54,0.82c-0.19,0.04-0.38,0.05-0.57,0.05 c-0.76,0-1.53-0.29-2.11-0.87C200.81,154.06,200.81,152.18,201.97,151.01L201.97,151.01z M212.34,157.16 c1.16,1.17,1.16,3.05,0,4.22c-0.22,0.22-0.48,0.39-0.74,0.53c-0.2,0.11-0.42,0.19-0.64,0.24l-0.21,0.05 c-0.17,0.03-0.35,0.05-0.53,0.05c-0.15,0-0.31-0.02-0.46-0.04c-0.15-0.02-0.29-0.06-0.44-0.11l-0.23-0.07 c-0.36-0.15-0.7-0.36-0.99-0.65c-1.17-1.16-1.17-3.04-0.01-4.21c0,0,0.01-0.01,0.01-0.01c0.29-0.29,0.63-0.51,0.99-0.66 c0.81-0.33,1.72-0.29,2.49,0.13C211.87,156.77,212.12,156.94,212.34,157.16L212.34,157.16z"/><path fill="#BABFC5" d="M222.74,192.52c1.59,0.31,3.22,0.31,4.81,0c-0.79,0.15-1.6,0.23-2.4,0.23S223.54,192.67,222.74,192.52z M222.74,192.52c-1.19-0.23-2.35-0.63-3.45-1.21C220.39,191.88,221.55,192.29,222.74,192.52z M219.29,191.31 c-1.1-0.58-2.12-1.32-3.05-2.25C217.17,189.98,218.2,190.73,219.29,191.31z M227.55,192.52c1.06-0.21,2.1-0.56,3.1-1.05 C229.65,191.95,228.61,192.31,227.55,192.52z M185.1,140.11l-12.91-12.91L185.1,140.11l32.83,32.84l16.12,16.11l-16.12-16.11 L185.1,140.11z M185.1,140.11l-12.91-12.91c-0.31,0.31-0.6,0.63-0.86,0.96c-0.29,0.36-0.56,0.73-0.8,1.11l0.18,0.12l60.99,60.99 c0.1,0.11,0.17,0.25,0.2,0.4c0.41-0.26,0.82-0.54,1.2-0.86c0.33-0.27,0.65-0.56,0.96-0.86l-16.11-16.11L185.1,140.11z"/><linearGradient id="A" gradientUnits="userSpaceOnUse" x1="-3544.358" y1="2035.819" x2="-3543.358" y2="2035.819" gradientTransform="matrix(0 65.311 -65.311 0 133163.6406 231624.6875)"><stop offset="0" style="stop-color:#BABFC5"/><stop offset="1" style="stop-color:#949AA2"/></linearGradient><path fill="url(#A)" d="M185.1,140.11l-12.91-12.91c-0.31,0.31-0.6,0.63-0.86,0.96c-0.29,0.36-0.56,0.73-0.8,1.11 l0.18,0.12l60.99,60.99c0.1,0.11,0.17,0.25,0.2,0.4c0.41-0.26,0.82-0.54,1.2-0.86c0.33-0.27,0.65-0.56,0.96-0.86l-16.11-16.11 L185.1,140.11z"/><path fill="#BABFC5" d="M230.62,191.45l-60.84-60.84c-2.1,4.32-1.59,9.59,1.55,13.44c0.27,0.33,0.56,0.65,0.86,0.96l44.06,44.06 c0.92,0.92,1.95,1.67,3.05,2.25s2.26,0.98,3.45,1.21c0.79,0.15,1.6,0.23,2.4,0.23s1.61-0.08,2.4-0.23c1.06-0.21,2.1-0.56,3.1-1.05 L230.62,191.45L230.62,191.45z"/><linearGradient id="B" gradientUnits="userSpaceOnUse" x1="-3544.358" y1="2035.86" x2="-3543.358" y2="2035.86" gradientTransform="matrix(0 65.311 -65.311 0 133163.6406 231624.6875)"><stop offset="0" style="stop-color:#BABFC5"/><stop offset="1" style="stop-color:#949AA2"/></linearGradient><path fill="url(#B)" d="M230.62,191.45l-60.84-60.84c-2.1,4.32-1.59,9.59,1.55,13.44c0.27,0.33,0.56,0.65,0.86,0.96 l44.06,44.06c0.92,0.92,1.95,1.67,3.05,2.25s2.26,0.98,3.45,1.21c0.79,0.15,1.6,0.23,2.4,0.23s1.61-0.08,2.4-0.23 c1.06-0.21,2.1-0.56,3.1-1.05L230.62,191.45L230.62,191.45z"/><path fill="#FFF" d="M231.69,190.38l-60.99-60.99l-0.18-0.12c-0.36-0.2-0.82-0.08-1.02,0.28c-0.17,0.3-0.11,0.67,0.13,0.91 l0.14,0.14l60.84,60.84l0.03,0.02c0.3,0.27,0.76,0.26,1.05-0.02c0.18-0.18,0.24-0.43,0.2-0.67 C231.86,190.62,231.79,190.49,231.69,190.38z M189.66,138.7c-1.17,1.16-1.17,3.04-0.01,4.21c0,0,0.01,0.01,0.01,0.01 c1.17,1.16,3.05,1.16,4.22,0c1.17-1.16,1.17-3.04,0.01-4.21c0,0-0.01-0.01-0.01-0.01c-1.16-1.17-3.04-1.17-4.21-0.01 C189.67,138.69,189.66,138.7,189.66,138.7z M193.23,142.27c-0.4,0.4-0.93,0.61-1.46,0.61s-1.06-0.2-1.46-0.61 c-0.81-0.81-0.81-2.12,0-2.92c0.4-0.4,0.93-0.61,1.46-0.61s1.06,0.2,1.46,0.61C194.04,140.15,194.04,141.46,193.23,142.27z M198.8,144.12c-0.65-0.2-1.36-0.18-1.99,0.07c-0.36,0.15-0.7,0.36-0.99,0.65c-1.17,1.16-1.17,3.04-0.01,4.21 c0,0,0.01,0.01,0.01,0.01c0.78,0.78,1.93,1.06,2.98,0.73c0.21-0.06,0.42-0.15,0.61-0.26c0.22-0.13,0.44-0.28,0.63-0.47 c1.17-1.16,1.17-3.04,0.01-4.21c0,0-0.01-0.01-0.01-0.01C199.68,144.5,199.25,144.26,198.8,144.12L198.8,144.12z M197.93,149.03 c-0.53,0-1.06-0.2-1.46-0.61c-0.81-0.81-0.81-2.12,0-2.92c0.4-0.4,0.93-0.61,1.46-0.61c0.53,0,1.06,0.2,1.46,0.61 c0.81,0.81,0.81,2.12,0,2.92C198.98,148.83,198.45,149.03,197.93,149.03z"/><path fill="#DADCE0" d="M199.39,145.5c-0.4-0.4-0.93-0.61-1.46-0.61c-0.53,0-1.06,0.2-1.46,0.61c-0.81,0.81-0.81,2.12,0,2.92 c0.4,0.4,0.93,0.61,1.46,0.61c0.53,0,1.06-0.2,1.46-0.61C200.2,147.62,200.2,146.31,199.39,145.5z"/><path fill="#FFF" d="M204.08,156.1c0.19,0,0.38-0.02,0.57-0.05c0.56-0.11,1.1-0.38,1.54-0.82c1.17-1.16,1.17-3.04,0.01-4.21 c-0.15-0.15-0.31-0.28-0.48-0.39c-1.18-0.78-2.75-0.62-3.75,0.38c-1.16,1.17-1.16,3.05,0,4.22 C202.55,155.81,203.32,156.1,204.08,156.1L204.08,156.1z M202.62,151.66c0.4-0.4,0.93-0.6,1.46-0.6s1.06,0.2,1.46,0.6 c0.81,0.8,0.81,2.1,0.01,2.91c-0.39,0.39-0.92,0.61-1.47,0.61c-1.14,0.01-2.06-0.91-2.07-2.05 C202.01,152.58,202.23,152.05,202.62,151.66z"/><path fill="#DADCE0" d="M204.08,155.18c1.14,0,2.06-0.92,2.06-2.06s-0.92-2.06-2.06-2.06s-2.06,0.92-2.06,2.06 S202.94,155.18,204.08,155.18z"/><path fill="#FFF" d="M210.23,162.25c0.19,0,0.38-0.02,0.57-0.05c0.56-0.11,1.1-0.38,1.54-0.82c1.17-1.16,1.17-3.04,0.01-4.21 c-0.15-0.15-0.31-0.28-0.48-0.39c-1.18-0.78-2.75-0.62-3.75,0.38c-1.16,1.17-1.16,3.05,0,4.22 C208.7,161.96,209.47,162.25,210.23,162.25L210.23,162.25z M208.77,157.81c0.4-0.4,0.93-0.6,1.46-0.6s1.06,0.2,1.46,0.6 c0.81,0.8,0.81,2.1,0.01,2.91c-0.39,0.39-0.92,0.61-1.47,0.61c-1.14,0.01-2.06-0.91-2.07-2.05 C208.16,158.73,208.38,158.2,208.77,157.81z"/><path fill="#DADCE0" d="M210.23,161.33c1.14,0,2.06-0.92,2.06-2.06s-0.92-2.06-2.06-2.06l0,0c-1.14,0-2.06,0.92-2.06,2.06 S209.09,161.33,210.23,161.33z"/></g><g><path fill="none" d="M19.74,160.47c-2.3-6.86-2.3-14.28,0.02-21.13c1.66-4.91,4.46-9.37,8.17-12.99 c6.38-6.23,14.64-9.34,22.91-9.37c8.25-0.03,16.5,3.03,22.89,9.15l4.38-4.28c-1.77-1.55-3.68-2.93-5.69-4.15 c-18.75-11.24-43.09-6.12-54.24,11.4c-9.32,14.65-7.41,34.39,4.55,46.95l3.96-3.88c-0.79-0.87-1.53-1.76-2.22-2.69 C22.43,166.74,20.83,163.7,19.74,160.47L19.74,160.47z"/><path fill="#979DA5" d="M18.17,129.1c11.16-17.53,35.49-22.64,54.24-11.4c2.03,1.22,3.94,2.62,5.69,4.15l0.81-0.8 c0.39-0.38,0.98-0.39,1.39-0.07c-0.04-0.05-0.07-0.11-0.12-0.16c-2.05-1.88-4.29-3.54-6.68-4.97 c-19.74-11.83-45.37-6.41-57.15,12.09c-9.85,15.47-7.82,36.33,4.83,49.6l1.53-1.5C10.76,163.49,8.85,143.75,18.17,129.1z"/><path fill="#979DA5" d="M80.26,122.34c-0.4,0.44-1.08,0.47-1.51,0.07c-0.21-0.19-0.43-0.37-0.65-0.56l-4.38,4.28 c0.26,0.25,0.53,0.5,0.79,0.77c0.24,0.25,0.47,0.51,0.71,0.76l5.19-5.08c0.42-0.41,0.43-1.09,0.02-1.51 c-0.04-0.04-0.08-0.05-0.12-0.08C80.61,121.39,80.62,121.96,80.26,122.34z M26.68,172.18l-3.96,3.88c0.01,0.01,0.02,0.02,0.02,0.03 c0.41,0.43,0.39,1.1-0.04,1.51c-0.42,0.41-1.09,0.4-1.5-0.02c0,0-0.01-0.01-0.01-0.01l-2.35,2.3l1.52,1.51l7.82-7.65 c-0.26-0.25-0.53-0.5-0.79-0.76C27.15,172.69,26.92,172.43,26.68,172.18L26.68,172.18z"/><path fill="#979DA5" d="M21.97,177.89c0.27,0,0.53-0.1,0.74-0.3c0.43-0.41,0.44-1.08,0.04-1.51c-0.01-0.01-0.02-0.02-0.02-0.03 l-1.53,1.5C21.41,177.78,21.69,177.89,21.97,177.89z M78.92,121.06l-0.81,0.8c0.21,0.19,0.44,0.37,0.65,0.56 c0.36,0.46,1.02,0.55,1.48,0.19c0.46-0.36,0.55-1.02,0.19-1.48c-0.03-0.04-0.07-0.08-0.11-0.12 C79.9,120.67,79.31,120.68,78.92,121.06z M18.67,182.58c-0.28,0-0.55-0.11-0.76-0.32c0,0,0-0.01-0.01-0.01c0,0-0.01,0-0.01-0.01 c-0.41-0.42-0.41-1.1,0.02-1.51l0.6-0.59l0.02,0.02l0.32-0.31l-8.9-8.84c-0.62-0.62-1.65-0.63-2.28-0.03s-0.65,1.6-0.03,2.22 l19.31,19.17c0.62,0.62,1.65,0.63,2.28,0.03s0.65-1.6,0.03-2.22l-8.89-8.82l-0.94,0.92C19.21,182.48,18.94,182.58,18.67,182.58 L18.67,182.58z"/><path fill="#979DA5" d="M17.91,180.73c-0.42,0.41-0.43,1.09-0.02,1.51c0,0,0.01,0,0.01,0.01c-0.41-0.42-0.4-1.09,0.02-1.5l0.6-0.59 l-0.02-0.02L17.91,180.73L17.91,180.73z M18.53,180.16l1.48,1.51l-0.6,0.59c-0.42,0.41-1.09,0.4-1.5-0.01c0,0,0,0.01,0.01,0.01 c0.21,0.21,0.49,0.32,0.76,0.32s0.54-0.1,0.75-0.3l0.94-0.92l-1.52-1.51L18.53,180.16z"/><path fill="#979DA5" d="M17.9,182.25c0.41,0.41,1.08,0.42,1.5,0.01l0.6-0.59l-1.48-1.51l-0.6,0.59 C17.51,181.16,17.5,181.83,17.9,182.25z"/><path fill="#BABFC5" d="M23.81,156.84c0.13-0.6,0.13-1.24-0.01-1.88C23.79,155.59,23.8,156.21,23.81,156.84z M76.18,128.75 c0.29,0.35,0.58,0.7,0.86,1.06C76.76,129.45,76.48,129.1,76.18,128.75z M27.66,171.17l0.02,0.02l0.73-0.71 c-0.05,0.03-0.11,0.05-0.15,0.1L27.66,171.17z M30.24,175.53c-0.35-0.28-0.69-0.58-1.03-0.88 C29.55,174.95,29.89,175.25,30.24,175.53z M28.18,173.71l0.6,0.57C28.58,174.09,28.38,173.89,28.18,173.71z M75.82,128.32 c-0.19-0.22-0.39-0.44-0.59-0.66C75.42,127.89,75.63,128.1,75.82,128.32z M75.22,127.67c-0.23-0.26-0.46-0.52-0.7-0.77 C74.76,127.15,74.99,127.41,75.22,127.67z"/><path fill="#BABFC5" d="M77.19,130.02c-0.82-0.65-1.66-1.25-2.52-1.81c-0.62-0.4-1.26-0.78-1.9-1.14 c-4.88-2.72-10.37-4.15-15.96-4.17l4.61,6.74c2.02,3.01,1.4,7.03-1.46,9.34l-3.37,2.73c-2.55,2.05-6.14,2.21-8.86,0.39l-6.44-4.34 c-1.83-1.22-4.1-1.58-6.21-0.98l-6.41,1.81c-2,3.24-3.38,6.76-4.15,10.38c1.01-1.75,2.67-3.04,4.62-3.57l6.51-1.77 c4.07-1.11,8.26,1.3,9.37,5.37l1.13,4.15l0.64,2.37l0.32,1.19c1.11,4.07-1.3,8.26-5.37,9.37l-2.21,0.6l-4.3,1.17l-1.45,0.39 l-4.12,1.12c-0.03,0.01-0.07,0.01-0.1,0.02c-0.9,0.24-1.8,0.35-2.7,0.36c0.24,0.52,0.5,1.03,0.76,1.53c0.34,0.65,0.7,1.29,1.1,1.92 c0.53,0.86,1.11,1.7,1.73,2.51c10.18,8.13,24.1,9.36,35.41,3.62c-1.12-2.84-0.5-6.2,1.82-8.47l0.44-0.43 c1.46-1.43,1.49-3.77,0.07-5.23c0,0-0.01-0.01-0.01-0.01c-3.02-3.09-2.97-8.04,0.12-11.07c0,0,0.01-0.01,0.01-0.01l7.41-7.24 c2.05-2.01,5.05-2.73,7.79-1.88C82.71,139.64,80.6,134.5,77.19,130.02L77.19,130.02z M63.18,169.67l-0.51,0.5 c-1.11,1.08-2.88,1.06-3.96-0.05c0,0,0,0,0,0l-0.5-0.51c-1.08-1.11-1.06-2.88,0.05-3.96c0,0,0,0,0,0l0.51-0.5 c1.11-1.08,2.88-1.06,3.96,0.05c0,0,0,0,0,0l0.5,0.51C64.3,166.82,64.28,168.59,63.18,169.67z M27.4,172.94 c0.26,0.26,0.52,0.51,0.79,0.76C27.92,173.45,27.65,173.21,27.4,172.94z"/><path fill="#FFF" d="M75.73,146.83l-7.41,7.24c-3.1,3.02-3.15,7.98-0.13,11.08c0,0,0,0,0,0c1.43,1.46,1.4,3.81-0.06,5.24 l-0.44,0.43c-2.25,2.2-2.97,5.54-1.82,8.47c2.91-1.48,5.66-3.42,8.12-5.82c7.89-7.71,11.07-18.41,9.54-28.54 C80.86,144.13,77.85,144.75,75.73,146.83L75.73,146.83z M58.71,170.12c1.08,1.11,2.85,1.13,3.96,0.05c0,0,0,0,0,0l0.51-0.5 c1.11-1.08,1.13-2.85,0.05-3.96c0,0,0,0,0,0l-0.5-0.51c-1.08-1.11-2.85-1.13-3.96-0.05c0,0,0,0,0,0l-0.51,0.5 c-1.11,1.08-1.13,2.85-0.05,3.96c0,0,0,0,0,0L58.71,170.12z M47.1,156.69l-0.32-1.19l-0.64-2.37l-1.13-4.15 c-1.11-4.07-5.3-6.47-9.37-5.37l-6.51,1.77c-1.95,0.53-3.62,1.81-4.62,3.57c-0.42,1.97-0.66,3.98-0.71,6 c0.14,0.64,0.14,1.27,0.01,1.88c0.13,4.41,1.15,8.8,3.05,12.88c0.89-0.01,1.79-0.12,2.7-0.36c0.03-0.01,0.07-0.01,0.1-0.02 l4.12-1.12l1.45-0.39l4.3-1.17l2.21-0.6C45.81,164.96,48.21,160.76,47.1,156.69L47.1,156.69z M33.71,132.27 c-1.93,1.89-3.62,4-5.04,6.3l6.41-1.81c2.12-0.6,4.4-0.24,6.21,0.98l6.44,4.34c2.72,1.82,6.31,1.66,8.86-0.39l3.37-2.73 c2.86-2.31,3.48-6.33,1.46-9.34l-4.61-6.74C48.49,122.87,40.14,125.99,33.71,132.27L33.71,132.27z"/><linearGradient id="C" gradientUnits="userSpaceOnUse" x1="133.838" y1="3877.018" x2="92.136" y2="3835.316" gradientTransform="matrix(-0.0116 0.9999 0.9999 0.0116 -3838.1147 3.9182)"><stop offset="0" style="stop-color:#FFFFFF"/><stop offset="1" style="stop-color:#808285"/></linearGradient><path opacity=".2" fill="url(#C)" d="M29.21,174.65c-0.14-0.13-0.29-0.25-0.43-0.38 C28.92,174.41,29.07,174.53,29.21,174.65z"/><linearGradient id="D" gradientUnits="userSpaceOnUse" x1="87.491" y1="3923.367" x2="45.789" y2="3881.664" gradientTransform="matrix(-0.0116 0.9999 0.9999 0.0116 -3838.1147 3.9182)"><stop offset="0" style="stop-color:#FFFFFF"/><stop offset="1" style="stop-color:#808285"/></linearGradient><path opacity=".2" fill="url(#D)" d="M77.22,130.04c-0.06-0.08-0.13-0.15-0.19-0.23 c0.05,0.07,0.1,0.14,0.16,0.21C77.2,130.02,77.21,130.03,77.22,130.04L77.22,130.04z"/><linearGradient id="E" gradientUnits="userSpaceOnUse" x1="87.37" y1="3923.487" x2="45.669" y2="3881.784" gradientTransform="matrix(-0.0116 0.9999 0.9999 0.0116 -3838.1147 3.9182)"><stop offset="0" style="stop-color:#FFFFFF"/><stop offset="1" style="stop-color:#808285"/></linearGradient><path opacity=".2" fill="url(#E)" d="M75.82,128.32c0.12,0.14,0.24,0.29,0.36,0.43 C76.06,128.61,75.94,128.46,75.82,128.32z"/><linearGradient id="F" gradientUnits="userSpaceOnUse" x1="133.721" y1="3877.135" x2="92.019" y2="3835.434" gradientTransform="matrix(-0.0116 0.9999 0.9999 0.0116 -3838.1147 3.9182)"><stop offset="0" style="stop-color:#FFFFFF"/><stop offset="1" style="stop-color:#808285"/></linearGradient><path opacity=".2" fill="url(#F)" d="M30.47,175.72c-0.01-0.01-0.01-0.02-0.02-0.03 c-0.07-0.05-0.14-0.11-0.2-0.16C30.32,175.59,30.39,175.66,30.47,175.72z"/><path fill="#BABFC5" d="M50.84,116.99c1.64,0.63,3.11,1.65,4.1,3.16l1.88,2.75c5.51,0.01,11.02,1.41,15.96,4.17l0.95-0.93 C67.35,120.02,59.1,116.96,50.84,116.99z"/><linearGradient id="G" gradientUnits="userSpaceOnUse" x1="90.862" y1="3919.994" x2="49.16" y2="3878.293" gradientTransform="matrix(-0.0116 0.9999 0.9999 0.0116 -3838.1147 3.9182)"><stop offset="0" style="stop-color:#FFFFFF"/><stop offset="1" style="stop-color:#808285"/></linearGradient><path opacity=".2" fill="url(#G)" d="M50.84,116.99c1.64,0.63,3.11,1.65,4.1,3.16l1.88,2.75 c5.51,0.01,11.02,1.41,15.96,4.17l0.95-0.93C67.35,120.02,59.1,116.96,50.84,116.99z"/><path fill="#BABFC5" d="M28.19,173.7c0.2,0.19,0.39,0.39,0.6,0.57c0.14,0.13,0.29,0.25,0.43,0.38c0.34,0.3,0.68,0.59,1.03,0.88 c0.07,0.05,0.14,0.11,0.2,0.16c-0.61-0.81-1.19-1.65-1.73-2.51L28.19,173.7L28.19,173.7z M74.68,128.2 c0.86,0.56,1.7,1.16,2.52,1.81c-0.05-0.07-0.1-0.14-0.16-0.21c-0.28-0.36-0.56-0.71-0.86-1.06c-0.12-0.14-0.24-0.29-0.36-0.43 c-0.19-0.22-0.4-0.43-0.6-0.65C75.22,127.66,74.68,128.2,74.68,128.2z"/><linearGradient id="H" gradientUnits="userSpaceOnUse" x1="87.602" y1="3923.254" x2="45.9" y2="3881.553" gradientTransform="matrix(-0.0116 0.9999 0.9999 0.0116 -3838.1147 3.9182)"><stop offset="0" style="stop-color:#FFFFFF"/><stop offset="1" style="stop-color:#808285"/></linearGradient><path opacity=".2" fill="url(#H)" d="M74.68,128.2c0.86,0.56,1.7,1.16,2.52,1.81 c-0.05-0.07-0.1-0.14-0.16-0.21c-0.28-0.36-0.56-0.71-0.86-1.06c-0.12-0.14-0.24-0.29-0.36-0.43c-0.19-0.22-0.4-0.43-0.6-0.65 C75.22,127.66,74.68,128.2,74.68,128.2z"/><path fill="#BABFC5" d="M26.86,169.72c-0.81,0.01-1.62-0.07-2.4-0.23c0.68,0.92,1.42,1.82,2.22,2.69l0.94-0.92 C27.36,170.75,27.1,170.24,26.86,169.72L26.86,169.72z M23.81,156.84c-0.02-0.63-0.03-1.25-0.01-1.88l-0.03-0.2 c-0.55-2.04-0.23-4.11,0.75-5.8c0.77-3.62,2.16-7.14,4.15-10.38l-3.91,1.1c-1.66,0.46-3.42,0.34-5-0.33 c-2.32,6.85-2.32,14.27-0.02,21.13l0.9-0.24C22.25,159.79,23.48,158.48,23.81,156.84z"/><linearGradient id="I" gradientUnits="userSpaceOnUse" x1="123.941" y1="3886.916" x2="82.24" y2="3845.213" gradientTransform="matrix(-0.0116 0.9999 0.9999 0.0116 -3838.1147 3.9182)"><stop offset="0" style="stop-color:#FFFFFF"/><stop offset="1" style="stop-color:#808285"/></linearGradient><path opacity=".2" fill="url(#I)" d="M23.81,156.84c-0.02-0.63-0.03-1.25-0.01-1.88 l-0.03-0.2c-0.55-2.04-0.23-4.11,0.75-5.8c0.77-3.62,2.16-7.14,4.15-10.38l-3.91,1.1c-1.66,0.46-3.42,0.34-5-0.33 c-2.32,6.85-2.32,14.27-0.02,21.13l0.9-0.24C22.25,159.79,23.48,158.48,23.81,156.84z"/><path fill="#BABFC5" d="M74.52,126.9c-0.26-0.26-0.52-0.51-0.79-0.77l-0.95,0.93c0.64,0.36,1.28,0.73,1.9,1.14l0.55-0.53 C74.99,127.41,74.76,127.15,74.52,126.9L74.52,126.9z"/><linearGradient id="J" gradientUnits="userSpaceOnUse" x1="87.79" y1="3923.066" x2="46.089" y2="3881.365" gradientTransform="matrix(-0.0116 0.9999 0.9999 0.0116 -3838.1147 3.9182)"><stop offset="0" style="stop-color:#FFFFFF"/><stop offset="1" style="stop-color:#808285"/></linearGradient><path opacity=".2" fill="url(#J)" d="M74.52,126.9c-0.26-0.26-0.52-0.51-0.79-0.77 l-0.95,0.93c0.64,0.36,1.28,0.73,1.9,1.14l0.55-0.53C74.99,127.41,74.76,127.15,74.52,126.9L74.52,126.9z"/><path fill="#BABFC5" d="M26.68,172.18c0.24,0.26,0.47,0.52,0.71,0.77c0.26,0.26,0.53,0.51,0.79,0.76l0.54-0.52 c-0.39-0.63-0.75-1.27-1.1-1.92L26.68,172.18z"/><linearGradient id="K" gradientUnits="userSpaceOnUse" x1="36.6" y1="36.545" x2="-.439" y2="-.493" gradientTransform="matrix(1 0 0 -1 0 200)"><stop offset="0" style="stop-color:#FFFFFF"/><stop offset="1" style="stop-color:#808285"/></linearGradient><path opacity=".2" fill="url(#K)" d="M28.72,173.18c-0.39-0.63-0.75-1.27-1.1-1.92 c-0.27-0.51-0.52-1.02-0.76-1.53c-0.81,0.01-1.62-0.07-2.4-0.23c0.68,0.92,1.42,1.82,2.22,2.69c0.24,0.26,0.47,0.52,0.71,0.77 c0.26,0.26,0.53,0.51,0.79,0.76c0.2,0.19,0.39,0.39,0.6,0.57c0.14,0.13,0.29,0.25,0.43,0.38c0.34,0.3,0.68,0.59,1.03,0.88 c0.07,0.05,0.14,0.11,0.2,0.16C29.83,174.87,29.25,174.04,28.72,173.18L28.72,173.18z"/><path fill="#E1E2E6" d="M20.64,160.23l-0.9,0.24c1.09,3.23,2.69,6.28,4.72,9.02c0.78,0.16,1.58,0.24,2.4,0.23 c-1.9-4.08-2.91-8.47-3.05-12.88C23.48,158.43,22.31,159.78,20.64,160.23z"/><linearGradient id="L" gradientUnits="userSpaceOnUse" x1="130.714" y1="3880.142" x2="89.012" y2="3838.441" gradientTransform="matrix(-0.0116 0.9999 0.9999 0.0116 -3838.1147 3.9182)"><stop offset="0" style="stop-color:#FFFFFF"/><stop offset="1" style="stop-color:#E6E6E7"/></linearGradient><path fill="url(#L)" d="M20.64,160.23l-0.9,0.24c1.09,3.23,2.69,6.28,4.72,9.02c0.78,0.16,1.58,0.24,2.4,0.23 c-1.9-4.08-2.91-8.47-3.05-12.88C23.48,158.43,22.31,159.78,20.64,160.23z"/><path fill="#E1E2E6" d="M23.77,154.76c0.02,0.07,0.02,0.13,0.03,0.2c0.05-2.01,0.29-4.02,0.71-6 C23.5,150.72,23.24,152.8,23.77,154.76z"/><linearGradient id="M" gradientUnits="userSpaceOnUse" x1="125.167" y1="3885.689" x2="83.466" y2="3843.987" gradientTransform="matrix(-0.0116 0.9999 0.9999 0.0116 -3838.1147 3.9182)"><stop offset="0" style="stop-color:#FFFFFF"/><stop offset="1" style="stop-color:#E6E6E7"/></linearGradient><path fill="url(#M)" d="M23.77,154.76c0.02,0.07,0.02,0.13,0.03,0.2c0.05-2.01,0.29-4.02,0.71-6 C23.5,150.72,23.24,152.8,23.77,154.76z"/><path fill="#E1E2E6" d="M24.76,139.68l3.91-1.1c1.39-2.25,3.06-4.37,5.04-6.3c6.43-6.28,14.78-9.4,23.11-9.38l-1.88-2.75 c-0.99-1.51-2.46-2.54-4.1-3.16c-8.27,0.03-16.53,3.14-22.91,9.37c-3.71,3.62-6.51,8.07-8.17,12.99 C21.32,140.01,23.08,140.16,24.76,139.68z"/><linearGradient id="N" gradientUnits="userSpaceOnUse" x1="107.469" y1="3903.387" x2="65.768" y2="3861.685" gradientTransform="matrix(-0.0116 0.9999 0.9999 0.0116 -3838.1147 3.9182)"><stop offset="0" style="stop-color:#FFFFFF"/><stop offset="1" style="stop-color:#E6E6E7"/></linearGradient><path fill="url(#N)" d="M24.76,139.68l3.91-1.1c1.39-2.25,3.06-4.37,5.04-6.3c6.43-6.28,14.78-9.4,23.11-9.38l-1.88-2.75 c-0.99-1.51-2.46-2.54-4.1-3.16c-8.27,0.03-16.53,3.14-22.91,9.37c-3.71,3.62-6.51,8.07-8.17,12.99 C21.32,140.01,23.08,140.16,24.76,139.68z"/></g><g><path fill="#979DA5" d="M185.39,177.98c-2.51-2.53-6-3.99-9.57-3.99h-23.39c-0.02,0.52-0.05,1.01-0.1,1.48h23.49 c3.17,0,6.28,1.29,8.51,3.55l6.44,6.54c0.15,0.15,0.34,0.22,0.53,0.22s0.38-0.07,0.52-0.21c0.29-0.29,0.29-0.76,0.01-1.05 L185.39,177.98L185.39,177.98z M125.5,174.09l-0.1-0.01c-0.48-0.05-0.96-0.08-1.44-0.08h-6.87c-0.05,0.48-0.13,0.97-0.25,1.48h7.12 c0.36,0,0.72,0.02,1.07,0.05l0.33,0.04l0.42,0.06h0.01C125.65,175.1,125.55,174.59,125.5,174.09z M138.8,184.78l-0.56-0.01 L138.8,184.78z M139.75,184.79h-0.71H139.75z M139.83,184.79h-0.08H139.83z M140.1,184.78l-0.24,0.01L140.1,184.78z"/><path fill="#BABFC5" d="M90.13,173.18H89.3c-0.73,0-1.33,0.6-1.33,1.33s0.6,1.33,1.33,1.33h0.98 C90.19,175.02,90.14,174.13,90.13,173.18z"/><path fill="#767E87" d="M132.47,179.02l1.29,1.3l1.05-1.05l-1.28-1.3c-1.78-1.79-4.03-3.05-6.49-3.63l-0.13-0.03 c0.07,0.39,0.25,1.19,0.37,1.61l0.15,0.06C129.32,176.56,131.07,177.6,132.47,179.02L132.47,179.02z M139.97,184.52l-4.34-4.41 l-1.05,1.05l3.54,3.6l0.08,0.09l0.56,0.03l1.06,0.02l0.32-0.02l-0.01-0.11C140.1,184.67,140.04,184.59,139.97,184.52z M92.22,174.5 c0,0.38-0.16,0.73-0.42,0.97h23.52c0.14-0.51,0.23-1.01,0.29-1.48H92.12C92.18,174.15,92.22,174.32,92.22,174.5z"/><path fill="#9299A1" d="M92.22,174.5c0-0.18-0.04-0.36-0.1-0.51c-0.1-0.25-0.28-0.45-0.5-0.6c0.01,0.74,0.05,1.45,0.13,2.12 l0.06-0.04C92.06,175.23,92.22,174.89,92.22,174.5z"/><g fill="#979DA5"><path d="M148.46,165.94c-5.37-2.35-14.95-0.65-15.04-0.63c-3.44,0.68-5.79,2.07-7.04,4.12l-0.27,0.51 c0.42,0.77,0.66,1.66,0.66,2.6c0,0.41-0.33,0.74-0.74,0.74c-0.26,0-0.49-0.15-0.62-0.37c-0.01,0.38,0,0.76,0.03,1.15 c0.04,0.48,0.13,0.97,0.25,1.48l0.15,0.62c2.91,10.17,10.3,10.17,13.85,10.17c0.12,0,2.76,0,4.88-0.61 c3.17-0.9,6.86-3.37,7.67-9.82c0.1-0.82,0.16-1.71,0.16-2.66l0.01-0.27v-0.22C152.41,171.23,152.41,167.67,148.46,165.94 L148.46,165.94z M150.93,172.98l-0.01,0.48c-0.01,0.74-0.05,1.45-0.13,2.12c-0.54,4.68-2.76,7.62-6.62,8.72 c-1.92,0.55-4.44,0.56-4.46,0.57c-3.44,0-9.83,0-12.43-9.1l-0.05-0.22c-0.14-0.48-0.23-0.98-0.29-1.48 c-0.17-1.5,0.07-2.79,0.72-3.86c1.02-1.69,3.04-2.84,6-3.43c1-0.2,3.88-0.6,7-0.6c2.55,0,5.25,0.26,7.21,1.12 c3.06,1.34,3.06,4.01,3.06,5.45V172.98L150.93,172.98z"/><path d="M117.13,172.91c-0.13,0.22-0.36,0.37-0.62,0.37c-0.41,0-0.74-0.33-0.74-0.74c0-0.94,0.24-1.83,0.66-2.6 l-0.27-0.51c-1.25-2.05-3.6-3.44-7.04-4.12c-0.09-0.02-9.67-1.72-15.04,0.63c-3.95,1.73-3.95,5.29-3.95,6.81v0.22l0.01,0.27 c0,0.95,0.06,1.84,0.16,2.66c0.81,6.45,4.5,8.92,7.67,9.82c2.12,0.61,4.76,0.61,4.88,0.61c3.55,0,10.94,0,13.85-10.17l0.15-0.62 c0.12-0.51,0.21-1,0.25-1.48C117.13,173.67,117.14,173.29,117.13,172.91L117.13,172.91z M98.37,184.3 c-3.86-1.1-6.08-4.04-6.62-8.72c-0.08-0.67-0.12-1.38-0.13-2.12l-0.01-0.48v-0.23c0-1.44,0-4.11,3.06-5.45 c1.96-0.86,4.66-1.12,7.21-1.12c3.12,0,6,0.4,7,0.6c2.96,0.59,4.98,1.74,6,3.43c0.65,1.07,0.89,2.36,0.72,3.86 c-0.05,0.47-0.15,0.97-0.29,1.48l-0.05,0.22c-2.6,9.1-8.99,9.1-12.43,9.1C102.81,184.86,100.29,184.85,98.37,184.3L98.37,184.3z M115.77,172.54c0,0.41,0.33,0.74,0.74,0.74c0.27,0,0.5-0.15,0.62-0.37c0.08-0.11,0.12-0.24,0.12-0.37c0-2.21,1.8-4.02,4.02-4.02 s4.02,1.8,4.02,4.02c0,0.17,0.07,0.33,0.17,0.45c0.14,0.17,0.34,0.29,0.57,0.29c0.41,0,0.74-0.33,0.74-0.74 c0-0.92-0.23-1.78-0.63-2.54c-0.92-1.75-2.76-2.96-4.87-2.96c-2.02,0-3.88,1.11-4.84,2.9C116,170.71,115.77,171.6,115.77,172.54 L115.77,172.54z"/></g><path opacity=".5" fill="#979DA5" d="M150.93,172.98l-0.01,0.48c-0.01,0.74-0.05,1.45-0.13,2.12 c-0.54,4.68-2.76,7.62-6.62,8.72c-1.92,0.55-4.44,0.56-4.46,0.57c-3.44,0-9.83,0-12.43-9.1l-0.05-0.22 c-0.14-0.48-0.23-0.98-0.29-1.48c-0.17-1.5,0.07-2.79,0.72-3.86c1.02-1.69,3.04-2.84,6-3.43c1-0.2,3.88-0.6,7-0.6 c2.55,0,5.25,0.26,7.21,1.12c3.06,1.34,3.06,4.01,3.06,5.45V172.98L150.93,172.98z M98.37,184.3c-3.86-1.1-6.08-4.04-6.62-8.72 c-0.08-0.67-0.12-1.38-0.13-2.12l-0.01-0.48v-0.23c0-1.44,0-4.11,3.06-5.45c1.96-0.86,4.66-1.12,7.21-1.12c3.12,0,6,0.4,7,0.6 c2.96,0.59,4.98,1.74,6,3.43c0.65,1.07,0.89,2.36,0.72,3.86c-0.05,0.47-0.15,0.97-0.29,1.48l-0.05,0.22 c-2.6,9.1-8.99,9.1-12.43,9.1C102.81,184.86,100.29,184.85,98.37,184.3L98.37,184.3z"/><path fill="#D5D8DB" d="M135.63,180.11l9.96-9.96c0.23-0.23,0.23-0.6,0-0.83c-0.11-0.11-0.26-0.17-0.41-0.17 c-0.15,0-0.3,0.06-0.41,0.17l-9.95,9.95L135.63,180.11L135.63,180.11z M133.76,180.32l-0.4,0.4c-0.23,0.23-0.23,0.6,0,0.83 c0.11,0.11,0.26,0.17,0.41,0.17c0.15,0,0.3-0.06,0.41-0.17l0.39-0.39L133.76,180.32L133.76,180.32z"/><path fill="#BBBFC3" d="M134.58,181.16l1.05-1.05l-0.82-0.83l-1.05,1.04L134.58,181.16L134.58,181.16z"/><path fill="#D5D8DB" d="M145.57,173.49c-0.15,0-0.3,0.06-0.41,0.17l-6.61,6.61c-0.23,0.23-0.23,0.6,0,0.83 c0.11,0.11,0.26,0.17,0.41,0.17c0.15,0,0.3-0.06,0.41-0.17l6.61-6.61c0.23-0.23,0.23-0.6,0-0.83 C145.87,173.55,145.73,173.49,145.57,173.49z"/></g></svg>
