<svg version="1.1" xmlns="http://www.w3.org/2000/svg" width="300" height="200"><path fill="none" stroke="#F1F3F4" stroke-width=".7041" stroke-miterlimit="10" d="M278.5 46.6h-10.7c-1.8 0-3.2-1.4-3.2-3.2v-.1c0-1.8 1.4-3.2 3.2-3.2h10.7c1.8 0 3.2 1.4 3.2 3.2v.1c0 1.7-1.4 3.2-3.2 3.2z"/><linearGradient id="a" gradientUnits="userSpaceOnUse" x1="273.1" y1="2085.6509" x2="273.1" y2="2154.6455" gradientTransform="translate(0 -2038)"><stop offset="0" style="stop-color:#F1F3F4"/><stop offset="1" style="stop-color:#F1F3F4;stop-opacity:0"/></linearGradient><path fill="url(#a)" d="M286.3 117.6V52.4c0-2.2-1.8-4-4-4h-18.4c-2.2 0-4 1.8-4 4v65.2h26.4z"/><path fill="none" stroke="#FFF" stroke-width=".5" stroke-miterlimit="10" d="M267.4 117.6V54.9c0-.7-.6-1.2-1.2-1.2s-1.2.6-1.2 1.2v62.8M274.3 117.6V54.9c0-.7-.6-1.2-1.2-1.2s-1.2.6-1.2 1.2v62.8M281.3 117.6V54.9c0-.7-.6-1.2-1.2-1.2s-1.2.6-1.2 1.2v62.8"/><linearGradient id="b" gradientUnits="userSpaceOnUse" x1="146.9" y1="2095.105" x2="146.9" y2="2154.9448" gradientTransform="translate(0 -2038)"><stop offset="0" style="stop-color:#F1F3F4"/><stop offset="1" style="stop-color:#F1F3F4;stop-opacity:0"/></linearGradient><path fill="url(#b)" d="M160.9 117.6l.2-64c0-.5-.5-.9-1-.8l-26.6 7.6c-.4.1-.7.5-.7 1l-.1 56.3 28.2-.1z"/><linearGradient id="c" gradientUnits="userSpaceOnUse" x1="250.7937" y1="2102.0725" x2="245.7561" y2="2139.8545" gradientTransform="translate(0 -2038)"><stop offset="0" style="stop-color:#F1F3F4"/><stop offset="1" style="stop-color:#F1F3F4;stop-opacity:0"/></linearGradient><path fill="url(#c)" d="M235.3 76h22.3v41.3h-22.3z"/><linearGradient id="d" gradientUnits="userSpaceOnUse" x1="207.4547" y1="2108.8894" x2="202.8659" y2="2143.3059" gradientTransform="translate(0 -2038)"><stop offset="0" style="stop-color:#F1F3F4"/><stop offset="1" style="stop-color:#F1F3F4;stop-opacity:0"/></linearGradient><path fill="url(#d)" d="M177.8 83.8h51.4v33.5h-51.4z"/><linearGradient id="e" gradientUnits="userSpaceOnUse" x1="1553.7166" y1="2074.2476" x2="1552.8593" y2="2135.1133" gradientTransform="translate(-1406.9292 -2038)"><stop offset="0" style="stop-color:#F1F3F4"/><stop offset="1" style="stop-color:#F1F3F4;stop-opacity:0"/></linearGradient><path fill="url(#e)" d="M154.6 51.2l-16.1 4.6c-.2.1-.3-.1-.3-.3v-7.1c0-.2.2-.4.4-.5l16.1-4.6c.2-.1.3.1.3.3v7.1c0 .3-.2.5-.4.5z"/><linearGradient id="f" gradientUnits="userSpaceOnUse" x1="146.9" y1="2095.105" x2="146.9" y2="2154.9448" gradientTransform="translate(0 -2038)"><stop offset="0" style="stop-color:#F1F3F4"/><stop offset="1" style="stop-color:#F1F3F4;stop-opacity:0"/></linearGradient><path fill="url(#f)" d="M160.9 117.6l.2-64c0-.5-.5-.9-1-.8l-26.6 7.6c-.4.1-.7.5-.7 1l-.1 56.3 28.2-.1z"/><path fill="none" stroke="#FFF" stroke-width=".5" stroke-linejoin="round" stroke-miterlimit="10" d="M132.8 65.8l28.3-8.1M138.9 63.9V116M139.6 53.6s4.6-.9 4.6-4.6c0-.9-1.4-1.3-1.5.1-.1 1.6 1.9 4.4 4.7 2.3 3-2.2 2.4-4.3 1.7-4.3-1.3 0-1.1 5.2 5.1 2.1"/><linearGradient id="g" gradientUnits="userSpaceOnUse" x1="249.9" y1="2148.1001" x2="249.9" y2="2148.1001" gradientTransform="translate(0 -2038)"><stop offset="0" style="stop-color:#D6D6D6"/><stop offset=".0482" style="stop-color:#D9D9D9;stop-opacity:0.9518"/><stop offset=".6507" style="stop-color:#F5F5F5;stop-opacity:0.3493"/><stop offset="1" style="stop-color:#FFFFFF;stop-opacity:0"/></linearGradient><radialGradient id="h" cx="898.5327" cy="1770.5197" r="74.6497" gradientTransform="matrix(.8719 .3479 -.197 .4937 -309.2273 -1082.8663)" gradientUnits="userSpaceOnUse"><stop offset="0" style="stop-color:#F1F3F4"/><stop offset="1" style="stop-color:#F1F3F4;stop-opacity:0"/></radialGradient><path fill="url(#h)" d="M119.4 150.4c106.1 0 93.2-25.6 87.5-32.8H96v32.8h23.4z"/><radialGradient id="i" cx="1026.6809" cy="1763.5109" r="67.5693" gradientTransform="matrix(.8719 .3479 -.197 .4937 -302.0436 -1130.5641)" gradientUnits="userSpaceOnUse"><stop offset="0" style="stop-color:#F1F3F4"/><stop offset="1" style="stop-color:#F1F3F4;stop-opacity:0"/></radialGradient><path fill="url(#i)" d="M226.8 117.6c7.5 2.9 40.2 16.5 36.7 29.7-2.1 7.9-9.9 14.1-19.4 18.8h56.3v-48.5h-73.6z"/><path fill="none" stroke="#7F7F7F" stroke-width=".5" stroke-linecap="round" stroke-linejoin="round" stroke-miterlimit="10" d="M267.4 113.5v15.8"/><linearGradient id="j" gradientUnits="userSpaceOnUse" x1="212.4797" y1="2059.0291" x2="208.0715" y2="2183.927" gradientTransform="translate(0 -2038)"><stop offset="0" style="stop-color:#000000"/><stop offset=".317" style="stop-color:#070808;stop-opacity:0.652"/><stop offset=".8165" style="stop-color:#1B1C1F;stop-opacity:0.1038"/><stop offset=".9111" style="stop-color:#202124;stop-opacity:0"/></linearGradient><path fill="url(#j)" d="M203.2 154.2c-16.7.3-27.9-5.1-24.8-11.7 1.2-2.6 4.5-5.1 9.1-7 0 0 8-3.1 11.5-4.7 3.2-1.5 12.9-6.1 15.9-9.3.6-.6 2-1 3.5-1 1.4 0 2.5.4 2.6 1 .1 3.2 5.5 7.8 7.3 9.3 2 1.6 7.1 4.7 7.1 4.7 2.8 2 3.8 4.4 2.6 7-3.1 6.6-18.4 11.9-34.8 11.7zm6.6-15.3c-5.8 0-11.3 1.9-12.4 4.2-1.1 2.3 2.8 4.2 8.5 4.2s11.3-1.9 12.4-4.2c1.1-2.3-2.7-4.2-8.5-4.2z"/><linearGradient id="k" gradientUnits="userSpaceOnUse" x1="208.1433" y1="1872.6614" x2="228.4121" y2="2353.7061" gradientTransform="translate(0 -2038)"><stop offset="0" style="stop-color:#70757A"/><stop offset=".0743" style="stop-color:#797D82"/><stop offset=".7056" style="stop-color:#BFC1C6"/><stop offset="1" style="stop-color:#DADCE0"/></linearGradient><path fill="url(#k)" d="M218.2 29.6c-18.2-.7-33.2 13.9-33.2 32 0 7.2 2.4 13.9 6.4 19.2 0 0 7.2 8.4 10.2 12.8 2.8 4.1 11 16.7 12.8 25.4.4 1.5 1.8 2.6 3.3 2.7 1.6 0 2.9-1.1 3.3-2.7 1.7-8.7 10-21.3 12.8-25.4 3-4.4 10.2-12.8 10.2-12.8 4-5.3 6.4-12 6.4-19.2.1-18.1-13.9-32.7-32.2-32zm-.5 41.8c-6.4 0-11.5-5.2-11.5-11.5s5.2-11.5 11.5-11.5c6.4 0 11.5 5.2 11.5 11.5s-5.1 11.5-11.5 11.5z"/><linearGradient id="l" gradientUnits="userSpaceOnUse" x1="273.9618" y1="2172.0669" x2="272.5756" y2="2183.6191" gradientTransform="translate(0 -2038)"><stop offset="0" style="stop-color:#202124"/><stop offset="1" style="stop-color:#202124;stop-opacity:0"/></linearGradient><path opacity=".3" fill="url(#l)" d="M253.6 135.4s-7 5.3 7.6 4c0 0-2.1 2.8 3.6 3.2s12.1-3.6 12.1-3.6 5.3 2 18.5-3.6h-41.8z"/><path fill-rule="evenodd" clip-rule="evenodd" fill="#7F7F7F" d="M282.9 126.9c-.4-1-1.4-1.6-2.5-1.3l-11.1 3.1 8.8-6c1.6-1.1 1.8-3.4.4-4.8s-3.7-1.1-4.8.6l-6.2 10-6.2-10c-1-1.7-3.4-2-4.8-.6s-1.2 3.7.4 4.8l8.8 6-11.1-3.1c-1-.3-2.1.3-2.5 1.3-.5 1.3.5 2.7 1.9 2.7h27c1.4 0 2.4-1.4 1.9-2.7z"/><path fill-rule="evenodd" clip-rule="evenodd" fill="#D3D3D3" d="M269.9 110.4c-.8-2-1.4-3.8-1.9-4.9-.2-.4-.7-.4-.9 0-.4 1.1-1.1 2.9-1.9 4.9-.9 2.5 2.3 3.9 2.3 3.9s3.3-1.4 2.4-3.9z"/><path fill="none" stroke="#E6EBF0" stroke-width=".5" stroke-linecap="round" stroke-linejoin="round" stroke-miterlimit="10" d="M259.7 120.8l7.9 8.8-10.4-1.7M275.5 120.8l-7.9 8.8 10.4-1.7"/><path fill-rule="evenodd" clip-rule="evenodd" fill="#E6EBF0" d="M268.2 108.7c.2-.3.5-.5.8-.7-.1-.2-.2-.5-.3-.7-.2.2-.6.5-.9.8-.5-.6-.9-1.1-1.1-1.3-.1.2-.2.5-.3.7.8.9 2.6 3 2.8 5.7.2-.2.4-.5.6-.8-.3-1.4-.9-2.7-1.6-3.7z"/><path fill-rule="evenodd" clip-rule="evenodd" fill="#DADCE0" d="M295.4 135.4h-41.9s3.4-10.3 13.3-6.1c0 0 3.2-5.8 8.5-5.5 5.2.3 6.7 6.1 6.7 6.1s9.7-5.1 13.4 5.5z"/><linearGradient id="m" gradientUnits="userSpaceOnUse" x1="162.6656" y1="2131.1411" x2="158.0592" y2="2175.5313" gradientTransform="translate(0 -2038)"><stop offset="0" style="stop-color:#202124"/><stop offset="1" style="stop-color:#202124;stop-opacity:0"/></linearGradient><path fill="url(#m)" d="M168.2 131.1c-2.2 0-4-.4-5.5-.9-3.3 1.8-8.5 3.7-15.5 3.7-13.6 0-10.3-6.9-10.3-6.9h44.7s-5.9 4.1-13.4 4.1z"/><path fill="#DADCE0" d="M171.3 119.2c-2.2 0-4.3.7-6.2 1.7-1.9-3.4-5.5-7-12.6-7-13.6 0-15.9 13.3-15.9 13.3h44.7c.1-.1-2.5-8-10-8z"/><linearGradient id="n" gradientUnits="userSpaceOnUse" x1="16.6955" y1="2188.8103" x2="48.6546" y2="2163.4634" gradientTransform="translate(0 -2038)"><stop offset=".0803" style="stop-color:#FFFFFF;stop-opacity:0"/><stop offset=".1352" style="stop-color:#F0F1F1;stop-opacity:0.0627"/><stop offset=".3265" style="stop-color:#C3C5C7;stop-opacity:0.2809"/><stop offset=".5098" style="stop-color:#9FA2A6;stop-opacity:0.4901"/><stop offset=".6808" style="stop-color:#85898E;stop-opacity:0.6852"/><stop offset=".8347" style="stop-color:#757A7F;stop-opacity:0.8608"/><stop offset=".9567" style="stop-color:#70757A"/></linearGradient><path fill="url(#n)" d="M92.5 81.4l3.1 44.3-9.1 8.7c-4.6 4.2-11.3 7.4-18.4 4.8l-32 27.2L.4 124.7l38.3-14.5L49.3 90c3-5.9 8.5-11.1 15.3-12.5l18.3-3.8c2.1-.4 4.3.6 5.3 2.5 1.3 2.4.4 5.3-1.9 6.6l-16.1 9c-.8.4-1.1 1.5-.6 2.3.4.8 1.4 1.1 2.2.7L83.6 89"/><path fill="none" stroke="#FFF" stroke-width=".5" stroke-miterlimit="10" d="M73.4 78h0c-.2-1.2.6-2.3 1.8-2.5l6.1-1.3c1.2-.2 2.3.6 2.5 1.8h0c.2 1.2-.6 2.3-1.8 2.5l-6 1.3c-1.2.2-2.3-.6-2.6-1.8z"/><path fill="#70757A" d="M127.1 100.5l7.5.7c1 .1 2.1 0 3.1-.4 2.8-1.2 4.1-4.3 3-6.8-1.1-2.6-4.3-3.7-7-2.5l-6.6 9zM127.2 102.7c-.7-2.7-3.7-4.2-6.6-3.5l-3.1 7.8c-1-.3-2.1-.3-3.2 0l-3.1 7.8c-1-.3-2.1-.3-3.2 0l-5 8.5 4.5 1.3c1 .3 2 .3 3.1 0 2.9-.8 4.7-3.6 3.9-6.3-.1-.5-.4-1-.6-1.4.9.2 2 .3 3 0 2.9-.8 4.7-3.6 3.9-6.3-.1-.5-.4-1-.6-1.4.9.2 2 .3 3 0 3-1 4.7-3.8 4-6.5z"/><linearGradient id="o" gradientUnits="userSpaceOnUse" x1="113.9214" y1="2137.4333" x2="110.2541" y2="2159.7705" gradientTransform="translate(0 -2038)"><stop offset="0" style="stop-color:#202124"/><stop offset="1" style="stop-color:#202124;stop-opacity:0"/></linearGradient><path fill="url(#o)" d="M119.6 107.5c-1-.3-4.2-.8-5.3-.5l-3.1 7.8c-1-.3-2.1-.3-3.2 0l-5 8.5 3.9 1.1c3.1-6.7 7.1-7.5 7.1-7.5 1.9-3.2 3.8-6.3 5.6-9.4z"/><linearGradient id="p" gradientUnits="userSpaceOnUse" x1="133.2201" y1="2121.9316" x2="132.2492" y2="2138.3381" gradientTransform="translate(0 -2038)"><stop offset="0" style="stop-color:#202124"/><stop offset="1" style="stop-color:#202124;stop-opacity:0"/></linearGradient><path fill="url(#p)" d="M138.9 91.9s-4.2 3.5-4.3 9.4l-8.5-1 10.4-9.8 2.4 1.4"/><path fill="#70757A" d="M140 83.1l-24.7-16c-2.5-1.6-5.8-1.4-8.1.6l-51.5 45.7c-1.8 1.6-1.5 4.4.4 5.7l27.8 18c1.9 1.2 4.3 1 6-.5l50.7-46.5c2.2-1.8 1.9-5.4-.6-7z"/><path fill="none" stroke="#FFF" stroke-width=".5" stroke-linecap="round" stroke-miterlimit="10" d="M54.6 116l30.7 19.4c1.1.7 2.5.6 3.5-.3l53.4-48.7"/><linearGradient id="q" gradientUnits="userSpaceOnUse" x1="-58.5" y1="2237.804" x2="102.653" y2="2136.4521" gradientTransform="translate(0 -2038)"><stop offset="0" style="stop-color:#F1F3F4"/><stop offset="1" style="stop-color:#F1F3F4;stop-opacity:0"/></linearGradient><path fill="url(#q)" d="M140 83.1l-24.7-16c-2.5-1.6-5.8-1.4-8.1.6l-51.5 45.7c-.7.6-1.1 1.5-1.2 2.4l30.8 19.6c1.1.7 2.5.6 3.5-.3l53.3-48.6c-.1-1.3-.8-2.6-2.1-3.4z"/><path fill="none" stroke="#FFF" stroke-width=".5" stroke-linecap="round" stroke-miterlimit="10" d="M117.5 110.2h0c.3.3.8.3 1.2 0l5.5-5.1c.3-.3.3-.8 0-1.2h0c-.3-.3-.8-.3-1.1 0l-5.5 5c-.4.4-.4 1-.1 1.3zM125.6 102.8h0c.3.3.8.3 1.2 0l5.5-5c.3-.3.3-.8 0-1.2h0c-.3-.3-.8-.3-1.1 0l-5.5 5c-.4.3-.5.8-.1 1.2z"/><path fill="#FFF" d="M60.5 116.3L85.1 132c.8.5 1.9.4 2.6-.2l47-42.8c1.7-1.5 1.4-4.1-.4-5.3l-20.8-13.1c-2.1-1.3-4.7-1.1-6.5.6L60.3 113c-1.1.8-1 2.5.2 3.3z"/><linearGradient id="r" gradientUnits="userSpaceOnUse" x1="46.0268" y1="2170.8274" x2="110.488" y2="2131.4128" gradientTransform="translate(0 -2038)"><stop offset=".352" style="stop-color:#FFFFFF"/><stop offset="1" style="stop-color:#FFFFFF;stop-opacity:0.2"/></linearGradient><path fill="url(#r)" d="M60.5 116.3L85.1 132c.8.5 1.9.4 2.6-.2l47-42.8c1.7-1.5 1.4-4.1-.4-5.3l-20.8-13.1c-2.1-1.3-4.7-1.1-6.5.6L60.3 113c-1.1.8-1 2.5.2 3.3z"/><linearGradient id="s" gradientUnits="userSpaceOnUse" x1="49.5649" y1="2136.1763" x2="71.1825" y2="2168.2495" gradientTransform="translate(0 -2038)"><stop offset="0" style="stop-color:#202124"/><stop offset="1" style="stop-color:#202124;stop-opacity:0"/></linearGradient><path fill="url(#s)" d="M55.9 119.1l14.6 20.8s5.6 1.8 13-2.9l-27.6-17.9z"/><path fill="none" stroke="#FFF" stroke-width=".7041" stroke-linecap="round" stroke-miterlimit="10" d="M123.9 75.1l5.3 3.5"/><ellipse fill="#FFF" cx="122.3" cy="74.1" rx=".6" ry=".5"/><linearGradient id="t" gradientUnits="userSpaceOnUse" x1="96.6322" y1="2128.9402" x2="69.6924" y2="2137.0222" gradientTransform="translate(0 -2038)"><stop offset="0" style="stop-color:#202124"/><stop offset="1" style="stop-color:#202124;stop-opacity:0"/></linearGradient><path fill="url(#t)" d="M69.6 93.9l-7 13.4 21-18.6-11.8 5.8c0 .1-1.4.8-2.2-.6z"/><linearGradient id="u" gradientUnits="userSpaceOnUse" x1="107.0359" y1="2129.5308" x2="96.2603" y2="2140.7959" gradientTransform="translate(0 -2038)"><stop offset="0" style="stop-color:#F1F3F4"/><stop offset=".5338" style="stop-color:#F5F6F7;stop-opacity:0.4662"/><stop offset="1" style="stop-color:#FFFFFF;stop-opacity:0"/></linearGradient><path fill="url(#u)" d="M108.6 108.8c-4.9 5.8-13.4 6.7-19 2-5.5-4.7-6-13.2-1-18.9 4.9-5.8 13.4-6.7 19-2 5.5 4.6 6 13.1 1 18.9z"/><path fill="#70757A" d="M95.8 103.6c-1.5-1.3-1.6-3.6-.3-5.1l5.7-6.7c1.3-1.6 3.6-1.8 5.1-.5 1.5 1.3 1.6 3.6.3 5.1l-5.7 6.7c-1.3 1.5-3.6 1.7-5.1.5z"/><linearGradient id="v" gradientUnits="userSpaceOnUse" x1="881.3456" y1="443.2741" x2="881.3456" y2="401.7152" gradientTransform="matrix(.7435 .6296 -.6668 .7804 -282.4972 -775.4735)"><stop offset="0" style="stop-color:#F1F3F4"/><stop offset="1" style="stop-color:#F1F3F4;stop-opacity:0"/></linearGradient><path fill="url(#v)" d="M95.8 103.6c-1.5-1.3-1.6-3.6-.3-5.1l5.7-6.7c1.3-1.6 3.6-1.8 5.1-.5 1.5 1.3 1.6 3.6.3 5.1l-5.7 6.7c-1.3 1.5-3.6 1.7-5.1.5z"/><radialGradient id="w" cx="1113.9935" cy="407.5604" r="1.8095" gradientTransform="matrix(.698 .591 -.6259 .7326 -430.0607 -849.39)" gradientUnits="userSpaceOnUse"><stop offset="0" style="stop-color:#FFFFFF"/><stop offset="1" style="stop-color:#FFFFFF;stop-opacity:0"/></radialGradient><path opacity=".4" fill="url(#w)" d="M91.3 109.8l-.9-.8 3-3.6 1 .8z"/><path fill="#70757A" d="M91.6 109.5l-1-.8 2.5-3 1 .8z"/><linearGradient id="x" gradientUnits="userSpaceOnUse" x1="881.3248" y1="415.822" x2="881.3248" y2="420.2511" gradientTransform="matrix(.7435 .6296 -.6668 .7804 -282.4972 -775.4735)"><stop offset="0" style="stop-color:#4F4F4F"/><stop offset="1" style="stop-color:#202124;stop-opacity:0"/></linearGradient><path fill="url(#x)" d="M91.6 109.5l-1-.8 2.5-3 1 .8z"/><path fill="#DADCE0" d="M103.3 103.7l-.6.7c-2.2 2.5-5.9 2.9-8.3.9-1.2-1-1.8-2.4-1.9-3.8-.1-1.5.4-3.1 1.5-4.4l.8-.9-1-.8-.8.8c-1.3 1.5-1.9 3.4-1.8 5.2.1 1.8.9 3.6 2.4 4.9 2.9 2.5 7.5 2 10.1-1.1l.6-.7-1-.8z"/><path fill="#70757A" d="M103.3 103.7l-.6.7c-2.2 2.5-5.9 2.9-8.3.9-1.2-1-1.8-2.4-1.9-3.8-.1-1.5.4-3.1 1.5-4.4l.8-.9-1-.8-.8.8c-1.3 1.5-1.9 3.4-1.8 5.2.1 1.8.9 3.6 2.4 4.9 2.9 2.5 7.5 2 10.1-1.1l.6-.7-1-.8z"/><path fill="none" stroke="#FFF" stroke-width=".7041" stroke-miterlimit="10" d="M100 93.2l1.9 1.6M98.5 94.9l1.9 1.7M97 96.7l1.9 1.6M103.5 96.1l1.9 1.6M102 97.9l1.9 1.6M100.5 99.7l1.9 1.6"/><linearGradient id="y" gradientUnits="userSpaceOnUse" x1="169.8" y1="2102.6499" x2="169.8" y2="2153.6931" gradientTransform="translate(0 -2038)"><stop offset="0" style="stop-color:#F1F3F4"/><stop offset="1" style="stop-color:#F1F3F4;stop-opacity:0"/></linearGradient><path fill="url(#y)" d="M178.6 117.6V79.3c0-7.3-5.9-13.3-13.3-13.3H161v51.5l17.6.1z"/><path fill="#70757A" d="M143.3 116.5l7.5 10.5h.6l-7.7-10.8c-.2.1-.3.2-.4.3zM138.3 122.4l7 4.7h.9l-7.7-5.1c0 .1-.1.2-.2.4zM157.6 114.6l-1.8 6.9-5.1-7.5c-.2 0-.4 0-.6.1l5.5 8.1-1.3 5h.5l3.2-12.4c-.1-.1-.3-.2-.4-.2zM164.6 120.1l-6.3 6.9h.7l5.9-6.5c-.1-.1-.2-.2-.3-.4zM169 119.4l2.8 7.7h.5l-2.9-7.7c-.1-.1-.2 0-.4 0zM178 122c-.1-.1-.2-.2-.4-.3l-3.6 5.4h.6l3.4-5.1z"/><path fill="none" stroke="#FFF" stroke-width=".5" stroke-linejoin="round" stroke-miterlimit="10" d="M147 61.9v52M154.6 59.7v52"/><path fill="#FFF" d="M260.7 128.5l3.6 4.9-7.8-2.7-.4.4 8.5 2.9h.1l1 1.3h.6l-5.1-7c-.1.1-.3.2-.5.2zM267.3 128.6l2.6 6.8h.5l-2.8-7.3c-.1.2-.2.4-.3.5zM275.7 123.9l-2 5.6-3.7-3.7c-.1.1-.3.2-.4.3l3.9 4-1.9 5.5h.5l4.1-11.5c-.2-.2-.4-.2-.5-.2zM284.2 133.4l3.7-4.7h-.6l-3.1 3.9-.3-3.4c-.2.1-.3.1-.5.2l.4 3.8-1.8 2.3h.6l1.6-2.1zM292.6 130.8l-3.7 4.6h.6l3.4-4.3-.3-.3z"/></svg>