<svg xmlns="http://www.w3.org/2000/svg" xml:space="preserve" width="320" height="240"><radialGradient id="a" cx="150.85" cy="148.168" r="7.533" gradientTransform="matrix(1 0 0 .4485 0 81.714)" gradientUnits="userSpaceOnUse"><stop offset=".257" style="stop-color:#5f6368"/><stop offset=".379" style="stop-color:#54585c;stop-opacity:.8362"/><stop offset="1" style="stop-color:#202124;stop-opacity:0"/></radialGradient><path fill="url(#a)" d="M147.05,149.788c2.941,0,5.883,0,8.824,0c0.259-0.228,0.541-0.443,0.855-0.637	c1.047-0.646,2.222-0.97,3.271-0.976h-17.589c1.045,0.006,1.999,0.33,2.604,0.976c0.182,0.194,0.317,0.41,0.42,0.638	c0.356,0,0.712,0,1.068,0c0,0,0-0.001,0-0.001h0.545C147.05,149.787,147.05,149.787,147.05,149.788z"/><radialGradient id="b" cx="133.028" cy="148.168" r="7.497" gradientTransform="matrix(1 0 0 .4485 0 81.714)" gradientUnits="userSpaceOnUse"><stop offset=".257" style="stop-color:#5f6368"/><stop offset=".379" style="stop-color:#54585c;stop-opacity:.8362"/><stop offset="1" style="stop-color:#202124;stop-opacity:0"/></radialGradient><path fill="url(#b)" d="M137.999,149.793c0.261-0.23,0.545-0.448,0.861-0.643c1.047-0.646,2.222-0.97,3.271-0.976h-17.499	c1.045,0.006,1.999,0.33,2.604,0.976c0.183,0.195,0.318,0.413,0.422,0.643c2.909,0.001,5.818,0.002,8.727,0.001	c0.002-0.002,0.004-0.005,0.006-0.007h0.545c-0.002,0.002-0.004,0.005-0.006,0.007C137.287,149.793,137.643,149.793,137.999,149.793	z"/><radialGradient id="c" cx="175.75" cy="142.928" r="68.62" gradientTransform="matrix(1 0 0 .3927 0 88.024)" gradientUnits="userSpaceOnUse"><stop offset="0" style="stop-color:#5f6368"/><stop offset=".275" style="stop-color:#4a4d52;stop-opacity:.7249"/><stop offset=".743" style="stop-color:#2c2d31;stop-opacity:.2566"/><stop offset="1" style="stop-color:#202124;stop-opacity:0"/></radialGradient><path fill="url(#c)" d="M221.96,148.174v0.798c-0.195,1.338-1.929,2.561-4.429,3.342c-2.583,0.807-5.585,0.881-7.667,0.188	c-0.257,0.224-2.187,1.853-5.957,2.494c-4.159,0.707-6.902-0.409-7.155-0.517c-3.813,1.519-8.586,1.9-11.894,0.97	c-2.843-0.799-4.214-2.455-3.617-4.316c-1.562,0.768-3.472,1.252-5.317,1.383l-5.426,12.168h3.907l4.782,3.145l-1.164,2.609	l-0.815,1.837l-7.591,3.147h-2.568h-1.338l-0.586,1.313h-0.516l0.586-1.313h-3.082h-1.242l-4.782-3.145l1.983-4.448l7.587-3.145	h4.324l5.414-12.141c-0.555,0.019-1.102,0.01-1.626-0.042c-2.588-0.255-3.589-1.29-3.796-1.521c-0.189,0.045-1.45,0.334-2.959,0.337	c-0.072,0.941-0.345,1.877-0.846,2.806c0.003,0.001,0.006,0,0.009,0.001c-0.019,0.035-0.043,0.07-0.062,0.105	c-0.039,0.071-0.084,0.142-0.126,0.212c-0.105,0.176-0.218,0.351-0.339,0.526c-0.05,0.072-0.098,0.144-0.151,0.216	c-0.171,0.233-0.352,0.465-0.553,0.697c-0.004,0.005-0.008,0.009-0.012,0.014c-0.171,0.197-0.354,0.393-0.548,0.588	c-0.003-0.001-0.006-0.002-0.01-0.003c-0.325,0.328-0.671,0.655-1.062,0.981c-0.378,0.315-0.783,0.614-1.185,0.915	c-0.115,0.186-0.327,0.393-0.648,0.617c-3.646,2.548-8.166,4.592-13.622,6.071c-0.357,0.097-0.755,0.173-1.154,0.227	c-0.485,0.123-0.958,0.253-1.458,0.368c-2.534,0.58-5.077,0.839-7.627,0.831c-4.876-0.015-9.763-0.005-14.644-0.007	c-8.384-0.004-12.967-2.35-12.475-6.548c-0.005,0-0.009,0.001-0.014,0.001c0.008-0.047,0.016-0.094,0.025-0.14	c0.002-0.014,0.001-0.026,0.003-0.04c0.257-1.713,0.839-3.425,1.798-5.13c-0.002,0-0.005,0-0.007,0l0.098-0.178	c0.005,0,0.01,0,0.014,0c0.849-1.467,1.973-2.928,3.45-4.378c0.51-0.5,0.966-0.677,2.025-0.673c0.779,0.003,1.56,0.001,2.339,0.003	c0.257-0.172,0.536-0.335,0.847-0.481c1.047-0.495,2.222-0.743,3.271-0.748h-18.004v31.565h125.087v-31.565H221.96z"/><path fill="none" stroke="#71757A" stroke-linecap="round" stroke-linejoin="round" stroke-miterlimit="10" stroke-width=".594" d="M214.656 180.644 239.263 180.644"/><ellipse cx="225.101" cy="166.002" fill="#3C4043" rx="9.699" ry="10.012"/><linearGradient id="d" x1="247.236" x2="227.327" y1="139.939" y2="174.284" gradientUnits="userSpaceOnUse"><stop offset="0" style="stop-color:#202124"/><stop offset="1" style="stop-color:#202124;stop-opacity:0"/></linearGradient><path fill="url(#d)" d="M234.8,166.002c0-0.175-0.017-0.346-0.025-0.519c-0.106-0.347-0.182-0.562-0.182-0.562	l-12.299,10.664c0.889,0.277,1.83,0.43,2.807,0.43C230.458,176.013,234.8,171.531,234.8,166.002z"/><path fill="none" stroke="#71757A" stroke-linecap="round" stroke-miterlimit="10" stroke-width=".524" d="M224.711 165.674 224.711 180.644M227.052 168.055 224.746 170.36"/><path fill="#3C4043" fill-rule="evenodd" d="M121.004,80.799c0.053-1.326,0.081-2.679,0.081-4.055	c0-16.139-3.744-29.222-8.363-29.222c-1.126,0-2.199,0.779-3.18,2.188c-1.895-3.927-4.261-6.261-6.828-6.261	c-6.227,0-11.274,13.725-11.274,30.656c0,2.299,0.094,4.539,0.27,6.694H121.004z" clip-rule="evenodd"/><path fill="none" stroke="#71757A" stroke-linecap="round" stroke-miterlimit="10" stroke-width=".524" d="M107.102 86.733 107.102 69.877M104.349 72.711 107.102 76.425" clip-rule="evenodd"/><path fill="none" d="M120.829,69.561c-0.364-5.034-1.103-9.544-2.106-13.156c-6.542-1.47-9.6-7.075-9.692-7.567l0.028-0.068	c-1.808-3.355-3.992-5.321-6.345-5.321c-3.12,0-5.944,3.447-7.985,9.017C98.155,58.072,106.529,68.774,120.829,69.561z"/><path fill="#202124" d="M94.728 52.465c-.076.207-.148.421-.222.633 3.619 5.79 12.085 16.234 26.357 16.989-.012-.175-.022-.352-.035-.526C106.529 68.774 98.155 58.072 94.728 52.465zM91.472 71.879c-.007.264-.015.527-.019.793 2.197 2.587 5.723 5.852 10.811 8.127h1.347C97.671 78.434 93.738 74.658 91.472 71.879zM118.723 56.405c-.054-.196-.109-.389-.165-.579-5.137-1.265-7.851-5.078-8.708-6.53-.104.133-.207.268-.309.414-.157-.326-.319-.636-.482-.94l-.028.068C109.123 49.329 112.181 54.935 118.723 56.405z"/><linearGradient id="e" x1="107.713" x2="159.365" y1="97.69" y2="39.777" gradientUnits="userSpaceOnUse"><stop offset="0" style="stop-color:#3c4043"/><stop offset="1" style="stop-color:#808385"/></linearGradient><path fill="url(#e)" d="M131.966,89.649c0.227-1.484-0.398-2.863-1.612-3.729c-1.254-0.895-2.929-0.977-4.277-0.209	c-0.088-0.248-0.768-2.055-2.733-2.766c-2.168-0.784-3.996,0.454-4.166,0.573c-1.769-1.684-4.365-2.107-6.465-1.076	c-1.805,0.886-2.994,2.723-3.125,4.787c-0.963-1.191-2.448-1.782-3.87-1.518c-1.524,0.283-2.349,1.431-2.524,1.687	c-0.144-0.076-1.526-0.773-3.009-0.053c-1.431,0.695-1.765,2.131-1.802,2.305H131.966z"/><path fill="none" stroke="#70757A" stroke-miterlimit="10" stroke-width=".524" d="M179.025 92.63 179.025 145.61"/><path fill="#FCC934" d="M180.649,95.257h-5.021C177.077,96.483,179.198,96.505,180.649,95.257z"/><radialGradient id="f" cx="213.565" cy="103.435" r="67.804" gradientUnits="userSpaceOnUse"><stop offset="0" style="stop-color:#7d8183"/><stop offset=".743" style="stop-color:#3c4043"/></radialGradient><path fill="url(#f)" d="M221.881,148.166c0.409-2.676-0.8-5.123-2.99-6.685c-2.262-1.614-5.282-1.762-7.714-0.377	c-0.16-0.447-1.384-3.706-4.928-4.988c-3.91-1.415-7.207,0.819-7.513,1.034c-3.19-3.038-7.872-3.8-11.659-1.941	c-3.255,1.597-5.4,4.91-5.637,8.633c-1.736-2.149-4.415-3.214-6.979-2.737c-2.748,0.51-4.236,2.581-4.552,3.042	c-0.259-0.136-2.753-1.394-5.428-0.095c-2.581,1.253-3.154,3.803-3.221,4.116H221.881z"/><linearGradient id="g" x1="264.681" x2="198.744" y1="198.22" y2="206.462" gradientTransform="rotate(5.584 1517.767 345.745)" gradientUnits="userSpaceOnUse"><stop offset=".022" style="stop-color:#669df6;stop-opacity:0"/><stop offset="1" style="stop-color:#669df6"/></linearGradient><path fill="url(#g)" d="M285.049,92.072l-35.783,2.105c0,0-7.481,8.312-18.952,9.414l-39.576,1.775	c-2.088,0.091-3.943-1.422-4.232-3.492l0,0c-0.271-1.872,0.764-3.68,2.504-4.387l22.205-9.075c1.91-0.793,3.634-1.943,5.026-3.479	c1.534-1.689,2.786-3.989,1.686-6.398c-2.218-4.802-10.38-7.438-16.163-2.146l-21.041,18.813c-1.493,1.348-3.752,1.312-5.225-0.042	l0,0c-1.518-1.407-1.671-3.778-0.324-5.366l22.428-26.265c3.93-4.609,9.58-7.436,15.623-7.825l68.814-4.462L285.049,92.072z"/><path fill="#202124" d="M198.309 103.04c-.191-1.128-1.189-1.933-2.32-1.871l-4.555.204c-.648.029-1.251.334-1.657.835-.407.503-.579 1.162-.472 1.807.09.531.368.989.756 1.321.222.027.447.04.676.03l.179-.008c-.611-.218-1.084-.747-1.197-1.412-.087-.526.052-1.063.384-1.473.33-.409.822-.655 1.349-.68l4.557-.204c.904-.049 1.732.619 1.885 1.521.087.527-.053 1.064-.384 1.474-.18.222-.411.392-.666.508l.79-.035c.07-.067.141-.133.202-.209C198.244 104.344 198.416 103.685 198.309 103.04zM175.627 91.45c.749.685 1.908.685 2.67.028.048-.041.094-.085.139-.132l3.252-3.445c.381-.396.582-.914.565-1.46-.016-.532-.239-1.023-.629-1.382l-.213-.211c-.401-.389-.932-.589-1.496-.561-.016.001-.03.006-.046.007l-.447.524c.162-.064.336-.103.514-.112.446-.022.866.135 1.181.441l.214.212.006.006c.307.283.484.669.496 1.089.013.432-.146.842-.449 1.157l-3.253 3.445c-.594.619-1.592.658-2.221.083-.481-.44-.634-1.105-.443-1.69l-.292.342c-.073.086-.139.175-.203.265C174.999 90.572 175.218 91.076 175.627 91.45z"/><path fill="#669DF6" d="M216.224,84.947c1.534-1.689,2.786-3.989,1.686-6.398c-2.076-4.496-9.356-7.1-15.03-3.062l-1.246,6.873	c-0.639,3.542,1.469,6.942,4.849,7.995l4.747-1.927C213.108,87.634,214.835,86.45,216.224,84.947z"/><linearGradient id="h" x1="353.808" x2="318.989" y1="-83.909" y2="-60.847" gradientTransform="rotate(-40.767 485.409 178.902)" gradientUnits="userSpaceOnUse"><stop offset="0" style="stop-color:#202124"/><stop offset="1" style="stop-color:#202124;stop-opacity:0"/></linearGradient><path fill="url(#h)" d="M216.224,84.947c1.534-1.689,2.786-3.989,1.686-6.398c-2.076-4.496-9.356-7.1-15.03-3.062	l-1.246,6.873c-0.639,3.542,1.469,6.942,4.849,7.995l4.747-1.927C213.108,87.634,214.835,86.45,216.224,84.947z"/><path fill="#FCC934" d="M186.506,101.873c-0.144-0.997,0.091-1.97,0.597-2.774l-3.841-3.841h-2.613h-5.021h-1.263l-6.291,6.291	v8.897l6.291,6.291h8.897l6.291-6.291v-5.219C187.989,104.825,186.739,103.537,186.506,101.873z"/><linearGradient id="i" x1="187.923" x2="181.766" y1="48.173" y2="115.7" gradientUnits="userSpaceOnUse"><stop offset="0" style="stop-color:#202124"/><stop offset="1" style="stop-color:#202124;stop-opacity:0"/></linearGradient><path fill="url(#i)" d="M186.506,101.873c-0.144-0.997,0.091-1.97,0.597-2.774l-12.738,17.638h8.897l6.291-6.291v-5.219	C187.989,104.825,186.739,103.537,186.506,101.873z"/><path fill="#3C4043" d="M100.705 169.809 94.362 166.371 94.362 153.109 94.393 153.109 82.417 139.524 46.149 139.586 35.071 153.078 35.071 176.101 100.705 176.08z"/><linearGradient id="j" x1="46.946" x2="46.535" y1="135.292" y2="176.768" gradientUnits="userSpaceOnUse"><stop offset="0" style="stop-color:#202124"/><stop offset="1" style="stop-color:#202124;stop-opacity:0"/></linearGradient><path fill="url(#j)" d="M55.257 176.092 35.071 176.101 35.071 153.201 58.465 153.201 58.13 154.606"/><path fill="#EE675C" d="M30.739 168.241 54.876 168.241 58.465 153.201 35.071 153.201z"/><path fill="#3C4043" fill-rule="evenodd" d="M42.884,176.105H13.399	c0,0,2.366-6.326,9.356-3.763c0,0,2.271-3.567,5.976-3.371c3.652,0.194,4.718,3.763,4.718,3.763S40.266,169.556,42.884,176.105z" clip-rule="evenodd" opacity=".48"/><linearGradient id="k" x1="113.292" x2="161.868" y1="147.209" y2="191.953" gradientUnits="userSpaceOnUse"><stop offset="0" style="stop-color:#3c4043;stop-opacity:.8"/><stop offset="1" style="stop-color:#202124;stop-opacity:0"/></linearGradient><path fill="url(#k)" d="M159.942 196.551 38.747 79.301 42.394 75.531 167.485 196.551z"/><linearGradient id="l" x1="93.737" x2="163.256" y1="102.524" y2="102.524" gradientUnits="userSpaceOnUse"><stop offset="0" style="stop-color:#3c4043;stop-opacity:.8"/><stop offset="1" style="stop-color:#202124;stop-opacity:0"/></linearGradient><path fill="url(#l)" d="M151.904 105.147 73.007 105.147 67.585 99.902 139.597 99.902z"/><linearGradient id="m" x1="196.012" x2="278.968" y1="150.764" y2="150.373" gradientUnits="userSpaceOnUse"><stop offset="0" style="stop-color:#3c4043;stop-opacity:.7"/><stop offset="1" style="stop-color:#202124;stop-opacity:0"/></linearGradient><path fill="url(#m)" d="M264.046 153.411 122.894 153.411 117.473 148.166 264.046 148.166z"/><g fill="none" stroke="#202124" stroke-linecap="round" stroke-miterlimit="10" stroke-width="1.049"><path d="M55.65 91.972 56.78 93.068"/><path stroke-dasharray="3.1551,3.1551" d="M59.046 95.263 116.336 150.789 173.801 150.789"/><path d="M175.379 150.789 176.953 150.789"/></g><linearGradient id="n" x1="88.985" x2="10.577" y1="128.788" y2="128.788" gradientUnits="userSpaceOnUse"><stop offset="0" style="stop-color:#3c4043;stop-opacity:.7"/><stop offset="1" style="stop-color:#3c4043;stop-opacity:0"/></linearGradient><path fill="url(#n)" d="M92.61 131.411 7.007 131.411 0 126.166 87.19 126.166z"/><path fill="#5F6368" d="M158.151,138.379c0.876-1.036,2.005-1.548,3.105-1.523v-0.001c0.012-0.001,0.025,0.001,0.037,0.001	c0.012,0,0.025-0.001,0.037-0.001v0.001c1.1-0.025,2.229,0.487,3.105,1.523c1.869,2.211,1.864,6.073-0.011,8.28	c-0.868,1.022-1.995,1.531-3.094,1.506v0.001c-0.012,0.001-0.025-0.001-0.037-0.001c-0.012,0-0.025,0.001-0.037,0.001v-0.001	c-1.099,0.025-2.225-0.483-3.094-1.506C156.288,144.452,156.283,140.59,158.151,138.379z"/><path fill="#5BB974" d="M142.197,145.682c7.688,0,15.375-0.003,23.063,0.002c2.414,0.002,3.892-1.018,4.375-3.373	c0.883-4.311,0.698-8.581-0.898-12.736c-2.812-7.322-7.617-12.867-14.66-16.398c-2.314-1.16-4.784-1.678-7.382-1.662	c-4.966,0.03-9.933,0.01-14.9,0.014c-8.653,0.008-14.43,4.829-15.727,13.455c-0.977,6.497-0.808,12.99,1.053,19.373	c0.292,1.001,0.676,1.353,1.755,1.346c7.774-0.053,15.548-0.028,23.322-0.028C142.197,145.678,142.197,145.68,142.197,145.682z"/><path fill="#A8DAB5" d="M165.208,141.597h-8.128c-0.911,0-1.652-0.741-1.652-1.652c0-0.911,0.741-1.652,1.652-1.652h8.128	c0.911,0,1.652,0.741,1.652,1.652C166.86,140.856,166.119,141.597,165.208,141.597z M157.08,138.669	c-0.704,0-1.276,0.572-1.276,1.276s0.572,1.276,1.276,1.276h8.128c0.704,0,1.276-0.572,1.276-1.276s-0.572-1.276-1.276-1.276H157.08	z"/><path fill="#A8DAB5" d="M128.894 126.788H129.27V130.765H128.894z" transform="rotate(-62.826 129.078 128.778)"/><path fill="#A8DAB5" d="M133.957 139.229H134.333V145.908H133.957z" transform="rotate(-80.543 134.14 142.57)"/><path fill="#A8DAB5" d="M119.083,132.26v-4.304c0-1.712-1.292-3.113-2.95-3.318c-0.02,0.117-0.047,0.228-0.065,0.346	c-0.001,0.008-0.002,0.015-0.003,0.022c1.483,0.172,2.643,1.421,2.643,2.949v4.304c0,1.646-1.339,2.984-2.984,2.984	c-0.056,0-0.107-0.013-0.162-0.016c0.007,0.126,0.015,0.252,0.023,0.378c0.047,0.002,0.091,0.014,0.139,0.014	C117.576,135.619,119.083,134.112,119.083,132.26z"/><path fill="#202124" d="M147.33 136.83c-1.124-1.33-2.637-2.059-4.173-2.039v.002c-.016-.004-.044-.004-.091-.004-.018 0-.016.001-.023.001-1.523-.043-3.025.718-4.141 2.039-1.946 2.302-2.342 5.97-1.205 8.843.183 0 .366 0 .549 0-1.17-2.725-.821-6.293 1.052-8.509 1.022-1.209 2.411-1.891 3.765-1.855.012.004.024.001.036-.001.01 0 .022 0 .033-.001.012.002.024.007.037.002 1.37-.035 2.743.646 3.765 1.855 1.875 2.218 2.223 5.792 1.049 8.517.183 0 .366 0 .549 0C149.673 142.808 149.278 139.134 147.33 136.83zM139.1 136.998h.006H139.1zM129.244 136.83c-1.124-1.33-2.646-2.059-4.173-2.039v.002c-.016-.004-.043-.004-.091-.004-.026 0-.017.001-.023.001-1.52-.043-3.025.718-4.142 2.039-1.952 2.309-2.345 5.994-1.194 8.871.183-.001.366-.001.55-.002-1.184-2.728-.838-6.312 1.041-8.535 1.022-1.21 2.401-1.886 3.765-1.855.012.004.024 0 .036-.001.01 0 .022 0 .033-.001.012.002.024.007.037.002 1.379-.035 2.743.646 3.765 1.855 1.873 2.216 2.222 5.783 1.053 8.507.183 0 .366-.002.55-.002C131.586 142.798 131.189 139.131 129.244 136.83z"/><path fill="#5F6368" d="M139.974 138.379c.876-1.036 2.005-1.548 3.105-1.523v-.001c.012-.001.025.001.037.001.012 0 .025-.001.037-.001v.001c1.1-.025 2.229.487 3.105 1.523 1.869 2.211 1.864 6.073-.011 8.28-.868 1.022-1.995 1.531-3.094 1.506v.001c-.012.001-.025-.001-.037-.001-.012 0-.025.001-.037.001v-.001c-1.099.025-2.225-.483-3.094-1.506C138.11 144.452 138.105 140.59 139.974 138.379zM121.803 138.379c.876-1.036 2.005-1.548 3.105-1.523v-.001c.012-.001.025.001.037.001.012 0 .025-.001.037-.001v.001c1.1-.025 2.229.487 3.105 1.523 1.869 2.211 1.864 6.073-.011 8.28-.868 1.022-1.995 1.531-3.094 1.506v.001c-.012.001-.025-.001-.037-.001-.012 0-.025.001-.037.001v-.001c-1.099.025-2.225-.483-3.094-1.506C119.939 144.452 119.934 140.59 121.803 138.379z"/><path fill="#DADCE0" d="M148.656,129.557c-1.658,0-3.149,0.014-4.64-0.005c-1.107-0.014-1.927-0.496-2.212-1.619	c-0.305-1.203,0.626-2.284,2.058-2.396c0.687-0.054,1.38-0.022,2.07-0.025c0.637-0.003,1.274-0.001,2.059-0.001	c-0.121-0.493-0.152-0.832-0.285-1.125c-2.542-5.603-6.519-9.683-12.67-11.003c-3.801-0.816-7.417-0.105-10.09,3.131	c-2.549,3.086-1.798,7.424,1.766,9.268c5.019,2.597,10.105,5.068,15.212,7.488C144.724,134.597,147.397,133.149,148.656,129.557z"/><path fill="#DADCE0" d="M140.605,113.982c0.329,0.249,0.661,0.494,0.986,0.748c4.374,3.418,7.773,7.57,9.661,12.857	c0.531,1.486,1.29,2.067,2.898,2.076c3.841,0.022,7.683,0.034,11.523,0.001c2.074-0.018,2.82-1.305,1.893-3.154	c-2.553-5.097-6.223-9.186-11.103-12.144c-0.623-0.378-1.436-0.609-2.165-0.618c-4.528-0.055-9.056-0.028-13.584-0.028	C140.678,113.808,140.641,113.895,140.605,113.982z"/><path fill="none" stroke="#5BB974" stroke-linecap="round" stroke-linejoin="round" stroke-miterlimit="10" stroke-width=".518" d="M130.851 112.649 130.851 128.609"/><path fill="#DADCE0" d="M151.917 131.402c-1.038-.009-1.919 1.14-1.92 2.503 0 1.24.888 2.375 1.887 2.41 1.053.037 1.981-1.103 1.988-2.442C153.88 132.523 153 131.411 151.917 131.402zM167.924 133.878c-.016 1.272.867 2.441 1.836 2.432.124-.001.246-.022.365-.059-.074-1.582-.321-3.154-.753-4.711C168.58 131.826 167.937 132.808 167.924 133.878z"/><path fill="none" stroke="#669DF6" stroke-linecap="round" stroke-miterlimit="10" stroke-width="1.08" d="M165.802 95.257 151.16 81.734"/><path fill="none" stroke="#FCC934" stroke-linecap="round" stroke-miterlimit="10" stroke-width="1.08" d="M169.366 92.18 164.44 80.831"/><path fill="none" stroke="#5BB974" stroke-linecap="round" stroke-miterlimit="10" stroke-width="1.08" d="M163.975 99.632 158.822 98.259"/><path fill="#3C4043" d="M7.83 81.729 26.266 68.672 43.507 68.672 62.265 81.729 59.874 87.659 59.874 116.026 66.334 116.026 69.575 119.061 59.874 119.061 9.991 119.061 9.853 119.061 9.853 87.613 9.883 87.613z"/><path fill="#FCC934" d="M30.422 87.815H53.989V115.695H30.422z"/><linearGradient id="o" x1="58.394" x2="31.877" y1="-20.447" y2="101.381" gradientUnits="userSpaceOnUse"><stop offset="0" style="stop-color:#202124"/><stop offset="1" style="stop-color:#202124;stop-opacity:0"/></linearGradient><path fill="url(#o)" d="M59.874 87.659 9.853 87.659 9.853 114.508 49.855 114.508z"/><path fill="#FCC934" d="M16.824 104.646H24.008V115.114H16.824z"/><linearGradient id="p" x1="270.739" x2="280.629" y1="199.6" y2="135.864" gradientUnits="userSpaceOnUse"><stop offset="0" style="stop-color:#3c4043"/><stop offset="1" style="stop-color:#808385"/></linearGradient><path fill="url(#p)" d="M305.437,164.364v-31.276h-19.881v-0.008c-9.16,0-17.856,3.573-25.109,9.654h-25.886v38.206h81.61	v-8.789H320L305.437,164.364z"/><linearGradient id="q" x1="308.782" x2="299.033" y1="133.651" y2="180.55" gradientUnits="userSpaceOnUse"><stop offset="0" style="stop-color:#202124"/><stop offset="1" style="stop-color:#202124;stop-opacity:0"/></linearGradient><path fill="url(#q)" d="M316.171 172.448 312.622 180.94 285.803 180.94 285.463 171.487 287.547 172.437z"/><path fill="#5BB974" d="M245.987 168.777H266.116V180.94H245.987zM295.842 147.24c2.39 0 4.328-1.938 4.328-4.328 0-2.39-1.938-4.328-4.328-4.328-2.39 0-4.328 1.938-4.328 4.328C291.514 145.302 293.451 147.24 295.842 147.24z"/><path fill="#202124" d="M287.057 172.439c.318.177.68.271 1.046.271h28.069v-.525h-7.46l.072-.134-15.874-8.519-.248.462 15.263 8.191H297.8l-30.059-16.774-.256.458 29.237 16.316h-8.621c-.276 0-.55-.07-.791-.204l-52.619-29.247h-.131v.527l50.379 28.002.325 9.677h.525l-.315-9.38L287.057 172.439zM278.134 155.077 256.421 142.734 255.359 142.734 277.874 155.532zM305.437 164.321v-.595l-19.618-10.511v-20.127h-.262v-.008c-.088 0-.175.006-.262.006v19.848l-20.016-10.724-.058-.032h-4.085c-.217.175-.436.346-.651.525h4.604L305.437 164.321z"/><path fill="#202124" d="M254.192 145.447H254.716V151.012H254.192z" transform="rotate(-60.172 254.45 148.235)"/><path fill="#EE675C" fill-rule="evenodd" d="M100.694 169.852 94.632 166.517 72.267 166.517 77.465 169.852 100.694 169.852z" clip-rule="evenodd"/><linearGradient id="r" x1="30.131" x2="12.392" y1="62.838" y2="111.881" gradientUnits="userSpaceOnUse"><stop offset="0" style="stop-color:#5f6368"/><stop offset="1" style="stop-color:#3c4043;stop-opacity:0"/></linearGradient><path fill="url(#r)" d="M43.507 68.672 26.061 81.683 7.83 81.683 26.266 68.672z"/><radialGradient id="s" cx="107.913" cy="82.483" r="37.215" gradientTransform="matrix(1 0 0 .4485 0 45.49)" gradientUnits="userSpaceOnUse"><stop offset="0" style="stop-color:#5f6368"/><stop offset=".164" style="stop-color:#54585c;stop-opacity:.8362"/><stop offset="1" style="stop-color:#202124;stop-opacity:0"/></radialGradient><path fill="url(#s)" d="M78.174,89.609v21.261h64.435V89.609H78.174z M129.854,91.287c-1.37,0.393-3.055,0.429-4.304,0.092	c-0.121,0.109-1.034,0.902-3.092,1.214c-2.27,0.344-3.937-0.199-4.091-0.252c-1.988,0.74-4.639,0.925-6.605,0.473	c-1.69-0.389-2.641-1.196-2.504-2.102c-0.689,0.323-1.546,0.544-2.428,0.64l-0.645,2.184h13.654	c-0.119,0.582-0.267,1.176-0.446,1.781c-2.094,7.087-7.536,12.832-12.155,12.832c-1.126,0-2.098-0.342-2.896-0.961	c-2.405,1.725-5.073,2.749-7.64,2.749c-6.227,0-9.493-6.027-7.296-13.462c0.298-1.01,0.683-1.993,1.139-2.94h15.145l0.633-2.144	c-0.382,0.02-0.763,0.018-1.132-0.013c-1.487-0.124-2.163-0.628-2.305-0.741c-0.154,0.033-1.627,0.339-3.016,0.023	c-1.341-0.305-1.488-0.936-1.503-1.012h33.597C131.998,90.301,131.18,90.906,129.854,91.287z"/><path fill="#202124" d="M59.874,87.883v-0.54H27.26l-0.616-5.391h35.621v-0.54H27.161L43.899,69.05l-0.321-0.434L26.252,81.413H7.83	v0.54H26.1l0.616,5.391H9.853v0.54h6.419v31.178h0.54v-3.491h7.199v3.491h0.54V87.883H59.874z M16.812,115.031v-10.378h7.199v10.378	H16.812z M24.011,104.113h-7.199v-16.23h7.199V104.113z"/><path fill="#202124" d="M51.966 115.425v-14.194c0-2.609-2.1-4.732-4.681-4.732s-4.681 2.123-4.681 4.732v14.194h-1.376v-14.194c0-2.609-2.1-4.732-4.681-4.732s-4.681 2.123-4.681 4.732v14.194h-1.444v.54h35.591v-.54H51.966zM43.141 101.231c0-2.313 1.859-4.195 4.144-4.195 2.285 0 4.144 1.882 4.144 4.195v14.194h-8.288V101.231zM32.403 101.231c0-2.313 1.859-4.195 4.144-4.195 2.285 0 4.144 1.882 4.144 4.195v14.194h-8.288V101.231zM94.361 153.59 94.361 153.05 67.666 153.05 57.866 142.328 57.467 142.693 66.934 153.05 58.558 153.05 46.35 139.405 45.948 139.764 58.167 153.423 58.167 176.363 58.707 176.363 58.707 153.59z"/><path fill="#202124" d="M69.873 138.233H70.413V147.624H69.873z" transform="rotate(-43.506 70.138 142.93)"/><path fill="#202124" d="M84.014 144.412H84.554V151.385H84.014z" transform="rotate(-40.966 84.287 147.903)"/><path fill="#202124" d="M61.147 157.467 61.147 176.105 61.687 176.105 61.687 158.006 71.698 158.006 71.698 176.105 72.238 176.105 72.238 158.006 79.107 158.006 79.107 166.517 79.648 166.517 79.648 158.006 86.926 158.006 86.926 166.517 87.466 166.517 87.466 158.006 94.362 158.006 94.362 157.467z"/><path fill="#202124" d="M77.47 169.852H78.01V176.105H77.47zM89.514 169.852H90.054V176.105H89.514z"/><radialGradient id="t" cx="235.324" cy="-209.621" r="23.338" gradientUnits="userSpaceOnUse"><stop offset="0" style="stop-color:#3c4043"/><stop offset=".59" style="stop-color:#adafb0;stop-opacity:.4105"/><stop offset="1" style="stop-color:#fff;stop-opacity:0"/></radialGradient><path fill="url(#t)" d="M233.414-183.557v-8.964v-0.403h1.972v9.368H233.414z" opacity=".24"/><radialGradient id="u" cx="53.86" cy="174.443" r="51.471" gradientTransform="matrix(1.0862 0 0 .4485 -1.117 96.205)" gradientUnits="userSpaceOnUse"><stop offset="0" style="stop-color:#5f6368"/><stop offset=".275" style="stop-color:#4a4d52;stop-opacity:.7249"/><stop offset=".743" style="stop-color:#2c2d31;stop-opacity:.2566"/><stop offset="1" style="stop-color:#202124;stop-opacity:0"/></radialGradient><path fill="url(#u)" d="M100.512,200.03H-1.522v-23.918l102.033,0.007V200.03z M98.838,179.109l2.031-3.009l-65.636,0.019	l0,0l0,0l-21.672,0.004c0,0,0.374,3.034,8.201,1.818c0,0,1.107,1.693,4.876,1.6c3.716-0.092,5.946-1.786,5.946-1.786	s0.527,0.135,1.384,0.241l-1.277,1.857h-4.209l-0.559,6.933l-0.01,0.426l6.505,6.239l36.248,0.029l16.409-6.447h-0.031l4.328-6.294	L98.838,179.109z"/><radialGradient id="v" cx="36.916" cy="115.938" r="34.315" gradientTransform="matrix(1.0687 0 0 .4485 .036 63.94)" gradientUnits="userSpaceOnUse"><stop offset=".257" style="stop-color:#5f6368"/><stop offset=".379" style="stop-color:#54585c;stop-opacity:.8362"/><stop offset="1" style="stop-color:#202124;stop-opacity:0"/></radialGradient><path fill="url(#v)" d="M76.348,138.855h-76.87v-19.711h76.87V138.855z M3.997,127.825l15.205,5.262h16.963l21.391-5.262	l-0.268-3.738l1.69-3.031h6.356l4.255-1.912h-9.545H10.964h-0.136l-2.772,4.972h0.029L3.997,127.825z"/><radialGradient id="w" cx="248.815" cy="175.078" r="47.935" gradientTransform="matrix(1.0785 0 0 .4485 -16.18 96.555)" gradientUnits="userSpaceOnUse"><stop offset=".145" style="stop-color:#5f6368"/><stop offset=".698" style="stop-color:#333539;stop-opacity:.3529"/><stop offset="1" style="stop-color:#202124;stop-opacity:0"/></radialGradient><path fill="url(#w)" d="M225.474,180.631c0.026,0,0.039,0.006,0.061,0.007h14.383c0.001,0,0.001,0,0.003,0h76.366	l-1.714,2.369l-12.177,2.099l-6.098,8.429h-19.741l-0.002,0.002c-9.095,0-17.034-0.963-23.051-2.602H227.8l4.11-5.681	c-1.834,1.206-6.323,2.108-10.919,2.108c-5.319,0-8.757-1.208-7.679-2.698c1.034-1.429,5.845-2.595,10.928-2.689l0.852-1.177h-9.724	c-0.163,0-0.269-0.036-0.237-0.08c0.032-0.044,0.19-0.08,0.353-0.08h9.918C225.428,180.637,225.448,180.631,225.474,180.631h-19.422	v19.455h115.708v-19.455H225.474z"/><path fill="#202124" d="M43.086 153.201 42.614 153.201 38.659 168.241 39.131 168.241zM34.864 168.241 38.819 153.201 38.347 153.201 34.392 168.241zM55.526 153.201 55.054 153.201 51.099 168.241 51.571 168.241zM46.985 153.201 46.513 153.201 42.558 168.241 43.03 168.241zM51.317 153.201 50.845 153.201 46.89 168.241 47.362 168.241z"/></svg>