<svg xmlns="http://www.w3.org/2000/svg" width="50.99" height="45.57" viewBox="0 0 50.99 45.57"><linearGradient id="a" gradientUnits="userSpaceOnUse" x1="6.0867" y1="45.6889" x2="7.0867" y2="45.6889" gradientTransform="matrix(21 0 0 -3 -122.92 181.134)"><stop offset="0" style="stop-color:#FFFFFF"/><stop offset=".2323" style="stop-color:#E0E1E4"/><stop offset=".5682" style="stop-color:#B8BCC2"/><stop offset=".8359" style="stop-color:#A0A5AD"/><stop offset="1" style="stop-color:#979DA5"/></linearGradient><path opacity=".6" fill="url(#a)" d="M0 42.57h21v3H0z"/><path opacity=".8" fill="#FFF" d="M34.81 42.57h16.18v3H34.81z"/><linearGradient id="b" gradientUnits="userSpaceOnUse" x1="7.0068" y1="45.6889" x2="7.6646" y2="45.6889" gradientTransform="matrix(21 0 0 -3 -122.92 181.134)"><stop offset="0" style="stop-color:#FFFFFF"/><stop offset=".2323" style="stop-color:#E0E1E4"/><stop offset=".5682" style="stop-color:#B8BCC2"/><stop offset=".8359" style="stop-color:#A0A5AD"/><stop offset="1" style="stop-color:#979DA5"/></linearGradient><path opacity=".6" fill="url(#b)" d="M21 42.57h13.81v3H21z"/><path fill="#979DA5" d="M21.06 45.57H18.8V.8c0-.44.51-.8 1.14-.8.62 0 1.14.36 1.14.8l-.02 44.77z"/><circle fill="#4285F4" cx="20.18" cy="15.77" r="13.18"/><path fill="none" stroke="#FFF" stroke-width=".9071" stroke-linecap="round" stroke-linejoin="round" d="M24.46 20.6H15.4c-.62 0-1.14-.52-1.14-1.14v-7.93c0-1.24 1.02-2.26 2.27-2.26h6.79c1.24 0 2.26 1.02 2.26 2.26v7.93c.02.62-.49 1.14-1.12 1.14z"/><path fill="none" stroke="#FFF" stroke-width=".9071" stroke-linecap="round" stroke-linejoin="round" d="M16.3 22.48H16c-.44 0-.8-.36-.8-.8v-1.1h1.89v1.1c.01.44-.35.8-.79.8zM23.86 22.48h-.3c-.44 0-.8-.36-.8-.8v-1.1h1.89v1.1c0 .44-.36.8-.79.8zM14.26 15.87H25.6"/><circle fill="#FFF" cx="17.1" cy="18.24" r="1"/><circle fill="#FFF" cx="22.77" cy="18.24" r="1"/><path fill="none" stroke="#FFF" stroke-width=".9071" stroke-linecap="round" stroke-linejoin="round" d="M14.38 11.15h11.11"/><path fill-rule="evenodd" clip-rule="evenodd" fill="#FABB05" d="M43.66 23c-1.27-4.59-5.94-7.33-10.76-6.37-5.81 1.16-8.93 7.47-6.23 12.61.55 1.04 1.15 2.05 1.77 3.05.77 1.24 1.61 2.45 2.39 3.7 1.68 2.67 3 5.48 3.73 8.55.08.34.16.67.24 1.02.43-1.39.8-2.75 1.28-4.07.99-2.72 2.53-5.16 4.1-7.58.96-1.48 1.87-3 2.73-4.54 1.13-2 1.37-4.15.75-6.37"/><path fill-rule="evenodd" clip-rule="evenodd" fill="#FDDF87" d="M34.93 27.76l2.88 1.65-.82-3.19 2.48-2.21-3.32-.22-1.36-3-1.23 3.05-3.31.34 2.56 2.12-.7 3.22z"/></svg>