<svg xmlns="http://www.w3.org/2000/svg" width="600" height="200"><radialGradient id="a" cx="284.6" cy="-13803.92" r="277.55" gradientTransform="matrix(1 -.008 -.001 -.13 1.45 -1622.18)" gradientUnits="userSpaceOnUse"><stop offset="0" style="stop-color:#E6EBF0"/><stop offset="1" style="stop-color:#FFFFFF;stop-opacity:0"/></radialGradient><path fill="url(#a)" d="M16.91,169v39h566.18v-39H16.91z M351.69,180.5l77.21,27.54h-96.38l-63.88-27.54H351.69z"/><linearGradient id="b" gradientUnits="userSpaceOnUse" x1="345.37" y1="-526.41" x2="350.33" y2="-572.86" gradientTransform="matrix(1 0 0 -1 0 -364)"><stop offset="0" style="stop-color:#202124;stop-opacity:0.1"/><stop offset="1" style="stop-color:#202124;stop-opacity:0"/></linearGradient><path fill="url(#b)" d="M268.64 180.51L332.52 208.05 428.9 208.05 351.69 180.51z"/><linearGradient id="c" gradientUnits="userSpaceOnUse" x1="513.6" y1="-393.11" x2="513.6" y2="-556.46" gradientTransform="matrix(1 0 0 -1 0 -364)"><stop offset="0" style="stop-color:#EFF1F2"/><stop offset="1" style="stop-color:#EFF1F2;stop-opacity:0"/></linearGradient><path fill="url(#c)" d="M536.63,169V42.39l-33.3-11.18c-5.014-1.69-10.448,1.004-12.138,6.018 c-0.334,0.99-0.503,2.027-0.502,3.072L490.57,169H536.63z"/><path fill="#FFFFFF" d="M490.69 54.97H536.63V55.54H490.69zM490.69 66.23H536.63V66.8H490.69zM490.69 77.48H536.63V78.05H490.69z"/><linearGradient id="d" gradientUnits="userSpaceOnUse" x1="424.07" y1="-419.38" x2="424.07" y2="-533.9" gradientTransform="matrix(1 0 0 -1 0 -364)"><stop offset="0" style="stop-color:#EFF1F2"/><stop offset="1" style="stop-color:#EFF1F2;stop-opacity:0"/></linearGradient><path fill="url(#d)" d="M366.67 56.37H481.47V169H366.67z"/><path fill="#FFFFFF" d="M366.67 59.97H481.47V60.54H366.67z"/><linearGradient id="e" gradientUnits="userSpaceOnUse" x1="186.97" y1="-372.01" x2="186.97" y2="-598.92" gradientTransform="matrix(1 0 0 -1 0 -364)"><stop offset="0" style="stop-color:#EFF1F2"/><stop offset="1" style="stop-color:#EFF1F2;stop-opacity:0"/></linearGradient><path fill="url(#e)" d="M121,169V37.53l85.59-13c11.665-1.756,22.546,6.277,24.302,17.942 c0.156,1.035,0.235,2.081,0.238,3.128v14h21.81V169H121z"/><path fill="#FFFFFF" d="M120.97 50.56H145.52V51.13H120.97zM120.97 62.83H145.52V63.4H120.97zM120.97 75.11H145.52V75.67999999999999H120.97z"/><linearGradient id="f" gradientUnits="userSpaceOnUse" x1="84.51" y1="-391.5" x2="84.51" y2="-528.82" gradientTransform="matrix(1 0 0 -1 0 -364)"><stop offset="0" style="stop-color:#EFF1F2"/><stop offset="1" style="stop-color:#EFF1F2;stop-opacity:0"/></linearGradient><path fill="url(#f)" d="M111.75,169H57.27V39.94c-0.001-0.845,0.558-1.588,1.37-1.82l51.2-14.53 c0.797-0.227,1.627,0.236,1.853,1.032c0.035,0.123,0.054,0.25,0.057,0.378C111.75,25,111.75,169,111.75,169z"/><path fill="#FFFFFF" d="M111.75 35.59L111.75 35.01 57.26 50.81 57.26 51.4 69.75 47.77 69.75 169.01 70.32 169.01 70.32 47.6 84.22 43.58 84.22 169.01 84.79 169.01 84.79 43.41 98.69 39.38 98.69 169.01 99.26 169.01 99.26 39.22z"/><path fill="#E6E8EB" d="M503.17 118.05H509.37V147.23H503.17z"/><path fill="#E6E8EB" d="M499.71 120.29H506.62V121.12H499.71zM499.71 143.92H506.62V144.75H499.71zM115.98 90.83H189.46V169.01H115.98z"/><path fill="#D8DADE" d="M187,153.86h-23.3l-0.29-0.29V134.9l0.29-0.28H187l0.29,0.28v18.67L187,153.86z M164,153.29h22.69v-18.1H164 V153.29z"/><path fill="#E6E8EB" d="M99,120.69l17.55-15.87h84.61c0.718-0.014,1.311,0.557,1.324,1.275c0.005,0.257-0.066,0.509-0.204,0.725 l-17.2,15.39H99.75c-0.507,0.03-0.943-0.357-0.972-0.864C98.764,121.106,98.843,120.871,99,120.69z"/><path fill="#E6E8EB" d="M98.82,121.09h86.3v4.25c0,1.83-1.48,3.314-3.31,3.32l0,0c-1.83-0.006-3.31-1.49-3.31-3.32 c0,1.83-1.48,3.314-3.31,3.32l0,0c-1.83-0.006-3.31-1.49-3.31-3.32c0,1.83-1.48,3.314-3.31,3.32l0,0 c-1.83-0.006-3.31-1.49-3.31-3.32c0,1.83-1.48,3.314-3.31,3.32l0,0c-1.834,0-3.32-1.486-3.32-3.32l0,0c0,1.83-1.48,3.314-3.31,3.32 l0,0c-1.83-0.006-3.31-1.49-3.31-3.32c0,1.834-1.486,3.32-3.32,3.32l0,0l0,0c-1.83-0.006-3.31-1.49-3.31-3.32 c0,1.83-1.48,3.314-3.31,3.32l0,0c-1.83-0.006-3.31-1.49-3.31-3.32c0,1.83-1.48,3.314-3.31,3.32l0,0 c-1.83-0.006-3.31-1.49-3.31-3.32c0,1.83-1.48,3.314-3.31,3.32l0,0c-1.83-0.006-3.31-1.49-3.31-3.32c0,1.83-1.48,3.314-3.31,3.32 l0,0c-1.834,0-3.32-1.486-3.32-3.32c0,1.83-1.48,3.314-3.31,3.32l0,0c-1.83-0.006-3.31-1.49-3.31-3.32c0,1.83-1.48,3.314-3.31,3.32 l0,0c-1.83-0.006-3.31-1.49-3.31-3.32c0,1.83-1.48,3.314-3.31,3.32l0,0c-1.83-0.006-3.31-1.49-3.31-3.32L98.82,121.09z"/><path fill="#D8DADE" d="M168.53 128.94c-1.449.004-2.76-.858-3.33-2.19-.783 1.834-2.904 2.685-4.738 1.902-.856-.365-1.537-1.047-1.902-1.902-.775 1.831-2.888 2.686-4.719 1.911-.861-.365-1.547-1.05-1.911-1.911-.783 1.834-2.904 2.685-4.738 1.902-.856-.365-1.537-1.047-1.902-1.902-.783 1.834-2.904 2.685-4.738 1.902-.856-.365-1.537-1.047-1.902-1.902-.783 1.834-2.904 2.685-4.738 1.902-.856-.365-1.537-1.047-1.902-1.902-.783 1.834-2.904 2.685-4.738 1.902-.856-.365-1.537-1.047-1.902-1.902-.775 1.831-2.888 2.686-4.719 1.911-.861-.365-1.547-1.05-1.911-1.911-.48 1.128-1.501 1.935-2.71 2.14l-.1-.56c1.467-.238 2.539-1.514 2.52-3H119c0 1.676 1.359 3.035 3.035 3.035s3.035-1.359 3.035-3.035h.57c0 1.676 1.359 3.035 3.035 3.035s3.035-1.359 3.035-3.035h.57c0 1.673 1.357 3.03 3.03 3.03s3.03-1.357 3.03-3.03l0 0h.57c0 1.676 1.359 3.035 3.035 3.035s3.035-1.359 3.035-3.035h.57c0 1.676 1.359 3.035 3.035 3.035s3.035-1.359 3.035-3.035h.57c0 1.676 1.359 3.035 3.035 3.035s3.035-1.359 3.035-3.035h.57c0 1.676 1.359 3.035 3.035 3.035s3.035-1.359 3.035-3.035h.57c0 1.673 1.357 3.03 3.03 3.03s3.03-1.357 3.03-3.03l0 0h.58C172.116 127.314 170.514 128.929 168.53 128.94zM98.82 120.81H171.83999999999997V121.38H98.82z"/><path fill="#E6E8EB" d="M123.63 80.36H186.23V87.01H123.63z"/><path fill="#D8DADE" d="M159.11 169L158.53 169 158.53 135.05 128.52 135.05 128.52 169 127.95 169 127.95 134.77 128.23 134.48 158.82 134.48 159.11 134.77z"/><path fill="#D8DADE" d="M143.24 134.77H143.81V169.01000000000002H143.24zM189.46 90.83H268.56V169.01H189.46z"/><linearGradient id="g" gradientUnits="userSpaceOnUse" x1="183.59" y1="-463.72" x2="284.23" y2="-530.13" gradientTransform="matrix(1 0 0 -1 0 -364)"><stop offset="0" style="stop-color:#EFF1F2"/><stop offset="1" style="stop-color:#EFF1F2;stop-opacity:0"/></linearGradient><path fill="url(#g)" d="M189.46 90.83L269.24 90.83 269.24 169 189.46 169 189.46 157.86z"/><path fill="#D8DADE" d="M171.6,120.88L189.47,105h95.85c0.718,0.003,1.297,0.588,1.294,1.306c-0.001,0.226-0.061,0.448-0.174,0.644 l-17.2,15.39h-96.9c-0.508-0.003-0.918-0.417-0.915-0.925C171.426,121.223,171.487,121.036,171.6,120.88z"/><path fill="#D8DADE" d="M264.83,121.28h-93.41v4.25c0.147,1.89,1.735,3.342,3.63,3.32l0,0c1.83-0.006,3.31-1.49,3.31-3.32 c0,1.83,1.48,3.314,3.31,3.32l0,0c1.83-0.006,3.31-1.49,3.31-3.32c0,1.834,1.486,3.32,3.32,3.32l0,0l0,0 c1.83-0.006,3.31-1.49,3.31-3.32c0,1.83,1.48,3.314,3.31,3.32l0,0c1.83-0.006,3.31-1.49,3.31-3.32c0,1.83,1.48,3.314,3.31,3.32l0,0 c1.565-0.004,2.915-1.099,3.24-2.63c0.451,1.508,1.808,2.564,3.38,2.63h0.18c1.555-0.006,2.897-1.091,3.23-2.61 c0.326,1.523,1.672,2.611,3.23,2.61h0.18c1.555-0.006,2.897-1.091,3.23-2.61c0.326,1.523,1.672,2.611,3.23,2.61h0.17 c1.558,0.001,2.904-1.087,3.23-2.61c0.333,1.523,1.681,2.609,3.24,2.61h0.17c1.558,0.001,2.904-1.087,3.23-2.61 c0.333,1.519,1.675,2.604,3.23,2.61H235c1.83-0.006,3.31-1.49,3.31-3.32c0,1.83,1.48,3.314,3.31,3.32l0,0 c1.83-0.006,3.31-1.49,3.31-3.32c0,1.83,1.48,3.314,3.31,3.32l0,0c1.83-0.006,3.31-1.49,3.31-3.32c0,1.83,1.48,3.314,3.31,3.32l0,0 c1.834,0,3.32-1.486,3.32-3.32l0,0c0,1.83,1.48,3.314,3.31,3.32l0,0c1.83-0.006,3.31-1.49,3.31-3.32c0,1.834,1.486,3.32,3.32,3.32 l0,0l0,0c1.83-0.006,3.31-1.49,3.31-3.32v-4.25L264.83,121.28z"/><path fill="#E6E8EB" d="M431.05 114.31H500.89V169H431.05z"/><path fill="#D8DADE" d="M483.74 132.1H453c-.155 0-.28-.125-.28-.28 0-.003 0-.007 0-.01v-4.15c0-.155.125-.28.28-.28h30.78c.156 0 .285.124.29.28v4.15c.002.16-.127.291-.287.293C483.768 132.103 483.754 132.102 483.74 132.1zM453.25 131.53h30.21V128h-30.21V131.53zM431.04 169L351.26 169 351.26 89.81 431.04 89.81 431.04 100.95z"/><linearGradient id="h" gradientUnits="userSpaceOnUse" x1="444.21" y1="-460.4" x2="333.56" y2="-529.23" gradientTransform="matrix(1 0 0 -1 0 -364)"><stop offset="0" style="stop-color:#EFF1F2"/><stop offset="1" style="stop-color:#EFF1F2;stop-opacity:0"/></linearGradient><path fill="url(#h)" d="M431.04 169L351.26 169 351.26 89.81 431.04 89.81 431.04 100.95z"/><path fill="#D8DADE" d="M483.3,134.93h-29.91c-0.155,0-0.28,0.125-0.28,0.28V169h0.57v-33.5h14.38V169h0.57v-33.5H483V169h0.57 v-33.8C483.565,135.053,483.447,134.935,483.3,134.93z"/><path fill="#4282F2" d="M365,142.12l-13.35-16.76V78.5h-74.83c-4.512-0.006-8.174,3.648-8.18,8.16c0,0.003,0,0.007,0,0.01v93.84 h83.05v-37.27h12.78c0.386-0.016,0.686-0.343,0.67-0.729C365.134,142.37,365.085,142.233,365,142.12z"/><path fill="#E4E9ED" d="M307.23 152.83H338.18V180.51000000000002H307.23z"/><linearGradient id="i" gradientUnits="userSpaceOnUse" x1="306.66" y1="-530.18" x2="331.05" y2="-530.93" gradientTransform="matrix(1 0 0 -1 0 -364)"><stop offset=".11" style="stop-color:#202124;stop-opacity:0.1"/><stop offset="1" style="stop-color:#202124;stop-opacity:0"/></linearGradient><path fill="url(#i)" d="M307.23 152.83H338.18V180.51000000000002H307.23z"/><radialGradient id="j" cx="198" cy="-23" r="216.6" gradientUnits="userSpaceOnUse"><stop offset="0" style="stop-color:#FFFFFF"/><stop offset="1" style="stop-color:#FFFFFF;stop-opacity:0"/></radialGradient><path fill="url(#j)" d="M365,142.12l-13.35-16.76V78.5h-74.83 c-4.512-0.006-8.174,3.648-8.18,8.16c0,0.003,0,0.007,0,0.01v93.84h83.05v-37.27h12.78c0.386-0.016,0.686-0.343,0.67-0.729 C365.134,142.37,365.085,142.233,365,142.12z"/><path fill="#3977CC" d="M337.89 145.39L337.89 152.54 307.73 152.54 307.73 144.93 307.16 144.93 307.16 180.51 307.73 180.51 307.73 153.11 322.2 153.11 322.2 180.51 322.77 180.51 322.77 153.11 337.89 153.11 337.89 180.51 338.46 180.51 338.46 145.39zM285.69 78.5H286.26V180.51H285.69zM298.4 152.33c-2.927 0-5.3 2.373-5.3 5.3s2.373 5.3 5.3 5.3 5.3-2.373 5.3-5.3c0-.003 0-.007 0-.01C303.694 154.697 301.323 152.33 298.4 152.33zM298.4 162.33c-2.612 0-4.73-2.118-4.73-4.73s2.118-4.73 4.73-4.73 4.73 2.118 4.73 4.73c.011 2.612-2.098 4.739-4.71 4.75-.007 0-.013 0-.02 0L298.4 162.33 298.4 162.33zM379.05 180.6l.63-.17-7-26.29h-13.36l-5.4 26.31.64.13 1.22-6h9l1.65 6 .63-.17-1.61-5.81h12L379.05 180.6zM355.91 174l3.72-18.14 5 18.14H355.91zM365.31 174L360 154.79h12.18l5.1 19.19L365.31 174z"/><path fill="#FFFFFF" d="M365,142.11l-13.35-16.76h-64.32c-0.552,0.015-0.988,0.475-0.973,1.027c0.004,0.159,0.046,0.314,0.123,0.453 l13.08,16.4h64.91c0.386-0.016,0.686-0.343,0.67-0.729C365.134,142.36,365.085,142.223,365,142.11z"/><path fill="#FFFFFF" d="M361.53,142.48h-62v2.34c0,1.001,0.809,1.814,1.81,1.82l0,0c1.005,0,1.82-0.815,1.82-1.82l0,0 c0,1.005,0.815,1.82,1.82,1.82l0,0l0,0c1.003-0.005,1.815-0.817,1.82-1.82c0,1.001,0.809,1.814,1.81,1.82l0,0 c1.005,0,1.82-0.815,1.82-1.82l0,0c0.005,1.003,0.817,1.815,1.82,1.82l0,0c1.003-0.005,1.815-0.817,1.82-1.82 c0,1.001,0.809,1.814,1.81,1.82l0,0c1.005,0,1.82-0.815,1.82-1.82l0,0c0.005,1.003,0.817,1.815,1.82,1.82l0,0 c1.003-0.005,1.815-0.817,1.82-1.82c0,1.001,0.809,1.814,1.81,1.82l0,0c1.005,0,1.82-0.815,1.82-1.82l0,0 c0.005,1.003,0.817,1.815,1.82,1.82l0,0c1.003-0.005,1.815-0.817,1.82-1.82c0,1.005,0.815,1.82,1.82,1.82l0,0l0,0 c1.005,0,1.82-0.815,1.82-1.82l0,0c0.005,1.003,0.817,1.815,1.82,1.82l0,0c1.003-0.005,1.815-0.817,1.82-1.82 c0,1.005,0.815,1.82,1.82,1.82l0,0l0,0c1.005,0,1.82-0.815,1.82-1.82l0,0c0.005,1.003,0.817,1.815,1.82,1.82l0,0 c1.003-0.005,1.815-0.817,1.82-1.82c0,1.005,0.815,1.82,1.82,1.82l0,0l0,0c1.005,0,1.82-0.815,1.82-1.82l0,0 c0.005,1.003,0.817,1.815,1.82,1.82l0,0c1.003-0.005,1.815-0.817,1.82-1.82c0,1.005,0.815,1.82,1.82,1.82l0,0l0,0 c1.001-0.006,1.81-0.819,1.81-1.82c0.005,1.003,0.817,1.815,1.82,1.82l0,0c1.003-0.005,1.815-0.817,1.82-1.82 c0,1.005,0.815,1.82,1.82,1.82l0,0l0,0c1.001-0.006,1.81-0.819,1.81-1.82l0,0c0,1.005,0.815,1.82,1.82,1.82c0.003,0,0.007,0,0.01,0 l0,0c1.005,0,1.82-0.815,1.82-1.82l0,0v-2.31L361.53,142.48z"/><path fill="#E6E8EB" d="M350.59 143.23L336.31 125.35 343.6 125.35 357.88 143.23zM336.02 143.23L321.74 125.35 329.02 125.35 343.3 143.23zM321.44 143.23L307.16 125.35 314.44 125.35 328.72 143.23zM306.86 143.23L292.58 125.35 299.86 125.35 314.14 143.23z"/><path fill="#E4E9ED" d="M306.86 143.23v1.63c.022.986.824 1.775 1.81 1.78l0 0c1.005 0 1.82-.815 1.82-1.82l0 0c.005 1.003.817 1.815 1.82 1.82l0 0c.971-.004 1.767-.77 1.81-1.74v-1.67H306.86zM321.44 143.23v1.63c.027.987.832 1.775 1.82 1.78l0 0c1.005 0 1.82-.815 1.82-1.82l0 0c.005 1.003.817 1.815 1.82 1.82l0 0c.973.001 1.772-.768 1.81-1.74v-1.67H321.44zM336 143.23v1.63c.027.987.832 1.775 1.82 1.78l0 0c1.001-.006 1.81-.819 1.81-1.82.005 1.003.817 1.815 1.82 1.82l0 0c.973.001 1.772-.768 1.81-1.74v-1.67H336zM350.6 143.23v1.63c.022.986.824 1.775 1.81 1.78l0 0c1.005 0 1.82-.815 1.82-1.82l0 0c.005 1.003.817 1.815 1.82 1.82l0 0c.971-.004 1.767-.77 1.81-1.74v-1.67H350.6z"/><linearGradient id="k" gradientUnits="userSpaceOnUse" x1="332.27" y1="-510.11" x2="332.27" y2="-506.77" gradientTransform="matrix(1 0 0 -1 0 -364)"><stop offset=".11" style="stop-color:#202124;stop-opacity:0.1"/><stop offset="1" style="stop-color:#202124;stop-opacity:0"/></linearGradient><path fill="url(#k)" d="M361.53,142.48h-62v2.34c0,1.001,0.809,1.814,1.81,1.82l0,0c1.005,0,1.82-0.815,1.82-1.82l0,0 c0,1.005,0.815,1.82,1.82,1.82l0,0l0,0c1.003-0.005,1.815-0.817,1.82-1.82c0,1.001,0.809,1.814,1.81,1.82l0,0 c1.005,0,1.82-0.815,1.82-1.82l0,0c0.005,1.003,0.817,1.815,1.82,1.82l0,0c1.003-0.005,1.815-0.817,1.82-1.82 c0,1.001,0.809,1.814,1.81,1.82l0,0c1.005,0,1.82-0.815,1.82-1.82l0,0c0.005,1.003,0.817,1.815,1.82,1.82l0,0 c1.003-0.005,1.815-0.817,1.82-1.82c0,1.001,0.809,1.814,1.81,1.82l0,0c1.005,0,1.82-0.815,1.82-1.82l0,0 c0.005,1.003,0.817,1.815,1.82,1.82l0,0c1.003-0.005,1.815-0.817,1.82-1.82c0,1.005,0.815,1.82,1.82,1.82l0,0l0,0 c1.005,0,1.82-0.815,1.82-1.82l0,0c0.005,1.003,0.817,1.815,1.82,1.82l0,0c1.003-0.005,1.815-0.817,1.82-1.82 c0,1.005,0.815,1.82,1.82,1.82l0,0l0,0c1.005,0,1.82-0.815,1.82-1.82l0,0c0.005,1.003,0.817,1.815,1.82,1.82l0,0 c1.003-0.005,1.815-0.817,1.82-1.82c0,1.005,0.815,1.82,1.82,1.82l0,0l0,0c1.005,0,1.82-0.815,1.82-1.82l0,0 c0.005,1.003,0.817,1.815,1.82,1.82l0,0c1.003-0.005,1.815-0.817,1.82-1.82c0,1.005,0.815,1.82,1.82,1.82l0,0l0,0 c1.001-0.006,1.81-0.819,1.81-1.82c0.005,1.003,0.817,1.815,1.82,1.82l0,0c1.003-0.005,1.815-0.817,1.82-1.82 c0,1.005,0.815,1.82,1.82,1.82l0,0l0,0c1.001-0.006,1.81-0.819,1.81-1.82l0,0c0,1.005,0.815,1.82,1.82,1.82c0.003,0,0.007,0,0.01,0 l0,0c1.005,0,1.82-0.815,1.82-1.82l0,0v-2.31L361.53,142.48z"/><path fill="#FFFFFF" d="M341,106.6l-42.13,11.91c-0.345,0.133-0.733-0.04-0.866-0.385c-0.033-0.084-0.048-0.175-0.044-0.265V99.65 c0.027-0.543,0.391-1.011,0.91-1.17L341,86.57c0.345-0.133,0.733,0.04,0.866,0.385c0.033,0.084,0.048,0.175,0.044,0.265v18.21 C341.883,105.973,341.519,106.441,341,106.6z"/><linearGradient id="l" gradientUnits="userSpaceOnUse" x1="319.94" y1="-479.6" x2="319.94" y2="-454.31" gradientTransform="matrix(1 0 0 -1 0 -364)"><stop offset=".11" style="stop-color:#202124;stop-opacity:0.1"/><stop offset="1" style="stop-color:#202124;stop-opacity:0"/></linearGradient><path fill="url(#l)" d="M341,106.6l-42.13,11.91c-0.345,0.133-0.733-0.04-0.866-0.385c-0.033-0.084-0.048-0.175-0.044-0.265 V99.65c0.027-0.543,0.391-1.011,0.91-1.17L341,86.57c0.345-0.133,0.733,0.04,0.866,0.385c0.033,0.084,0.048,0.175,0.044,0.265v18.21 C341.883,105.973,341.519,106.441,341,106.6z"/><path fill="#3977CC" d="M301.58,113.16l-0.11-0.56c0.08,0,6.61-1.39,9.92-5.91c-1.356-1.497-2.095-3.451-2.07-5.47 c0.18-2,1.3-2.68,2.3-2.64c1.237,0.079,2.202,1.101,2.21,2.34c0.023,2.039-0.573,4.037-1.71,5.73c0.483,0.511,1.043,0.942,1.66,1.28 c1.68,0.94,4.42,1.52,7.93-1.1c1.665-1.186,3.118-2.643,4.3-4.31c-1.505-1.408-2.065-3.556-1.44-5.52 c0.182-0.91,1.068-1.499,1.977-1.317c0.697,0.14,1.231,0.703,1.333,1.407c0.42,1.27,0.22,3.16-1.12,5.33 c1.61,1.23,5.21,2.39,12.61-1.27l0.25,0.51c-7.6,3.77-11.42,2.55-13.17,1.24c-1.212,1.698-2.699,3.182-4.4,4.39 c-2.93,2.18-6,2.59-8.55,1.14c-0.633-0.352-1.212-0.794-1.72-1.31C308.32,111.75,301.67,113.14,301.58,113.16z M311.52,99.16 c-0.91,0-1.52,0.79-1.63,2.12c-0.025,1.817,0.627,3.578,1.83,4.94c1.024-1.573,1.56-3.413,1.54-5.29 c-0.003-0.938-0.734-1.712-1.67-1.77L311.52,99.16z M326.24,96.16c-0.65,0-1,0.63-1.14,1c-0.531,1.708-0.06,3.57,1.22,4.82 c1.25-2.1,1.33-3.82,1-4.76c-0.2-0.61-0.62-1.02-1.08-1.02V96.16z"/><path fill="#4282F2" d="M318.39 163.88H320.33V170.26H318.39zM324.64 163.88H326.58V170.26H324.64z"/><path fill="#E6E8EB" d="M500.89 114.32L491.38 100.95 431.04 100.95 431.04 114.32z"/><path fill="#D8DADE" d="M373.4 86.1H374.25V89.8H373.4zM424.96 86.1H425.81V89.8H424.96z"/><path fill="#E6E8EB" d="M368.44 79.45H431.04V86.10000000000001H368.44zM178.83 86.1H179.68V91.11999999999999H178.83zM129.82 86.1H130.67V91.11999999999999H129.82z"/><path fill="#D8DADE" d="M431.04 114.03H500.88V114.6H431.04zM431 128.46v-.57h-40.19c-.16 0-.29.13-.29.29l0 0V169h.57v-35.2h19.23V169h.57v-35.2H431v-.57h-40v-4.77L431 128.46zM431.04 118.05L377.1 118.05 377.1 101.24 431.04 101.24M222.16 169L221.58 169 221.58 135.19 204.63 135.19 204.63 169 204.05 169 204.05 134.91 204.34 134.62 221.87 134.62 222.16 134.91z"/><path fill="#D8DADE" d="M217.68 144.52h-9.21l-.28-.28v-3.91l.28-.29h9.21l.29.29v3.91L217.68 144.52zM208.76 143.95h8.64v-3.34h-8.64V143.95zM230.84 169L230.27 169 230.27 134.77 230.55 134.48 268.56 134.48 268.56 135.05 230.84 135.05z"/><path fill="#F9C831" d="M194.73,14.35h87.36c13.614,0,24.65,11.036,24.65,24.65v24.65l0,0h-112 c-13.614,0.006-24.654-11.026-24.66-24.64c0-0.003,0-0.007,0-0.01l0,0C170.08,25.386,181.116,14.35,194.73,14.35z"/><path fill="#FFFFFF" d="M199.86 32.69l1.75 3.55c.031.067.096.113.17.12l3.92.57c.125.023.208.143.185.268-.009.046-.031.089-.065.122L203 40.08c-.058.049-.084.126-.07.2l.67 3.9c.016.126-.073.241-.199.257-.041.005-.083-.001-.121-.017l-3.51-1.85c-.067-.03-.143-.03-.21 0l-3.5 1.85c-.114.057-.252.01-.308-.103-.021-.042-.029-.09-.022-.137l.67-3.9c.013-.072-.009-.147-.06-.2l-2.84-2.76c-.09-.09-.089-.236.001-.325.035-.035.08-.058.129-.065l3.91-.57c.075-.005.14-.051.17-.12l1.76-3.55c.056-.108.189-.149.297-.093C199.807 32.618 199.839 32.65 199.86 32.69zM218.78 32.69l1.76 3.55c.03.069.095.115.17.12l3.91.57c.126.018.213.135.195.261-.007.049-.03.094-.065.129l-2.84 2.76c-.051.053-.073.128-.06.2l.67 3.9c.019.126-.068.243-.193.262-.047.007-.094-.001-.137-.022l-3.5-1.85c-.067-.03-.143-.03-.21 0L215 44.42c-.116.051-.252-.003-.303-.119-.017-.038-.023-.08-.017-.121l.67-3.9c.014-.074-.012-.151-.07-.2l-2.83-2.76c-.09-.089-.091-.235-.002-.325.033-.034.076-.056.122-.065l3.92-.57c.074-.007.139-.053.17-.12l1.75-3.55c.066-.102.202-.132.304-.066C218.74 32.641 218.763 32.664 218.78 32.69zM237.71 32.69l1.75 3.55c.031.067.096.113.17.12l3.92.57c.125.023.208.143.185.268-.009.046-.031.089-.065.122l-2.83 2.76c-.058.049-.084.126-.07.2l.67 3.9c.016.126-.073.241-.199.257-.041.005-.083-.001-.121-.017l-3.51-1.85c-.067-.03-.143-.03-.21 0l-3.5 1.85c-.114.057-.252.01-.308-.103-.021-.042-.029-.09-.022-.137l.67-3.9c.017-.073-.006-.149-.06-.2l-2.84-2.76c-.09-.09-.089-.236.001-.325.035-.035.08-.058.129-.065l3.92-.57c.071-.009.132-.054.16-.12l1.76-3.55c.051-.11.181-.159.292-.108C237.65 32.604 237.688 32.642 237.71 32.69zM256.63 32.69l1.76 3.55c.03.069.095.115.17.12l3.91.57c.126.018.213.135.195.261-.007.049-.03.094-.065.129l-2.84 2.76c-.051.053-.073.128-.06.2l.67 3.9c.019.126-.068.243-.193.262-.047.007-.094-.001-.137-.022l-3.5-1.85c-.067-.03-.143-.03-.21 0l-3.5 1.85c-.114.057-.252.01-.308-.103-.021-.042-.029-.09-.022-.137l.67-3.9c.014-.074-.012-.151-.07-.2l-2.83-2.76c-.09-.089-.091-.235-.002-.325.033-.034.076-.056.122-.065l3.92-.57c.074-.007.139-.053.17-.12l1.75-3.55c.051-.11.181-.159.292-.108C256.57 32.604 256.608 32.642 256.63 32.69zM275.56 32.69l1.75 3.55c.031.067.096.113.17.12l3.92.57c.125.023.208.143.185.268-.009.046-.031.089-.065.122l-2.83 2.76c-.053.052-.079.126-.07.2l.67 3.9c.016.126-.073.241-.199.257-.041.005-.083-.001-.121-.017l-3.51-1.85c-.067-.03-.143-.03-.21 0l-3.5 1.85c-.114.057-.252.01-.308-.103-.021-.042-.029-.09-.022-.137l.67-3.9c.017-.073-.006-.149-.06-.2l-2.84-2.76c-.09-.09-.089-.236.001-.325.035-.035.08-.058.129-.065l3.92-.57c.073-.011.136-.055.17-.12l1.75-3.55c.051-.11.181-.159.292-.108C275.5 32.604 275.538 32.642 275.56 32.69z"/><path fill="#F8B904" d="M234.1,168.41c3.045,1.862,5.751,4.229,8,7l5.42-9.08c-3.37-4.48-11.4-9.84-17.74-11.09l-5.42,9.08 C227.815,165.12,231.109,166.503,234.1,168.41z"/><path fill="#4282F2" d="M152.87,59.9c-1.304-0.543-2.403-1.485-3.14-2.69l-5.41,12.85c1.546,2.416,4.419,3.632,7.23,3.06L157,60.27 C155.619,60.589,154.172,60.459,152.87,59.9z"/><path fill="#E84336" d="M53.53,97.55c-2.889,1.563-6.024,2.622-9.27,3.13l4,7.6c5.12-0.6,13.1-4.5,17-9l-4-7.6 C59.029,94.055,56.416,96.039,53.53,97.55z"/><path fill="#00AC4D" d="M538.38,139.16c3.693-2.002,7.658-3.454,11.77-4.31l-5.15-9.24c-6.42,1.1-16.65,6.17-21.89,11.53l5.14,9.24 C531.261,143.498,534.673,141.066,538.38,139.16z"/><path fill="#4282F2" d="M423.88,121.44c1.897-0.279,3.83-0.183,5.69,0.28l-1.49-11.3c-3.751-0.836-7.677-0.315-11.08,1.47 l1.49,11.29C420.161,122.266,421.99,121.676,423.88,121.44z"/><linearGradient id="m" gradientUnits="userSpaceOnUse" x1="136.48" y1="-476.17" x2="136.48" y2="-507.57" gradientTransform="matrix(1 0 0 -1 0 -364)"><stop offset="0" style="stop-color:#E6E8EB"/><stop offset=".13" style="stop-color:#E6E8EB;stop-opacity:0.98"/><stop offset=".26" style="stop-color:#E8EAEC;stop-opacity:0.93"/><stop offset=".39" style="stop-color:#EAECEE;stop-opacity:0.84"/><stop offset=".52" style="stop-color:#EDEEF1;stop-opacity:0.72"/><stop offset=".66" style="stop-color:#F1F2F4;stop-opacity:0.56"/><stop offset=".79" style="stop-color:#F6F7F8;stop-opacity:0.37"/><stop offset=".93" style="stop-color:#FCFCFC;stop-opacity:0.14"/><stop offset="1" style="stop-color:#FFFFFF;stop-opacity:0"/></linearGradient><path fill="url(#m)" d="M139.9,129.5c2.405-3.35,5.364-6.265,8.75-8.62l-10-7c-5.47,3.49-12.35,12.27-14.34,19.47l10,7 C135.55,136.445,137.44,132.777,139.9,129.5z"/><linearGradient id="n" gradientUnits="userSpaceOnUse" x1="429.17" y1="-403.36" x2="429.17" y2="-434.75" gradientTransform="matrix(1 0 0 -1 0 -364)"><stop offset="0" style="stop-color:#E6E8EB"/><stop offset=".13" style="stop-color:#E6E8EB;stop-opacity:0.98"/><stop offset=".26" style="stop-color:#E8EAEC;stop-opacity:0.93"/><stop offset=".39" style="stop-color:#EAECEE;stop-opacity:0.84"/><stop offset=".52" style="stop-color:#EDEEF1;stop-opacity:0.72"/><stop offset=".66" style="stop-color:#F1F2F4;stop-opacity:0.56"/><stop offset=".79" style="stop-color:#F6F7F8;stop-opacity:0.37"/><stop offset=".93" style="stop-color:#FCFCFC;stop-opacity:0.14"/><stop offset="1" style="stop-color:#FFFFFF;stop-opacity:0"/></linearGradient><path fill="url(#n)" d="M432.58,56.68c2.408-3.348,5.366-6.263,8.75-8.62l-10-7C425.88,44.51,419,53.29,417,60.48l10,7.05 C428.235,63.625,430.121,59.956,432.58,56.68z"/></svg>
