<?xml version="1.0" encoding="utf-8"?>
<!-- Generator: Adobe Illustrator 24.0.1, SVG Export Plug-In . SVG Version: 6.00 Build 0)  -->
<svg version="1.1" xmlns="http://www.w3.org/2000/svg" xmlns:xlink="http://www.w3.org/1999/xlink" x="0px" y="0px" width="320px" height="320px" viewBox="0 0 320 320" enable-background="new 0 0 320 320" xml:space="preserve">
    <g id="planet">
        <g>
            <circle fill="#91B2F5" cx="163.11" cy="157.23" r="103.27"></circle>
            <path fill="#BBEF7F" d="M166.27,200.75c-0.41-0.82-0.41-1.77-0.06-2.62c0,0,0,0,0,0c1.03-2.6-0.95-5.42-3.74-5.52l-3.82-0.13
			c-0.7-0.02-1.38,0.26-1.85,0.77l0,0c-0.65,0.71-1.55,1.15-2.5,1.24l-2.36,0.21c-1.27,0.11-2.54-0.38-3.31-1.39
			c-0.6-0.79-1.6-1.55-3.19-1.41c-3.18,0.27-3.18-2.32-7.99-1.95c-4.81,0.36-5.04-2.04-8.31-1.94c-3.27,0.09-3.54-0.37-6.18-1.46
			c-2.63-1.09-5.4,0.74-7.97-1.34s-6.55-0.7-6.55-0.7l-5.92,0.9c-0.95,0.14-1.68-0.88-1.17-1.7c0.01-0.01,1.14-0.56,1.15-0.57
			c0.2-0.3,0.13-0.71-0.11-0.98l-2.37-2.62c-0.37-0.41-0.93-0.6-1.47-0.5L95,180.03c-0.7,0.13-1.15,0.83-0.98,1.52l0.18,0.72
			c0,0-4.48,0.69-4.61-2.98c-0.06-1.64,0.46-2.59,1-3.13c0.69-0.71,0.77-1.81,0.1-2.54c-0.55-0.61-1.28-1.05-2.11-1.24l-1.84-0.43
			c-0.52-0.12-1.07,0.01-1.47,0.36c-0.4,0.36-1.03,0.71-1.89,0.46c-1.95-0.57-3.21-2.89-2.18-7.41c0.43-1.9,0.42-3.36,0.26-4.4
			c-0.15-0.99-1.05-1.74-2.04-1.63c-1.08,0.12-1.78,1.08-1.65,2.09c0.21,1.72,0.09,4.53-2.43,6.07c-1.07,0.66-2.36,0.53-3.66,0.02
			c-4.27-1.69-6.49-6.44-5.36-10.89l2.07-8.15c1.32-5.18,7.1-7.82,11.86-5.38c0.07,0.04,0.14,0.07,0.21,0.11
			c0.54,0.28,1.17,0.31,1.74,0.09l0,0c0.57-0.22,1.01-0.68,1.21-1.25c0.62-1.73,2.39-5.32,6.2-4.33c2.77,0.72,2.47,2.74,2.44,3.78
			c-0.02,1.11,0.22,2.2,0.86,3.11c0.78,1.13,1.69,2.7,1.94,4.22l0.01,0.01c0.57,0.88,1.77,1.15,2.7,0.66
			c0.64-0.34,1.51-0.61,2.61-0.59c0.38,0.01,0.72-0.26,0.8-0.63v0c0.1-0.45-0.2-0.88-0.65-0.96c-1.58-0.27-4.84-1.18-4.72-4.12
			c0.16-3.87,0.54-5.99,0.54-5.99l10.49-3.41c0,0,2.86-1.46,1-7.61c-1.86-6.15,16.34-12.09,16.34-12.09l-1.03,1.56
			c-0.3,0.46-0.2,1.08,0.26,1.42c0.44,0.32,1.05,0.21,1.42-0.18l2.21-2.36c1.02-1.09,1.48-2.58,1.26-4.06l-0.01-0.04
			c0-0.01,0-0.03-0.01-0.04c-0.17-1.02-1.45-1.43-2.21-0.74c-0.56,0.5-1.44,1.05-2.57,0.98c-0.97-0.06-1.32-0.69-1.41-1.35
			c-0.1-0.68-0.83-1.08-1.46-0.81l-1.86,0.79l-5.19-0.26c-0.81-0.04-1.06-1.22-0.3-1.48c0.08-0.03,0.17-0.04,0.25-0.03
			c2.85,0.31,5.71,0.36,8.34-0.78l3.14-1.36l1.83,1.31c0.75,0.53,1.73,0.61,2.55,0.21l2.57-1.28c0,0,2.04-1.38,3.59,0
			c0.6,0.54,1.06,1.01,1.39,1.38c0.43,0.48,1.12,0.67,1.7,0.4c0.9-0.41,1.12-1.57,0.46-2.28l-7.36-7.87
			c-0.69-0.74-1.89-0.77-2.57-0.02c-0.58,0.65-1.48,1.23-2.8,1.19c-2.02-0.06-3.24-2.16-3.68-4.04c-0.32-1.4-1.42-2.65-2.76-2.63
			l-0.79,0c-2.04,0.06-2.18-1.19-3.56-0.5l-1.17,0.59c-0.71,0.36-1.06,1.19-0.79,1.94c0.5,1.41,0.83,3.63-1.49,4.68
			c-0.92,0.42-1.37,1.49-1.11,2.47l0.38,1.44c0,0,1,3.01-1.68,3.25c-2.35,0.21-1.94-3.71-1.94-3.71s0.44-1.87-1.51-2.23
			c-1.95-0.36-6.91-0.66-7.23-4.81c-0.32-4.15,4.63-9.47,15.33-10.82l0.31,0.84c0.37,1,1.44,1.56,2.47,1.28h0
			c0.52-0.14,0.82-0.67,0.68-1.19l-0.32-1.18c-0.33-1.23,0.82-2.35,2.04-1.97c1.56,0.48,3.29,1.38,3.77,3.03
			c0.92,3.17-3.41,2.59-0.94,4.77c1.37,1.2,3,1.6,4.18,1.71c0.94,0.09,1.82-0.45,2.2-1.31l0.51-1.15c0.42-0.95,0.04-2.06-0.87-2.55
			c-0.72-0.38-1.3-0.93-0.87-1.61c0.47-0.74,1.36-0.53,2.02-0.23c0.41,0.19,0.89-0.07,0.95-0.52v0c0.04-0.3-0.11-0.59-0.38-0.72
			l-5.01-2.41c0,0-1.42-1.75,0.67-2.91c2.09-1.16,0.35-2.3,0.35-2.3s-1.92,0.75-4.43-0.87c-0.6-0.38-1.38-0.3-1.88,0.19
			c-0.9,0.89-0.39,4.42-4.3,3.09c-0.56-0.19-1.18-0.1-1.68,0.22c-1.28,0.82-3.73,2.06-4.83,0.35c-0.94-1.46,0.94-2.33,2.52-2.79
			c0.79-0.23,1.05-1.21,0.47-1.79h0c-0.73-0.74-2-0.82-2.8-0.15c-1.28,1.07-3.35,2.36-6.13,2.72c-4.8,0.62,1.88-4.47,2.35-4.83
			C77.8,90.31,59.8,121.69,59.8,157.28c0,5.6,0.45,11.09,1.31,16.45c0.66,0.09,1.56-0.08,2.28-1.27c1.32-2.18,4.18-1.77,4.18-1.77
			s2.3,0.28,5.27,0.72c1.79,0.26,2.49,1.08,2.77,1.73c0.34,0.79,0.8,1.51,1.39,2.13h0c0.72,0.75,1.8,0.98,2.78,0.64
			c1.38-0.48,2.91-0.14,2.91-0.14c3.2,1.04,2.2,3.89,1.92,5.11c-0.13,0.54,0.02,1.1,0.4,1.49c0.21,0.22,0.49,0.37,0.79,0.44
			c3.39,0.81,5.06,1.96,5.89,2.83c0.75,0.79,1.73,1.31,2.81,1.39l2.03,0.15c0.33,0.02,0.63-0.21,0.68-0.53
			c0.06-0.34-0.15-0.66-0.48-0.73c-0.18-0.04-0.42-0.1-0.73-0.18l-0.03-0.01c-0.75-0.19-0.79-1.25-0.06-1.5l0.13-0.04
			c1.2-0.41,2.52,0.05,3.22,1.1l1.1,1.67c1.35,1.89,2.15,3.68,2.55,5.35c1.28,5.34-1.53,9.43-3.59,11.6
			c-0.97,1.02-1.25,2.51-0.73,3.82c0.7,1.75,0.5,3.76,0.18,5.17c-0.28,1.25-0.01,2.55,0.75,3.58l0.9,1.22c0,0,5.87,3.18,9.92,5.67
			c2.19,1.35,2.28,2.98,2,4.08c-0.2,0.8,0.21,1.63,0.95,2l3.69,1.86c0.63,0.31,1.32,0.46,2.02,0.42c2.23-0.12,7.65-0.19,12,1.66
			c5.79,2.46,9.99,11.48,9.99,11.48l2.42,1.81c5.74,4.44,12.1,8.62,12.1,8.62l9.11,0.78c0.2,0.02,0.39-0.06,0.53-0.2
			c0.34-0.37,0.15-0.96-0.34-1.07l-1.83-0.39c-1.84-0.39-3.51-1.43-4.55-2.99c-0.72-1.07-1.1-2.36-0.31-3.62l0.88-1.04
			c0.24-0.28,0.34-0.66,0.26-1.02c-0.08-0.42-0.39-0.78-0.8-0.91c-0.74-0.23-1.95-0.9-2.71-2.89c-0.65-1.69,0.19-3.06,1.05-3.92
			c0.92-0.93,1.47-2.18,1.4-3.49c-0.01-0.13-0.01-0.27-0.03-0.4c-0.13-1.71-1.55-3.03-3.27-3.04l-2.9-0.01
			c-0.71,0-1.4-0.26-1.95-0.72l-0.08-0.07c-0.24-0.2-0.09-0.59,0.22-0.59l3.8,0.03c0.79,0.01,1.51-0.47,1.82-1.2l4.19-10.1
			l-1.36-4.32c0,0-0.55-1.29,0.93-2.29c1.48-1.01,9.48-6.15,7.24-10.1C166.77,201.72,166.53,201.26,166.27,200.75z"></path>
            <path fill="#BBEF7F" d="M147.71,80.09c-1.5-1.02-3.05-4.47,0.5-4.17c3.55,0.3,5.35-2.95,3.38-4.2c-3.11-1.98-2.03-3.26-0.91-3.46
			c0.39-0.07,0.66-0.43,0.57-0.81l-0.03-0.11c-0.07-0.28-0.32-0.48-0.61-0.5c-2.44-0.18-4.05-0.96-5.84-2.6l-0.1-0.09
			c-1.98-1.81-4.8-2.4-7.34-1.5c-4.74,1.68-10.81,2.95-13.81,3.61c-0.71,0.16-1.15,0.87-0.87,1.55c0.2,0.49,0.7,0.76,1.2,0.7
			l4.27-0.55c0,0,3.93,4.69,5.79,6.55c1.86,1.85,3.44,0.66,3.44,0.66s-0.41,1.54,0.28,2.48c0.69,0.93,0.51,1.9-1.01,3.16
			c-1.52,1.27,0.81,2.89,0.81,2.89l14.67,3.96C155.56,84.01,149.21,81.1,147.71,80.09z"></path>
            <path fill="#BBEF7F" d="M157.94,61.9c-0.73,0.06-1.82,0.05-1.91-0.56c-0.15-0.93,1.91-1.75-0.59-2.94
			c-1.35-0.65-2.57-0.28-3.31-0.11c-0.77,0.17-1.57-0.05-2.1-0.63l-0.3-0.37l-1.18,0.3c-1.08,0.22-1.47,1.53-0.72,2.34
			c0.65,0.69,1.19,1.51,1.22,2.36c0.05,1.68,6.75,1.4,9.02,1.22c0.49-0.04,0.83-0.51,0.72-0.99
			C158.69,62.13,158.33,61.86,157.94,61.9z"></path>
            <path fill="#BBEF7F" d="M188.73,93.1c0.09,0.39,0.26,0.42,0.52,0.43c0.05,0,0.11,0.01,0.16,0.01c1.48,0.13,2.15,1.93,1.12,3.01
			l-3.31,3.44c-0.24,0.25-0.57,0.39-0.92,0.39h-0.27c0,0-1.75-0.12-1.91,1.88c-0.18,2.25,3.06,2.72,4.37,1.71
			c1.35-1.04,2.08-2.05,3.97-1.51c1.89,0.54,1.12-2.52,1.12-2.52l1.62-4.41c0,0,0.56-1.07-0.29-1.34s-2.23-3.66-2.23-3.66
			s-0.38-0.73-1.9,0c-0.34,0.17-0.69,0.34-1.03,0.5C188.99,91.42,188.54,92.27,188.73,93.1z"></path>
            <path fill="#BBEF7F" d="M182.27,99.84c0.51-0.02,1.08-0.19,1.67-0.68c1.65-1.41,1.69-1.68,2.87-1.52c1.18,0.16,0.89-1.3,0-1.28
			c-0.89,0.03-1.21,0.17-2.11-0.29c-0.78-0.4-1.75,0.66-1.75,0.66l-1.38,1.59C181.04,98.92,181.48,99.86,182.27,99.84z"></path>
            <path fill="#BBEF7F" d="M112,165.88l-4.54-3.36c-1.05-0.78-2.42-0.89-3.62-0.37c-1.13,0.49-2.87,0.88-5.27,0.48
			c-4.81-0.79-5.88-3.08-8.79-2.22c0,0-1.66,0.48-1.2,1.74c0.37,1.04,1.64,1.23,3.61,0.68c1.97-0.54,5.95,0.62,6.51,4.02
			c0,0-0.04,1.2,1.22,1.09c1.26-0.11,5.04-3.37,6.93-1.65c1.89,1.72,2.29,2.05,2.29,2.05l2.52-0.68
			C112.48,167.45,112.68,166.38,112,165.88z"></path>
            <path fill="#BBEF7F" d="M112.67,169.87c-0.59,0.33-1.14,0.6-1.64,0.82c-0.89,0.39-0.44,1.73,0.51,1.51
			c0.07-0.02,0.13-0.03,0.2-0.05c3.22-0.82,5.2,1.86,5.2,1.86l1.97-0.89c0.62-0.28,0.69-1.14,0.12-1.52c-0.3-0.2-0.66-0.43-1.07-0.7
			C116.28,169.8,115.01,168.56,112.67,169.87z"></path>
            <path fill="#BBEF7F" d="M181.28,123.86l-1.83,2.49c-0.41,0.55-0.49,1.28-0.22,1.91l1.91,4.45c0.57,1.33,1.78,2.28,3.2,2.51
			l1.37,0.23c2.73,0.45,5.48-0.65,7.15-2.85l0,0c4.17,1.77,4.81-1.41,4.81-1.41s0.02-2.66,1.25-4.85c1.22-2.19-0.82-4-0.82-4
			l4.9-5.41l0.07,1.43c0.34,3.84,5.43,5.48,8.38,6.12c2.74,0.59,5.09,2.48,6.04,5.11c0.07,0.19,0.13,0.38,0.18,0.57
			c0.34,1.23-0.16,1.9-0.96,2.26c-0.73,0.33-0.7,1.37,0.06,1.63h0c1.22,0.42,2.56-0.17,3.08-1.36l2.19-4.54
			c0.32-0.67,1.03-1.05,1.76-0.95l0.81,0.11c0.48,0.04,0.88-0.34,0.88-0.82c0-0.36-0.24-0.67-0.58-0.77l-3.18-0.95
			c-0.98-0.29-1.84-0.9-2.48-1.7c-2.41-3-3.79-1.24-6.23-2.09c-0.03-0.01-0.05-0.02-0.08-0.03c-1.31-0.48-0.75-2.46,0.62-2.21
			l11.23,2.05c0,0-0.54,1.13,2.05,2.56c1.37,0.76,1.93,2.22,2.15,3.43c0.24,1.32,1.1,2.44,2.31,3.02l0.52,0.25
			c1.01,0.48,1.84-0.99,0.88-1.56c-0.18-0.11-0.39-0.21-0.64-0.3c-1.23-0.47-1.55-1.68-1.57-2.77c-0.03-1.69-0.36-3.37-1.09-4.9v0
			c-0.14-0.28,0.07-0.6,0.38-0.6l3.58,0.06c0,0,4.14,1.39,1.52,2.95c-2.62,1.57-0.38,5.45,2.42,5.26s1.7-0.17,6.28,1.21
			c4.58,1.38,3.6-1.43,3.6-1.43c1.35,0,2.56,0.84,3.04,2.1l0.8,2.13c1.59,4.23-1.32,5.81-1.32,5.81s-16.75-2.68-20.59-2.84
			c-3.84-0.16-3.47,4.86-3.47,4.86s-9.88-1.44-14.32-2.86c-2.29-0.73-3.06-1.86-3.26-2.78c-0.24-1.07-0.98-1.94-2.02-2.3l0,0
			c-1.16-0.4-2.43-0.27-3.48,0.36l-9.2,5.54c-2.59,1.56-4.58,3.94-5.65,6.77l-0.03,0.07c-0.92,2.42-2.04,2.64-5.61,3.92
			c-3.57,1.29-2.18,6.41-3.74,10.81c-0.73,2.06,0.2,3.71,1.39,4.87c1.79,1.74,2.62,4.23,2.15,6.68l-1.03,5.29
			c-1.59,6.1,1.43,7.75,1.43,7.75l12.97,9.07c0,0,3.33,2.71,9.64-1.03c2.59-1.53,3.52,0.42,3.52,0.42l0.39,0.81
			c1.1,2.29,1.74,4.78,1.88,7.32v0c0,0-0.14,2.08,1.8,2.52c1.94,0.44,2.08,2.63,2.08,2.63s1.4,5.85-3.41,13.41
			c-4.46,7.01-2.18,11.96-2.18,11.96l-1.06,3.1c-0.69,2.01,0.63,4.15,2.74,4.44l3.22,0.44l21.02-14.29c0,0,4.03-3.67,4.18-8.07
			c0.09-2.56,2.27-4.42,4.07-5.51c3.51-2.14,5.94-5.76,6.19-9.87c0.01-0.24,0.02-0.48,0.03-0.73c0.01-1.26,1.03-2.27,2.28-2.22
			l6.11,0.24c4.11-9.35,6.88-19.43,8.06-30c-5.35,0.21-7.84-3.09-7.84-3.09c-3.51-4.42-5.95-11.1-7.18-14.81
			c-0.25-0.76,0.03-1.62,0.73-2.01c1.01-0.56,2.18,0,2.44,1.03c0.76,2.97,2.68,9.25,5.76,11.15c2.08,1.28,4.61,1.61,6.6,1.62
			c0.09-1.8,0.14-3.61,0.14-5.43c0-36.59-19.03-68.73-47.73-87.08c-1.02,0.96-2.51,1.77-3.73,2.55c-1.2,0.78-1.48,1.59-1.43,2.24
			c0.07,0.91-0.37,1.78-1.16,2.23l-6.88,3.85c-1.53,0.82-2.16,2.26-1.8,3.95c0.32,1.5,1.44,2.71,2.87,3.29l0,0
			c0.28,0.12,0.61,0.05,0.83-0.16l1.3-1.27c0.47-0.46,1.25-0.03,1.11,0.62c-0.18,0.87-0.63,1.8-1.69,2.11l-0.02,0
			c-1.79,0.52-1.61,3.11,0.23,3.37l2.24,0.32c1.62,0.23,3.24-0.43,4.24-1.73c0.47-0.62,1.02-1.31,1.58-1.98
			c1.65-1.96-0.78-3.82-0.78-3.82s5.01,0.2,6.6-2.57c0.9-1.57,2.44-2.72,4.3-2.33c1.86,0.4,2.09,2.73-0.66,3.28
			c-1.63,0.32-2.99,1.42-3.5,3.26c-0.23,0.85,0.26,1.51,1.14,1.48l9.97-0.35c0.07,0,0.15,0.02,0.23,0.07
			c0.94,0.52,0.78,1.94-0.21,2.35l-4.83,2.03c-1.06,0.45-1.92,1.27-2.41,2.32l-0.06,0.13c-0.42,0.9-1.47,1.29-2.39,0.92
			c-0.96-0.38-2.27-0.66-3.69-0.27c-1.77,0.49-3.51-0.08-4.94-0.48c-1.43-0.4-2.73,0.49-4.72,0.89c-1.46,0.29-2.15-0.5-2.48-0.86
			c-0.49-0.55-1.2-0.84-1.93-0.77l-0.05,0c-0.73,0.07-1.39,0.48-1.76,1.11c-1.56,2.64-5.75,9.58-6.64,9.89
			c-0.63,0.21-1.16-0.17-1.5-0.54c-0.27-0.29-0.7-0.38-1.04-0.18l-0.7,0.4c-1.22,0.57-1.74,2.02-1.16,3.23
			c0.58,1.22,0.94,2.69-0.02,3.56c-1.86,1.68,1.56,6.32-1.59,6.46l-9.06,0.94c-0.52,0.05-1.01,0.31-1.28,0.76
			c-0.37,0.63-0.18,1.27,0.09,1.75C181.69,122.74,181.63,123.39,181.28,123.86z"></path>
            <path fill="#91B2F5" d="M246.67,120.07c-1.35-0.87-3.45-1.93-5.89-2.14c-4.27-0.36-6-2.41-4.43-4.65
			c0.44-0.63,0.78-1.14,1.05-1.55c0.48-0.75,1.53-0.86,2.16-0.24l1,0.99c0,0,1.28,2.21,3.7,2.18c2.42-0.03,2.68,1.8,2.68,1.8
			l0.78,2.84C247.9,119.91,247.21,120.42,246.67,120.07z"></path>
            <radialGradient id="SVGID_1_" cx="32.0685" cy="17.1035" r="209.8514" gradientUnits="userSpaceOnUse">
                <stop offset="0.4047" style="stop-color:#EDF1F4;stop-opacity:0.4"></stop>
                <stop offset="1" style="stop-color:#FFFFFF;stop-opacity:0"></stop>
            </radialGradient>
            <circle fill="url(#SVGID_1_)" cx="163.11" cy="157.23" r="103.27"></circle>
            <linearGradient id="SVGID_2_" gradientUnits="userSpaceOnUse" x1="164.9914" y1="255.6843" x2="177.8947" y2="123.0391">
                <stop offset="0" style="stop-color:#202124;stop-opacity:0.1"></stop>
                <stop offset="1" style="stop-color:#202124;stop-opacity:0"></stop>
            </linearGradient>
            <path fill="url(#SVGID_2_)" d="M224.36,74.04c10.63,16.23,16.81,35.64,16.81,56.49c0,57.04-46.24,103.27-103.27,103.27
			c-22.91,0-44.07-7.46-61.2-20.08c18.44,28.17,50.28,46.78,86.46,46.78c57.04,0,103.27-46.24,103.27-103.27
			C266.44,123.1,249.88,92.84,224.36,74.04z"></path>
        </g>
    </g>
    <g id="messages">
        <path fill="#3C4043" d="M317.87,162.04c0-1.93-0.2-3.81-0.58-5.63c-2.61-12.46-13.67-21.84-26.89-21.84h-62.88
		c-15.15,0-27.47,12.32-27.47,27.47c0,14.09,10.55,25.83,24.55,27.31c0.84,0.09,1.48,0.8,1.48,1.65v13.05l13.68-14.03
		c0.31-0.32,0.74-0.5,1.18-0.5h37.24h12.21C305.55,189.51,317.87,177.19,317.87,162.04z"></path>
        <path fill="#9AA0A6" d="M299.66,152.23h-46.8c-1.1,0-2-0.89-2-2s0.89-2,2-2h46.8c1.1,0,2,0.89,2,2S300.76,152.23,299.66,152.23z"></path>
        <path fill="#9AA0A6" d="M276.26,164.46h-23.4c-1.1,0-2-0.89-2-2s0.89-2,2-2h23.4c1.1,0,2,0.89,2,2S277.36,164.46,276.26,164.46z"></path>
        <path fill="#F9DA6C" d="M227.36,164.11c6.97,0,13.04,3.86,16.2,9.55c2.51-3.39,4.02-7.58,4.02-12.13
		c0-11.28-9.14-20.42-20.42-20.42c-11.28,0-20.42,9.14-20.42,20.42c0,4.69,1.6,9,4.26,12.45
		C214.1,168.12,220.26,164.11,227.36,164.11z"></path>
        <circle fill="#F9DA6C" cx="227.2" cy="155.8" r="6.18"></circle>
        <path fill="#9AA0A6" d="M227.15,181.96c6.73,0,12.68-3.27,16.41-8.3c-3.16-5.69-9.23-9.55-16.2-9.55c-7.1,0-13.27,4-16.37,9.87
		C214.72,178.83,220.57,181.96,227.15,181.96z"></path>
        <circle fill="#9AA0A6" cx="227.2" cy="155.8" r="6.18"></circle>
        <path fill="#3C4043" d="M1.6,60.97c0-1.93,0.2-3.81,0.58-5.63c2.61-12.46,13.67-21.84,26.89-21.84h62.88
		c15.15,0,27.47,12.32,27.47,27.47c0,14.09-10.55,25.83-24.55,27.31c-0.84,0.09-1.48,0.8-1.48,1.65v13.05L79.71,88.94
		c-0.31-0.32-0.74-0.5-1.18-0.5H41.29H29.07C13.92,88.44,1.6,76.11,1.6,60.97z"></path>
        <path fill="#F9DA6C" d="M28.92,63.04c6.97,0,13.04,3.86,16.2,9.55c2.51-3.39,4.02-7.58,4.02-12.13c0-11.28-9.14-20.42-20.42-20.42
		c-11.28,0-20.42,9.14-20.42,20.42c0,4.69,1.6,9,4.26,12.45C15.65,67.05,21.81,63.04,28.92,63.04z"></path>
        <circle fill="#F9DA6C" cx="28.76" cy="54.72" r="6.18"></circle>
        <path fill="#9AA0A6" d="M28.71,80.89c6.73,0,12.68-3.27,16.41-8.3c-3.16-5.69-9.23-9.55-16.2-9.55c-7.1,0-13.27,4-16.37,9.87
		C16.28,77.76,22.12,80.89,28.71,80.89z"></path>
        <circle fill="#9AA0A6" cx="28.76" cy="54.72" r="6.18"></circle>
        <path fill="#9AA0A6" d="M101.21,51.15h-46.8c-1.1,0-2-0.89-2-2s0.89-2,2-2h46.8c1.1,0,2,0.89,2,2S102.32,51.15,101.21,51.15z"></path>
        <path fill="#9AA0A6" d="M101.21,63.38h-46.8c-1.1,0-2-0.89-2-2s0.89-2,2-2h46.8c1.1,0,2,0.89,2,2S102.32,63.38,101.21,63.38z"></path>
        <path fill="#9AA0A6" d="M77.81,76.03h-23.4c-1.1,0-2-0.89-2-2s0.89-2,2-2h23.4c1.1,0,2,0.89,2,2S78.92,76.03,77.81,76.03z"></path>
        <path fill="#3C4043" d="M35.3,246.53c0,1.93,0.2,3.81,0.58,5.63C38.49,264.62,49.55,274,62.77,274h62.88
		c15.15,0,27.47-12.32,27.47-27.47c0-14.09-10.55-25.83-24.55-27.31c-0.84-0.09-1.48-0.8-1.48-1.65v-13.05l-13.68,14.03
		c-0.31,0.32-0.74,0.5-1.18,0.5H74.98H62.77C47.62,219.06,35.3,231.38,35.3,246.53z"></path>
        <path fill="#9AA0A6" d="M137.86,236.48h-46.8c-1.1,0-2-0.89-2-2s0.89-2,2-2h46.8c1.1,0,2,0.89,2,2S138.96,236.48,137.86,236.48z"></path>
        <path fill="#9AA0A6" d="M137.86,248.71h-46.8c-1.1,0-2-0.89-2-2s0.89-2,2-2h46.8c1.1,0,2,0.89,2,2S138.96,248.71,137.86,248.71z"></path>
        <path fill="#9AA0A6" d="M137.86,261.36h-46.8c-1.1,0-2-0.89-2-2s0.89-2,2-2h46.8c1.1,0,2,0.89,2,2S138.96,261.36,137.86,261.36z"></path>
        <path fill="#F9DA6C" d="M65.57,248.37c6.97,0,13.04,3.86,16.2,9.55c2.51-3.39,4.02-7.58,4.02-12.13c0-11.28-9.14-20.42-20.42-20.42
		c-11.28,0-20.42,9.14-20.42,20.42c0,4.69,1.6,9,4.26,12.45C52.3,252.37,58.46,248.37,65.57,248.37z"></path>
        <circle fill="#F9DA6C" cx="65.41" cy="240.05" r="6.18"></circle>
        <path fill="#9AA0A6" d="M65.36,266.21c6.73,0,12.68-3.27,16.41-8.3c-3.16-5.69-9.23-9.55-16.2-9.55c-7.1,0-13.27,4-16.37,9.87
		C52.93,263.08,58.77,266.21,65.36,266.21z"></path>
        <circle fill="#9AA0A6" cx="65.41" cy="240.05" r="6.18"></circle>
    </g>
</svg>