<?xml version="1.0" encoding="utf-8"?>
<!-- Generator: Adobe Illustrator 23.0.4, SVG Export Plug-In . SVG Version: 6.00 Build 0)  -->
<svg version="1.0" id="Capa_1" xmlns="http://www.w3.org/2000/svg" xmlns:xlink="http://www.w3.org/1999/xlink" x="0px" y="0px"
	 width="235px" height="108px" viewBox="0 0 235 108" enable-background="new 0 0 235 108" xml:space="preserve">
<g>

		<radialGradient id="SVGID_1_" cx="118.1124" cy="-65.4997" r="57.9751" gradientTransform="matrix(1 0 0 -0.7705 0 13.6105)" gradientUnits="userSpaceOnUse">
		<stop  offset="0" style="stop-color:#F1F3F4"/>
		<stop  offset="1" style="stop-color:#F1F3F4;stop-opacity:0"/>
	</radialGradient>
	<rect x="54.9" y="63.7" fill="url(#SVGID_1_)" width="125.2" height="42.8"/>

		<linearGradient id="SVGID_2_" gradientUnits="userSpaceOnUse" x1="139.253" y1="96.8992" x2="139.253" y2="45.0945" gradientTransform="matrix(1 0 0 -1 0 107.89)">
		<stop  offset="0" style="stop-color:#F1F3F4"/>
		<stop  offset="1" style="stop-color:#F1F3F4;stop-opacity:0"/>
	</linearGradient>
	<path fill-rule="evenodd" clip-rule="evenodd" fill="url(#SVGID_2_)" d="M165.2,53.2l-2.3-30.4c0-0.2-0.1-0.3-0.3-0.3h-5.5
		c-0.2,0-0.5,0.2-0.5,0.4l-1.1,14.2L149,39V17.1c0-0.5-0.4-0.9-0.9-0.9h-27c-1,0-1.9,0.8-1.9,1.9v9.6l-4.1,1.7
		c-0.5,0.2-0.8,0.6-0.8,1.1v21.2h0l-15.4,12h80.7L165.2,53.2z"/>

		<linearGradient id="SVGID_3_" gradientUnits="userSpaceOnUse" x1="72.5585" y1="109.759" x2="72.5585" y2="44.6227" gradientTransform="matrix(1 0 0 -1 0 107.89)">
		<stop  offset="0" style="stop-color:#F1F3F4"/>
		<stop  offset="1" style="stop-color:#F1F3F4;stop-opacity:0"/>
	</linearGradient>
	<path fill-rule="evenodd" clip-rule="evenodd" fill="url(#SVGID_3_)" d="M65,38.6L66.7,13c0-0.6,0.3-1.1,0.8-1.5
		c0.4-0.4,1-0.5,1.5-0.5c1,0.1,4.6,0.7,4.6,0.7v11.6l3.3-1.4V9.5l2.5-2.9l0-3.8h7.1l0.1,6.5l2,1.3l0.5,53H56L65,38.6z"/>

		<linearGradient id="SVGID_4_" gradientUnits="userSpaceOnUse" x1="113.6013" y1="13.4849" x2="110.8372" y2="29.5166" gradientTransform="matrix(1 0 0 -1 0 107.89)">
		<stop  offset="0" style="stop-color:#FFFFFF;stop-opacity:0"/>
		<stop  offset="0.1919" style="stop-color:#F0F1F2;stop-opacity:0.1919"/>
		<stop  offset="0.7192" style="stop-color:#CCD0D4;stop-opacity:0.7192"/>
		<stop  offset="1" style="stop-color:#BEC3C8"/>
	</linearGradient>
	<polygon fill="url(#SVGID_4_)" points="87.2,86.6 116.4,95.5 138.9,95.5 110.4,86.6 	"/>
	<path fill-rule="evenodd" clip-rule="evenodd" fill="#DADCE0" d="M110.4,86.6c1.5-2.5,2.3-5.8,2.3-9.4c0-7.7-4.1-14-9.2-14
		s-9.2,6.3-9.2,14c0,3.6,0.9,6.9,2.3,9.4H110.4z"/>

		<ellipse transform="matrix(0.5 -0.866 0.866 0.5 1.5391 125.0494)" fill-rule="evenodd" clip-rule="evenodd" fill="#DADCE0" cx="109.1" cy="61.2" rx="7.3" ry="5.3"/>
	<circle fill-rule="evenodd" clip-rule="evenodd" fill="#DADCE0" cx="105.9" cy="53.7" r="3.4"/>
	<g>
		<path fill="#8C9196" d="M106.8,80.3c-0.2,0-0.3-0.1-0.3-0.3v-2c0-0.2,0.1-0.3,0.3-0.3s0.3,0.1,0.3,0.3v2
			C107,80.2,106.9,80.3,106.8,80.3z"/>
		<path fill="#8C9196" d="M102.7,72.7c-0.2,0-0.3-0.1-0.3-0.3v-2c0-0.2,0.1-0.3,0.3-0.3s0.3,0.1,0.3,0.3v2
			C102.9,72.6,102.8,72.7,102.7,72.7z"/>
		<path fill="#8C9196" d="M98.9,78.2c-0.2,0-0.3-0.1-0.3-0.3v-2c0-0.2,0.1-0.3,0.3-0.3s0.3,0.1,0.3,0.3v2
			C99.2,78.1,99.1,78.2,98.9,78.2z"/>
		<path fill="#8C9196" d="M111.3,61.2c0,0-0.1,0-0.1,0c-0.1-0.1-0.2-0.3-0.1-0.4l0.5-0.9c0.1-0.1,0.3-0.2,0.4-0.1
			c0.1,0.1,0.2,0.3,0.1,0.4l-0.5,0.9C111.5,61.2,111.4,61.2,111.3,61.2z"/>
		<path fill="#8C9196" d="M107.4,62c0,0-0.1,0-0.1,0c-0.1-0.1-0.2-0.3-0.1-0.4l0.5-0.9c0.1-0.1,0.3-0.2,0.4-0.1
			c0.1,0.1,0.2,0.3,0.1,0.4l-0.5,0.9C107.6,62,107.5,62,107.4,62z"/>
		<path fill="#8C9196" d="M107,53.4c-0.1,0-0.2,0-0.2-0.1l-0.5-0.6c-0.1-0.1-0.1-0.3,0.1-0.4c0.1-0.1,0.3-0.1,0.4,0.1l0.5,0.6
			c0.1,0.1,0.1,0.3-0.1,0.4C107.1,53.3,107.1,53.4,107,53.4z"/>
	</g>
	<g>
		<path fill="#F1F3F4" d="M110.3,67.3c0,0,0.2-0.1,0.3-0.1c0,0,0.1,0,0.1,0c0,0,0-0.1-0.1-0.1c-0.9-1.4-1.9-2.4-3.1-3.2
			c-1.2-0.8-2.5-1.2-3.9-1.2c-0.1,0-0.2,0-0.3,0c0,0.2,0,0.4,0,0.6c0.1,0,0.2,0,0.4,0c2.6,0,4.9,1.6,6.5,4.2
			C110.1,67.4,110.2,67.3,110.3,67.3z"/>
	</g>

		<linearGradient id="SVGID_5_" gradientUnits="userSpaceOnUse" x1="156.1" y1="20.4582" x2="133.4142" y2="28.9905" gradientTransform="matrix(0.7763 0.1355 0.3911 -1.2199 23.8002 105.1107)">
		<stop  offset="0" style="stop-color:#FFFFFF;stop-opacity:0"/>
		<stop  offset="0.1919" style="stop-color:#F0F1F2;stop-opacity:0.1919"/>
		<stop  offset="0.7192" style="stop-color:#CCD0D4;stop-opacity:0.7192"/>
		<stop  offset="1" style="stop-color:#BEC3C8"/>
	</linearGradient>
	<path fill="url(#SVGID_5_)" d="M157.5,95.3c-0.6,2-7.1,2.5-14.4,1.2c-7.3-1.3-12.8-3.9-12.1-5.9s7.1-2.5,14.4-1.2
		C152.7,90.7,158.1,93.4,157.5,95.3z"/>
	<path fill-rule="evenodd" clip-rule="evenodd" fill="#DADCE0" d="M89.8,24.4L89.8,24.4c-1.3,0.7-2.9,0.3-3.6-1l-0.7-1.1
		c-0.7-1.3-0.3-2.9,1-3.6l0,0c1.3-0.7,2.9-0.3,3.6,1l0.7,1.1C91.4,22,91,23.6,89.8,24.4z"/>
	<g>
		<path fill="#F1F3F4" d="M89.7,24.4C89.7,24.4,89.7,24.4,89.7,24.4c0.2-0.1,0.4-0.2,0.5-0.3c-2-1.7-3.3-4.2-3.8-5.3
			c-0.2,0.1-0.3,0.2-0.5,0.4C86.5,20.3,87.8,22.6,89.7,24.4z"/>
		<g>
			<path fill-rule="evenodd" clip-rule="evenodd" fill="#8C9196" d="M87.2,24.4c0.8,0.4,1.8,0.5,2.6,0c0.8-0.4,1.2-1.2,1.3-2
				C89.4,22.4,88,23.2,87.2,24.4z"/>
		</g>
	</g>
	<path fill-rule="evenodd" clip-rule="evenodd" fill="#DADCE0" d="M96.9,86.6h-9.7V27.3c0-2.7,2.2-4.8,4.8-4.8h0
		c2.7,0,4.8,2.2,4.8,4.8V86.6z"/>
	<g>
		<path fill-rule="evenodd" clip-rule="evenodd" fill="#8C9196" d="M96.9,30l-2.2,3.1c-0.9,1.3-0.6,3.1,0.6,4l0,0
			c0.5,0.3,1,0.5,1.6,0.5C96.9,37.6,96.9,30,96.9,30z"/>
	</g>
	<g>
		<path fill="#F1F3F4" d="M94,86.6V22.9c-0.2-0.1-0.4-0.2-0.6-0.2v63.9H94z"/>
		<path fill="#F1F3F4" d="M90.6,86.6V22.7c-0.2,0.1-0.4,0.1-0.6,0.2v63.7C90,86.6,90.6,86.6,90.6,86.6z"/>
	</g>
	<g>
		<path fill-rule="evenodd" clip-rule="evenodd" fill="#8C9196" d="M90.5,39.6l-3.4-3.7v9c1.1,0.3,2.3,0.1,3.1-0.7l0,0
			C91.6,43,91.7,41,90.5,39.6z"/>
	</g>
	<path fill-rule="evenodd" clip-rule="evenodd" fill="#DADCE0" d="M95.4,36.3L95.4,36.3c-1.3-0.9-1.6-2.7-0.6-4l3.3-4.6
		c0.9-1.3,2.7-1.6,4-0.6l0,0c1.3,0.9,1.6,2.7,0.6,4l-3.3,4.6C98.4,37,96.6,37.2,95.4,36.3z"/>
	<path fill="#E6EBF0" d="M95.4,36.3L95.4,36.3c0.1,0.1,0.2,0.2,0.3,0.2l6.5-9.2c-0.1-0.1-0.2-0.2-0.3-0.2c-0.1,0-0.1-0.1-0.2-0.1
		l-6.6,9.2C95.3,36.3,95.3,36.3,95.4,36.3z"/>
	<path fill-rule="evenodd" clip-rule="evenodd" fill="#DADCE0" d="M90.3,43.2L90.3,43.2c1.3-1.2,1.4-3.2,0.2-4.6l-8.2-9.1
		c-1.2-1.3-3.2-1.4-4.6-0.2l0,0c-1.3,1.2-1.4,3.2-0.2,4.6l8.2,9.1C86.9,44.3,89,44.4,90.3,43.2z"/>
	<path fill="#F1F3F4" d="M77.7,29.3c-0.1,0.1-0.3,0.3-0.4,0.4l12.8,13.6c0.1-0.1,0.2-0.1,0.2-0.2l0,0c0.1-0.1,0.1-0.1,0.2-0.2
		L77.7,29.3C77.7,29.3,77.7,29.3,77.7,29.3L77.7,29.3z"/>
	<g>
		<g>
			<path fill="#8C9196" d="M143.8,71.4c-0.1,0-0.1,0-0.2,0c-0.1-0.1-0.2-0.3-0.1-0.4l1.1-1.7c0.1-0.1,0.3-0.2,0.4-0.1
				c0.1,0.1,0.2,0.3,0.1,0.4l-1.1,1.7C144,71.3,143.9,71.4,143.8,71.4z"/>
		</g>
		<g>
			<path fill="#8C9196" d="M126,86.5c-0.1,0-0.2-0.1-0.3-0.2c0-0.1,0-0.3,0.2-0.3l1.2-0.4c0.1,0,0.3,0,0.3,0.2c0,0.1,0,0.3-0.2,0.3
				L126,86.5C126,86.5,126,86.5,126,86.5z"/>
		</g>
		<g>
			<path fill="#8C9196" d="M149.5,80.6c-0.1,0-0.3-0.1-0.3-0.2c0-0.2,0.1-0.3,0.2-0.3l1.6-0.1c0.2,0,0.3,0.1,0.3,0.2
				s-0.1,0.3-0.2,0.3L149.5,80.6C149.5,80.6,149.5,80.6,149.5,80.6z"/>
		</g>
		<g>
			<path fill="#8C9196" d="M132.7,71.4c-0.1,0-0.2,0-0.2-0.1l-1-1.1c-0.1-0.1-0.1-0.3,0-0.4c0.1-0.1,0.3-0.1,0.4,0l1,1.1
				c0.1,0.1,0.1,0.3,0,0.4C132.9,71.3,132.8,71.4,132.7,71.4z"/>
		</g>
		<circle fill-rule="evenodd" clip-rule="evenodd" fill="#FFFFFF" cx="138.3" cy="82" r="12.3"/>
		<path fill="#DADCE0" d="M146.4,79c1.6,0.5,3.1,1.4,4.2,2.8c0-0.3,0-0.6,0-0.8c-1.1-1.1-2.4-1.9-3.9-2.4c0.4-0.8,0.7-1.8,0.8-2.7
			c0.1-0.6,0.1-1.3,0-1.9c-0.2-0.2-0.4-0.4-0.6-0.6c0.1,0.8,0.2,1.6,0,2.4c-0.1,0.9-0.4,1.8-0.8,2.7c-0.3-0.1-0.7-0.1-1-0.2
			c-1.4-0.2-2.9,0-4.2,0.5c0.1-0.8,0.1-1.5,0.1-2.3c-0.1-1.2-0.5-2.4-1.1-3.5c1-0.9,2.3-1.6,3.7-1.9c-0.2-0.1-0.5-0.2-0.8-0.3
			c-1.2,0.4-2.3,1-3.2,1.8c-0.5-0.8-1.1-1.5-1.9-2.1c-0.2-0.2-0.4-0.3-0.7-0.5c-0.3,0-0.5,0.1-0.8,0.1c0.4,0.2,0.8,0.5,1.1,0.8
			c0.7,0.6,1.3,1.3,1.8,2.1c-1.4,1.4-2.4,3.2-2.6,5.3c-1.2-0.9-2.6-1.4-4.1-1.6c-0.7-0.1-1.5-0.1-2.2,0c-0.3-1.2-0.2-2.5,0-3.8
			c-0.2,0.2-0.4,0.4-0.6,0.6c-0.2,1.1-0.1,2.2,0.1,3.2c-1,0.2-2,0.5-2.9,1.1c-0.1,0.3-0.2,0.5-0.3,0.8c1-0.7,2.1-1.2,3.3-1.4
			c0.3,1.1,0.8,2.2,1.6,3.1c0.4,0.5,0.7,0.9,1.2,1.2c-0.8,0.5-1.6,1.2-2.2,2c-0.5,0.6-0.9,1.2-1.2,1.8c-1.2-0.4-2.3-1.1-3.1-2
			c0,0.3,0.1,0.5,0.1,0.8c0.1,0.1,0.2,0.1,0.2,0.2c0.8,0.6,1.7,1.1,2.6,1.5c-0.5,1.1-0.7,2.4-0.6,3.6c0.2,0.2,0.4,0.5,0.6,0.7
			c0,0,0-0.1,0-0.1c-0.1-1.4,0.1-2.8,0.6-4c0.8,0.2,1.7,0.4,2.6,0.4c0.3,0,0.6,0,0.9,0c0.8-0.1,1.5-0.2,2.2-0.5
			c-0.3,2.2,0.1,4.4,1.4,6.3c0,0,0,0,0,0c-0.8,0.7-1.8,1.1-2.8,1.4c0.3,0.1,0.5,0.2,0.8,0.3c0.8-0.3,1.6-0.7,2.3-1.3
			c0,0,0.1,0.1,0.1,0.1c0.5,0.7,1.1,1.3,1.8,1.7c0.3,0,0.6,0,0.8-0.1c-0.8-0.5-1.6-1.2-2.2-2c0,0-0.1-0.1-0.1-0.1
			c1.7-1.4,2.7-3.4,3-5.6c0,0,0,0,0,0c1.5,1.1,3.3,1.7,5.2,1.7c0.1,0,0.2,0,0.2,0c0,0,0,0,0,0c0.1,1.4-0.1,2.8-0.6,4.1
			c0.3-0.2,0.5-0.4,0.8-0.5c0.4-1.1,0.5-2.3,0.4-3.6c0.1,0,0.1,0,0.2,0c1.1-0.1,2.1-0.4,3-0.8c0.1-0.2,0.2-0.5,0.3-0.8
			c-1,0.6-2.1,1-3.4,1.1c-0.1,0-0.1,0-0.2,0c-0.3-2.1-1.4-3.9-2.9-5.3c0.3-0.2,0.5-0.4,0.8-0.6C145,81,145.8,80,146.4,79z
			 M139.5,73.3c0.5,1,0.8,2,1,3.1c0.1,0.9,0,1.7-0.1,2.5c-0.6,0.3-1.3,0.7-1.8,1.1c0,0-0.1-0.1-0.1-0.1c-0.4-0.5-0.8-1-1.3-1.4
			C137.3,76.5,138.1,74.6,139.5,73.3z M137.4,83c-0.2,0-0.5-0.1-0.7-0.1c0.1-0.2,0.3-0.4,0.4-0.6C137.2,82.5,137.3,82.8,137.4,83z
			 M137.2,80.6c0.1,0,0.1,0,0.2,0c0.2,0,0.3,0,0.5,0c-0.2,0.2-0.4,0.4-0.5,0.6C137.2,81,137.2,80.8,137.2,80.6z M137.7,83.6
			c-0.5,0.5-1.1,0.9-1.8,1.2c0.1-0.5,0.3-1,0.5-1.4C136.8,83.5,137.2,83.5,137.7,83.6z M137.4,81.8c0.3-0.4,0.6-0.7,1-1
			c0.3,0.4,0.5,0.8,0.7,1.2c-0.3,0.4-0.6,0.8-0.9,1.1c-0.1,0-0.1,0-0.2,0C137.8,82.7,137.6,82.2,137.4,81.8z M139,82.9
			c0.1-0.1,0.2-0.3,0.3-0.4c0.1,0.2,0.1,0.3,0.2,0.5c-0.2,0-0.4,0-0.6,0C138.9,83,138.9,83,139,82.9z M139.4,81.4
			c-0.1-0.2-0.2-0.5-0.4-0.7c0.2,0,0.4,0.1,0.6,0.2C139.6,81.1,139.5,81.3,139.4,81.4z M139.1,80.2c0.4-0.3,0.7-0.5,1.1-0.7
			c-0.1,0.3-0.2,0.6-0.3,0.9C139.6,80.4,139.3,80.3,139.1,80.2z M137.9,80.1c-0.3,0-0.6,0-0.8,0c0,0,0,0,0,0c0-0.3,0-0.6,0-0.9
			C137.4,79.4,137.7,79.7,137.9,80.1z M136.6,80.6c0.1,0.4,0.1,0.7,0.2,1.1c-0.3,0.4-0.5,0.7-0.7,1.1c-0.9-0.3-1.8-0.7-2.6-1.3
			c0.9-0.5,1.9-0.7,2.9-0.8C136.5,80.6,136.6,80.6,136.6,80.6z M131.9,79.8c-0.7-0.9-1.2-1.9-1.5-2.9c0.3,0,0.6-0.1,0.9-0.1
			c0.4,0,0.7,0,1.1,0.1c1.5,0.2,3,0.8,4.1,1.7c0,0.5,0,0.9,0,1.4c-0.1,0-0.1,0-0.2,0c-1.2,0.1-2.3,0.5-3.3,1
			C132.6,80.7,132.2,80.3,131.9,79.8z M132.9,85.6c-0.3,0-0.6,0-0.9,0c-0.8,0-1.6-0.1-2.4-0.3c0.3-0.6,0.6-1.2,1.1-1.7
			c0.6-0.8,1.4-1.4,2.3-1.9c0.9,0.7,1.9,1.2,2.9,1.5c-0.3,0.6-0.5,1.2-0.6,1.8C134.5,85.4,133.8,85.6,132.9,85.6z M139.7,86.4
			c-0.3,2.1-1.2,3.9-2.8,5.3c-1.2-1.9-1.6-4.1-1.2-6.2c0.8-0.4,1.5-0.8,2.2-1.4c0.5,0.8,1.1,1.5,1.8,2.1
			C139.7,86.2,139.7,86.3,139.7,86.4z M138.3,83.7C138.3,83.6,138.4,83.6,138.3,83.7c0.1-0.1,0.2-0.1,0.2-0.1c0.4,0,0.7,0,1.1-0.1
			c0.1,0.6,0.2,1.2,0.2,1.9C139.2,84.9,138.7,84.3,138.3,83.7z M139.7,82c0.2-0.3,0.4-0.6,0.5-0.9c0.8,0.3,1.5,0.7,2.1,1.1
			c-0.7,0.4-1.5,0.6-2.3,0.8C139.9,82.6,139.8,82.3,139.7,82z M145.6,87.6c-1.9,0-3.8-0.6-5.3-1.8c0-0.8,0-1.6-0.2-2.4
			c0.9-0.2,1.8-0.5,2.6-0.9C144.2,83.8,145.3,85.6,145.6,87.6z M142.8,81.9c-0.7-0.6-1.6-1-2.4-1.3c0.2-0.4,0.3-0.9,0.4-1.3
			c1-0.4,2.1-0.6,3.2-0.6c0.4,0,0.7,0,1.1,0.1c0.3,0,0.5,0.1,0.8,0.1c-0.5,1-1.3,1.8-2.2,2.5C143.4,81.6,143.1,81.8,142.8,81.9z"/>
		<circle fill="none" cx="138.3" cy="82" r="12.3"/>
		<g>
			<path fill="#8C9196" d="M132.4,94.3c0,0-0.1,0-0.1,0c-0.1-0.1-0.2-0.2-0.1-0.4l0.7-1.2c0.1-0.1,0.2-0.2,0.4-0.1
				c0.1,0.1,0.2,0.2,0.1,0.4l-0.7,1.2C132.6,94.2,132.5,94.3,132.4,94.3z"/>
		</g>
		<g>
			<path fill="#8C9196" d="M146.7,93.3c-0.1,0-0.1,0-0.2-0.1l-1.3-1c-0.1-0.1-0.1-0.3-0.1-0.4c0.1-0.1,0.3-0.1,0.4-0.1l1.3,1
				c0.1,0.1,0.1,0.3,0.1,0.4C146.9,93.2,146.8,93.3,146.7,93.3z"/>
		</g>
	</g>
	<path fill="#F1F3F4" d="M109.7,54.4C109.6,54.4,109.6,54.4,109.7,54.4c-0.1,0-0.2,0-0.2,0.1c0,0-0.1,0-0.3,0.1l0,0
		c-0.2,0.8-0.8,1.5-1.6,2c-0.5,0.3-1.1,0.5-1.7,0.5c-0.1,0-0.2,0-0.3,0l0,0l0,0c0,0-0.3,0.3-0.3,0.3c0,0-0.2,0.2-0.2,0.2l0,0
		c0.2,0,0.5,0.1,0.7,0.1c0.7,0,1.4-0.2,2-0.5C108.9,56.5,109.5,55.5,109.7,54.4L109.7,54.4L109.7,54.4L109.7,54.4L109.7,54.4
		C109.8,54.4,109.7,54.4,109.7,54.4z"/>
</g>
</svg>