<svg xmlns="http://www.w3.org/2000/svg" width="120" height="120" viewBox="0 0 120 120"><circle fill="#EFF0F2" cx="60" cy="60" r="57"/><path fill="#CED0D5" d="M108.106 62.817L59.199 83.319v33.661c.268.003.532.02.801.02 20.233 0 37.991-10.552 48.106-26.443v-27.74z"/><linearGradient id="a" gradientUnits="userSpaceOnUse" x1="55.364" y1="112.41" x2="110.734" y2="65.949"><stop offset="0" style="stop-color:#696C71;stop-opacity:0.3"/><stop offset=".03" style="stop-color:#6E7176;stop-opacity:0.2947"/><stop offset=".557" style="stop-color:#C1C3C5;stop-opacity:0.2"/><stop offset=".802" style="stop-color:#E6E7E7;stop-opacity:0.0893"/><stop offset="1" style="stop-color:#FFFFFF;stop-opacity:0"/></linearGradient><path fill="url(#a)" d="M108.106 62.817L59.199 83.319v33.661c.268.003.532.02.801.02 20.233 0 37.991-10.552 48.106-26.443v-27.74z"/><path fill="#DFE1E5" d="M19.464 83.802l66.097 27.142a57.157 57.157 0 0 0 15.265-11.185L41.373 75.345l-21.909 8.457z"/><path fill="#DFE1E5" d="M108.126 62.812l-19.505-7.973-69.157 28.963 19.505 7.974z"/><ellipse fill="#BABFC5" cx="43" cy="77.5" rx="5" ry="2"/><ellipse fill="#BABFC5" cx="30" cy="82.866" rx="5" ry="2"/><path fill="#CED0D5" d="M25.5 52.866h7v30h-7zM38.5 58.5h7v19h-7z"/><ellipse fill="#CED0D5" cx="29" cy="82.866" rx="3.5" ry="1.5"/><ellipse fill="#CED0D5" cx="42" cy="77.5" rx="3.5" ry="1.5"/><path fill="#CED0D5" d="M73.188 73.444l-53.724-22V40.802l53.724 22z"/><linearGradient id="b" gradientUnits="userSpaceOnUse" x1="44.223" y1="62.902" x2="48.429" y2="51.345"><stop offset="0" style="stop-color:#696C71;stop-opacity:0.2"/><stop offset=".03" style="stop-color:#6E7176;stop-opacity:0.1947"/><stop offset=".557" style="stop-color:#C1C3C5;stop-opacity:0.1"/><stop offset=".802" style="stop-color:#E6E7E7;stop-opacity:0.0447"/><stop offset="1" style="stop-color:#FFFFFF;stop-opacity:0"/></linearGradient><path fill="url(#b)" d="M73.188 73.444l-53.724-22V40.802l53.724 22z"/><path fill="#DFE1E5" d="M92.42 56.188l-53.723-22-19.233 6.614 53.724 22z"/><path fill="#DFE1E5" d="M108.126 62.812l-19.505-7.973-36.472 15.275 7.442 13.025z"/><g opacity=".4"><radialGradient id="c" cx="3.578" cy="94.432" r="2.693" gradientTransform="matrix(1.4286 0 0 .5833 28.466 -15.853)" gradientUnits="userSpaceOnUse"><stop offset="0" style="stop-color:#696C71;stop-opacity:0.9"/><stop offset=".269" style="stop-color:#6C6E73;stop-opacity:0.6583"/><stop offset=".43" style="stop-color:#74777B;stop-opacity:0.5129"/><stop offset=".563" style="stop-color:#828589;stop-opacity:0.393"/><stop offset=".681" style="stop-color:#97999C;stop-opacity:0.287"/><stop offset=".789" style="stop-color:#B1B2B5;stop-opacity:0.1901"/><stop offset=".889" style="stop-color:#D1D2D4;stop-opacity:0.0998"/><stop offset=".982" style="stop-color:#F7F7F7;stop-opacity:0.0163"/><stop offset="1" style="stop-color:#FFFFFF;stop-opacity:0"/></radialGradient><ellipse fill="url(#c)" cx="33.578" cy="39.232" rx="5" ry="2.5"/></g><path fill="#CE4736" d="M33.548 19.209c-3.87 0-7 3.13-7 7 0 5.25 7 13 7 13s7-7.75 7-13c0-3.87-3.13-7-7-7z"/><linearGradient id="d" gradientUnits="userSpaceOnUse" x1="33.548" y1="39.209" x2="33.548" y2="19.209"><stop offset="0" style="stop-color:#5F0F08;stop-opacity:0.35"/><stop offset=".142" style="stop-color:#771B12;stop-opacity:0.4426"/><stop offset=".397" style="stop-color:#9D2E22;stop-opacity:0.6077"/><stop offset=".632" style="stop-color:#B83C2D;stop-opacity:0.761"/><stop offset=".841" style="stop-color:#C84434;stop-opacity:0.8965"/><stop offset="1" style="stop-color:#CE4736"/></linearGradient><path fill="url(#d)" d="M33.548 19.209c-3.87 0-7 3.13-7 7 0 5.25 7 13 7 13s7-7.75 7-13c0-3.87-3.13-7-7-7z"/><circle fill="#842118" cx="33.548" cy="26.209" r="2.5"/><g fill="#FFF"><path d="M47.186 43.932l-7.282-2.982-2.607.897 7.282 2.982zM61.752 49.908l-7.282-2.982-2.606.897 7.281 2.982zM76.322 55.891l-7.282-2.982-2.607.896 7.282 2.982zM63.037 75.095l-7.19 3.196-2.633-.819 7.191-3.196zM77.423 68.685l-7.19 3.196-2.633-.819 7.191-3.196zM83.606 58.885L81 59.781l6.231 2.552-5.247 2.324 2.632.819 7.191-3.196zM49.313 85.749l-5.379-2.148 4.72-2.101-2.633-.819-6.858 3.068 7.539 2.884zM63.851 91.794l-7.268-3.017-2.611.885 7.268 3.016zM78.391 97.846l-7.267-3.017-2.611.884 7.267 3.017zM92.929 103.891l-7.267-3.016-2.611.884 7.267 3.017z"/></g><path fill="#CED0D5" d="M19.464 83.802v16.261C29.797 110.517 44.14 117 60 117a56.74 56.74 0 0 0 25.561-6.056L19.464 83.802z"/><g><linearGradient id="e" gradientUnits="userSpaceOnUse" x1="45.901" y1="115.54" x2="53.008" y2="96.011"><stop offset="0" style="stop-color:#696C71;stop-opacity:0.2"/><stop offset=".03" style="stop-color:#6E7176;stop-opacity:0.1973"/><stop offset=".557" style="stop-color:#C1C3C5;stop-opacity:0.15"/><stop offset=".802" style="stop-color:#E6E7E7;stop-opacity:0.067"/><stop offset="1" style="stop-color:#FFFFFF;stop-opacity:0"/></linearGradient><path fill="url(#e)" d="M19.464 83.802v16.261C29.797 110.517 44.14 117 60 117a56.74 56.74 0 0 0 25.561-6.056L19.464 83.802z"/></g></svg>