<?xml version="1.0" encoding="utf-8"?>
<svg version="1.0" id="Layer_1" xmlns="http://www.w3.org/2000/svg" xmlns:xlink="http://www.w3.org/1999/xlink" x="0px" y="0px"
  width="100px" height="100px" viewBox="0 0 100 100" enable-background="new 0 0 100 100" xml:space="preserve">
<rect x="44.77" y="34.44" fill="#E8EAED" width="1" height="35.58"/>
<path fill="#00AA4C" d="M50.99,34.95l-5.66,4.43l-5.66-4.43c-1-0.79-2.24-1.21-3.52-1.21h-5.92c-1.51,0-2.74-1.23-2.74-2.74V2.74
 c0-1.51,1.23-2.74,2.74-2.74h30.2c1.51,0,2.74,1.23,2.74,2.74V31c0,1.51-1.23,2.74-2.74,2.74h-5.91
 C53.24,33.74,52,34.17,50.99,34.95z"/>
<path fill="#00AA4C" d="M47.38,42.14C47.38,42.14,47.38,42.14,47.38,42.14l-4.12-0.01c-0.36,0-0.65-0.29-0.65-0.65
 c0-0.36,0.29-0.65,0.65-0.65c0,0,0,0,0,0l4.11,0.01c0.36,0,0.65,0.29,0.65,0.65C48.03,41.85,47.74,42.14,47.38,42.14z"/>
<circle fill="#00AA4C" cx="45.26" cy="39.61" r="1.88"/>
<linearGradient id="SVGID_1_" gradientUnits="userSpaceOnUse" x1="44.5702" y1="18.4709" x2="25.8126" y2="21.7784">
 <stop  offset="0" style="stop-color:#0DAA4C"/>
 <stop  offset="1" style="stop-color:#0B9B45"/>
</linearGradient>
<path fill-rule="evenodd" clip-rule="evenodd" fill="url(#SVGID_1_)" d="M42.69,33.29c-1-0.79-2.24-1.21-3.52-1.21h-5.92
 c-1.51,0-2.74-1.23-2.74-2.74V1.08c0-0.38,0.08-0.75,0.22-1.08h-0.51c-1.51,0-2.74,1.23-2.74,2.74V31c0,1.51,1.23,2.74,2.74,2.74
 h5.92c1.28,0,2.51,0.43,3.52,1.21l5.67,4.43l2.57-2.01L42.69,33.29z"/>
<path fill="#00AA4C" d="M22.54,71.92c-0.15,0-0.3-0.03-0.44-0.1c-0.5-0.24-0.7-0.84-0.46-1.34l1.6-3.25
 c0.24-0.49,0.84-0.7,1.34-0.46c0.5,0.24,0.7,0.84,0.46,1.34l-1.6,3.25C23.27,71.71,22.91,71.92,22.54,71.92z"/>
<circle fill="#FFB800" cx="78.73" cy="69.63" r="1.4"/>
<circle opacity="0.4" fill="#E6EFFD" enable-background="new    " cx="60.35" cy="25.68" r="0.76"/>
<rect x="19.55" y="70.02" fill="#E7E9EC" width="46.46" height="29.98"/>
<polygon fill="#D9DBDF" points="66.02,82.57 45.13,82.57 45.13,70.02 40.25,70.02 40.25,82.57 19.55,82.57 19.55,87.44 40.25,87.44 
 40.25,99.99 45.13,99.99 45.13,87.44 66.02,87.44 "/>
<path fill="#BBC0C6" d="M47.68,86.77c0.97,0,1.76-0.79,1.76-1.76s-0.79-1.76-1.76-1.76c-0.03,0-0.06,0.01-0.1,0.01
 c-0.06-0.16-0.12-0.32-0.19-0.47c0.02-0.02,0.05-0.04,0.07-0.06c0.69-0.69,0.69-1.8,0-2.49c-0.69-0.69-1.8-0.69-2.49,0
 c-0.02,0.02-0.04,0.05-0.06,0.07c-0.15-0.07-0.31-0.13-0.47-0.19c0-0.03,0.01-0.06,0.01-0.1c0-0.97-0.79-1.76-1.76-1.76
 s-1.76,0.79-1.76,1.76c0,0.03,0.01,0.06,0.01,0.1c-0.16,0.06-0.32,0.12-0.47,0.19c-0.02-0.02-0.04-0.05-0.06-0.07
 c-0.69-0.69-1.8-0.69-2.49,0c-0.69,0.69-0.69,1.8,0,2.49c0.02,0.02,0.05,0.04,0.07,0.06c-0.07,0.15-0.13,0.31-0.19,0.47
 c-0.03,0-0.06-0.01-0.1-0.01c-0.97,0-1.76,0.79-1.76,1.76s0.79,1.76,1.76,1.76c0.03,0,0.06-0.01,0.1-0.01
 c0.06,0.16,0.12,0.32,0.19,0.47c-0.02,0.02-0.05,0.04-0.07,0.06c-0.69,0.69-0.69,1.8,0,2.49c0.69,0.69,1.8,0.69,2.49,0
 c0.02-0.02,0.04-0.05,0.06-0.07c0.15,0.07,0.31,0.13,0.47,0.19c0,0.03-0.01,0.06-0.01,0.1c0,0.97,0.79,1.76,1.76,1.76
 s1.76-0.79,1.76-1.76c0-0.03-0.01-0.06-0.01-0.1c0.16-0.06,0.32-0.12,0.47-0.19c0.02,0.02,0.04,0.05,0.06,0.07
 c0.69,0.69,1.8,0.69,2.49,0c0.69-0.69,0.69-1.8,0-2.49c-0.02-0.02-0.05-0.04-0.07-0.06c0.07-0.15,0.13-0.31,0.19-0.47
 C47.61,86.76,47.64,86.77,47.68,86.77z"/>
<circle fill="#D9DBDF" cx="42.69" cy="85" r="3.05"/>
<rect x="66.01" y="70.02" fill="#F0F2F3" width="12.54" height="29.98"/>
<polygon fill="#E7E9EC" points="78.54,82.57 74.1,82.57 74.1,70.02 70.45,70.02 70.45,82.57 66.01,82.57 66.01,87.44 70.45,87.44 
 70.45,99.99 74.1,99.99 74.1,87.44 78.54,87.44 "/>
<polygon fill="#EEEFF1" points="95.74,91.2 78.54,91.2 66.01,70.02 83.2,70.02 "/>
<polygon fill="#D9DBDF" points="7.02,91.2 19.55,91.2 19.55,70.02 "/>
<rect x="30.33" y="64.6" fill="#E8EAED" width="1" height="5.41"/>
<path fill="#5286EC" d="M30.83,32.72c-5.79,0-10.49,4.69-10.49,10.49c0,1.97,0.55,3.81,1.5,5.38h-0.02l9,14.52l8.58-13.89
 c1.2-1.7,1.9-3.77,1.9-6.01C41.32,37.42,36.63,32.72,30.83,32.72z"/>
<path fill="#5286EC" d="M32.89,65.25L32.89,65.25l-4.12-0.01c-0.36,0-0.65-0.29-0.65-0.65s0.29-0.65,0.65-0.65l0,0l4.11,0.01
 c0.36,0,0.65,0.29,0.65,0.65C33.54,64.96,33.25,65.25,32.89,65.25z"/>
<circle fill="#5286EC" cx="30.77" cy="62.73" r="1.87"/>
<path fill="#FFFFFF" d="M30.83,48.2c-2.73,0-4.96-2.22-4.96-4.96s2.22-4.96,4.96-4.96s4.96,2.22,4.96,4.96S33.57,48.2,30.83,48.2z
  M30.83,39.79c-1.91,0-3.46,1.55-3.46,3.46s1.55,3.46,3.46,3.46s3.46-1.55,3.46-3.46S32.74,39.79,30.83,39.79z"/>
<path opacity="0.4" fill="#E6EFFD" enable-background="new    " d="M39.19,44c-0.41,0-0.75-0.34-0.75-0.75
 c0-4.2-3.41-7.61-7.61-7.61c-0.41,0-0.75-0.34-0.75-0.75s0.34-0.75,0.75-0.75c5.02,0,9.11,4.09,9.11,9.11
 C39.94,43.66,39.61,44,39.19,44z"/>
<circle opacity="0.4" fill="#E6EFFD" enable-background="new    " cx="37.62" cy="48.27" r="0.82"/>
<path opacity="0.4" fill="#E6EFFD" enable-background="new    " d="M60.35,23.48c-0.41,0-0.75-0.34-0.75-0.75V4.08
 c0-0.29-0.23-0.52-0.52-0.52h-3.74c-0.41,0-0.75-0.34-0.75-0.75s0.34-0.75,0.75-0.75h3.74c1.11,0,2.02,0.91,2.02,2.02v18.65
 C61.1,23.14,60.76,23.48,60.35,23.48z"/>
<path fill-rule="evenodd" clip-rule="evenodd" fill="#FFFFFF" d="M45.88,8.42l1.78,3.54c0.62,1.23,1.64,2.21,2.89,2.77l3.52,1.58
 c0.49,0.22,0.5,0.92,0.01,1.15l-3.63,1.7c-1.2,0.56-2.17,1.5-2.78,2.68l-1.8,3.51c-0.23,0.46-0.89,0.46-1.12,0l-1.8-3.5
 c-0.61-1.18-1.59-2.13-2.8-2.69l-3.67-1.7c-0.49-0.23-0.49-0.93,0.01-1.15l3.57-1.58c1.26-0.56,2.3-1.54,2.92-2.78l1.77-3.52
 C44.99,7.96,45.65,7.96,45.88,8.42z"/>
<path fill="#FFB800" d="M82.69,43.09c0.67,0,1.23-0.54,1.24-1.22c0-0.09,0-0.18,0-0.27c0-9.51-7.71-16.55-17.22-16.55
 S49.49,32.1,49.49,41.61c0,0.09,0,0.18,0,0.27c0.01,0.67,0.56,1.22,1.24,1.22H82.69z"/>
<rect x="66.13" y="55.23" fill="#E8EAED" width="1" height="14.79"/>
<path fill="#E94335" d="M80.82,46.63H52.56c-1.68,0-3.05,1.36-3.05,3.05v1.43c0,1.68,1.36,3.05,3.05,3.05h28.26
 c1.68,0,3.05-1.36,3.05-3.05v-1.43C83.87,48,82.5,46.63,80.82,46.63z"/>
<path fill="#FFB800" d="M82.5,47.02l-31.53-0.08c-0.65,0-1.18-0.53-1.18-1.18l0,0c0-0.65,0.53-1.18,1.18-1.18l31.53,0.08
 c0.65,0,1.18,0.53,1.18,1.18v0C83.68,46.49,83.15,47.02,82.5,47.02z"/>
<path fill="#FFB800" d="M82.01,58.17H51.66c-0.91,0-1.64-0.73-1.64-1.64v-0.77c0-0.91,0.73-1.64,1.64-1.64h30.35
 c0.91,0,1.64,0.73,1.64,1.64v0.77C83.65,57.44,82.92,58.17,82.01,58.17z"/>
<ellipse transform="matrix(0.7071 -0.7071 0.7071 0.7071 -15.8069 74.1392)" opacity="0.7" fill="#FFF6DD" cx="81.59" cy="56.15" rx="0.68" ry="0.68"/>
<path fill="#FFB800" d="M68.91,61.02C68.91,61.02,68.91,61.02,68.91,61.02L64.47,61c-0.36,0-0.65-0.29-0.65-0.65
 s0.29-0.65,0.65-0.65c0,0,0,0,0,0l4.44,0.01c0.36,0,0.65,0.29,0.65,0.65S69.27,61.02,68.91,61.02z"/>
<circle fill="#FFB800" cx="66.63" cy="58.76" r="2.03"/>
<path opacity="0.7" fill="#FFF6DD" d="M81.19,37.86c-0.31,0-0.61-0.2-0.71-0.51c-1.39-4.13-4.66-7.29-8.96-8.69
 c-0.39-0.13-0.61-0.55-0.48-0.94c0.13-0.39,0.55-0.61,0.95-0.48c4.76,1.54,8.38,5.06,9.92,9.64c0.13,0.39-0.08,0.82-0.47,0.95
 C81.35,37.85,81.27,37.86,81.19,37.86z"/>
<linearGradient id="SVGID_2_" gradientUnits="userSpaceOnUse" x1="55.1612" y1="44.7815" x2="63.151" y2="22.8296">
 <stop  offset="0" style="stop-color:#FFA000;stop-opacity:0.7"/>
 <stop  offset="0.1377" style="stop-color:#FFA600;stop-opacity:0.7"/>
 <stop  offset="0.5855" style="stop-color:#FFB300;stop-opacity:0.7"/>
 <stop  offset="0.9987" style="stop-color:#FFB700;stop-opacity:0.7"/>
</linearGradient>
<path fill="url(#SVGID_2_)" d="M70.13,25.37c-1.11-0.21-2.25-0.31-3.42-0.31c-9.51,0-17.22,7.04-17.22,16.55c0,0.09,0,0.18,0,0.27
 c0.01,0.67,0.56,1.22,1.24,1.22h3.79C55.14,34.26,61.64,27.05,70.13,25.37z"/>
<ellipse transform="matrix(0.7071 -0.7071 0.7071 0.7071 -2.3303 52.1861)" opacity="0.7" fill="#FFF6DD" cx="61.83" cy="28.91" rx="0.95" ry="0.95"/>
<ellipse transform="matrix(0.7071 -0.7071 0.7071 0.7071 -4.7744 50.7218)" opacity="0.7" fill="#FFF6DD" cx="58.84" cy="31.12" rx="0.68" ry="0.68"/>
<path fill="#34A753" d="M77.09,45.56c-1.7,0-2.58-0.85-3.29-1.53c-0.61-0.58-1.01-0.97-1.9-0.97s-1.29,0.38-1.9,0.97
 c-0.71,0.68-1.59,1.53-3.29,1.53c-1.7,0-2.58-0.85-3.29-1.53c-0.61-0.58-1.01-0.97-1.9-0.97s-1.29,0.38-1.9,0.97
 c-0.71,0.68-1.59,1.53-3.29,1.53s-2.58-0.85-3.29-1.53c-0.61-0.58-1.01-0.97-1.9-0.97c-0.55,0-1-0.45-1-1s0.45-1,1-1
 c1.7,0,2.58,0.85,3.29,1.53c0.61,0.58,1.01,0.97,1.9,0.97c0.89,0,1.29-0.38,1.9-0.97c0.71-0.68,1.59-1.53,3.29-1.53
 c1.7,0,2.58,0.85,3.29,1.53c0.61,0.58,1.01,0.97,1.9,0.97s1.29-0.38,1.9-0.97c0.71-0.68,1.59-1.53,3.29-1.53s2.58,0.85,3.29,1.53
 c0.61,0.58,1.01,0.97,1.9,0.97s1.29-0.38,1.9-0.97c0.71-0.68,1.59-1.53,3.29-1.53c0.55,0,1,0.45,1,1s-0.45,1-1,1
 c-0.89,0-1.29,0.38-1.9,0.97C79.67,44.72,78.79,45.56,77.09,45.56z"/>
<path fill="#5286EC" d="M88.29,68.87c-0.32,0-0.64-0.16-0.83-0.45l-2.28-3.41c-0.31-0.46-0.18-1.08,0.28-1.39
 c0.46-0.31,1.08-0.18,1.39,0.28l2.28,3.41c0.31,0.46,0.18,1.08-0.28,1.39C88.67,68.81,88.48,68.87,88.29,68.87z"/>
<path fill="#E94335" d="M97.2,85.98c-0.17,0-0.34-0.04-0.5-0.13c-0.48-0.27-0.65-0.88-0.37-1.36l1.79-3.15
 c0.27-0.48,0.88-0.65,1.36-0.37c0.48,0.27,0.65,0.88,0.37,1.36l-1.79,3.15C97.89,85.8,97.55,85.98,97.2,85.98z"/>
<circle fill="#00AA4C" cx="90.72" cy="75.1" r="1.4"/>
<path fill="#E94335" d="M14.29,68.67c-0.32,0-0.64-0.16-0.83-0.45l-2.01-3.01c-0.31-0.46-0.18-1.08,0.28-1.39
 c0.46-0.31,1.08-0.18,1.39,0.28l2.01,3.01c0.31,0.46,0.18,1.08-0.28,1.39C14.67,68.61,14.48,68.67,14.29,68.67z"/>
<circle fill="#5286EC" cx="8.15" cy="74.84" r="1.4"/>
<linearGradient id="SVGID_3_" gradientUnits="userSpaceOnUse" x1="1.8867" y1="98.521" x2="19.5544" y2="98.521">
 <stop  offset="0.1028" style="stop-color:#282D34;stop-opacity:0"/>
 <stop  offset="0.213" style="stop-color:#34383F;stop-opacity:0.0369"/>
 <stop  offset="0.4096" style="stop-color:#52575D;stop-opacity:0.1026"/>
 <stop  offset="0.6698" style="stop-color:#84888E;stop-opacity:0.1897"/>
 <stop  offset="0.9806" style="stop-color:#C8CCD1;stop-opacity:0.2937"/>
 <stop  offset="0.9994" style="stop-color:#CCD0D6;stop-opacity:0.3"/>
</linearGradient>
<rect x="1.89" y="97.05" opacity="0.15" fill="url(#SVGID_3_)" width="17.67" height="2.94"/>
</svg>
