<svg version="1.1" xmlns="http://www.w3.org/2000/svg" xmlns:xlink="http://www.w3.org/1999/xlink" x="0px" y="0px" width="320px" height="140px" viewBox="0 0 320 140" enable-background="new 0 0 320 140" xml:space="preserve"><linearGradient id="a" gradientUnits="userSpaceOnUse" x1="160" y1="135" x2="160" y2="75"><stop offset="0" style="stop-color:#FFFFFF;stop-opacity:0"/><stop offset="0.5603" style="stop-color:#EEF1F5;stop-opacity:0.5603"/><stop offset="1" style="stop-color:#E6EBF0"/></linearGradient><path fill="url(#a)" d="M7.35,135c0-3.4,2.84-7.96,4.32-10.84c5.24-10.19,14.18-20.56,23.45-27.49c11.18-8.35,24.57-9.44,36.22-1.19c25.72,18.19,35.13,32,48.93,22.59s20.7-19.45,20.7-19.45s21.33-36.39,45.17-18.82s34.51,33.25,54.58,30.11c0,0,7.53-2.51,15.68-8.78c8.16-6.27,23.84-12.55,36.39-2.51c12.55,10.04,21.96,26.35,19.45,36.39H7.35"/><linearGradient id="b" gradientUnits="userSpaceOnUse" x1="218.4638" y1="81.7216" x2="218.4638" y2="39.9497"><stop offset="0" style="stop-color:#FFFFFF;stop-opacity:0"/><stop offset="0.5408" style="stop-color:#EFF2F5;stop-opacity:0.5408"/><stop offset="1" style="stop-color:#E6EBF0"/></linearGradient><path fill="url(#b)" d="M214.71,52.04c0.51,0.9,4.75-16.12,20.27-11.2c0,0,14.51,5.26,7.3,20.27c0,0,3.05-2.38,6.79-1.36c0,0,4.41,0.08,6.02,5.77c0.91,3.19-0.7,6.88-3.22,8.83c-4.54,3.52-10.85,3.25-16.28,3.76c-11.58,1.07-23.05,3-34.69,3.42c-4.16,0.15-8.33,0.26-12.5,0.13c-1.48-0.04-5.38,0.33-6.52-0.95c-1.95-2.21,6.19-23.16,6.19-23.16s2.54-15.78,11.62-13.49C208.77,46.36,211.74,46.87,214.71,52.04z"/><linearGradient id="c" gradientUnits="userSpaceOnUse" x1="142.9978" y1="106.7281" x2="142.9978" y2="74.0247"><stop offset="0" style="stop-color:#FFFFFF;stop-opacity:0"/><stop offset="0.5408" style="stop-color:#EFF2F5;stop-opacity:0.5408"/><stop offset="1" style="stop-color:#E6EBF0"/></linearGradient><path fill="url(#c)" d="M95.44,100.6c0.12,1.15,2.79,8.78,61.28,5.17s23.36-12.71,23.77-12.71c0.41,0-20.62-9.38-20.67-9.4 c-0.46-0.21-1.2-2.12-1.49-2.55c-3.1-4.54-8.36-7.36-13.89-7.05c-4.9,0.28-13.27,4.32-9.62,10.47c-3.65-5.12-12.5-2.94-16.3,0.86 c-1.43,1.43-2.51,3.22-3.03,5.19c-0.15,0.56-0.96,5.27-0.11,5.37C115.38,95.95,94.71,93.47,95.44,100.6z"/><line fill="#0750CA" stroke="#0750CA" stroke-width="0.3861" stroke-miterlimit="10" x1="163.18" y1="121.2" x2="162.5" y2="105.5"/><g><linearGradient id="d" gradientUnits="userSpaceOnUse" x1="166.3047" y1="115.6629" x2="166.3047" y2="114.9077"><stop offset="0.7822" style="stop-color:#E94235"/><stop offset="1" style="stop-color:#E94235;stop-opacity:0.5"/></linearGradient><path fill="url(#d)" d="M166.03,114.91c0,0-0.21,0.76,0.14,0.76c0.34,0,0.48-0.69,0.48-0.69L166.03,114.91z"/><linearGradient id="e" gradientUnits="userSpaceOnUse" x1="149.2681" y1="125.5156" x2="151.9282" y2="125.5156"><stop offset="0" style="stop-color:#F5AE0C"/><stop offset="1" style="stop-color:#F5AE0C;stop-opacity:0.5"/></linearGradient><path fill="url(#e)" d="M150.65,124.66c0.14,0,0.96,1.92,0.96,2.2c0,0,0.62,0.96,0.14,1.17c0,0-0.89,0-1.03-0.82c0,0-0.96-1.37-0.89-1.92c0,0-0.62-0.82-0.55-1.17c0.07-0.34,0.55-0.82,0.55-0.82l0.34-0.27L150.65,124.66z"/><linearGradient id="f" gradientUnits="userSpaceOnUse" x1="157.7167" y1="127.2452" x2="157.7167" y2="121.3617"><stop offset="0" style="stop-color:#F5AE0C"/><stop offset="1" style="stop-color:#F5AE0C;stop-opacity:0.5"/></linearGradient><path fill="url(#f)" d="M157.92,121.36l-2.2,2.95c0,0,0.07,1.92,0,1.92s-0.41,0-0.48,0.27c-0.07,0.27,0.82,1.1,1.44,0.55l0.27-2.13c0,0,2.47-1.92,3.23-3.36L157.92,121.36z"/><linearGradient id="g" gradientUnits="userSpaceOnUse" x1="161.0026" y1="127.6141" x2="161.0026" y2="120.7437"><stop offset="0" style="stop-color:#F5AE0C"/><stop offset="1" style="stop-color:#F5AE0C;stop-opacity:0.5"/></linearGradient><path fill="url(#g)" d="M160.95,120.74c0,0.07,0.27,3.91,0.27,4.19c0,0,1.3,1.03,1.58,1.51c0.27,0.48,0.21,1.24-0.27,1.17c0,0-0.62-0.27-0.55-0.76c0,0-1.92-1.03-2.13-1.85c0,0-1.03-2.4-0.76-2.88C159.37,121.64,160.95,120.74,160.95,120.74z"/><linearGradient id="h" gradientUnits="userSpaceOnUse" x1="155.4993" y1="126.8222" x2="155.4993" y2="111.8333"><stop offset="0" style="stop-color:#F5AE0C"/><stop offset="0.9987" style="stop-color:#F5AE0C"/></linearGradient><path fill="url(#h)" d="M167.06,114.36c-0.14-0.48-0.82-0.48-0.89-0.48c-0.8,0-2.2-1.65-2.95-1.92c-0.76-0.27-1.17,0-1.17,0l-6.32,5.29c-6.66,0.07-7,1.37-7,1.37c-0.04,0.05-0.07,0.11-0.1,0.17c-0.8-0.51-4.12-2.62-4.29-2.98c0,0-0.62,0-0.34,0.55c0,0,0.57,0.66,1.35,1.4c0.94,0.91,2.18,1.96,3.07,2.14c0.08,0.84,0.6,1.62,0.86,1.97l0,0c-0.14,0.3,0.9,1.14,0.9,1.14s-0.48,0.48-0.69,0.69s-0.14,0.82-0.14,0.82s-0.76,0.96-0.82,1.24c-0.07,0.27-0.27,0-0.62,0.21c-0.34,0.21-0.27,0.48,0.48,0.82c0.76,0.34,2.61-1.85,2.61-1.85c2.05,0.23,2.52-1.08,2.57-1.97c1.69,0.42,4.18,0.29,5.74-0.23c1.85-0.62,3.16-5.15,3.23-5.56c0.07-0.41,0.55-1.03,1.3-1.58c0.76-0.55,2.27-0.41,2.27-0.41C167.33,115.39,167.06,114.36,167.06,114.36z"/><linearGradient id="i" gradientUnits="userSpaceOnUse" x1="160.5184" y1="119.094" x2="160.5184" y2="116.1121"><stop offset="0.7822" style="stop-color:#E94235"/><stop offset="1" style="stop-color:#E94235;stop-opacity:0.5"/></linearGradient><path fill="url(#i)" d="M159.9,116.14c0.23,0.15,1.36,0.88,2.4,1.1c0.1,0.02,0.15,0.15,0.08,0.23 c-0.09,0.1-0.22,0.21-0.38,0.25c-0.01,0-0.02,0.01-0.03,0.01l-2.77,1.35c-0.09,0.04-0.19-0.01-0.2-0.11l-0.36-2.61 c-0.01-0.08,0.05-0.15,0.13-0.16l1.05-0.09C159.84,116.11,159.87,116.12,159.9,116.14z"/><circle fill="#282829" cx="166.88" cy="113.91" r="0.31"/><ellipse fill="#282829" cx="163.79" cy="113.57" rx="0.17" ry="0.24"/><path fill="#282829" d="M145.91,117.17l-0.55,0.55c0,0-1.76-1.49-1.4-1.77c0,0,0.23-0.15,0.37-0.15l1.66,1.27L145.91,117.17z"/><path fill="#282829" d="M155.73,116.14c0,0,0.89-0.48,0.96-1.17c0.07-0.69,0.21-1.44,1.03-1.58s1.58-0.14,2.13-0.69 c0.55-0.55,0.89-1.17,1.92-0.82c0,0,0.96,0.89-0.27,1.85c0,0-0.89,0.41-1.24,1.44c0,0-0.07,0.89-0.96,1.37c0,0-1.1,1.1-1.3,1.72 c0,0-0.21,1.17-1.72,0.69c0,0-1.17-0.62-1.24-1.72C155.04,117.24,155.04,116.49,155.73,116.14z"/></g><linearGradient id="j" gradientUnits="userSpaceOnUse" x1="142.6682" y1="99.9498" x2="142.6682" y2="99.9488"><stop offset="0" style="stop-color:#346CF0"/><stop offset="0.8543" style="stop-color:#346CF0;stop-opacity:0.5707"/><stop offset="0.9949" style="stop-color:#346CF0;stop-opacity:0.5"/></linearGradient><path fill="url(#j)" d="M142.67,99.95L142.67,99.95C142.66,99.95,142.66,99.95,142.67,99.95z"/><path fill="#2C6FF6" d="M193.97,29.7c0,0-11.66-16.16-30.2-18.16c-0.21-0.02-6.25-0.69-8.29-0.41c-2.04-0.08-5.31,0.49-5.5,0.51 c-18.54,2-30.09,17.51-30.09,17.51c-21.29,30.55,16.84,64.48,23.66,70.17c-0.09-0.01-0.15-0.01-0.16-0.01v4.53 c0,0.69,0.53,1.26,1.22,1.3l17.83,1.19c0.69,0.05,1.3-0.46,1.38-1.15l0.53-4.52c0,0-0.15-0.01-0.43-0.03 c0.95-0.23,1.87-0.47,2.12-0.65c0,0,21.1-13.5,30.51-32.24C202.32,56.28,202.01,42.69,193.97,29.7z"/><linearGradient id="k" gradientUnits="userSpaceOnUse" x1="157" y1="11.0634" x2="157" y2="106.3337"><stop offset="0" style="stop-color:#202124;stop-opacity:0.15"/><stop offset="1" style="stop-color:#202124;stop-opacity:0"/></linearGradient><path fill="url(#k)" d="M193.97,29.7c0,0-11.66-16.16-30.2-18.16c-0.21-0.02-6.25-0.69-8.29-0.41 c-2.04-0.08-5.31,0.49-5.5,0.51c-18.54,2-30.09,17.51-30.09,17.51c-21.29,30.55,16.84,64.48,23.66,70.17 c-0.09-0.01-0.15-0.01-0.16-0.01v4.53c0,0.69,0.53,1.26,1.22,1.3l17.83,1.19c0.69,0.05,1.3-0.46,1.38-1.15l0.53-4.52 c0,0-0.15-0.01-0.43-0.03c0.95-0.23,1.87-0.47,2.12-0.65c0,0,21.1-13.5,30.51-32.24C202.32,56.28,202.01,42.69,193.97,29.7z"/><path fill="none" stroke="#0750CA" stroke-width="0.3861" stroke-miterlimit="10" d="M142.72,118.86c0,0-0.34-12.51,1.69-15.21"/><path fill="none" stroke="#0750CA" stroke-width="0.3861" stroke-miterlimit="10" d="M155.06,119.71c0,0-0.34-14.88,1.69-15.55"/><path fill="#C5DAFD" d="M156.41,119.71l-14.67-0.96c-0.49-0.03-0.91,0.34-0.94,0.82l-0.9,13.81c-0.03,0.48,0.33,0.9,0.8,0.94 l14.35,1.28L156.41,119.71z"/><path fill="#72B5F2" d="M164.61,121.02l-8.2-1.31l-1.35,15.89l7.53,0.9c0.51,0.06,0.96-0.31,1.01-0.82l1.25-14.37 C164.86,121.17,164.76,121.04,164.61,121.02z"/><path fill="#2C6FF6" d="M144.58,100.1c0,0-48.01-37.53-24.68-71c0,0,11.55-15.51,30.09-17.51c0.22-0.02,4.69-0.8,6.42-0.4 c-1.01,0-1.18,0.03-1.9,0.3c-0.41,0.15-0.64,0.27-1.27,0.64l-1.22,0.75c-1.01,0.31-1.95,0.73-2.83,1.09 c-11.72,4.79-22.68,12.53-24.79,25.9c-1.27,8.06-0.9,16.63,1.64,24.41c2.11,6.5,5.34,12.56,8.89,18.38 c1.82,2.99,3.99,5.96,5.98,8.91c1.76,2.61,5.01,6.18,5.25,9.51C145.56,100.9,145.08,100.45,144.58,100.1z"/><path fill="#2C6FF6" d="M166.04,99.93c0,0,21.1-13.5,30.51-32.24c5.77-11.48,5.45-25.06-2.58-38.05c0,0-11.66-16.16-30.2-18.16 c-0.22-0.02-6.8-0.75-8.54-0.36c1.01,0,3.4,0.64,4.12,0.91c0.41,0.15,0.64,0.27,1.27,0.64l1.22,0.75c1.01,0.31,1.95,0.73,2.83,1.09 c11.72,4.79,22.68,12.53,24.79,25.9c1.27,8.06-0.02,16.69-2.55,24.48c-2.11,6.5-6.53,11.53-10.08,17.35 c-1.82,2.99-15.02,15.56-15.26,18.89C162.18,100.95,165.54,100.29,166.04,99.93z"/><path fill="#2C6FF6" d="M156.08,11.17c-1.47,0-3.34,1.23-4.5,1.97c-3.31,2.12-5.83,5.27-7.44,8.84c-2.45,5.45-3.27,11.49-3.5,17.39 c-0.24,6.24-0.09,12.5,0.38,18.72c0.24,3.14,7.28,43.01,7.28,43.01s8.11,1.01,8.11,1.01c0.46,0.05,3.19-7.41,3.54-8.23 c1.23-2.97,2.43-5.95,3.59-8.94c2.26-5.81,4.49-11.64,6.43-17.57c1.44-4.39,2.45-8.92,3.15-13.48c0.83-5.41,1.22-10.89,1.22-16.36 c0-22.31-6.09-25.7-16.91-26.37C157.43,11.17,156.08,11.17,156.08,11.17z"/><linearGradient id="l" gradientUnits="userSpaceOnUse" x1="113.7536" y1="62.6109" x2="129.4324" y2="62.6109"><stop offset="0" style="stop-color:#FFFFFF"/><stop offset="0.0479" style="stop-color:#F5F9FE"/><stop offset="0.2287" style="stop-color:#D3E7F9"/><stop offset="0.4135" style="stop-color:#B8D9F6"/><stop offset="0.6013" style="stop-color:#A5CFF3"/><stop offset="0.7943" style="stop-color:#9AC9F1"/><stop offset="1" style="stop-color:#96C7F1"/><stop offset="1" style="stop-color:#000000"/></linearGradient><path fill="url(#l)" d="M124,51.62l-10.24,1.49c0,0,1.3,11.52,7.5,20.5l8.18-0.92C129.43,72.69,124.81,61.7,124,51.62z"/><linearGradient id="m" gradientUnits="userSpaceOnUse" x1="123.8426" y1="55.4663" x2="142.39" y2="55.4663"><stop offset="0" style="stop-color:#FFFFFF"/><stop offset="0.0479" style="stop-color:#F5F9FE"/><stop offset="0.2287" style="stop-color:#D3E7F9"/><stop offset="0.4135" style="stop-color:#B8D9F6"/><stop offset="0.6013" style="stop-color:#A5CFF3"/><stop offset="0.7943" style="stop-color:#9AC9F1"/><stop offset="1" style="stop-color:#96C7F1"/><stop offset="1" style="stop-color:#000000"/></linearGradient><path fill="url(#m)" d="M123.85,44.43c0-0.23,11.13-0.99,16.4-0.81c0,0,0.37,20.17,2.14,23.34l-15.27,0.37C127.12,67.33,123.62,61.13,123.85,44.43z"/><linearGradient id="n" gradientUnits="userSpaceOnUse" x1="140.2427" y1="48.7383" x2="174.3184" y2="48.7383"><stop offset="0" style="stop-color:#FFFFFF"/><stop offset="0.0479" style="stop-color:#F5F9FE"/><stop offset="0.2287" style="stop-color:#D3E7F9"/><stop offset="0.4135" style="stop-color:#B8D9F6"/><stop offset="0.6013" style="stop-color:#A5CFF3"/><stop offset="0.7943" style="stop-color:#9AC9F1"/><stop offset="1" style="stop-color:#96C7F1"/><stop offset="1" style="stop-color:#000000"/></linearGradient><path fill="url(#n)" d="M140.53,37.18c0,0,22-0.5,33.79,2.24c0,0,0.02,3.12-0.28,6.93c-0.43,5.39-1.08,12.39-2.09,13.99c0,0-18-2.56-31.02-2.24C140.92,58.1,139.71,42.81,140.53,37.18z"/><linearGradient id="o" gradientUnits="userSpaceOnUse" x1="169.2737" y1="59.3065" x2="189.9132" y2="59.3065"><stop offset="0" style="stop-color:#FFFFFF"/><stop offset="0.0479" style="stop-color:#F5F9FE"/><stop offset="0.2287" style="stop-color:#D3E7F9"/><stop offset="0.4135" style="stop-color:#B8D9F6"/><stop offset="0.6013" style="stop-color:#A5CFF3"/><stop offset="0.7943" style="stop-color:#9AC9F1"/><stop offset="1" style="stop-color:#96C7F1"/><stop offset="1" style="stop-color:#000000"/></linearGradient><path fill="url(#o)" d="M174.03,46.35c0,0,12.96,1.93,15.88,3.01c0,0-0.18,2.58-0.75,6.11c-0.85,5.28-2.55,12.68-5.76,16.8c0,0-5.45-2.02-14.13-2.79C169.27,69.47,171.67,66.87,174.03,46.35z"/><linearGradient id="p" gradientUnits="userSpaceOnUse" x1="181.1543" y1="66.9025" x2="199.6441" y2="66.9025"><stop offset="0" style="stop-color:#FFFFFF"/><stop offset="0.0479" style="stop-color:#F5F9FE"/><stop offset="0.2287" style="stop-color:#D3E7F9"/><stop offset="0.4135" style="stop-color:#B8D9F6"/><stop offset="0.6013" style="stop-color:#A5CFF3"/><stop offset="0.7943" style="stop-color:#9AC9F1"/><stop offset="1" style="stop-color:#96C7F1"/><stop offset="1" style="stop-color:#000000"/></linearGradient><path fill="url(#p)" d="M199.64,58.79c0,0-8.43-3.09-10.53-3.04c0,0-3.55,15.03-7.96,19.98l8.76,2.33c0,0,3.28-4.05,6.01-9.09C197.74,65.6,199.28,61.96,199.64,58.79z"/><path fill="#0750CA" d="M143.43,99.25c-0.34,0,20.96,1.35,20.96,1.35l-0.53,4.52c-0.08,0.69-0.69,1.2-1.38,1.15l-17.83-1.19c-0.69-0.05-1.22-0.62-1.22-1.3V99.25z"/><linearGradient id="q" gradientUnits="userSpaceOnUse" x1="157.5393" y1="123.8471" x2="164.8629" y2="123.8471"><stop offset="0" style="stop-color:#0750CA;stop-opacity:0.2"/><stop offset="0.1798" style="stop-color:#0A52CA;stop-opacity:0.164"/><stop offset="0.3216" style="stop-color:#1459CB;stop-opacity:0.1356"/><stop offset="0.4505" style="stop-color:#2564CD;stop-opacity:0.1098"/><stop offset="0.5717" style="stop-color:#3C73CF;stop-opacity:0.0856"/><stop offset="0.6875" style="stop-color:#5B87D2;stop-opacity:0.0624"/><stop offset="0.7993" style="stop-color:#80A0D6;stop-opacity:0.04"/><stop offset="0.9059" style="stop-color:#ABBDDB;stop-opacity:0.0187"/><stop offset="0.9992" style="stop-color:#D8DADF;stop-opacity:0"/></linearGradient><path fill="url(#q)" d="M157.54,119.89c-0.03,0.02,3.24,6.92,3.24,6.92l3.54,1l0.54-6.54L157.54,119.89z"/><linearGradient id="r" gradientUnits="userSpaceOnUse" x1="293.8455" y1="38" x2="293.8455" y2="7"><stop offset="0" style="stop-color:#FFFFFF;stop-opacity:0"/><stop offset="0.5408" style="stop-color:#EFF2F5;stop-opacity:0.5408"/><stop offset="1" style="stop-color:#E6EBF0"/></linearGradient><circle fill="url(#r)" cx="293.85" cy="22.5" r="15.5"/><linearGradient id="s" gradientUnits="userSpaceOnUse" x1="93.6313" y1="81.8778" x2="93.6313" y2="23.4313"><stop offset="0" style="stop-color:#FFFFFF;stop-opacity:0"/><stop offset="0.5408" style="stop-color:#EFF2F5;stop-opacity:0.5408"/><stop offset="1" style="stop-color:#E6EBF0"/></linearGradient><path fill="url(#s)" d="M71.79,68.35c-7.08-2.34-19.19-2.79-22.95,1.39c-1.37,1.52-2.55,3.36-2.04,5.59c0.66,2.87,4.06,3.73,6.55,4.17c13.63,2.43,27.53,2.57,41.32,2.24c2.14-0.05,4.28-0.12,6.41-0.24c5.39-0.3,10.77-0.69,16.15-1.14c6.45-0.54,13.66-0.15,19.14-4.33c1.85-1.41,3.67-3.28,4.11-5.65c0.23-1.27,0.01-2.54-0.53-3.71c-0.25-0.55-3.42-4.33-3.48-4.21c0,0,8.36-17.95-12.28-20.74c0.02,0-0.99-4.8-1.09-5.11c-1.19-3.56-3.26-6.86-6.25-9.18c-8.1-6.29-20.46-4.92-27.48,2.23c-6.48,6.6-6.39,15.99-3.35,24.23c-0.35-0.94-4.94-0.7-5.62-0.62c-3.48,0.42-6.52,2.77-8.17,5.8c-0.86,1.57-1.25,3.23-1.37,5.01C70.82,64.66,71.08,68.11,71.79,68.35z"/></svg>
