<svg width="16" height="16" viewBox="0 0 16 16" fill="none" xmlns="http://www.w3.org/2000/svg">
<path fill-rule="evenodd" clip-rule="evenodd" d="M3.71928 10.208C3.71928 9.77295 4.10021 9.42188 4.57436 9.42188C5.04513 9.42188 5.42974 9.77295 5.42974 10.208C5.42974 11.292 6.52144 12.2754 8.00174 12.2813C9.48205 12.2754 10.5685 11.292 10.5722 10.208C10.5768 9.77295 10.955 9.42188 11.4285 9.42188C11.899 9.42188 12.2861 9.77295 12.2861 10.208C12.271 12.2813 10.3051 13.8462 8.00174 13.8474C5.69959 13.8462 3.72882 12.2813 3.71928 10.208ZM6.4555 2.77986C6.97211 1.83032 7.5955 1.44448 8.00534 1.46509C8.40965 1.44448 9.03304 1.83032 9.55027 2.77986C9.98842 3.57925 10.2884 4.83648 10.37 6.10079H5.63335C5.71488 4.83648 6.0155 3.57925 6.4555 2.77986ZM15.1526 6.31262C15.0049 6.17662 14.7963 6.10092 14.5849 6.10092H11.9622C11.7603 2.99292 10.532 0.184 8.00554 0C5.47292 0.184 4.24277 2.99292 4.04154 6.10092H1.41815C1.20738 6.10092 0.998769 6.17662 0.849846 6.31262C0.701846 6.45077 0.615385 6.636 0.615385 6.83292L0 15.2692C0 15.4628 0.0876923 15.6514 0.234462 15.7862C0.388308 15.9231 0.592 16 0.802769 16H15.2003C15.4154 16 15.6148 15.9255 15.764 15.7862C15.9188 15.648 16 15.4665 16 15.2692L15.3846 6.83292C15.3846 6.64062 15.3 6.45077 15.1526 6.31262Z" fill="white"/>
</svg>
