<svg width="120" height="120" viewBox="0 0 120 120" xmlns="http://www.w3.org/2000/svg" xmlns:xlink="http://www.w3.org/1999/xlink"><title>img_for_trip</title><defs><path d="M18.38 2.23l-2.22-.36c-.5338587 1.65765368-2.1968469 2.67828532-3.9165678 2.40372902C10.5237114 3.99917272 9.26118181 2.51147728 9.27.77L7 .41C5.92299304.247327759 4.91384429.976404388 4.73 2.05L1 25.72c-.169541281 1.0740079.55001098 2.086711 1.62 2.28l2.24.36c.5450492-1.6382649 2.19786327-2.6393735 3.90225012-2.3635908C10.466637 26.2721919 11.7194041 27.7434455 11.72 29.47l2.24.36c1.0803073.1622517 2.0909422-.5723508 2.27-1.65L20 4.5c.1635856-1.07045912-.5545095-2.07667887-1.62-2.27z" id="a"/><path d="M9.27491062.769796081L5.66040453.193607654C5.2968172.136252308 4.94701966.302918595 4.65031482.520752526c-.29670483.21783393-.4940901.545174014-.548274.909247474L0 27.73c-.113737094.750558.400092928 1.4520476 1.15 1.57l1.19.19 7.6926385-26.50335144c-.66643829-.92521914-.72785571-1.57989901-.75772788-2.216852479z" id="b"/></defs><g fill="none" fill-rule="evenodd"><circle fill="#F1F3F4" cx="60" cy="60" r="60"/><g opacity=".2"><path fill="#000" d="M36.85 90.43h1v6.5h-1z"/><path fill="#000" d="M36.74 90.43h1v6.5h-1z"/><path fill="#010101" d="M36.64 90.43h1v6.5h-1z"/><path fill="#020202" d="M36.53 90.43h1v6.5h-1z"/><path fill="#030303" d="M36.42 90.43h1v6.5h-1z"/><path fill="#050505" d="M36.32 90.43h1v6.5h-1z"/><path fill="#060606" d="M36.21 90.43h1v6.5h-1z"/><path fill="#060707" d="M36.11 90.43h1v6.5h-1z"/><path fill="#070808" d="M36 90.43h1v6.5h-1z"/><path fill="#090909" d="M35.9 90.43h1v6.5h-1z"/><path fill="#0A0A0A" d="M35.79 90.43h1v6.5h-1z"/><path fill="#0B0B0B" d="M35.68 90.43h1v6.5h-1z"/><path fill="#0C0C0C" d="M35.58 90.43h1v6.5h-1z"/><path fill="#0C0D0D" d="M35.47 90.43h1v6.5h-1z"/><path fill="#0E0E0E" d="M35.37 90.43h1v6.5h-1z"/><path fill="#0F0F10" d="M35.26 90.43h1v6.5h-1z"/><path fill="#101010" d="M35.16 90.43h1v6.5h-1z"/><path fill="#111" d="M35.05 90.43h1v6.5h-1z"/><path fill="#121212" d="M34.94 90.43h1v6.5h-1z"/><path fill="#131313" d="M34.84 90.43h1v6.5h-1z"/><path fill="#141414" d="M34.73 90.43h1v6.5h-1z"/><path fill="#151515" d="M34.63 90.43h1v6.5h-1z"/><path fill="#161616" d="M34.52 90.43h1v6.5h-1z"/><path fill="#161616" d="M34.42 90.43h1v6.5h-1z"/><path fill="#171717" d="M34.31 90.43h1v6.5h-1z"/><path fill="#181818" d="M34.2 90.43h1v6.5h-1z"/><path fill="#191818" d="M34.1 90.43h1v6.5h-1z"/><path fill="#1A1A1A" d="M33.99 90.43h1v6.5h-1z"/><path fill="#1A1A1A" d="M33.89 90.43h1v6.5h-1z"/><path fill="#1B1C1C" d="M33.78 90.43h1v6.5h-1z"/><path fill="#1D1D1D" d="M33.67 90.43h1v6.5h-1z"/><path fill="#1E1E1E" d="M33.57 90.43h1v6.5h-1z"/><path fill="#1F1F1F" d="M33.46 90.43h1v6.5h-1z"/><path fill="#20201F" d="M33.36 90.43h1v6.5h-1z"/><path fill="#212120" d="M33.25 90.43h1v6.5h-1z"/><path fill="#212222" d="M33.15 90.43h1v6.5h-1z"/><path fill="#232323" d="M33.04 90.43h1v6.5h-1z"/><path fill="#242424" d="M32.93 90.43h1v6.5h-1z"/><path fill="#252525" d="M32.83 90.43h1v6.5h-1z"/><path fill="#262626" d="M32.72 90.43h1v6.5h-1z"/><path fill="#272727" d="M32.62 90.43h1v6.5h-1z"/><path fill="#282827" d="M32.51 90.43h1v6.5h-1z"/><path fill="#292929" d="M32.41 90.43h1v6.5h-1z"/><path fill="#2A2A2A" d="M32.3 90.43h1v6.5h-1z"/><path fill="#2B2B2B" d="M32.19 90.43h1v6.5h-1z"/><path fill="#2C2C2C" d="M32.09 90.43h1v6.5h-1z"/><path fill="#2D2D2D" d="M31.98 90.43h1v6.5h-1z"/><path fill="#2E2E2E" d="M31.88 90.43h1v6.5h-1z"/><path fill="#2F2F2F" d="M31.77 90.43h1v6.5h-1z"/><path fill="#30302F" d="M31.67 90.43h1v6.5h-1z"/><path fill="#313131" d="M31.56 90.43h1v6.5h-1z"/><path fill="#323232" d="M31.45 90.43h1v6.5h-1z"/><path fill="#333" d="M31.35 90.43h1v6.5h-1z"/><path fill="#343434" d="M31.24 90.43h1v6.5h-1z"/><path fill="#353535" d="M31.14 90.43h1v6.5h-1z"/><path fill="#363636" d="M31.03 90.43h1v6.5h-1z"/><path fill="#373737" d="M30.93 90.43h1v6.5h-1z"/><path fill="#383838" d="M30.82 90.43h1v6.5h-1z"/><path fill="#393939" d="M30.71 90.43h1v6.5h-1z"/><path fill="#3A3A3A" d="M30.61 90.43h1v6.5h-1z"/><path fill="#3B3B3B" d="M30.5 90.43h1v6.5h-1z"/><path fill="#3C3C3C" d="M30.4 90.43h1v6.5h-1z"/><path fill="#3E3E3D" d="M30.29 90.43h1v6.5h-1z"/><path fill="#3E3E3E" d="M30.19 90.43h1v6.5h-1z"/><path fill="#3F4040" d="M30.08 90.43h1v6.5h-1z"/><path fill="#414141" d="M29.97 90.43h1v6.5h-1z"/><path fill="#414242" d="M29.87 90.43h1v6.5h-1z"/><path fill="#434343" d="M29.76 90.43h1v6.5h-1z"/><path fill="#444" d="M29.66 90.43h1v6.5h-1z"/><path fill="#444445" d="M29.55 90.43h1v6.5h-1z"/><path fill="#464646" d="M29.45 90.43h1v6.5h-1z"/><path fill="#464646" d="M29.34 90.43h1v6.5h-1z"/><path fill="#474748" d="M29.23 90.43h1v6.5h-1z"/><path fill="#494848" d="M29.13 90.43h1v6.5h-1z"/><path fill="#4A4A4A" d="M29.02 90.43h1v6.5h-1z"/><path fill="#4B4A4B" d="M28.92 90.43h1v6.5h-1z"/><path fill="#4C4C4C" d="M28.81 90.43h1v6.5h-1z"/><path fill="#4D4C4D" d="M28.7 90.43h1v6.5h-1z"/><path fill="#4D4E4E" d="M28.6 90.43h1v6.5h-1z"/><path fill="#4E4E4F" d="M28.49 90.43h1v6.5h-1z"/><path fill="#4F4F4F" d="M28.39 90.43h1v6.5h-1z"/><path fill="#515050" d="M28.28 90.43h1v6.5h-1z"/><path fill="#515252" d="M28.18 90.43h1v6.5h-1z"/><path fill="#535352" d="M28.07 90.43h1v6.5h-1z"/><path fill="#535353" d="M27.96 90.43h1v6.5h-1z"/><path fill="#545554" d="M27.86 90.43h1v6.5h-1z"/><path fill="#555" d="M27.75 90.43h1v6.5h-1z"/><path fill="#575757" d="M27.65 90.43h1v6.5h-1z"/><path fill="#575757" d="M27.54 90.43h1v6.5h-1z"/><path fill="#585858" d="M27.44 90.43h1v6.5h-1z"/><path fill="#595A5A" d="M27.33 90.43h1v6.5h-1z"/><path fill="#5A5B5B" d="M27.22 90.43h1v6.5h-1z"/><path fill="#5B5B5C" d="M27.12 90.43h1v6.5h-1z"/><path fill="#5D5D5D" d="M27.01 90.43h1v6.5h-1z"/><path fill="#5E5E5E" d="M26.91 90.43h1v6.5h-1z"/><path fill="#5E5F5E" d="M26.8 90.43h1v6.5h-1z"/><path fill="#5F6060" d="M26.7 90.43h1v6.5h-1z"/><path fill="#606060" d="M26.59 90.43h1v6.5h-1z"/><path fill="#616262" d="M26.48 90.43h1v6.5h-1z"/><path fill="#626363" d="M26.38 90.43h1v6.5h-1z"/><path fill="#636464" d="M26.27 90.43h1v6.5h-1z"/><path fill="#646565" d="M26.17 90.43h1v6.5h-1z"/><path fill="#656666" d="M26.06 90.43h1v6.5h-1z"/><path fill="#676767" d="M25.96 90.43h1v6.5h-1z"/><path fill="#676767" d="M25.85 90.43h1v6.5h-1z"/><path fill="#686868" d="M25.74 90.43h1v6.5h-1z"/><path fill="#696969" d="M25.64 90.43h1v6.5h-1z"/><path fill="#6A6A6A" d="M25.53 90.43h1v6.5h-1z"/><path fill="#6B6B6B" d="M25.43 90.43h1v6.5h-1z"/><path fill="#6C6C6C" d="M25.32 90.43h1v6.5h-1z"/><path fill="#6D6D6D" d="M25.22 90.43h1v6.5h-1z"/><path fill="#6F6E6F" d="M25.11 90.43h1v6.5h-1z"/><path fill="#6F6F6F" d="M25 90.43h1v6.5h-1z"/><path fill="#707171" d="M24.9 90.43h1v6.5h-1z"/><path fill="#717272" d="M24.79 90.43h1v6.5h-1z"/><path fill="#737373" d="M24.69 90.43h1v6.5h-1z"/><path fill="#737374" d="M24.58 90.43h1v6.5h-1z"/><path fill="#747575" d="M24.48 90.43h1v6.5h-1z"/><path fill="#767576" d="M24.37 90.43h1v6.5h-1z"/><path fill="#777677" d="M24.26 90.43h1v6.5h-1z"/><path fill="#787878" d="M24.16 90.43h1v6.5h-1z"/><path fill="#797979" d="M24.05 90.43h1v6.5h-1z"/><path fill="#79797A" d="M23.95 90.43h1v6.5h-1z"/><path fill="#7B7B7B" d="M23.84 90.43h1v6.5h-1z"/><path fill="#7C7C7C" d="M23.74 90.43h1v6.5h-1z"/><path fill="#7D7D7D" d="M23.63 90.43h1v6.5h-1z"/><path fill="#7E7E7E" d="M23.52 90.43h1v6.5h-1z"/><path fill="#7F7F7F" d="M23.42 90.43h1v6.5h-1z"/><path fill="gray" d="M23.31 90.43h1v6.5h-1z"/><path fill="#808081" d="M23.21 90.43h1v6.5h-1z"/><path fill="#818282" d="M23.1 90.43h1v6.5h-1z"/><path fill="#828282" d="M22.99 90.43h1v6.5h-1z"/><path fill="#828383" d="M22.89 90.43h1v6.5h-1z"/><path fill="#838484" d="M22.78 90.43h1v6.5h-1z"/><path fill="#858485" d="M22.68 90.43h1v6.5h-1z"/><path fill="#868686" d="M22.57 90.43h1v6.5h-1z"/><path fill="#878787" d="M22.47 90.43h1v6.5h-1z"/><path fill="#888" d="M22.36 90.43h1v6.5h-1z"/><path fill="#898989" d="M22.25 90.43h1v6.5h-1z"/><path fill="#8A8A8A" d="M22.15 90.43h1v6.5h-1z"/><path fill="#8B8B8B" d="M22.04 90.43h1v6.5h-1z"/><path fill="#8C8C8C" d="M21.94 90.43h1v6.5h-1z"/><path fill="#8D8D8D" d="M21.83 90.43h1v6.5h-1z"/><path fill="#8E8E8E" d="M21.73 90.43h1v6.5h-1z"/><path fill="#8F8F8F" d="M21.62 90.43h1v6.5h-1z"/><path fill="#90908F" d="M21.51 90.43h1v6.5h-1z"/><path fill="#919191" d="M21.41 90.43h1v6.5h-1z"/><path fill="#929292" d="M21.3 90.43h1v6.5h-1z"/><path fill="#939393" d="M21.2 90.43h1v6.5h-1z"/><path fill="#949494" d="M21.09 90.43h1v6.5h-1z"/><path fill="#959595" d="M20.99 90.43h1v6.5h-1z"/><path fill="#969595" d="M20.88 90.43h1v6.5h-1z"/><path fill="#969696" d="M20.77 90.43h1v6.5h-1z"/><path fill="#979797" d="M20.67 90.43h1v6.5h-1z"/><path fill="#999" d="M20.56 90.43h1v6.5h-1z"/><path fill="#99999A" d="M20.46 90.43h1v6.5h-1z"/><path fill="#9A9A9A" d="M20.35 90.43h1v6.5h-1z"/><path fill="#9B9B9B" d="M20.25 90.43h1v6.5h-1z"/><path fill="#9D9D9D" d="M20.14 90.43h1v6.5h-1z"/><path fill="#9D9E9E" d="M20.03 90.43h1v6.5h-1z"/><path fill="#9E9E9E" d="M19.93 90.43h1v6.5h-1z"/><path fill="#A09F9F" d="M19.82 90.43h1v6.5h-1z"/><path fill="#A1A0A0" d="M19.72 90.43h1v6.5h-1z"/><path fill="#A1A1A1" d="M19.61 90.43h1v6.5h-1z"/><path fill="#A3A3A3" d="M19.51 90.43h1v6.5h-1z"/><path fill="#A4A3A3" d="M19.4 90.43h1v6.5h-1z"/><path fill="#A6A4A4" d="M19.29 90.43h1v6.5h-1z"/><path fill="#A6A6A6" d="M19.19 90.43h1v6.5h-1z"/><path fill="#A8A7A7" d="M19.08 90.43h1v6.5h-1z"/><path fill="#A9A9A8" d="M18.98 90.43h1v6.5h-1z"/><path fill="#AAA" d="M18.87 90.43h1v6.5h-1z"/><path fill="#AAABAB" d="M18.77 90.43h1v6.5h-1z"/><path fill="#ACACAC" d="M18.66 90.43h1v6.5h-1z"/><path fill="#ADADAD" d="M18.55 90.43h1v6.5h-1z"/><path fill="#AEADAD" d="M18.45 90.43h1v6.5h-1z"/><path fill="#AEAEAF" d="M18.34 90.43h1v6.5h-1z"/><path fill="#AFAFB0" d="M18.24 90.43h1v6.5h-1z"/><path fill="#B1B1B1" d="M18.13 90.43h1v6.5h-1z"/><path fill="#B2B2B2" d="M18.02 90.43h1v6.5h-1z"/><path fill="#B3B2B3" d="M17.92 90.43h1v6.5h-1z"/><path fill="#B3B3B4" d="M17.81 90.43h1v6.5h-1z"/><path fill="#B4B4B5" d="M17.71 90.43h1v6.5h-1z"/><path fill="#B5B5B6" d="M17.6 90.43h1v6.5h-1z"/><path fill="#B6B6B7" d="M17.5 90.43h1v6.5h-1z"/><path fill="#B8B7B8" d="M17.39 90.43h1v6.5h-1z"/><path fill="#B9B8B9" d="M17.28 90.43h1v6.5h-1z"/><path fill="#B9B9BA" d="M17.18 90.43h1v6.5h-1z"/><path fill="#BABABA" d="M17.07 90.43h1v6.5h-1z"/><path fill="#BBB" d="M16.97 90.43h1v6.5h-1z"/><path fill="#BCBCBC" d="M16.86 90.43h1v6.5h-1z"/><path fill="#BEBDBD" d="M16.76 90.43h1v6.5h-1z"/><path fill="#BFBEBE" d="M16.65 90.43h1v6.5h-1z"/><path fill="#BFBFBF" d="M16.54 90.43h1v6.5h-1z"/><path fill="#C0C0C0" d="M16.44 90.43h1v6.5h-1z"/><path fill="#C1C1C1" d="M16.33 90.43h1v6.5h-1z"/><path fill="#C2C2C2" d="M16.23 90.43h1v6.5h-1z"/><path fill="#C3C3C3" d="M16.12 90.43h1v6.5h-1z"/><path fill="#C5C4C4" d="M16.02 90.43h1v6.5h-1z"/><path fill="#C6C5C4" d="M15.91 90.43h1v6.5h-1z"/><path fill="#C7C6C5" d="M15.8 90.43h1v6.5h-1z"/><path fill="#C7C7C7" d="M15.7 90.43h1v6.5h-1z"/><path fill="#C8C8C8" d="M15.59 90.43h1v6.5h-1z"/><path fill="#C9C9C9" d="M15.49 90.43h1v6.5h-1z"/><path fill="#CACAC9" d="M15.38 90.43h1v6.5h-1z"/><path fill="#CBCBCA" d="M15.28 90.43h1v6.5h-1z"/><path fill="#CDCCCC" d="M15.17 90.43h1v6.5h-1z"/><path fill="#CDCDCD" d="M15.06 90.43h1v6.5h-1z"/><path fill="#CECECE" d="M14.96 90.43h1v6.5h-1z"/><path fill="#CFCFCF" d="M14.85 90.43h1v6.5h-1z"/><path fill="#D1D1D1" d="M14.75 90.43h1v6.5h-1z"/><path fill="#D2D2D2" d="M14.64 90.43h1v6.5h-1z"/><path fill="#D2D2D2" d="M14.54 90.43h1v6.5h-1z"/><path fill="#D3D3D3" d="M14.43 90.43h1v6.5h-1z"/><path fill="#D5D4D4" d="M14.32 90.43h1v6.5h-1z"/><path fill="#D5D5D5" d="M14.22 90.43h1v6.5h-1z"/><path fill="#D6D6D6" d="M14.11 90.43h1v6.5h-1z"/><path fill="#D7D7D7" d="M14.01 90.43h1v6.5h-1z"/><path fill="#D8D8D7" d="M13.9 90.43h1v6.5h-1z"/><path fill="#DAD9D8" d="M13.8 90.43h1v6.5h-1z"/><path fill="#DBDADA" d="M13.69 90.43h1v6.5h-1z"/><path fill="#DBDBDB" d="M13.58 90.43h1v6.5h-1z"/><path fill="#DCDCDC" d="M13.48 90.43h1v6.5h-1z"/><path fill="#DEDEDD" d="M13.37 90.43h1v6.5h-1z"/><path fill="#DFDFDE" d="M13.27 90.43h1v6.5h-1z"/><path fill="#DFDFDF" d="M13.16 90.43h1v6.5h-1z"/><path fill="#E0E1E0" d="M13.05 90.43h1v6.5h-1z"/><path fill="#E1E1E1" d="M12.95 90.43h1v6.5h-1z"/><path fill="#E2E2E2" d="M12.84 90.43h1v6.5h-1z"/><path fill="#E3E3E3" d="M12.74 90.43h1v6.5h-1z"/><path fill="#E4E4E4" d="M12.63 90.43h1v6.5h-1z"/><path fill="#E5E5E4" d="M12.53 90.43h1v6.5h-1z"/><path fill="#E7E6E6" d="M12.42 90.43h1v6.5h-1z"/><path fill="#E8E7E7" d="M12.31 90.43h1v6.5h-1z"/><path fill="#E8E7E7" d="M12.21 90.43h1v6.5h-1z"/><path fill="#E9E9E9" d="M12.1 90.43h1v6.5h-1z"/><path fill="#EAEAEA" d="M12 90.43h1v6.5h-1z"/><path fill="#EBEBEB" d="M11.89 90.43h1v6.5h-1z"/><path fill="#ECECEC" d="M11.79 90.43h1v6.5h-1z"/><path fill="#EDECED" d="M11.68 90.43h1v6.5h-1z"/><path fill="#EFEEEE" d="M11.57 90.43h1v6.5h-1z"/><path fill="#F0EFEF" d="M11.47 90.43h1v6.5h-1z"/><path fill="#F1F1F1" d="M11.36 90.43h1v6.5h-1z"/><path fill="#F2F2F2" d="M11.26 90.43h1v6.5h-1z"/><path fill="#F2F2F2" d="M11.15 90.43h1v6.5h-1z"/><path fill="#F3F3F3" d="M11.05 90.43h1v6.5h-1z"/><path fill="#F4F5F5" d="M10.94 90.43h1v6.5h-1z"/><path fill="#F5F5F5" d="M10.83 90.43h1v6.5h-1z"/><path fill="#F6F7F7" d="M10.73 90.43h1v6.5h-1z"/><path fill="#F6F7F7" d="M10.62 90.43h1v6.5h-1z"/><path fill="#F7F8F9" d="M10.52 90.43h1v6.5h-1z"/><path fill="#F9FAFB" d="M10.41 90.43h1v6.5h-1z"/><path fill="#FAFBFB" d="M10.31 90.43h1v6.5h-1z"/></g><path d="M89.1 97.17l-51.13-.24c-.2738253-.0107464-.4902108-.2359639-.49-.51-.0000274-.1317074.0529679-.2578806.147035-.3500663.0940671-.0921858.221285-.1426216.352965-.1399337l51.13.24c3.1490111-.0054525 5.7035177-2.5510273 5.72-5.7v-4.59c0-.2761424.2238576-.5.5-.5.2739085.0053201.4946799.2260915.5.5v4.59c-.0165165 3.7051553-3.0248079 6.7000368-6.73 6.7zm6.28-20.06c-.2761424 0-.5-.2238576-.5-.5L95 56.3c.0172186-5.5606356-1.3579166-11.0371113-4-15.93-.7633905-1.3910089-1.6221076-2.7275336-2.57-4-1.0670577-1.4261953-2.2475623-2.7638775-3.53-4-2.717045-2.6515375-5.9230224-4.7503659-9.44-6.18-.1901036-.0780709-.313076-.2645128-.31-.47V21.1c-.005509-4.1950801-3.4049199-7.594491-7.6-7.6H59.4c-4.1950801.005509-7.594491 3.4049199-7.6 7.6v5.77c0 .2761424-.2238576.5-.5.5s-.5-.2238576-.5-.5V21.1c.0055106-4.7473644 3.8526356-8.5944894 8.6-8.6h8.1c4.7473644.0055106 8.5944894 3.8526356 8.6 8.6v4.24c3.5093744 1.4799792 6.7110623 3.6031323 9.44 6.26 1.3226633 1.279895 2.5399431 2.6643835 3.64 4.14.9757399 1.3221067 1.8610872 2.7085941 2.65 4.15 2.742255 5.0344942 4.1761183 10.6771075 4.17 16.41l-.11 20.31c.0000269.1343592-.054022.2630754-.1499643.3571364-.0959422.0940611-.2257034.1455508-.3600357.1428636zm-38-50.62c-.1159472.0000348-.2285801-.0386827-.32-.11-.1156275-.0962922-.1817409-.2395377-.18-.39V20.1c0-.6683456.2654992-1.3093174.7380909-1.7819091C58.0906826 17.8454992 58.7316544 17.58 59.4 17.58h8.1c1.3816642.0163741 2.4946355 1.1382492 2.5 2.52v5.8c-.0021299.1517995-.0717767.2947588-.19.39-.114575.0934938-.2652454.1302426-.41.1-3.9686112-.7414892-8.0429569-.7109316-12 .09l-.02.01zm2-7.91c-.8394728 0-1.52.6805272-1.52 1.52v5.28c1.980722-.3501602 3.988569-.5241736 6-.52 1.7358819.0120996 3.4680362.1625763 5.18.45V20.1c-.0054974-.8410878-.6888942-1.520018-1.53-1.52h-8.13z" fill="#D0D1D6" fill-rule="nonzero"/><path d="M71.6 26.67V21.1c0-4.4735065-3.6264935-8.1-8.1-8.1h-8.1c-4.4735065 0-8.1 3.6264935-8.1 8.1v5.77C35.58923 31.8259752 27.9585117 43.2838527 27.9 56l-.16 34.68c-.0079757 1.6523045.6407606 3.2401012 1.8034903 4.4140831C30.70622 96.268065 32.2876953 96.9320626 33.94 96.94l51.13.24c3.4313448.0166208 6.2279735-2.7486857 6.25-6.18l.17-34.68c.0645408-13.0230522-7.8156461-24.7700377-19.89-29.65zM53.38 21.1c0-1.1045695.8954305-2 2-2h8.1c1.1045695 0 2 .8954305 2 2v3.8c-1.8736683-.347406-3.7744338-.5281125-5.68-.54-2.1724447-.0098229-4.340259.2012625-6.47.63l.05-3.89z" fill="#E1E2E6" fill-rule="nonzero"/><path d="M59.85 46.35h-.05c-5.2025223-.0138071-9.4088071-4.2424777-9.395-9.445.0138071-5.2025223 4.2424777-9.4088071 9.445-9.395 2.5079539.0052683 4.9104995 1.0093605 6.6763724 2.7902461C68.2922453 32.0811318 69.2759629 34.4920914 69.26 37c-.0220058 5.1829952-4.2269609 9.3745445-9.41 9.38v-.03zm0-17.84c-4.6307594.0054475-8.3880043 3.7492896-8.41 8.38-.0221549 4.6463751 3.7236537 8.4324612 8.37 8.46 4.6502376 0 8.42-3.7697624 8.42-8.42 0-4.6502376-3.7697624-8.42-8.42-8.42h.04z" fill="#D0D1D6" fill-rule="nonzero"/><path fill="#D0D1D6" d="M61.88 38.96l-2.03 4.47-2.04-4.47-4.46-2.03 4.46-2.04 2.04-4.46 2.03 4.46 4.47 2.04z"/><path d="M82.37 44.39l-3.21-.52C78.54 45.51 64 67.72 64 67.72c-.1695413 1.0740079.550011 2.086711 1.62 2.28l2.24.36c.5450492-1.6382649 2.1978633-2.6393735 3.9022501-2.3635908C73.466637 68.2721919 74.7194041 69.7434455 74.72 71.47l2.24.36c1.0803073.1622517 2.0909422-.5723508 2.27-1.65L84 46.66c.163117-1.0737243-.5604573-2.0814014-1.63-2.27z" fill="#263238" opacity=".1"/><path d="M81.38 44.23l-2.22-.36c-.5338587 1.6576537-2.1968469 2.6782853-3.9165678 2.403729C73.5237114 45.9991727 72.2611818 44.5114773 72.27 42.77L70 42.41c-1.077007-.1626722-2.0861557.5664044-2.27 1.64L64 67.72c-.1695413 1.0740079.550011 2.086711 1.62 2.28l2.24.36c.5450492-1.6382649 2.1978633-2.6393735 3.9022501-2.3635908C73.466637 68.2721919 74.7194041 69.7434455 74.72 71.47l2.24.36c1.0803073.1622517 2.0909422-.5723508 2.27-1.65L83 46.5c.1635856-1.0704591-.5545095-2.0766789-1.62-2.27z" fill="#FFF"/><path d="M74.48 48c1.4616487.0619337 2.596596 1.2966059 2.5355019 2.75829-.0610942 1.461684-1.2951144 2.5973403-2.7568333 2.5370856C72.7969498 53.235121 71.6605849 52.0017532 71.72 50.54c.0285759-.7030343.3355705-1.365843.8533077-1.8423113C73.0910449 48.2212204 73.7770159 47.9702128 74.48 48z" fill="#96D0A2"/><path d="M75.62 49.64c-.0170726-.1007218-.0985356-.1781117-.2-.19l-1.71-.27c-.1007888-.0203828-.2028612.028612-.25.12l-.47.88-.2 1.25c-.0121238.0851968.0453118.164723.13.18h.16c.0851968.0121238.164723-.0453118.18-.13v-.16l1.88.3v.15c-.0121238.0851968.0453118.164723.13.18h.16c.0424941.0056493.0854779-.0059898.1193158-.0323082.033838-.0263184.0556996-.0651146.0606842-.1076918l.2-1.24-.19-.93zm-2.18 1.25c-.1290565-.0205402-.2179594-.1405592-.2-.27.0097303-.0614405.0439327-.1163195.0948053-.1521187.0508727-.0357993.1140767-.0494655.1751947-.0378813.1290565.0205402.2179594.1405592.2.27-.0097303.0614405-.0439327.1163195-.0948053.1521187-.0508727.0357993-.1140767.0494655-.1751947.0378813zm1.71.27c-.1239146-.0234865-.2058018-.1423821-.183566-.2665272.0222359-.1241451.1402997-.207227.2646627-.1862441.124363.020983.2086312.138203.1889033.2627713-.0068734.0628051-.0404166.1196238-.0920857.1559835-.0516691.0363597-.1164763.0487506-.1779143.0340165zm-1.82-1.08l.34-.67 1.71.27.13.74-2.18-.34z" fill="#186D38" fill-rule="nonzero"/><g transform="translate(63 42)"><use fill="#FFF" xlink:href="#a"/><use fill="#263238" opacity=".1" xlink:href="#b"/></g><path d="M70.16 36.81c.8052541.1232954 1.3594707.8741696 1.24 1.68l-5.22 35.89c-.12346.8062688-.8722561 1.3634088-1.68 1.25l-13.85-2c-.3963072-.0613343-.7515527-.2788066-.9864179-.6038599C49.428717 72.7010867 49.3337913 72.2955221 49.4 71.9l5.38-35.66c.1232954-.8052541.8741696-1.3594707 1.68-1.24l13.7 1.81z" fill="#263238" opacity=".15"/><path d="M70 37c.3886246.0568479.7387156.2658389.9731697.5809452.2344541.3151063.3340419.7104836.2768303 1.0990548L66 74.52c-.1232954.8052541-.8741696 1.3594707-1.68 1.24l-13.84-2c-.4074615-.0532172-.7748563-.2723467-1.015309-.6055725C49.2242383 72.8212017 49.1320771 72.4034662 49.21 72l5.3-35.88c.0568479-.3886246.2658389-.7387156.5809452-.9731697.3151063-.2344541.7104836-.3340419 1.0990548-.2768303L70 37z" fill="#FFF"/><path d="M64.09 37.76c2.6602328.3929832 4.4984645 2.8677454 4.1062142 5.5280863-.3922503 2.6603409-2.8665061 4.4992543-5.526955 4.1077369C60.0088104 47.0043057 58.1692154 44.5305566 58.56 41.87c.1852804-1.2797777.8729461-2.4329503 1.9108106-3.2043107C61.5086752 37.8943288 62.811155 37.5683879 64.09 37.76z" fill="#96D0A2"/><path d="M64.23 57.9l1.46.22" fill="#D3E0F2"/><path d="M52 74l-1.58-.23c-.3986008-.0676401-.7526025-.2943553-.9807684-.6281187C49.2110656 72.8081178 49.128326 72.3959635 49.21 72l5.3-35.88c.0544764-.3930905.2635148-.7482082.5807672-.9866169.3172525-.2384086.7165039-.3404081 1.1092328-.2833831l1.58.23" fill="#32A750"/><path d="M66.16 42.38l-.23-.52-2.62-.36-.63-1.41c-.0418009-.1037445-.1241715-.1859081-.2280209-.2274478-.1038493-.0415397-.2201615-.0388493-.3219791.0074478-.1026476.0458005-.1826535.1308345-.2221205.2360798-.039467.1052453-.0351013.2219187.0121205.3239202l.62 1.41L61.07 44l.22.51L63.06 43l.62 1.41-.34.61.17.39.78-.66 1-.14-.17-.39-.68-.15-.63-1.41 2.35-.28z" fill="#186D38"/><path d="M53.82 44.72h-3.25c-.35 1.71-11.22 26-11.22 26 0 1.1045695.8954305 2 2 2h2.25c.27534-1.7053909 1.7475249-2.9589519 3.475-2.9589519 1.7274751 0 3.19966 1.253561 3.475 2.9589519h2.27c1.1045695 0 2-.8954305 2-2l1-24c0-.530433-.2107137-1.0391408-.5857864-1.4142136C54.8591408 44.9307137 54.350433 44.72 53.82 44.72z" fill="#263238" opacity=".1"/><path d="M52.82 44.72h-2.25c-.230536 1.756987-1.7279531 3.0707615-3.5 3.0707615S43.800536 46.476987 43.57 44.72h-2.24c-1.1045695 0-2 .8954305-2 2v24c0 1.1045695.8954305 2 2 2h2.27c.27534-1.7053909 1.7475249-2.9589519 3.475-2.9589519 1.7274751 0 3.19966 1.253561 3.475 2.9589519h2.27c1.1045695 0 2-.8954305 2-2v-24c0-.530433-.2107137-1.0391408-.5857864-1.4142136C53.8591408 44.9307137 53.350433 44.72 52.82 44.72z" fill="#FFF"/><path d="M46.78 49c1.1651632-.1416013 2.3007887.4331012 2.8767294 1.4558175.5759406 1.0227163.4786135 2.2917536-.2465459 3.2146838-.7251594.9229302-1.9351404 1.3177395-3.0650841 1.0001181C45.2151556 54.3529979 44.3880885 53.3855848 44.25 52.22c-.1880277-1.587114.94346-3.0271892 2.53-3.22z" fill="#96D0A2"/><path d="M45.94 51.63v1.09h.46v-1.09h-.46zm.93 0v1.09h.47v-1.09h-.47zm-1.25 1.87h3V53h-3v.5zm2.18-1.87v1.09h.47v-1.09h-.47zm-.7-1.41l-1.48.78v.32h3V51l-1.52-.78z" fill="#186D38" fill-rule="nonzero"/><path d="M33.8846467394 57.2233427045l51.6194268485.2432526189-.0934463277 19.8297798218c-.0364359926 7.7319005496-6.333917106 13.9703073456-14.0658177555 13.9338713525l-23.5897380735-.1111648446c-7.7319006496-.0364359931-13.9703073452-6.333917206-13.9338713525-14.0658177556l.0934463276-19.8297798218-.0299996669-.0001413712z" fill="#F1F3F4"/><path d="M71.37 91.77h-.07l-23.55-.11c-8.0256384-.0495621-14.4977141-6.5842564-14.47-14.61l.1-19.82c-.0012864-.1335243.0488422-.2624263.14-.36.1030415-.0820674.2285861-.1308903.36-.14L85.5 57c.1343592-.0000269.2630754.054022.3571364.1499643.0940611.0959422.1455508.2257034.1428636.3600357v8.17c0 .2761424-.2238576.5-.5.5-.2739085-.0053201-.4946799-.2260915-.5-.5V58l-50.63-.24-.09 19.33c-.0221755 7.4734472 6.0066498 13.5559416 13.48 13.6l23.55.11h.06c7.4623424.0000326 13.5179547-6.0376902 13.54-13.5 0-.2761424.2238576-.5.5-.5s.5.2238576.5.5c-.0385287 8.0028701-6.5370372 14.4700927-14.54 14.47z" fill="#D0D1D6"/><rect fill="#D0D1D6" x="37.5" y="63.5" width="44" height="5.5" rx=".9"/><path d="M35 65.79l-3.07 9.68c-.0795092.2386147-.1200291.4884872-.12.74v.21c.005385 2.5155488 2.034541 4.5580837 4.55 4.58h1.92c1.2154977.0079822 2.3840965-.4685994 3.2473468-1.3243432C42.3905971 78.8199131 42.8773664 77.6555211 42.88 76.44v-.2c.004161-.2543054-.0329888-.5075999-.11-.75l-3-9.71c-.3151723-1.0481658-1.2755258-1.769444-2.37-1.78-1.109442-.0046392-2.0881157.7252882-2.4 1.79z" fill="#F1F3F4"/><path d="M38.3 81.53h-1.94c-2.7837209-.0492055-5.0113746-2.3258675-5-5.11v-.21c.0016567-.3052923.0488426-.60863.14-.9l3.07-9.67c.3961215-1.2597893 1.5694593-2.1123876 2.89-2.1 1.3149186.0035214 2.4742939.8629184 2.86 2.12l3 9.71c.0879158.291851.1317328.5951997.13.9v.21c.0000274.1317074-.0529679.2578806-.147035.3500663-.0940671.0921858-.221285.1426216-.352965.1399337-.2761424 0-.5-.2238576-.5-.5v-.2c.0001775-.206654-.0301494-.4122026-.09-.61l-3-9.7c-.2551026-.8418686-1.0303314-1.4182167-1.91-1.42-.8779054-.0053158-1.6566397.5625112-1.92 1.4l-3.13 9.68c-.0603376.1942594-.0906867.3965869-.09.6v.2c-.0056016 2.2527344 1.8073658 4.088029 4.06 4.11h1.91c1.0833892.0143085 2.1262385-.4114915 2.89-1.18.1960611-.1960611.5139389-.1960611.71 0s.1960611.5139389 0 .71c-.9507824.9459544-2.2388089 1.4748368-3.58 1.47z" fill="#686C74"/><circle fill="#686C74" cx="37.39" cy="66.32" r="1.31"/></g></svg>
