<svg xmlns="http://www.w3.org/2000/svg" width="220" height="220"><linearGradient id="a" gradientUnits="userSpaceOnUse" x1="159.15" y1="55.3" x2="159.15" y2="20.6388" gradientTransform="translate(0 2)"><stop offset="0" style="stop-color:#202124"/><stop offset=".39" style="stop-color:#35383B;stop-opacity:0.61"/><stop offset=".99" style="stop-color:#3C4043"/></linearGradient><path fill-rule="evenodd" clip-rule="evenodd" fill="url(#a)" d="M213 57.3c.007-9.632-7.795-17.446-17.427-17.453-3.438-.003-6.8 1.011-9.663 2.913-5.43-11.5-17.63-20.12-30.75-20.12-15.057-.128-28.151 10.297-31.4 25a12.00349 12.00349 0 00-6.59-1.94c-6.463-.078-11.771 5.087-11.87 11.55h72.8l34.9.05z"/><linearGradient id="b" gradientUnits="userSpaceOnUse" x1="171.1623" y1="114.64" x2="171.1623" y2="68.46" gradientTransform="translate(0 2)"><stop offset="0" style="stop-color:#26282B"/><stop offset=".68" style="stop-color:#35383B"/><stop offset=".92" style="stop-color:#35383B"/><stop offset="1" style="stop-color:#3C4043"/></linearGradient><path fill-rule="evenodd" clip-rule="evenodd" fill="url(#b)" d="M162 70.46h18.36c10.493.02 18.984 8.542 18.964 19.035-.016 8.445-5.603 15.865-13.714 18.215.05 3-.17 8.93-.17 8.93l-8.17-8.18H162c-10.493 0-19-8.507-19-19s8.507-19 19-19z"/><path fill-rule="evenodd" clip-rule="evenodd" fill="#202124" d="M184.62 89.72h-26.89c-1 0-1.81-.81-1.81-1.81s.81-1.81 1.81-1.81h26.89c1 0 1.81.81 1.81 1.81s-.81 1.81-1.81 1.81z"/><linearGradient id="c" gradientUnits="userSpaceOnUse" x1="58.07" y1="93" x2="58.07" y2="58.3088" gradientTransform="translate(0 2)"><stop offset="0" style="stop-color:#202124"/><stop offset=".39" style="stop-color:#35383B;stop-opacity:0.61"/><stop offset=".99" style="stop-color:#3C4043"/></linearGradient><path fill-rule="evenodd" clip-rule="evenodd" fill="url(#c)" d="M111.92 95c.011-9.643-7.797-17.469-17.44-17.48h-.02c-3.428-.007-6.78 1.006-9.63 2.91-5.44-11.5-17.63-20.12-30.75-20.12-15.06-.129-28.157 10.295-31.41 25-1.958-1.273-4.245-1.947-6.58-1.94-6.463-.078-11.771 5.087-11.87 11.55H77l34.92.08z"/><radialGradient id="d" cx="109.3132" cy="123.8234" r="110.01" gradientTransform="matrix(1 0 0 -1 0 220)" gradientUnits="userSpaceOnUse"><stop offset="0" style="stop-color:#3C4043"/><stop offset="1" style="stop-color:#3C4043;stop-opacity:0"/></radialGradient><path fill="url(#d)" d="M208.15 175.19H-.19V220h15.32c-.145-.156-.23-.358-.24-.57V214L59 177.61s1.21-.9 1.71-1.22c.225-.133.459-.25.7-.35.287-.117.581-.217.88-.3 1.354-.355 2.75-.527 4.15-.51h87c.18.12-45.31 38.75-45.31 38.75l-4.51 5.45c-.006.211-.087.414-.23.57h116.42v-44.86l-11.66.05z"/><radialGradient id="e" cx="154.83" cy="494.82" r="463.17" gradientTransform="matrix(1 0 0 -1 0 220)" gradientUnits="userSpaceOnUse"><stop offset="0" style="stop-color:#DADCE0"/><stop offset="1" style="stop-color:#5F6368"/></radialGradient><path fill="url(#e)" d="M159.24 47.84c-.204-.353-.438-.688-.7-1-.272-.308-.569-.593-.89-.85-1.176-.938-2.636-1.446-4.14-1.44h-87c-1.512-.007-2.98.504-4.16 1.45-.321.257-.618.542-.89.85-.262.312-.496.647-.7 1-.514.916-.783 1.949-.78 3v118.62c.055 3.368 2.83 6.055 6.198 6h87.642c3.368.056 6.144-2.63 6.2-5.998V50.84c.003-1.051-.266-2.084-.78-3z"/><circle fill="#3C4043" cx="110" cy="73.53" r="15.45"/><path fill="#FFF" d="M110.09 89c4.787.005 9.305-2.211 12.23-6-3.603-6.841-12.069-9.467-18.911-5.864-2.417 1.273-4.408 3.224-5.729 5.614 2.911 3.933 7.516 6.253 12.41 6.25zM109.99 74.68c2.585.006 4.684-2.085 4.69-4.67.006-2.585-2.085-4.684-4.67-4.69-2.585-.006-4.684 2.085-4.69 4.67V70c0 2.581 2.089 4.674 4.67 4.68z"/><path fill="#669DF6" d="M141.83 97.14H78.17c-4.58 0-8.3 4.11-8.3 9.18s3.72 9.19 8.3 9.19h63.66c4.58 0 8.3-4.12 8.3-9.19s-3.72-9.18-8.3-9.18z"/><linearGradient id="f" gradientUnits="userSpaceOnUse" x1="204.97" y1="113.675" x2="93.64" y2="113.675" gradientTransform="matrix(1 0 0 -1 0 220)"><stop offset="0" style="stop-color:#FFFFFF;stop-opacity:0.94"/><stop offset="1" style="stop-color:#FFFFFF;stop-opacity:0"/></linearGradient><path opacity=".4" fill="url(#f)" d="M141.83 97.14H78.17c-4.58 0-8.3 4.11-8.3 9.18s3.72 9.19 8.3 9.19h63.66c4.58 0 8.3-4.12 8.3-9.19s-3.72-9.18-8.3-9.18z"/><path fill="#202124" d="M59.98 127.81h100.05v.56H59.98z"/><path fill="#202124" d="M59.98 127.81h100.05v.56H59.98zM59.98 136.83h100.05v.56H59.98z"/><path fill="#202124" d="M59.98 136.83h100.05v.56H59.98z"/><linearGradient id="g" gradientUnits="userSpaceOnUse" x1="94.6963" y1="135.649" x2="85.1363" y2="169.719" gradientTransform="translate(0 2)"><stop offset=".15" style="stop-color:#202124;stop-opacity:0.2"/><stop offset="1" style="stop-color:#202124;stop-opacity:0"/></linearGradient><path fill="url(#g)" d="M97.66 140.62l-40.6 35.7 53.29 1V159l-12.69-18.38z"/><path fill="#FCC934" d="M110 122.88c-5.942-.006-10.768 4.798-10.79 10.74v8h3.14v-8c0-4.225 3.425-7.65 7.65-7.65s7.65 3.425 7.65 7.65v8h3.13v-8c-.017-5.94-4.84-10.746-10.78-10.74z"/><path fill="#FCC934" d="M120.28 168.11H99.71c-1.885-.006-3.41-1.535-3.41-3.42v-21.35c0-1.883 1.527-3.41 3.41-3.41h20.57c1.885 0 3.414 1.525 3.42 3.41v21.35c0 1.889-1.531 3.42-3.42 3.42z"/><path fill="#3C4043" d="M112.66 160.29h-4.79c.413-2.853.827-5.703 1.24-8.55h2.37c.42 2.85.82 5.7 1.18 8.55z"/><path fill="#3C4043" d="M110.46 152.42h-.21c-1.408 0-2.55-1.142-2.55-2.55s1.142-2.55 2.55-2.55h.21c1.408 0 2.55 1.142 2.55 2.55s-1.142 2.55-2.55 2.55z"/><path fill="#FFF" d="M79.603 101.612h1.795l1.82 5.299.32 1.131h.098l.345-1.131 1.892-5.299h1.795l-3.208 8.803h-1.746l-3.111-8.803zM88.713 109.862l3.503-6.258-.037-.074h-3.873l.025-1.525h5.705v1.598l-3.972 7.008-1.351-.749zM97.884 110.611c-.32 0-.637-.045-.953-.135s-.609-.229-.879-.418c-.27-.189-.506-.424-.707-.707-.202-.283-.351-.621-.449-1.015l1.463-.565c.09.41.265.738.523.983.258.246.587.368.99.368.197 0 .379-.035.547-.104.168-.07.316-.166.442-.289.126-.123.226-.268.295-.436.07-.168.104-.354.104-.56 0-.197-.035-.379-.104-.547-.07-.168-.166-.316-.289-.443-.122-.127-.268-.225-.436-.295-.168-.07-.354-.104-.56-.104-.255 0-.479.055-.677.166-.197.111-.364.248-.504.411l-1.561-.713.492-4.205h4.734v1.414H96.96l-.32 1.967.099.024c.164-.139.364-.258.602-.356.237-.098.525-.147.861-.147.352 0 .688.068 1.007.202.32.135.603.326.849.572.245.246.442.543.59.892.147.349.221.736.221 1.162 0 .418-.074.803-.221 1.156-.147.352-.355.656-.621.909-.266.254-.582.453-.947.597-.362.144-.761.216-1.196.216zM101.609 101.612h1.795l1.82 5.299.32 1.131h.098l.345-1.131 1.892-5.299h1.795l-3.208 8.803h-1.746l-3.111-8.803zM114.027 106.37h2.102v1.426h-2.102v2.09h-1.426v-2.09h-2.09v-1.426h2.09v-2.09h1.426v2.09zM120.358 110.611c-.451 0-.862-.066-1.236-.197-.373-.131-.695-.309-.964-.534-.271-.226-.479-.492-.628-.799-.147-.308-.221-.641-.221-1.002 0-.245.035-.475.104-.688.07-.213.164-.406.283-.578.118-.172.257-.324.411-.455.156-.131.32-.241.492-.332v-.098c-.271-.181-.507-.418-.708-.713-.201-.295-.301-.64-.301-1.033 0-.336.07-.649.209-.94.139-.291.332-.543.578-.756.245-.213.537-.379.873-.498.335-.119.704-.178 1.106-.178.402 0 .77.059 1.106.178.336.119.627.285.873.498.246.213.438.466.578.756.139.292.208.605.208.94 0 .394-.1.738-.301 1.033s-.436.533-.707.713v.098c.172.091.336.201.492.332.156.131.293.283.412.455.118.172.213.365.282.578.069.213.104.442.104.688 0 .361-.074.695-.221 1.002-.147.308-.357.574-.627.799-.27.226-.593.403-.964.534-.37.132-.782.197-1.233.197zm0-1.488c.418 0 .763-.109 1.032-.326.27-.217.406-.51.406-.879 0-.172-.037-.33-.111-.474s-.174-.268-.301-.375c-.127-.106-.279-.188-.455-.245-.176-.057-.366-.086-.571-.086-.205 0-.395.028-.572.086-.176.057-.328.139-.454.245-.128.107-.228.232-.302.375-.074.143-.111.301-.111.474 0 .368.135.662.406.879.271.218.615.326 1.033.326zm0-3.798c.344 0 .631-.096.86-.289.23-.193.345-.445.345-.756 0-.32-.115-.572-.345-.756-.229-.185-.517-.277-.86-.277-.345 0-.631.092-.861.277-.229.185-.344.436-.344.756 0 .311.115.564.344.756.231.192.516.289.861.289zM130.857 110.218c-.287.123-.59.219-.91.289-.319.07-.651.104-.996.104-.656 0-1.264-.119-1.826-.357s-1.047-.564-1.457-.977c-.41-.414-.731-.902-.964-1.463-.233-.561-.351-1.162-.351-1.802 0-.64.117-1.24.351-1.801.233-.561.555-1.049.964-1.463.41-.414.896-.739 1.457-.977.562-.238 1.17-.357 1.826-.357.656 0 1.264.119 1.826.357.562.237 1.047.564 1.457.977.41.414.731.902.964 1.463.234.561.351 1.162.351 1.801 0 .68-.128 1.312-.381 1.893-.253.582-.611 1.082-1.07 1.5l.677 1.008-1.23.824-.688-1.019zm-1.868-2.803l1.23-.836.959 1.451c.221-.254.395-.551.522-.892.127-.34.19-.715.19-1.126 0-.451-.075-.862-.228-1.236-.151-.373-.36-.691-.627-.953-.266-.262-.578-.467-.934-.615-.357-.147-.74-.221-1.15-.221-.41 0-.794.074-1.149.221-.357.147-.668.352-.934.615-.266.262-.475.58-.627.953-.151.373-.228.785-.228 1.236 0 .451.075.862.228 1.236.151.373.36.691.627.953.266.262.578.467.934.615s.739.221 1.149.221c.18 0 .352-.016.517-.049.164-.032.324-.078.479-.135l-.958-1.438zM137.459 110.611c-.344 0-.674-.045-.99-.135-.316-.09-.605-.228-.866-.411-.262-.185-.494-.416-.695-.695-.202-.279-.355-.602-.462-.971l1.512-.602c.107.41.287.719.541.928.253.209.574.313.959.313.172 0 .336-.027.492-.08.155-.053.291-.129.406-.228.115-.098.206-.215.277-.351.07-.135.104-.289.104-.461 0-.36-.133-.644-.4-.849-.266-.205-.633-.308-1.1-.308h-.725v-1.463h.664c.164 0 .323-.02.479-.062.155-.04.292-.104.411-.19.118-.086.213-.197.283-.332.07-.135.104-.293.104-.474 0-.279-.099-.506-.295-.683-.198-.176-.463-.264-.799-.264-.361 0-.638.096-.83.289-.193.193-.326.408-.4.645l-1.475-.602c.074-.205.185-.416.332-.633.147-.217.334-.414.56-.59.226-.177.49-.32.794-.43.303-.111.652-.166 1.045-.166.402 0 .768.057 1.1.172.333.115.618.273.855.474.237.201.422.439.553.713s.197.572.197.892c0 .245-.031.467-.092.664-.062.197-.142.373-.24.529-.098.155-.211.289-.338.4-.127.111-.257.198-.388.264v.098c.394.156.72.406.977.75.258.344.388.779.388 1.304 0 .368-.07.707-.209 1.014-.14.308-.338.576-.596.805-.258.229-.568.408-.929.534-.36.128-.761.192-1.204.192z"/></svg>