<svg width="232" height="132" fill="none" xmlns="http://www.w3.org/2000/svg"><g clip-path="url(#clip0)"><path d="M219.42 0C226.368 0 232 5.632 232 12.58v106.84c0 6.948-5.632 12.58-12.58 12.58H12.58C5.632 132 0 126.368 0 119.42V12.58C0 5.632 5.632 0 12.58 0" fill="#FCE8E6"/><path d="M119.309 75.654c0 31.119 25.227 56.346 56.345 56.346S232 106.773 232 75.654l-34.9.009c0 11.844-9.61 21.437-21.437 21.437-4.985 0-9.558-1.702-13.185-4.556l-.034-.035c-.172-.138-.344-.258-.516-.395-.086-.069-.172-.172-.275-.241l-.241-.206c-4.418-3.937-7.203-9.661-7.203-16.022M20.884 53.0681c-7.339 0-14.37302 1.305-20.88302 3.693v47.1649c.741-1.572 1.645-3.053 2.708-4.4039l.037-.037c.148-.185.277-.37.425-.555.074-.093.185-.185.259-.296l.222-.259c4.236-4.754 10.39702-7.751 17.24102-7.751 12.746 0 23.068 10.3409 23.068 23.0679 0 5.494-1.924 10.544-5.143 14.503l-.056.055c-.074.093-.148.167-.222.259l-.019.018c-.019.018-.019.018-.019.037-1.072 1.269-2.279 2.42-3.597 3.434H78.7c1.826-5.774 2.817-11.92 2.817-18.298 0-33.4849-27.147-60.6319-60.633-60.6319zM48.713 0c.755 3.4 1.84 6.528 3.191 9.486 4.573 10.014 12.14 18.05 19.921 28.131 2.527 3.276 5.081 6.752 7.554 10.589C88.23 61.924 85.583 70.12 91.185 70.12c5.736 0 3.182-8.196 12.033-21.914C115.58 29.054 129.597 18.685 133.68 0H48.713zM219.42 0h-26.354c-1.797 4.723-2.79 9.843-2.79 15.197 0 23.267 18.59 42.18 41.725 42.728V12.58C232 5.632 226.368 0 219.42 0z" fill="#F9DCDC"/></g><defs><clipPath id="clip0"><path fill="#fff" d="M0 0h232v132H0z"/></clipPath></defs></svg>