<svg xmlns="http://www.w3.org/2000/svg" width="410" height="176" viewBox="0 0 410 176"><linearGradient id="a" gradientUnits="userSpaceOnUse" x1="303.7248" y1="98.5455" x2="303.7248" y2="31.7493"><stop offset=".00426" style="stop-color:#EFF0F2;stop-opacity:0.1"/><stop offset="1" style="stop-color:#DADCE1"/></linearGradient><path opacity=".5" fill-rule="evenodd" clip-rule="evenodd" fill="url(#a)" d="M407.5 98.55c0-18.58-15.06-33.63-33.63-33.63-6.87 0-13.25 2.06-18.58 5.6-10.47-22.15-33.97-38.76-59.26-38.76-29.85 0-54.75 20.66-60.52 48.12-3.63-2.37-7.99-3.75-12.69-3.75-12.64 0-22.88 10-22.88 22.33h140.3v.1h67.26z"/><linearGradient id="b" gradientUnits="userSpaceOnUse" x1="109.0248" y1="145.4481" x2="109.0248" y2="56.457" gradientTransform="matrix(-1 0 0 1 351.1228 0)"><stop offset="0" style="stop-color:#EFF0F2"/><stop offset=".6759" style="stop-color:#EDEEF1"/><stop offset=".919" style="stop-color:#E6E9EC"/><stop offset=".9975" style="stop-color:#E2E5E9"/></linearGradient><path fill-rule="evenodd" clip-rule="evenodd" fill="url(#b)" d="M224.4 56.46h35.39c20.14 0 36.61 16.48 36.61 36.61 0 16.63-11.25 30.76-26.51 35.18.1 5.78-.32 17.2-.32 17.2l-15.76-15.76H224.4c-20.14 0-36.61-16.48-36.61-36.61 0-20.15 16.47-36.62 36.61-36.62z"/><path fill-rule="evenodd" clip-rule="evenodd" fill="#FFF" d="M268.01 93.56h-51.82c-1.92 0-3.49-1.57-3.49-3.49 0-1.92 1.57-3.49 3.49-3.49h51.82c1.92 0 3.49 1.57 3.49 3.49-.01 1.93-1.58 3.49-3.49 3.49z"/><linearGradient id="c" gradientUnits="userSpaceOnUse" x1="108.9228" y1="171.1572" x2="108.9228" y2="104.3611"><stop offset=".00426" style="stop-color:#EFF0F2;stop-opacity:0.1"/><stop offset="1" style="stop-color:#DADCE1"/></linearGradient><path fill-rule="evenodd" clip-rule="evenodd" fill="url(#c)" d="M212.7 171.16c0-18.58-15.06-33.63-33.63-33.63-6.87 0-13.25 2.06-18.58 5.6-10.47-22.15-33.97-38.76-59.26-38.76-29.85 0-54.75 20.66-60.52 48.12-3.63-2.37-7.99-3.75-12.69-3.75-12.64 0-22.88 10-22.88 22.33h140.3v.1h67.26z"/><linearGradient id="d" gradientUnits="userSpaceOnUse" x1="176.5614" y1="117.3788" x2="176.5614" y2="28.3877"><stop offset="0" style="stop-color:#F7B00C"/><stop offset="1" style="stop-color:#F7B00C;stop-opacity:0.5"/></linearGradient><path fill-rule="evenodd" clip-rule="evenodd" fill="url(#d)" d="M194.26 28.39h-35.39c-20.14 0-36.61 16.48-36.61 36.61 0 16.63 11.25 30.76 26.51 35.18-.1 5.78.32 17.2.32 17.2l15.76-15.76h29.42c20.14 0 36.61-16.48 36.61-36.61-.01-20.15-16.48-36.62-36.62-36.62z"/><linearGradient id="e" gradientUnits="userSpaceOnUse" x1="179.2144" y1="29.3339" x2="179.2144" y2="91.9864"><stop offset="0" style="stop-color:#F7C00C"/><stop offset="1" style="stop-color:#FFDAA8;stop-opacity:0.5"/></linearGradient><path fill-rule="evenodd" clip-rule="evenodd" fill="url(#e)" d="M197.75 91.99h-37.07c-17.23 0-31.33-14.1-31.33-31.33 0-17.23 14.1-31.33 31.33-31.33h37.07c17.23 0 31.33 14.1 31.33 31.33-.01 17.23-14.1 31.33-31.33 31.33z"/><path fill-rule="evenodd" clip-rule="evenodd" fill="#FFF" d="M205.12 68.63H153.3c-1.92 0-3.49-1.57-3.49-3.49 0-1.92 1.57-3.49 3.49-3.49h51.82c1.92 0 3.49 1.57 3.49 3.49 0 1.93-1.57 3.49-3.49 3.49z"/></svg>