<svg xmlns="http://www.w3.org/2000/svg" width="200" height="150"><linearGradient id="a" gradientUnits="userSpaceOnUse" x1="109.4897" y1="140.8606" x2="109.4897" y2="8.5923" gradientTransform="matrix(1 0 0 -1 0 149.8898)"><stop offset="0" style="stop-color:#F1F3F4"/><stop offset="1" style="stop-color:#F1F3F4;stop-opacity:0"/></linearGradient><path fill="url(#a)" d="M165.873 74.952c0-36.408-29.514-65.922-65.922-65.922-18.301 0-34.903 7.476-46.845 19.563l102.767 81.311c6.311-10.147 10-22.088 10-34.952z"/><linearGradient id="b" gradientUnits="userSpaceOnUse" x1="91.7471" y1="140.8607" x2="91.7471" y2="8.5918" gradientTransform="matrix(1 0 0 -1 0 149.8898)"><stop offset="0" style="stop-color:#F1F3F4"/><stop offset="1" style="stop-color:#F1F3F4;stop-opacity:0"/></linearGradient><path fill="url(#b)" d="M33.98 74.952c0 36.407 29.515 65.922 65.922 65.922 19.758 0 37.525-8.689 49.612-22.524L46.213 36.602C38.543 47.476 33.98 60.68 33.98 74.952z"/><path fill="#DADCE0" d="M100.097 105.825c4.263 0 7.719-3.455 7.719-7.718s-3.456-7.718-7.719-7.718c-4.262 0-7.718 3.456-7.718 7.718 0 4.263 3.456 7.718 7.718 7.718z"/><path fill="#DADCE0" d="M100 0C58.641 0 25 33.641 25 75s33.641 75 75 75 75-33.641 75-75-33.641-75-75-75zm0 5.583c38.252 0 69.417 31.116 69.417 69.417 0 14.515-4.514 28.01-12.135 39.175L48.738 28.301C61.408 14.369 79.709 5.583 100 5.583zm0 138.834c-38.252 0-69.417-31.116-69.417-69.417 0-15.971 5.437-30.68 14.563-42.427l108.786 86.068c-12.767 15.728-32.184 25.776-53.932 25.776z"/><path fill="#DADCE0" d="M77.524 87.573c-.777 1.359-.291 3.058 1.068 3.786.437.243.922.34 1.359.34.971 0 1.942-.534 2.427-1.456 3.592-6.408 10.388-10.388 17.718-10.388.292 0 .583 0 .874.049l-6.359-5.049c-7.184 1.601-13.446 6.164-17.087 12.718zM62.67 79.757c-.728 1.359-.243 3.058 1.117 3.786.437.243.874.34 1.359.34.971 0 1.942-.534 2.476-1.456 3.835-6.99 9.708-12.427 16.65-15.728l-4.806-3.835c-6.99 3.883-12.815 9.66-16.796 16.893zM100.097 63.155c13.398 0 25.777 7.282 32.33 18.981.777 1.359 2.476 1.845 3.786 1.068 1.36-.777 1.845-2.476 1.068-3.786-7.524-13.447-21.796-21.845-37.184-21.845-3.107 0-6.165.34-9.126.971l6.019 4.757c1.02-.097 2.039-.146 3.107-.146z"/><path fill="#DADCE0" d="M100.097 46.99c19.369 0 37.233 10.583 46.602 27.573.728 1.359 2.427 1.845 3.787 1.116 1.359-.728 1.844-2.427 1.116-3.786-10.34-18.786-30.097-30.485-51.505-30.485-8.495 0-16.747 1.845-24.175 5.194l5 3.981c5.971-2.331 12.476-3.593 19.175-3.593zM48.35 72.233c-.728 1.359-.243 3.058 1.117 3.786.437.243.874.34 1.311.34.971 0 1.942-.534 2.476-1.456 4.223-7.815 10.194-14.223 17.33-18.981l-4.612-3.641c-7.137 5.146-13.253 11.894-17.622 19.952z"/></svg>