<?xml version="1.0" encoding="utf-8"?>
<!-- Generator: Adobe Illustrator 23.0.4, SVG Export Plug-In . SVG Version: 6.00 Build 0)  -->
<svg version="1.0" id="Capa_2_1_" xmlns="http://www.w3.org/2000/svg" xmlns:xlink="http://www.w3.org/1999/xlink" x="0px" y="0px"
	 width="288px" height="288px" viewBox="0 0 288 288" enable-background="new 0 0 288 288" xml:space="preserve">
<g>
	<g enable-background="new    ">
		<path fill="#81C995" d="M282.7,137c0,2.2-1.1,4.2-3,5.4L115.2,244.8c-3.6,2.1-8.1,2.1-11.7,0L7.9,185.4c-1.3-0.7-2.1-2.1-2.1-3.6
			l0,0c0-1.5,0.8-2.8,2.1-3.6l172.5-97.3c3.7-2.1,8.2-2.2,11.9,0l87.1,50.5C281.5,132.6,282.7,134.7,282.7,137L282.7,137z"/>
		<g>
			
				<linearGradient id="SVGID_1_" gradientUnits="userSpaceOnUse" x1="272.2704" y1="793.0014" x2="-2.5408" y2="750.1797" gradientTransform="matrix(1 0 0 1 0 -553.89)">
				<stop  offset="0" style="stop-color:#202124"/>
				<stop  offset="1" style="stop-color:#202124;stop-opacity:0"/>
			</linearGradient>
			<path fill="url(#SVGID_1_)" d="M22.5,170l-14.6,8.2c-1.3,0.7-2.1,2.1-2.1,3.6c0,1.5,0.8,2.9,2.1,3.6l91.6,57l10.2-1.5L22.5,170z"
				/>
		</g>
		<polygon fill="#5F6368" points="12.9,173.9 12.9,180.6 109.7,240.9 200.5,186.2 200.5,178.6 191.1,172.9 		"/>
		<path fill="#5F6368" d="M104.1,120.6c-20.1-7-45.4,6.2-59.2,25.2s-34,26.9-34,26.9l91.4,56.1l7.4,4.5c0,0,23.8-12.9,36.3-27.6
			c15.2-17.9,34.1-29.7,54.5-27.1"/>
		
			<linearGradient id="SVGID_2_" gradientUnits="userSpaceOnUse" x1="177.5181" y1="654.0526" x2="70.7879" y2="750.4168" gradientTransform="matrix(1 0 0 1 0 -553.89)">
			<stop  offset="0" style="stop-color:#202124"/>
			<stop  offset="1" style="stop-color:#202124;stop-opacity:0"/>
		</linearGradient>
		<path fill="url(#SVGID_2_)" d="M44.9,145.8c-13.8,19-34,26.9-34,26.9l91.4,56.1l7.4,4.5c0,0,23.8-12.9,36.3-27.6"/>
		
			<linearGradient id="SVGID_3_" gradientUnits="userSpaceOnUse" x1="228.1399" y1="706.7862" x2="132.3795" y2="753.8429" gradientTransform="matrix(1 0 0 1 0 -553.89)">
			<stop  offset="0" style="stop-color:#202124"/>
			<stop  offset="1" style="stop-color:#202124;stop-opacity:0"/>
		</linearGradient>
		<polygon fill="url(#SVGID_3_)" points="200.5,178.6 132.2,219.8 167.8,162.8 		"/>
	</g>
	<path fill="#3C4043" d="M101.8,119.2c-20.1-7-42.6,4.8-56.5,23.8s-32.5,26.3-32.5,26.3l80.6,49l17.4,10.6c0,0,27.3-6.5,39.6-26.1
		c12.6-19.9,29.2-29.8,50-24.2"/>
	<path fill="#2D3032" d="M200.2,178.4c-20.1-7-42.1,2.5-56.4,23.1c-13.4,19.3-33.3,21.9-33.3,21.9l-97.6-58.9
		c0,0,16.5-4.7,30.4-23.7c6.4-8.8,14.4-16.3,23.1-21c12.6-6.8,27.9-6,40.1,1.5l48.6,29.7L200.2,178.4z"/>
	<path fill="#70757A" d="M200.5,178.6"/>
	<polygon fill="#3C4043" points="109.7,240.9 109.7,233.3 200.5,178.6 200.5,186.2 	"/>
	<polygon fill="#3C4043" points="200.5,186.2 200.5,178.6 271.8,134.4 271.8,142 	"/>
	
		<linearGradient id="SVGID_4_" gradientUnits="userSpaceOnUse" x1="311.9614" y1="604.8917" x2="250.9022" y2="692.9306" gradientTransform="matrix(1 0 0 1 0 -553.89)">
		<stop  offset="0" style="stop-color:#FFFFFF"/>
		<stop  offset="1" style="stop-color:#FFFFFF;stop-opacity:0"/>
	</linearGradient>
	<polygon fill="url(#SVGID_4_)" points="200.5,186.2 200.5,178.6 271.8,134.4 271.8,142 	"/>
	<polygon fill="#DADCE0" points="271.8,134.4 259.5,129.3 187.9,171 200.5,178.6 	"/>
	
		<linearGradient id="SVGID_5_" gradientUnits="userSpaceOnUse" x1="187.877" y1="707.8545" x2="439.9238" y2="707.8545" gradientTransform="matrix(1 0 0 1 0 -553.89)">
		<stop  offset="0" style="stop-color:#202124"/>
		<stop  offset="1" style="stop-color:#202124;stop-opacity:0"/>
	</linearGradient>
	<polygon fill="url(#SVGID_5_)" points="271.8,134.4 259.5,129.3 187.9,171 200.5,178.6 	"/>
	<path fill="#3C4043" d="M200.5,178.6c0,0,6.2-17.1,29.3-22.7c15.4-3.7,25.1-12.6,25.1-12.6l-37.7-10.8l-19.7,38.9L200.5,178.6z"/>
	
		<linearGradient id="SVGID_6_" gradientUnits="userSpaceOnUse" x1="14.4402" y1="694.716" x2="76.2094" y2="778.4949" gradientTransform="matrix(1 0 0 1 0 -553.89)">
		<stop  offset="0" style="stop-color:#202124"/>
		<stop  offset="1" style="stop-color:#202124;stop-opacity:0"/>
	</linearGradient>
	<polygon fill="url(#SVGID_6_)" points="12.9,173.9 109.7,233.3 104.8,237.8 12.9,175.4 	"/>
	
		<linearGradient id="SVGID_7_" gradientUnits="userSpaceOnUse" x1="19.9462" y1="677.0471" x2="46.9259" y2="758.6961" gradientTransform="matrix(1 0 0 1 0 -553.89)">
		<stop  offset="0" style="stop-color:#202124"/>
		<stop  offset="1" style="stop-color:#202124;stop-opacity:0"/>
	</linearGradient>
	<polygon fill="url(#SVGID_7_)" points="15.2,170.7 61.3,202.7 66.3,201.7 	"/>
	
		<linearGradient id="SVGID_8_" gradientUnits="userSpaceOnUse" x1="22.3264" y1="704.4615" x2="41.4962" y2="745.9959" gradientTransform="matrix(1 0 0 1 0 -553.89)">
		<stop  offset="0" style="stop-color:#202124"/>
		<stop  offset="1" style="stop-color:#202124;stop-opacity:0"/>
	</linearGradient>
	<polygon fill="url(#SVGID_8_)" points="17.3,167.2 49.5,190.4 52.5,188.4 	"/>
	<g>
		<line fill="none" x1="109.2" y1="236.3" x2="271.8" y2="136.9"/>
		<polygon fill="#5F6368" points="109.3,236.6 109,236 271.8,136.5 271.8,137.3 		"/>
	</g>
	<g>
		<line fill="none" x1="109.4" y1="239.5" x2="271.8" y2="140.4"/>
		<polygon fill="#5F6368" points="109.6,239.8 109.2,239.1 271.8,139.9 271.8,140.8 		"/>
	</g>
	<path fill="#2D3032" d="M200.5,178.6c0,0,4.8-20.3,30.8-25.6c24.7-5,40.4-23.7,40.4-23.7l-2.3-1.2l-95.8-55.2
		c0,0-13.6,16.4-39.9,20.6c-22.8,3.6-27.9,27.3-27.9,27.3l26.8,35.4c0,0,45.5,12.8,46.1,13C179.2,169.5,200.5,178.6,200.5,178.6z"/>
	
		<linearGradient id="SVGID_9_" gradientUnits="userSpaceOnUse" x1="344.0093" y1="507.3522" x2="192.4264" y2="671.3601" gradientTransform="matrix(1 0 0 1 0 -553.89)">
		<stop  offset="0" style="stop-color:#FFFFFF"/>
		<stop  offset="1" style="stop-color:#FFFFFF;stop-opacity:0"/>
	</linearGradient>
	<path fill="url(#SVGID_9_)" d="M200.5,178.6c0,0,4.8-20.3,30.8-25.6c24.7-5,40.4-23.7,40.4-23.7l-2.3-1.2l-95.8-55.2
		c0,0-13.6,16.4-39.9,20.6c-22.8,3.6-27.9,27.3-27.9,27.3l26.8,35.4c0,0,45.5,12.8,46.1,13C179.2,169.5,200.5,178.6,200.5,178.6z"/>
	<path fill="#81C995" d="M211.5,179.4c-2.1-1.4-6.3-3.3-11-0.7c-5.9,3.2-8,10-8.7,12.8c-0.2,0.8-0.3,1.3-0.3,1.3l21.4-12.3
		C213,180.5,212.5,180,211.5,179.4z"/>
	
		<linearGradient id="SVGID_10_" gradientUnits="userSpaceOnUse" x1="236.0785" y1="397.3332" x2="104.0201" y2="731.7391" gradientTransform="matrix(1 0 0 1 0 -553.89)">
		<stop  offset="0" style="stop-color:#FFFFFF"/>
		<stop  offset="1" style="stop-color:#FFFFFF;stop-opacity:0"/>
	</linearGradient>
	<path fill="url(#SVGID_10_)" d="M200.2,178.4c-20.1-7-42.1,2.5-56.4,23.1c-13.4,19.3-33.3,21.9-33.3,21.9l-97.6-58.9
		c0,0,16.5-4.7,30.4-23.7c6.4-8.8,14.4-16.3,23.1-21c12.6-6.8,27.9-6,40.1,1.5l48.6,29.7L200.2,178.4z"/>
	
		<rect x="61.1" y="130.6" transform="matrix(0.5342 -0.8454 0.8454 0.5342 -101.1496 124.6488)" fill="#5F6368" width="2.9" height="46.9"/>
	<path fill="#5F6368" d="M32.1,176.1l-2.7-1.7c0.2-0.1,16.1-9.1,26.4-24.7l2.5,1.6C47.5,167.6,32.8,175.8,32.1,176.1z"/>
	<polygon fill="#5F6368" points="90,157.1 91.5,154.6 151.9,191.7 149.8,193.8 	"/>
	<polygon fill="#5F6368" points="95.2,214.1 111.3,168.8 114,169.7 97.7,215.7 	"/>
	<path fill="#5F6368" d="M184.8,169c-23-4.3-41.2,19.1-41.3,19.3l-2.3-1.8c0.7-1,16.4-21.1,37.9-21"/>
	<path fill="#5F6368" d="M127,133.8l-2.5-1.6c0.4-0.9,9.4-22,28.2-24.9c26.6-4,39.2-23.7,39.3-23.9l2.6,1.5
		c-0.5,0.8-13.5,21.1-41.5,25.3C136,112.9,127.1,133.6,127,133.8z"/>
	<polygon fill="#5F6368" points="169.5,137 114.2,104.4 116.3,102.2 171,134.5 	"/>
	<polygon fill="#5F6368" points="221.8,155.9 217.2,98 220.3,99.8 224.7,154.8 	"/>
	<path fill="#5F6368" d="M173.6,162.2l-2.6-1.6c0.2-0.7,5-16.4,23.6-22.5c17.4-5.7,24.9-14.4,25-14.5l2.3,1.9
		c-0.3,0.4-8,9.4-26.3,15.4C178.4,146.6,173.6,162.1,173.6,162.2z"/>
	<polygon fill="#5F6368" points="260.8,139.3 219.1,113.8 220.6,111.3 263.3,137.4 	"/>
	<g>
		<path fill="#8AB4F8" d="M69.4,186.3l-2.8-2.2l38.8-49.8c0.7-0.9,1.8-1.5,2.9-1.5c1.2-0.1,2.3,0.4,3.1,1.2l32,34.2l37.5-48.2
			l2.8,2.2l-40.1,51.5l-34.9-37.3c-0.1-0.1-0.2-0.1-0.3-0.1c-0.1,0-0.2,0-0.3,0.1L69.4,186.3z"/>
	</g>
	<circle fill="#F28B82" cx="69.3" cy="183.9" r="8.1"/>
	<circle fill="#FDD663" cx="108.4" cy="135.8" r="8.1"/>
	<circle fill="#81C995" cx="143.5" cy="170.2" r="8.1"/>
	<circle fill="#8AB4F8" cx="182.3" cy="121.9" r="8.1"/>
	<path fill="#8AB4F8" d="M201.3,52.7L201.3,52.7c-2.8-5.1-7.5-9-13.1-10.7l0,0h0c0,0,0,0,0,0l0,0c-2.1-0.6-4.4-1-6.7-0.9
		c-6.8,0.1-12.9,3.2-16.9,8.1l0,0c-3.2,3.9-5.1,8.9-5,14.3c0.1,4.2,0.9,7.6,2.4,10.6v0c2.4,5.1,6.3,9.1,10.3,14.2l0,0
		c1.3,1.7,2.6,3.4,3.9,5.3c4.6,6.9,3.3,11.1,6.1,11.1c2.9,0,1.6-4.2,6-11.2c7.3-11.6,15.9-17,15.7-30.5
		C203.9,59.3,202.9,55.8,201.3,52.7z M181.6,54.7c4.7-0.1,8.5,3.7,8.6,8.4c0,2-0.7,3.9-1.8,5.4l0,0c0,0-0.1,0.1-0.1,0.1l0,0
		c0,0,0,0,0,0l0,0c-1.5,1.9-3.8,3.1-6.5,3.1c-4.7,0.1-8.5-3.7-8.6-8.4c0-2,0.6-3.8,1.7-5.2l0,0c0.1-0.1,0.1-0.1,0.2-0.2l0,0
		c0,0,0.1-0.1,0.1-0.1l0.1-0.1C176.8,55.9,179.1,54.8,181.6,54.7z"/>
	
		<linearGradient id="SVGID_11_" gradientUnits="userSpaceOnUse" x1="229.0222" y1="726.9615" x2="194.8277" y2="739.3531" gradientTransform="matrix(1 0 0 1 0 -553.89)">
		<stop  offset="0" style="stop-color:#202124"/>
		<stop  offset="1" style="stop-color:#202124;stop-opacity:0"/>
	</linearGradient>
	<path fill="url(#SVGID_11_)" d="M200.5,178.6c-5.9,3.2-8,10-8.7,12.8l19.7-12.1C209.4,178,205.2,176.1,200.5,178.6z"/>
</g>
</svg>
