<svg width="192" height="192" viewBox="0 0 192 192" xmlns="http://www.w3.org/2000/svg"><title>network-error</title><g fill="none" fill-rule="evenodd"><path fill="#E8EAED" d="M64.5 141.3L29 146.6V59.8l35.5-5.3z"/><path fill="#F1F3F4" d="M64.5 136.4l-30.2 4.5v-77l30.2-4.5zm31.4 10.2l-31.4-5.3V54.5l31.4 5.3z"/><path fill="#FFF" d="M95.9 141.7l-31.4-5.3v-77l31.4 5.3z"/><path fill="#F1F3F4" d="M127.3 141.3l35.4 5.3V59.8l-35.4-5.3z"/><path fill="#FFF" d="M127.3 136.4l30.2 4.5v-77l-30.2-4.5z"/><path fill="#E8EAED" d="M95.9 146.6l31.4-5.3V54.5l-31.4 5.3z"/><path fill="#F1F3F4" d="M95.9 141.7l31.4-5.3v-77l-31.4 5.3z"/><g transform="translate(86.5 61)"><path d="M9.8 0A9.7 9.7 0 0 0 0 9.7c0 1.5.4 3 1.1 4.3 2.7 5.1 8 10.5 8 17.2a.7.7 0 0 0 1.3 0c0-6.7 5.3-12 8-17.2a9.2 9.2 0 0 0 1.1-4.3c0-5.3-4.4-9.7-9.8-9.7z" stroke="#9AA0A6" stroke-width=".5" fill="#BDC1C6"/><ellipse fill="#5F6368" fill-rule="nonzero" cx="9.8" cy="9.8" rx="3.3" ry="3.3"/></g><path d="M94 82.5h4a14 14 0 0 1-4 0zm-9.4-22a14 14 0 0 1 23 .1l-3.1 1a11 11 0 0 0-16.8-.2l-3.1-1z" fill="#BDC1C6" fill-rule="nonzero"/><path d="M82.5 53.2a16.5 16.5 0 0 1 27.3 0l-3.6 1.2a13 13 0 0 0-20 0l-3.7-1.2z" fill="#BDC1C6" fill-rule="nonzero"/></g></svg>