<svg xmlns="http://www.w3.org/2000/svg" width="260" height="260"><path fill="#3C4043" d="M232.175 151.615h-72.977c-1.092 0-1.985-.885-1.985-1.985v-.878c0-1.092.885-1.985 1.985-1.985h72.977c1.092 0 1.985.885 1.985 1.985v.878c-.008 1.092-.893 1.985-1.985 1.985zM207.305 197.875h-23.252c-.962 0-1.74-.779-1.74-1.74s.779-1.74 1.74-1.74h23.252c.962 0 1.74.779 1.74 1.74s-.779 1.74-1.74 1.74zM202.946 193.836c.389 0 .519-.511.183-.702-5.657-3.328-6-17.794-6-17.794v-22.97h-3.481v22.97s-.16 14.504-5.916 17.802c-.328.191-.183.702.198.702h15.015v-.008z"/><path fill="#5F6368" d="M194.03 141.653c-.16 0-.298-.122-.321-.282l-1.718-13.687c-.023-.176.107-.344.282-.359.176-.023.344.107.359.282l1.718 13.687c.023.176-.107.344-.282.359h-.038z"/><path fill="#5F6469" d="M195.213 141.386c-.168 0-.313-.137-.321-.305l-.473-9.588c-.008-.176.13-.328.305-.344.176 0 .328.13.344.305l.473 9.588c.008.176-.13.328-.305.344h-.023z"/><path fill="#5F6368" d="M196.182 141.874h-.046c-.176-.023-.298-.191-.275-.366l1.695-12.008c.023-.176.191-.305.366-.275.176.023.298.191.275.366l-1.695 12.008c-.022.161-.159.275-.32.275z"/><path fill="#80868B" d="M201.03 140.218c0 3.168-2.565 5.733-5.733 5.733s-5.733-2.565-5.733-5.733h11.466z"/><path fill="#5F6368" d="M194.732 133.065c1.627 0 2.947-1.319 2.947-2.947 0-1.627-1.319-2.947-2.947-2.947s-2.947 1.319-2.947 2.947c0 1.628 1.32 2.947 2.947 2.947z"/><path fill="#5F6368" d="M192.32 125.76l1.565-2.611c-.466-.305-1.023-.489-1.626-.489-1.626 0-2.947 1.321-2.947 2.947 0 1.626 1.321 2.947 2.947 2.947s2.947-1.321 2.947-2.947c0-.183-.023-.366-.053-.542l-2.833.695zM198.763 124.401c-.107 0-.214.008-.321.015l.427 3.466-2.626-2.061c-.267.443-.427.962-.427 1.527 0 1.626 1.321 2.947 2.947 2.947s2.947-1.321 2.947-2.947c-.001-1.626-1.321-2.947-2.947-2.947z"/><path fill="#3C4043" d="M58.885 197.875l5.181-32.129c.084-.522-.231-1.01-.651-1.01H39.15c-.421 0-.735.488-.651 1.01l5.181 32.129h15.205zM27.283 84.32s-10.749 3.96-8.434 14.925 17.199 8.225 17.199 8.225-1.323 9.747 5.457 12.489 10.902-1.129 12.486-3.807c4.548-7.692-4.383-38.837-26.708-31.832z"/><path fill="#3C4043" d="M57.306 130.342s-7.8-5.663.225-15.247c0 0-2.762-13.036 3.858-17.114s16.002 4.084 8.182 15.087c-6.257 8.803-5.574 22.025-12.265 17.274zM46.301 131.736s-5.843-10.966-16.097-12.793-9.151 7.717-5.954 9.443 8.379 2.234 8.379 2.234-1.544 8.529 5.072 9.544c0 0 1.433 7.615 8.93 7.717 4.498.061 4.948-3.241 4.588-5.892-.218-1.607-.788-3.157-1.619-4.585l-3.299-5.668z"/><path fill="#5F6368" d="M52.035 165.26c-.203 0-.403-.131-.487-.326-.11-.254-.099-.697.02-3.344 1.393-31.059-2.996-53.193-13.044-65.789-.172-.216-.137-.531.079-.703.216-.172.531-.136.703.079 10.204 12.791 14.666 35.15 13.262 66.458-.066 1.468-.123 2.735-.082 2.959.11.253-.016.519-.269.629-.06.026-.121.037-.182.037z"/><path fill="#5F6368" d="M52.034 138.633c-.065 0-.131-.013-.195-.04-.254-.107-.373-.401-.266-.655l7.529-17.818c.107-.254.4-.374.655-.266.254.107.373.401.266.655l-7.529 17.818c-.08.192-.265.306-.46.306zM46.301 109.595c-.116 0-.233-.04-.328-.122l-5.623-4.874c-.208-.181-.231-.497-.05-.706.181-.208.497-.231.706-.05l5.623 4.874c.208.181.231.497.05.706-.099.114-.238.172-.378.172zM52.24 152.07c-.191 0-.373-.109-.456-.294-.033-.073-3.367-7.396-9.029-14.943-.166-.221-.121-.535.1-.7.223-.165.536-.121.7.1 5.731 7.64 9.107 15.058 9.141 15.132.114.251.002.547-.25.661-.067.03-.137.044-.206.044zM50.977 129.616c-.14 0-.278-.058-.377-.172l-5.915-6.797c-.182-.208-.16-.524.049-.705.208-.182.523-.16.705.049l5.915 6.797c.182.208.16.524-.049.705-.094.083-.211.123-.328.123z"/><path d="M63.216 171.012H39.348l.162 1h23.545z"/><linearGradient id="a" gradientUnits="userSpaceOnUse" x1="88.3829" y1="114.847" x2="92.829" y2="110.0282" gradientTransform="matrix(1 0 0 -1 0 260)"><stop offset="0" style="stop-color:#669DF6"/><stop offset=".2019" style="stop-color:#5E97F2"/><stop offset=".5225" style="stop-color:#4787E7"/><stop offset=".9196" style="stop-color:#216DD6"/><stop offset="1" style="stop-color:#1967D2"/></linearGradient><path fill="url(#a)" d="M91.106 153.632l5.111-3.585-2.959-5.139z"/><path fill="#545C61" d="M76.923 218.413c1.091 2.383 5.341 2.601 7.117.799 3.044-3.088 8.057-5.839 8.057-5.839l.692-6.177c-2.041.781-2.423 3.976-2.423 3.976l-3.557 2.147c-.426.258-.972.118-1.247-.296-2.11-3.175-5.865-1.571-6.159-1.439-.204.254-.403.513-.611.763-1.225 1.479-3.022 3.548-1.869 6.066zM128.572 144.455s1.011 4.775-4.402 4.633l.284-7.144 2.893.417 1.225 2.094z"/><circle opacity=".21" fill="#669DF6" cx="156.088" cy="108.036" r="61.772"/><radialGradient id="b" cx="156.3622" cy="153.6112" r="12.9646" gradientTransform="matrix(1 0 0 -1 0 260)" gradientUnits="userSpaceOnUse"><stop offset=".4581" style="stop-color:#669DF6;stop-opacity:0.8"/><stop offset="1" style="stop-color:#669DF6;stop-opacity:0"/></radialGradient><circle opacity=".21" fill="url(#b)" cx="156.362" cy="106.389" r="12.965"/><circle fill="#669DF6" cx="156.086" cy="106.297" r="13.918"/><path fill="#202124" d="M156.086 121.436c-3.879 0-7.757-1.477-10.71-4.429-5.905-5.905-5.905-15.515 0-21.42 5.907-5.905 15.517-5.902 21.419 0 5.905 5.906 5.905 15.515 0 21.42-2.952 2.953-6.831 4.429-10.709 4.429zm-8.974-24.113c-4.948 4.948-4.948 13 0 17.948 4.949 4.949 13.001 4.949 17.948 0 4.948-4.948 4.947-12.999 0-17.948-4.948-4.948-12.999-4.948-17.948 0z"/><path fill="#9AA0A6" d="M83.687 203.042c.33-2.686.765-6.627.798-9.015.053-3.887.87-11.714 3.869-16.151l3.692-14.341 13.205 4.047-12.62 39.614-.692 6.177s-5.014 2.751-8.058 5.839c-1.776 1.802-6.026 1.583-7.117-.799-1.154-2.519.642-4.588 1.869-6.066.926-1.115 1.819-2.256 2.627-3.459l1.483-2.209c.399-.594.652-1.273.74-1.982l.204-1.655z"/><linearGradient id="c" gradientUnits="userSpaceOnUse" x1="99.0979" y1="98.0492" x2="97.0035" y2="87.6842" gradientTransform="matrix(1 0 0 -1 0 260)"><stop offset="0" style="stop-color:#202124"/><stop offset="1" style="stop-color:#202124;stop-opacity:0"/></linearGradient><path fill="url(#c)" d="M104.239 171.097s-6.949.541-13.818-.789l.984-3.682 12.834 4.471z"/><path fill="#9AA0A6" d="M121.748 205.11l1.658-38.717-14.59.55.781 12.992s-1.349 7.312.39 14.625c.84 3.53 3.301 12.725 3.301 12.992l.533 6.603s4.614 2.449 6.993 4.047c2.379 1.597 7.029 1.456 7.845.071.816-1.385.959-3.905-2.094-6.034-1.479-1.032-3.345-3.718-4.278-5.146-.381-.59-.568-1.281-.539-1.983z"/><linearGradient id="d" gradientUnits="userSpaceOnUse" x1="118.9339" y1="103.3113" x2="114.7645" y2="82.6766" gradientTransform="matrix(1 0 0 -1 0 260)"><stop offset="0" style="stop-color:#202124"/><stop offset="1" style="stop-color:#202124;stop-opacity:0"/></linearGradient><path fill="url(#d)" d="M123.266 169.96s-5.768 4.402-13.915 4.916l-.302-3.976 14.217-.94z"/><path fill="#669DF6" d="M104.239 171.097s-9.939-.852-15.832-6.425l6.886-28.007 29.214 4.509-1.242 28.788s-7.312 2.875-16.365 1.135l.231-8.43-2.892 8.43z"/><linearGradient id="e" gradientUnits="userSpaceOnUse" x1="124.4859" y1="92.746" x2="104.8382" y2="118.5169" gradientTransform="matrix(1 0 0 -1 0 260)"><stop offset="0" style="stop-color:#669DF6"/><stop offset=".2019" style="stop-color:#5E97F2"/><stop offset=".5225" style="stop-color:#4787E7"/><stop offset=".9196" style="stop-color:#216DD6"/><stop offset="1" style="stop-color:#1967D2"/></linearGradient><path fill="url(#e)" d="M124.532 140.408l-25.724-2.263 2.556 2.671s4.991 3.36 11.111 4.756c2.414.551 4.664.625 6.544.5l-8.106 4.825-3.781 11.768-.231 8.43s8.164 2.058 16.364-1.135l1.242-27.156-.074.044.099-2.44z"/><path fill="#9AA0A6" d="M125.91 123.477l5.57 6.193c2.797 2.993 7.564 2.928 10.28-.14l13.652-15.578-6.587-3.328s-3.835 2.576-6.852 4.28c-3.188 1.799-4.775 4.286-4.775 4.286l-3.638-4.144"/><path fill="#545C61" d="M121.881 77.064s6.07 1.615 2.325 9.07l-7.046-4.259 4.721-4.811z"/><circle fill="#545C61" cx="117.724" cy="95.851" r="6.043"/><path fill="#FCC934" d="M124.382 89.917c-.028 0-.055-.001-.083-.002-1.16-.058-2.044-1.334-1.969-2.846.036-.72.281-1.391.69-1.886.425-.514.96-.782 1.551-.753 1.16.058 2.043 1.334 1.969 2.846-.036.72-.281 1.391-.69 1.886-.405.489-.923.755-1.468.755zm.106-5.029c-.406 0-.801.207-1.116.589-.346.42-.554.993-.585 1.615-.063 1.26.626 2.321 1.534 2.366.423.022.844-.188 1.175-.587.346-.42.554-.993.585-1.615.062-1.26-.626-2.321-1.534-2.366-.019-.002-.039-.002-.059-.002z"/><linearGradient id="f" gradientUnits="userSpaceOnUse" x1="123.8331" y1="155.6951" x2="126.6728" y2="141.4962" gradientTransform="matrix(1 0 0 -1 0 260)"><stop offset="0" style="stop-color:#FCC934"/><stop offset=".2361" style="stop-color:#FAC132"/><stop offset=".611" style="stop-color:#F3AA2D"/><stop offset="1" style="stop-color:#EB8B26"/></linearGradient><path fill="url(#f)" d="M121.881 100.03s3.903 1.378 7.49 8.2c2.885 5.486 4.234 6.9 4.234 6.9s-2.383 5.71-9.274 9.394l-6.177-10.578 3.727-13.916z"/><path fill="#202124" d="M124.411 116.394l.329.446c.193-.142 4.447-3.338 5.522-6.955-.125-.226-.25-.454-.382-.698-.703 3.642-5.421 7.171-5.469 7.207zM131.595 112.201c-.782 3.61-5.562 7.264-5.612 7.301l.333.441c.198-.149 4.555-3.486 5.672-7.103-.123-.196-.255-.41-.393-.639z"/><path fill="#9AA0A6" d="M149.432 112.589s-1.383-2.473-.463-4.278c.775-1.517 1.431-2.88 1.501-4.173.022-.419.35-.751.768-.779.603-.041 1.134.392 1.215.991l.287 2.093 5.101-3.738s.226-.916.989-1.138c.356-.103.723.146.806.508l1.004 4.343c.139.599-.01 1.227-.401 1.7l-4.92 5.946-5.887-1.475z"/><path fill="#545C61" d="M153.117 111.89l5.849-7.906c.097-.13.099-.307.009-.441l-2.26-3.309c-.149-.217-.469-.222-.624-.009l-5.322 7.364c-.08.11-.095.255-.038.379l1.733 3.852c.119.266.48.305.653.07z"/><path fill="#9AA0A6" d="M157.628 109.861l-1.313-3.346c-.189-.482-.069-1.03.304-1.388l.07-.066c.333-.319.879-.234 1.099.172l1.809 3.352"/><path fill="#9AA0A6" d="M158.658 107.67l-1.313-3.346c-.189-.482-.069-1.03.304-1.388l.07-.066c.333-.319.879-.234 1.099.172l1.809 3.352M108.011 99.063l1.207-5.058.512-8.176c-.171-4.072 3.036-7.491 7.11-7.583 3.772-.085 6.984 2.725 7.4 6.475l.158 1.421c.238 2.061.708 3.285 1.035 3.919.184.36.009.802-.373.937-.47.166-.908.191-1.194.184-.156-.004-.277.117-.284.272-.05 1.138-.352 2.635-1.256 3.803-1.882 2.432-4.721 1.731-4.721 1.731l-.268 1.714c-.058.368.201.711.572.755l2.616.317.168 5.732-5.218 1.412-11.581.479-2.635-6.682 6.752-1.652z"/><path fill="#545C61" d="M112.642 76.579c.572-.233 1.124-.501 1.668-.792 1.587-.848 5.716-2.583 7.588 1.117 2.896 5.724-4.259 7.454-4.259 7.454.319 2.822-2.023 3.355-2.023 3.355-.759-.998-2.64-.869-3.266.94-.692 2.003 1.207 3.39 1.207 3.39l.763 1.171c2.387 3.979.158 8.872-6.114 8.67-6.594-.214-7.499-4.482-7.499-4.482s-1.826-4.928 2.79-7.779c.811-.501 1.285-1.419 1.204-2.37-.23-2.698.044-7.909 5.191-9.552l2.75-1.122z"/><path fill="#FCC934" d="M99.02 120.193s-4.847-1.04-7.276-3.692c-1.935-2.112-5.04-.816-5.04-.816s1.739-.852 4.614-6.745 7.356-2.343 7.356-2.343l2.583-5.893s2.91 5.219 10.685 5.537c7.809.319 8.554-6.496 8.554-6.496l1.385.284 2.946 12.885c4.083 6.105-.142 9.708-.142 9.708l3.887 21.831c-2.982-4.259-9.837 1.043-18.289-.64-11.634-2.316-16.665-8.279-16.665-8.279l5.402-15.341z"/><path fill="#545C61" d="M86.704 115.686s-1.855 1.441 1.042 4.497l2.365-5.19-2.218-.102-1.189.795z"/><path fill="#9AA0A6" d="M90.342 114.478l-4.362 9.509c-1.185 3.011-.972 6.394.582 9.233l9.655 16.825s3.727-1.704 5.254-6.212l-5.466-13.915 3.905-10.65-9.568-4.79z"/><path fill="#FCC934" d="M99.74 120.468s-3.935-.167-7.996-3.967c-2.759-2.583-5.04-.816-5.04-.816s1.815-.815 4.614-6.745c.95-2.014 1.971-3.504 2.921-4.601 1.445-1.667 3.394-2.807 5.543-3.298l1.475-.336.466 15.477-1.983 4.286z"/><linearGradient id="g" gradientUnits="userSpaceOnUse" x1="88.3829" y1="114.8469" x2="92.829" y2="110.0282" gradientTransform="matrix(1 0 0 -1 0 260)"><stop offset="0" style="stop-color:#669DF6"/><stop offset=".2019" style="stop-color:#5E97F2"/><stop offset=".5225" style="stop-color:#4787E7"/><stop offset=".9196" style="stop-color:#216DD6"/><stop offset="1" style="stop-color:#1967D2"/></linearGradient><path fill="url(#g)" d="M91.106 153.632l5.111-3.585-2.96-5.139z"/><path fill="#545C61" d="M76.923 218.413c1.091 2.383 5.341 2.601 7.117.799 3.044-3.088 8.057-5.839 8.057-5.839l.692-6.177c-2.041.781-2.423 3.976-2.423 3.976l-3.557 2.147c-.426.258-.972.118-1.247-.296-2.11-3.175-5.865-1.571-6.159-1.439-.204.254-.403.513-.611.763-1.225 1.479-3.022 3.548-1.869 6.066zM120.817 218.201c2.379 1.597 7.029 1.456 7.845.071.816-1.385.959-3.905-2.094-6.034-.135-.095-.274-.204-.414-.323-2.813-.513-4.401.879-5.092 1.747-.277.347-.768.431-1.151.204l-2.75-1.628c-1.03-3.231-3.869-4.685-3.869-4.685l.533 6.603c-.001-.002 4.613 2.448 6.992 4.045z"/><path fill="#FCC934" d="M121.212 90.313c-.03 0-.059-.001-.089-.002-1.289-.065-2.271-1.483-2.188-3.162v-.001c.083-1.679 1.209-2.994 2.49-2.931 1.29.065 2.271 1.483 2.187 3.163-.081 1.64-1.148 2.933-2.4 2.933zm-1.768-3.141c-.069 1.4.696 2.58 1.705 2.63 1.013.059 1.886-1.049 1.956-2.448.07-1.4-.695-2.58-1.704-2.63-1.023-.042-1.886 1.049-1.956 2.449v-.001z"/><path fill="#FCC934" d="M115.367 87.87c-.122 0-.23-.086-.251-.211-.024-.138.069-.27.207-.294l3.728-.648c.137-.02.271.067.295.207.024.138-.069.27-.207.294l-3.728.648c-.015.003-.03.004-.044.004zM123.253 86.46l-.035-.458 1.162-.089.035.457z"/><path fill="#202124" d="M95.304 112.175c3.063 2.532 6.131 3.191 6.261 3.217l.113-.541c-.029-.006-3.07-.66-6.021-3.102-2.093-1.73-3.815-1.831-4.941-1.582-.115.226-.228.444-.339.652.917-.344 2.648-.529 4.927 1.356zM94.158 114.691c3.06 2.531 6.163 3.245 6.293 3.274l.12-.539c-.029-.007-3.107-.718-6.061-3.161-2.315-1.912-4.171-1.835-5.272-1.493-.195.306-.383.586-.557.831.595-.373 2.603-1.293 5.477 1.088z"/></svg>