<svg xmlns="http://www.w3.org/2000/svg" width="220" height="220"><path fill="#3C4043" d="M183.5 39.7c-5.25 0-9.5-4.25-9.5-9.5s4.25-9.5 9.5-9.5 9.5 4.25 9.5 9.5-4.25 9.5-9.5 9.5z"/><linearGradient id="a" gradientUnits="userSpaceOnUse" x1="-2079.9033" y1="-19.7235" x2="-2079.9033" y2="72.3163" gradientTransform="matrix(-1 0 0 1 -1999.9565 42)"><stop offset="0" style="stop-color:#5F6368"/><stop offset="1" style="stop-color:#202124;stop-opacity:0"/></linearGradient><path fill="url(#a)" d="M159.894 111.692l-24.855-38.594c-7.8-10.761-20.795-15.541-32.774-11.531-.499.169-1.007.347-1.523.541-17.191 6.48-28.654-28.451-47.74-31.505-23.189-3.714-30.211 16.911-30.211 16.911L0 111.7l159.894-.008z"/><path fill="#202124" d="M37.926 40.171c7.081-.541 14.619 2.225 19.213 7.056 2.504 2.64 3.536 4.848 3.13 6.768-.618 2.995-4.619 5.254-10.423 7.715-2.538 1.074-4.255 3.02-4.729 5.338-.398 1.971.161 3.917 1.548 5.338 1.201 1.244 3.545 1.777 6.1 1.777 2.013 0 4.145-.33 5.964-.914l37.317-10.363c-.567-.025-1.125-.093-1.675-.195l-35.828 9.966c-3.968 1.261-9.501 1.286-11.421-.702-1.235-1.277-1.734-3.012-1.379-4.771.431-2.107 2.013-3.892 4.357-4.881 5.99-2.546 10.118-4.907 10.795-8.172.44-2.14-.634-4.535-3.299-7.335-4.721-4.958-12.453-7.809-19.72-7.25-4.315.33-10.27 1.988-15.008 7.775-.051.127-.076.203-.076.203l-.618 1.734c.008-.008.025-.017.034-.034 4.754-6.853 11.175-8.706 15.718-9.053z"/><linearGradient id="b" gradientUnits="userSpaceOnUse" x1="183.5" y1="-3.1309" x2="183.5" y2="49.5625" gradientTransform="translate(0 42)"><stop offset="0" style="stop-color:#3C4043"/><stop offset=".3864" style="stop-color:#35383B;stop-opacity:0.6136"/><stop offset=".9935" style="stop-color:#202124;stop-opacity:0.0065"/><stop offset="1" style="stop-color:#202124;stop-opacity:0"/></linearGradient><path fill="url(#b)" d="M214.4 67.8h-61.8c2.338-7.919 10.087-6.877 15.566-4.98 4.243 1.465 8.664.949 12.746-1.355l.627-.356c1.795-1.016 3.557-2.16 5.319-3.337 8.503-5.708 14.084-.61 16.837 3.354 1.347 1.939 3.168 2.803 4.98 2.371 2.193-.516 4.946-.186 5.725 4.303z"/><radialGradient id="c" cx="194.7135" cy="-821.4868" r="133.5746" gradientTransform="matrix(-.0973 .9953 .776 .0759 772.0255 -65.9185)" gradientUnits="userSpaceOnUse"><stop offset="0" style="stop-color:#3C4043"/><stop offset="1" style="stop-color:#3C4043;stop-opacity:0"/><stop offset="1" style="stop-color:#3C4043;stop-opacity:0"/></radialGradient><path fill="url(#c)" d="M208.42 130.9h-33.1c0 .5-1.8.9-3.9.9h-.4c-.3.8-3.1 1.4-6.5 1.4h-.2l-12.1 25.2H51.92l13.2-27.4v-.1H1.02v87.7h207.3v-.1h11.7v-87.7h-11.6v.1zm-9.4 12.4v.7c0 3-5.5 5.5-12.4 5.5-5.4 0-10.1-1.6-11.7-3.7h-.7c-6.3 0-11.5-2.3-11.5-5.2 0-2.7 4.8-5 10.9-5.2h9.6l1.9-4.5c.1-.1.3-.2.5-.2.3 0 .4.1.3.3l-1.8 4.1c2.2-.8 5.1-1.3 8.3-1.3 6.9 0 12.4 2.3 12.4 5 .3 2-2.1 3.6-5.8 4.5z"/><path fill="#5BB974" d="M209.3 113.1c0 6.2-5.6 11.3-12.4 11.3-3.6 0-6.8-1.4-9.1-3.5h-9.9c-6.1-.3-10.9-5.3-10.9-11.5 0-6.3 5.2-11.5 11.5-11.5h.7c1.7-4.9 6.3-8.4 11.7-8.4 6.9 0 12.4 5.5 12.4 12.4v1.6c3.5 2 6 5.6 6 9.6z"/><path fill="#5F6368" d="M185.7 131.2s-.1 0 0 0c-.3-.1-.4-.3-.4-.5l5-26.7c.1-.3.3-.3.5-.3.3.1.4.3.3.5l-5 26.7c0 .2-.2.3-.4.3z"/><path fill="#5F6368" d="M188.6 115.6h-.2l-12.7-4.1c-.3-.1-.3-.3-.3-.5.1-.3.3-.3.5-.3l12.7 4.1c.3.1.3.3.3.5s-.1.3-.3.3zM189.5 111.5c-.2 0-.4-.2-.4-.3 0-.3.1-.4.3-.5l6.3-1c.3 0 .4.1.5.3 0 .3-.1.4-.3.5l-6.4 1c.1 0 0 0 0 0z"/><path fill="#FCC934" d="M144.2 130.913c0-2 1.8-3.4 3.8-3.4 1 0 1.9.4 2.6 1.2.7-.7 1.6-1.2 2.6-1.2s1.9.4 2.6 1.2c.7-.7 1.6-1.2 2.6-1.2h.3c0-3.9 3.2-7.1 7.1-7.1 3.6 0 6.7 2.7 7 6.3h.4c2.3 0 4.2 1.9 4.2 4.2h-33.2z"/><radialGradient id="d" cx="37.7967" cy="-107.3373" r="204.1482" gradientTransform="translate(0 42)" gradientUnits="userSpaceOnUse"><stop offset=".1225" style="stop-color:#DADCE0"/><stop offset="1" style="stop-color:#5F6368"/></radialGradient><path fill="url(#d)" d="M65.145 75.514H165.47v55.399H65.145z"/><path fill="#202124" d="M118.632 120.292H97.704c-.175 0-.317-.142-.317-.317v-5.947c0-5.879 4.783-10.662 10.663-10.662h.237c5.879 0 10.663 4.783 10.663 10.662v5.947c-.001.175-.143.317-.318.317zm-20.611-.634h20.294v-5.63c0-5.529-4.499-10.028-10.028-10.028h-.237c-5.529 0-10.028 4.499-10.028 10.028v5.63zM88.678 120.292H67.75c-.175 0-.317-.142-.317-.317v-5.947c0-5.879 4.783-10.662 10.663-10.662h.237c5.879 0 10.663 4.783 10.663 10.662v5.947c-.001.175-.143.317-.318.317zm-20.611-.634h20.294v-5.63c0-5.529-4.499-10.028-10.028-10.028h-.237c-5.529 0-10.028 4.499-10.028 10.028v5.63zM149.549 131.23c-.175 0-.317-.142-.317-.317v-15.336c0-5.53-4.498-10.029-10.028-10.029h-.237c-5.529 0-10.028 4.499-10.028 10.029v15.336c0 .175-.142.317-.317.317s-.317-.142-.317-.317v-15.336c0-5.879 4.783-10.663 10.663-10.663h.237c5.879 0 10.662 4.784 10.662 10.663v15.336c0 .175-.142.317-.318.317z"/><path fill="#202124" d="M96.841 92.999c.744-.744 1.963-.744 2.707 0 .964.964 2.639.964 3.604 0 .744-.744 1.963-.744 2.707 0 .964.964 2.639.964 3.604 0 .727-.727 1.988-.719 2.707 0 .998.998 2.614.99 3.604 0 .727-.719 1.988-.727 2.707 0 .998.998 2.614.998 3.604 0 .719-.727 1.988-.719 2.707 0 .998.998 2.614.99 3.604 0 .727-.719 1.988-.727 2.707 0 .998.998 2.614.998 3.604 0 .719-.727 1.988-.719 2.707 0 .964.964 2.639.964 3.604 0 .727-.727 1.988-.719 2.707 0 .964.964 2.639.964 3.604 0 .744-.744 1.963-.744 2.707 0 .482.482 1.125.744 1.802.744s1.32-.262 1.802-.744c.719-.727 1.988-.719 2.707 0 .998.998 2.614.99 3.604 0 .719-.719 1.988-.727 2.707 0 .744.744 1.836.931 2.749.558v-.711c-.736.415-1.683.321-2.301-.296-.964-.964-2.639-.964-3.604 0-.744.744-1.963.744-2.707 0-.964-.964-2.648-.964-3.604 0-.727.719-1.988.727-2.707 0-.964-.964-2.639-.964-3.612 0-.719.727-1.988.719-2.707 0-.964-.964-2.639-.964-3.604 0-.727.719-1.988.727-2.707 0-.998-.998-2.614-.998-3.612 0-.719.727-1.988.719-2.707 0-.964-.964-2.639-.964-3.604 0-.744.744-1.963.744-2.707 0-.964-.964-2.648-.964-3.604 0-.753.744-1.963.744-2.707 0-.964-.964-2.639-.964-3.604 0-.744.744-1.963.744-2.707 0-.964-.964-2.639-.964-3.604 0-.727.719-1.988.727-2.707 0-.964-.964-2.639-.964-3.612 0-.719.727-1.988.719-2.707 0-.964-.964-2.639-.964-3.604 0-.753.744-1.963.744-2.707 0-.008-.008-.017 0-.017-.008l24.675-16.529c.144-.102.186-.296.085-.44-.017-.025-.042-.042-.059-.059h-.414l-4.889 3.274c-.042-.017-.085-.025-.127-.025h-47.77v.634h46.999L92.781 92.364c-.085.059-.144.161-.144.262v38.278h.634V98.413h72.199v-.634H93.28v-4.754c.989.964 2.58.955 3.561-.026z"/><radialGradient id="e" cx="237.7709" cy="1625.7926" r="107.1728" gradientTransform="matrix(.9879 .155 -.0736 .4691 3.6735 -626.4005)" gradientUnits="userSpaceOnUse"><stop offset=".0061" style="stop-color:#5F6368"/><stop offset=".3552" style="stop-color:#5F6368"/><stop offset=".6531" style="stop-color:#3C4043"/><stop offset=".9313" style="stop-color:#3C4043;stop-opacity:0.6"/><stop offset="1" style="stop-color:#202124;stop-opacity:0"/></radialGradient><path fill="url(#e)" d="M219.687 212.378h-6.505c0-7.89-6.421-14.311-14.311-14.311h-71.016c-11.478 0-20.816-9.338-20.816-20.816 0-7.89-6.42-14.311-14.311-14.311H0v-6.505h92.73c11.478 0 20.815 9.338 20.815 20.815 0 7.891 6.421 14.312 14.312 14.312h71.016c11.476.001 20.814 9.34 20.814 20.816z"/><path fill="#3C4043" d="M183.305 158.499h13.997v12.024h-13.997z"/><path fill="#3C4043" d="M182.59 155.996h15.426v4.552H182.59z"/><path fill="#3C4043" d="M188.692 170.643l-6.189-13.393.097 3.854.735.048-.03 9.372z"/><path fill="#3C4043" d="M182.835 165.811v-5.801l-14.755 7.178c-1.514.642-2.327 2.331-1.817 3.93l2.947 9.233c.22.691.706 1.288 1.372 1.571 1.597.681 3.057-.56 2.908-2.026l-.753-7.416c-.05-.487.244-.944.708-1.103l2.295-.783 2.308.003c2.643.001 4.787-2.142 4.787-4.786z"/><path fill="#3C4043" d="M172.137 165.215l2.148-10.06c.363-1.702 1.867-2.919 3.609-2.919 2.73 0 4.943 2.214 4.943 4.943v9.067"/><path fill="#3C4043" d="M177.964 157.583l4.306 8.663-10.133-1.031.387-1.815z"/><circle fill="#3C4043" cx="186.781" cy="185.913" r="6.544"/><circle fill="#3C4043" cx="186.781" cy="185.913" r="6.544"/><circle fill="#3C4043" cx="155.644" cy="185.913" r="6.544"/><circle fill="#3C4043" cx="155.644" cy="185.913" r="6.544"/><path fill="#3C4043" d="M167.722 162.057c.841 0 1.524.682 1.524 1.524 0 .841-.682 1.524-1.524 1.524h-2.817c-.841 0-1.524.682-1.524 1.524v14.525c0 .841.682 1.524 1.524 1.524h8.977c.841 0 1.524-.682 1.524-1.524v-9.057c0-.841.682-1.524 1.524-1.524h12.095c.499 0 .966.244 1.251.653l8.547 12.293c.703 1.011-.02 2.394-1.251 2.394H149.08c-.962 0-1.707-.889-1.495-1.827.832-3.683 4.124-6.434 8.058-6.434.183 0 .364.007.545.018.744.05 1.409-.46 1.573-1.186l2.31-12.36c.213-1.195 1.253-2.065 2.467-2.065h5.184v-.002z"/><path fill="#3C4043" d="M167.722 162.057c.841 0 1.524.682 1.524 1.524 0 .841-.682 1.524-1.524 1.524h-2.817c-.841 0-1.524.682-1.524 1.524v14.525c0 .841.682 1.524 1.524 1.524h8.977c.841 0 1.524-.682 1.524-1.524v-9.057c0-.841.682-1.524 1.524-1.524h12.095c.499 0 .966.244 1.251.653l8.547 12.293c.703 1.011-.02 2.394-1.251 2.394H149.08c-.962 0-1.707-.889-1.495-1.827.832-3.683 4.124-6.434 8.058-6.434.183 0 .364.007.545.018.744.05 1.409-.46 1.573-1.186l2.31-12.36c.213-1.195 1.253-2.065 2.467-2.065h5.184v-.002z"/><path fill="#3C4043" d="M158.299 165.795c0 1.468-.95 2.714-2.268 3.158-.523.175-1.063-.22-1.063-.773v-4.772c0-.551.541-.948 1.063-.773 1.319.446 2.268 1.692 2.268 3.16z"/><ellipse fill="#3C4043" cx="176.928" cy="147.349" rx="3.837" ry="3.988"/><path fill="#3C4043" d="M174.496 154.479l-1.486 3.468c-.138.323-.376.594-.678.774l-5.545 3.304c-.631.376-.94 1.121-.763 1.833.24.964 1.268 1.503 2.198 1.155l6.113-2.292c1.132-.424 2.042-1.291 2.521-2.401l1.974-4.577M170.94 146.411h4.158c.244 0 .444-.2.444-.444s-.2-.444-.444-.444h-4.158c-.244 0-.444.2-.444.444s.201.444.444.444z"/><circle fill="#3C4043" cx="177.085" cy="150.072" r="1.259"/><path fill="#3C4043" d="M173.249 157.391s2.691-.758 4.181 1.599l.856-1.827 1.513-2.449-5.233-.382-1.317 3.059zM195.002 185.913c0-4.615-3.741-8.357-8.357-8.357s-8.357 3.741-8.357 8.357M191.606 173.139H174.94c-.725 0-1.313-.588-1.313-1.313s.587-1.313 1.313-1.313h14.837l1.829 2.626z"/><path fill="#FCC934" d="M183.305 158.499h13.997v12.024h-13.997z"/><path fill="#FCC934" d="M182.59 155.996h15.426v4.552H182.59z"/><path fill="#202124" d="M182.591 160.336h15.426v.423h-15.426z"/><linearGradient id="f" gradientUnits="userSpaceOnUse" x1="285.5789" y1="1075.6871" x2="270.0268" y2="1101.2278" gradientTransform="matrix(-1 0 0 1 456.4172 -931.6149)"><stop offset="0" style="stop-color:#202124"/><stop offset="1" style="stop-color:#202124;stop-opacity:0"/></linearGradient><path fill="url(#f)" d="M188.692 170.643l-6.189-13.393.097 3.854.735.048-.03 9.372z"/><path fill="#3C4043" d="M182.835 165.811v-5.801l-14.755 7.178c-1.514.642-2.327 2.331-1.817 3.93l2.947 9.233c.22.691.706 1.288 1.372 1.571 1.597.681 3.057-.56 2.908-2.026l-.753-7.416c-.05-.487.244-.944.708-1.103l2.295-.783 2.308.003c2.643.001 4.787-2.142 4.787-4.786z"/><path fill="#5BB974" d="M172.137 165.215l2.148-10.06c.363-1.702 1.867-2.919 3.609-2.919 2.73 0 4.943 2.214 4.943 4.943v9.067"/><linearGradient id="g" gradientUnits="userSpaceOnUse" x1="279.2137" y1="1069.6807" x2="279.2137" y2="1098.2905" gradientTransform="matrix(-1 0 0 1 456.4172 -931.6149)"><stop offset="0" style="stop-color:#202124"/><stop offset="1" style="stop-color:#202124;stop-opacity:0"/></linearGradient><path fill="url(#g)" d="M177.964 157.583l4.306 8.663-10.133-1.031.387-1.815z"/><circle fill="#9AA0A6" cx="186.781" cy="185.913" r="6.544"/><linearGradient id="h" gradientUnits="userSpaceOnUse" x1="269.6365" y1="1106.3245" x2="269.6365" y2="1122.4646" gradientTransform="matrix(-1 0 0 1 456.4172 -931.6149)"><stop offset="0" style="stop-color:#202124"/><stop offset="1" style="stop-color:#202124;stop-opacity:0"/></linearGradient><circle fill="url(#h)" cx="186.781" cy="185.913" r="6.544"/><circle fill="#9AA0A6" cx="155.644" cy="185.913" r="6.544"/><linearGradient id="i" gradientUnits="userSpaceOnUse" x1="300.7729" y1="1102.838" x2="300.7729" y2="1123.2896" gradientTransform="matrix(-1 0 0 1 456.4172 -931.6149)"><stop offset="0" style="stop-color:#202124"/><stop offset="1" style="stop-color:#202124;stop-opacity:0"/></linearGradient><circle fill="url(#i)" cx="155.644" cy="185.913" r="6.544"/><path fill="#5F6368" d="M167.722 162.057c.841 0 1.524.682 1.524 1.524 0 .841-.682 1.524-1.524 1.524h-2.817c-.841 0-1.524.682-1.524 1.524v14.525c0 .841.682 1.524 1.524 1.524h8.977c.841 0 1.524-.682 1.524-1.524v-9.057c0-.841.682-1.524 1.524-1.524h12.095c.499 0 .966.244 1.251.653l8.547 12.293c.703 1.011-.02 2.394-1.251 2.394H149.08c-.962 0-1.707-.889-1.495-1.827.832-3.683 4.124-6.434 8.058-6.434.183 0 .364.007.545.018.744.05 1.409-.46 1.573-1.186l2.31-12.36c.213-1.195 1.253-2.065 2.467-2.065h5.184v-.002z"/><linearGradient id="j" gradientUnits="userSpaceOnUse" x1="283.0933" y1="1039.9241" x2="283.0933" y2="1118.7126" gradientTransform="matrix(-1 0 0 1 456.4172 -931.6149)"><stop offset="0" style="stop-color:#202124"/><stop offset="1" style="stop-color:#202124;stop-opacity:0"/></linearGradient><path fill="url(#j)" d="M167.722 162.057c.841 0 1.524.682 1.524 1.524 0 .841-.682 1.524-1.524 1.524h-2.817c-.841 0-1.524.682-1.524 1.524v14.525c0 .841.682 1.524 1.524 1.524h8.977c.841 0 1.524-.682 1.524-1.524v-9.057c0-.841.682-1.524 1.524-1.524h12.095c.499 0 .966.244 1.251.653l8.547 12.293c.703 1.011-.02 2.394-1.251 2.394H149.08c-.962 0-1.707-.889-1.495-1.827.832-3.683 4.124-6.434 8.058-6.434.183 0 .364.007.545.018.744.05 1.409-.46 1.573-1.186l2.31-12.36c.213-1.195 1.253-2.065 2.467-2.065h5.184v-.002z"/><path fill="#FCC934" d="M158.299 165.795c0 1.468-.95 2.714-2.268 3.158-.523.175-1.063-.22-1.063-.773v-4.772c0-.551.541-.948 1.063-.773 1.319.446 2.268 1.692 2.268 3.16z"/><ellipse fill="#5F6368" cx="176.928" cy="147.349" rx="3.837" ry="3.988"/><path fill="#5F6368" d="M174.496 154.479l-1.486 3.468c-.138.323-.376.594-.678.774l-5.545 3.304c-.631.376-.94 1.121-.763 1.833.24.964 1.268 1.503 2.198 1.155l6.113-2.292c1.132-.424 2.042-1.291 2.521-2.401l1.974-4.577"/><path fill="#EE675C" d="M170.94 146.411h4.158c.244 0 .444-.2.444-.444s-.2-.444-.444-.444h-4.158c-.244 0-.444.2-.444.444s.201.444.444.444z"/><circle fill="#EE675C" cx="177.085" cy="150.072" r="1.259"/><path fill="#5BB974" d="M173.249 157.391s2.691-.758 4.181 1.599l.856-1.827 1.513-2.449-5.233-.382-1.317 3.059z"/><path fill="#5F6368" d="M195.002 185.913c0-4.615-3.741-8.357-8.357-8.357s-8.357 3.741-8.357 8.357"/><linearGradient id="k" gradientUnits="userSpaceOnUse" x1="168.4587" y1="90.1354" x2="168.4587" y2="12.7719" gradientTransform="matrix(1 0 0 -1 0 220)"><stop offset="0" style="stop-color:#202124"/><stop offset="1" style="stop-color:#202124;stop-opacity:0"/></linearGradient><path fill="url(#k)" d="M193.633 198.543l-14.15 8.509c-.472.284-1.05.453-1.549.453h-12.096c-.841 0-1.213-.472-.83-1.055l4.128-6.269c.383-.582.013-1.055-.83-1.055h-8.977c-.841 0-1.834.472-2.219 1.055l-6.62 10.054c-.383.582-.013 1.055.83 1.055h2.817c.841 0 1.213.472.83 1.055-.383.582-1.376 1.055-2.219 1.055v.001h-5.183c-1.214 0-1.857-.602-1.525-1.43l3.324-8.556c.168-.503-.265-.856-1.032-.821-.185.008-.37.013-.553.013-3.934 0-5.972-1.904-5.125-4.453.216-.649 1.365-1.265 2.327-1.265H145v-.001c1.647-2.501 5.913-4.53 9.526-4.53 3.615 0 5.208 2.028 3.561 4.53l-.001.001h16.101v-.001h1.948c1.647-2.501 5.913-4.53 9.526-4.53s5.208 2.028 3.561 4.53h1.678l-.001.001h2.57c1.235-.003 1.327.954.164 1.654z"/><linearGradient id="l" gradientUnits="userSpaceOnUse" x1="93.2477" y1="125.1673" x2="93.2477" y2="47.8039" gradientTransform="matrix(-1 0 1.3549 -1 49.039 220)"><stop offset="0" style="stop-color:#202124"/><stop offset="1" style="stop-color:#202124;stop-opacity:0"/></linearGradient><path fill="url(#l)" d="M7.154 163.511l2.622 8.509c.088.284.437.453.936.453h12.095c.841 0 1.853-.472 2.258-1.055l4.366-6.269c.405-.582 1.417-1.055 2.258-1.055h8.977c.841 0 1.195.472.789 1.055l-7.001 10.054c-.405.582-1.417 1.055-2.258 1.055h-2.817c-.841 0-1.853.472-2.258 1.055-.405.582-.052 1.055.789 1.055v.001h5.183c1.214 0 2.673-.602 3.462-1.43l8.268-8.556c.514-.503 1.425-.856 2.144-.821.175.008.353.013.536.013 3.934 0 8.552-1.904 11.159-4.453.664-.649.349-1.265-.614-1.265h-.018l.001-.001c1.742-2.501.224-4.53-3.389-4.53-3.614 0-7.956 2.028-9.698 4.53v.001H28.842l.001-.001h-1.948c1.742-2.501.224-4.53-3.389-4.53s-7.956 2.028-9.698 4.53H12.13v.001H9.56c-1.232-.003-2.622.954-2.406 1.654z"/><path fill="#5F6368" d="M191.606 173.139H174.94c-.725 0-1.313-.588-1.313-1.313s.587-1.313 1.313-1.313h14.837l1.829 2.626z"/><path fill="#DADCE0" d="M26.004 115.499l-4.238 8.025-2.039 10.752 5.244.995 2.039-10.753z"/><linearGradient id="m" gradientUnits="userSpaceOnUse" x1="-687.9687" y1="840.4442" x2="-687.9687" y2="868.8455" gradientTransform="rotate(10.735 3525.71779 4276.93848)"><stop offset="0" style="stop-color:#3C4043"/><stop offset="1" style="stop-color:#3C4043;stop-opacity:0"/></linearGradient><path fill="url(#m)" d="M26.004 115.499l-4.238 8.025-2.039 10.752 5.244.995 2.039-10.753z"/><path fill="#5F6368" d="M10.226 121.336l11.54 2.188 4.238-8.025-11.538-2.188z"/><linearGradient id="n" gradientUnits="userSpaceOnUse" x1="-696.443" y1="850.0623" x2="-694.961" y2="843.7999" gradientTransform="rotate(10.735 3525.71779 4276.93848)"><stop offset="0" style="stop-color:#3C4043"/><stop offset="1" style="stop-color:#3C4043;stop-opacity:0"/></linearGradient><path fill="url(#n)" d="M10.226 121.336l11.54 2.188 4.238-8.025-11.538-2.188z"/><path fill="#5F6368" d="M14.466 113.311l-1.624 1.412c-.193.168-.108.484.144.532l11.951 2.266 1.067-2.021-11.538-2.189z"/><linearGradient id="o" gradientUnits="userSpaceOnUse" x1="-694.6455" y1="849.9063" x2="-694.5378" y2="841.1583" gradientTransform="rotate(10.735 3525.71779 4276.93848)"><stop offset="0" style="stop-color:#DADCE0"/><stop offset="1" style="stop-color:#DADCE0;stop-opacity:0"/></linearGradient><path fill="url(#o)" d="M14.466 113.311l-1.624 1.412c-.193.168-.108.484.144.532l11.951 2.266 1.067-2.021-11.538-2.189z"/><path fill="#669DF6" d="M16.06 120.813l1.591 1.304 3.965-7.45-3.869-.733-3.965 7.449z"/><linearGradient id="p" gradientUnits="userSpaceOnUse" x1="-694.8958" y1="838.8893" x2="-695.3619" y2="842.2595" gradientTransform="rotate(10.735 3525.71779 4276.93848)"><stop offset="0" style="stop-color:#FFFFFF;stop-opacity:0.936"/><stop offset="1" style="stop-color:#FFFFFF;stop-opacity:0"/></linearGradient><path opacity=".4" fill="url(#p)" d="M16.06 120.813l1.591 1.304 3.965-7.45-3.869-.733-3.965 7.449z"/><path fill="#5F6368" d="M8.18972 132.08806l2.03868-10.7515 11.53848 2.1879-2.03868 10.7515z"/><linearGradient id="q" gradientUnits="userSpaceOnUse" x1="-696.51" y1="866.8678" x2="-696.51" y2="850.9703" gradientTransform="rotate(10.735 3525.71779 4276.93848)"><stop offset="0" style="stop-color:#3C4043"/><stop offset="1" style="stop-color:#3C4043;stop-opacity:0"/></linearGradient><path fill="url(#q)" d="M10.226 121.336l11.54 2.188-2.039 10.752-11.54-2.188z"/><linearGradient id="r" gradientUnits="userSpaceOnUse" x1="-645.4716" y1="792.9126" x2="-695.45" y2="858.5582" gradientTransform="rotate(10.735 3525.71779 4276.93848)"><stop offset="0" style="stop-color:#202124"/><stop offset="1" style="stop-color:#202124;stop-opacity:0"/></linearGradient><path fill="url(#r)" d="M26.004 115.499l-4.238 8.025-2.039 10.752 3.16-2.344z"/><linearGradient id="s" gradientUnits="userSpaceOnUse" x1="-680.7646" y1="844.436" x2="-688.3371" y2="860.7821" gradientTransform="rotate(10.735 3525.71779 4276.93848)"><stop offset="0" style="stop-color:#202124"/><stop offset="1" style="stop-color:#202124;stop-opacity:0"/></linearGradient><path fill="url(#s)" d="M22.936 131.896l-.049.036-3.16 2.344 2.622.497 2.622.498z"/><linearGradient id="t" gradientUnits="userSpaceOnUse" x1="21.3731" y1="1052.6271" x2="25.432" y2="1047.3192" gradientTransform="translate(0 -931.6149)"><stop offset="0" style="stop-color:#202124"/><stop offset="1" style="stop-color:#202124;stop-opacity:0"/></linearGradient><path fill="url(#t)" d="M25.615 115.634l-.83 1.569-.184-.035c-.215-.041-.328-.278-.226-.47l.433-.817c.114-.217.357-.334.598-.288l.209.041z"/><linearGradient id="u" gradientUnits="userSpaceOnUse" x1="-702.7825" y1="850.3045" x2="-695.68" y2="847.0723" gradientTransform="rotate(10.735 3525.71779 4276.93848)"><stop offset="0" style="stop-color:#202124"/><stop offset="1" style="stop-color:#202124;stop-opacity:0"/></linearGradient><path fill="url(#u)" d="M13.782 121.383l2.483-.402-.205-.168z"/><linearGradient id="v" gradientUnits="userSpaceOnUse" x1="-705.593" y1="849.8151" x2="-688.7355" y2="842.1434" gradientTransform="rotate(10.735 3525.71779 4276.93848)"><stop offset="0" style="stop-color:#202124"/><stop offset="1" style="stop-color:#202124;stop-opacity:0"/></linearGradient><path fill="url(#v)" d="M17.651 122.117l4.323-7.385-.358-.065z"/><linearGradient id="w" gradientUnits="userSpaceOnUse" x1="-697.2706" y1="827.9984" x2="-694.259" y2="844.3951" gradientTransform="rotate(10.735 3525.71779 4276.93848)"><stop offset="0" style="stop-color:#202124"/><stop offset="1" style="stop-color:#202124;stop-opacity:0"/></linearGradient><path fill="url(#w)" d="M13.398 115.331l-.167.317 10.866 3.458.839-1.587z"/><path fill="#3C4043" d="M27.01 130.57v-5.801l14.755 7.178c1.514.642 2.327 2.331 1.817 3.93l-2.947 9.233c-.22.691-.706 1.288-1.372 1.571-1.597.681-3.057-.56-2.908-2.026l.753-7.416c.05-.487-.244-.944-.708-1.103l-2.295-.783-2.308.003c-2.643.002-4.787-2.141-4.787-4.786z"/><path fill="#5BB974" d="M37.708 129.974l-2.148-10.06c-.363-1.702-1.867-2.919-3.609-2.919-2.73 0-4.943 2.214-4.943 4.943v9.067"/><linearGradient id="x" gradientUnits="userSpaceOnUse" x1="32.6418" y1="1034.4396" x2="32.6418" y2="1063.0494" gradientTransform="translate(0 -931.6149)"><stop offset="0" style="stop-color:#202124"/><stop offset="1" style="stop-color:#202124;stop-opacity:0"/></linearGradient><path fill="url(#x)" d="M31.881 122.342l-4.306 8.663 10.133-1.031-.387-1.815z"/><circle fill="#9AA0A6" cx="23.065" cy="150.672" r="6.544"/><linearGradient id="y" gradientUnits="userSpaceOnUse" x1="23.0651" y1="1071.0836" x2="23.0651" y2="1087.2238" gradientTransform="translate(0 -931.6149)"><stop offset="0" style="stop-color:#202124"/><stop offset="1" style="stop-color:#202124;stop-opacity:0"/></linearGradient><circle fill="url(#y)" cx="23.065" cy="150.672" r="6.544"/><circle fill="#9AA0A6" cx="54.201" cy="150.672" r="6.544"/><linearGradient id="z" gradientUnits="userSpaceOnUse" x1="54.2014" y1="1067.597" x2="54.2014" y2="1088.0486" gradientTransform="translate(0 -931.6149)"><stop offset="0" style="stop-color:#202124"/><stop offset="1" style="stop-color:#202124;stop-opacity:0"/></linearGradient><circle fill="url(#z)" cx="54.201" cy="150.672" r="6.544"/><path fill="#5F6368" d="M42.123 126.816c-.841 0-1.524.682-1.524 1.524 0 .841.682 1.524 1.524 1.524h2.817c.841 0 1.524.682 1.524 1.524v14.525c0 .841-.682 1.524-1.524 1.524h-8.976c-.841 0-1.524-.682-1.524-1.524v-9.057c0-.841-.682-1.524-1.524-1.524H20.822c-.499 0-.966.244-1.251.653l-8.547 12.293c-.703 1.011.02 2.394 1.251 2.394H60.765c.962 0 1.707-.889 1.495-1.827-.832-3.683-4.124-6.434-8.058-6.434-.183 0-.364.007-.545.018-.744.05-1.409-.46-1.573-1.186l-2.31-12.361c-.213-1.195-1.253-2.065-2.467-2.065h-5.184v-.001z"/><linearGradient id="A" gradientUnits="userSpaceOnUse" x1="36.5223" y1="1004.6831" x2="36.5223" y2="1083.4717" gradientTransform="translate(0 -931.6149)"><stop offset="0" style="stop-color:#202124"/><stop offset="1" style="stop-color:#202124;stop-opacity:0"/></linearGradient><path fill="url(#A)" d="M42.123 126.816c-.841 0-1.524.682-1.524 1.524 0 .841.682 1.524 1.524 1.524h2.817c.841 0 1.524.682 1.524 1.524v14.525c0 .841-.682 1.524-1.524 1.524h-8.976c-.841 0-1.524-.682-1.524-1.524v-9.057c0-.841-.682-1.524-1.524-1.524H20.822c-.499 0-.966.244-1.251.653l-8.547 12.293c-.703 1.011.02 2.394 1.251 2.394H60.765c.962 0 1.707-.889 1.495-1.827-.832-3.683-4.124-6.434-8.058-6.434-.183 0-.364.007-.545.018-.744.05-1.409-.46-1.573-1.186l-2.31-12.361c-.213-1.195-1.253-2.065-2.467-2.065h-5.184v-.001z"/><path fill="#FCC934" d="M51.546 130.554c0 1.468.95 2.714 2.268 3.158.523.175 1.063-.22 1.063-.773v-4.772c0-.551-.541-.948-1.063-.773-1.319.447-2.268 1.693-2.268 3.16z"/><ellipse fill="#5F6368" cx="32.917" cy="112.108" rx="3.837" ry="3.988"/><path fill="#5F6368" d="M35.348 119.238l1.486 3.468c.138.323.376.594.678.774l5.545 3.304c.631.376.94 1.121.763 1.833-.24.964-1.268 1.503-2.198 1.155l-6.113-2.292c-1.132-.424-2.042-1.291-2.521-2.401l-1.974-4.577"/><path fill="#EE675C" d="M38.905 111.171h-4.158c-.244 0-.444-.2-.444-.444s.2-.444.444-.444h4.158c.244 0 .444.2.444.444 0 .243-.2.444-.444.444z"/><path fill="#EE675C" d="M32.836 113.576c-.848-.06-1.26-.484-1.41-.979-.002-.005-.003-.01-.005-.015-.207-.711.408-1.406 1.15-1.403l3.502.013-.035-.077.94-.058c-.224-2.278-2.118-4.056-4.423-4.056-2.441 0-4.43 2.093-4.444 4.509-.014 2.442 1.991 4.522 4.51 4.586.024 0 .049-.002.076-.006"/><circle fill="#EE675C" cx="32.761" cy="114.831" r="1.259"/><path fill="#5BB974" d="M36.596 122.15s-2.691-.758-4.181 1.599l-.856-1.827-1.513-2.449 5.233-.382 1.317 3.059z"/><path fill="#5F6368" d="M14.843 150.672c0-4.615 3.741-8.357 8.357-8.357s8.357 3.741 8.357 8.357"/><path fill="#DADCE0" d="M30.057 137.011c-.177 0-.46-.034-.931-.091-3.638-.438-5.674-.551-6.054-.339l-.223.126-.217-.143-13.651-9.559c-.184-.129-.229-.382-.1-.566.13-.184.384-.227.566-.1l13.476 9.436c.737-.2 2.41-.119 5.729.269L9.979 121.658c-.178-.137-.211-.392-.074-.57.137-.179.393-.211.57-.074l20.069 15.462-.12.29c-.074.175-.111.245-.367.245z"/><path fill="#5F6368" d="M18.24 137.898h16.666c.725 0 1.313-.588 1.313-1.313s-.587-1.313-1.313-1.313H20.068l-1.828 2.626z"/><linearGradient id="B" gradientUnits="userSpaceOnUse" x1="36.7196" y1="1047.3781" x2="20.7759" y2="1065.899" gradientTransform="translate(0 -931.6149)"><stop offset="0" style="stop-color:#202124"/><stop offset="1" style="stop-color:#202124;stop-opacity:0"/></linearGradient><path fill="url(#B)" d="M27.01 124.558l-.33-2.993-6.953 12.711 5.244.995z"/><path fill="#669DF6" d="M164.992 10.802h-96.17c-1.83 0-3.3 1.48-3.3 3.3v44.44c0 1.82 1.48 3.3 3.3 3.3h41.07l5.9 7.29c.57.71 1.66.71 2.23 0l5.9-7.29h41.07c1.82 0 3.3-1.48 3.3-3.3v-44.44c.01-1.82-1.47-3.3-3.3-3.3z"/><path fill="#202124" d="M79.372 31.452h2.22l2.25 6.54.4 1.4h.12l.43-1.4 2.34-6.54h2.22l-3.96 10.87h-2.16l-3.86-10.87zM90.622 41.632l4.33-7.73-.05-.09h-4.78l.03-1.88h7.04v1.97l-4.9 8.65-1.67-.92zM101.952 42.562c-.39 0-.79-.06-1.18-.17s-.75-.28-1.09-.52-.62-.52-.87-.87-.43-.77-.56-1.25l1.81-.7c.11.51.33.91.65 1.21.32.3.72.46 1.22.46.24 0 .47-.04.68-.13s.39-.21.55-.36.28-.33.36-.54c.09-.21.13-.44.13-.69 0-.24-.04-.47-.13-.68s-.21-.39-.36-.55-.33-.28-.54-.36-.44-.13-.69-.13c-.32 0-.59.07-.84.21-.24.14-.45.31-.62.51l-1.93-.88.61-5.19h5.85v1.75h-4.19l-.39 2.43.12.03c.2-.17.45-.32.74-.44s.65-.18 1.06-.18c.43 0 .85.08 1.24.25s.75.4 1.05.71c.3.3.55.67.73 1.1s.27.91.27 1.43-.09.99-.27 1.43-.44.81-.77 1.12c-.33.31-.72.56-1.17.74-.44.17-.94.26-1.47.26zM106.552 31.452h2.22l2.25 6.54.39 1.4h.12l.43-1.4 2.34-6.54h2.22l-3.96 10.87h-2.16l-3.85-10.87zM121.882 37.322h2.6v1.76h-2.6v2.58h-1.76v-2.58h-2.58v-1.76h2.58v-2.58h1.76v2.58zM129.702 42.562c-.56 0-1.07-.08-1.53-.24-.46-.16-.86-.38-1.19-.66-.33-.28-.59-.61-.78-.99-.18-.38-.27-.79-.27-1.24 0-.3.04-.59.13-.85s.2-.5.35-.71.32-.4.51-.56c.19-.16.39-.3.61-.41v-.12c-.33-.22-.63-.52-.87-.88-.25-.36-.37-.79-.37-1.28 0-.42.09-.8.26-1.16.17-.36.41-.67.71-.93s.66-.47 1.08-.61c.41-.15.87-.22 1.37-.22s.95.07 1.37.22c.42.15.77.35 1.08.61.31.26.54.57.71.93s.26.75.26 1.16c0 .49-.12.91-.37 1.28s-.54.66-.87.88v.12c.21.11.42.25.61.41s.36.35.51.56c.15.21.26.45.35.71s.13.55.13.85c0 .45-.09.86-.27 1.24-.18.38-.44.71-.77.99s-.73.5-1.19.66c-.49.16-1 .24-1.56.24zm0-1.84c.52 0 .94-.13 1.28-.4.33-.27.5-.63.5-1.09 0-.21-.05-.41-.14-.58s-.21-.33-.37-.46-.34-.23-.56-.3-.45-.11-.71-.11c-.26 0-.49.04-.71.11s-.4.17-.56.3c-.16.13-.28.29-.37.46-.09.17-.14.37-.14.58 0 .46.17.82.5 1.09.34.27.76.4 1.28.4zm0-4.69c.43 0 .78-.12 1.06-.36s.43-.55.43-.93c0-.39-.14-.71-.43-.93-.28-.23-.64-.34-1.06-.34-.43 0-.78.11-1.06.34-.28.23-.43.54-.43.93 0 .38.14.7.43.93.28.24.64.36 1.06.36zM142.672 42.072c-.35.15-.73.27-1.12.36-.39.09-.8.13-1.23.13-.81 0-1.56-.15-2.25-.44s-1.29-.7-1.8-1.21-.9-1.11-1.19-1.81c-.29-.7-.43-1.43-.43-2.22s.14-1.53.43-2.22c.29-.69.68-1.3 1.19-1.81.51-.51 1.11-.91 1.8-1.21.69-.29 1.44-.44 2.25-.44s1.56.15 2.25.44 1.29.7 1.8 1.21.9 1.11 1.19 1.81c.29.69.43 1.43.43 2.22 0 .84-.16 1.62-.47 2.34-.31.72-.75 1.34-1.32 1.85l.84 1.25-1.52 1.02-.85-1.27zm-2.31-3.46l1.52-1.03 1.18 1.79c.27-.31.49-.68.64-1.1.15-.42.24-.88.24-1.39 0-.56-.09-1.07-.28-1.53s-.44-.85-.77-1.18c-.33-.32-.71-.58-1.15-.76s-.91-.27-1.42-.27-.98.09-1.42.27c-.44.18-.82.43-1.15.76-.33.32-.59.72-.77 1.18-.18.46-.28.97-.28 1.53s.09 1.07.28 1.53.44.85.77 1.18c.33.32.71.58 1.15.76s.91.27 1.42.27c.22 0 .43-.02.64-.06.2-.04.4-.1.59-.17l-1.19-1.78zM150.822 42.562c-.43 0-.83-.06-1.22-.17s-.75-.28-1.07-.51c-.32-.23-.61-.51-.86-.86-.25-.34-.44-.74-.57-1.2l1.87-.74c.13.51.36.89.67 1.15s.71.39 1.18.39c.21 0 .41-.03.61-.1.19-.07.36-.16.5-.28.14-.12.26-.27.34-.43.09-.17.13-.36.13-.57 0-.44-.16-.79-.49-1.05-.33-.25-.78-.38-1.36-.38h-.89v-1.81h.82c.2 0 .4-.03.59-.08s.36-.13.51-.24.26-.24.35-.41c.09-.17.13-.36.13-.58 0-.34-.12-.62-.36-.84-.24-.22-.57-.33-.99-.33-.45 0-.79.12-1.02.36-.24.24-.4.5-.49.8l-1.82-.74c.09-.25.23-.51.41-.78.18-.27.41-.51.69-.73s.61-.39.98-.53.81-.21 1.29-.21c.5 0 .95.07 1.36.21s.76.34 1.06.58.52.54.68.88.24.71.24 1.1c0 .3-.04.58-.11.82-.08.24-.18.46-.3.65s-.26.36-.42.49c-.16.14-.32.25-.48.33v.12c.49.19.89.5 1.21.93s.48.96.48 1.61c0 .46-.09.87-.26 1.25s-.42.71-.74.99-.7.5-1.15.66c-.46.17-.95.25-1.5.25z"/></svg>