<svg xmlns="http://www.w3.org/2000/svg" width="160" height="160"><radialGradient id="a" cx="82.5012" cy="-7.9848" r="71.6571" gradientTransform="matrix(1 0 0 -.7705 0 75.878)" gradientUnits="userSpaceOnUse"><stop offset=".0041" style="stop-color:#2D3032"/><stop offset="1" style="stop-color:#2D3032;stop-opacity:0"/></radialGradient><path fill="url(#a)" d="M2.628 91.133v52.893h154.743V91.133H2.628zm126.771 39.107c-.779 2.43-8.757 3.116-17.821 1.535-2.032-.355-3.935-.796-5.673-1.29H78.624l-36.106-11.029h28.697l30.131 9.442c-3.314-1.43-5.2-3.034-4.767-4.384.779-2.43 8.757-3.116 17.821-1.535 9.062 1.581 15.777 4.833 14.999 7.261z"/><linearGradient id="b" gradientUnits="userSpaceOnUse" x1="106.2697" y1="81.7506" x2="106.8512" y2="22.4226" gradientTransform="matrix(1 0 0 -1 0 110)"><stop offset="0" style="stop-color:#2D3032"/><stop offset="1" style="stop-color:#202124"/></linearGradient><path fill-rule="evenodd" clip-rule="evenodd" fill="url(#b)" d="M138.905 78.131l-2.853-37.545c-.014-.187-.171-.331-.36-.331h-6.796c-.305 0-.559.232-.582.534l-1.399 17.59-7.956 2.193V33.574c0-.628-.509-1.136-1.136-1.136H84.429c-1.264 0-2.29 1.025-2.29 2.29v11.806l-5.113 2.149c-.569.239-.938.794-.938 1.409v26.219h-.044L57.036 91.133h99.701l-17.832-13.002z"/><linearGradient id="c" gradientUnits="userSpaceOnUse" x1="23.6686" y1="80.424" x2="24.5411" y2="28.6575" gradientTransform="matrix(1 0 0 -1 0 110)"><stop offset="0" style="stop-color:#2D3032"/><stop offset="1" style="stop-color:#202124"/></linearGradient><path fill-rule="evenodd" clip-rule="evenodd" fill="url(#c)" d="M15.134 60.117l2.097-31.587c.048-.734.399-1.415.968-1.881.531-.436 1.21-.65 1.896-.596 1.279.101 5.684.854 5.684.854v14.376l4.031-1.738V24.184l3.075-3.565.058-4.646h8.818l.063 8.04 2.472 1.657.595 65.464H4.013l11.121-31.017z"/><path fill-rule="evenodd" clip-rule="evenodd" fill="#5F6368" d="M71.216 119.456c1.797-3.068 2.891-7.118 2.891-11.559 0-9.575-5.08-17.336-11.346-17.336s-11.346 7.762-11.346 17.336c0 4.441 1.094 8.493 2.891 11.559h16.91z"/><ellipse transform="rotate(-60 69.5754 88.0626)" clip-rule="evenodd" fill="#5F6368" cx="69.576" cy="88.06" rx="9.005" ry="6.585"/><circle clip-rule="evenodd" fill="#5F6368" cx="65.625" cy="78.757" r="4.17"/><path fill="#9AA0A6" d="M66.714 111.674c-.199 0-.361-.162-.361-.361v-2.434c0-.199.162-.361.361-.361.199 0 .361.162.361.361v2.434c-.002.201-.162.361-.361.361zM61.647 102.276c-.199 0-.361-.162-.361-.361v-2.434c0-.199.162-.361.361-.361s.361.162.361.361v2.434c-.001.2-.162.361-.361.361zM57.018 109.068c-.199 0-.361-.162-.361-.361v-2.434c0-.199.162-.361.361-.361.199 0 .361.162.361.361v2.434c0 .2-.162.361-.361.361zM72.313 88.091c-.061 0-.121-.015-.178-.047-.173-.099-.234-.319-.136-.492l.634-1.119c.099-.173.319-.234.492-.136.173.099.234.319.136.492l-.634 1.119c-.067.118-.188.183-.314.183zM67.463 89.115c-.061 0-.121-.015-.178-.047-.173-.098-.234-.319-.136-.492l.634-1.119c.098-.173.319-.235.492-.136.173.098.234.319.136.492l-.634 1.119c-.067.116-.19.183-.314.183zM67.008 78.39c-.11 0-.218-.049-.288-.143l-.587-.781c-.12-.159-.088-.386.072-.504.159-.12.386-.088.504.072l.587.781c.12.159.088.386-.072.504-.065.048-.141.071-.216.071z"/><path fill="#202124" d="M71.047 95.595c.023-.01.307-.172.315-.178.007-.005.069-.042.098-.059-.025-.038-.048-.077-.074-.115-1.098-1.677-2.382-2.999-3.818-3.926-1.518-.98-3.134-1.478-4.808-1.478-.142 0-.284.005-.426.012-.012.243-.017.486-.011.723.145-.009.29-.014.436-.014 3.157 0 6.012 1.971 8.069 5.15.003-.001.196-.105.219-.115z"/><path fill-rule="evenodd" clip-rule="evenodd" fill="#5F6368" d="M45.708 42.536c-1.55.895-3.531.363-4.426-1.187l-.817-1.416c-.895-1.55-.363-3.531 1.187-4.426s3.531-.363 4.426 1.187l.817 1.416c.894 1.55.363 3.533-1.187 4.426z"/><path fill="#2D3032" d="M45.653 42.567c.019-.01.037-.02.054-.03.2-.116.383-.25.549-.398-2.434-2.158-4.027-5.185-4.68-6.585-.216.132-.413.287-.586.457.701 1.485 2.262 4.378 4.663 6.556z"/><path fill-rule="evenodd" clip-rule="evenodd" fill="#202124" d="M42.49 42.55c.965.546 2.186.582 3.217-.014.942-.544 1.507-1.491 1.604-2.497-1.988.017-3.745 1.003-4.821 2.511z"/><path fill-rule="evenodd" clip-rule="evenodd" fill="#5F6368" d="M54.502 119.456H42.518V46.149c0-3.3 2.676-5.976 5.976-5.976h.032c3.3 0 5.976 2.676 5.976 5.976v73.307z"/><path fill-rule="evenodd" clip-rule="evenodd" fill="#202124" d="M54.503 49.492l-2.753 3.824c-1.137 1.58-.779 3.782.802 4.919.592.426 1.272.643 1.95.662.001.001.001-9.405.001-9.405z"/><path fill="#2D3032" d="M50.965 119.456V40.692c-.232-.104-.473-.194-.721-.268v79.032h.721zM46.778 119.456V40.424c-.247.074-.488.164-.721.268v78.764h.721z"/><path fill-rule="evenodd" clip-rule="evenodd" fill="#202124" d="M46.669 61.41l-4.158-4.587v11.08c1.308.41 2.792.137 3.881-.85 1.635-1.483 1.758-4.009.277-5.643z"/><path fill-rule="evenodd" clip-rule="evenodd" fill="#5F6368" d="M52.648 57.327c-1.58-1.137-1.939-3.34-.802-4.919l4.053-5.632c1.137-1.58 3.34-1.939 4.919-.802 1.58 1.137 1.939 3.34.802 4.919l-4.053 5.632c-1.137 1.58-3.339 1.94-4.919.802z"/><path fill="#2D3032" d="M52.648 57.327c.138.1.282.187.429.263l8.083-11.337c-.106-.099-.22-.193-.341-.281-.077-.056-.156-.106-.235-.154L52.475 57.19c.056.05.114.094.173.137z"/><path fill-rule="evenodd" clip-rule="evenodd" fill="#5F6368" d="M46.393 65.86c1.634-1.482 1.759-4.007.277-5.642L36.482 48.979c-1.482-1.634-4.007-1.759-5.642-.277-1.634 1.482-1.759 4.007-.277 5.642L40.75 65.583c1.482 1.635 4.007 1.759 5.643.277z"/><path fill="#2D3032" d="M30.84 48.704c-.182.164-.344.342-.487.53l15.76 16.855c.095-.072.189-.148.279-.23.09-.082.174-.167.256-.255L30.842 48.703s-.001.001-.002.001z"/><path fill="#9AA0A6" d="M112.548 100.633c-.064 0-.13-.019-.187-.057-.155-.104-.197-.313-.094-.468l1.393-2.089c.104-.155.313-.197.468-.094.155.104.197.313.094.468l-1.393 2.09c-.064.097-.172.15-.281.15zM90.465 119.38c-.143 0-.277-.091-.321-.236-.056-.178.043-.367.22-.423l1.497-.472c.178-.056.367.042.423.22.056.178-.043.367-.22.423l-1.497.472a.3336.3336 0 01-.102.016zM119.556 112.038c-.173 0-.32-.132-.336-.308-.016-.185.121-.35.307-.366l2.002-.174c.187-.015.35.121.366.307.016.185-.121.35-.307.366l-2.002.174c-.01.001-.02.001-.03.001zM98.837 100.633c-.096 0-.192-.041-.258-.12l-1.175-1.393c-.12-.142-.103-.355.041-.476.142-.12.355-.103.476.041l1.175 1.393c.12.142.103.355-.041.476-.064.053-.141.079-.218.079z"/><circle clip-rule="evenodd" fill="#202124" cx="105.681" cy="113.835" r="15.148"/><path fill="#DADCE0" d="M115.684 110.039c2.013.587 3.796 1.766 5.141 3.419-.009-.347-.03-.691-.061-1.031-1.32-1.395-2.96-2.41-4.785-2.964.497-1.048.828-2.182.978-3.366.098-.78.112-1.559.048-2.324-.236-.266-.482-.524-.737-.772.163.985.187 1.999.058 3.017-.145 1.156-.476 2.259-.971 3.277-.403-.096-.812-.173-1.229-.225-1.785-.224-3.556-.016-5.196.59.147-.931.176-1.887.078-2.85-.155-1.526-.613-2.974-1.339-4.275 1.272-1.131 2.829-1.959 4.567-2.36-.304-.146-.613-.282-.928-.408-1.488.461-2.833 1.224-3.97 2.212-.625-.98-1.41-1.865-2.337-2.622-.261-.214-.53-.412-.806-.598-.331.032-.66.075-.985.129.483.279.948.601 1.389.962.904.738 1.664 1.606 2.263 2.568-1.761 1.722-2.94 4.017-3.254 6.541-1.488-1.08-3.232-1.776-5.108-2.011-.906-.114-1.808-.116-2.692-.012-.331-1.535-.309-3.121.051-4.635-.271.231-.534.471-.787.721-.205 1.324-.173 2.683.108 4.007-1.276.226-2.502.677-3.631 1.341-.122.318-.236.64-.337.967 1.251-.864 2.651-1.435 4.12-1.688.372 1.361 1.011 2.672 1.929 3.854.435.56.915 1.065 1.428 1.518-1.038.639-1.973 1.455-2.766 2.426-.577.707-1.058 1.47-1.44 2.274-1.47-.531-2.797-1.388-3.885-2.489.031.335.072.667.124.996.098.085.197.171.298.253.975.796 2.057 1.409 3.206 1.828-.566 1.399-.837 2.906-.791 4.443.222.305.456.602.701.89-.006-.052-.012-.104-.019-.156-.173-1.721.075-3.419.712-4.975 1.018.307 2.081.465 3.162.465.374 0 .751-.019 1.13-.057.942-.095 1.854-.307 2.719-.624-.424 2.657.114 5.464 1.687 7.841-.004.004-.009.006-.012.01-1.044.811-2.209 1.405-3.44 1.77.315.126.635.24.96.345 1.014-.386 1.976-.922 2.858-1.604.042.056.083.111.126.166.645.829 1.392 1.551 2.217 2.154.346-.012.688-.036 1.027-.07-1.041-.645-1.97-1.477-2.744-2.472-.046-.059-.091-.12-.136-.18 2.055-1.786 3.364-4.233 3.707-6.956.001-.006.001-.012.002-.017 1.894 1.376 4.137 2.106 6.466 2.106.096 0 .192-.001.288-.004 0 .005.001.01.001.015.179 1.775-.101 3.493-.744 5.034.318-.213.627-.438.927-.672.442-1.407.599-2.901.449-4.411.069-.006.138-.011.208-.019 1.326-.133 2.573-.498 3.707-1.049.143-.305.278-.616.4-.931-1.242.721-2.652 1.195-4.172 1.348-.075.007-.15.014-.225.02-.402-2.56-1.67-4.865-3.623-6.578.339-.209.671-.436.993-.686 1.216-.949 2.2-2.108 2.917-3.416zm-8.491-7.055c.639 1.189 1.044 2.504 1.183 3.888.106 1.053.051 2.085-.146 3.073-.792.356-1.549.81-2.252 1.355-.042-.056-.083-.111-.126-.166-.494-.637-1.049-1.21-1.654-1.716.216-2.474 1.311-4.737 2.995-6.434zm-2.619 12.052c-.294-.041-.587-.093-.876-.158.151-.266.314-.525.488-.777.114.317.244.63.388.935zm-.275-3.016c.064-.001.127-.002.19-.002.211 0 .42.007.629.02-.237.226-.462.462-.676.705-.055-.238-.103-.479-.143-.723zm.616 3.695c-.659.585-1.393 1.089-2.19 1.494.168-.599.391-1.187.666-1.75.503.12 1.011.205 1.524.256zm-.267-2.231c.361-.446.764-.866 1.206-1.257.311.477.582.974.81 1.487-.336.502-.716.973-1.133 1.409-.07-.004-.141-.007-.21-.011-.272-.522-.495-1.066-.673-1.628zm1.924 1.426c.13-.159.255-.321.375-.486.075.213.145.429.206.646-.253.028-.508.047-.761.056.059-.071.12-.143.18-.216zm.49-1.84c-.138-.283-.289-.56-.452-.832.266.056.528.121.786.197-.105.216-.216.427-.334.635zm-.414-1.477c.445-.323.911-.606 1.393-.852-.106.376-.234.744-.381 1.103-.334-.1-.671-.183-1.012-.251zm-1.387-.184c-.346-.023-.696-.031-1.046-.022 0-.005-.001-.01-.001-.015-.038-.384-.056-.765-.052-1.143.392.361.759.754 1.099 1.18zm-1.6.642c.069.441.164.875.284 1.3-.33.435-.624.89-.883 1.362-1.152-.336-2.253-.87-3.244-1.599 1.117-.559 2.339-.915 3.619-1.044.075-.006.149-.012.224-.019zm-5.899-.94c-.848-1.091-1.442-2.299-1.796-3.552.376-.041.755-.064 1.137-.064.438 0 .879.027 1.32.083 1.897.239 3.654.975 5.121 2.126-.032.565-.02 1.138.037 1.719-.069.006-.138.011-.208.019-1.46.147-2.847.572-4.102 1.243-.547-.463-1.054-.987-1.509-1.574zm1.294 7.172c-.353.036-.705.053-1.053.053-1.005 0-1.983-.146-2.912-.419.353-.732.795-1.426 1.323-2.072.795-.974 1.742-1.781 2.793-2.399 1.079.838 2.289 1.455 3.562 1.84-.344.726-.606 1.484-.785 2.261-.913.379-1.895.632-2.928.736zm8.405.93c-.319 2.544-1.534 4.832-3.442 6.511-1.529-2.343-1.999-5.12-1.486-7.715.985-.44 1.9-1.025 2.72-1.739.606.948 1.361 1.806 2.248 2.546-.009.132-.023.264-.04.397zm-1.733-3.382c.022-.022.044-.043.067-.066.068.001.137.002.205.002.435 0 .871-.026 1.306-.078.164.756.243 1.533.235 2.319-.707-.647-1.315-1.379-1.813-2.177zm1.652-2.047c.234-.372.444-.755.63-1.148.944.342 1.831.818 2.631 1.407-.915.457-1.877.769-2.856.938-.11-.407-.246-.806-.405-1.197zm7.382 6.959c-2.393.046-4.702-.724-6.601-2.211.057-.995-.02-1.98-.224-2.936 1.12-.199 2.219-.57 3.254-1.124 1.844 1.554 3.156 3.743 3.571 6.271zm-3.502-7.037c-.918-.714-1.927-1.271-2.992-1.659.216-.535.389-1.086.519-1.65 1.245-.514 2.578-.781 3.94-.781.438 0 .879.027 1.32.083.339.042.674.101 1.002.176-.669 1.175-1.568 2.219-2.669 3.073-.361.28-.735.532-1.12.758z"/><path fill="#9AA0A6" d="M116.075 127.714c-.07 0-.141-.022-.203-.068l-1.625-1.219c-.15-.111-.179-.323-.068-.472.111-.15.323-.179.472-.068l1.625 1.219c.15.111.179.323.068.472-.066.089-.167.136-.269.136zM98.405 128.95c-.054 0-.11-.014-.161-.041-.164-.089-.225-.294-.136-.457l.834-1.538c.089-.164.294-.225.457-.136.164.089.225.294.136.457l-.834 1.538c-.06.113-.176.177-.296.177z"/><path fill="#202124" d="M70.305 79.71c-.033.006-.057.012-.078.017-.1.023-.153.033-.209.047-.058.014-.174.042-.376.101l-.016.048c-.29.996-.948 1.886-1.917 2.445-.656.379-1.373.56-2.081.56-.132 0-.263-.009-.394-.021l-.001.001-.038-.002s-.31.378-.324.393c-.012.015-.198.256-.198.256l.032.006c.302.058.609.089.922.089.854 0 1.698-.227 2.442-.656 1.25-.721 2.058-1.915 2.336-3.225h.001l.007-.035.009-.042c.001-.002-.06.007-.117.018z"/></svg>