<?xml version="1.0" encoding="utf-8"?>
<!-- Generator: Adobe Illustrator 24.2.3, SVG Export Plug-In . SVG Version: 6.00 Build 0)  -->
<svg version="1.1" id="Layer_1" xmlns="http://www.w3.org/2000/svg" xmlns:xlink="http://www.w3.org/1999/xlink" x="0px" y="0px"
	 width="36px" height="36px" viewBox="0 0 36 36" style="enable-background:new 0 0 36 36;" xml:space="preserve">
<path id="Vector" d="M26.5906 34.5L27.2592 28.7973H24L30.0941 18H31.2678L30.6057 24.4847H34.5L27.7644 34.5L26.5906 34.5Z"/>
<path id="Subtract" fill-rule="evenodd" clip-rule="evenodd" d="M30 6H6C4.335 6 3.015 7.335 3.015 9L3.0125 12H33V9C33 7.335 31.665 6 30 6ZM3 27L3.00875 16.5H27.48L19.7236 30H6C4.335 30 3 28.665 3 27ZM30.8766 29.8715C30.5996 29.9551 30.3054 30 30 30H27.1176L27.2586 28.7973H23.9994L30.0935 18H31.2672L30.6051 24.4847H33V26.7142L30.8766 29.8715Z"/>
</svg>