<svg version="1.1" id="Layer_1" xmlns="http://www.w3.org/2000/svg" xmlns:xlink="http://www.w3.org/1999/xlink" x="0px" y="0px" width="600px" height="200px" viewBox="0 0 600 200" enable-background="new 0 0 600 200" xml:space="preserve"><path fill="#FDD663" d="M234.1,168.41c3.045,1.862,5.751,4.229,8,7l5.42-9.08c-3.37-4.48-11.4-9.84-17.74-11.09l-5.42,9.08 C227.815,165.12,231.109,166.503,234.1,168.41z"></path><path fill="#8AB4F8" d="M176.24,35.67c-1.302-0.541-2.403-1.475-3.15-2.67l-5.41,12.85c1.557,2.403,4.421,3.615,7.23,3.06L180.32,36 C178.958,36.312,177.534,36.197,176.24,35.67z"></path><path fill="#F28B82" d="M53.53,97.55c-2.889,1.563-6.024,2.622-9.27,3.13l4,7.6c5.12-0.6,13.1-4.5,17-9l-4-7.6 C59.029,94.055,56.416,96.039,53.53,97.55z"></path><path fill="#81C995" d="M520.33,143.5c3.691-1.996,7.652-3.445,11.76-4.3L527,130c-6.42,1.1-16.65,6.16-21.9,11.53l5.15,9.24 C513.243,147.874,516.638,145.426,520.33,143.5z"></path><path fill="#8AB4F8" d="M423.88,121.44c1.897-0.279,3.83-0.183,5.69,0.28l-1.49-11.3c-3.751-0.836-7.677-0.315-11.08,1.47 l1.49,11.29C420.161,122.266,421.99,121.676,423.88,121.44z"></path><linearGradient id="SVGID_1_" gradientUnits="userSpaceOnUse" x1="136.48" y1="1244.17" x2="136.48" y2="1275.5701" gradientTransform="matrix(1 0 0 1 0 -1132)"><stop offset="0" style="stop-color:#E6E8EB"></stop><stop offset="0.13" style="stop-color:#E6E8EB;stop-opacity:0.98"></stop><stop offset="0.26" style="stop-color:#E8EAEC;stop-opacity:0.93"></stop><stop offset="0.39" style="stop-color:#EAECEE;stop-opacity:0.84"></stop><stop offset="0.52" style="stop-color:#EDEEF1;stop-opacity:0.72"></stop><stop offset="0.66" style="stop-color:#F1F2F4;stop-opacity:0.56"></stop><stop offset="0.79" style="stop-color:#F6F7F8;stop-opacity:0.37"></stop><stop offset="0.93" style="stop-color:#FCFCFC;stop-opacity:0.14"></stop><stop offset="1" style="stop-color:#FFFFFF;stop-opacity:0"></stop></linearGradient><path fill="url(#SVGID_1_)" d="M139.9,129.5c2.405-3.35,5.364-6.265,8.75-8.62l-10-7c-5.47,3.49-12.35,12.27-14.34,19.47l10,7 C135.55,136.445,137.44,132.777,139.9,129.5z"></path><linearGradient id="SVGID_2_" gradientUnits="userSpaceOnUse" x1="429.165" y1="1171.36" x2="429.165" y2="1202.75" gradientTransform="matrix(1 0 0 1 0 -1132)"><stop offset="0" style="stop-color:#E6E8EB"></stop><stop offset="0.13" style="stop-color:#E6E8EB;stop-opacity:0.98"></stop><stop offset="0.26" style="stop-color:#E8EAEC;stop-opacity:0.93"></stop><stop offset="0.39" style="stop-color:#EAECEE;stop-opacity:0.84"></stop><stop offset="0.52" style="stop-color:#EDEEF1;stop-opacity:0.72"></stop><stop offset="0.66" style="stop-color:#F1F2F4;stop-opacity:0.56"></stop><stop offset="0.79" style="stop-color:#F6F7F8;stop-opacity:0.37"></stop><stop offset="0.93" style="stop-color:#FCFCFC;stop-opacity:0.14"></stop><stop offset="1" style="stop-color:#FFFFFF;stop-opacity:0"></stop></linearGradient><path fill="url(#SVGID_2_)" d="M432.58,56.68c2.408-3.348,5.366-6.263,8.75-8.62l-10-7C425.88,44.51,419,53.29,417,60.48l10,7.05 C428.235,63.625,430.121,59.956,432.58,56.68z"></path><path fill="#202124" stroke="#F1F3F6" stroke-width="4" stroke-miterlimit="10" d="M307.68,76.6 c1.097,24.956-18.244,46.076-43.2,47.173c-9.145,0.402-18.197-1.98-25.96-6.833l-19.7,6.89l6.51-19.5 c-14.22-20.53-9.105-48.701,11.425-62.922s48.701-9.105,62.922,11.425C304.532,59.842,307.306,68.082,307.68,76.6z"></path><path fill="#F28B82" d="M262.17,89.43c-0.47-0.44-0.93-0.88-1.4-1.3c-1.33-1.19-2.66-2.36-4-3.54c-1.09-1-2.2-1.89-3.21-2.94 c-0.796-0.789-1.47-1.692-2-2.68c-0.415-0.824-0.699-1.708-0.84-2.62c-0.13-0.803-0.18-1.617-0.15-2.43 c0.052-2.436,1.623-4.578,3.93-5.36c2.281-0.835,4.841-0.225,6.5,1.55c0.426,0.413,0.796,0.88,1.1,1.39l0.07,0.11 c0,0,0.06-0.1,0.09-0.14c0.672-1.101,1.629-1.999,2.77-2.6c2.358-1.201,5.222-0.745,7.09,1.13c0.869,0.895,1.43,2.044,1.6,3.28 c0.085,0.778,0.085,1.562,0,2.34c-0.065,0.783-0.227,1.556-0.48,2.3c-0.396,1.105-1,2.123-1.78,3 c-0.854,0.959-1.773,1.858-2.75,2.69l-4.3,3.77c-0.73,0.65-1.44,1.33-2.16,2L262.17,89.43z"></path><linearGradient id="SVGID_3_" gradientUnits="userSpaceOnUse" x1="239.7344" y1="176.1861" x2="238.6909" y2="123.4904" gradientTransform="matrix(1 0 0 -1 0 202)"><stop offset="0" style="stop-color:#D4D4D4"></stop><stop offset="0.1" style="stop-color:#D5D5D5;stop-opacity:0.97"></stop><stop offset="0.25" style="stop-color:#D9D9D9;stop-opacity:0.87"></stop><stop offset="0.42" style="stop-color:#E0E0E0;stop-opacity:0.72"></stop><stop offset="0.62" style="stop-color:#E9E9E9;stop-opacity:0.51"></stop><stop offset="0.83" style="stop-color:#F5F5F5;stop-opacity:0.24"></stop><stop offset="1" style="stop-color:#FFFFFF;stop-opacity:0"></stop></linearGradient><path opacity="0.5" fill="url(#SVGID_3_)" enable-background="new    " d="M231.67,70.48l6.45,7.53 c8.886-8.23,10.599-21.429,4.564-31.582c-2.604,1.57-5.003,3.445-7.148,5.577C238.52,58.179,237.127,65.814,231.67,70.48z"></path><path fill="#8AB4F8" d="M267.233,116.252c-0.286-0.838-0.715-1.643-1.308-2.37l-13.23-16.193c-2.67-3.268-7.481-3.754-10.746-1.086 s-3.748,7.48-1.079,10.747l4.22,5.165c5.131,2.605,10.931,4.083,17.08,4.083C263.888,116.6,265.576,116.474,267.233,116.252z"></path><path fill="#FDD663" d="M278.33,105.37c-0.372,0.313-0.592,0.77-0.605,1.256c-0.025,0.939,0.716,1.719,1.655,1.744h6.32 c6.039-4.813,10.566-11.435,12.768-19.048L278.33,105.37z"></path><path fill="#202124" stroke="#F1F3F6" stroke-width="4" stroke-miterlimit="10" d="M281.6,111.55 c-1.247,28.399,20.764,52.431,49.163,53.678c10.402,0.457,20.697-2.252,29.527-7.768l22.43,7.85l-7.41-22.2 c16.186-23.361,10.369-55.421-12.992-71.606c-23.361-16.186-55.421-10.369-71.606,12.992 C285.184,92.474,282.025,101.853,281.6,111.55L281.6,111.55z"></path><path fill="#F28B82" d="M333,124.45c-0.47-0.44-0.93-0.88-1.4-1.3c-1.33-1.19-2.66-2.36-4-3.54c-1.09-1-2.2-1.89-3.21-2.94 c-0.796-0.789-1.47-1.692-2-2.68c-0.42-0.822-0.703-1.707-0.84-2.62c-0.13-0.803-0.18-1.617-0.15-2.43 c0.053-2.432,1.619-4.572,3.92-5.36c2.287-0.839,4.855-0.228,6.52,1.55c0.426,0.413,0.796,0.88,1.1,1.39l0.07,0.11l0.09-0.14 c0.672-1.101,1.629-1.999,2.77-2.6c2.364-1.226,5.25-0.777,7.13,1.11c0.869,0.895,1.43,2.044,1.6,3.28c0.09,0.777,0.09,1.563,0,2.34 c-0.062,0.783-0.22,1.555-0.47,2.3c-0.396,1.105-1,2.123-1.78,3c-0.854,0.959-1.773,1.858-2.75,2.69l-4.3,3.77 c-0.73,0.65-1.44,1.33-2.17,2C333.09,124.409,333.046,124.432,333,124.45z"></path><path fill="#FDD663" d="M299.419,96.523l0.451,5.877c0.027,0.303,0.136,0.593,0.316,0.839c0.545,0.744,1.59,0.906,2.334,0.361 l8.3-5.82l8.3-5.84c0.253-0.169,0.454-0.404,0.583-0.679c0.391-0.835,0.032-1.829-0.803-2.221l-9.06-4.1l-0.774-0.345 C305.09,87.856,301.798,91.915,299.419,96.523z"></path><path fill="#8AB4F8" d="M296.58,64.18c0.146,0.031,0.289,0.005,0.418-0.06c-1.371-3.246-3.188-6.255-5.365-8.963l-0.923,1.273 l-3.17,4.41c-0.41,0.55-0.22,1.43,0.35,1.55l4.35,0.89L296.58,64.18z"></path><path fill="#FDD663" d="M318.58,128.26l-15.675,8.407c1.326,1.746,2.801,3.371,4.405,4.86l15.939,3.044 c1.5,0.29,3.36-1.32,2.78-2.41L318.58,128.26z"></path><linearGradient id="SVGID_4_" gradientUnits="userSpaceOnUse" x1="329.2823" y1="150.9023" x2="365.8041" y2="84.6415" gradientTransform="matrix(1 0 0 -1 0 202)"><stop offset="0" style="stop-color:#D4D4D4"></stop><stop offset="0.1" style="stop-color:#D5D5D5;stop-opacity:0.97"></stop><stop offset="0.25" style="stop-color:#D9D9D9;stop-opacity:0.87"></stop><stop offset="0.42" style="stop-color:#E0E0E0;stop-opacity:0.72"></stop><stop offset="0.62" style="stop-color:#E9E9E9;stop-opacity:0.51"></stop><stop offset="0.83" style="stop-color:#F5F5F5;stop-opacity:0.24"></stop><stop offset="1" style="stop-color:#FFFFFF;stop-opacity:0"></stop></linearGradient><path opacity="0.5" fill="url(#SVGID_4_)" enable-background="new    " d="M350.648,80.409c-4.022-2.127-8.472-3.546-13.19-4.1 c0.375,15.319,8.969,29.935,23.621,37.288c3.05,1.531,6.267,2.675,9.575,3.44c0.089-1.058,0.145-2.126,0.145-3.207 c0-3.665-0.532-7.203-1.505-10.554C359.625,99.478,352.443,90.834,350.648,80.409z"></path><path fill="#8AB4F8" d="M360.947,139.276l-0.929-0.819c-4.649-4.097-11.737-3.651-15.833,0.995 c-2.766,3.138-3.451,7.388-2.177,11.08C349.418,148.723,355.973,144.735,360.947,139.276z"></path></svg>