<svg width="232" height="132" fill="none" xmlns="http://www.w3.org/2000/svg"><path d="M219.42 132H12.58C5.632 132 0 126.368 0 119.42V12.58C0 5.632 5.632 0 12.58 0h206.84C226.368 0 232 5.632 232 12.58v106.84c0 6.948-5.632 12.58-12.58 12.58z" fill="#E6F4EA"/><path d="M21.769 64.639c.283.226.566.424.849.651.142.113.283.283.453.396l.396.34c7.275 6.483 11.861 15.909 11.861 26.383l57.468-.014c0-47.721-36.029-87.021-82.368-92.197C4.578 1.207.116 6.248.011 12.362L0 57.08c8.209 0 15.739 2.803 21.712 7.502l.057.057zM114.162 132h55.727V91.752c-25.971 0-47.988 16.872-55.727 40.248zM96.1479 1.35498c0 17.97402 14.5781 32.57902 32.5791 32.57902 9.98 0 18.915-4.52 24.898-11.6 0-.026 0-.026.026-.052l.026-.026c.104-.131.209-.235.313-.366l.078-.078c4.546-5.591 7.263-12.72302 7.263-20.48202 0-.446-.016-.887-.034-1.329H96.1769c-.019.448-.029.9-.029 1.354zM231.831 10.611c-.855-5.42503-5.167-9.68903-10.617-10.46903-10.124 2.336-19.001 7.937-25.464 15.63003-6.881 8.194-11.022 18.754-11.022 30.281 0 8.872 1.789 16.056 4.732 22.505 4.934 10.805 13.099 19.475 21.495 30.353 2.727 3.534 5.482 7.285 8.151 11.426 5.416 8.394 6.842 14.869 8.164 18.905 2.414-1.932 4.09-4.733 4.573-7.93l-.012-110.701z" fill="#D8EFDD"/></svg>