<?xml version="1.0" encoding="utf-8"?>
<!-- Generator: Adobe Illustrator 23.0.1, SVG Export Plug-In . SVG Version: 6.00 Build 0)  -->
<svg version="1.1" xmlns="http://www.w3.org/2000/svg" xmlns:xlink="http://www.w3.org/1999/xlink" x="0px" y="0px" width="24px"
         height="24px" viewBox="0 0 24 24" enable-background="new 0 0 24 24" xml:space="preserve">
<g id="Layer_2">
        <polygon stroke="#000000" stroke-width="0.5" points="15.8,8 20.67,8 18.43,5.76 19,5.2 22.2,8.4 19,11.6 18.44,11.04 20.67,8.8 
                15.8,8.8        "/>
</g>
<g id="Layer_3">
        <path d="M10,12c2.21,0,4-1.79,4-4s-1.79-4-4-4S6,5.79,6,8S7.79,12,10,12z M10,6c1.1,0,2,0.9,2,2s-0.9,2-2,2S8,9.1,8,8S8.9,6,10,6z
                 M10,13c-2.67,0-8,1.34-8,4v3h16v-3C18,14.34,12.67,13,10,13z M16,18H4v-0.99C4.2,16.29,7.3,15,10,15s5.8,1.29,6,2V18z"/>
</g>
</svg>
